<svg width="500" height="300" viewBox="0 0 500 300" fill="none" xmlns="http://www.w3.org/2000/svg">
<rect x="203.922" y="52.5" width="120.888" height="195" rx="2.5" stroke="#81B3FF" stroke-width="5"/>
<path d="M283.845 122C283.845 135.236 274.888 145.5 264.364 145.5C253.84 145.5 244.883 135.236 244.883 122C244.883 108.764 253.84 98.5 264.364 98.5C274.888 98.5 283.845 108.764 283.845 122Z" fill="#C4DCFF" stroke="#88B8FF" stroke-width="3"/>
<mask id="path-3-inside-1_1506_819" fill="white">
<path fill-rule="evenodd" clip-rule="evenodd" d="M301.326 203C304.088 203 306.349 200.757 306.12 198.005C304.016 172.736 286.124 153 264.364 153C242.603 153 224.711 172.736 222.608 198.005C222.379 200.757 224.64 203 227.401 203H301.326Z"/>
</mask>
<path fill-rule="evenodd" clip-rule="evenodd" d="M301.326 203C304.088 203 306.349 200.757 306.12 198.005C304.016 172.736 286.124 153 264.364 153C242.603 153 224.711 172.736 222.608 198.005C222.379 200.757 224.64 203 227.401 203H301.326Z" fill="#C4DCFF"/>
<path d="M306.12 198.005L303.13 198.254L306.12 198.005ZM264.364 156C284.136 156 301.117 174.074 303.13 198.254L309.109 197.756C306.915 171.398 288.112 150 264.364 150V156ZM225.597 198.254C227.61 174.074 244.591 156 264.364 156V150C240.615 150 221.812 171.398 219.618 197.756L225.597 198.254ZM227.401 206H301.326V200H227.401V206ZM219.618 197.756C219.23 202.423 223.056 206 227.401 206V200C226.223 200 225.528 199.09 225.597 198.254L219.618 197.756ZM303.13 198.254C303.2 199.09 302.504 200 301.326 200V206C305.672 206 309.498 202.423 309.109 197.756L303.13 198.254Z" fill="#88B8FF" mask="url(#path-3-inside-1_1506_819)"/>
<path d="M162.154 122C162.154 135.236 153.196 145.5 142.673 145.5C132.149 145.5 123.191 135.236 123.191 122C123.191 108.764 132.149 98.5 142.673 98.5C153.196 98.5 162.154 108.764 162.154 122Z" fill="white" stroke="#88B8FF" stroke-width="3"/>
<mask id="path-6-inside-2_1506_819" fill="white">
<path fill-rule="evenodd" clip-rule="evenodd" d="M184.636 203C184.636 175.386 165.849 153 142.674 153C119.498 153 100.711 175.386 100.711 203H184.636Z"/>
</mask>
<path fill-rule="evenodd" clip-rule="evenodd" d="M184.636 203C184.636 175.386 165.849 153 142.674 153C119.498 153 100.711 175.386 100.711 203H184.636Z" fill="white"/>
<path d="M184.636 203V206H187.636V203H184.636ZM100.711 203H97.7109V206H100.711V203ZM142.674 156C163.721 156 181.636 176.529 181.636 203H187.636C187.636 174.243 167.977 150 142.674 150V156ZM103.711 203C103.711 176.529 121.626 156 142.674 156V150C117.37 150 97.7109 174.243 97.7109 203H103.711ZM100.711 206H184.636V200H100.711V206Z" fill="#88B8FF" mask="url(#path-6-inside-2_1506_819)"/>
<path d="M61.4431 122C61.4431 135.236 52.4855 145.5 41.9618 145.5C31.4381 145.5 22.4805 135.236 22.4805 122C22.4805 108.764 31.4381 98.5 41.9618 98.5C52.4855 98.5 61.4431 108.764 61.4431 122Z" fill="white" stroke="#88B8FF" stroke-width="3"/>
<mask id="path-9-inside-3_1506_819" fill="white">
<path fill-rule="evenodd" clip-rule="evenodd" d="M83.9253 203C83.9253 175.386 65.138 153 41.9627 153C18.7873 153 0 175.386 0 203H83.9253Z"/>
</mask>
<path fill-rule="evenodd" clip-rule="evenodd" d="M83.9253 203C83.9253 175.386 65.138 153 41.9627 153C18.7873 153 0 175.386 0 203H83.9253Z" fill="white"/>
<path d="M83.9253 203V206H86.9253V203H83.9253ZM0 203H-3V206H0V203ZM41.9627 156C63.0101 156 80.9253 176.529 80.9253 203H86.9253C86.9253 174.243 67.2659 150 41.9627 150V156ZM3 203C3 176.529 20.9152 156 41.9627 156V150C16.6594 150 -3 174.243 -3 203H3ZM0 206H83.9253V200H0V206Z" fill="#88B8FF" mask="url(#path-9-inside-3_1506_819)"/>
</svg>
