<svg width="500" height="300" viewBox="0 0 500 300" fill="none" xmlns="http://www.w3.org/2000/svg">
<path d="M315.842 108.367H114.942C109.161 108.367 104.475 113.053 104.475 118.833V202.483C104.475 208.263 109.161 212.949 114.942 212.949H217.701C219.046 212.949 220.382 213.167 221.657 213.593L312.521 243.998C319.301 246.266 326.309 241.221 326.309 234.072V118.833C326.309 113.053 321.623 108.367 315.842 108.367Z" fill="#88B8FF" stroke="white" stroke-width="2"/>
<path d="M14.2135 51H263.25C270.547 51 276.463 56.9159 276.463 64.2135V167.905C276.463 175.203 270.547 181.119 263.25 181.119H135.869C134.228 181.119 132.598 181.384 131.042 181.905L18.4064 219.594C9.84747 222.458 1 216.089 1 207.063V64.2135C1 56.9159 6.91588 51 14.2135 51Z" fill="#C4DCFF" stroke="white" stroke-width="2"/>
<path d="M79.7627 103.179C79.7362 103.789 79.5506 104.24 79.206 104.531C78.888 104.849 78.5302 105.008 78.1326 105.008C77.7615 105.008 77.4169 104.863 77.0989 104.571C76.7808 104.306 76.582 103.882 76.5025 103.299V93.399C75.8134 93.0809 75.4688 92.5906 75.4688 91.9279C75.4688 91.6364 75.5483 91.3581 75.7073 91.093C75.8929 90.8014 76.1579 90.5894 76.5025 90.4569V90.1786C76.5025 89.8605 76.5025 89.4894 76.5025 89.0653C76.529 88.6148 76.5423 88.1377 76.5423 87.6341C76.5423 86.8654 76.5025 86.1232 76.423 85.4076C76.3435 84.692 76.1579 84.1221 75.8664 83.698C75.7073 83.3269 75.6278 82.9956 75.6278 82.7041C75.6278 81.9354 76.0387 81.4185 76.8603 81.1535C77.841 80.9945 78.8217 80.9017 79.8024 80.8752C80.8096 80.8222 81.8036 80.7957 82.7843 80.7957C83.7915 80.7692 84.7987 80.7427 85.8059 80.7162C86.8131 80.6896 87.807 80.6101 88.7877 80.4776C89.4239 80.4776 89.901 80.6234 90.219 80.9149C90.5636 81.2065 90.7359 81.5776 90.7359 82.0282C90.7359 82.3992 90.6034 82.7438 90.3383 83.0619C90.0998 83.3534 89.7154 83.5655 89.1853 83.698C87.5685 83.91 85.9517 84.0161 84.3348 84.0161C82.718 83.9896 81.1012 84.0293 79.4844 84.1353C79.6169 84.692 79.6964 85.2751 79.7229 85.8847C79.7759 86.4678 79.8024 87.0509 79.8024 87.6341C79.8024 88.0846 79.7892 88.5087 79.7627 88.9063C79.7627 89.3039 79.7627 89.6882 79.7627 90.0593V90.4569C81.194 90.4569 82.665 90.4304 84.1758 90.3774C85.6866 90.2978 86.9986 90.0858 88.1119 89.7412C88.7215 89.7412 89.1986 89.887 89.5431 90.1786C89.8877 90.4701 90.06 90.8412 90.06 91.2918C90.06 91.9544 89.6889 92.458 88.9468 92.8026C88.2046 93.1207 87.3034 93.346 86.2432 93.4785C85.183 93.611 84.0565 93.6773 82.8638 93.6773C81.671 93.6773 80.6373 93.6773 79.7627 93.6773V103.179ZM94.4005 90.4171C94.0029 90.2051 93.7114 89.9533 93.5258 89.6617C93.3403 89.3702 93.2475 89.0786 93.2475 88.787C93.2475 88.3895 93.3933 88.0449 93.6849 87.7533C93.9764 87.4353 94.374 87.2762 94.8776 87.2762C95.2487 87.2762 95.7125 87.4088 96.2691 87.6738C96.8257 87.9389 97.2631 88.2304 97.5812 88.5485C98.4028 87.8594 99.251 87.2895 100.126 86.8389C101 86.3883 101.888 86.163 102.789 86.163C103.055 86.163 103.439 86.2293 103.942 86.3618C104.446 86.4943 104.936 86.6931 105.413 86.9582C105.917 87.2232 106.354 87.5678 106.726 87.9919C107.097 88.416 107.282 88.9063 107.282 89.4629C107.282 89.9135 107.136 90.2846 106.845 90.5762C106.553 90.8412 106.195 90.9737 105.771 90.9737C105.48 90.9737 105.215 90.8942 104.976 90.7352C104.764 90.5496 104.539 90.3641 104.3 90.1786C104.088 89.9665 103.85 89.781 103.585 89.622C103.346 89.4629 103.068 89.3834 102.75 89.3834C102.379 89.3834 101.968 89.5027 101.517 89.7412C101.093 89.9533 100.656 90.2183 100.205 90.5364C99.7811 90.8545 99.3703 91.199 98.9727 91.5701C98.5751 91.9412 98.2305 92.2725 97.939 92.5641V103.14C97.9125 103.749 97.7269 104.2 97.3824 104.491C97.0643 104.81 96.7065 104.969 96.3089 104.969C95.9378 104.969 95.5932 104.823 95.2752 104.531C94.9571 104.266 94.7583 103.842 94.6788 103.259V92.405C94.6788 92.352 94.6656 92.299 94.6391 92.246C94.6391 92.1665 94.6391 92.1002 94.6391 92.0472C94.6391 91.9942 94.6391 91.9412 94.6391 91.8882C94.6656 91.8087 94.6788 91.7424 94.6788 91.6894V90.5364C94.5728 90.4834 94.48 90.4436 94.4005 90.4171ZM114.073 102.981C114.046 103.59 113.861 104.041 113.516 104.332C113.198 104.651 112.84 104.81 112.443 104.81C112.072 104.81 111.727 104.664 111.409 104.372C111.091 104.107 110.892 103.683 110.813 103.1C110.786 100.608 110.76 98.0639 110.733 95.4664C110.733 92.8689 110.72 90.3244 110.693 87.8328C110.826 87.3027 111.038 86.9052 111.329 86.6401C111.621 86.3751 111.952 86.2425 112.323 86.2425C112.668 86.2425 112.986 86.3618 113.278 86.6003C113.596 86.8389 113.821 87.21 113.954 87.7136C113.98 90.2051 113.993 92.7496 113.993 95.3471C114.02 97.9446 114.046 100.489 114.073 102.981ZM110.415 81.3523C110.415 80.7692 110.601 80.2788 110.972 79.8812C111.343 79.4571 111.793 79.2451 112.323 79.2451C112.854 79.2451 113.304 79.4571 113.675 79.8812C114.073 80.2788 114.272 80.7692 114.272 81.3523C114.272 81.9089 114.073 82.3992 113.675 82.8233C113.304 83.2209 112.854 83.4197 112.323 83.4197C111.793 83.4197 111.343 83.2209 110.972 82.8233C110.601 82.3992 110.415 81.9089 110.415 81.3523ZM132.729 99.6012C133.286 99.3892 133.763 99.3627 134.161 99.5217C134.558 99.6808 134.836 99.9326 134.995 100.277C135.181 100.622 135.208 101.006 135.075 101.43C134.969 101.854 134.664 102.212 134.161 102.504C133.286 103.007 132.345 103.471 131.338 103.895C130.331 104.319 129.31 104.611 128.276 104.77C127.243 104.929 126.222 104.916 125.215 104.73C124.208 104.571 123.24 104.173 122.313 103.537C121.199 102.769 120.351 101.735 119.768 100.436C119.185 99.1109 118.88 97.7459 118.854 96.3411C118.827 94.9098 119.079 93.5448 119.609 92.246C120.166 90.9207 121.027 89.8605 122.193 89.0653C123.413 88.2437 124.738 87.6341 126.169 87.2365C127.6 86.8124 129.045 86.7594 130.503 87.0774C131.218 87.2365 131.868 87.581 132.451 88.1112C133.034 88.6148 133.498 89.2111 133.842 89.9003C134.214 90.5629 134.412 91.2785 134.439 92.0472C134.465 92.7894 134.28 93.4917 133.882 94.1544C133.432 94.8965 132.782 95.5327 131.934 96.0628C131.086 96.5664 130.158 97.0037 129.151 97.3748C128.17 97.7194 127.176 98.0109 126.169 98.2495C125.188 98.488 124.327 98.7133 123.585 98.9253C123.267 99.0049 122.962 99.0181 122.67 98.9651C123.068 99.8133 123.651 100.516 124.42 101.072C125.215 101.602 126.196 101.828 127.362 101.748C128.29 101.695 129.217 101.443 130.145 100.993C131.099 100.516 131.961 100.052 132.729 99.6012ZM124.976 91.1328C123.996 91.6364 123.267 92.352 122.79 93.2797C122.313 94.1809 122.074 95.1351 122.074 96.1423C122.26 96.0098 122.458 95.9037 122.67 95.8242C123.148 95.6917 123.625 95.5592 124.102 95.4266C124.605 95.2676 125.109 95.1218 125.613 94.9893C125.931 94.9098 126.355 94.7905 126.885 94.6315C127.441 94.4724 128.011 94.2869 128.594 94.0749C129.178 93.8628 129.708 93.6243 130.185 93.3592C130.662 93.0677 130.98 92.7496 131.139 92.405C131.192 91.5303 130.98 90.934 130.503 90.6159C130.026 90.2978 129.456 90.1388 128.793 90.1388C128.131 90.1388 127.441 90.2581 126.726 90.4966C126.01 90.7087 125.427 90.9207 124.976 91.1328ZM152.503 103.06C152.477 103.67 152.291 104.12 151.947 104.412C151.629 104.73 151.271 104.889 150.873 104.889C150.502 104.889 150.158 104.743 149.84 104.452C149.522 104.187 149.323 103.763 149.243 103.179C149.243 101.96 149.23 100.754 149.204 99.5615C149.204 98.3422 149.204 97.123 149.204 95.9037C149.204 95.0291 149.204 94.1544 149.204 93.2797C149.23 92.405 149.177 91.5303 149.044 90.6557C148.832 90.2581 148.594 90.0195 148.329 89.94C148.09 89.834 147.799 89.781 147.454 89.781C146.553 89.781 145.665 90.0063 144.79 90.4569C143.916 90.881 143.227 91.4773 142.723 92.246C142.431 92.6966 142.193 93.0809 142.007 93.399C141.848 93.6905 141.742 94.1279 141.689 94.711C141.689 96.0628 141.689 97.4145 141.689 98.7663C141.689 100.118 141.702 101.47 141.729 102.822C141.702 103.431 141.517 103.895 141.172 104.213C140.854 104.505 140.496 104.651 140.099 104.651C139.728 104.651 139.383 104.518 139.065 104.253C138.747 103.961 138.548 103.524 138.469 102.941C138.469 101.669 138.469 100.436 138.469 99.2434C138.469 98.0507 138.456 96.8712 138.429 95.7049C138.429 94.5387 138.429 93.3592 138.429 92.1665C138.429 90.9472 138.429 89.7015 138.429 88.4292C138.562 87.8991 138.774 87.5015 139.065 87.2365C139.357 86.9714 139.688 86.8389 140.059 86.8389C140.404 86.8389 140.722 86.9582 141.013 87.1967C141.331 87.4353 141.557 87.8063 141.689 88.3099V88.628C142.458 87.9654 143.319 87.4485 144.274 87.0774C145.254 86.6799 146.235 86.4811 147.216 86.4811C148.196 86.4811 149.111 86.7064 149.959 87.157C150.834 87.6076 151.536 88.3364 152.066 89.3437C152.252 89.6882 152.371 90.1256 152.424 90.6557C152.503 91.1593 152.543 91.7026 152.543 92.2858C152.57 92.8424 152.57 93.4255 152.543 94.0351C152.517 94.6182 152.503 95.1748 152.503 95.7049V100.396V103.06ZM172.298 101.43C172.643 101.907 172.775 102.371 172.696 102.822C172.643 103.246 172.47 103.59 172.179 103.855C171.914 104.094 171.556 104.213 171.105 104.213C170.681 104.187 170.257 103.961 169.833 103.537C169.7 103.405 169.581 103.272 169.475 103.14C169.369 102.981 169.29 102.835 169.237 102.702C168.441 103.392 167.514 103.922 166.454 104.293C165.42 104.69 164.36 104.889 163.273 104.889C162.213 104.889 161.192 104.677 160.212 104.253C159.231 103.802 158.409 103.113 157.747 102.186C157.243 101.47 156.872 100.675 156.633 99.8C156.421 98.8988 156.315 97.9977 156.315 97.0965C156.315 96.1688 156.421 95.2676 156.633 94.3929C156.872 93.4917 157.163 92.6568 157.508 91.8882C157.826 91.199 158.277 90.5762 158.86 90.0195C159.469 89.4629 160.106 89.0123 160.768 88.6678C161.378 88.3232 162.054 88.0449 162.796 87.8328C163.565 87.5943 164.293 87.4618 164.983 87.4353C165.619 87.4353 166.255 87.4485 166.891 87.475C167.527 87.5015 168.15 87.6076 168.76 87.7931C168.733 85.8847 168.707 84.2811 168.68 82.9824C168.68 81.6571 168.68 80.7692 168.68 80.3186C168.786 79.815 168.985 79.4306 169.276 79.1656C169.594 78.9005 169.913 78.768 170.231 78.768C170.575 78.7415 170.906 78.8475 171.225 79.0861C171.543 79.3246 171.781 79.6957 171.94 80.1993V100.993C171.993 101.072 172.046 101.152 172.099 101.231C172.179 101.284 172.245 101.351 172.298 101.43ZM168.799 98.5675V98.0109C168.799 97.0302 168.799 95.9567 168.799 94.7905C168.799 93.5978 168.786 92.4713 168.76 91.4111L168.521 91.2918C168.441 91.2388 168.362 91.1858 168.282 91.1328C168.229 91.0798 168.163 91.0267 168.084 90.9737C167.289 90.7352 166.454 90.6292 165.579 90.6557C164.704 90.6822 163.883 90.8545 163.114 91.1725C162.345 91.4641 161.656 91.9014 161.046 92.4845C160.463 93.0677 160.053 93.8098 159.814 94.711C159.602 95.5327 159.522 96.2483 159.575 96.8579C159.628 97.4676 159.708 98.1832 159.814 99.0049C159.92 99.2169 160.013 99.429 160.092 99.641C160.198 99.853 160.304 100.065 160.41 100.277L161.206 101.072C161.524 101.178 161.828 101.311 162.12 101.47C163.18 101.576 164.148 101.523 165.022 101.311C165.923 101.099 166.785 100.635 167.607 99.9193C167.633 99.8663 167.686 99.8 167.766 99.7205C167.872 99.6145 167.978 99.5085 168.084 99.4024C168.19 99.2964 168.282 99.2037 168.362 99.1241C168.468 99.0181 168.534 98.9519 168.561 98.9253L168.799 98.5675ZM181.239 102.345C181.716 102.689 181.994 103.087 182.073 103.537C182.153 103.961 182.087 104.332 181.875 104.651C181.689 104.969 181.384 105.194 180.96 105.326C180.563 105.459 180.099 105.393 179.569 105.128C179.33 104.969 179.092 104.81 178.853 104.651C178.615 104.491 178.363 104.332 178.098 104.173C177.859 103.961 177.7 103.763 177.621 103.577C177.541 103.392 177.475 103.126 177.422 102.782V80.7162C177.528 80.2125 177.727 79.8282 178.018 79.5632C178.336 79.2981 178.654 79.1656 178.972 79.1656C179.317 79.1391 179.648 79.2451 179.966 79.4837C180.284 79.7222 180.523 80.0933 180.682 80.5969V101.987C180.761 102.04 180.841 102.106 180.92 102.186C181.027 102.239 181.133 102.292 181.239 102.345ZM199.084 87.2365C199.296 86.8654 199.535 86.6003 199.8 86.4413C200.065 86.2823 200.343 86.2028 200.635 86.2028C201.085 86.2028 201.456 86.3751 201.748 86.7196C202.04 87.0642 202.185 87.5413 202.185 88.1509C201.629 90.2978 200.926 92.3785 200.078 94.3929C199.23 96.4073 198.302 98.382 197.295 100.317C196.288 102.252 195.228 104.16 194.114 106.042C193.001 107.95 191.914 109.872 190.854 111.807C190.642 112.099 190.404 112.297 190.139 112.403C189.874 112.536 189.622 112.602 189.383 112.602C188.986 112.602 188.641 112.456 188.349 112.165C188.058 111.873 187.912 111.462 187.912 110.932C187.912 110.853 187.912 110.76 187.912 110.654C187.912 110.574 187.925 110.482 187.952 110.376C188.827 108.759 189.728 107.169 190.655 105.605C191.583 104.041 192.484 102.464 193.359 100.873C192.299 100.025 191.345 99.1639 190.496 98.2892C189.648 97.388 188.88 96.4471 188.19 95.4664C187.528 94.4592 186.945 93.3857 186.441 92.246C185.938 91.0798 185.5 89.8207 185.129 88.469C185.129 87.7798 185.262 87.263 185.527 86.9184C185.818 86.5473 186.203 86.3618 186.68 86.3618C187.024 86.3618 187.342 86.4811 187.634 86.7196C187.952 86.9317 188.177 87.2895 188.31 87.7931C188.601 88.9063 188.946 89.94 189.343 90.8942C189.768 91.8219 190.245 92.6966 190.775 93.5183C191.331 94.3134 191.941 95.0821 192.604 95.8242C193.293 96.5399 194.048 97.2423 194.87 97.9314C195.744 96.2085 196.54 94.4724 197.255 92.7231C197.997 90.9737 198.607 89.1449 199.084 87.2365ZM98.4273 143.06C98.4008 143.67 98.2153 144.12 97.8707 144.412C97.5526 144.73 97.1948 144.889 96.7972 144.889C96.4262 144.889 96.0683 144.743 95.7238 144.452C95.4057 144.187 95.2202 143.763 95.1672 143.179C95.0346 141.907 94.8624 140.569 94.6503 139.164C94.4648 137.733 94.2395 136.301 93.9744 134.87C93.7359 133.412 93.4576 131.981 93.1395 130.576C92.8479 129.171 92.5299 127.859 92.1853 126.64C91.6817 127.859 91.1781 129.145 90.6745 130.497C90.1709 131.822 89.654 133.174 89.1239 134.552C88.6203 135.904 88.1167 137.256 87.6131 138.607C87.1095 139.959 86.5927 141.245 86.0626 142.464C85.6385 142.967 85.1746 143.219 84.671 143.219C84.2735 143.219 83.8361 143.007 83.359 142.583L75.4869 127.197C75.3544 128.469 75.2219 129.807 75.0893 131.212C74.9568 132.617 74.8243 134.035 74.6918 135.466C74.5857 136.898 74.4665 138.316 74.3339 139.721C74.2014 141.125 74.0689 142.464 73.9364 143.736C73.7508 144.187 73.5123 144.518 73.2207 144.73C72.9291 144.942 72.6243 145.048 72.3063 145.048C71.9352 145.048 71.5906 144.902 71.2726 144.611C70.9545 144.319 70.769 143.895 70.7159 143.338C70.875 141.642 71.034 139.893 71.193 138.09C71.3786 136.262 71.5509 134.433 71.7099 132.604C71.8954 130.748 72.0677 128.906 72.2268 127.077C72.4123 125.249 72.5846 123.486 72.7436 121.79C72.8496 121.313 73.0484 120.941 73.34 120.676C73.658 120.411 74.0026 120.279 74.3737 120.279C74.9568 120.279 75.4472 120.57 75.8447 121.153C76.5604 122.452 77.276 123.817 77.9917 125.249C78.7073 126.653 79.423 128.085 80.1386 129.542C80.8543 130.974 81.5699 132.405 82.2855 133.836C83.0277 135.241 83.7566 136.593 84.4722 137.892C85.0024 136.593 85.5325 135.241 86.0626 133.836C86.6192 132.405 87.1625 130.974 87.6926 129.542C88.2493 128.085 88.7926 126.64 89.3227 125.209C89.8793 123.778 90.436 122.412 90.9926 121.114C91.2046 120.769 91.4432 120.517 91.7082 120.358C91.9733 120.199 92.2516 120.12 92.5431 120.12C92.8612 120.12 93.166 120.239 93.4576 120.478C93.7756 120.716 94.0009 121.061 94.1335 121.511C94.6106 123.181 95.0611 124.917 95.4852 126.72C95.9358 128.522 96.3467 130.351 96.7177 132.206C97.1153 134.035 97.4599 135.877 97.7514 137.733C98.043 139.561 98.2683 141.337 98.4273 143.06ZM114.95 139.601C115.506 139.389 115.983 139.363 116.381 139.522C116.778 139.681 117.057 139.933 117.216 140.277C117.401 140.622 117.428 141.006 117.295 141.43C117.189 141.854 116.884 142.212 116.381 142.504C115.506 143.007 114.565 143.471 113.558 143.895C112.551 144.319 111.53 144.611 110.497 144.77C109.463 144.929 108.442 144.916 107.435 144.73C106.428 144.571 105.461 144.173 104.533 143.537C103.42 142.769 102.572 141.735 101.988 140.436C101.405 139.111 101.1 137.746 101.074 136.341C101.047 134.91 101.299 133.545 101.829 132.246C102.386 130.921 103.247 129.861 104.414 129.065C105.633 128.244 106.958 127.634 108.389 127.236C109.821 126.812 111.265 126.759 112.723 127.077C113.439 127.236 114.088 127.581 114.671 128.111C115.254 128.615 115.718 129.211 116.063 129.9C116.434 130.563 116.633 131.279 116.659 132.047C116.686 132.789 116.5 133.492 116.103 134.154C115.652 134.897 115.003 135.533 114.154 136.063C113.306 136.566 112.379 137.004 111.371 137.375C110.391 137.719 109.397 138.011 108.389 138.249C107.409 138.488 106.547 138.713 105.805 138.925C105.487 139.005 105.182 139.018 104.891 138.965C105.288 139.813 105.871 140.516 106.64 141.072C107.435 141.602 108.416 141.828 109.582 141.748C110.51 141.695 111.438 141.443 112.365 140.993C113.319 140.516 114.181 140.052 114.95 139.601ZM107.197 131.133C106.216 131.636 105.487 132.352 105.01 133.28C104.533 134.181 104.294 135.135 104.294 136.142C104.48 136.01 104.679 135.904 104.891 135.824C105.368 135.692 105.845 135.559 106.322 135.427C106.826 135.268 107.329 135.122 107.833 134.989C108.151 134.91 108.575 134.791 109.105 134.631C109.662 134.472 110.232 134.287 110.815 134.075C111.398 133.863 111.928 133.624 112.405 133.359C112.882 133.068 113.2 132.75 113.359 132.405C113.412 131.53 113.2 130.934 112.723 130.616C112.246 130.298 111.676 130.139 111.014 130.139C110.351 130.139 109.662 130.258 108.946 130.497C108.23 130.709 107.647 130.921 107.197 131.133ZM120.3 141.351C120.061 140.873 119.982 140.449 120.061 140.078C120.141 139.681 120.3 139.376 120.538 139.164C120.804 138.925 121.135 138.806 121.532 138.806C121.93 138.806 122.341 138.952 122.765 139.243C123.375 140.012 124.09 140.608 124.912 141.033C125.76 141.457 126.661 141.708 127.615 141.788L128.45 141.549C128.662 141.39 128.808 141.284 128.888 141.231C128.967 141.178 129.02 141.139 129.047 141.112C129.1 141.059 129.153 140.993 129.206 140.913C129.285 140.834 129.405 140.688 129.564 140.476C129.617 140.37 129.656 140.264 129.683 140.158C129.709 140.052 129.749 139.933 129.802 139.8C129.802 139.667 129.802 139.548 129.802 139.442C129.829 139.336 129.842 139.217 129.842 139.084L129.603 138.369C129.524 138.263 129.431 138.157 129.325 138.051C129.246 137.945 129.166 137.839 129.086 137.733C128.424 137.309 127.761 137.004 127.099 136.818C126.436 136.633 125.787 136.447 125.15 136.262C124.541 136.05 123.931 135.784 123.322 135.466C122.738 135.148 122.182 134.631 121.652 133.916C121.148 133.28 120.87 132.551 120.817 131.729C120.79 130.881 120.923 130.073 121.214 129.304C121.532 128.535 121.983 127.859 122.566 127.276C123.176 126.667 123.865 126.282 124.634 126.123C125.747 125.858 126.873 125.832 128.013 126.044C129.179 126.256 130.266 126.627 131.273 127.157C131.75 127.502 132.029 127.899 132.108 128.35C132.188 128.774 132.121 129.145 131.909 129.463C131.724 129.781 131.419 130.006 130.995 130.139C130.597 130.271 130.133 130.205 129.603 129.94C128.967 129.595 128.291 129.37 127.576 129.264C126.887 129.158 126.184 129.158 125.468 129.264C125.389 129.317 125.296 129.357 125.19 129.383C125.111 129.41 125.031 129.45 124.952 129.503C124.66 129.821 124.448 130.139 124.316 130.457C124.183 130.748 124.13 131.12 124.156 131.57C124.183 131.676 124.249 131.835 124.355 132.047C124.435 132.153 124.514 132.246 124.594 132.326C124.673 132.405 124.753 132.498 124.832 132.604C125.468 132.948 126.158 133.227 126.9 133.439C127.668 133.624 128.411 133.85 129.126 134.115C129.842 134.353 130.505 134.684 131.114 135.109C131.724 135.506 132.201 136.103 132.545 136.898C133.182 138.408 133.274 139.8 132.824 141.072C132.4 142.345 131.525 143.418 130.2 144.293C129.855 144.505 129.471 144.677 129.047 144.81C128.623 144.969 128.225 145.048 127.854 145.048C126.423 145.048 125.018 144.73 123.64 144.094C122.261 143.431 121.148 142.517 120.3 141.351ZM135.796 141.351C135.557 140.873 135.478 140.449 135.557 140.078C135.637 139.681 135.796 139.376 136.034 139.164C136.299 138.925 136.631 138.806 137.028 138.806C137.426 138.806 137.837 138.952 138.261 139.243C138.87 140.012 139.586 140.608 140.408 141.033C141.256 141.457 142.157 141.708 143.111 141.788L143.946 141.549C144.158 141.39 144.304 141.284 144.383 141.231C144.463 141.178 144.516 141.139 144.542 141.112C144.595 141.059 144.648 140.993 144.701 140.913C144.781 140.834 144.9 140.688 145.059 140.476C145.112 140.37 145.152 140.264 145.179 140.158C145.205 140.052 145.245 139.933 145.298 139.8C145.298 139.667 145.298 139.548 145.298 139.442C145.324 139.336 145.338 139.217 145.338 139.084L145.099 138.369C145.02 138.263 144.927 138.157 144.821 138.051C144.741 137.945 144.662 137.839 144.582 137.733C143.92 137.309 143.257 137.004 142.594 136.818C141.932 136.633 141.282 136.447 140.646 136.262C140.037 136.05 139.427 135.784 138.817 135.466C138.234 135.148 137.678 134.631 137.147 133.916C136.644 133.28 136.366 132.551 136.313 131.729C136.286 130.881 136.419 130.073 136.71 129.304C137.028 128.535 137.479 127.859 138.062 127.276C138.672 126.667 139.361 126.282 140.129 126.123C141.243 125.858 142.369 125.832 143.509 126.044C144.675 126.256 145.762 126.627 146.769 127.157C147.246 127.502 147.524 127.899 147.604 128.35C147.683 128.774 147.617 129.145 147.405 129.463C147.22 129.781 146.915 130.006 146.491 130.139C146.093 130.271 145.629 130.205 145.099 129.94C144.463 129.595 143.787 129.37 143.071 129.264C142.382 129.158 141.68 129.158 140.964 129.264C140.885 129.317 140.792 129.357 140.686 129.383C140.606 129.41 140.527 129.45 140.447 129.503C140.156 129.821 139.944 130.139 139.811 130.457C139.679 130.748 139.626 131.12 139.652 131.57C139.679 131.676 139.745 131.835 139.851 132.047C139.931 132.153 140.01 132.246 140.09 132.326C140.169 132.405 140.249 132.498 140.328 132.604C140.964 132.948 141.653 133.227 142.396 133.439C143.164 133.624 143.906 133.85 144.622 134.115C145.338 134.353 146 134.684 146.61 135.109C147.22 135.506 147.697 136.103 148.041 136.898C148.677 138.408 148.77 139.8 148.319 141.072C147.895 142.345 147.021 143.418 145.695 144.293C145.351 144.505 144.967 144.677 144.542 144.81C144.118 144.969 143.721 145.048 143.35 145.048C141.918 145.048 140.514 144.73 139.135 144.094C137.757 143.431 136.644 142.517 135.796 141.351ZM168.03 142.543C168.03 142.57 168.016 142.583 167.99 142.583C168.149 142.954 168.189 143.299 168.109 143.617C168.03 143.935 167.871 144.187 167.632 144.372C167.42 144.584 167.128 144.717 166.757 144.77C166.413 144.823 166.028 144.743 165.604 144.531C165.366 144.293 165.14 144.041 164.928 143.776C164.716 143.484 164.531 143.193 164.372 142.901C163.842 143.352 163.272 143.776 162.662 144.173C162.053 144.544 161.443 144.743 160.833 144.77C159.773 144.823 158.726 144.836 157.692 144.81C156.659 144.783 155.678 144.438 154.75 143.776C153.982 143.219 153.385 142.557 152.961 141.788C152.564 141.019 152.299 140.211 152.166 139.363C152.06 138.488 152.073 137.6 152.206 136.699C152.338 135.798 152.564 134.936 152.882 134.115C153.014 133.744 153.187 133.386 153.399 133.041C153.611 132.697 153.823 132.339 154.035 131.968C154.326 131.438 154.658 130.947 155.029 130.497C155.4 130.02 155.824 129.609 156.301 129.264C156.646 129.026 156.977 128.787 157.295 128.548C157.639 128.31 157.984 128.085 158.329 127.873C158.567 127.714 158.925 127.555 159.402 127.396C159.906 127.21 160.436 127.064 160.992 126.958C161.576 126.826 162.145 126.759 162.702 126.759C163.285 126.759 163.775 126.839 164.173 126.998C164.544 126.945 164.902 127.038 165.247 127.276C165.618 127.515 165.896 127.899 166.081 128.429C166.081 130.232 166.068 132.047 166.042 133.876C166.015 135.705 166.134 137.521 166.399 139.323C166.426 139.561 166.519 139.853 166.678 140.198C166.863 140.516 167.049 140.834 167.234 141.152C167.446 141.47 167.632 141.761 167.791 142.026C167.95 142.292 168.03 142.464 168.03 142.543ZM162.98 139.8C163.033 139.774 163.073 139.747 163.1 139.721C163.126 139.694 163.166 139.667 163.219 139.641C162.874 138.051 162.702 136.407 162.702 134.711C162.729 132.988 162.755 131.411 162.782 129.98C162.543 129.98 162.278 130.006 161.986 130.059C161.695 130.112 161.403 130.192 161.112 130.298C160.847 130.377 160.595 130.457 160.356 130.536C160.144 130.616 159.985 130.682 159.879 130.735C159.084 131.106 158.408 131.597 157.852 132.206C157.295 132.789 156.831 133.452 156.46 134.194C156.115 134.91 155.85 135.678 155.665 136.5C155.479 137.295 155.387 138.104 155.387 138.925C155.44 139.137 155.506 139.349 155.585 139.561C155.665 139.774 155.731 139.986 155.784 140.198C155.917 140.33 156.049 140.476 156.182 140.635C156.341 140.794 156.5 140.94 156.659 141.072C156.897 141.178 157.136 141.271 157.374 141.351C157.613 141.43 157.852 141.51 158.09 141.589C158.541 141.589 158.978 141.602 159.402 141.629C159.826 141.655 160.25 141.602 160.674 141.47C161.072 141.205 161.456 140.94 161.827 140.675C162.225 140.41 162.609 140.118 162.98 139.8ZM172.605 152.085C172.261 151.741 172.048 151.37 171.969 150.972C171.916 150.574 171.969 150.23 172.128 149.938C172.314 149.647 172.592 149.421 172.963 149.262C173.334 149.13 173.771 149.143 174.275 149.302C174.62 149.488 174.911 149.647 175.15 149.779C175.388 149.938 175.627 150.071 175.865 150.177C176.104 150.309 176.342 150.415 176.581 150.495C176.846 150.574 177.151 150.654 177.495 150.733C177.972 150.84 178.489 150.893 179.046 150.893C179.603 150.893 180.146 150.826 180.676 150.694C181.233 150.561 181.736 150.349 182.187 150.058C182.664 149.766 183.035 149.382 183.3 148.905C183.486 148.587 183.592 148.202 183.618 147.752C183.645 147.301 183.658 146.89 183.658 146.519V143.935C183.234 144.147 182.81 144.319 182.386 144.452C181.961 144.584 181.524 144.717 181.074 144.849C180.437 144.982 179.801 145.061 179.165 145.088C178.529 145.141 177.893 145.101 177.257 144.969C175.879 144.73 174.726 144.173 173.798 143.299C172.87 142.424 172.168 141.39 171.691 140.198C171.24 139.005 171.002 137.733 170.975 136.381C170.975 135.029 171.2 133.757 171.651 132.564C172.022 131.61 172.565 130.735 173.281 129.94C173.997 129.145 174.805 128.522 175.706 128.071C176.607 127.594 177.575 127.316 178.609 127.236C179.642 127.157 180.649 127.342 181.63 127.793C182.399 128.164 183.128 128.575 183.817 129.026C183.976 128.655 184.201 128.389 184.493 128.23C184.784 128.045 185.089 127.979 185.407 128.032C185.725 128.058 186.017 128.191 186.282 128.429C186.573 128.668 186.785 129.012 186.918 129.463V146.4C186.918 147.831 186.706 149.05 186.282 150.058C185.858 151.091 185.036 152.006 183.817 152.801C183.313 153.119 182.77 153.397 182.187 153.636C181.604 153.874 181.021 154.02 180.437 154.073C179.165 154.232 177.946 154.179 176.78 153.914C175.932 153.729 175.216 153.477 174.633 153.159C174.05 152.867 173.374 152.509 172.605 152.085ZM183.38 140.237C183.486 140.184 183.578 140.158 183.658 140.158V133.001C183.631 133.001 183.618 132.988 183.618 132.962C183.088 132.458 182.478 131.981 181.789 131.53C181.127 131.08 180.424 130.748 179.682 130.536C179.364 130.563 179.046 130.589 178.728 130.616C178.41 130.642 178.092 130.669 177.774 130.695C177.562 130.801 177.336 130.907 177.098 131.013C176.886 131.12 176.674 131.226 176.462 131.332C175.136 132.683 174.407 134.062 174.275 135.466C174.169 136.871 174.5 138.422 175.269 140.118C175.401 140.277 175.547 140.436 175.706 140.595C175.865 140.754 176.011 140.913 176.144 141.072C178.688 142.345 181.1 142.066 183.38 140.237ZM204.586 139.601C205.143 139.389 205.62 139.363 206.017 139.522C206.415 139.681 206.693 139.933 206.852 140.277C207.038 140.622 207.064 141.006 206.932 141.43C206.826 141.854 206.521 142.212 206.017 142.504C205.143 143.007 204.202 143.471 203.194 143.895C202.187 144.319 201.167 144.611 200.133 144.77C199.099 144.929 198.079 144.916 197.072 144.73C196.064 144.571 195.097 144.173 194.169 143.537C193.056 142.769 192.208 141.735 191.625 140.436C191.042 139.111 190.737 137.746 190.71 136.341C190.684 134.91 190.936 133.545 191.466 132.246C192.022 130.921 192.884 129.861 194.05 129.065C195.269 128.244 196.595 127.634 198.026 127.236C199.457 126.812 200.902 126.759 202.36 127.077C203.075 127.236 203.725 127.581 204.308 128.111C204.891 128.615 205.355 129.211 205.699 129.9C206.07 130.563 206.269 131.279 206.296 132.047C206.322 132.789 206.137 133.492 205.739 134.154C205.288 134.897 204.639 135.533 203.791 136.063C202.943 136.566 202.015 137.004 201.008 137.375C200.027 137.719 199.033 138.011 198.026 138.249C197.045 138.488 196.184 138.713 195.442 138.925C195.124 139.005 194.819 139.018 194.527 138.965C194.925 139.813 195.508 140.516 196.277 141.072C197.072 141.602 198.052 141.828 199.219 141.748C200.146 141.695 201.074 141.443 202.002 140.993C202.956 140.516 203.817 140.052 204.586 139.601ZM196.833 131.133C195.852 131.636 195.124 132.352 194.646 133.28C194.169 134.181 193.931 135.135 193.931 136.142C194.116 136.01 194.315 135.904 194.527 135.824C195.004 135.692 195.481 135.559 195.958 135.427C196.462 135.268 196.966 135.122 197.469 134.989C197.787 134.91 198.211 134.791 198.742 134.631C199.298 134.472 199.868 134.287 200.451 134.075C201.034 133.863 201.564 133.624 202.041 133.359C202.519 133.068 202.837 132.75 202.996 132.405C203.049 131.53 202.837 130.934 202.36 130.616C201.882 130.298 201.313 130.139 200.65 130.139C199.987 130.139 199.298 130.258 198.582 130.497C197.867 130.709 197.284 130.921 196.833 131.133Z" fill="black"/>
</svg>
