<svg width="1920" height="1080" viewBox="0 0 1920 1080" fill="none" xmlns="http://www.w3.org/2000/svg">
<rect width="1920" height="1080" fill="white"/>
<rect x="960" width="5" height="1080" fill="#C4C4C4" fill-opacity="0.5"/>
<circle cx="183" cy="293" r="25" fill="#C4C4C4"/>
<path fill-rule="evenodd" clip-rule="evenodd" d="M233 374C233 346.386 210.614 324 183 324C155.386 324 133 346.386 133 374H233Z" fill="#C4C4C4"/>
<circle cx="183" cy="459" r="25" fill="#C4C4C4"/>
<path fill-rule="evenodd" clip-rule="evenodd" d="M233 540C233 512.386 210.614 490 183 490C155.386 490 133 512.386 133 540H233Z" fill="#C4C4C4"/>
<circle cx="183" cy="625" r="25" fill="#C4C4C4"/>
<path fill-rule="evenodd" clip-rule="evenodd" d="M233 706C233 678.386 210.614 656 183 656C155.386 656 133 678.386 133 706H233Z" fill="#C4C4C4"/>
<circle cx="183" cy="791" r="25" fill="#448CF7"/>
<path fill-rule="evenodd" clip-rule="evenodd" d="M233 872C233 844.386 210.614 822 183 822C155.386 822 133 844.386 133 872H233Z" fill="#448CF7"/>
<circle cx="183" cy="957" r="25" fill="#C4C4C4"/>
<path fill-rule="evenodd" clip-rule="evenodd" d="M233 1038C233 1010.39 210.614 988 183 988C155.386 988 133 1010.39 133 1038H233Z" fill="#C4C4C4"/>
<circle cx="183" cy="127" r="25" fill="#C4C4C4"/>
<path fill-rule="evenodd" clip-rule="evenodd" d="M233 208C233 180.386 210.614 158 183 158C155.386 158 133 180.386 133 208H233Z" fill="#C4C4C4"/>
<mask id="path-14-inside-1_1302_3" fill="white">
<path fill-rule="evenodd" clip-rule="evenodd" d="M353 736C350.239 736 348 738.239 348 741V779.276L274 822L348 864.724V903C348 905.761 350.239 908 353 908H760C762.761 908 765 905.761 765 903V741C765 738.239 762.761 736 760 736H353Z"/>
</mask>
<path d="M348 779.276L349.5 781.874L351 781.008V779.276H348ZM274 822L272.5 819.402L268 822L272.5 824.598L274 822ZM348 864.724H351V862.992L349.5 862.126L348 864.724ZM351 741C351 739.895 351.895 739 353 739V733C348.582 733 345 736.582 345 741H351ZM351 779.276V741H345V779.276H351ZM275.5 824.598L349.5 781.874L346.5 776.678L272.5 819.402L275.5 824.598ZM349.5 862.126L275.5 819.402L272.5 824.598L346.5 867.322L349.5 862.126ZM351 903V864.724H345V903H351ZM353 905C351.895 905 351 904.105 351 903H345C345 907.418 348.582 911 353 911V905ZM760 905H353V911H760V905ZM762 903C762 904.105 761.105 905 760 905V911C764.418 911 768 907.418 768 903H762ZM762 741V903H768V741H762ZM760 739C761.105 739 762 739.895 762 741H768C768 736.582 764.418 733 760 733V739ZM353 739H760V733H353V739Z" fill="#448CF7" mask="url(#path-14-inside-1_1302_3)"/>
<path d="M419.992 827.384V839H416.488V827.384L403.048 805.4H406.84L418.36 824.264L429.88 805.4H433.432L419.992 827.384ZM446.161 839.24C443.729 839.24 441.537 838.696 439.585 837.608C437.633 836.488 436.097 834.952 434.977 833C433.857 831.048 433.297 828.84 433.297 826.376C433.297 823.912 433.857 821.704 434.977 819.752C436.097 817.8 437.633 816.28 439.585 815.192C441.537 814.104 443.729 813.56 446.161 813.56C448.593 813.56 450.785 814.104 452.737 815.192C454.689 816.28 456.209 817.8 457.297 819.752C458.417 821.704 458.977 823.912 458.977 826.376C458.977 828.84 458.417 831.048 457.297 833C456.209 834.952 454.689 836.488 452.737 837.608C450.785 838.696 448.593 839.24 446.161 839.24ZM446.161 836.216C447.953 836.216 449.553 835.816 450.961 835.016C452.401 834.184 453.521 833.016 454.321 831.512C455.121 830.008 455.521 828.296 455.521 826.376C455.521 824.456 455.121 822.744 454.321 821.24C453.521 819.736 452.401 818.584 450.961 817.784C449.553 816.952 447.953 816.536 446.161 816.536C444.369 816.536 442.753 816.952 441.313 817.784C439.905 818.584 438.785 819.736 437.953 821.24C437.153 822.744 436.753 824.456 436.753 826.376C436.753 828.296 437.153 830.008 437.953 831.512C438.785 833.016 439.905 834.184 441.313 835.016C442.753 835.816 444.369 836.216 446.161 836.216ZM489.167 813.752V839H485.903V834.392C485.007 835.928 483.775 837.128 482.207 837.992C480.639 838.824 478.847 839.24 476.831 839.24C473.535 839.24 470.927 838.328 469.007 836.504C467.119 834.648 466.175 831.944 466.175 828.392V813.752H469.583V828.056C469.583 830.712 470.239 832.728 471.551 834.104C472.863 835.48 474.735 836.168 477.167 836.168C479.823 836.168 481.919 835.368 483.455 833.768C484.991 832.136 485.759 829.88 485.759 827V813.752H489.167ZM521.066 813.56C524.362 813.56 526.89 814.392 528.65 816.056C530.41 817.688 531.29 820.12 531.29 823.352V839H528.026V835.064C527.258 836.376 526.122 837.4 524.618 838.136C523.146 838.872 521.386 839.24 519.338 839.24C516.522 839.24 514.282 838.568 512.618 837.224C510.954 835.88 510.122 834.104 510.122 831.896C510.122 829.752 510.89 828.024 512.426 826.712C513.994 825.4 516.474 824.744 519.866 824.744H527.882V823.208C527.882 821.032 527.274 819.384 526.058 818.264C524.842 817.112 523.066 816.536 520.73 816.536C519.13 816.536 517.594 816.808 516.122 817.352C514.65 817.864 513.386 818.584 512.33 819.512L510.794 816.968C512.074 815.88 513.61 815.048 515.402 814.472C517.194 813.864 519.082 813.56 521.066 813.56ZM519.866 836.552C521.786 836.552 523.434 836.12 524.81 835.256C526.186 834.36 527.21 833.08 527.882 831.416V827.288H519.962C515.642 827.288 513.482 828.792 513.482 831.8C513.482 833.272 514.042 834.44 515.162 835.304C516.282 836.136 517.85 836.552 519.866 836.552ZM544.291 818.696C545.091 817 546.275 815.72 547.843 814.856C549.443 813.992 551.411 813.56 553.747 813.56V816.872L552.931 816.824C550.275 816.824 548.195 817.64 546.691 819.272C545.187 820.904 544.435 823.192 544.435 826.136V839H541.027V813.752H544.291V818.696ZM582.147 827.432H561.027C561.219 830.056 562.227 832.184 564.051 833.816C565.875 835.416 568.179 836.216 570.963 836.216C572.531 836.216 573.971 835.944 575.283 835.4C576.595 834.824 577.731 833.992 578.691 832.904L580.611 835.112C579.491 836.456 578.083 837.48 576.387 838.184C574.723 838.888 572.883 839.24 570.867 839.24C568.275 839.24 565.971 838.696 563.955 837.608C561.971 836.488 560.419 834.952 559.299 833C558.179 831.048 557.619 828.84 557.619 826.376C557.619 823.912 558.147 821.704 559.203 819.752C560.291 817.8 561.763 816.28 563.619 815.192C565.507 814.104 567.619 813.56 569.955 813.56C572.291 813.56 574.387 814.104 576.243 815.192C578.099 816.28 579.555 817.8 580.611 819.752C581.667 821.672 582.195 823.88 582.195 826.376L582.147 827.432ZM569.955 816.488C567.523 816.488 565.475 817.272 563.811 818.84C562.179 820.376 561.251 822.392 561.027 824.888H578.931C578.707 822.392 577.763 820.376 576.099 818.84C574.467 817.272 572.419 816.488 569.955 816.488ZM615.518 813.56C618.686 813.56 621.198 814.488 623.054 816.344C624.942 818.168 625.886 820.84 625.886 824.36V839H622.478V824.696C622.478 822.072 621.822 820.072 620.51 818.696C619.198 817.32 617.326 816.632 614.894 816.632C612.174 816.632 610.014 817.448 608.414 819.08C606.846 820.68 606.062 822.904 606.062 825.752V839H602.654V803.384H606.062V818.168C606.99 816.696 608.27 815.56 609.902 814.76C611.534 813.96 613.406 813.56 615.518 813.56ZM657.697 827.432H636.577C636.769 830.056 637.777 832.184 639.601 833.816C641.425 835.416 643.729 836.216 646.513 836.216C648.081 836.216 649.521 835.944 650.833 835.4C652.145 834.824 653.281 833.992 654.241 832.904L656.161 835.112C655.041 836.456 653.633 837.48 651.937 838.184C650.273 838.888 648.433 839.24 646.417 839.24C643.825 839.24 641.521 838.696 639.505 837.608C637.521 836.488 635.969 834.952 634.849 833C633.729 831.048 633.169 828.84 633.169 826.376C633.169 823.912 633.697 821.704 634.753 819.752C635.841 817.8 637.313 816.28 639.169 815.192C641.057 814.104 643.169 813.56 645.505 813.56C647.841 813.56 649.937 814.104 651.793 815.192C653.649 816.28 655.105 817.8 656.161 819.752C657.217 821.672 657.745 823.88 657.745 826.376L657.697 827.432ZM645.505 816.488C643.073 816.488 641.025 817.272 639.361 818.84C637.729 820.376 636.801 822.392 636.577 824.888H654.481C654.257 822.392 653.313 820.376 651.649 818.84C650.017 817.272 647.969 816.488 645.505 816.488ZM668.425 818.696C669.225 817 670.409 815.72 671.977 814.856C673.577 813.992 675.545 813.56 677.881 813.56V816.872L677.065 816.824C674.409 816.824 672.329 817.64 670.825 819.272C669.321 820.904 668.569 823.192 668.569 826.136V839H665.161V813.752H668.425V818.696ZM706.282 827.432H685.162C685.354 830.056 686.362 832.184 688.186 833.816C690.01 835.416 692.314 836.216 695.098 836.216C696.666 836.216 698.106 835.944 699.418 835.4C700.73 834.824 701.866 833.992 702.826 832.904L704.746 835.112C703.626 836.456 702.218 837.48 700.522 838.184C698.858 838.888 697.018 839.24 695.002 839.24C692.41 839.24 690.106 838.696 688.09 837.608C686.106 836.488 684.554 834.952 683.434 833C682.314 831.048 681.754 828.84 681.754 826.376C681.754 823.912 682.282 821.704 683.338 819.752C684.426 817.8 685.898 816.28 687.754 815.192C689.642 814.104 691.754 813.56 694.09 813.56C696.426 813.56 698.522 814.104 700.378 815.192C702.234 816.28 703.69 817.8 704.746 819.752C705.802 821.672 706.33 823.88 706.33 826.376L706.282 827.432ZM694.09 816.488C691.658 816.488 689.61 817.272 687.946 818.84C686.314 820.376 685.386 822.392 685.162 824.888H703.066C702.842 822.392 701.898 820.376 700.234 818.84C698.602 817.272 696.554 816.488 694.09 816.488ZM713.218 805.4H717.25L716.53 828.92H713.89L713.218 805.4ZM715.234 839.24C714.53 839.24 713.922 839 713.41 838.52C712.93 838.008 712.69 837.416 712.69 836.744C712.69 836.04 712.93 835.464 713.41 835.016C713.89 834.536 714.498 834.296 715.234 834.296C715.938 834.296 716.53 834.536 717.01 835.016C717.49 835.464 717.73 836.04 717.73 836.744C717.73 837.416 717.49 838.008 717.01 838.52C716.53 839 715.938 839.24 715.234 839.24Z" fill="#448CF7"/>
<path d="M65.052 44.216C63.18 44.216 61.38 43.916 59.652 43.316C57.948 42.716 56.628 41.924 55.692 40.94L56.736 38.888C57.648 39.8 58.86 40.544 60.372 41.12C61.884 41.672 63.444 41.948 65.052 41.948C67.308 41.948 69 41.54 70.128 40.724C71.256 39.884 71.82 38.804 71.82 37.484C71.82 36.476 71.508 35.672 70.884 35.072C70.284 34.472 69.54 34.016 68.652 33.704C67.764 33.368 66.528 33.008 64.944 32.624C63.048 32.144 61.536 31.688 60.408 31.256C59.28 30.8 58.308 30.116 57.492 29.204C56.7 28.292 56.304 27.056 56.304 25.496C56.304 24.224 56.64 23.072 57.312 22.04C57.984 20.984 59.016 20.144 60.408 19.52C61.8 18.896 63.528 18.584 65.592 18.584C67.032 18.584 68.436 18.788 69.804 19.196C71.196 19.58 72.396 20.12 73.404 20.816L72.504 22.94C71.448 22.244 70.32 21.728 69.12 21.392C67.92 21.032 66.744 20.852 65.592 20.852C63.384 20.852 61.716 21.284 60.588 22.148C59.484 22.988 58.932 24.08 58.932 25.424C58.932 26.432 59.232 27.248 59.832 27.872C60.456 28.472 61.224 28.94 62.136 29.276C63.072 29.588 64.32 29.936 65.88 30.32C67.728 30.776 69.216 31.232 70.344 31.688C71.496 32.12 72.468 32.792 73.26 33.704C74.052 34.592 74.448 35.804 74.448 37.34C74.448 38.612 74.1 39.776 73.404 40.832C72.732 41.864 71.688 42.692 70.272 43.316C68.856 43.916 67.116 44.216 65.052 44.216ZM90.0444 42.848C89.5644 43.28 88.9644 43.616 88.2444 43.856C87.5484 44.072 86.8164 44.18 86.0484 44.18C84.2724 44.18 82.9044 43.7 81.9444 42.74C80.9844 41.78 80.5044 40.424 80.5044 38.672V27.224H77.1204V25.064H80.5044V20.924H83.0604V25.064H88.8204V27.224H83.0604V38.528C83.0604 39.656 83.3364 40.52 83.8884 41.12C84.4644 41.696 85.2804 41.984 86.3364 41.984C86.8644 41.984 87.3684 41.9 87.8484 41.732C88.3524 41.564 88.7844 41.324 89.1444 41.012L90.0444 42.848ZM101.681 24.92C104.153 24.92 106.049 25.544 107.369 26.792C108.689 28.016 109.349 29.84 109.349 32.264V44H106.901V41.048C106.325 42.032 105.473 42.8 104.345 43.352C103.241 43.904 101.921 44.18 100.385 44.18C98.2734 44.18 96.5934 43.676 95.3454 42.668C94.0974 41.66 93.4734 40.328 93.4734 38.672C93.4734 37.064 94.0494 35.768 95.2014 34.784C96.3774 33.8 98.2374 33.308 100.781 33.308H106.793V32.156C106.793 30.524 106.337 29.288 105.425 28.448C104.513 27.584 103.181 27.152 101.429 27.152C100.229 27.152 99.0774 27.356 97.9734 27.764C96.8694 28.148 95.9214 28.688 95.1294 29.384L93.9774 27.476C94.9374 26.66 96.0894 26.036 97.4334 25.604C98.7774 25.148 100.193 24.92 101.681 24.92ZM100.781 42.164C102.221 42.164 103.457 41.84 104.489 41.192C105.521 40.52 106.289 39.56 106.793 38.312V35.216H100.853C97.6134 35.216 95.9934 36.344 95.9934 38.6C95.9934 39.704 96.4134 40.58 97.2534 41.228C98.0934 41.852 99.2694 42.164 100.781 42.164ZM119.1 28.772C119.7 27.5 120.588 26.54 121.764 25.892C122.964 25.244 124.44 24.92 126.192 24.92V27.404L125.58 27.368C123.588 27.368 122.028 27.98 120.9 29.204C119.772 30.428 119.208 32.144 119.208 34.352V44H116.652V25.064H119.1V28.772ZM141.96 42.848C141.48 43.28 140.88 43.616 140.16 43.856C139.464 44.072 138.732 44.18 137.964 44.18C136.188 44.18 134.82 43.7 133.86 42.74C132.9 41.78 132.42 40.424 132.42 38.672V27.224H129.036V25.064H132.42V20.924H134.976V25.064H140.736V27.224H134.976V38.528C134.976 39.656 135.252 40.52 135.804 41.12C136.38 41.696 137.196 41.984 138.252 41.984C138.78 41.984 139.284 41.9 139.764 41.732C140.268 41.564 140.7 41.324 141.06 41.012L141.96 42.848ZM164.495 44.18C162.671 44.18 161.027 43.772 159.563 42.956C158.099 42.116 156.947 40.964 156.107 39.5C155.267 38.036 154.847 36.38 154.847 34.532C154.847 32.684 155.267 31.028 156.107 29.564C156.947 28.1 158.099 26.96 159.563 26.144C161.027 25.328 162.671 24.92 164.495 24.92C166.319 24.92 167.963 25.328 169.427 26.144C170.891 26.96 172.031 28.1 172.847 29.564C173.687 31.028 174.107 32.684 174.107 34.532C174.107 36.38 173.687 38.036 172.847 39.5C172.031 40.964 170.891 42.116 169.427 42.956C167.963 43.772 166.319 44.18 164.495 44.18ZM164.495 41.912C165.839 41.912 167.039 41.612 168.095 41.012C169.175 40.388 170.015 39.512 170.615 38.384C171.215 37.256 171.515 35.972 171.515 34.532C171.515 33.092 171.215 31.808 170.615 30.68C170.015 29.552 169.175 28.688 168.095 28.088C167.039 27.464 165.839 27.152 164.495 27.152C163.151 27.152 161.939 27.464 160.859 28.088C159.803 28.688 158.963 29.552 158.339 30.68C157.739 31.808 157.439 33.092 157.439 34.532C157.439 35.972 157.739 37.256 158.339 38.384C158.963 39.512 159.803 40.388 160.859 41.012C161.939 41.612 163.151 41.912 164.495 41.912ZM185.95 19.268C184.846 19.268 184.006 19.568 183.43 20.168C182.878 20.768 182.602 21.656 182.602 22.832V25.064H188.434V27.224H182.674V44H180.118V27.224H176.734V25.064H180.118V22.724C180.118 20.996 180.61 19.628 181.594 18.62C182.602 17.612 184.018 17.108 185.842 17.108C186.562 17.108 187.258 17.216 187.93 17.432C188.602 17.624 189.166 17.912 189.622 18.296L188.758 20.204C188.014 19.58 187.078 19.268 185.95 19.268ZM211.999 42.848C211.519 43.28 210.919 43.616 210.199 43.856C209.503 44.072 208.771 44.18 208.003 44.18C206.227 44.18 204.859 43.7 203.899 42.74C202.939 41.78 202.459 40.424 202.459 38.672V27.224H199.075V25.064H202.459V20.924H205.015V25.064H210.775V27.224H205.015V38.528C205.015 39.656 205.291 40.52 205.843 41.12C206.419 41.696 207.235 41.984 208.291 41.984C208.819 41.984 209.323 41.9 209.803 41.732C210.307 41.564 210.739 41.324 211.099 41.012L211.999 42.848ZM226.66 24.92C229.036 24.92 230.92 25.616 232.312 27.008C233.728 28.376 234.436 30.38 234.436 33.02V44H231.88V33.272C231.88 31.304 231.388 29.804 230.404 28.772C229.42 27.74 228.016 27.224 226.192 27.224C224.152 27.224 222.532 27.836 221.332 29.06C220.156 30.26 219.568 31.928 219.568 34.064V44H217.012V17.288H219.568V28.376C220.264 27.272 221.224 26.42 222.448 25.82C223.672 25.22 225.076 24.92 226.66 24.92ZM258.293 35.324H242.453C242.597 37.292 243.353 38.888 244.721 40.112C246.089 41.312 247.817 41.912 249.905 41.912C251.081 41.912 252.161 41.708 253.145 41.3C254.129 40.868 254.981 40.244 255.701 39.428L257.141 41.084C256.301 42.092 255.245 42.86 253.973 43.388C252.725 43.916 251.345 44.18 249.833 44.18C247.889 44.18 246.161 43.772 244.649 42.956C243.161 42.116 241.997 40.964 241.157 39.5C240.317 38.036 239.897 36.38 239.897 34.532C239.897 32.684 240.293 31.028 241.085 29.564C241.901 28.1 243.005 26.96 244.397 26.144C245.813 25.328 247.397 24.92 249.149 24.92C250.901 24.92 252.473 25.328 253.865 26.144C255.257 26.96 256.349 28.1 257.141 29.564C257.933 31.004 258.329 32.66 258.329 34.532L258.293 35.324ZM249.149 27.116C247.325 27.116 245.789 27.704 244.541 28.88C243.317 30.032 242.621 31.544 242.453 33.416H255.881C255.713 31.544 255.005 30.032 253.757 28.88C252.533 27.704 250.997 27.116 249.149 27.116ZM273.674 17.288H276.23V44H273.674V17.288ZM283.702 25.064H286.258V44H283.702V25.064ZM284.998 20.924C284.47 20.924 284.026 20.744 283.666 20.384C283.306 20.024 283.126 19.592 283.126 19.088C283.126 18.608 283.306 18.188 283.666 17.828C284.026 17.468 284.47 17.288 284.998 17.288C285.526 17.288 285.97 17.468 286.33 17.828C286.69 18.164 286.87 18.572 286.87 19.052C286.87 19.58 286.69 20.024 286.33 20.384C285.97 20.744 285.526 20.924 284.998 20.924ZM303.378 24.92C305.754 24.92 307.638 25.616 309.03 27.008C310.446 28.376 311.154 30.38 311.154 33.02V44H308.598V33.272C308.598 31.304 308.106 29.804 307.122 28.772C306.138 27.74 304.734 27.224 302.91 27.224C300.87 27.224 299.25 27.836 298.05 29.06C296.874 30.26 296.286 31.928 296.286 34.064V44H293.73V25.064H296.178V28.556C296.874 27.404 297.834 26.516 299.058 25.892C300.306 25.244 301.746 24.92 303.378 24.92ZM335.011 35.324H319.171C319.315 37.292 320.071 38.888 321.439 40.112C322.807 41.312 324.535 41.912 326.623 41.912C327.799 41.912 328.879 41.708 329.863 41.3C330.847 40.868 331.699 40.244 332.419 39.428L333.859 41.084C333.019 42.092 331.963 42.86 330.691 43.388C329.443 43.916 328.063 44.18 326.551 44.18C324.607 44.18 322.879 43.772 321.367 42.956C319.879 42.116 318.715 40.964 317.875 39.5C317.035 38.036 316.615 36.38 316.615 34.532C316.615 32.684 317.011 31.028 317.803 29.564C318.619 28.1 319.723 26.96 321.115 26.144C322.531 25.328 324.115 24.92 325.867 24.92C327.619 24.92 329.191 25.328 330.583 26.144C331.975 26.96 333.067 28.1 333.859 29.564C334.651 31.004 335.047 32.66 335.047 34.532L335.011 35.324ZM325.867 27.116C324.043 27.116 322.507 27.704 321.259 28.88C320.035 30.032 319.339 31.544 319.171 33.416H332.599C332.431 31.544 331.723 30.032 330.475 28.88C329.251 27.704 327.715 27.116 325.867 27.116Z" fill="#448CF7"/>
<circle cx="1240" cy="293" r="25" fill="#448CF7"/>
<path fill-rule="evenodd" clip-rule="evenodd" d="M1290 374C1290 346.386 1267.61 324 1240 324C1212.39 324 1190 346.386 1190 374H1290Z" fill="#448CF7"/>
<circle cx="1240" cy="459" r="25" fill="#C4C4C4"/>
<path fill-rule="evenodd" clip-rule="evenodd" d="M1290 540C1290 512.386 1267.61 490 1240 490C1212.39 490 1190 512.386 1190 540H1290Z" fill="#C4C4C4"/>
<circle cx="1240" cy="625" r="25" fill="#C4C4C4"/>
<path fill-rule="evenodd" clip-rule="evenodd" d="M1290 706C1290 678.386 1267.61 656 1240 656C1212.39 656 1190 678.386 1190 706H1290Z" fill="#C4C4C4"/>
<circle cx="1240" cy="791" r="25" fill="#C4C4C4"/>
<path fill-rule="evenodd" clip-rule="evenodd" d="M1290 872C1290 844.386 1267.61 822 1240 822C1212.39 822 1190 844.386 1190 872H1290Z" fill="#C4C4C4"/>
<circle cx="1240" cy="957" r="25" fill="#C4C4C4"/>
<path fill-rule="evenodd" clip-rule="evenodd" d="M1290 1038C1290 1010.39 1267.61 988 1240 988C1212.39 988 1190 1010.39 1190 1038H1290Z" fill="#C4C4C4"/>
<circle cx="1240" cy="127" r="25" fill="#C4C4C4"/>
<path fill-rule="evenodd" clip-rule="evenodd" d="M1290 208C1290 180.386 1267.61 158 1240 158C1212.39 158 1190 180.386 1190 208H1290Z" fill="#C4C4C4"/>
<mask id="path-30-inside-2_1302_3" fill="white">
<path fill-rule="evenodd" clip-rule="evenodd" d="M1420 238C1417.24 238 1415 240.239 1415 243V281.276L1341 324L1415 366.724V405C1415 407.761 1417.24 410 1420 410H1827C1829.76 410 1832 407.761 1832 405V243C1832 240.239 1829.76 238 1827 238H1420Z"/>
</mask>
<path d="M1415 281.276L1416.5 283.874L1418 283.008V281.276H1415ZM1341 324L1339.5 321.402L1335 324L1339.5 326.598L1341 324ZM1415 366.724H1418V364.992L1416.5 364.126L1415 366.724ZM1418 243C1418 241.895 1418.9 241 1420 241V235C1415.58 235 1412 238.582 1412 243H1418ZM1418 281.276V243H1412V281.276H1418ZM1342.5 326.598L1416.5 283.874L1413.5 278.678L1339.5 321.402L1342.5 326.598ZM1416.5 364.126L1342.5 321.402L1339.5 326.598L1413.5 369.322L1416.5 364.126ZM1418 405V366.724H1412V405H1418ZM1420 407C1418.9 407 1418 406.105 1418 405H1412C1412 409.418 1415.58 413 1420 413V407ZM1827 407H1420V413H1827V407ZM1829 405C1829 406.105 1828.1 407 1827 407V413C1831.42 413 1835 409.418 1835 405H1829ZM1829 243V405H1835V243H1829ZM1827 241C1828.1 241 1829 241.895 1829 243H1835C1835 238.582 1831.42 235 1827 235V241ZM1420 241H1827V235H1420V241Z" fill="#448CF7" mask="url(#path-30-inside-2_1302_3)"/>
<path d="M1486.99 329.384V341H1483.49V329.384L1470.05 307.4H1473.84L1485.36 326.264L1496.88 307.4H1500.43L1486.99 329.384ZM1513.16 341.24C1510.73 341.24 1508.54 340.696 1506.59 339.608C1504.63 338.488 1503.1 336.952 1501.98 335C1500.86 333.048 1500.3 330.84 1500.3 328.376C1500.3 325.912 1500.86 323.704 1501.98 321.752C1503.1 319.8 1504.63 318.28 1506.59 317.192C1508.54 316.104 1510.73 315.56 1513.16 315.56C1515.59 315.56 1517.79 316.104 1519.74 317.192C1521.69 318.28 1523.21 319.8 1524.3 321.752C1525.42 323.704 1525.98 325.912 1525.98 328.376C1525.98 330.84 1525.42 333.048 1524.3 335C1523.21 336.952 1521.69 338.488 1519.74 339.608C1517.79 340.696 1515.59 341.24 1513.16 341.24ZM1513.16 338.216C1514.95 338.216 1516.55 337.816 1517.96 337.016C1519.4 336.184 1520.52 335.016 1521.32 333.512C1522.12 332.008 1522.52 330.296 1522.52 328.376C1522.52 326.456 1522.12 324.744 1521.32 323.24C1520.52 321.736 1519.4 320.584 1517.96 319.784C1516.55 318.952 1514.95 318.536 1513.16 318.536C1511.37 318.536 1509.75 318.952 1508.31 319.784C1506.91 320.584 1505.79 321.736 1504.95 323.24C1504.15 324.744 1503.75 326.456 1503.75 328.376C1503.75 330.296 1504.15 332.008 1504.95 333.512C1505.79 335.016 1506.91 336.184 1508.31 337.016C1509.75 337.816 1511.37 338.216 1513.16 338.216ZM1556.17 315.752V341H1552.9V336.392C1552.01 337.928 1550.78 339.128 1549.21 339.992C1547.64 340.824 1545.85 341.24 1543.83 341.24C1540.54 341.24 1537.93 340.328 1536.01 338.504C1534.12 336.648 1533.18 333.944 1533.18 330.392V315.752H1536.58V330.056C1536.58 332.712 1537.24 334.728 1538.55 336.104C1539.86 337.48 1541.74 338.168 1544.17 338.168C1546.82 338.168 1548.92 337.368 1550.46 335.768C1551.99 334.136 1552.76 331.88 1552.76 329V315.752H1556.17ZM1588.07 315.56C1591.36 315.56 1593.89 316.392 1595.65 318.056C1597.41 319.688 1598.29 322.12 1598.29 325.352V341H1595.03V337.064C1594.26 338.376 1593.12 339.4 1591.62 340.136C1590.15 340.872 1588.39 341.24 1586.34 341.24C1583.52 341.24 1581.28 340.568 1579.62 339.224C1577.95 337.88 1577.12 336.104 1577.12 333.896C1577.12 331.752 1577.89 330.024 1579.43 328.712C1580.99 327.4 1583.47 326.744 1586.87 326.744H1594.88V325.208C1594.88 323.032 1594.27 321.384 1593.06 320.264C1591.84 319.112 1590.07 318.536 1587.73 318.536C1586.13 318.536 1584.59 318.808 1583.12 319.352C1581.65 319.864 1580.39 320.584 1579.33 321.512L1577.79 318.968C1579.07 317.88 1580.61 317.048 1582.4 316.472C1584.19 315.864 1586.08 315.56 1588.07 315.56ZM1586.87 338.552C1588.79 338.552 1590.43 338.12 1591.81 337.256C1593.19 336.36 1594.21 335.08 1594.88 333.416V329.288H1586.96C1582.64 329.288 1580.48 330.792 1580.48 333.8C1580.48 335.272 1581.04 336.44 1582.16 337.304C1583.28 338.136 1584.85 338.552 1586.87 338.552ZM1611.29 320.696C1612.09 319 1613.27 317.72 1614.84 316.856C1616.44 315.992 1618.41 315.56 1620.75 315.56V318.872L1619.93 318.824C1617.27 318.824 1615.19 319.64 1613.69 321.272C1612.19 322.904 1611.43 325.192 1611.43 328.136V341H1608.03V315.752H1611.29V320.696ZM1649.15 329.432H1628.03C1628.22 332.056 1629.23 334.184 1631.05 335.816C1632.88 337.416 1635.18 338.216 1637.96 338.216C1639.53 338.216 1640.97 337.944 1642.28 337.4C1643.6 336.824 1644.73 335.992 1645.69 334.904L1647.61 337.112C1646.49 338.456 1645.08 339.48 1643.39 340.184C1641.72 340.888 1639.88 341.24 1637.87 341.24C1635.28 341.24 1632.97 340.696 1630.96 339.608C1628.97 338.488 1627.42 336.952 1626.3 335C1625.18 333.048 1624.62 330.84 1624.62 328.376C1624.62 325.912 1625.15 323.704 1626.2 321.752C1627.29 319.8 1628.76 318.28 1630.62 317.192C1632.51 316.104 1634.62 315.56 1636.96 315.56C1639.29 315.56 1641.39 316.104 1643.24 317.192C1645.1 318.28 1646.56 319.8 1647.61 321.752C1648.67 323.672 1649.2 325.88 1649.2 328.376L1649.15 329.432ZM1636.96 318.488C1634.52 318.488 1632.48 319.272 1630.81 320.84C1629.18 322.376 1628.25 324.392 1628.03 326.888H1645.93C1645.71 324.392 1644.76 322.376 1643.1 320.84C1641.47 319.272 1639.42 318.488 1636.96 318.488ZM1682.52 315.56C1685.69 315.56 1688.2 316.488 1690.05 318.344C1691.94 320.168 1692.89 322.84 1692.89 326.36V341H1689.48V326.696C1689.48 324.072 1688.82 322.072 1687.51 320.696C1686.2 319.32 1684.33 318.632 1681.89 318.632C1679.17 318.632 1677.01 319.448 1675.41 321.08C1673.85 322.68 1673.06 324.904 1673.06 327.752V341H1669.65V305.384H1673.06V320.168C1673.99 318.696 1675.27 317.56 1676.9 316.76C1678.53 315.96 1680.41 315.56 1682.52 315.56ZM1724.7 329.432H1703.58C1703.77 332.056 1704.78 334.184 1706.6 335.816C1708.42 337.416 1710.73 338.216 1713.51 338.216C1715.08 338.216 1716.52 337.944 1717.83 337.4C1719.14 336.824 1720.28 335.992 1721.24 334.904L1723.16 337.112C1722.04 338.456 1720.63 339.48 1718.94 340.184C1717.27 340.888 1715.43 341.24 1713.42 341.24C1710.82 341.24 1708.52 340.696 1706.5 339.608C1704.52 338.488 1702.97 336.952 1701.85 335C1700.73 333.048 1700.17 330.84 1700.17 328.376C1700.17 325.912 1700.7 323.704 1701.75 321.752C1702.84 319.8 1704.31 318.28 1706.17 317.192C1708.06 316.104 1710.17 315.56 1712.5 315.56C1714.84 315.56 1716.94 316.104 1718.79 317.192C1720.65 318.28 1722.1 319.8 1723.16 321.752C1724.22 323.672 1724.74 325.88 1724.74 328.376L1724.7 329.432ZM1712.5 318.488C1710.07 318.488 1708.02 319.272 1706.36 320.84C1704.73 322.376 1703.8 324.392 1703.58 326.888H1721.48C1721.26 324.392 1720.31 322.376 1718.65 320.84C1717.02 319.272 1714.97 318.488 1712.5 318.488ZM1735.43 320.696C1736.23 319 1737.41 317.72 1738.98 316.856C1740.58 315.992 1742.55 315.56 1744.88 315.56V318.872L1744.07 318.824C1741.41 318.824 1739.33 319.64 1737.83 321.272C1736.32 322.904 1735.57 325.192 1735.57 328.136V341H1732.16V315.752H1735.43V320.696ZM1773.28 329.432H1752.16C1752.35 332.056 1753.36 334.184 1755.19 335.816C1757.01 337.416 1759.31 338.216 1762.1 338.216C1763.67 338.216 1765.11 337.944 1766.42 337.4C1767.73 336.824 1768.87 335.992 1769.83 334.904L1771.75 337.112C1770.63 338.456 1769.22 339.48 1767.52 340.184C1765.86 340.888 1764.02 341.24 1762 341.24C1759.41 341.24 1757.11 340.696 1755.09 339.608C1753.11 338.488 1751.55 336.952 1750.43 335C1749.31 333.048 1748.75 330.84 1748.75 328.376C1748.75 325.912 1749.28 323.704 1750.34 321.752C1751.43 319.8 1752.9 318.28 1754.75 317.192C1756.64 316.104 1758.75 315.56 1761.09 315.56C1763.43 315.56 1765.52 316.104 1767.38 317.192C1769.23 318.28 1770.69 319.8 1771.75 321.752C1772.8 323.672 1773.33 325.88 1773.33 328.376L1773.28 329.432ZM1761.09 318.488C1758.66 318.488 1756.61 319.272 1754.95 320.84C1753.31 322.376 1752.39 324.392 1752.16 326.888H1770.07C1769.84 324.392 1768.9 322.376 1767.23 320.84C1765.6 319.272 1763.55 318.488 1761.09 318.488ZM1780.22 307.4H1784.25L1783.53 330.92H1780.89L1780.22 307.4ZM1782.23 341.24C1781.53 341.24 1780.92 341 1780.41 340.52C1779.93 340.008 1779.69 339.416 1779.69 338.744C1779.69 338.04 1779.93 337.464 1780.41 337.016C1780.89 336.536 1781.5 336.296 1782.23 336.296C1782.94 336.296 1783.53 336.536 1784.01 337.016C1784.49 337.464 1784.73 338.04 1784.73 338.744C1784.73 339.416 1784.49 340.008 1784.01 340.52C1783.53 341 1782.94 341.24 1782.23 341.24Z" fill="#448CF7"/>
<path d="M1122.05 44.216C1120.18 44.216 1118.38 43.916 1116.65 43.316C1114.95 42.716 1113.63 41.924 1112.69 40.94L1113.74 38.888C1114.65 39.8 1115.86 40.544 1117.37 41.12C1118.88 41.672 1120.44 41.948 1122.05 41.948C1124.31 41.948 1126 41.54 1127.13 40.724C1128.26 39.884 1128.82 38.804 1128.82 37.484C1128.82 36.476 1128.51 35.672 1127.88 35.072C1127.28 34.472 1126.54 34.016 1125.65 33.704C1124.76 33.368 1123.53 33.008 1121.94 32.624C1120.05 32.144 1118.54 31.688 1117.41 31.256C1116.28 30.8 1115.31 30.116 1114.49 29.204C1113.7 28.292 1113.3 27.056 1113.3 25.496C1113.3 24.224 1113.64 23.072 1114.31 22.04C1114.98 20.984 1116.02 20.144 1117.41 19.52C1118.8 18.896 1120.53 18.584 1122.59 18.584C1124.03 18.584 1125.44 18.788 1126.8 19.196C1128.2 19.58 1129.4 20.12 1130.4 20.816L1129.5 22.94C1128.45 22.244 1127.32 21.728 1126.12 21.392C1124.92 21.032 1123.74 20.852 1122.59 20.852C1120.38 20.852 1118.72 21.284 1117.59 22.148C1116.48 22.988 1115.93 24.08 1115.93 25.424C1115.93 26.432 1116.23 27.248 1116.83 27.872C1117.46 28.472 1118.22 28.94 1119.14 29.276C1120.07 29.588 1121.32 29.936 1122.88 30.32C1124.73 30.776 1126.22 31.232 1127.34 31.688C1128.5 32.12 1129.47 32.792 1130.26 33.704C1131.05 34.592 1131.45 35.804 1131.45 37.34C1131.45 38.612 1131.1 39.776 1130.4 40.832C1129.73 41.864 1128.69 42.692 1127.27 43.316C1125.86 43.916 1124.12 44.216 1122.05 44.216ZM1147.04 42.848C1146.56 43.28 1145.96 43.616 1145.24 43.856C1144.55 44.072 1143.82 44.18 1143.05 44.18C1141.27 44.18 1139.9 43.7 1138.94 42.74C1137.98 41.78 1137.5 40.424 1137.5 38.672V27.224H1134.12V25.064H1137.5V20.924H1140.06V25.064H1145.82V27.224H1140.06V38.528C1140.06 39.656 1140.34 40.52 1140.89 41.12C1141.46 41.696 1142.28 41.984 1143.34 41.984C1143.86 41.984 1144.37 41.9 1144.85 41.732C1145.35 41.564 1145.78 41.324 1146.14 41.012L1147.04 42.848ZM1158.68 24.92C1161.15 24.92 1163.05 25.544 1164.37 26.792C1165.69 28.016 1166.35 29.84 1166.35 32.264V44H1163.9V41.048C1163.33 42.032 1162.47 42.8 1161.35 43.352C1160.24 43.904 1158.92 44.18 1157.39 44.18C1155.27 44.18 1153.59 43.676 1152.35 42.668C1151.1 41.66 1150.47 40.328 1150.47 38.672C1150.47 37.064 1151.05 35.768 1152.2 34.784C1153.38 33.8 1155.24 33.308 1157.78 33.308H1163.79V32.156C1163.79 30.524 1163.34 29.288 1162.43 28.448C1161.51 27.584 1160.18 27.152 1158.43 27.152C1157.23 27.152 1156.08 27.356 1154.97 27.764C1153.87 28.148 1152.92 28.688 1152.13 29.384L1150.98 27.476C1151.94 26.66 1153.09 26.036 1154.43 25.604C1155.78 25.148 1157.19 24.92 1158.68 24.92ZM1157.78 42.164C1159.22 42.164 1160.46 41.84 1161.49 41.192C1162.52 40.52 1163.29 39.56 1163.79 38.312V35.216H1157.85C1154.61 35.216 1152.99 36.344 1152.99 38.6C1152.99 39.704 1153.41 40.58 1154.25 41.228C1155.09 41.852 1156.27 42.164 1157.78 42.164ZM1176.1 28.772C1176.7 27.5 1177.59 26.54 1178.76 25.892C1179.96 25.244 1181.44 24.92 1183.19 24.92V27.404L1182.58 27.368C1180.59 27.368 1179.03 27.98 1177.9 29.204C1176.77 30.428 1176.21 32.144 1176.21 34.352V44H1173.65V25.064H1176.1V28.772ZM1198.96 42.848C1198.48 43.28 1197.88 43.616 1197.16 43.856C1196.46 44.072 1195.73 44.18 1194.96 44.18C1193.19 44.18 1191.82 43.7 1190.86 42.74C1189.9 41.78 1189.42 40.424 1189.42 38.672V27.224H1186.04V25.064H1189.42V20.924H1191.98V25.064H1197.74V27.224H1191.98V38.528C1191.98 39.656 1192.25 40.52 1192.8 41.12C1193.38 41.696 1194.2 41.984 1195.25 41.984C1195.78 41.984 1196.28 41.9 1196.76 41.732C1197.27 41.564 1197.7 41.324 1198.06 41.012L1198.96 42.848ZM1221.5 44.18C1219.67 44.18 1218.03 43.772 1216.56 42.956C1215.1 42.116 1213.95 40.964 1213.11 39.5C1212.27 38.036 1211.85 36.38 1211.85 34.532C1211.85 32.684 1212.27 31.028 1213.11 29.564C1213.95 28.1 1215.1 26.96 1216.56 26.144C1218.03 25.328 1219.67 24.92 1221.5 24.92C1223.32 24.92 1224.96 25.328 1226.43 26.144C1227.89 26.96 1229.03 28.1 1229.85 29.564C1230.69 31.028 1231.11 32.684 1231.11 34.532C1231.11 36.38 1230.69 38.036 1229.85 39.5C1229.03 40.964 1227.89 42.116 1226.43 42.956C1224.96 43.772 1223.32 44.18 1221.5 44.18ZM1221.5 41.912C1222.84 41.912 1224.04 41.612 1225.1 41.012C1226.18 40.388 1227.02 39.512 1227.62 38.384C1228.22 37.256 1228.52 35.972 1228.52 34.532C1228.52 33.092 1228.22 31.808 1227.62 30.68C1227.02 29.552 1226.18 28.688 1225.1 28.088C1224.04 27.464 1222.84 27.152 1221.5 27.152C1220.15 27.152 1218.94 27.464 1217.86 28.088C1216.8 28.688 1215.96 29.552 1215.34 30.68C1214.74 31.808 1214.44 33.092 1214.44 34.532C1214.44 35.972 1214.74 37.256 1215.34 38.384C1215.96 39.512 1216.8 40.388 1217.86 41.012C1218.94 41.612 1220.15 41.912 1221.5 41.912ZM1242.95 19.268C1241.85 19.268 1241.01 19.568 1240.43 20.168C1239.88 20.768 1239.6 21.656 1239.6 22.832V25.064H1245.43V27.224H1239.67V44H1237.12V27.224H1233.73V25.064H1237.12V22.724C1237.12 20.996 1237.61 19.628 1238.59 18.62C1239.6 17.612 1241.02 17.108 1242.84 17.108C1243.56 17.108 1244.26 17.216 1244.93 17.432C1245.6 17.624 1246.17 17.912 1246.62 18.296L1245.76 20.204C1245.01 19.58 1244.08 19.268 1242.95 19.268ZM1269 42.848C1268.52 43.28 1267.92 43.616 1267.2 43.856C1266.5 44.072 1265.77 44.18 1265 44.18C1263.23 44.18 1261.86 43.7 1260.9 42.74C1259.94 41.78 1259.46 40.424 1259.46 38.672V27.224H1256.07V25.064H1259.46V20.924H1262.01V25.064H1267.77V27.224H1262.01V38.528C1262.01 39.656 1262.29 40.52 1262.84 41.12C1263.42 41.696 1264.23 41.984 1265.29 41.984C1265.82 41.984 1266.32 41.9 1266.8 41.732C1267.31 41.564 1267.74 41.324 1268.1 41.012L1269 42.848ZM1283.66 24.92C1286.04 24.92 1287.92 25.616 1289.31 27.008C1290.73 28.376 1291.44 30.38 1291.44 33.02V44H1288.88V33.272C1288.88 31.304 1288.39 29.804 1287.4 28.772C1286.42 27.74 1285.02 27.224 1283.19 27.224C1281.15 27.224 1279.53 27.836 1278.33 29.06C1277.16 30.26 1276.57 31.928 1276.57 34.064V44H1274.01V17.288H1276.57V28.376C1277.26 27.272 1278.22 26.42 1279.45 25.82C1280.67 25.22 1282.08 24.92 1283.66 24.92ZM1315.29 35.324H1299.45C1299.6 37.292 1300.35 38.888 1301.72 40.112C1303.09 41.312 1304.82 41.912 1306.91 41.912C1308.08 41.912 1309.16 41.708 1310.15 41.3C1311.13 40.868 1311.98 40.244 1312.7 39.428L1314.14 41.084C1313.3 42.092 1312.25 42.86 1310.97 43.388C1309.73 43.916 1308.35 44.18 1306.83 44.18C1304.89 44.18 1303.16 43.772 1301.65 42.956C1300.16 42.116 1299 40.964 1298.16 39.5C1297.32 38.036 1296.9 36.38 1296.9 34.532C1296.9 32.684 1297.29 31.028 1298.09 29.564C1298.9 28.1 1300.01 26.96 1301.4 26.144C1302.81 25.328 1304.4 24.92 1306.15 24.92C1307.9 24.92 1309.47 25.328 1310.87 26.144C1312.26 26.96 1313.35 28.1 1314.14 29.564C1314.93 31.004 1315.33 32.66 1315.33 34.532L1315.29 35.324ZM1306.15 27.116C1304.33 27.116 1302.79 27.704 1301.54 28.88C1300.32 30.032 1299.62 31.544 1299.45 33.416H1312.88C1312.71 31.544 1312.01 30.032 1310.76 28.88C1309.53 27.704 1308 27.116 1306.15 27.116ZM1330.67 17.288H1333.23V44H1330.67V17.288ZM1340.7 25.064H1343.26V44H1340.7V25.064ZM1342 20.924C1341.47 20.924 1341.03 20.744 1340.67 20.384C1340.31 20.024 1340.13 19.592 1340.13 19.088C1340.13 18.608 1340.31 18.188 1340.67 17.828C1341.03 17.468 1341.47 17.288 1342 17.288C1342.53 17.288 1342.97 17.468 1343.33 17.828C1343.69 18.164 1343.87 18.572 1343.87 19.052C1343.87 19.58 1343.69 20.024 1343.33 20.384C1342.97 20.744 1342.53 20.924 1342 20.924ZM1360.38 24.92C1362.75 24.92 1364.64 25.616 1366.03 27.008C1367.45 28.376 1368.15 30.38 1368.15 33.02V44H1365.6V33.272C1365.6 31.304 1365.11 29.804 1364.12 28.772C1363.14 27.74 1361.73 27.224 1359.91 27.224C1357.87 27.224 1356.25 27.836 1355.05 29.06C1353.87 30.26 1353.29 31.928 1353.29 34.064V44H1350.73V25.064H1353.18V28.556C1353.87 27.404 1354.83 26.516 1356.06 25.892C1357.31 25.244 1358.75 24.92 1360.38 24.92ZM1392.01 35.324H1376.17C1376.32 37.292 1377.07 38.888 1378.44 40.112C1379.81 41.312 1381.54 41.912 1383.62 41.912C1384.8 41.912 1385.88 41.708 1386.86 41.3C1387.85 40.868 1388.7 40.244 1389.42 39.428L1390.86 41.084C1390.02 42.092 1388.96 42.86 1387.69 43.388C1386.44 43.916 1385.06 44.18 1383.55 44.18C1381.61 44.18 1379.88 43.772 1378.37 42.956C1376.88 42.116 1375.72 40.964 1374.88 39.5C1374.04 38.036 1373.62 36.38 1373.62 34.532C1373.62 32.684 1374.01 31.028 1374.8 29.564C1375.62 28.1 1376.72 26.96 1378.12 26.144C1379.53 25.328 1381.12 24.92 1382.87 24.92C1384.62 24.92 1386.19 25.328 1387.58 26.144C1388.98 26.96 1390.07 28.1 1390.86 29.564C1391.65 31.004 1392.05 32.66 1392.05 34.532L1392.01 35.324ZM1382.87 27.116C1381.04 27.116 1379.51 27.704 1378.26 28.88C1377.04 30.032 1376.34 31.544 1376.17 33.416H1389.6C1389.43 31.544 1388.72 30.032 1387.48 28.88C1386.25 27.704 1384.72 27.116 1382.87 27.116Z" fill="#448CF7"/>
<path d="M407.104 278.8H409.768V304H407.104V278.8ZM427.435 284.92C429.811 284.92 431.695 285.616 433.087 287.008C434.503 288.376 435.211 290.38 435.211 293.02V304H432.655V293.272C432.655 291.304 432.163 289.804 431.179 288.772C430.195 287.74 428.791 287.224 426.967 287.224C424.927 287.224 423.307 287.836 422.107 289.06C420.931 290.26 420.343 291.928 420.343 294.064V304H417.787V285.064H420.235V288.556C420.931 287.404 421.891 286.516 423.115 285.892C424.363 285.244 425.803 284.92 427.435 284.92ZM462.264 302.848C461.784 303.28 461.184 303.616 460.464 303.856C459.768 304.072 459.036 304.18 458.268 304.18C456.492 304.18 455.124 303.7 454.164 302.74C453.204 301.78 452.724 300.424 452.724 298.672V287.224H449.34V285.064H452.724V280.924H455.28V285.064H461.04V287.224H455.28V298.528C455.28 299.656 455.556 300.52 456.108 301.12C456.684 301.696 457.5 301.984 458.556 301.984C459.084 301.984 459.588 301.9 460.068 301.732C460.572 301.564 461.004 301.324 461.364 301.012L462.264 302.848ZM476.925 284.92C479.301 284.92 481.185 285.616 482.577 287.008C483.993 288.376 484.701 290.38 484.701 293.02V304H482.145V293.272C482.145 291.304 481.653 289.804 480.669 288.772C479.685 287.74 478.281 287.224 476.457 287.224C474.417 287.224 472.797 287.836 471.597 289.06C470.421 290.26 469.833 291.928 469.833 294.064V304H467.277V277.288H469.833V288.376C470.529 287.272 471.489 286.42 472.713 285.82C473.937 285.22 475.341 284.92 476.925 284.92ZM492.001 285.064H494.557V304H492.001V285.064ZM493.297 280.924C492.769 280.924 492.325 280.744 491.965 280.384C491.605 280.024 491.425 279.592 491.425 279.088C491.425 278.608 491.605 278.188 491.965 277.828C492.325 277.468 492.769 277.288 493.297 277.288C493.825 277.288 494.269 277.468 494.629 277.828C494.989 278.164 495.169 278.572 495.169 279.052C495.169 279.58 494.989 280.024 494.629 280.384C494.269 280.744 493.825 280.924 493.297 280.924ZM507.105 304.18C505.569 304.18 504.093 303.964 502.677 303.532C501.285 303.076 500.193 302.512 499.401 301.84L500.553 299.824C501.345 300.448 502.341 300.964 503.541 301.372C504.741 301.756 505.989 301.948 507.285 301.948C509.013 301.948 510.285 301.684 511.101 301.156C511.941 300.604 512.361 299.836 512.361 298.852C512.361 298.156 512.133 297.616 511.677 297.232C511.221 296.824 510.645 296.524 509.949 296.332C509.253 296.116 508.329 295.912 507.177 295.72C505.641 295.432 504.405 295.144 503.469 294.856C502.533 294.544 501.729 294.028 501.057 293.308C500.409 292.588 500.085 291.592 500.085 290.32C500.085 288.736 500.745 287.44 502.065 286.432C503.385 285.424 505.221 284.92 507.573 284.92C508.797 284.92 510.021 285.088 511.245 285.424C512.469 285.736 513.477 286.156 514.269 286.684L513.153 288.736C511.593 287.656 509.733 287.116 507.573 287.116C505.941 287.116 504.705 287.404 503.865 287.98C503.049 288.556 502.641 289.312 502.641 290.248C502.641 290.968 502.869 291.544 503.325 291.976C503.805 292.408 504.393 292.732 505.089 292.948C505.785 293.14 506.745 293.344 507.969 293.56C509.481 293.848 510.693 294.136 511.605 294.424C512.517 294.712 513.297 295.204 513.945 295.9C514.593 296.596 514.917 297.556 514.917 298.78C514.917 300.436 514.221 301.756 512.829 302.74C511.461 303.7 509.553 304.18 507.105 304.18ZM537.632 304.18C535.76 304.18 534.08 303.772 532.592 302.956C531.128 302.14 529.976 301 529.136 299.536C528.296 298.048 527.876 296.38 527.876 294.532C527.876 292.684 528.296 291.028 529.136 289.564C529.976 288.1 531.128 286.96 532.592 286.144C534.08 285.328 535.76 284.92 537.632 284.92C539.264 284.92 540.716 285.244 541.988 285.892C543.284 286.516 544.304 287.44 545.048 288.664L543.14 289.96C542.516 289.024 541.724 288.328 540.764 287.872C539.804 287.392 538.76 287.152 537.632 287.152C536.264 287.152 535.028 287.464 533.924 288.088C532.844 288.688 531.992 289.552 531.368 290.68C530.768 291.808 530.468 293.092 530.468 294.532C530.468 295.996 530.768 297.292 531.368 298.42C531.992 299.524 532.844 300.388 533.924 301.012C535.028 301.612 536.264 301.912 537.632 301.912C538.76 301.912 539.804 301.684 540.764 301.228C541.724 300.772 542.516 300.076 543.14 299.14L545.048 300.436C544.304 301.66 543.284 302.596 541.988 303.244C540.692 303.868 539.24 304.18 537.632 304.18ZM557.053 284.92C559.525 284.92 561.421 285.544 562.741 286.792C564.061 288.016 564.721 289.84 564.721 292.264V304H562.273V301.048C561.697 302.032 560.845 302.8 559.717 303.352C558.613 303.904 557.293 304.18 555.757 304.18C553.645 304.18 551.965 303.676 550.717 302.668C549.469 301.66 548.845 300.328 548.845 298.672C548.845 297.064 549.421 295.768 550.573 294.784C551.749 293.8 553.609 293.308 556.153 293.308H562.165V292.156C562.165 290.524 561.709 289.288 560.797 288.448C559.885 287.584 558.553 287.152 556.801 287.152C555.601 287.152 554.449 287.356 553.345 287.764C552.241 288.148 551.293 288.688 550.501 289.384L549.349 287.476C550.309 286.66 551.461 286.036 552.805 285.604C554.149 285.148 555.565 284.92 557.053 284.92ZM556.153 302.164C557.593 302.164 558.829 301.84 559.861 301.192C560.893 300.52 561.661 299.56 562.165 298.312V295.216H556.225C552.985 295.216 551.365 296.344 551.365 298.6C551.365 299.704 551.785 300.58 552.625 301.228C553.465 301.852 554.641 302.164 556.153 302.164ZM577.099 304.18C575.563 304.18 574.087 303.964 572.671 303.532C571.279 303.076 570.187 302.512 569.395 301.84L570.547 299.824C571.339 300.448 572.335 300.964 573.535 301.372C574.735 301.756 575.983 301.948 577.279 301.948C579.007 301.948 580.279 301.684 581.095 301.156C581.935 300.604 582.355 299.836 582.355 298.852C582.355 298.156 582.127 297.616 581.671 297.232C581.215 296.824 580.639 296.524 579.943 296.332C579.247 296.116 578.323 295.912 577.171 295.72C575.635 295.432 574.399 295.144 573.463 294.856C572.527 294.544 571.723 294.028 571.051 293.308C570.403 292.588 570.079 291.592 570.079 290.32C570.079 288.736 570.739 287.44 572.059 286.432C573.379 285.424 575.215 284.92 577.567 284.92C578.791 284.92 580.015 285.088 581.239 285.424C582.463 285.736 583.471 286.156 584.263 286.684L583.147 288.736C581.587 287.656 579.727 287.116 577.567 287.116C575.935 287.116 574.699 287.404 573.859 287.98C573.043 288.556 572.635 289.312 572.635 290.248C572.635 290.968 572.863 291.544 573.319 291.976C573.799 292.408 574.387 292.732 575.083 292.948C575.779 293.14 576.739 293.344 577.963 293.56C579.475 293.848 580.687 294.136 581.599 294.424C582.511 294.712 583.291 295.204 583.939 295.9C584.587 296.596 584.911 297.556 584.911 298.78C584.911 300.436 584.215 301.756 582.823 302.74C581.455 303.7 579.547 304.18 577.099 304.18ZM606.485 295.324H590.645C590.789 297.292 591.545 298.888 592.913 300.112C594.281 301.312 596.009 301.912 598.097 301.912C599.273 301.912 600.353 301.708 601.337 301.3C602.321 300.868 603.173 300.244 603.893 299.428L605.333 301.084C604.493 302.092 603.437 302.86 602.165 303.388C600.917 303.916 599.537 304.18 598.025 304.18C596.081 304.18 594.353 303.772 592.841 302.956C591.353 302.116 590.189 300.964 589.349 299.5C588.509 298.036 588.089 296.38 588.089 294.532C588.089 292.684 588.485 291.028 589.277 289.564C590.093 288.1 591.197 286.96 592.589 286.144C594.005 285.328 595.589 284.92 597.341 284.92C599.093 284.92 600.665 285.328 602.057 286.144C603.449 286.96 604.541 288.1 605.333 289.564C606.125 291.004 606.521 292.66 606.521 294.532L606.485 295.324ZM597.341 287.116C595.517 287.116 593.981 287.704 592.733 288.88C591.509 290.032 590.813 291.544 590.645 293.416H604.073C603.905 291.544 603.197 290.032 601.949 288.88C600.725 287.704 599.189 287.116 597.341 287.116ZM612.371 300.256C612.923 300.256 613.379 300.448 613.739 300.832C614.099 301.192 614.279 301.648 614.279 302.2C614.279 302.488 614.231 302.8 614.135 303.136C614.063 303.472 613.943 303.856 613.775 304.288L612.263 309.256H610.535L611.759 304.036C611.375 303.916 611.063 303.7 610.823 303.388C610.583 303.052 610.463 302.656 610.463 302.2C610.463 301.648 610.643 301.192 611.003 300.832C611.363 300.448 611.819 300.256 612.371 300.256ZM645.766 285.064L636.298 306.268C635.53 308.044 634.642 309.304 633.634 310.048C632.626 310.792 631.414 311.164 629.998 311.164C629.086 311.164 628.234 311.02 627.442 310.732C626.65 310.444 625.966 310.012 625.39 309.436L626.578 307.528C627.538 308.488 628.69 308.968 630.034 308.968C630.898 308.968 631.63 308.728 632.23 308.248C632.854 307.768 633.43 306.952 633.958 305.8L634.786 303.964L626.326 285.064H628.99L636.118 301.156L643.246 285.064H645.766ZM656.938 304.18C655.114 304.18 653.47 303.772 652.006 302.956C650.542 302.116 649.39 300.964 648.55 299.5C647.71 298.036 647.29 296.38 647.29 294.532C647.29 292.684 647.71 291.028 648.55 289.564C649.39 288.1 650.542 286.96 652.006 286.144C653.47 285.328 655.114 284.92 656.938 284.92C658.762 284.92 660.406 285.328 661.87 286.144C663.334 286.96 664.474 288.1 665.29 289.564C666.13 291.028 666.55 292.684 666.55 294.532C666.55 296.38 666.13 298.036 665.29 299.5C664.474 300.964 663.334 302.116 661.87 302.956C660.406 303.772 658.762 304.18 656.938 304.18ZM656.938 301.912C658.282 301.912 659.482 301.612 660.538 301.012C661.618 300.388 662.458 299.512 663.058 298.384C663.658 297.256 663.958 295.972 663.958 294.532C663.958 293.092 663.658 291.808 663.058 290.68C662.458 289.552 661.618 288.688 660.538 288.088C659.482 287.464 658.282 287.152 656.938 287.152C655.594 287.152 654.382 287.464 653.302 288.088C652.246 288.688 651.406 289.552 650.782 290.68C650.182 291.808 649.882 293.092 649.882 294.532C649.882 295.972 650.182 297.256 650.782 298.384C651.406 299.512 652.246 300.388 653.302 301.012C654.382 301.612 655.594 301.912 656.938 301.912ZM689.193 285.064V304H686.745V300.544C686.073 301.696 685.149 302.596 683.973 303.244C682.797 303.868 681.453 304.18 679.941 304.18C677.469 304.18 675.513 303.496 674.073 302.128C672.657 300.736 671.949 298.708 671.949 296.044V285.064H674.505V295.792C674.505 297.784 674.997 299.296 675.981 300.328C676.965 301.36 678.369 301.876 680.193 301.876C682.185 301.876 683.757 301.276 684.909 300.076C686.061 298.852 686.637 297.16 686.637 295V285.064H689.193ZM430.18 344.92C432.556 344.92 434.416 345.604 435.76 346.972C437.128 348.34 437.812 350.356 437.812 353.02V364H435.256V353.272C435.256 351.304 434.776 349.804 433.816 348.772C432.88 347.74 431.548 347.224 429.82 347.224C427.852 347.224 426.304 347.836 425.176 349.06C424.048 350.26 423.484 351.928 423.484 354.064V364H420.928V353.272C420.928 351.304 420.448 349.804 419.488 348.772C418.552 347.74 417.208 347.224 415.456 347.224C413.512 347.224 411.964 347.836 410.812 349.06C409.684 350.26 409.12 351.928 409.12 354.064V364H406.564V345.064H409.012V348.52C409.684 347.368 410.62 346.48 411.82 345.856C413.02 345.232 414.4 344.92 415.96 344.92C417.544 344.92 418.912 345.256 420.064 345.928C421.24 346.6 422.116 347.596 422.692 348.916C423.388 347.668 424.384 346.696 425.68 346C427 345.28 428.5 344.92 430.18 344.92ZM445.104 345.064H447.66V364H445.104V345.064ZM446.4 340.924C445.872 340.924 445.428 340.744 445.068 340.384C444.708 340.024 444.528 339.592 444.528 339.088C444.528 338.608 444.708 338.188 445.068 337.828C445.428 337.468 445.872 337.288 446.4 337.288C446.928 337.288 447.372 337.468 447.732 337.828C448.092 338.164 448.272 338.572 448.272 339.052C448.272 339.58 448.092 340.024 447.732 340.384C447.372 340.744 446.928 340.924 446.4 340.924ZM472.664 345.064V361.696C472.664 364.912 471.872 367.288 470.288 368.824C468.728 370.384 466.364 371.164 463.196 371.164C461.444 371.164 459.776 370.9 458.192 370.372C456.632 369.868 455.36 369.16 454.376 368.248L455.672 366.304C456.584 367.12 457.688 367.756 458.984 368.212C460.304 368.668 461.684 368.896 463.124 368.896C465.524 368.896 467.288 368.332 468.416 367.204C469.544 366.1 470.108 364.372 470.108 362.02V359.608C469.316 360.808 468.272 361.72 466.976 362.344C465.704 362.968 464.288 363.28 462.728 363.28C460.952 363.28 459.332 362.896 457.868 362.128C456.428 361.336 455.288 360.244 454.448 358.852C453.632 357.436 453.224 355.84 453.224 354.064C453.224 352.288 453.632 350.704 454.448 349.312C455.288 347.92 456.428 346.84 457.868 346.072C459.308 345.304 460.928 344.92 462.728 344.92C464.336 344.92 465.788 345.244 467.084 345.892C468.38 346.54 469.424 347.476 470.216 348.7V345.064H472.664ZM462.98 361.012C464.348 361.012 465.584 360.724 466.688 360.148C467.792 359.548 468.644 358.72 469.244 357.664C469.868 356.608 470.18 355.408 470.18 354.064C470.18 352.72 469.868 351.532 469.244 350.5C468.644 349.444 467.792 348.628 466.688 348.052C465.608 347.452 464.372 347.152 462.98 347.152C461.612 347.152 460.376 347.44 459.272 348.016C458.192 348.592 457.34 349.408 456.716 350.464C456.116 351.52 455.816 352.72 455.816 354.064C455.816 355.408 456.116 356.608 456.716 357.664C457.34 358.72 458.192 359.548 459.272 360.148C460.376 360.724 461.612 361.012 462.98 361.012ZM489.819 344.92C492.195 344.92 494.079 345.616 495.471 347.008C496.887 348.376 497.595 350.38 497.595 353.02V364H495.039V353.272C495.039 351.304 494.547 349.804 493.563 348.772C492.579 347.74 491.175 347.224 489.351 347.224C487.311 347.224 485.691 347.836 484.491 349.06C483.315 350.26 482.727 351.928 482.727 354.064V364H480.171V337.288H482.727V348.376C483.423 347.272 484.383 346.42 485.607 345.82C486.831 345.22 488.235 344.92 489.819 344.92ZM514.867 362.848C514.387 363.28 513.787 363.616 513.067 363.856C512.371 364.072 511.639 364.18 510.871 364.18C509.095 364.18 507.727 363.7 506.767 362.74C505.807 361.78 505.327 360.424 505.327 358.672V347.224H501.943V345.064H505.327V340.924H507.883V345.064H513.643V347.224H507.883V358.528C507.883 359.656 508.159 360.52 508.711 361.12C509.287 361.696 510.103 361.984 511.159 361.984C511.687 361.984 512.191 361.9 512.671 361.732C513.175 361.564 513.607 361.324 513.967 361.012L514.867 362.848ZM529.662 337.288H532.218V364H529.662V337.288ZM556.177 355.324H540.337C540.481 357.292 541.237 358.888 542.605 360.112C543.973 361.312 545.701 361.912 547.789 361.912C548.965 361.912 550.045 361.708 551.029 361.3C552.013 360.868 552.865 360.244 553.585 359.428L555.025 361.084C554.185 362.092 553.129 362.86 551.857 363.388C550.609 363.916 549.229 364.18 547.717 364.18C545.773 364.18 544.045 363.772 542.533 362.956C541.045 362.116 539.881 360.964 539.041 359.5C538.201 358.036 537.781 356.38 537.781 354.532C537.781 352.684 538.177 351.028 538.969 349.564C539.785 348.1 540.889 346.96 542.281 346.144C543.697 345.328 545.281 344.92 547.033 344.92C548.785 344.92 550.357 345.328 551.749 346.144C553.141 346.96 554.233 348.1 555.025 349.564C555.817 351.004 556.213 352.66 556.213 354.532L556.177 355.324ZM547.033 347.116C545.209 347.116 543.673 347.704 542.425 348.88C541.201 350.032 540.505 351.544 540.337 353.416H553.765C553.597 351.544 552.889 350.032 551.641 348.88C550.417 347.704 548.881 347.116 547.033 347.116ZM567.873 344.92C570.345 344.92 572.241 345.544 573.561 346.792C574.881 348.016 575.541 349.84 575.541 352.264V364H573.093V361.048C572.517 362.032 571.665 362.8 570.537 363.352C569.433 363.904 568.113 364.18 566.577 364.18C564.465 364.18 562.785 363.676 561.537 362.668C560.289 361.66 559.665 360.328 559.665 358.672C559.665 357.064 560.241 355.768 561.393 354.784C562.569 353.8 564.429 353.308 566.973 353.308H572.985V352.156C572.985 350.524 572.529 349.288 571.617 348.448C570.705 347.584 569.373 347.152 567.621 347.152C566.421 347.152 565.269 347.356 564.165 347.764C563.061 348.148 562.113 348.688 561.321 349.384L560.169 347.476C561.129 346.66 562.281 346.036 563.625 345.604C564.969 345.148 566.385 344.92 567.873 344.92ZM566.973 362.164C568.413 362.164 569.649 361.84 570.681 361.192C571.713 360.52 572.481 359.56 572.985 358.312V355.216H567.045C563.805 355.216 562.185 356.344 562.185 358.6C562.185 359.704 562.605 360.58 563.445 361.228C564.285 361.852 565.461 362.164 566.973 362.164ZM598.404 345.064L589.98 364H587.352L578.964 345.064H581.628L588.72 361.192L595.884 345.064H598.404ZM618.324 355.324H602.484C602.628 357.292 603.384 358.888 604.752 360.112C606.12 361.312 607.848 361.912 609.936 361.912C611.112 361.912 612.192 361.708 613.176 361.3C614.16 360.868 615.012 360.244 615.732 359.428L617.172 361.084C616.332 362.092 615.276 362.86 614.004 363.388C612.756 363.916 611.376 364.18 609.864 364.18C607.92 364.18 606.192 363.772 604.68 362.956C603.192 362.116 602.028 360.964 601.188 359.5C600.348 358.036 599.928 356.38 599.928 354.532C599.928 352.684 600.324 351.028 601.116 349.564C601.932 348.1 603.036 346.96 604.428 346.144C605.844 345.328 607.428 344.92 609.18 344.92C610.932 344.92 612.504 345.328 613.896 346.144C615.288 346.96 616.38 348.1 617.172 349.564C617.964 351.004 618.36 352.66 618.36 354.532L618.324 355.324ZM609.18 347.116C607.356 347.116 605.82 347.704 604.572 348.88C603.348 350.032 602.652 351.544 602.484 353.416H615.912C615.744 351.544 615.036 350.032 613.788 348.88C612.564 347.704 611.028 347.116 609.18 347.116ZM640.328 344.92C642.8 344.92 644.696 345.544 646.016 346.792C647.336 348.016 647.996 349.84 647.996 352.264V364H645.548V361.048C644.972 362.032 644.12 362.8 642.992 363.352C641.888 363.904 640.568 364.18 639.032 364.18C636.92 364.18 635.24 363.676 633.992 362.668C632.744 361.66 632.12 360.328 632.12 358.672C632.12 357.064 632.696 355.768 633.848 354.784C635.024 353.8 636.884 353.308 639.428 353.308H645.44V352.156C645.44 350.524 644.984 349.288 644.072 348.448C643.16 347.584 641.828 347.152 640.076 347.152C638.876 347.152 637.724 347.356 636.62 347.764C635.516 348.148 634.568 348.688 633.776 349.384L632.624 347.476C633.584 346.66 634.736 346.036 636.08 345.604C637.424 345.148 638.84 344.92 640.328 344.92ZM639.428 362.164C640.868 362.164 642.104 361.84 643.136 361.192C644.168 360.52 644.936 359.56 645.44 358.312V355.216H639.5C636.26 355.216 634.64 356.344 634.64 358.6C634.64 359.704 635.06 360.58 635.9 361.228C636.74 361.852 637.916 362.164 639.428 362.164ZM664.947 344.92C667.323 344.92 669.207 345.616 670.599 347.008C672.015 348.376 672.723 350.38 672.723 353.02V364H670.167V353.272C670.167 351.304 669.675 349.804 668.691 348.772C667.707 347.74 666.303 347.224 664.479 347.224C662.439 347.224 660.819 347.836 659.619 349.06C658.443 350.26 657.855 351.928 657.855 354.064V364H655.299V345.064H657.747V348.556C658.443 347.404 659.403 346.516 660.627 345.892C661.875 345.244 663.315 344.92 664.947 344.92ZM697.372 337.288V364H694.924V360.256C694.156 361.528 693.136 362.5 691.864 363.172C690.616 363.844 689.2 364.18 687.616 364.18C685.84 364.18 684.232 363.772 682.792 362.956C681.352 362.14 680.224 361 679.408 359.536C678.592 358.072 678.184 356.404 678.184 354.532C678.184 352.66 678.592 350.992 679.408 349.528C680.224 348.064 681.352 346.936 682.792 346.144C684.232 345.328 685.84 344.92 687.616 344.92C689.152 344.92 690.532 345.244 691.756 345.892C693.004 346.516 694.024 347.44 694.816 348.664V337.288H697.372ZM687.832 361.912C689.152 361.912 690.34 361.612 691.396 361.012C692.476 360.388 693.316 359.512 693.916 358.384C694.54 357.256 694.852 355.972 694.852 354.532C694.852 353.092 694.54 351.808 693.916 350.68C693.316 349.552 692.476 348.688 691.396 348.088C690.34 347.464 689.152 347.152 687.832 347.152C686.488 347.152 685.276 347.464 684.196 348.088C683.14 348.688 682.3 349.552 681.676 350.68C681.076 351.808 680.776 353.092 680.776 354.532C680.776 355.972 681.076 357.256 681.676 358.384C682.3 359.512 683.14 360.388 684.196 361.012C685.276 361.612 686.488 361.912 687.832 361.912ZM424.096 405.064V421.696C424.096 424.912 423.304 427.288 421.72 428.824C420.16 430.384 417.796 431.164 414.628 431.164C412.876 431.164 411.208 430.9 409.624 430.372C408.064 429.868 406.792 429.16 405.808 428.248L407.104 426.304C408.016 427.12 409.12 427.756 410.416 428.212C411.736 428.668 413.116 428.896 414.556 428.896C416.956 428.896 418.72 428.332 419.848 427.204C420.976 426.1 421.54 424.372 421.54 422.02V419.608C420.748 420.808 419.704 421.72 418.408 422.344C417.136 422.968 415.72 423.28 414.16 423.28C412.384 423.28 410.764 422.896 409.3 422.128C407.86 421.336 406.72 420.244 405.88 418.852C405.064 417.436 404.656 415.84 404.656 414.064C404.656 412.288 405.064 410.704 405.88 409.312C406.72 407.92 407.86 406.84 409.3 406.072C410.74 405.304 412.36 404.92 414.16 404.92C415.768 404.92 417.22 405.244 418.516 405.892C419.812 406.54 420.856 407.476 421.648 408.7V405.064H424.096ZM414.412 421.012C415.78 421.012 417.016 420.724 418.12 420.148C419.224 419.548 420.076 418.72 420.676 417.664C421.3 416.608 421.612 415.408 421.612 414.064C421.612 412.72 421.3 411.532 420.676 410.5C420.076 409.444 419.224 408.628 418.12 408.052C417.04 407.452 415.804 407.152 414.412 407.152C413.044 407.152 411.808 407.44 410.704 408.016C409.624 408.592 408.772 409.408 408.148 410.464C407.548 411.52 407.248 412.72 407.248 414.064C407.248 415.408 407.548 416.608 408.148 417.664C408.772 418.72 409.624 419.548 410.704 420.148C411.808 420.724 413.044 421.012 414.412 421.012ZM448.092 415.324H432.252C432.396 417.292 433.152 418.888 434.52 420.112C435.888 421.312 437.616 421.912 439.704 421.912C440.88 421.912 441.96 421.708 442.944 421.3C443.928 420.868 444.78 420.244 445.5 419.428L446.94 421.084C446.1 422.092 445.044 422.86 443.772 423.388C442.524 423.916 441.144 424.18 439.632 424.18C437.688 424.18 435.96 423.772 434.448 422.956C432.96 422.116 431.796 420.964 430.956 419.5C430.116 418.036 429.696 416.38 429.696 414.532C429.696 412.684 430.092 411.028 430.884 409.564C431.7 408.1 432.804 406.96 434.196 406.144C435.612 405.328 437.196 404.92 438.948 404.92C440.7 404.92 442.272 405.328 443.664 406.144C445.056 406.96 446.148 408.1 446.94 409.564C447.732 411.004 448.128 412.66 448.128 414.532L448.092 415.324ZM438.948 407.116C437.124 407.116 435.588 407.704 434.34 408.88C433.116 410.032 432.42 411.544 432.252 413.416H445.68C445.512 411.544 444.804 410.032 443.556 408.88C442.332 407.704 440.796 407.116 438.948 407.116ZM463.662 422.848C463.182 423.28 462.582 423.616 461.862 423.856C461.166 424.072 460.434 424.18 459.666 424.18C457.89 424.18 456.522 423.7 455.562 422.74C454.602 421.78 454.122 420.424 454.122 418.672V407.224H450.738V405.064H454.122V400.924H456.678V405.064H462.438V407.224H456.678V418.528C456.678 419.656 456.954 420.52 457.506 421.12C458.082 421.696 458.898 421.984 459.954 421.984C460.482 421.984 460.986 421.9 461.466 421.732C461.97 421.564 462.402 421.324 462.762 421.012L463.662 422.848ZM488.105 404.92C490.481 404.92 492.365 405.616 493.757 407.008C495.173 408.376 495.881 410.38 495.881 413.02V424H493.325V413.272C493.325 411.304 492.833 409.804 491.849 408.772C490.865 407.74 489.461 407.224 487.637 407.224C485.597 407.224 483.977 407.836 482.777 409.06C481.601 410.26 481.013 411.928 481.013 414.064V424H478.457V397.288H481.013V408.376C481.709 407.272 482.669 406.42 483.893 405.82C485.117 405.22 486.521 404.92 488.105 404.92ZM519.739 415.324H503.899C504.043 417.292 504.799 418.888 506.167 420.112C507.535 421.312 509.263 421.912 511.351 421.912C512.527 421.912 513.607 421.708 514.591 421.3C515.575 420.868 516.427 420.244 517.147 419.428L518.587 421.084C517.747 422.092 516.691 422.86 515.419 423.388C514.171 423.916 512.791 424.18 511.279 424.18C509.335 424.18 507.607 423.772 506.095 422.956C504.607 422.116 503.443 420.964 502.603 419.5C501.763 418.036 501.343 416.38 501.343 414.532C501.343 412.684 501.739 411.028 502.531 409.564C503.347 408.1 504.451 406.96 505.843 406.144C507.259 405.328 508.843 404.92 510.595 404.92C512.347 404.92 513.919 405.328 515.311 406.144C516.703 406.96 517.795 408.1 518.587 409.564C519.379 411.004 519.775 412.66 519.775 414.532L519.739 415.324ZM510.595 407.116C508.771 407.116 507.235 407.704 505.987 408.88C504.763 410.032 504.067 411.544 503.899 413.416H517.327C517.159 411.544 516.451 410.032 515.203 408.88C513.979 407.704 512.443 407.116 510.595 407.116ZM525.337 397.288H527.893V424H525.337V397.288ZM545.121 404.92C546.897 404.92 548.505 405.328 549.945 406.144C551.385 406.936 552.513 408.064 553.329 409.528C554.145 410.992 554.553 412.66 554.553 414.532C554.553 416.428 554.145 418.108 553.329 419.572C552.513 421.036 551.385 422.176 549.945 422.992C548.529 423.784 546.921 424.18 545.121 424.18C543.585 424.18 542.193 423.868 540.945 423.244C539.721 422.596 538.713 421.66 537.921 420.436V430.984H535.365V405.064H537.813V408.808C538.581 407.56 539.589 406.6 540.837 405.928C542.109 405.256 543.537 404.92 545.121 404.92ZM544.941 421.912C546.261 421.912 547.461 421.612 548.541 421.012C549.621 420.388 550.461 419.512 551.061 418.384C551.685 417.256 551.997 415.972 551.997 414.532C551.997 413.092 551.685 411.82 551.061 410.716C550.461 409.588 549.621 408.712 548.541 408.088C547.461 407.464 546.261 407.152 544.941 407.152C543.597 407.152 542.385 407.464 541.305 408.088C540.249 408.712 539.409 409.588 538.785 410.716C538.185 411.82 537.885 413.092 537.885 414.532C537.885 415.972 538.185 417.256 538.785 418.384C539.409 419.512 540.249 420.388 541.305 421.012C542.385 421.612 543.597 421.912 544.941 421.912ZM576.17 399.268C575.066 399.268 574.226 399.568 573.65 400.168C573.098 400.768 572.822 401.656 572.822 402.832V405.064H578.654V407.224H572.894V424H570.338V407.224H566.954V405.064H570.338V402.724C570.338 400.996 570.83 399.628 571.814 398.62C572.822 397.612 574.238 397.108 576.062 397.108C576.782 397.108 577.478 397.216 578.15 397.432C578.822 397.624 579.386 397.912 579.842 398.296L578.978 400.204C578.234 399.58 577.298 399.268 576.17 399.268ZM587.796 408.772C588.396 407.5 589.284 406.54 590.46 405.892C591.66 405.244 593.136 404.92 594.888 404.92V407.404L594.276 407.368C592.284 407.368 590.724 407.98 589.596 409.204C588.468 410.428 587.904 412.144 587.904 414.352V424H585.348V405.064H587.796V408.772ZM607.44 424.18C605.616 424.18 603.972 423.772 602.508 422.956C601.044 422.116 599.892 420.964 599.052 419.5C598.212 418.036 597.792 416.38 597.792 414.532C597.792 412.684 598.212 411.028 599.052 409.564C599.892 408.1 601.044 406.96 602.508 406.144C603.972 405.328 605.616 404.92 607.44 404.92C609.264 404.92 610.908 405.328 612.372 406.144C613.836 406.96 614.976 408.1 615.792 409.564C616.632 411.028 617.052 412.684 617.052 414.532C617.052 416.38 616.632 418.036 615.792 419.5C614.976 420.964 613.836 422.116 612.372 422.956C610.908 423.772 609.264 424.18 607.44 424.18ZM607.44 421.912C608.784 421.912 609.984 421.612 611.04 421.012C612.12 420.388 612.96 419.512 613.56 418.384C614.16 417.256 614.46 415.972 614.46 414.532C614.46 413.092 614.16 411.808 613.56 410.68C612.96 409.552 612.12 408.688 611.04 408.088C609.984 407.464 608.784 407.152 607.44 407.152C606.096 407.152 604.884 407.464 603.804 408.088C602.748 408.688 601.908 409.552 601.284 410.68C600.684 411.808 600.384 413.092 600.384 414.532C600.384 415.972 600.684 417.256 601.284 418.384C601.908 419.512 602.748 420.388 603.804 421.012C604.884 421.612 606.096 421.912 607.44 421.912ZM646.246 404.92C648.622 404.92 650.482 405.604 651.826 406.972C653.194 408.34 653.878 410.356 653.878 413.02V424H651.322V413.272C651.322 411.304 650.842 409.804 649.882 408.772C648.946 407.74 647.614 407.224 645.886 407.224C643.918 407.224 642.37 407.836 641.242 409.06C640.114 410.26 639.55 411.928 639.55 414.064V424H636.994V413.272C636.994 411.304 636.514 409.804 635.554 408.772C634.618 407.74 633.274 407.224 631.522 407.224C629.578 407.224 628.03 407.836 626.878 409.06C625.75 410.26 625.186 411.928 625.186 414.064V424H622.63V405.064H625.078V408.52C625.75 407.368 626.686 406.48 627.886 405.856C629.086 405.232 630.466 404.92 632.026 404.92C633.61 404.92 634.978 405.256 636.13 405.928C637.306 406.6 638.182 407.596 638.758 408.916C639.454 407.668 640.45 406.696 641.746 406C643.066 405.28 644.566 404.92 646.246 404.92ZM411.64 484.18C410.104 484.18 408.628 483.964 407.212 483.532C405.82 483.076 404.728 482.512 403.936 481.84L405.088 479.824C405.88 480.448 406.876 480.964 408.076 481.372C409.276 481.756 410.524 481.948 411.82 481.948C413.548 481.948 414.82 481.684 415.636 481.156C416.476 480.604 416.896 479.836 416.896 478.852C416.896 478.156 416.668 477.616 416.212 477.232C415.756 476.824 415.18 476.524 414.484 476.332C413.788 476.116 412.864 475.912 411.712 475.72C410.176 475.432 408.94 475.144 408.004 474.856C407.068 474.544 406.264 474.028 405.592 473.308C404.944 472.588 404.62 471.592 404.62 470.32C404.62 468.736 405.28 467.44 406.6 466.432C407.92 465.424 409.756 464.92 412.108 464.92C413.332 464.92 414.556 465.088 415.78 465.424C417.004 465.736 418.012 466.156 418.804 466.684L417.688 468.736C416.128 467.656 414.268 467.116 412.108 467.116C410.476 467.116 409.24 467.404 408.4 467.98C407.584 468.556 407.176 469.312 407.176 470.248C407.176 470.968 407.404 471.544 407.86 471.976C408.34 472.408 408.928 472.732 409.624 472.948C410.32 473.14 411.28 473.344 412.504 473.56C414.016 473.848 415.228 474.136 416.14 474.424C417.052 474.712 417.832 475.204 418.48 475.9C419.128 476.596 419.452 477.556 419.452 478.78C419.452 480.436 418.756 481.756 417.364 482.74C415.996 483.7 414.088 484.18 411.64 484.18ZM432.277 484.18C430.453 484.18 428.809 483.772 427.345 482.956C425.881 482.116 424.729 480.964 423.889 479.5C423.049 478.036 422.629 476.38 422.629 474.532C422.629 472.684 423.049 471.028 423.889 469.564C424.729 468.1 425.881 466.96 427.345 466.144C428.809 465.328 430.453 464.92 432.277 464.92C434.101 464.92 435.745 465.328 437.209 466.144C438.673 466.96 439.813 468.1 440.629 469.564C441.469 471.028 441.889 472.684 441.889 474.532C441.889 476.38 441.469 478.036 440.629 479.5C439.813 480.964 438.673 482.116 437.209 482.956C435.745 483.772 434.101 484.18 432.277 484.18ZM432.277 481.912C433.621 481.912 434.821 481.612 435.877 481.012C436.957 480.388 437.797 479.512 438.397 478.384C438.997 477.256 439.297 475.972 439.297 474.532C439.297 473.092 438.997 471.808 438.397 470.68C437.797 469.552 436.957 468.688 435.877 468.088C434.821 467.464 433.621 467.152 432.277 467.152C430.933 467.152 429.721 467.464 428.641 468.088C427.585 468.688 426.745 469.552 426.121 470.68C425.521 471.808 425.221 473.092 425.221 474.532C425.221 475.972 425.521 477.256 426.121 478.384C426.745 479.512 427.585 480.388 428.641 481.012C429.721 481.612 430.933 481.912 432.277 481.912ZM471.084 464.92C473.46 464.92 475.32 465.604 476.664 466.972C478.032 468.34 478.716 470.356 478.716 473.02V484H476.16V473.272C476.16 471.304 475.68 469.804 474.72 468.772C473.784 467.74 472.452 467.224 470.724 467.224C468.756 467.224 467.208 467.836 466.08 469.06C464.952 470.26 464.388 471.928 464.388 474.064V484H461.832V473.272C461.832 471.304 461.352 469.804 460.392 468.772C459.456 467.74 458.112 467.224 456.36 467.224C454.416 467.224 452.868 467.836 451.716 469.06C450.588 470.26 450.024 471.928 450.024 474.064V484H447.468V465.064H449.916V468.52C450.588 467.368 451.524 466.48 452.724 465.856C453.924 465.232 455.304 464.92 456.864 464.92C458.448 464.92 459.816 465.256 460.968 465.928C462.144 466.6 463.02 467.596 463.596 468.916C464.292 467.668 465.288 466.696 466.584 466C467.904 465.28 469.404 464.92 471.084 464.92ZM502.566 475.324H486.726C486.87 477.292 487.626 478.888 488.994 480.112C490.362 481.312 492.09 481.912 494.178 481.912C495.354 481.912 496.434 481.708 497.418 481.3C498.402 480.868 499.254 480.244 499.974 479.428L501.414 481.084C500.574 482.092 499.518 482.86 498.246 483.388C496.998 483.916 495.618 484.18 494.106 484.18C492.162 484.18 490.434 483.772 488.922 482.956C487.434 482.116 486.27 480.964 485.43 479.5C484.59 478.036 484.17 476.38 484.17 474.532C484.17 472.684 484.566 471.028 485.358 469.564C486.174 468.1 487.278 466.96 488.67 466.144C490.086 465.328 491.67 464.92 493.422 464.92C495.174 464.92 496.746 465.328 498.138 466.144C499.53 466.96 500.622 468.1 501.414 469.564C502.206 471.004 502.602 472.66 502.602 474.532L502.566 475.324ZM493.422 467.116C491.598 467.116 490.062 467.704 488.814 468.88C487.59 470.032 486.894 471.544 486.726 473.416H500.154C499.986 471.544 499.278 470.032 498.03 468.88C496.806 467.704 495.27 467.116 493.422 467.116ZM515.904 484.18C514.08 484.18 512.436 483.772 510.972 482.956C509.508 482.116 508.356 480.964 507.516 479.5C506.676 478.036 506.256 476.38 506.256 474.532C506.256 472.684 506.676 471.028 507.516 469.564C508.356 468.1 509.508 466.96 510.972 466.144C512.436 465.328 514.08 464.92 515.904 464.92C517.728 464.92 519.372 465.328 520.836 466.144C522.3 466.96 523.44 468.1 524.256 469.564C525.096 471.028 525.516 472.684 525.516 474.532C525.516 476.38 525.096 478.036 524.256 479.5C523.44 480.964 522.3 482.116 520.836 482.956C519.372 483.772 517.728 484.18 515.904 484.18ZM515.904 481.912C517.248 481.912 518.448 481.612 519.504 481.012C520.584 480.388 521.424 479.512 522.024 478.384C522.624 477.256 522.924 475.972 522.924 474.532C522.924 473.092 522.624 471.808 522.024 470.68C521.424 469.552 520.584 468.688 519.504 468.088C518.448 467.464 517.248 467.152 515.904 467.152C514.56 467.152 513.348 467.464 512.268 468.088C511.212 468.688 510.372 469.552 509.748 470.68C509.148 471.808 508.848 473.092 508.848 474.532C508.848 475.972 509.148 477.256 509.748 478.384C510.372 479.512 511.212 480.388 512.268 481.012C513.348 481.612 514.56 481.912 515.904 481.912ZM540.742 464.92C543.118 464.92 545.002 465.616 546.394 467.008C547.81 468.376 548.518 470.38 548.518 473.02V484H545.962V473.272C545.962 471.304 545.47 469.804 544.486 468.772C543.502 467.74 542.098 467.224 540.274 467.224C538.234 467.224 536.614 467.836 535.414 469.06C534.238 470.26 533.65 471.928 533.65 474.064V484H531.094V465.064H533.542V468.556C534.238 467.404 535.198 466.516 536.422 465.892C537.67 465.244 539.11 464.92 540.742 464.92ZM572.376 475.324H556.536C556.68 477.292 557.436 478.888 558.804 480.112C560.172 481.312 561.9 481.912 563.988 481.912C565.164 481.912 566.244 481.708 567.228 481.3C568.212 480.868 569.064 480.244 569.784 479.428L571.224 481.084C570.384 482.092 569.328 482.86 568.056 483.388C566.808 483.916 565.428 484.18 563.916 484.18C561.972 484.18 560.244 483.772 558.732 482.956C557.244 482.116 556.08 480.964 555.24 479.5C554.4 478.036 553.98 476.38 553.98 474.532C553.98 472.684 554.376 471.028 555.168 469.564C555.984 468.1 557.088 466.96 558.48 466.144C559.896 465.328 561.48 464.92 563.232 464.92C564.984 464.92 566.556 465.328 567.948 466.144C569.34 466.96 570.432 468.1 571.224 469.564C572.016 471.004 572.412 472.66 572.412 474.532L572.376 475.324ZM563.232 467.116C561.408 467.116 559.872 467.704 558.624 468.88C557.4 470.032 556.704 471.544 556.536 473.416H569.964C569.796 471.544 569.088 470.032 567.84 468.88C566.616 467.704 565.08 467.116 563.232 467.116ZM604.245 475.324H588.405C588.549 477.292 589.305 478.888 590.673 480.112C592.041 481.312 593.769 481.912 595.857 481.912C597.033 481.912 598.113 481.708 599.097 481.3C600.081 480.868 600.933 480.244 601.653 479.428L603.093 481.084C602.253 482.092 601.197 482.86 599.925 483.388C598.677 483.916 597.297 484.18 595.785 484.18C593.841 484.18 592.113 483.772 590.601 482.956C589.113 482.116 587.949 480.964 587.109 479.5C586.269 478.036 585.849 476.38 585.849 474.532C585.849 472.684 586.245 471.028 587.037 469.564C587.853 468.1 588.957 466.96 590.349 466.144C591.765 465.328 593.349 464.92 595.101 464.92C596.853 464.92 598.425 465.328 599.817 466.144C601.209 466.96 602.301 468.1 603.093 469.564C603.885 471.004 604.281 472.66 604.281 474.532L604.245 475.324ZM595.101 467.116C593.277 467.116 591.741 467.704 590.493 468.88C589.269 470.032 588.573 471.544 588.405 473.416H601.833C601.665 471.544 600.957 470.032 599.709 468.88C598.485 467.704 596.949 467.116 595.101 467.116ZM609.843 457.288H612.399V484H609.843V457.288ZM624.947 484.18C623.411 484.18 621.935 483.964 620.519 483.532C619.127 483.076 618.035 482.512 617.243 481.84L618.395 479.824C619.187 480.448 620.183 480.964 621.383 481.372C622.583 481.756 623.831 481.948 625.127 481.948C626.855 481.948 628.127 481.684 628.943 481.156C629.783 480.604 630.203 479.836 630.203 478.852C630.203 478.156 629.975 477.616 629.519 477.232C629.063 476.824 628.487 476.524 627.791 476.332C627.095 476.116 626.171 475.912 625.019 475.72C623.483 475.432 622.247 475.144 621.311 474.856C620.375 474.544 619.571 474.028 618.899 473.308C618.251 472.588 617.927 471.592 617.927 470.32C617.927 468.736 618.587 467.44 619.907 466.432C621.227 465.424 623.063 464.92 625.415 464.92C626.639 464.92 627.863 465.088 629.087 465.424C630.311 465.736 631.319 466.156 632.111 466.684L630.995 468.736C629.435 467.656 627.575 467.116 625.415 467.116C623.783 467.116 622.547 467.404 621.707 467.98C620.891 468.556 620.483 469.312 620.483 470.248C620.483 470.968 620.711 471.544 621.167 471.976C621.647 472.408 622.235 472.732 622.931 472.948C623.627 473.14 624.587 473.344 625.811 473.56C627.323 473.848 628.535 474.136 629.447 474.424C630.359 474.712 631.139 475.204 631.787 475.9C632.435 476.596 632.759 477.556 632.759 478.78C632.759 480.436 632.063 481.756 630.671 482.74C629.303 483.7 627.395 484.18 624.947 484.18ZM654.332 475.324H638.492C638.636 477.292 639.392 478.888 640.76 480.112C642.128 481.312 643.856 481.912 645.944 481.912C647.12 481.912 648.2 481.708 649.184 481.3C650.168 480.868 651.02 480.244 651.74 479.428L653.18 481.084C652.34 482.092 651.284 482.86 650.012 483.388C648.764 483.916 647.384 484.18 645.872 484.18C643.928 484.18 642.2 483.772 640.688 482.956C639.2 482.116 638.036 480.964 637.196 479.5C636.356 478.036 635.936 476.38 635.936 474.532C635.936 472.684 636.332 471.028 637.124 469.564C637.94 468.1 639.044 466.96 640.436 466.144C641.852 465.328 643.436 464.92 645.188 464.92C646.94 464.92 648.512 465.328 649.904 466.144C651.296 466.96 652.388 468.1 653.18 469.564C653.972 471.004 654.368 472.66 654.368 474.532L654.332 475.324ZM645.188 467.116C643.364 467.116 641.828 467.704 640.58 468.88C639.356 470.032 638.66 471.544 638.492 473.416H651.92C651.752 471.544 651.044 470.032 649.796 468.88C648.572 467.704 647.036 467.116 645.188 467.116ZM660.183 484.18C659.655 484.18 659.199 483.988 658.815 483.604C658.455 483.22 658.275 482.752 658.275 482.2C658.275 481.648 658.455 481.192 658.815 480.832C659.199 480.448 659.655 480.256 660.183 480.256C660.711 480.256 661.167 480.448 661.551 480.832C661.935 481.192 662.127 481.648 662.127 482.2C662.127 482.752 661.935 483.22 661.551 483.604C661.167 483.988 660.711 484.18 660.183 484.18Z" fill="#448CF7"/>
<path d="M1481.1 624.8H1483.77V650H1481.1V624.8ZM1501.44 630.92C1503.81 630.92 1505.7 631.616 1507.09 633.008C1508.5 634.376 1509.21 636.38 1509.21 639.02V650H1506.66V639.272C1506.66 637.304 1506.16 635.804 1505.18 634.772C1504.2 633.74 1502.79 633.224 1500.97 633.224C1498.93 633.224 1497.31 633.836 1496.11 635.06C1494.93 636.26 1494.34 637.928 1494.34 640.064V650H1491.79V631.064H1494.24V634.556C1494.93 633.404 1495.89 632.516 1497.12 631.892C1498.36 631.244 1499.8 630.92 1501.44 630.92ZM1536.26 648.848C1535.78 649.28 1535.18 649.616 1534.46 649.856C1533.77 650.072 1533.04 650.18 1532.27 650.18C1530.49 650.18 1529.12 649.7 1528.16 648.74C1527.2 647.78 1526.72 646.424 1526.72 644.672V633.224H1523.34V631.064H1526.72V626.924H1529.28V631.064H1535.04V633.224H1529.28V644.528C1529.28 645.656 1529.56 646.52 1530.11 647.12C1530.68 647.696 1531.5 647.984 1532.56 647.984C1533.08 647.984 1533.59 647.9 1534.07 647.732C1534.57 647.564 1535 647.324 1535.36 647.012L1536.26 648.848ZM1550.93 630.92C1553.3 630.92 1555.19 631.616 1556.58 633.008C1557.99 634.376 1558.7 636.38 1558.7 639.02V650H1556.15V639.272C1556.15 637.304 1555.65 635.804 1554.67 634.772C1553.69 633.74 1552.28 633.224 1550.46 633.224C1548.42 633.224 1546.8 633.836 1545.6 635.06C1544.42 636.26 1543.83 637.928 1543.83 640.064V650H1541.28V623.288H1543.83V634.376C1544.53 633.272 1545.49 632.42 1546.71 631.82C1547.94 631.22 1549.34 630.92 1550.93 630.92ZM1566 631.064H1568.56V650H1566V631.064ZM1567.3 626.924C1566.77 626.924 1566.32 626.744 1565.96 626.384C1565.6 626.024 1565.42 625.592 1565.42 625.088C1565.42 624.608 1565.6 624.188 1565.96 623.828C1566.32 623.468 1566.77 623.288 1567.3 623.288C1567.82 623.288 1568.27 623.468 1568.63 623.828C1568.99 624.164 1569.17 624.572 1569.17 625.052C1569.17 625.58 1568.99 626.024 1568.63 626.384C1568.27 626.744 1567.82 626.924 1567.3 626.924ZM1581.1 650.18C1579.57 650.18 1578.09 649.964 1576.68 649.532C1575.28 649.076 1574.19 648.512 1573.4 647.84L1574.55 645.824C1575.34 646.448 1576.34 646.964 1577.54 647.372C1578.74 647.756 1579.99 647.948 1581.28 647.948C1583.01 647.948 1584.28 647.684 1585.1 647.156C1585.94 646.604 1586.36 645.836 1586.36 644.852C1586.36 644.156 1586.13 643.616 1585.68 643.232C1585.22 642.824 1584.64 642.524 1583.95 642.332C1583.25 642.116 1582.33 641.912 1581.18 641.72C1579.64 641.432 1578.4 641.144 1577.47 640.856C1576.53 640.544 1575.73 640.028 1575.06 639.308C1574.41 638.588 1574.08 637.592 1574.08 636.32C1574.08 634.736 1574.74 633.44 1576.06 632.432C1577.38 631.424 1579.22 630.92 1581.57 630.92C1582.8 630.92 1584.02 631.088 1585.24 631.424C1586.47 631.736 1587.48 632.156 1588.27 632.684L1587.15 634.736C1585.59 633.656 1583.73 633.116 1581.57 633.116C1579.94 633.116 1578.7 633.404 1577.86 633.98C1577.05 634.556 1576.64 635.312 1576.64 636.248C1576.64 636.968 1576.87 637.544 1577.32 637.976C1577.8 638.408 1578.39 638.732 1579.09 638.948C1579.78 639.14 1580.74 639.344 1581.97 639.56C1583.48 639.848 1584.69 640.136 1585.6 640.424C1586.52 640.712 1587.3 641.204 1587.94 641.9C1588.59 642.596 1588.92 643.556 1588.92 644.78C1588.92 646.436 1588.22 647.756 1586.83 648.74C1585.46 649.7 1583.55 650.18 1581.1 650.18ZM1611.63 650.18C1609.76 650.18 1608.08 649.772 1606.59 648.956C1605.13 648.14 1603.98 647 1603.14 645.536C1602.3 644.048 1601.88 642.38 1601.88 640.532C1601.88 638.684 1602.3 637.028 1603.14 635.564C1603.98 634.1 1605.13 632.96 1606.59 632.144C1608.08 631.328 1609.76 630.92 1611.63 630.92C1613.26 630.92 1614.72 631.244 1615.99 631.892C1617.28 632.516 1618.3 633.44 1619.05 634.664L1617.14 635.96C1616.52 635.024 1615.72 634.328 1614.76 633.872C1613.8 633.392 1612.76 633.152 1611.63 633.152C1610.26 633.152 1609.03 633.464 1607.92 634.088C1606.84 634.688 1605.99 635.552 1605.37 636.68C1604.77 637.808 1604.47 639.092 1604.47 640.532C1604.47 641.996 1604.77 643.292 1605.37 644.42C1605.99 645.524 1606.84 646.388 1607.92 647.012C1609.03 647.612 1610.26 647.912 1611.63 647.912C1612.76 647.912 1613.8 647.684 1614.76 647.228C1615.72 646.772 1616.52 646.076 1617.14 645.14L1619.05 646.436C1618.3 647.66 1617.28 648.596 1615.99 649.244C1614.69 649.868 1613.24 650.18 1611.63 650.18ZM1631.05 630.92C1633.53 630.92 1635.42 631.544 1636.74 632.792C1638.06 634.016 1638.72 635.84 1638.72 638.264V650H1636.27V647.048C1635.7 648.032 1634.85 648.8 1633.72 649.352C1632.61 649.904 1631.29 650.18 1629.76 650.18C1627.65 650.18 1625.97 649.676 1624.72 648.668C1623.47 647.66 1622.85 646.328 1622.85 644.672C1622.85 643.064 1623.42 641.768 1624.57 640.784C1625.75 639.8 1627.61 639.308 1630.15 639.308H1636.17V638.156C1636.17 636.524 1635.71 635.288 1634.8 634.448C1633.89 633.584 1632.55 633.152 1630.8 633.152C1629.6 633.152 1628.45 633.356 1627.35 633.764C1626.24 634.148 1625.29 634.688 1624.5 635.384L1623.35 633.476C1624.31 632.66 1625.46 632.036 1626.81 631.604C1628.15 631.148 1629.57 630.92 1631.05 630.92ZM1630.15 648.164C1631.59 648.164 1632.83 647.84 1633.86 647.192C1634.89 646.52 1635.66 645.56 1636.17 644.312V641.216H1630.23C1626.99 641.216 1625.37 642.344 1625.37 644.6C1625.37 645.704 1625.79 646.58 1626.63 647.228C1627.47 647.852 1628.64 648.164 1630.15 648.164ZM1651.1 650.18C1649.56 650.18 1648.09 649.964 1646.67 649.532C1645.28 649.076 1644.19 648.512 1643.4 647.84L1644.55 645.824C1645.34 646.448 1646.34 646.964 1647.54 647.372C1648.74 647.756 1649.98 647.948 1651.28 647.948C1653.01 647.948 1654.28 647.684 1655.1 647.156C1655.94 646.604 1656.36 645.836 1656.36 644.852C1656.36 644.156 1656.13 643.616 1655.67 643.232C1655.22 642.824 1654.64 642.524 1653.94 642.332C1653.25 642.116 1652.32 641.912 1651.17 641.72C1649.64 641.432 1648.4 641.144 1647.46 640.856C1646.53 640.544 1645.72 640.028 1645.05 639.308C1644.4 638.588 1644.08 637.592 1644.08 636.32C1644.08 634.736 1644.74 633.44 1646.06 632.432C1647.38 631.424 1649.22 630.92 1651.57 630.92C1652.79 630.92 1654.02 631.088 1655.24 631.424C1656.46 631.736 1657.47 632.156 1658.26 632.684L1657.15 634.736C1655.59 633.656 1653.73 633.116 1651.57 633.116C1649.94 633.116 1648.7 633.404 1647.86 633.98C1647.04 634.556 1646.64 635.312 1646.64 636.248C1646.64 636.968 1646.86 637.544 1647.32 637.976C1647.8 638.408 1648.39 638.732 1649.08 638.948C1649.78 639.14 1650.74 639.344 1651.96 639.56C1653.48 639.848 1654.69 640.136 1655.6 640.424C1656.51 640.712 1657.29 641.204 1657.94 641.9C1658.59 642.596 1658.91 643.556 1658.91 644.78C1658.91 646.436 1658.22 647.756 1656.82 648.74C1655.46 649.7 1653.55 650.18 1651.1 650.18ZM1680.48 641.324H1664.64C1664.79 643.292 1665.54 644.888 1666.91 646.112C1668.28 647.312 1670.01 647.912 1672.1 647.912C1673.27 647.912 1674.35 647.708 1675.34 647.3C1676.32 646.868 1677.17 646.244 1677.89 645.428L1679.33 647.084C1678.49 648.092 1677.44 648.86 1676.16 649.388C1674.92 649.916 1673.54 650.18 1672.02 650.18C1670.08 650.18 1668.35 649.772 1666.84 648.956C1665.35 648.116 1664.19 646.964 1663.35 645.5C1662.51 644.036 1662.09 642.38 1662.09 640.532C1662.09 638.684 1662.48 637.028 1663.28 635.564C1664.09 634.1 1665.2 632.96 1666.59 632.144C1668 631.328 1669.59 630.92 1671.34 630.92C1673.09 630.92 1674.66 631.328 1676.06 632.144C1677.45 632.96 1678.54 634.1 1679.33 635.564C1680.12 637.004 1680.52 638.66 1680.52 640.532L1680.48 641.324ZM1671.34 633.116C1669.52 633.116 1667.98 633.704 1666.73 634.88C1665.51 636.032 1664.81 637.544 1664.64 639.416H1678.07C1677.9 637.544 1677.2 636.032 1675.95 634.88C1674.72 633.704 1673.19 633.116 1671.34 633.116ZM1686.37 646.256C1686.92 646.256 1687.38 646.448 1687.74 646.832C1688.1 647.192 1688.28 647.648 1688.28 648.2C1688.28 648.488 1688.23 648.8 1688.14 649.136C1688.06 649.472 1687.94 649.856 1687.78 650.288L1686.26 655.256H1684.54L1685.76 650.036C1685.38 649.916 1685.06 649.7 1684.82 649.388C1684.58 649.052 1684.46 648.656 1684.46 648.2C1684.46 647.648 1684.64 647.192 1685 646.832C1685.36 646.448 1685.82 646.256 1686.37 646.256ZM1719.77 631.064L1710.3 652.268C1709.53 654.044 1708.64 655.304 1707.63 656.048C1706.63 656.792 1705.41 657.164 1704 657.164C1703.09 657.164 1702.23 657.02 1701.44 656.732C1700.65 656.444 1699.97 656.012 1699.39 655.436L1700.58 653.528C1701.54 654.488 1702.69 654.968 1704.03 654.968C1704.9 654.968 1705.63 654.728 1706.23 654.248C1706.85 653.768 1707.43 652.952 1707.96 651.8L1708.79 649.964L1700.33 631.064H1702.99L1710.12 647.156L1717.25 631.064H1719.77ZM1730.94 650.18C1729.11 650.18 1727.47 649.772 1726.01 648.956C1724.54 648.116 1723.39 646.964 1722.55 645.5C1721.71 644.036 1721.29 642.38 1721.29 640.532C1721.29 638.684 1721.71 637.028 1722.55 635.564C1723.39 634.1 1724.54 632.96 1726.01 632.144C1727.47 631.328 1729.11 630.92 1730.94 630.92C1732.76 630.92 1734.41 631.328 1735.87 632.144C1737.33 632.96 1738.47 634.1 1739.29 635.564C1740.13 637.028 1740.55 638.684 1740.55 640.532C1740.55 642.38 1740.13 644.036 1739.29 645.5C1738.47 646.964 1737.33 648.116 1735.87 648.956C1734.41 649.772 1732.76 650.18 1730.94 650.18ZM1730.94 647.912C1732.28 647.912 1733.48 647.612 1734.54 647.012C1735.62 646.388 1736.46 645.512 1737.06 644.384C1737.66 643.256 1737.96 641.972 1737.96 640.532C1737.96 639.092 1737.66 637.808 1737.06 636.68C1736.46 635.552 1735.62 634.688 1734.54 634.088C1733.48 633.464 1732.28 633.152 1730.94 633.152C1729.59 633.152 1728.38 633.464 1727.3 634.088C1726.25 634.688 1725.41 635.552 1724.78 636.68C1724.18 637.808 1723.88 639.092 1723.88 640.532C1723.88 641.972 1724.18 643.256 1724.78 644.384C1725.41 645.512 1726.25 646.388 1727.3 647.012C1728.38 647.612 1729.59 647.912 1730.94 647.912ZM1763.19 631.064V650H1760.74V646.544C1760.07 647.696 1759.15 648.596 1757.97 649.244C1756.8 649.868 1755.45 650.18 1753.94 650.18C1751.47 650.18 1749.51 649.496 1748.07 648.128C1746.66 646.736 1745.95 644.708 1745.95 642.044V631.064H1748.5V641.792C1748.5 643.784 1749 645.296 1749.98 646.328C1750.96 647.36 1752.37 647.876 1754.19 647.876C1756.18 647.876 1757.76 647.276 1758.91 646.076C1760.06 644.852 1760.64 643.16 1760.64 641V631.064H1763.19ZM1504.18 690.92C1506.56 690.92 1508.42 691.604 1509.76 692.972C1511.13 694.34 1511.81 696.356 1511.81 699.02V710H1509.26V699.272C1509.26 697.304 1508.78 695.804 1507.82 694.772C1506.88 693.74 1505.55 693.224 1503.82 693.224C1501.85 693.224 1500.3 693.836 1499.18 695.06C1498.05 696.26 1497.48 697.928 1497.48 700.064V710H1494.93V699.272C1494.93 697.304 1494.45 695.804 1493.49 694.772C1492.55 693.74 1491.21 693.224 1489.46 693.224C1487.51 693.224 1485.96 693.836 1484.81 695.06C1483.68 696.26 1483.12 697.928 1483.12 700.064V710H1480.56V691.064H1483.01V694.52C1483.68 693.368 1484.62 692.48 1485.82 691.856C1487.02 691.232 1488.4 690.92 1489.96 690.92C1491.54 690.92 1492.91 691.256 1494.06 691.928C1495.24 692.6 1496.12 693.596 1496.69 694.916C1497.39 693.668 1498.38 692.696 1499.68 692C1501 691.28 1502.5 690.92 1504.18 690.92ZM1519.1 691.064H1521.66V710H1519.1V691.064ZM1520.4 686.924C1519.87 686.924 1519.43 686.744 1519.07 686.384C1518.71 686.024 1518.53 685.592 1518.53 685.088C1518.53 684.608 1518.71 684.188 1519.07 683.828C1519.43 683.468 1519.87 683.288 1520.4 683.288C1520.93 683.288 1521.37 683.468 1521.73 683.828C1522.09 684.164 1522.27 684.572 1522.27 685.052C1522.27 685.58 1522.09 686.024 1521.73 686.384C1521.37 686.744 1520.93 686.924 1520.4 686.924ZM1546.66 691.064V707.696C1546.66 710.912 1545.87 713.288 1544.29 714.824C1542.73 716.384 1540.36 717.164 1537.2 717.164C1535.44 717.164 1533.78 716.9 1532.19 716.372C1530.63 715.868 1529.36 715.16 1528.38 714.248L1529.67 712.304C1530.58 713.12 1531.69 713.756 1532.98 714.212C1534.3 714.668 1535.68 714.896 1537.12 714.896C1539.52 714.896 1541.29 714.332 1542.42 713.204C1543.54 712.1 1544.11 710.372 1544.11 708.02V705.608C1543.32 706.808 1542.27 707.72 1540.98 708.344C1539.7 708.968 1538.29 709.28 1536.73 709.28C1534.95 709.28 1533.33 708.896 1531.87 708.128C1530.43 707.336 1529.29 706.244 1528.45 704.852C1527.63 703.436 1527.22 701.84 1527.22 700.064C1527.22 698.288 1527.63 696.704 1528.45 695.312C1529.29 693.92 1530.43 692.84 1531.87 692.072C1533.31 691.304 1534.93 690.92 1536.73 690.92C1538.34 690.92 1539.79 691.244 1541.08 691.892C1542.38 692.54 1543.42 693.476 1544.22 694.7V691.064H1546.66ZM1536.98 707.012C1538.35 707.012 1539.58 706.724 1540.69 706.148C1541.79 705.548 1542.64 704.72 1543.24 703.664C1543.87 702.608 1544.18 701.408 1544.18 700.064C1544.18 698.72 1543.87 697.532 1543.24 696.5C1542.64 695.444 1541.79 694.628 1540.69 694.052C1539.61 693.452 1538.37 693.152 1536.98 693.152C1535.61 693.152 1534.38 693.44 1533.27 694.016C1532.19 694.592 1531.34 695.408 1530.72 696.464C1530.12 697.52 1529.82 698.72 1529.82 700.064C1529.82 701.408 1530.12 702.608 1530.72 703.664C1531.34 704.72 1532.19 705.548 1533.27 706.148C1534.38 706.724 1535.61 707.012 1536.98 707.012ZM1563.82 690.92C1566.2 690.92 1568.08 691.616 1569.47 693.008C1570.89 694.376 1571.6 696.38 1571.6 699.02V710H1569.04V699.272C1569.04 697.304 1568.55 695.804 1567.56 694.772C1566.58 693.74 1565.18 693.224 1563.35 693.224C1561.31 693.224 1559.69 693.836 1558.49 695.06C1557.32 696.26 1556.73 697.928 1556.73 700.064V710H1554.17V683.288H1556.73V694.376C1557.42 693.272 1558.38 692.42 1559.61 691.82C1560.83 691.22 1562.24 690.92 1563.82 690.92ZM1588.87 708.848C1588.39 709.28 1587.79 709.616 1587.07 709.856C1586.37 710.072 1585.64 710.18 1584.87 710.18C1583.09 710.18 1581.73 709.7 1580.77 708.74C1579.81 707.78 1579.33 706.424 1579.33 704.672V693.224H1575.94V691.064H1579.33V686.924H1581.88V691.064H1587.64V693.224H1581.88V704.528C1581.88 705.656 1582.16 706.52 1582.71 707.12C1583.29 707.696 1584.1 707.984 1585.16 707.984C1585.69 707.984 1586.19 707.9 1586.67 707.732C1587.17 707.564 1587.61 707.324 1587.97 707.012L1588.87 708.848ZM1631.45 691.064L1624.29 710H1621.88L1615.9 694.484L1609.93 710H1607.51L1600.39 691.064H1602.83L1608.77 707.156L1614.86 691.064H1617.05L1623.1 707.156L1629.11 691.064H1631.45ZM1641.72 690.92C1644.2 690.92 1646.09 691.544 1647.41 692.792C1648.73 694.016 1649.39 695.84 1649.39 698.264V710H1646.94V707.048C1646.37 708.032 1645.52 708.8 1644.39 709.352C1643.28 709.904 1641.96 710.18 1640.43 710.18C1638.32 710.18 1636.64 709.676 1635.39 708.668C1634.14 707.66 1633.52 706.328 1633.52 704.672C1633.52 703.064 1634.09 701.768 1635.24 700.784C1636.42 699.8 1638.28 699.308 1640.82 699.308H1646.84V698.156C1646.84 696.524 1646.38 695.288 1645.47 694.448C1644.56 693.584 1643.22 693.152 1641.47 693.152C1640.27 693.152 1639.12 693.356 1638.02 693.764C1636.91 694.148 1635.96 694.688 1635.17 695.384L1634.02 693.476C1634.98 692.66 1636.13 692.036 1637.48 691.604C1638.82 691.148 1640.24 690.92 1641.72 690.92ZM1640.82 708.164C1642.26 708.164 1643.5 707.84 1644.53 707.192C1645.56 706.52 1646.33 705.56 1646.84 704.312V701.216H1640.9C1637.66 701.216 1636.04 702.344 1636.04 704.6C1636.04 705.704 1636.46 706.58 1637.3 707.228C1638.14 707.852 1639.31 708.164 1640.82 708.164ZM1656.69 691.064H1659.25V710H1656.69V691.064ZM1657.99 686.924C1657.46 686.924 1657.02 686.744 1656.66 686.384C1656.3 686.024 1656.12 685.592 1656.12 685.088C1656.12 684.608 1656.3 684.188 1656.66 683.828C1657.02 683.468 1657.46 683.288 1657.99 683.288C1658.52 683.288 1658.96 683.468 1659.32 683.828C1659.68 684.164 1659.86 684.572 1659.86 685.052C1659.86 685.58 1659.68 686.024 1659.32 686.384C1658.96 686.744 1658.52 686.924 1657.99 686.924ZM1676.69 708.848C1676.21 709.28 1675.61 709.616 1674.89 709.856C1674.2 710.072 1673.47 710.18 1672.7 710.18C1670.92 710.18 1669.55 709.7 1668.59 708.74C1667.63 707.78 1667.15 706.424 1667.15 704.672V693.224H1663.77V691.064H1667.15V686.924H1669.71V691.064H1675.47V693.224H1669.71V704.528C1669.71 705.656 1669.99 706.52 1670.54 707.12C1671.11 707.696 1671.93 707.984 1672.99 707.984C1673.51 707.984 1674.02 707.9 1674.5 707.732C1675 707.564 1675.43 707.324 1675.79 707.012L1676.69 708.848ZM1698.11 690.92C1700.58 690.92 1702.48 691.544 1703.8 692.792C1705.12 694.016 1705.78 695.84 1705.78 698.264V710H1703.33V707.048C1702.76 708.032 1701.9 708.8 1700.78 709.352C1699.67 709.904 1698.35 710.18 1696.82 710.18C1694.7 710.18 1693.02 709.676 1691.78 708.668C1690.53 707.66 1689.9 706.328 1689.9 704.672C1689.9 703.064 1690.48 701.768 1691.63 700.784C1692.81 699.8 1694.67 699.308 1697.21 699.308H1703.22V698.156C1703.22 696.524 1702.77 695.288 1701.86 694.448C1700.94 693.584 1699.61 693.152 1697.86 693.152C1696.66 693.152 1695.51 693.356 1694.4 693.764C1693.3 694.148 1692.35 694.688 1691.56 695.384L1690.41 693.476C1691.37 692.66 1692.52 692.036 1693.86 691.604C1695.21 691.148 1696.62 690.92 1698.11 690.92ZM1697.21 708.164C1698.65 708.164 1699.89 707.84 1700.92 707.192C1701.95 706.52 1702.72 705.56 1703.22 704.312V701.216H1697.28C1694.04 701.216 1692.42 702.344 1692.42 704.6C1692.42 705.704 1692.84 706.58 1693.68 707.228C1694.52 707.852 1695.7 708.164 1697.21 708.164ZM1732.62 690.92C1734.4 690.92 1736.01 691.328 1737.45 692.144C1738.89 692.936 1740.01 694.064 1740.83 695.528C1741.65 696.992 1742.05 698.66 1742.05 700.532C1742.05 702.404 1741.65 704.072 1740.83 705.536C1740.01 707 1738.89 708.14 1737.45 708.956C1736.01 709.772 1734.4 710.18 1732.62 710.18C1731.04 710.18 1729.61 709.844 1728.34 709.172C1727.09 708.5 1726.08 707.528 1725.31 706.256V710H1722.87V683.288H1725.42V694.664C1726.21 693.44 1727.22 692.516 1728.45 691.892C1729.69 691.244 1731.09 690.92 1732.62 690.92ZM1732.44 707.912C1733.76 707.912 1734.96 707.612 1736.04 707.012C1737.12 706.388 1737.96 705.512 1738.56 704.384C1739.19 703.256 1739.5 701.972 1739.5 700.532C1739.5 699.092 1739.19 697.808 1738.56 696.68C1737.96 695.552 1737.12 694.688 1736.04 694.088C1734.96 693.464 1733.76 693.152 1732.44 693.152C1731.1 693.152 1729.89 693.464 1728.81 694.088C1727.75 694.688 1726.91 695.552 1726.29 696.68C1725.69 697.808 1725.39 699.092 1725.39 700.532C1725.39 701.972 1725.69 703.256 1726.29 704.384C1726.91 705.512 1727.75 706.388 1728.81 707.012C1729.89 707.612 1731.1 707.912 1732.44 707.912ZM1747.62 691.064H1750.18V710H1747.62V691.064ZM1748.92 686.924C1748.39 686.924 1747.95 686.744 1747.59 686.384C1747.23 686.024 1747.05 685.592 1747.05 685.088C1747.05 684.608 1747.23 684.188 1747.59 683.828C1747.95 683.468 1748.39 683.288 1748.92 683.288C1749.45 683.288 1749.89 683.468 1750.25 683.828C1750.61 684.164 1750.79 684.572 1750.79 685.052C1750.79 685.58 1750.61 686.024 1750.25 686.384C1749.89 686.744 1749.45 686.924 1748.92 686.924ZM1767.62 708.848C1767.14 709.28 1766.54 709.616 1765.82 709.856C1765.13 710.072 1764.4 710.18 1763.63 710.18C1761.85 710.18 1760.48 709.7 1759.52 708.74C1758.56 707.78 1758.08 706.424 1758.08 704.672V693.224H1754.7V691.064H1758.08V686.924H1760.64V691.064H1766.4V693.224H1760.64V704.528C1760.64 705.656 1760.92 706.52 1761.47 707.12C1762.04 707.696 1762.86 707.984 1763.92 707.984C1764.44 707.984 1764.95 707.9 1765.43 707.732C1765.93 707.564 1766.36 707.324 1766.72 707.012L1767.62 708.848ZM1480.56 743.288H1483.12V770H1480.56V743.288ZM1498.33 770.18C1496.51 770.18 1494.86 769.772 1493.4 768.956C1491.94 768.116 1490.78 766.964 1489.94 765.5C1489.1 764.036 1488.68 762.38 1488.68 760.532C1488.68 758.684 1489.1 757.028 1489.94 755.564C1490.78 754.1 1491.94 752.96 1493.4 752.144C1494.86 751.328 1496.51 750.92 1498.33 750.92C1500.16 750.92 1501.8 751.328 1503.26 752.144C1504.73 752.96 1505.87 754.1 1506.68 755.564C1507.52 757.028 1507.94 758.684 1507.94 760.532C1507.94 762.38 1507.52 764.036 1506.68 765.5C1505.87 766.964 1504.73 768.116 1503.26 768.956C1501.8 769.772 1500.16 770.18 1498.33 770.18ZM1498.33 767.912C1499.68 767.912 1500.88 767.612 1501.93 767.012C1503.01 766.388 1503.85 765.512 1504.45 764.384C1505.05 763.256 1505.35 761.972 1505.35 760.532C1505.35 759.092 1505.05 757.808 1504.45 756.68C1503.85 755.552 1503.01 754.688 1501.93 754.088C1500.88 753.464 1499.68 753.152 1498.33 753.152C1496.99 753.152 1495.78 753.464 1494.7 754.088C1493.64 754.688 1492.8 755.552 1492.18 756.68C1491.58 757.808 1491.28 759.092 1491.28 760.532C1491.28 761.972 1491.58 763.256 1492.18 764.384C1492.8 765.512 1493.64 766.388 1494.7 767.012C1495.78 767.612 1496.99 767.912 1498.33 767.912ZM1523.17 750.92C1525.55 750.92 1527.43 751.616 1528.82 753.008C1530.24 754.376 1530.95 756.38 1530.95 759.02V770H1528.39V759.272C1528.39 757.304 1527.9 755.804 1526.91 754.772C1525.93 753.74 1524.53 753.224 1522.7 753.224C1520.66 753.224 1519.04 753.836 1517.84 755.06C1516.67 756.26 1516.08 757.928 1516.08 760.064V770H1513.52V751.064H1515.97V754.556C1516.67 753.404 1517.63 752.516 1518.85 751.892C1520.1 751.244 1521.54 750.92 1523.17 750.92ZM1555.85 751.064V767.696C1555.85 770.912 1555.06 773.288 1553.47 774.824C1551.91 776.384 1549.55 777.164 1546.38 777.164C1544.63 777.164 1542.96 776.9 1541.38 776.372C1539.82 775.868 1538.54 775.16 1537.56 774.248L1538.86 772.304C1539.77 773.12 1540.87 773.756 1542.17 774.212C1543.49 774.668 1544.87 774.896 1546.31 774.896C1548.71 774.896 1550.47 774.332 1551.6 773.204C1552.73 772.1 1553.29 770.372 1553.29 768.02V765.608C1552.5 766.808 1551.46 767.72 1550.16 768.344C1548.89 768.968 1547.47 769.28 1545.91 769.28C1544.14 769.28 1542.52 768.896 1541.05 768.128C1539.61 767.336 1538.47 766.244 1537.63 764.852C1536.82 763.436 1536.41 761.84 1536.41 760.064C1536.41 758.288 1536.82 756.704 1537.63 755.312C1538.47 753.92 1539.61 752.84 1541.05 752.072C1542.49 751.304 1544.11 750.92 1545.91 750.92C1547.52 750.92 1548.97 751.244 1550.27 751.892C1551.56 752.54 1552.61 753.476 1553.4 754.7V751.064H1555.85ZM1546.16 767.012C1547.53 767.012 1548.77 766.724 1549.87 766.148C1550.98 765.548 1551.83 764.72 1552.43 763.664C1553.05 762.608 1553.36 761.408 1553.36 760.064C1553.36 758.72 1553.05 757.532 1552.43 756.5C1551.83 755.444 1550.98 754.628 1549.87 754.052C1548.79 753.452 1547.56 753.152 1546.16 753.152C1544.8 753.152 1543.56 753.44 1542.46 754.016C1541.38 754.592 1540.52 755.408 1539.9 756.464C1539.3 757.52 1539 758.72 1539 760.064C1539 761.408 1539.3 762.608 1539.9 763.664C1540.52 764.72 1541.38 765.548 1542.46 766.148C1543.56 766.724 1544.8 767.012 1546.16 767.012ZM1579.84 761.324H1564C1564.15 763.292 1564.9 764.888 1566.27 766.112C1567.64 767.312 1569.37 767.912 1571.46 767.912C1572.63 767.912 1573.71 767.708 1574.7 767.3C1575.68 766.868 1576.53 766.244 1577.25 765.428L1578.69 767.084C1577.85 768.092 1576.8 768.86 1575.52 769.388C1574.28 769.916 1572.9 770.18 1571.38 770.18C1569.44 770.18 1567.71 769.772 1566.2 768.956C1564.71 768.116 1563.55 766.964 1562.71 765.5C1561.87 764.036 1561.45 762.38 1561.45 760.532C1561.45 758.684 1561.84 757.028 1562.64 755.564C1563.45 754.1 1564.56 752.96 1565.95 752.144C1567.36 751.328 1568.95 750.92 1570.7 750.92C1572.45 750.92 1574.02 751.328 1575.42 752.144C1576.81 752.96 1577.9 754.1 1578.69 755.564C1579.48 757.004 1579.88 758.66 1579.88 760.532L1579.84 761.324ZM1570.7 753.116C1568.88 753.116 1567.34 753.704 1566.09 754.88C1564.87 756.032 1564.17 757.544 1564 759.416H1577.43C1577.26 757.544 1576.56 756.032 1575.31 754.88C1574.08 753.704 1572.55 753.116 1570.7 753.116ZM1587.89 754.772C1588.49 753.5 1589.38 752.54 1590.55 751.892C1591.75 751.244 1593.23 750.92 1594.98 750.92V753.404L1594.37 753.368C1592.38 753.368 1590.82 753.98 1589.69 755.204C1588.56 756.428 1588 758.144 1588 760.352V770H1585.44V751.064H1587.89V754.772ZM1600.15 770.18C1599.62 770.18 1599.17 769.988 1598.78 769.604C1598.42 769.22 1598.24 768.752 1598.24 768.2C1598.24 767.648 1598.42 767.192 1598.78 766.832C1599.17 766.448 1599.62 766.256 1600.15 766.256C1600.68 766.256 1601.14 766.448 1601.52 766.832C1601.9 767.192 1602.1 767.648 1602.1 768.2C1602.1 768.752 1601.9 769.22 1601.52 769.604C1601.14 769.988 1600.68 770.18 1600.15 770.18Z" fill="#448CF7"/>
</svg>
