<svg width="100" height="100" viewBox="0 0 100 100" fill="none" xmlns="http://www.w3.org/2000/svg">
<path d="M29.0933 53.0027L25.2107 48.2987C29.1929 45.8596 32.6276 43.4951 35.5147 41.2053C38.4516 38.9156 41.0649 36.5511 43.3547 34.112C45.6444 31.6729 47.7849 29.0596 49.776 26.272H50.224C52.2649 29.0596 54.4053 31.6729 56.6453 34.112C58.9351 36.5511 61.5484 38.9156 64.4853 41.2053C67.4222 43.4951 70.8569 45.8596 74.7893 48.2987L70.9067 53.0027C67.7707 50.9618 64.9333 48.9209 62.3947 46.88C59.9058 44.7893 57.7156 42.7236 55.824 40.6827C53.9324 38.6418 52.3893 36.6507 51.1947 34.7093C50 32.768 49.1787 30.9013 48.7307 29.1093H51.2693C50.8213 30.9013 50 32.768 48.8053 34.7093C47.6107 36.6507 46.0676 38.6418 44.176 40.6827C42.2844 42.7236 40.0693 44.7893 37.5307 46.88C35.0418 48.9209 32.2293 50.9618 29.0933 53.0027ZM47.0133 76V49.4933C47.0133 46.3573 47.088 43.6196 47.2373 41.28C47.3867 38.8907 47.5609 36.7751 47.76 34.9333L50 30.4533L52.24 34.9333C52.4391 36.7751 52.6133 38.8907 52.7627 41.28C52.912 43.6196 52.9867 46.3573 52.9867 49.4933V76H47.0133Z" fill="#303030"/>
</svg>
