<svg width="102" height="102" viewBox="0 0 102 102" fill="none" xmlns="http://www.w3.org/2000/svg">
<path d="M1 1H26H51H76H101V26V51V76V101H76H51H26H1V76V51V26V1Z" fill="white"/>
<path d="M1 1V26V51M1 1H26H51H76M1 1H76M101 51V26V1H76M101 51V76V101H76M101 51H76M1 51V76V101H26H51H76M1 51L38.5 26M1 51L38.5 76M1 51H76M76 1L38.5 26M76 51L38.5 26M76 51L38.5 76M76 101L38.5 76" stroke="url(#paint0_linear_1827_1163)" stroke-width="2"/>
<defs>
<linearGradient id="paint0_linear_1827_1163" x1="101" y1="51" x2="0.999999" y2="51" gradientUnits="userSpaceOnUse">
<stop stop-color="#00D1FF"/>
<stop offset="1" stop-color="#3300FF"/>
</linearGradient>
</defs>
</svg>
