<svg width="496" height="128" viewBox="0 0 496 128" fill="none" xmlns="http://www.w3.org/2000/svg">
<rect x="0.5" y="0.5" width="495" height="127" stroke="#303030"/>
<path d="M162.544 51H161.272L159.28 46.032H151.72L149.728 51H148.456L154.792 35.16H156.208L162.544 51ZM152.152 44.928H158.848L155.488 36.336L152.152 44.928ZM169.773 38.76C170.589 38.76 171.317 38.888 171.957 39.144C172.597 39.4 173.141 39.768 173.589 40.248C174.037 40.728 174.381 41.312 174.621 42L173.493 42.528C173.237 41.664 172.789 41 172.149 40.536C171.525 40.056 170.725 39.816 169.749 39.816C168.869 39.816 168.093 40.024 167.421 40.44C166.749 40.84 166.229 41.432 165.861 42.216C165.493 42.984 165.309 43.912 165.309 45C165.309 46.072 165.493 47 165.861 47.784C166.229 48.568 166.741 49.168 167.397 49.584C168.053 49.984 168.829 50.184 169.725 50.184C170.397 50.184 171.005 50.072 171.549 49.848C172.109 49.624 172.565 49.296 172.917 48.864C173.285 48.432 173.525 47.92 173.637 47.328L174.741 47.712C174.533 48.448 174.189 49.08 173.709 49.608C173.245 50.136 172.677 50.544 172.005 50.832C171.333 51.104 170.581 51.24 169.749 51.24C168.661 51.24 167.685 50.992 166.821 50.496C165.973 50 165.309 49.288 164.829 48.36C164.349 47.416 164.109 46.296 164.109 45C164.109 43.704 164.349 42.592 164.829 41.664C165.325 40.72 165.997 40 166.845 39.504C167.709 39.008 168.685 38.76 169.773 38.76ZM182.804 38.76C183.62 38.76 184.348 38.888 184.988 39.144C185.628 39.4 186.172 39.768 186.62 40.248C187.068 40.728 187.412 41.312 187.652 42L186.524 42.528C186.268 41.664 185.82 41 185.18 40.536C184.556 40.056 183.756 39.816 182.78 39.816C181.9 39.816 181.124 40.024 180.452 40.44C179.78 40.84 179.26 41.432 178.892 42.216C178.524 42.984 178.34 43.912 178.34 45C178.34 46.072 178.524 47 178.892 47.784C179.26 48.568 179.772 49.168 180.428 49.584C181.084 49.984 181.86 50.184 182.756 50.184C183.428 50.184 184.036 50.072 184.58 49.848C185.14 49.624 185.596 49.296 185.948 48.864C186.316 48.432 186.556 47.92 186.668 47.328L187.772 47.712C187.564 48.448 187.22 49.08 186.74 49.608C186.276 50.136 185.708 50.544 185.036 50.832C184.364 51.104 183.612 51.24 182.78 51.24C181.692 51.24 180.716 50.992 179.852 50.496C179.004 50 178.34 49.288 177.86 48.36C177.38 47.416 177.14 46.296 177.14 45C177.14 43.704 177.38 42.592 177.86 41.664C178.356 40.72 179.028 40 179.876 39.504C180.74 39.008 181.716 38.76 182.804 38.76ZM195.884 51.24C194.78 51.24 193.796 50.992 192.932 50.496C192.068 50 191.388 49.288 190.892 48.36C190.412 47.416 190.172 46.296 190.172 45C190.172 43.704 190.412 42.592 190.892 41.664C191.388 40.72 192.052 40 192.884 39.504C193.716 39.008 194.668 38.76 195.74 38.76C196.828 38.76 197.756 39 198.524 39.48C199.292 39.96 199.884 40.632 200.3 41.496C200.716 42.344 200.924 43.328 200.924 44.448C200.924 44.592 200.916 44.736 200.9 44.88C200.9 45.008 200.892 45.128 200.876 45.24H190.916V44.16H200.348L199.748 44.328C199.732 42.952 199.364 41.856 198.644 41.04C197.94 40.224 196.964 39.816 195.716 39.816C194.852 39.816 194.092 40.024 193.436 40.44C192.78 40.84 192.268 41.432 191.9 42.216C191.532 42.984 191.348 43.912 191.348 45C191.348 46.072 191.532 47 191.9 47.784C192.284 48.568 192.812 49.168 193.484 49.584C194.172 49.984 194.964 50.184 195.86 50.184C196.788 50.184 197.58 49.984 198.236 49.584C198.908 49.184 199.428 48.632 199.796 47.928L200.756 48.48C200.468 49.056 200.084 49.552 199.604 49.968C199.124 50.368 198.572 50.68 197.948 50.904C197.324 51.128 196.636 51.24 195.884 51.24ZM204.347 56.04V39H205.427L205.523 42.336L205.355 42.144C205.563 41.456 205.883 40.856 206.315 40.344C206.763 39.832 207.307 39.44 207.947 39.168C208.587 38.896 209.283 38.76 210.035 38.76C211.059 38.76 211.979 39.008 212.795 39.504C213.611 40 214.259 40.712 214.739 41.64C215.219 42.568 215.459 43.688 215.459 45C215.459 46.296 215.219 47.416 214.739 48.36C214.259 49.288 213.603 50 212.771 50.496C211.955 50.992 211.027 51.24 209.987 51.24C208.883 51.24 207.923 50.952 207.107 50.376C206.291 49.784 205.723 48.992 205.403 48L205.547 47.784V56.04H204.347ZM209.843 50.184C211.203 50.184 212.275 49.72 213.059 48.792C213.859 47.864 214.259 46.6 214.259 45C214.259 43.4 213.867 42.136 213.083 41.208C212.299 40.28 211.235 39.816 209.891 39.816C209.043 39.816 208.291 40.032 207.635 40.464C206.995 40.88 206.483 41.48 206.099 42.264C205.731 43.032 205.547 43.944 205.547 45C205.547 46.04 205.731 46.952 206.099 47.736C206.467 48.52 206.971 49.128 207.611 49.56C208.267 49.976 209.011 50.184 209.843 50.184ZM220.706 35.664V47.832C220.706 48.584 220.882 49.16 221.234 49.56C221.602 49.944 222.13 50.136 222.818 50.136C223.266 50.136 223.658 50.064 223.994 49.92C224.346 49.76 224.658 49.536 224.93 49.248L225.386 50.232C225.082 50.536 224.698 50.784 224.234 50.976C223.77 51.152 223.25 51.24 222.674 51.24C222.05 51.24 221.498 51.128 221.018 50.904C220.538 50.664 220.162 50.304 219.89 49.824C219.634 49.344 219.506 48.736 219.506 48V36L220.706 35.664ZM225.194 39V40.032H217.106V39H225.194ZM250.263 35.16V51H249.111V39.192L249.255 36.312H249.231L243.447 51H242.343L236.559 36.312H236.535L236.679 39.192V51H235.527V35.16H237.327L242.103 47.16L242.895 49.584H242.919L243.687 47.184L248.463 35.16H250.263ZM255.502 36.672C255.198 36.672 254.95 36.584 254.758 36.408C254.582 36.216 254.494 35.968 254.494 35.664C254.494 35.36 254.582 35.12 254.758 34.944C254.95 34.752 255.198 34.656 255.502 34.656C255.806 34.656 256.046 34.752 256.222 34.944C256.414 35.12 256.51 35.36 256.51 35.664C256.51 35.968 256.414 36.216 256.222 36.408C256.046 36.584 255.806 36.672 255.502 36.672ZM256.102 39V51H254.902V39H256.102ZM264.419 51.24C263.203 51.24 262.123 50.992 261.179 50.496C260.251 50 259.595 49.288 259.211 48.36L260.243 47.664C260.531 48.464 261.043 49.088 261.779 49.536C262.531 49.968 263.443 50.184 264.515 50.184C265.571 50.184 266.395 49.976 266.987 49.56C267.595 49.144 267.899 48.592 267.899 47.904C267.899 47.44 267.747 47.04 267.443 46.704C267.155 46.352 266.603 46.088 265.787 45.912L262.979 45.312C261.827 45.072 261.003 44.688 260.507 44.16C260.027 43.616 259.787 42.96 259.787 42.192C259.787 41.552 259.979 40.976 260.363 40.464C260.747 39.952 261.275 39.544 261.947 39.24C262.635 38.92 263.435 38.76 264.347 38.76C265.547 38.76 266.539 39 267.323 39.48C268.107 39.944 268.659 40.648 268.979 41.592L267.971 42.24C267.731 41.392 267.283 40.776 266.627 40.392C265.987 40.008 265.227 39.816 264.347 39.816C263.675 39.816 263.083 39.92 262.571 40.128C262.075 40.32 261.683 40.592 261.395 40.944C261.123 41.28 260.987 41.672 260.987 42.12C260.987 42.584 261.147 43.008 261.467 43.392C261.787 43.76 262.355 44.032 263.171 44.208L266.051 44.832C267.187 45.072 267.979 45.44 268.427 45.936C268.875 46.416 269.099 47.016 269.099 47.736C269.099 48.456 268.907 49.08 268.523 49.608C268.139 50.136 267.595 50.544 266.891 50.832C266.187 51.104 265.363 51.24 264.419 51.24ZM274.448 35.664V47.832C274.448 48.584 274.624 49.16 274.976 49.56C275.344 49.944 275.872 50.136 276.56 50.136C277.008 50.136 277.4 50.064 277.736 49.92C278.088 49.76 278.4 49.536 278.672 49.248L279.128 50.232C278.824 50.536 278.44 50.784 277.976 50.976C277.512 51.152 276.992 51.24 276.416 51.24C275.792 51.24 275.24 51.128 274.76 50.904C274.28 50.664 273.904 50.304 273.632 49.824C273.376 49.344 273.248 48.736 273.248 48V36L274.448 35.664ZM278.936 39V40.032H270.848V39H278.936ZM288.847 43.104C288.847 42.064 288.567 41.256 288.007 40.68C287.447 40.104 286.647 39.816 285.607 39.816C284.695 39.816 283.911 40.016 283.255 40.416C282.599 40.8 282.111 41.448 281.791 42.36L280.807 41.736C281.159 40.792 281.743 40.064 282.559 39.552C283.391 39.024 284.415 38.76 285.631 38.76C286.511 38.76 287.279 38.92 287.935 39.24C288.607 39.544 289.127 40 289.495 40.608C289.863 41.216 290.047 41.976 290.047 42.888V48.888C290.047 49.736 290.431 50.16 291.199 50.16C291.535 50.16 291.823 50.104 292.063 49.992L291.991 50.952C291.719 51.096 291.367 51.168 290.935 51.168C290.567 51.168 290.223 51.096 289.903 50.952C289.583 50.808 289.319 50.568 289.111 50.232C288.919 49.896 288.823 49.44 288.823 48.864V48.216L289.159 48.192C289.015 48.88 288.695 49.456 288.199 49.92C287.719 50.368 287.159 50.704 286.519 50.928C285.879 51.136 285.239 51.24 284.599 51.24C283.847 51.24 283.175 51.12 282.583 50.88C281.991 50.64 281.527 50.296 281.191 49.848C280.855 49.384 280.687 48.816 280.687 48.144C280.687 47.248 280.983 46.528 281.575 45.984C282.183 45.424 283.031 45.04 284.119 44.832L289.087 43.848V44.856L284.719 45.72C283.775 45.912 283.071 46.192 282.607 46.56C282.143 46.928 281.911 47.432 281.911 48.072C281.911 48.728 282.159 49.248 282.655 49.632C283.151 50 283.855 50.184 284.767 50.184C285.231 50.184 285.703 50.12 286.183 49.992C286.663 49.864 287.103 49.664 287.503 49.392C287.919 49.104 288.247 48.752 288.487 48.336C288.727 47.904 288.847 47.384 288.847 46.776V43.104ZM304.422 39L299.142 44.088L298.854 44.376L295.134 47.976V46.44L302.862 39H304.422ZM295.734 33.48V51H294.534V33.48H295.734ZM299.214 43.464L304.614 51H303.15L298.23 44.16L299.214 43.464ZM311.665 51.24C310.561 51.24 309.577 50.992 308.713 50.496C307.849 50 307.169 49.288 306.673 48.36C306.193 47.416 305.953 46.296 305.953 45C305.953 43.704 306.193 42.592 306.673 41.664C307.169 40.72 307.833 40 308.665 39.504C309.497 39.008 310.449 38.76 311.521 38.76C312.609 38.76 313.537 39 314.305 39.48C315.073 39.96 315.665 40.632 316.081 41.496C316.497 42.344 316.705 43.328 316.705 44.448C316.705 44.592 316.697 44.736 316.681 44.88C316.681 45.008 316.673 45.128 316.657 45.24H306.697V44.16H316.129L315.529 44.328C315.513 42.952 315.145 41.856 314.425 41.04C313.721 40.224 312.745 39.816 311.497 39.816C310.633 39.816 309.873 40.024 309.217 40.44C308.561 40.84 308.049 41.432 307.681 42.216C307.313 42.984 307.129 43.912 307.129 45C307.129 46.072 307.313 47 307.681 47.784C308.065 48.568 308.593 49.168 309.265 49.584C309.953 49.984 310.745 50.184 311.641 50.184C312.569 50.184 313.361 49.984 314.017 49.584C314.689 49.184 315.209 48.632 315.577 47.928L316.537 48.48C316.249 49.056 315.865 49.552 315.385 49.968C314.905 50.368 314.353 50.68 313.729 50.904C313.105 51.128 312.417 51.24 311.665 51.24ZM324.184 51.24C322.968 51.24 321.888 50.992 320.944 50.496C320.016 50 319.36 49.288 318.976 48.36L320.008 47.664C320.296 48.464 320.808 49.088 321.544 49.536C322.296 49.968 323.208 50.184 324.28 50.184C325.336 50.184 326.16 49.976 326.752 49.56C327.36 49.144 327.664 48.592 327.664 47.904C327.664 47.44 327.512 47.04 327.208 46.704C326.92 46.352 326.368 46.088 325.552 45.912L322.744 45.312C321.592 45.072 320.768 44.688 320.272 44.16C319.792 43.616 319.552 42.96 319.552 42.192C319.552 41.552 319.744 40.976 320.128 40.464C320.512 39.952 321.04 39.544 321.712 39.24C322.4 38.92 323.2 38.76 324.112 38.76C325.312 38.76 326.304 39 327.088 39.48C327.872 39.944 328.424 40.648 328.744 41.592L327.736 42.24C327.496 41.392 327.048 40.776 326.392 40.392C325.752 40.008 324.992 39.816 324.112 39.816C323.44 39.816 322.848 39.92 322.336 40.128C321.84 40.32 321.448 40.592 321.16 40.944C320.888 41.28 320.752 41.672 320.752 42.12C320.752 42.584 320.912 43.008 321.232 43.392C321.552 43.76 322.12 44.032 322.936 44.208L325.816 44.832C326.952 45.072 327.744 45.44 328.192 45.936C328.64 46.416 328.864 47.016 328.864 47.736C328.864 48.456 328.672 49.08 328.288 49.608C327.904 50.136 327.36 50.544 326.656 50.832C325.952 51.104 325.128 51.24 324.184 51.24Z" fill="#303030"/>
<path d="M156.864 65.44V66.176H153.008V76H152.208V66.176H148.352V65.44H156.864ZM160.11 67.84C160.857 67.84 161.513 68.0053 162.078 68.336C162.654 68.6667 163.102 69.1467 163.422 69.776C163.753 70.3947 163.918 71.136 163.918 72C163.918 72.864 163.753 73.6107 163.422 74.24C163.102 74.8587 162.654 75.3333 162.078 75.664C161.513 75.9947 160.857 76.16 160.11 76.16C159.363 76.16 158.702 75.9947 158.126 75.664C157.561 75.3333 157.113 74.8587 156.782 74.24C156.462 73.6107 156.302 72.864 156.302 72C156.302 71.136 156.462 70.3947 156.782 69.776C157.113 69.1467 157.561 68.6667 158.126 68.336C158.702 68.0053 159.363 67.84 160.11 67.84ZM160.11 68.528C159.502 68.528 158.974 68.6667 158.526 68.944C158.078 69.2213 157.726 69.6213 157.47 70.144C157.225 70.656 157.102 71.2747 157.102 72C157.102 72.7147 157.225 73.3333 157.47 73.856C157.726 74.3787 158.078 74.7787 158.526 75.056C158.974 75.3333 159.502 75.472 160.11 75.472C160.718 75.472 161.246 75.3333 161.694 75.056C162.142 74.7787 162.489 74.3787 162.734 73.856C162.99 73.3333 163.118 72.7147 163.118 72C163.118 71.2747 162.99 70.656 162.734 70.144C162.489 69.6213 162.142 69.2213 161.694 68.944C161.246 68.6667 160.718 68.528 160.11 68.528ZM174.485 76.16C173.749 76.16 173.093 75.9947 172.517 75.664C171.941 75.3333 171.488 74.8587 171.157 74.24C170.837 73.6107 170.677 72.864 170.677 72C170.677 71.136 170.837 70.3947 171.157 69.776C171.488 69.1467 171.93 68.6667 172.485 68.336C173.04 68.0053 173.674 67.84 174.389 67.84C175.114 67.84 175.733 68 176.245 68.32C176.757 68.64 177.152 69.088 177.429 69.664C177.706 70.2293 177.845 70.8853 177.845 71.632C177.845 71.728 177.84 71.824 177.829 71.92C177.829 72.0053 177.824 72.0853 177.813 72.16H171.173V71.44H177.461L177.061 71.552C177.05 70.6347 176.805 69.904 176.325 69.36C175.856 68.816 175.205 68.544 174.373 68.544C173.797 68.544 173.29 68.6827 172.853 68.96C172.416 69.2267 172.074 69.6213 171.829 70.144C171.584 70.656 171.461 71.2747 171.461 72C171.461 72.7147 171.584 73.3333 171.829 73.856C172.085 74.3787 172.437 74.7787 172.885 75.056C173.344 75.3227 173.872 75.456 174.469 75.456C175.088 75.456 175.616 75.3227 176.053 75.056C176.501 74.7893 176.848 74.4213 177.093 73.952L177.733 74.32C177.541 74.704 177.285 75.0347 176.965 75.312C176.645 75.5787 176.277 75.7867 175.861 75.936C175.445 76.0853 174.986 76.16 174.485 76.16ZM180.127 76V68H180.799L180.895 69.68C181.098 69.1147 181.423 68.6667 181.871 68.336C182.319 68.0053 182.858 67.84 183.487 67.84C183.7 67.84 183.892 67.8613 184.063 67.904C184.234 67.9467 184.372 68.016 184.479 68.112L184.303 68.816C184.186 68.7413 184.058 68.6827 183.919 68.64C183.78 68.5973 183.572 68.576 183.295 68.576C182.89 68.576 182.506 68.704 182.143 68.96C181.78 69.2053 181.487 69.552 181.263 70C181.039 70.4373 180.927 70.944 180.927 71.52V76H180.127ZM186.174 76V68H186.846L186.942 69.68C187.145 69.1147 187.47 68.6667 187.918 68.336C188.366 68.0053 188.905 67.84 189.534 67.84C189.747 67.84 189.939 67.8613 190.11 67.904C190.281 67.9467 190.419 68.016 190.526 68.112L190.35 68.816C190.233 68.7413 190.105 68.6827 189.966 68.64C189.827 68.5973 189.619 68.576 189.342 68.576C188.937 68.576 188.553 68.704 188.19 68.96C187.827 69.2053 187.534 69.552 187.31 70C187.086 70.4373 186.974 70.944 186.974 71.52V76H186.174ZM195.11 67.84C195.857 67.84 196.513 68.0053 197.078 68.336C197.654 68.6667 198.102 69.1467 198.422 69.776C198.753 70.3947 198.918 71.136 198.918 72C198.918 72.864 198.753 73.6107 198.422 74.24C198.102 74.8587 197.654 75.3333 197.078 75.664C196.513 75.9947 195.857 76.16 195.11 76.16C194.363 76.16 193.702 75.9947 193.126 75.664C192.561 75.3333 192.113 74.8587 191.782 74.24C191.462 73.6107 191.302 72.864 191.302 72C191.302 71.136 191.462 70.3947 191.782 69.776C192.113 69.1467 192.561 68.6667 193.126 68.336C193.702 68.0053 194.363 67.84 195.11 67.84ZM195.11 68.528C194.502 68.528 193.974 68.6667 193.526 68.944C193.078 69.2213 192.726 69.6213 192.47 70.144C192.225 70.656 192.102 71.2747 192.102 72C192.102 72.7147 192.225 73.3333 192.47 73.856C192.726 74.3787 193.078 74.7787 193.526 75.056C193.974 75.3333 194.502 75.472 195.11 75.472C195.718 75.472 196.246 75.3333 196.694 75.056C197.142 74.7787 197.489 74.3787 197.734 73.856C197.99 73.3333 198.118 72.7147 198.118 72C198.118 71.2747 197.99 70.656 197.734 70.144C197.489 69.6213 197.142 69.2213 196.694 68.944C196.246 68.6667 195.718 68.528 195.11 68.528ZM201.205 76V68H201.877L201.973 69.68C202.176 69.1147 202.501 68.6667 202.949 68.336C203.397 68.0053 203.936 67.84 204.565 67.84C204.779 67.84 204.971 67.8613 205.141 67.904C205.312 67.9467 205.451 68.016 205.557 68.112L205.381 68.816C205.264 68.7413 205.136 68.6827 204.997 68.64C204.859 68.5973 204.651 68.576 204.373 68.576C203.968 68.576 203.584 68.704 203.221 68.96C202.859 69.2053 202.565 69.552 202.341 70C202.117 70.4373 202.005 70.944 202.005 71.52V76H201.205ZM212.277 66.448C212.074 66.448 211.909 66.3893 211.781 66.272C211.664 66.144 211.605 65.9787 211.605 65.776C211.605 65.5733 211.664 65.4133 211.781 65.296C211.909 65.168 212.074 65.104 212.277 65.104C212.48 65.104 212.64 65.168 212.757 65.296C212.885 65.4133 212.949 65.5733 212.949 65.776C212.949 65.9787 212.885 66.144 212.757 66.272C212.64 66.3893 212.48 66.448 212.277 66.448ZM212.677 68V76H211.877V68H212.677ZM218.222 76.16C217.411 76.16 216.691 75.9947 216.062 75.664C215.443 75.3333 215.006 74.8587 214.75 74.24L215.438 73.776C215.63 74.3093 215.971 74.7253 216.462 75.024C216.963 75.312 217.571 75.456 218.286 75.456C218.99 75.456 219.539 75.3173 219.934 75.04C220.339 74.7627 220.542 74.3947 220.542 73.936C220.542 73.6267 220.44 73.36 220.238 73.136C220.046 72.9013 219.678 72.7253 219.134 72.608L217.262 72.208C216.494 72.048 215.944 71.792 215.614 71.44C215.294 71.0773 215.134 70.64 215.134 70.128C215.134 69.7013 215.262 69.3173 215.518 68.976C215.774 68.6347 216.126 68.3627 216.574 68.16C217.032 67.9467 217.566 67.84 218.174 67.84C218.974 67.84 219.635 68 220.158 68.32C220.68 68.6293 221.048 69.0987 221.262 69.728L220.59 70.16C220.43 69.5947 220.131 69.184 219.694 68.928C219.267 68.672 218.76 68.544 218.174 68.544C217.726 68.544 217.331 68.6133 216.99 68.752C216.659 68.88 216.398 69.0613 216.206 69.296C216.024 69.52 215.934 69.7813 215.934 70.08C215.934 70.3893 216.04 70.672 216.254 70.928C216.467 71.1733 216.846 71.3547 217.39 71.472L219.31 71.888C220.067 72.048 220.595 72.2933 220.894 72.624C221.192 72.944 221.342 73.344 221.342 73.824C221.342 74.304 221.214 74.72 220.958 75.072C220.702 75.424 220.339 75.696 219.87 75.888C219.4 76.0693 218.851 76.16 218.222 76.16ZM228.596 79.36V68H229.316L229.38 70.224L229.268 70.096C229.407 69.6373 229.62 69.2373 229.908 68.896C230.207 68.5547 230.569 68.2933 230.996 68.112C231.423 67.9307 231.887 67.84 232.388 67.84C233.071 67.84 233.684 68.0053 234.228 68.336C234.772 68.6667 235.204 69.1413 235.524 69.76C235.844 70.3787 236.004 71.1253 236.004 72C236.004 72.864 235.844 73.6107 235.524 74.24C235.204 74.8587 234.767 75.3333 234.212 75.664C233.668 75.9947 233.049 76.16 232.356 76.16C231.62 76.16 230.98 75.968 230.436 75.584C229.892 75.1893 229.513 74.6613 229.3 74L229.396 73.856V79.36H228.596ZM232.26 75.456C233.167 75.456 233.881 75.1467 234.404 74.528C234.937 73.9093 235.204 73.0667 235.204 72C235.204 70.9333 234.943 70.0907 234.42 69.472C233.897 68.8533 233.188 68.544 232.292 68.544C231.727 68.544 231.225 68.688 230.788 68.976C230.361 69.2533 230.02 69.6533 229.764 70.176C229.519 70.688 229.396 71.296 229.396 72C229.396 72.6933 229.519 73.3013 229.764 73.824C230.009 74.3467 230.345 74.752 230.772 75.04C231.209 75.3173 231.705 75.456 232.26 75.456ZM238.315 76V68H238.987L239.083 69.68C239.285 69.1147 239.611 68.6667 240.059 68.336C240.507 68.0053 241.045 67.84 241.675 67.84C241.888 67.84 242.08 67.8613 242.251 67.904C242.421 67.9467 242.56 68.016 242.667 68.112L242.491 68.816C242.373 68.7413 242.245 68.6827 242.107 68.64C241.968 68.5973 241.76 68.576 241.483 68.576C241.077 68.576 240.693 68.704 240.331 68.96C239.968 69.2053 239.675 69.552 239.451 70C239.227 70.4373 239.115 70.944 239.115 71.52V76H238.315ZM247.251 67.84C247.997 67.84 248.653 68.0053 249.219 68.336C249.795 68.6667 250.243 69.1467 250.562 69.776C250.893 70.3947 251.059 71.136 251.059 72C251.059 72.864 250.893 73.6107 250.562 74.24C250.243 74.8587 249.795 75.3333 249.219 75.664C248.653 75.9947 247.997 76.16 247.251 76.16C246.504 76.16 245.843 75.9947 245.267 75.664C244.701 75.3333 244.253 74.8587 243.923 74.24C243.603 73.6107 243.443 72.864 243.443 72C243.443 71.136 243.603 70.3947 243.923 69.776C244.253 69.1467 244.701 68.6667 245.267 68.336C245.843 68.0053 246.504 67.84 247.251 67.84ZM247.251 68.528C246.643 68.528 246.115 68.6667 245.667 68.944C245.219 69.2213 244.867 69.6213 244.611 70.144C244.365 70.656 244.243 71.2747 244.243 72C244.243 72.7147 244.365 73.3333 244.611 73.856C244.867 74.3787 245.219 74.7787 245.667 75.056C246.115 75.3333 246.643 75.472 247.251 75.472C247.859 75.472 248.387 75.3333 248.835 75.056C249.283 74.7787 249.629 74.3787 249.875 73.856C250.131 73.3333 250.259 72.7147 250.259 72C250.259 71.2747 250.131 70.656 249.875 70.144C249.629 69.6213 249.283 69.2213 248.835 68.944C248.387 68.6667 247.859 68.528 247.251 68.528ZM256.61 67.84C257.357 67.84 258.013 68.0053 258.578 68.336C259.154 68.6667 259.602 69.1467 259.922 69.776C260.253 70.3947 260.418 71.136 260.418 72C260.418 72.864 260.253 73.6107 259.922 74.24C259.602 74.8587 259.154 75.3333 258.578 75.664C258.013 75.9947 257.357 76.16 256.61 76.16C255.863 76.16 255.202 75.9947 254.626 75.664C254.061 75.3333 253.613 74.8587 253.282 74.24C252.962 73.6107 252.802 72.864 252.802 72C252.802 71.136 252.962 70.3947 253.282 69.776C253.613 69.1467 254.061 68.6667 254.626 68.336C255.202 68.0053 255.863 67.84 256.61 67.84ZM256.61 68.528C256.002 68.528 255.474 68.6667 255.026 68.944C254.578 69.2213 254.226 69.6213 253.97 70.144C253.725 70.656 253.602 71.2747 253.602 72C253.602 72.7147 253.725 73.3333 253.97 73.856C254.226 74.3787 254.578 74.7787 255.026 75.056C255.474 75.3333 256.002 75.472 256.61 75.472C257.218 75.472 257.746 75.3333 258.194 75.056C258.642 74.7787 258.989 74.3787 259.234 73.856C259.49 73.3333 259.618 72.7147 259.618 72C259.618 71.2747 259.49 70.656 259.234 70.144C258.989 69.6213 258.642 69.2213 258.194 68.944C257.746 68.6667 257.218 68.528 256.61 68.528ZM265.493 64.24C265.781 64.24 266.037 64.2773 266.261 64.352C266.485 64.4267 266.661 64.5333 266.789 64.672L266.565 65.312C266.426 65.184 266.277 65.0933 266.117 65.04C265.957 64.9867 265.77 64.96 265.557 64.96C265.034 64.96 264.629 65.1093 264.341 65.408C264.053 65.7067 263.909 66.1493 263.909 66.736V68V68.288V76H263.109V66.656C263.109 66.2933 263.157 65.9627 263.253 65.664C263.359 65.3653 263.514 65.1147 263.717 64.912C263.919 64.6987 264.17 64.5333 264.469 64.416C264.767 64.2987 265.109 64.24 265.493 64.24ZM266.725 68V68.688H261.509V68H266.725ZM276.001 67.84C276.747 67.84 277.403 68.0053 277.969 68.336C278.545 68.6667 278.993 69.1467 279.312 69.776C279.643 70.3947 279.809 71.136 279.809 72C279.809 72.864 279.643 73.6107 279.312 74.24C278.993 74.8587 278.545 75.3333 277.969 75.664C277.403 75.9947 276.747 76.16 276.001 76.16C275.254 76.16 274.593 75.9947 274.017 75.664C273.451 75.3333 273.003 74.8587 272.673 74.24C272.353 73.6107 272.193 72.864 272.193 72C272.193 71.136 272.353 70.3947 272.673 69.776C273.003 69.1467 273.451 68.6667 274.017 68.336C274.593 68.0053 275.254 67.84 276.001 67.84ZM276.001 68.528C275.393 68.528 274.865 68.6667 274.417 68.944C273.969 69.2213 273.617 69.6213 273.361 70.144C273.115 70.656 272.993 71.2747 272.993 72C272.993 72.7147 273.115 73.3333 273.361 73.856C273.617 74.3787 273.969 74.7787 274.417 75.056C274.865 75.3333 275.393 75.472 276.001 75.472C276.609 75.472 277.137 75.3333 277.585 75.056C278.033 74.7787 278.379 74.3787 278.625 73.856C278.881 73.3333 279.009 72.7147 279.009 72C279.009 71.2747 278.881 70.656 278.625 70.144C278.379 69.6213 278.033 69.2213 277.585 68.944C277.137 68.6667 276.609 68.528 276.001 68.528ZM284.883 64.24C285.171 64.24 285.427 64.2773 285.651 64.352C285.875 64.4267 286.051 64.5333 286.179 64.672L285.955 65.312C285.817 65.184 285.667 65.0933 285.507 65.04C285.347 64.9867 285.161 64.96 284.947 64.96C284.425 64.96 284.019 65.1093 283.731 65.408C283.443 65.7067 283.299 66.1493 283.299 66.736V68V68.288V76H282.499V66.656C282.499 66.2933 282.547 65.9627 282.643 65.664C282.75 65.3653 282.905 65.1147 283.107 64.912C283.31 64.6987 283.561 64.5333 283.859 64.416C284.158 64.2987 284.499 64.24 284.883 64.24ZM286.115 68V68.688H280.899V68H286.115ZM292.127 76V64.32H292.927V69.632C293.162 69.0667 293.54 68.6293 294.063 68.32C294.586 68 295.188 67.84 295.871 67.84C296.468 67.84 296.996 67.952 297.455 68.176C297.914 68.3893 298.271 68.72 298.527 69.168C298.794 69.6053 298.927 70.1493 298.927 70.8V76H298.127V71.056C298.127 70.192 297.908 69.5573 297.471 69.152C297.044 68.736 296.484 68.528 295.791 68.528C295.29 68.528 294.82 68.6453 294.383 68.88C293.956 69.1147 293.604 69.4507 293.327 69.888C293.06 70.3253 292.927 70.8587 292.927 71.488V76H292.127ZM304.506 76.16C303.951 76.16 303.455 76.0587 303.018 75.856C302.58 75.6533 302.234 75.3387 301.978 74.912C301.732 74.4747 301.61 73.9307 301.61 73.28V68H302.41V73.088C302.41 73.92 302.607 74.5227 303.002 74.896C303.407 75.2693 303.972 75.456 304.698 75.456C305.124 75.456 305.508 75.3813 305.85 75.232C306.202 75.0827 306.5 74.8747 306.746 74.608C306.991 74.3413 307.178 74.0373 307.306 73.696C307.444 73.3547 307.514 72.9867 307.514 72.592V68H308.314V76H307.594L307.562 74.352C307.327 74.9173 306.943 75.36 306.41 75.68C305.876 76 305.242 76.16 304.506 76.16ZM311.158 76V68H311.878L311.926 69.664C312.161 69.088 312.54 68.64 313.062 68.32C313.596 68 314.188 67.84 314.838 67.84C315.532 67.84 316.129 68.0053 316.63 68.336C317.142 68.6667 317.494 69.152 317.686 69.792C317.825 69.3867 318.049 69.04 318.358 68.752C318.668 68.4533 319.03 68.224 319.446 68.064C319.862 67.904 320.294 67.824 320.742 67.824C321.297 67.824 321.798 67.936 322.246 68.16C322.705 68.3733 323.068 68.704 323.334 69.152C323.612 69.5893 323.75 70.1387 323.75 70.8V75.984H322.95V70.88C322.95 70.0907 322.737 69.504 322.31 69.12C321.894 68.7253 321.34 68.528 320.646 68.528C320.145 68.528 319.681 68.6507 319.254 68.896C318.828 69.1307 318.486 69.4667 318.23 69.904C317.985 70.3307 317.862 70.8267 317.862 71.392V76H317.062V70.896C317.062 70.1067 316.849 69.52 316.422 69.136C315.996 68.7413 315.441 68.544 314.758 68.544C314.278 68.544 313.825 68.6613 313.398 68.896C312.972 69.1307 312.625 69.4667 312.358 69.904C312.092 70.3413 311.958 70.864 311.958 71.472V76H311.158ZM331.414 70.736C331.414 70.0427 331.227 69.504 330.854 69.12C330.48 68.736 329.947 68.544 329.254 68.544C328.646 68.544 328.123 68.6773 327.686 68.944C327.248 69.2 326.923 69.632 326.71 70.24L326.054 69.824C326.288 69.1947 326.678 68.7093 327.222 68.368C327.776 68.016 328.459 67.84 329.27 67.84C329.856 67.84 330.368 67.9467 330.806 68.16C331.254 68.3627 331.6 68.6667 331.846 69.072C332.091 69.4773 332.214 69.984 332.214 70.592V74.592C332.214 75.1573 332.47 75.44 332.982 75.44C333.206 75.44 333.398 75.4027 333.558 75.328L333.51 75.968C333.328 76.064 333.094 76.112 332.806 76.112C332.56 76.112 332.331 76.064 332.118 75.968C331.904 75.872 331.728 75.712 331.59 75.488C331.462 75.264 331.398 74.96 331.398 74.576V74.144L331.622 74.128C331.526 74.5867 331.312 74.9707 330.982 75.28C330.662 75.5787 330.288 75.8027 329.862 75.952C329.435 76.0907 329.008 76.16 328.582 76.16C328.08 76.16 327.632 76.08 327.238 75.92C326.843 75.76 326.534 75.5307 326.31 75.232C326.086 74.9227 325.974 74.544 325.974 74.096C325.974 73.4987 326.171 73.0187 326.566 72.656C326.971 72.2827 327.536 72.0267 328.262 71.888L331.574 71.232V71.904L328.662 72.48C328.032 72.608 327.563 72.7947 327.254 73.04C326.944 73.2853 326.79 73.6213 326.79 74.048C326.79 74.4853 326.955 74.832 327.286 75.088C327.616 75.3333 328.086 75.456 328.694 75.456C329.003 75.456 329.318 75.4133 329.638 75.328C329.958 75.2427 330.251 75.1093 330.518 74.928C330.795 74.736 331.014 74.5013 331.174 74.224C331.334 73.936 331.414 73.5893 331.414 73.184V70.736ZM335.205 76V68H335.925L335.989 70L335.861 69.888C336.011 69.4507 336.235 69.0827 336.533 68.784C336.832 68.4747 337.189 68.24 337.605 68.08C338.021 67.92 338.469 67.84 338.949 67.84C339.547 67.84 340.075 67.952 340.533 68.176C340.992 68.4 341.349 68.7307 341.605 69.168C341.872 69.6053 342.005 70.1547 342.005 70.816V76H341.205V71.072C341.205 70.1973 340.987 69.5573 340.549 69.152C340.123 68.7467 339.563 68.544 338.869 68.544C338.368 68.544 337.899 68.6613 337.461 68.896C337.035 69.12 336.683 69.4507 336.405 69.888C336.139 70.3253 336.005 70.8587 336.005 71.488V76H335.205ZM345.168 66.448C344.965 66.448 344.8 66.3893 344.672 66.272C344.554 66.144 344.496 65.9787 344.496 65.776C344.496 65.5733 344.554 65.4133 344.672 65.296C344.8 65.168 344.965 65.104 345.168 65.104C345.37 65.104 345.53 65.168 345.648 65.296C345.776 65.4133 345.84 65.5733 345.84 65.776C345.84 65.9787 345.776 66.144 345.648 66.272C345.53 66.3893 345.37 66.448 345.168 66.448ZM345.568 68V76H344.768V68H345.568ZM349.736 65.776V73.888C349.736 74.3893 349.854 74.7733 350.088 75.04C350.334 75.296 350.686 75.424 351.144 75.424C351.443 75.424 351.704 75.376 351.928 75.28C352.163 75.1733 352.371 75.024 352.552 74.832L352.856 75.488C352.654 75.6907 352.398 75.856 352.088 75.984C351.779 76.1013 351.432 76.16 351.048 76.16C350.632 76.16 350.264 76.0853 349.944 75.936C349.624 75.776 349.374 75.536 349.192 75.216C349.022 74.896 348.936 74.4907 348.936 74V66L349.736 65.776ZM352.728 68V68.688H347.336V68H352.728ZM360.744 68L356.872 77.472C356.68 77.9627 356.472 78.352 356.248 78.64C356.024 78.928 355.773 79.1307 355.496 79.248C355.218 79.376 354.898 79.44 354.536 79.44C354.216 79.44 353.922 79.392 353.656 79.296C353.389 79.2 353.17 79.0667 353 78.896L353.256 78.208C353.416 78.4 353.608 78.5333 353.832 78.608C354.056 78.6933 354.285 78.736 354.52 78.736C354.861 78.736 355.165 78.6347 355.432 78.432C355.698 78.24 355.949 77.856 356.184 77.28L356.712 76L355.864 74.016L353.336 68H354.248L356.696 74.064L357.096 75.136L357.528 73.984L359.88 68H360.744ZM361.604 74.688C361.817 74.688 361.988 74.7573 362.116 74.896C362.254 75.024 362.324 75.1947 362.324 75.408C362.324 75.6213 362.254 75.7973 362.116 75.936C361.988 76.064 361.817 76.128 361.604 76.128C361.39 76.128 361.214 76.064 361.076 75.936C360.948 75.7973 360.884 75.6213 360.884 75.408C360.884 75.1947 360.948 75.024 361.076 74.896C361.214 74.7573 361.39 74.688 361.604 74.688ZM376.802 65.44V66.176H372.946V76H372.146V66.176H368.29V65.44H376.802ZM380.047 67.84C380.794 67.84 381.45 68.0053 382.015 68.336C382.591 68.6667 383.039 69.1467 383.359 69.776C383.69 70.3947 383.855 71.136 383.855 72C383.855 72.864 383.69 73.6107 383.359 74.24C383.039 74.8587 382.591 75.3333 382.015 75.664C381.45 75.9947 380.794 76.16 380.047 76.16C379.301 76.16 378.639 75.9947 378.063 75.664C377.498 75.3333 377.05 74.8587 376.719 74.24C376.399 73.6107 376.239 72.864 376.239 72C376.239 71.136 376.399 70.3947 376.719 69.776C377.05 69.1467 377.498 68.6667 378.063 68.336C378.639 68.0053 379.301 67.84 380.047 67.84ZM380.047 68.528C379.439 68.528 378.911 68.6667 378.463 68.944C378.015 69.2213 377.663 69.6213 377.407 70.144C377.162 70.656 377.039 71.2747 377.039 72C377.039 72.7147 377.162 73.3333 377.407 73.856C377.663 74.3787 378.015 74.7787 378.463 75.056C378.911 75.3333 379.439 75.472 380.047 75.472C380.655 75.472 381.183 75.3333 381.631 75.056C382.079 74.7787 382.426 74.3787 382.671 73.856C382.927 73.3333 383.055 72.7147 383.055 72C383.055 71.2747 382.927 70.656 382.671 70.144C382.426 69.6213 382.079 69.2213 381.631 68.944C381.183 68.6667 380.655 68.528 380.047 68.528ZM394.422 76.16C393.686 76.16 393.03 75.9947 392.454 75.664C391.878 75.3333 391.425 74.8587 391.094 74.24C390.774 73.6107 390.614 72.864 390.614 72C390.614 71.136 390.774 70.3947 391.094 69.776C391.425 69.1467 391.868 68.6667 392.422 68.336C392.977 68.0053 393.612 67.84 394.326 67.84C395.052 67.84 395.67 68 396.182 68.32C396.694 68.64 397.089 69.088 397.366 69.664C397.644 70.2293 397.782 70.8853 397.782 71.632C397.782 71.728 397.777 71.824 397.766 71.92C397.766 72.0053 397.761 72.0853 397.75 72.16H391.11V71.44H397.398L396.998 71.552C396.988 70.6347 396.742 69.904 396.262 69.36C395.793 68.816 395.142 68.544 394.31 68.544C393.734 68.544 393.228 68.6827 392.79 68.96C392.353 69.2267 392.012 69.6213 391.766 70.144C391.521 70.656 391.398 71.2747 391.398 72C391.398 72.7147 391.521 73.3333 391.766 73.856C392.022 74.3787 392.374 74.7787 392.822 75.056C393.281 75.3227 393.809 75.456 394.406 75.456C395.025 75.456 395.553 75.3227 395.99 75.056C396.438 74.7893 396.785 74.4213 397.03 73.952L397.67 74.32C397.478 74.704 397.222 75.0347 396.902 75.312C396.582 75.5787 396.214 75.7867 395.798 75.936C395.382 76.0853 394.924 76.16 394.422 76.16ZM400.065 76V68H400.737L400.833 69.68C401.035 69.1147 401.361 68.6667 401.809 68.336C402.257 68.0053 402.795 67.84 403.425 67.84C403.638 67.84 403.83 67.8613 404.001 67.904C404.171 67.9467 404.31 68.016 404.417 68.112L404.241 68.816C404.123 68.7413 403.995 68.6827 403.857 68.64C403.718 68.5973 403.51 68.576 403.233 68.576C402.827 68.576 402.443 68.704 402.081 68.96C401.718 69.2053 401.425 69.552 401.201 70C400.977 70.4373 400.865 70.944 400.865 71.52V76H400.065ZM406.112 76V68H406.784L406.88 69.68C407.082 69.1147 407.408 68.6667 407.856 68.336C408.304 68.0053 408.842 67.84 409.472 67.84C409.685 67.84 409.877 67.8613 410.048 67.904C410.218 67.9467 410.357 68.016 410.464 68.112L410.288 68.816C410.17 68.7413 410.042 68.6827 409.904 68.64C409.765 68.5973 409.557 68.576 409.28 68.576C408.874 68.576 408.49 68.704 408.128 68.96C407.765 69.2053 407.472 69.552 407.248 70C407.024 70.4373 406.912 70.944 406.912 71.52V76H406.112ZM415.047 67.84C415.794 67.84 416.45 68.0053 417.015 68.336C417.591 68.6667 418.039 69.1467 418.359 69.776C418.69 70.3947 418.855 71.136 418.855 72C418.855 72.864 418.69 73.6107 418.359 74.24C418.039 74.8587 417.591 75.3333 417.015 75.664C416.45 75.9947 415.794 76.16 415.047 76.16C414.301 76.16 413.639 75.9947 413.063 75.664C412.498 75.3333 412.05 74.8587 411.719 74.24C411.399 73.6107 411.239 72.864 411.239 72C411.239 71.136 411.399 70.3947 411.719 69.776C412.05 69.1467 412.498 68.6667 413.063 68.336C413.639 68.0053 414.301 67.84 415.047 67.84ZM415.047 68.528C414.439 68.528 413.911 68.6667 413.463 68.944C413.015 69.2213 412.663 69.6213 412.407 70.144C412.162 70.656 412.039 71.2747 412.039 72C412.039 72.7147 412.162 73.3333 412.407 73.856C412.663 74.3787 413.015 74.7787 413.463 75.056C413.911 75.3333 414.439 75.472 415.047 75.472C415.655 75.472 416.183 75.3333 416.631 75.056C417.079 74.7787 417.426 74.3787 417.671 73.856C417.927 73.3333 418.055 72.7147 418.055 72C418.055 71.2747 417.927 70.656 417.671 70.144C417.426 69.6213 417.079 69.2213 416.631 68.944C416.183 68.6667 415.655 68.528 415.047 68.528ZM421.143 76V68H421.815L421.911 69.68C422.113 69.1147 422.439 68.6667 422.887 68.336C423.335 68.0053 423.873 67.84 424.503 67.84C424.716 67.84 424.908 67.8613 425.079 67.904C425.249 67.9467 425.388 68.016 425.495 68.112L425.319 68.816C425.201 68.7413 425.073 68.6827 424.935 68.64C424.796 68.5973 424.588 68.576 424.311 68.576C423.905 68.576 423.521 68.704 423.159 68.96C422.796 69.2053 422.503 69.552 422.279 70C422.055 70.4373 421.943 70.944 421.943 71.52V76H421.143ZM432.215 66.448C432.012 66.448 431.847 66.3893 431.719 66.272C431.601 66.144 431.543 65.9787 431.543 65.776C431.543 65.5733 431.601 65.4133 431.719 65.296C431.847 65.168 432.012 65.104 432.215 65.104C432.417 65.104 432.577 65.168 432.695 65.296C432.823 65.4133 432.887 65.5733 432.887 65.776C432.887 65.9787 432.823 66.144 432.695 66.272C432.577 66.3893 432.417 66.448 432.215 66.448ZM432.615 68V76H431.815V68H432.615ZM438.159 76.16C437.349 76.16 436.629 75.9947 435.999 75.664C435.381 75.3333 434.943 74.8587 434.687 74.24L435.375 73.776C435.567 74.3093 435.909 74.7253 436.399 75.024C436.901 75.312 437.509 75.456 438.223 75.456C438.927 75.456 439.477 75.3173 439.871 75.04C440.277 74.7627 440.479 74.3947 440.479 73.936C440.479 73.6267 440.378 73.36 440.175 73.136C439.983 72.9013 439.615 72.7253 439.071 72.608L437.199 72.208C436.431 72.048 435.882 71.792 435.551 71.44C435.231 71.0773 435.071 70.64 435.071 70.128C435.071 69.7013 435.199 69.3173 435.455 68.976C435.711 68.6347 436.063 68.3627 436.511 68.16C436.97 67.9467 437.503 67.84 438.111 67.84C438.911 67.84 439.573 68 440.095 68.32C440.618 68.6293 440.986 69.0987 441.199 69.728L440.527 70.16C440.367 69.5947 440.069 69.184 439.631 68.928C439.205 68.672 438.698 68.544 438.111 68.544C437.663 68.544 437.269 68.6133 436.927 68.752C436.597 68.88 436.335 69.0613 436.143 69.296C435.962 69.52 435.871 69.7813 435.871 70.08C435.871 70.3893 435.978 70.672 436.191 70.928C436.405 71.1733 436.783 71.3547 437.327 71.472L439.247 71.888C440.005 72.048 440.533 72.2933 440.831 72.624C441.13 72.944 441.279 73.344 441.279 73.824C441.279 74.304 441.151 74.72 440.895 75.072C440.639 75.424 440.277 75.696 439.807 75.888C439.338 76.0693 438.789 76.16 438.159 76.16ZM154.32 89.736C154.32 89.0427 154.133 88.504 153.76 88.12C153.387 87.736 152.853 87.544 152.16 87.544C151.552 87.544 151.029 87.6773 150.592 87.944C150.155 88.2 149.829 88.632 149.616 89.24L148.96 88.824C149.195 88.1947 149.584 87.7093 150.128 87.368C150.683 87.016 151.365 86.84 152.176 86.84C152.763 86.84 153.275 86.9467 153.712 87.16C154.16 87.3627 154.507 87.6667 154.752 88.072C154.997 88.4773 155.12 88.984 155.12 89.592V93.592C155.12 94.1573 155.376 94.44 155.888 94.44C156.112 94.44 156.304 94.4027 156.464 94.328L156.416 94.968C156.235 95.064 156 95.112 155.712 95.112C155.467 95.112 155.237 95.064 155.024 94.968C154.811 94.872 154.635 94.712 154.496 94.488C154.368 94.264 154.304 93.96 154.304 93.576V93.144L154.528 93.128C154.432 93.5867 154.219 93.9707 153.888 94.28C153.568 94.5787 153.195 94.8027 152.768 94.952C152.341 95.0907 151.915 95.16 151.488 95.16C150.987 95.16 150.539 95.08 150.144 94.92C149.749 94.76 149.44 94.5307 149.216 94.232C148.992 93.9227 148.88 93.544 148.88 93.096C148.88 92.4987 149.077 92.0187 149.472 91.656C149.877 91.2827 150.443 91.0267 151.168 90.888L154.48 90.232V90.904L151.568 91.48C150.939 91.608 150.469 91.7947 150.16 92.04C149.851 92.2853 149.696 92.6213 149.696 93.048C149.696 93.4853 149.861 93.832 150.192 94.088C150.523 94.3333 150.992 94.456 151.6 94.456C151.909 94.456 152.224 94.4133 152.544 94.328C152.864 94.2427 153.157 94.1093 153.424 93.928C153.701 93.736 153.92 93.5013 154.08 93.224C154.24 92.936 154.32 92.5893 154.32 92.184V89.736ZM158.112 95V87H158.832L158.896 89L158.768 88.888C158.917 88.4507 159.141 88.0827 159.44 87.784C159.738 87.4747 160.096 87.24 160.512 87.08C160.928 86.92 161.376 86.84 161.856 86.84C162.453 86.84 162.981 86.952 163.44 87.176C163.898 87.4 164.256 87.7307 164.512 88.168C164.778 88.6053 164.911 89.1547 164.911 89.816V95H164.112V90.072C164.112 89.1973 163.893 88.5573 163.456 88.152C163.029 87.7467 162.469 87.544 161.776 87.544C161.274 87.544 160.805 87.6613 160.368 87.896C159.941 88.12 159.589 88.4507 159.312 88.888C159.045 89.3253 158.912 89.8587 158.912 90.488V95H158.112ZM175.954 86.84C176.7 86.84 177.356 87.0053 177.922 87.336C178.498 87.6667 178.946 88.1467 179.266 88.776C179.596 89.3947 179.762 90.136 179.762 91C179.762 91.864 179.596 92.6107 179.266 93.24C178.946 93.8587 178.498 94.3333 177.922 94.664C177.356 94.9947 176.7 95.16 175.954 95.16C175.207 95.16 174.546 94.9947 173.97 94.664C173.404 94.3333 172.956 93.8587 172.626 93.24C172.306 92.6107 172.146 91.864 172.146 91C172.146 90.136 172.306 89.3947 172.626 88.776C172.956 88.1467 173.404 87.6667 173.97 87.336C174.546 87.0053 175.207 86.84 175.954 86.84ZM175.954 87.528C175.346 87.528 174.818 87.6667 174.37 87.944C173.922 88.2213 173.57 88.6213 173.314 89.144C173.068 89.656 172.946 90.2747 172.946 91C172.946 91.7147 173.068 92.3333 173.314 92.856C173.57 93.3787 173.922 93.7787 174.37 94.056C174.818 94.3333 175.346 94.472 175.954 94.472C176.562 94.472 177.09 94.3333 177.538 94.056C177.986 93.7787 178.332 93.3787 178.578 92.856C178.834 92.3333 178.962 91.7147 178.962 91C178.962 90.2747 178.834 89.656 178.578 89.144C178.332 88.6213 177.986 88.2213 177.538 87.944C177.09 87.6667 176.562 87.528 175.954 87.528ZM182.049 98.36V87H182.769L182.833 89.224L182.721 89.096C182.86 88.6373 183.073 88.2373 183.361 87.896C183.66 87.5547 184.022 87.2933 184.449 87.112C184.876 86.9307 185.34 86.84 185.841 86.84C186.524 86.84 187.137 87.0053 187.681 87.336C188.225 87.6667 188.657 88.1413 188.977 88.76C189.297 89.3787 189.457 90.1253 189.457 91C189.457 91.864 189.297 92.6107 188.977 93.24C188.657 93.8587 188.22 94.3333 187.665 94.664C187.121 94.9947 186.502 95.16 185.809 95.16C185.073 95.16 184.433 94.968 183.889 94.584C183.345 94.1893 182.966 93.6613 182.753 93L182.849 92.856V98.36H182.049ZM185.713 94.456C186.62 94.456 187.334 94.1467 187.857 93.528C188.39 92.9093 188.657 92.0667 188.657 91C188.657 89.9333 188.396 89.0907 187.873 88.472C187.35 87.8533 186.641 87.544 185.745 87.544C185.18 87.544 184.678 87.688 184.241 87.976C183.814 88.2533 183.473 88.6533 183.217 89.176C182.972 89.688 182.849 90.296 182.849 91C182.849 91.6933 182.972 92.3013 183.217 92.824C183.462 93.3467 183.798 93.752 184.225 94.04C184.662 94.3173 185.158 94.456 185.713 94.456ZM191.768 98.36V87H192.488L192.552 89.224L192.44 89.096C192.578 88.6373 192.792 88.2373 193.08 87.896C193.378 87.5547 193.741 87.2933 194.168 87.112C194.594 86.9307 195.058 86.84 195.56 86.84C196.242 86.84 196.856 87.0053 197.4 87.336C197.944 87.6667 198.376 88.1413 198.696 88.76C199.016 89.3787 199.176 90.1253 199.176 91C199.176 91.864 199.016 92.6107 198.696 93.24C198.376 93.8587 197.938 94.3333 197.384 94.664C196.84 94.9947 196.221 95.16 195.528 95.16C194.792 95.16 194.152 94.968 193.608 94.584C193.064 94.1893 192.685 93.6613 192.472 93L192.568 92.856V98.36H191.768ZM195.432 94.456C196.338 94.456 197.053 94.1467 197.576 93.528C198.109 92.9093 198.376 92.0667 198.376 91C198.376 89.9333 198.114 89.0907 197.592 88.472C197.069 87.8533 196.36 87.544 195.464 87.544C194.898 87.544 194.397 87.688 193.96 87.976C193.533 88.2533 193.192 88.6533 192.936 89.176C192.69 89.688 192.568 90.296 192.568 91C192.568 91.6933 192.69 92.3013 192.936 92.824C193.181 93.3467 193.517 93.752 193.944 94.04C194.381 94.3173 194.877 94.456 195.432 94.456ZM204.751 86.84C205.497 86.84 206.153 87.0053 206.719 87.336C207.295 87.6667 207.743 88.1467 208.062 88.776C208.393 89.3947 208.559 90.136 208.559 91C208.559 91.864 208.393 92.6107 208.062 93.24C207.743 93.8587 207.295 94.3333 206.719 94.664C206.153 94.9947 205.497 95.16 204.751 95.16C204.004 95.16 203.343 94.9947 202.767 94.664C202.201 94.3333 201.753 93.8587 201.423 93.24C201.103 92.6107 200.943 91.864 200.943 91C200.943 90.136 201.103 89.3947 201.423 88.776C201.753 88.1467 202.201 87.6667 202.767 87.336C203.343 87.0053 204.004 86.84 204.751 86.84ZM204.751 87.528C204.143 87.528 203.615 87.6667 203.167 87.944C202.719 88.2213 202.367 88.6213 202.111 89.144C201.865 89.656 201.743 90.2747 201.743 91C201.743 91.7147 201.865 92.3333 202.111 92.856C202.367 93.3787 202.719 93.7787 203.167 94.056C203.615 94.3333 204.143 94.472 204.751 94.472C205.359 94.472 205.887 94.3333 206.335 94.056C206.783 93.7787 207.129 93.3787 207.375 92.856C207.631 92.3333 207.759 91.7147 207.759 91C207.759 90.2747 207.631 89.656 207.375 89.144C207.129 88.6213 206.783 88.2213 206.335 87.944C205.887 87.6667 205.359 87.528 204.751 87.528ZM210.846 95V87H211.518L211.614 88.68C211.817 88.1147 212.142 87.6667 212.59 87.336C213.038 87.0053 213.577 86.84 214.206 86.84C214.419 86.84 214.611 86.8613 214.782 86.904C214.953 86.9467 215.091 87.016 215.198 87.112L215.022 87.816C214.905 87.7413 214.777 87.6827 214.638 87.64C214.499 87.5973 214.291 87.576 214.014 87.576C213.609 87.576 213.225 87.704 212.862 87.96C212.499 88.2053 212.206 88.552 211.982 89C211.758 89.4373 211.646 89.944 211.646 90.52V95H210.846ZM217.955 84.776V92.888C217.955 93.3893 218.072 93.7733 218.307 94.04C218.552 94.296 218.904 94.424 219.363 94.424C219.662 94.424 219.923 94.376 220.147 94.28C220.382 94.1733 220.59 94.024 220.771 93.832L221.075 94.488C220.872 94.6907 220.616 94.856 220.307 94.984C219.998 95.1013 219.651 95.16 219.267 95.16C218.851 95.16 218.483 95.0853 218.163 94.936C217.843 94.776 217.592 94.536 217.411 94.216C217.24 93.896 217.155 93.4907 217.155 93V85L217.955 84.776ZM220.947 87V87.688H215.555V87H220.947ZM225.474 95.16C224.92 95.16 224.424 95.0587 223.986 94.856C223.549 94.6533 223.202 94.3387 222.946 93.912C222.701 93.4747 222.578 92.9307 222.578 92.28V87H223.378V92.088C223.378 92.92 223.576 93.5227 223.97 93.896C224.376 94.2693 224.941 94.456 225.666 94.456C226.093 94.456 226.477 94.3813 226.818 94.232C227.17 94.0827 227.469 93.8747 227.714 93.608C227.96 93.3413 228.146 93.0373 228.274 92.696C228.413 92.3547 228.482 91.9867 228.482 91.592V87H229.282V95H228.562L228.53 93.352C228.296 93.9173 227.912 94.36 227.378 94.68C226.845 95 226.21 95.16 225.474 95.16ZM232.127 95V87H232.847L232.911 89L232.783 88.888C232.932 88.4507 233.156 88.0827 233.455 87.784C233.754 87.4747 234.111 87.24 234.527 87.08C234.943 86.92 235.391 86.84 235.871 86.84C236.468 86.84 236.996 86.952 237.455 87.176C237.914 87.4 238.271 87.7307 238.527 88.168C238.794 88.6053 238.927 89.1547 238.927 89.816V95H238.127V90.072C238.127 89.1973 237.908 88.5573 237.471 88.152C237.044 87.7467 236.484 87.544 235.791 87.544C235.29 87.544 234.82 87.6613 234.383 87.896C233.956 88.12 233.604 88.4507 233.327 88.888C233.06 89.3253 232.927 89.8587 232.927 90.488V95H232.127ZM242.09 85.448C241.887 85.448 241.722 85.3893 241.594 85.272C241.476 85.144 241.418 84.9787 241.418 84.776C241.418 84.5733 241.476 84.4133 241.594 84.296C241.722 84.168 241.887 84.104 242.09 84.104C242.292 84.104 242.452 84.168 242.57 84.296C242.698 84.4133 242.762 84.5733 242.762 84.776C242.762 84.9787 242.698 85.144 242.57 85.272C242.452 85.3893 242.292 85.448 242.09 85.448ZM242.49 87V95H241.69V87H242.49ZM246.658 84.776V92.888C246.658 93.3893 246.776 93.7733 247.01 94.04C247.256 94.296 247.608 94.424 248.066 94.424C248.365 94.424 248.626 94.376 248.85 94.28C249.085 94.1733 249.293 94.024 249.474 93.832L249.778 94.488C249.576 94.6907 249.32 94.856 249.01 94.984C248.701 95.1013 248.354 95.16 247.97 95.16C247.554 95.16 247.186 95.0853 246.866 94.936C246.546 94.776 246.296 94.536 246.114 94.216C245.944 93.896 245.858 93.4907 245.858 93V85L246.658 84.776ZM249.65 87V87.688H244.258V87H249.65ZM257.666 87L253.794 96.472C253.602 96.9627 253.394 97.352 253.17 97.64C252.946 97.928 252.695 98.1307 252.418 98.248C252.14 98.376 251.82 98.44 251.458 98.44C251.138 98.44 250.844 98.392 250.578 98.296C250.311 98.2 250.092 98.0667 249.921 97.896L250.178 97.208C250.338 97.4 250.53 97.5333 250.754 97.608C250.978 97.6933 251.207 97.736 251.442 97.736C251.783 97.736 252.087 97.6347 252.354 97.432C252.62 97.24 252.871 96.856 253.106 96.28L253.634 95L252.786 93.016L250.258 87H251.17L253.618 93.064L254.018 94.136L254.45 92.984L256.802 87H257.666ZM266.602 83.24C266.89 83.24 267.146 83.2773 267.37 83.352C267.594 83.4267 267.77 83.5333 267.898 83.672L267.674 84.312C267.535 84.184 267.386 84.0933 267.226 84.04C267.066 83.9867 266.879 83.96 266.666 83.96C266.143 83.96 265.738 84.1093 265.45 84.408C265.162 84.7067 265.018 85.1493 265.018 85.736V87V87.288V95H264.218V85.656C264.218 85.2933 264.266 84.9627 264.362 84.664C264.469 84.3653 264.623 84.1147 264.826 83.912C265.029 83.6987 265.279 83.5333 265.578 83.416C265.877 83.2987 266.218 83.24 266.602 83.24ZM267.834 87V87.688H262.618V87H267.834ZM272.344 86.84C273.091 86.84 273.747 87.0053 274.312 87.336C274.888 87.6667 275.336 88.1467 275.656 88.776C275.987 89.3947 276.152 90.136 276.152 91C276.152 91.864 275.987 92.6107 275.656 93.24C275.336 93.8587 274.888 94.3333 274.312 94.664C273.747 94.9947 273.091 95.16 272.344 95.16C271.598 95.16 270.936 94.9947 270.36 94.664C269.795 94.3333 269.347 93.8587 269.016 93.24C268.696 92.6107 268.536 91.864 268.536 91C268.536 90.136 268.696 89.3947 269.016 88.776C269.347 88.1467 269.795 87.6667 270.36 87.336C270.936 87.0053 271.598 86.84 272.344 86.84ZM272.344 87.528C271.736 87.528 271.208 87.6667 270.76 87.944C270.312 88.2213 269.96 88.6213 269.704 89.144C269.459 89.656 269.336 90.2747 269.336 91C269.336 91.7147 269.459 92.3333 269.704 92.856C269.96 93.3787 270.312 93.7787 270.76 94.056C271.208 94.3333 271.736 94.472 272.344 94.472C272.952 94.472 273.48 94.3333 273.928 94.056C274.376 93.7787 274.723 93.3787 274.968 92.856C275.224 92.3333 275.352 91.7147 275.352 91C275.352 90.2747 275.224 89.656 274.968 89.144C274.723 88.6213 274.376 88.2213 273.928 87.944C273.48 87.6667 272.952 87.528 272.344 87.528ZM278.44 95V87H279.112L279.208 88.68C279.41 88.1147 279.736 87.6667 280.184 87.336C280.632 87.0053 281.17 86.84 281.8 86.84C282.013 86.84 282.205 86.8613 282.376 86.904C282.546 86.9467 282.685 87.016 282.792 87.112L282.616 87.816C282.498 87.7413 282.37 87.6827 282.232 87.64C282.093 87.5973 281.885 87.576 281.608 87.576C281.202 87.576 280.818 87.704 280.456 87.96C280.093 88.2053 279.8 88.552 279.576 89C279.352 89.4373 279.24 89.944 279.24 90.52V95H278.44ZM289.112 95V87H289.784L289.88 88.68C290.082 88.1147 290.408 87.6667 290.856 87.336C291.304 87.0053 291.842 86.84 292.472 86.84C292.685 86.84 292.877 86.8613 293.048 86.904C293.218 86.9467 293.357 87.016 293.464 87.112L293.288 87.816C293.17 87.7413 293.042 87.6827 292.904 87.64C292.765 87.5973 292.557 87.576 292.28 87.576C291.874 87.576 291.49 87.704 291.128 87.96C290.765 88.2053 290.472 88.552 290.248 89C290.024 89.4373 289.912 89.944 289.912 90.52V95H289.112ZM298.047 95.16C297.311 95.16 296.655 94.9947 296.079 94.664C295.503 94.3333 295.05 93.8587 294.719 93.24C294.399 92.6107 294.239 91.864 294.239 91C294.239 90.136 294.399 89.3947 294.719 88.776C295.05 88.1467 295.493 87.6667 296.047 87.336C296.602 87.0053 297.237 86.84 297.951 86.84C298.677 86.84 299.295 87 299.807 87.32C300.319 87.64 300.714 88.088 300.991 88.664C301.269 89.2293 301.407 89.8853 301.407 90.632C301.407 90.728 301.402 90.824 301.391 90.92C301.391 91.0053 301.386 91.0853 301.375 91.16H294.735V90.44H301.023L300.623 90.552C300.613 89.6347 300.367 88.904 299.887 88.36C299.418 87.816 298.767 87.544 297.935 87.544C297.359 87.544 296.853 87.6827 296.415 87.96C295.978 88.2267 295.637 88.6213 295.391 89.144C295.146 89.656 295.023 90.2747 295.023 91C295.023 91.7147 295.146 92.3333 295.391 92.856C295.647 93.3787 295.999 93.7787 296.447 94.056C296.906 94.3227 297.434 94.456 298.031 94.456C298.65 94.456 299.178 94.3227 299.615 94.056C300.063 93.7893 300.41 93.4213 300.655 92.952L301.295 93.32C301.103 93.704 300.847 94.0347 300.527 94.312C300.207 94.5787 299.839 94.7867 299.423 94.936C299.007 95.0853 298.549 95.16 298.047 95.16ZM306.54 83.24C306.828 83.24 307.084 83.2773 307.308 83.352C307.532 83.4267 307.708 83.5333 307.836 83.672L307.612 84.312C307.473 84.184 307.324 84.0933 307.164 84.04C307.004 83.9867 306.817 83.96 306.604 83.96C306.081 83.96 305.676 84.1093 305.388 84.408C305.1 84.7067 304.956 85.1493 304.956 85.736V87V87.288V95H304.156V85.656C304.156 85.2933 304.204 84.9627 304.299 84.664C304.406 84.3653 304.561 84.1147 304.764 83.912C304.966 83.6987 305.217 83.5333 305.516 83.416C305.814 83.2987 306.156 83.24 306.54 83.24ZM307.772 87V87.688H302.556V87H307.772ZM310.092 83.32V93.112C310.092 93.6027 310.177 93.9493 310.348 94.152C310.518 94.3547 310.785 94.456 311.148 94.456C311.372 94.456 311.548 94.44 311.676 94.408C311.814 94.376 311.974 94.3227 312.156 94.248L312.044 94.952C311.905 95.016 311.745 95.064 311.564 95.096C311.393 95.1387 311.201 95.16 310.988 95.16C310.422 95.16 309.996 95 309.708 94.68C309.43 94.3493 309.292 93.8373 309.292 93.144V83.32H310.092ZM316.922 95.16C316.186 95.16 315.53 94.9947 314.954 94.664C314.378 94.3333 313.925 93.8587 313.594 93.24C313.274 92.6107 313.114 91.864 313.114 91C313.114 90.136 313.274 89.3947 313.594 88.776C313.925 88.1467 314.368 87.6667 314.922 87.336C315.477 87.0053 316.112 86.84 316.826 86.84C317.552 86.84 318.17 87 318.682 87.32C319.194 87.64 319.589 88.088 319.866 88.664C320.144 89.2293 320.282 89.8853 320.282 90.632C320.282 90.728 320.277 90.824 320.266 90.92C320.266 91.0053 320.261 91.0853 320.25 91.16H313.61V90.44H319.898L319.498 90.552C319.488 89.6347 319.242 88.904 318.762 88.36C318.293 87.816 317.642 87.544 316.81 87.544C316.234 87.544 315.728 87.6827 315.29 87.96C314.853 88.2267 314.512 88.6213 314.266 89.144C314.021 89.656 313.898 90.2747 313.898 91C313.898 91.7147 314.021 92.3333 314.266 92.856C314.522 93.3787 314.874 93.7787 315.322 94.056C315.781 94.3227 316.309 94.456 316.906 94.456C317.525 94.456 318.053 94.3227 318.49 94.056C318.938 93.7893 319.285 93.4213 319.53 92.952L320.17 93.32C319.978 93.704 319.722 94.0347 319.402 94.312C319.082 94.5787 318.714 94.7867 318.298 94.936C317.882 95.0853 317.424 95.16 316.922 95.16ZM325.797 86.84C326.341 86.84 326.826 86.9253 327.253 87.096C327.679 87.2667 328.042 87.512 328.341 87.832C328.639 88.152 328.869 88.5413 329.029 89L328.277 89.352C328.106 88.776 327.807 88.3333 327.381 88.024C326.965 87.704 326.431 87.544 325.781 87.544C325.194 87.544 324.677 87.6827 324.229 87.96C323.781 88.2267 323.434 88.6213 323.189 89.144C322.943 89.656 322.821 90.2747 322.821 91C322.821 91.7147 322.943 92.3333 323.189 92.856C323.434 93.3787 323.775 93.7787 324.213 94.056C324.65 94.3227 325.167 94.456 325.765 94.456C326.213 94.456 326.618 94.3813 326.981 94.232C327.354 94.0827 327.658 93.864 327.893 93.576C328.138 93.288 328.298 92.9467 328.373 92.552L329.109 92.808C328.97 93.2987 328.741 93.72 328.421 94.072C328.111 94.424 327.733 94.696 327.285 94.888C326.837 95.0693 326.335 95.16 325.781 95.16C325.055 95.16 324.405 94.9947 323.829 94.664C323.263 94.3333 322.821 93.8587 322.501 93.24C322.181 92.6107 322.021 91.864 322.021 91C322.021 90.136 322.181 89.3947 322.501 88.776C322.831 88.1467 323.279 87.6667 323.845 87.336C324.421 87.0053 325.071 86.84 325.797 86.84ZM332.58 84.776V92.888C332.58 93.3893 332.697 93.7733 332.932 94.04C333.177 94.296 333.529 94.424 333.988 94.424C334.287 94.424 334.548 94.376 334.772 94.28C335.007 94.1733 335.215 94.024 335.396 93.832L335.7 94.488C335.497 94.6907 335.241 94.856 334.932 94.984C334.623 95.1013 334.276 95.16 333.892 95.16C333.476 95.16 333.108 95.0853 332.788 94.936C332.468 94.776 332.217 94.536 332.036 94.216C331.865 93.896 331.78 93.4907 331.78 93V85L332.58 84.776ZM335.572 87V87.688H330.18V87H335.572ZM337.683 85.448C337.481 85.448 337.315 85.3893 337.187 85.272C337.07 85.144 337.011 84.9787 337.011 84.776C337.011 84.5733 337.07 84.4133 337.187 84.296C337.315 84.168 337.481 84.104 337.683 84.104C337.886 84.104 338.046 84.168 338.163 84.296C338.291 84.4133 338.355 84.5733 338.355 84.776C338.355 84.9787 338.291 85.144 338.163 85.272C338.046 85.3893 337.886 85.448 337.683 85.448ZM338.083 87V95H337.283V87H338.083ZM344.188 86.84C344.935 86.84 345.591 87.0053 346.156 87.336C346.732 87.6667 347.18 88.1467 347.5 88.776C347.831 89.3947 347.996 90.136 347.996 91C347.996 91.864 347.831 92.6107 347.5 93.24C347.18 93.8587 346.732 94.3333 346.156 94.664C345.591 94.9947 344.935 95.16 344.188 95.16C343.441 95.16 342.78 94.9947 342.204 94.664C341.639 94.3333 341.191 93.8587 340.86 93.24C340.54 92.6107 340.38 91.864 340.38 91C340.38 90.136 340.54 89.3947 340.86 88.776C341.191 88.1467 341.639 87.6667 342.204 87.336C342.78 87.0053 343.441 86.84 344.188 86.84ZM344.188 87.528C343.58 87.528 343.052 87.6667 342.604 87.944C342.156 88.2213 341.804 88.6213 341.548 89.144C341.303 89.656 341.18 90.2747 341.18 91C341.18 91.7147 341.303 92.3333 341.548 92.856C341.804 93.3787 342.156 93.7787 342.604 94.056C343.052 94.3333 343.58 94.472 344.188 94.472C344.796 94.472 345.324 94.3333 345.772 94.056C346.22 93.7787 346.567 93.3787 346.812 92.856C347.068 92.3333 347.196 91.7147 347.196 91C347.196 90.2747 347.068 89.656 346.812 89.144C346.567 88.6213 346.22 88.2213 345.772 87.944C345.324 87.6667 344.796 87.528 344.188 87.528ZM350.283 95V87H351.003L351.067 89L350.939 88.888C351.089 88.4507 351.313 88.0827 351.611 87.784C351.91 87.4747 352.267 87.24 352.683 87.08C353.099 86.92 353.547 86.84 354.027 86.84C354.625 86.84 355.153 86.952 355.611 87.176C356.07 87.4 356.427 87.7307 356.683 88.168C356.95 88.6053 357.083 89.1547 357.083 89.816V95H356.283V90.072C356.283 89.1973 356.065 88.5573 355.627 88.152C355.201 87.7467 354.641 87.544 353.947 87.544C353.446 87.544 352.977 87.6613 352.539 87.896C352.113 88.12 351.761 88.4507 351.483 88.888C351.217 89.3253 351.083 89.8587 351.083 90.488V95H350.283ZM360.182 93.688C360.395 93.688 360.566 93.7573 360.694 93.896C360.833 94.024 360.902 94.1947 360.902 94.408C360.902 94.6213 360.833 94.7973 360.694 94.936C360.566 95.064 360.395 95.128 360.182 95.128C359.969 95.128 359.793 95.064 359.654 94.936C359.526 94.7973 359.462 94.6213 359.462 94.408C359.462 94.1947 359.526 94.024 359.654 93.896C359.793 93.7573 359.969 93.688 360.182 93.688Z" fill="#303030"/>
<path d="M88.0003 97.3333C106.334 97.3333 121.334 82.3333 121.334 64C121.334 45.6666 106.334 30.6666 88.0003 30.6666C69.667 30.6666 54.667 45.6666 54.667 64C54.667 82.3333 69.667 97.3333 88.0003 97.3333Z" stroke="#303030" stroke-width="2" stroke-linecap="round" stroke-linejoin="round"/>
<path d="M78.5664 73.4333L97.4331 54.5667" stroke="#303030" stroke-width="2" stroke-linecap="round" stroke-linejoin="round"/>
<path d="M97.4331 73.4333L78.5664 54.5667" stroke="#303030" stroke-width="2" stroke-linecap="round" stroke-linejoin="round"/>
</svg>
