<svg width="436" height="70" viewBox="0 0 436 70" fill="none" xmlns="http://www.w3.org/2000/svg">
<g clip-path="url(#clip0_2547_18059)">
<path d="M34.6094 69.2187C53.7236 69.2187 69.2187 53.7236 69.2187 34.6094C69.2187 15.4951 53.7236 0 34.6094 0C15.4951 0 0 15.4951 0 34.6094C0 53.7236 15.4951 69.2187 34.6094 69.2187Z" fill="#3399FF"/>
<path d="M35.6313 4.30511L35.6371 4.26422H32.6347L30.9641 7.96173L22.8214 25.9586C21.5948 25.5672 20.298 25.3628 18.9545 25.3628C14.0829 25.3628 9.813 28.0848 7.45314 32.162C7.40057 32.2554 7.52324 32.3431 7.59917 32.2671C10.0058 29.8839 13.2477 28.4236 16.8167 28.4236C18.4055 28.4236 19.9242 28.7098 21.3378 29.2414L11.4135 51.1869L9.85389 54.6332L8.59802 57.4137C9.57351 58.4885 10.6133 59.5048 11.7172 60.4511L13.6098 56.263L15.0818 53.0152L24.9068 31.2858C24.8659 31.2508 24.825 31.2157 24.7899 31.1807C24.8308 31.2099 24.8717 31.2391 24.9126 31.2741C25.6252 31.8349 26.2795 32.4774 26.8753 33.1784C28.4115 34.7847 30.5085 37.2497 32.366 40.3981C32.5354 40.6844 32.699 40.9764 32.8625 41.2743C32.8625 41.2743 34.7843 44.2884 35.7481 45.7954C38.365 49.8843 42.413 56.0527 51.2157 58.9674C55.1878 60.2817 57.8864 59.3121 57.8864 59.3121C58.0441 59.2303 58.0149 59.0025 57.8397 58.9616C29.9069 52.2208 35.6313 4.30511 35.6313 4.30511ZM31.8812 33.6515C30.9758 32.419 30.0996 31.3676 29.3403 30.5206C29.3344 30.5148 29.3286 30.5089 29.3286 30.5031C28.2947 29.3582 27.4711 28.5872 27.0739 28.2308C27.068 28.2192 27.0622 28.2133 27.0563 28.2133C26.8694 28.0673 26.6825 27.9212 26.4897 27.7869L31.8695 15.9058C31.8403 19.0192 31.9805 22.67 32.4595 26.5369C32.991 30.8594 33.9548 35.4623 35.5846 39.89C34.4514 37.4717 33.1371 35.3805 31.8812 33.6515Z" fill="white"/>
<path d="M34.609 38.812L31.8812 33.6515M31.8812 33.6515C30.9758 32.419 30.0996 31.3676 29.3403 30.5206C29.3344 30.5148 29.3286 30.5089 29.3286 30.5031C28.2947 29.3582 27.4711 28.5872 27.0739 28.2308C27.068 28.2192 27.0622 28.2133 27.0563 28.2133C26.8694 28.0673 26.6825 27.9212 26.4897 27.7869L31.8695 15.9058C31.8403 19.0192 31.9805 22.67 32.4595 26.5369C32.991 30.8594 33.9548 35.4623 35.5846 39.89C34.4514 37.4717 33.1371 35.3805 31.8812 33.6515ZM35.6313 4.30511L35.6371 4.26422H32.6347L30.9641 7.96173L22.8214 25.9586C21.5948 25.5672 20.298 25.3628 18.9545 25.3628C14.0829 25.3628 9.813 28.0848 7.45314 32.162C7.40057 32.2554 7.52324 32.3431 7.59917 32.2671C10.0058 29.8839 13.2477 28.4236 16.8167 28.4236C18.4055 28.4236 19.9242 28.7098 21.3378 29.2414L11.4135 51.1869L9.85389 54.6332L8.59802 57.4137C9.57351 58.4885 10.6133 59.5048 11.7172 60.4511L13.6098 56.263L15.0818 53.0152L24.9068 31.2858C24.8659 31.2508 24.825 31.2157 24.7899 31.1807C24.8308 31.2099 24.8717 31.2391 24.9126 31.2741C25.6252 31.8349 26.2795 32.4774 26.8753 33.1784C28.4115 34.7847 30.5085 37.2497 32.366 40.3981C32.5354 40.6844 32.699 40.9764 32.8625 41.2743C32.8625 41.2743 34.7843 44.2884 35.7481 45.7954C38.365 49.8843 42.413 56.0527 51.2157 58.9674C55.1878 60.2817 57.8864 59.3121 57.8864 59.3121C58.0441 59.2303 58.0149 59.0025 57.8397 58.9616C29.9069 52.2208 35.6313 4.30511 35.6313 4.30511Z" stroke="white" stroke-width="0.584124" stroke-miterlimit="10"/>
<path d="M116.228 43.8254H97.0739L92.7329 55.6717H88.9951L104.955 13.4879H108.347L124.307 55.6717H120.598L116.228 43.8254ZM98.1814 40.8095H115.1L106.646 17.8387L98.1913 40.8095H98.1814Z" fill="#3399FF"/>
<path d="M132.85 24.3254L132.969 29.4278C134.126 27.5391 135.579 26.1152 137.31 25.1659C139.05 24.2166 140.978 23.742 143.104 23.742C148.049 23.742 151.183 25.7691 152.518 29.8234C153.636 27.8754 155.139 26.3723 157.008 25.3143C158.876 24.2661 160.943 23.7321 163.208 23.7321C169.932 23.7321 173.353 27.4007 173.491 34.7379V55.6518H170.011V34.995C169.991 32.1966 169.388 30.12 168.201 28.7653C167.015 27.4106 165.076 26.7382 162.397 26.7382C159.905 26.7777 157.799 27.5787 156.078 29.1608C154.357 30.7331 153.398 32.6514 153.21 34.9159V55.6617H149.73V34.7478C149.71 32.068 149.077 30.0607 147.831 28.7356C146.585 27.4106 144.667 26.7481 142.076 26.7481C139.891 26.7481 138.022 27.371 136.459 28.617C134.897 29.8629 133.74 31.712 132.979 34.1644V55.6617H129.498V24.3155H132.83L132.85 24.3254Z" fill="#3399FF"/>
<path d="M180.364 39.5437C180.364 36.5278 180.948 33.8183 182.115 31.4056C183.281 28.9928 184.933 27.114 187.069 25.7692C189.204 24.4244 191.617 23.752 194.327 23.752C198.5 23.752 201.881 25.2154 204.462 28.1424C207.043 31.0694 208.348 34.9456 208.348 39.7711V40.493C208.348 43.5287 207.765 46.2579 206.598 48.6806C205.431 51.1032 203.78 52.9721 201.654 54.2873C199.528 55.6025 197.105 56.2551 194.386 56.2551C190.233 56.2551 186.861 54.7916 184.26 51.8646C181.66 48.9377 180.364 45.0614 180.364 40.2359V39.5437ZM183.845 40.5029C183.845 44.2506 184.814 47.3259 186.752 49.7288C188.69 52.1316 191.241 53.338 194.386 53.338C197.531 53.338 200.052 52.1316 201.99 49.7288C203.928 47.3259 204.897 44.1517 204.897 40.2161V39.5536C204.897 37.1606 204.452 34.9654 203.562 32.9778C202.672 30.9903 201.427 29.4477 199.825 28.3599C198.223 27.2722 196.383 26.7185 194.317 26.7185C191.232 26.7185 188.71 27.9347 186.752 30.3574C184.804 32.7801 183.825 35.9542 183.825 39.87V40.5029H183.845Z" fill="#3399FF"/>
<path d="M220.896 16.3059V24.3353H227.383V27.1732H220.896V48.0872C220.896 49.8275 221.212 51.1229 221.835 51.9733C222.458 52.8237 223.506 53.2489 224.98 53.2489C225.563 53.2489 226.493 53.15 227.788 52.9622L227.936 55.7803C227.027 56.1067 225.791 56.2649 224.228 56.2649C221.855 56.2649 220.125 55.5727 219.047 54.1982C217.969 52.8237 217.425 50.7867 217.425 48.0971V27.1831H211.66V24.3452H217.425V16.3158H220.906L220.896 16.3059Z" fill="#3399FF"/>
<path d="M234.364 15.2775C234.364 14.6249 234.572 14.0711 234.997 13.6261C235.422 13.1713 236.006 12.9537 236.737 12.9537C237.469 12.9537 238.053 13.1812 238.488 13.6261C238.923 14.081 239.14 14.6249 239.14 15.2775C239.14 15.9301 238.923 16.474 238.488 16.919C238.053 17.364 237.469 17.5815 236.737 17.5815C236.006 17.5815 235.422 17.364 234.997 16.919C234.572 16.474 234.364 15.9301 234.364 15.2775ZM238.448 55.6716H234.967V24.3254H238.448V55.6716Z" fill="#3399FF"/>
<path d="M245.953 39.5437C245.953 36.5278 246.537 33.8183 247.703 31.4056C248.87 28.9928 250.522 27.114 252.657 25.7692C254.793 24.4244 257.206 23.752 259.916 23.752C264.088 23.752 267.47 25.2154 270.051 28.1424C272.632 31.0694 273.937 34.9456 273.937 39.7711V40.493C273.937 43.5287 273.354 46.2579 272.187 48.6806C271.02 51.1032 269.369 52.9721 267.243 54.2873C265.117 55.6025 262.694 56.2551 259.975 56.2551C255.822 56.2551 252.45 54.7916 249.849 51.8646C247.249 48.9377 245.953 45.0614 245.953 40.2359V39.5437ZM249.434 40.5029C249.434 44.2506 250.403 47.3259 252.341 49.7288C254.279 52.1316 256.83 53.338 259.975 53.338C263.119 53.338 265.641 52.1316 267.579 49.7288C269.517 47.3259 270.486 44.1517 270.486 40.2161V39.5536C270.486 37.1606 270.041 34.9654 269.151 32.9778C268.261 30.9903 267.015 29.4477 265.413 28.3599C263.812 27.2722 261.972 26.7185 259.906 26.7185C256.82 26.7185 254.299 27.9347 252.341 30.3574C250.393 32.7801 249.414 35.9542 249.414 39.87V40.5029H249.434Z" fill="#3399FF"/>
<path d="M284.39 24.3254L284.508 29.6849C285.685 27.7567 287.159 26.2833 288.909 25.2648C290.659 24.2463 292.607 23.742 294.733 23.742C298.095 23.742 300.597 24.6913 302.238 26.58C303.88 28.4785 304.71 31.3165 304.73 35.0939V55.6617H301.279V35.0642C301.259 32.2658 300.666 30.1793 299.499 28.8049C298.332 27.4304 296.464 26.7481 293.893 26.7481C291.747 26.7481 289.848 27.4205 288.197 28.7653C286.545 30.1101 285.319 31.9197 284.528 34.194V55.6617H281.077V24.3155H284.38L284.39 24.3254Z" fill="#3399FF"/>
<path d="M332.457 47.7115C332.457 45.9909 331.765 44.6164 330.39 43.5682C329.016 42.5201 326.929 41.7092 324.151 41.1159C321.372 40.5226 319.207 39.8502 317.674 39.0888C316.141 38.3274 314.994 37.3979 314.252 36.2904C313.511 35.1829 313.135 33.8578 313.135 32.2955C313.135 29.8234 314.163 27.7765 316.23 26.1647C318.297 24.5529 320.947 23.742 324.171 23.742C327.671 23.742 330.469 24.6023 332.586 26.3328C334.702 28.0632 335.76 30.3178 335.76 33.0964H332.279C332.279 31.2572 331.508 29.7344 329.975 28.5181C328.442 27.3018 326.504 26.6887 324.171 26.6887C321.837 26.6887 320.057 27.1931 318.682 28.2116C317.308 29.2301 316.616 30.5452 316.616 32.1669C316.616 33.7886 317.189 34.9455 318.336 35.8058C319.483 36.6661 321.58 37.4572 324.625 38.1692C327.671 38.8811 329.945 39.6425 331.458 40.4534C332.971 41.2642 334.098 42.2432 334.83 43.3803C335.562 44.5175 335.928 45.9019 335.928 47.5236C335.928 50.1737 334.86 52.2799 332.724 53.8719C330.588 55.4639 327.8 56.2451 324.368 56.2451C320.719 56.2451 317.763 55.3651 315.489 53.595C313.214 51.825 312.087 49.5902 312.087 46.8907H315.568C315.706 48.9178 316.556 50.5 318.129 51.6273C319.701 52.7545 321.787 53.3182 324.368 53.3182C326.781 53.3182 328.729 52.7842 330.222 51.7261C331.715 50.6681 332.457 49.3233 332.457 47.7016V47.7115Z" fill="#3399FF"/>
</g>
<defs>
<clipPath id="clip0_2547_18059">
<rect width="436" height="69.2187" fill="white"/>
</clipPath>
</defs>
</svg>
