<svg width="496" height="128" viewBox="0 0 496 128" fill="none" xmlns="http://www.w3.org/2000/svg">
<rect x="0.5" y="0.5" width="495" height="127" stroke="#303030"/>
<path d="M150.496 51V35.16H156.088C157.832 35.16 159.128 35.528 159.976 36.264C160.824 36.984 161.248 38.016 161.248 39.36C161.248 40.272 161 41.056 160.504 41.712C160.008 42.352 159.288 42.768 158.344 42.96V42.984C159.368 43.144 160.176 43.568 160.768 44.256C161.376 44.928 161.68 45.76 161.68 46.752C161.68 48.08 161.2 49.12 160.24 49.872C159.28 50.624 157.896 51 156.088 51H150.496ZM151.696 49.896H156.328C157.688 49.896 158.704 49.624 159.376 49.08C160.064 48.536 160.408 47.752 160.408 46.728C160.408 45.688 160.064 44.904 159.376 44.376C158.704 43.832 157.688 43.56 156.328 43.56H151.696V49.896ZM151.696 42.456H156.112C158.688 42.456 159.976 41.424 159.976 39.36C159.976 37.296 158.688 36.264 156.112 36.264H151.696V42.456ZM170.196 51.24C169.092 51.24 168.108 50.992 167.244 50.496C166.38 50 165.7 49.288 165.204 48.36C164.724 47.416 164.484 46.296 164.484 45C164.484 43.704 164.724 42.592 165.204 41.664C165.7 40.72 166.364 40 167.196 39.504C168.028 39.008 168.98 38.76 170.052 38.76C171.14 38.76 172.068 39 172.836 39.48C173.604 39.96 174.196 40.632 174.612 41.496C175.028 42.344 175.236 43.328 175.236 44.448C175.236 44.592 175.228 44.736 175.212 44.88C175.212 45.008 175.204 45.128 175.188 45.24H165.228V44.16H174.66L174.06 44.328C174.044 42.952 173.676 41.856 172.956 41.04C172.252 40.224 171.276 39.816 170.028 39.816C169.164 39.816 168.404 40.024 167.748 40.44C167.092 40.84 166.58 41.432 166.212 42.216C165.844 42.984 165.66 43.912 165.66 45C165.66 46.072 165.844 47 166.212 47.784C166.596 48.568 167.124 49.168 167.796 49.584C168.484 49.984 169.276 50.184 170.172 50.184C171.1 50.184 171.892 49.984 172.548 49.584C173.22 49.184 173.74 48.632 174.108 47.928L175.068 48.48C174.78 49.056 174.396 49.552 173.916 49.968C173.436 50.368 172.884 50.68 172.26 50.904C171.636 51.128 170.948 51.24 170.196 51.24ZM199.071 46.992C198.767 47.872 198.311 48.632 197.703 49.272C197.111 49.912 196.391 50.4 195.543 50.736C194.711 51.072 193.775 51.24 192.735 51.24C191.295 51.24 190.031 50.912 188.943 50.256C187.871 49.584 187.031 48.64 186.423 47.424C185.831 46.208 185.535 44.76 185.535 43.08C185.535 41.4 185.831 39.952 186.423 38.736C187.015 37.52 187.847 36.584 188.919 35.928C190.007 35.256 191.271 34.92 192.711 34.92C193.783 34.92 194.719 35.072 195.519 35.376C196.335 35.664 197.023 36.104 197.583 36.696C198.143 37.272 198.567 37.984 198.855 38.832L197.679 39.384C197.311 38.28 196.727 37.448 195.927 36.888C195.127 36.312 194.079 36.024 192.783 36.024C191.599 36.024 190.551 36.312 189.639 36.888C188.743 37.448 188.039 38.256 187.527 39.312C187.031 40.352 186.783 41.608 186.783 43.08C186.783 44.536 187.031 45.792 187.527 46.848C188.023 47.904 188.719 48.72 189.615 49.296C190.511 49.856 191.551 50.136 192.735 50.136C194.015 50.136 195.103 49.832 195.999 49.224C196.895 48.6 197.519 47.704 197.871 46.536L199.071 46.992ZM202.238 51V39H203.246L203.39 41.52C203.694 40.672 204.182 40 204.854 39.504C205.526 39.008 206.334 38.76 207.278 38.76C207.598 38.76 207.886 38.792 208.142 38.856C208.398 38.92 208.606 39.024 208.766 39.168L208.502 40.224C208.326 40.112 208.134 40.024 207.926 39.96C207.718 39.896 207.406 39.864 206.99 39.864C206.382 39.864 205.806 40.056 205.262 40.44C204.718 40.808 204.278 41.328 203.942 42C203.606 42.656 203.438 43.416 203.438 44.28V51H202.238ZM215.641 51.24C214.537 51.24 213.553 50.992 212.689 50.496C211.825 50 211.145 49.288 210.649 48.36C210.169 47.416 209.929 46.296 209.929 45C209.929 43.704 210.169 42.592 210.649 41.664C211.145 40.72 211.809 40 212.641 39.504C213.473 39.008 214.425 38.76 215.497 38.76C216.585 38.76 217.513 39 218.281 39.48C219.049 39.96 219.641 40.632 220.057 41.496C220.473 42.344 220.681 43.328 220.681 44.448C220.681 44.592 220.673 44.736 220.657 44.88C220.657 45.008 220.649 45.128 220.633 45.24H210.673V44.16H220.105L219.505 44.328C219.489 42.952 219.121 41.856 218.401 41.04C217.697 40.224 216.721 39.816 215.473 39.816C214.609 39.816 213.849 40.024 213.193 40.44C212.537 40.84 212.025 41.432 211.657 42.216C211.289 42.984 211.105 43.912 211.105 45C211.105 46.072 211.289 47 211.657 47.784C212.041 48.568 212.569 49.168 213.241 49.584C213.929 49.984 214.721 50.184 215.617 50.184C216.545 50.184 217.337 49.984 217.993 49.584C218.665 49.184 219.185 48.632 219.553 47.928L220.513 48.48C220.225 49.056 219.841 49.552 219.361 49.968C218.881 50.368 218.329 50.68 217.705 50.904C217.081 51.128 216.393 51.24 215.641 51.24ZM231.449 43.104C231.449 42.064 231.169 41.256 230.609 40.68C230.049 40.104 229.249 39.816 228.209 39.816C227.297 39.816 226.513 40.016 225.857 40.416C225.201 40.8 224.713 41.448 224.393 42.36L223.409 41.736C223.761 40.792 224.345 40.064 225.161 39.552C225.993 39.024 227.017 38.76 228.233 38.76C229.113 38.76 229.881 38.92 230.537 39.24C231.209 39.544 231.729 40 232.097 40.608C232.465 41.216 232.649 41.976 232.649 42.888V48.888C232.649 49.736 233.033 50.16 233.801 50.16C234.137 50.16 234.425 50.104 234.665 49.992L234.593 50.952C234.321 51.096 233.969 51.168 233.537 51.168C233.169 51.168 232.825 51.096 232.505 50.952C232.185 50.808 231.921 50.568 231.713 50.232C231.521 49.896 231.425 49.44 231.425 48.864V48.216L231.761 48.192C231.617 48.88 231.297 49.456 230.801 49.92C230.321 50.368 229.761 50.704 229.121 50.928C228.481 51.136 227.841 51.24 227.201 51.24C226.449 51.24 225.777 51.12 225.185 50.88C224.593 50.64 224.129 50.296 223.793 49.848C223.457 49.384 223.289 48.816 223.289 48.144C223.289 47.248 223.585 46.528 224.177 45.984C224.785 45.424 225.633 45.04 226.721 44.832L231.689 43.848V44.856L227.321 45.72C226.377 45.912 225.673 46.192 225.209 46.56C224.745 46.928 224.513 47.432 224.513 48.072C224.513 48.728 224.761 49.248 225.257 49.632C225.753 50 226.457 50.184 227.369 50.184C227.833 50.184 228.305 50.12 228.785 49.992C229.265 49.864 229.705 49.664 230.105 49.392C230.521 49.104 230.849 48.752 231.089 48.336C231.329 47.904 231.449 47.384 231.449 46.776V43.104ZM238.776 35.664V47.832C238.776 48.584 238.952 49.16 239.304 49.56C239.672 49.944 240.2 50.136 240.888 50.136C241.336 50.136 241.728 50.064 242.064 49.92C242.416 49.76 242.728 49.536 243 49.248L243.456 50.232C243.152 50.536 242.768 50.784 242.304 50.976C241.84 51.152 241.32 51.24 240.744 51.24C240.12 51.24 239.568 51.128 239.088 50.904C238.608 50.664 238.232 50.304 237.96 49.824C237.704 49.344 237.576 48.736 237.576 48V36L238.776 35.664ZM243.264 39V40.032H235.176V39H243.264ZM246.431 36.672C246.127 36.672 245.879 36.584 245.687 36.408C245.511 36.216 245.423 35.968 245.423 35.664C245.423 35.36 245.511 35.12 245.687 34.944C245.879 34.752 246.127 34.656 246.431 34.656C246.735 34.656 246.975 34.752 247.151 34.944C247.343 35.12 247.439 35.36 247.439 35.664C247.439 35.968 247.343 36.216 247.151 36.408C246.975 36.584 246.735 36.672 246.431 36.672ZM247.031 39V51H245.831V39H247.031ZM259.524 39H260.796L255.78 51H254.58L249.564 39H250.908L255.204 49.752L259.524 39ZM268.071 51.24C266.967 51.24 265.983 50.992 265.119 50.496C264.255 50 263.575 49.288 263.079 48.36C262.599 47.416 262.359 46.296 262.359 45C262.359 43.704 262.599 42.592 263.079 41.664C263.575 40.72 264.239 40 265.071 39.504C265.903 39.008 266.855 38.76 267.927 38.76C269.015 38.76 269.943 39 270.711 39.48C271.479 39.96 272.071 40.632 272.487 41.496C272.903 42.344 273.111 43.328 273.111 44.448C273.111 44.592 273.103 44.736 273.087 44.88C273.087 45.008 273.079 45.128 273.063 45.24H263.103V44.16H272.535L271.935 44.328C271.919 42.952 271.551 41.856 270.831 41.04C270.127 40.224 269.151 39.816 267.903 39.816C267.039 39.816 266.279 40.024 265.623 40.44C264.967 40.84 264.455 41.432 264.087 42.216C263.719 42.984 263.535 43.912 263.535 45C263.535 46.072 263.719 47 264.087 47.784C264.471 48.568 264.999 49.168 265.671 49.584C266.359 49.984 267.151 50.184 268.047 50.184C268.975 50.184 269.767 49.984 270.423 49.584C271.095 49.184 271.615 48.632 271.983 47.928L272.943 48.48C272.655 49.056 272.271 49.552 271.791 49.968C271.311 50.368 270.759 50.68 270.135 50.904C269.511 51.128 268.823 51.24 268.071 51.24Z" fill="#303030"/>
<path d="M156.864 65.44V66.176H153.008V76H152.208V66.176H148.352V65.44H156.864ZM160.11 67.84C160.857 67.84 161.513 68.0053 162.078 68.336C162.654 68.6667 163.102 69.1467 163.422 69.776C163.753 70.3947 163.918 71.136 163.918 72C163.918 72.864 163.753 73.6107 163.422 74.24C163.102 74.8587 162.654 75.3333 162.078 75.664C161.513 75.9947 160.857 76.16 160.11 76.16C159.363 76.16 158.702 75.9947 158.126 75.664C157.561 75.3333 157.113 74.8587 156.782 74.24C156.462 73.6107 156.302 72.864 156.302 72C156.302 71.136 156.462 70.3947 156.782 69.776C157.113 69.1467 157.561 68.6667 158.126 68.336C158.702 68.0053 159.363 67.84 160.11 67.84ZM160.11 68.528C159.502 68.528 158.974 68.6667 158.526 68.944C158.078 69.2213 157.726 69.6213 157.47 70.144C157.225 70.656 157.102 71.2747 157.102 72C157.102 72.7147 157.225 73.3333 157.47 73.856C157.726 74.3787 158.078 74.7787 158.526 75.056C158.974 75.3333 159.502 75.472 160.11 75.472C160.718 75.472 161.246 75.3333 161.694 75.056C162.142 74.7787 162.489 74.3787 162.734 73.856C162.99 73.3333 163.118 72.7147 163.118 72C163.118 71.2747 162.99 70.656 162.734 70.144C162.489 69.6213 162.142 69.2213 161.694 68.944C161.246 68.6667 160.718 68.528 160.11 68.528ZM173.925 76.16C173.114 76.16 172.394 75.9947 171.765 75.664C171.146 75.3333 170.709 74.8587 170.453 74.24L171.141 73.776C171.333 74.3093 171.674 74.7253 172.165 75.024C172.666 75.312 173.274 75.456 173.989 75.456C174.693 75.456 175.242 75.3173 175.637 75.04C176.042 74.7627 176.245 74.3947 176.245 73.936C176.245 73.6267 176.144 73.36 175.941 73.136C175.749 72.9013 175.381 72.7253 174.837 72.608L172.965 72.208C172.197 72.048 171.648 71.792 171.317 71.44C170.997 71.0773 170.837 70.64 170.837 70.128C170.837 69.7013 170.965 69.3173 171.221 68.976C171.477 68.6347 171.829 68.3627 172.277 68.16C172.736 67.9467 173.269 67.84 173.877 67.84C174.677 67.84 175.338 68 175.861 68.32C176.384 68.6293 176.752 69.0987 176.965 69.728L176.293 70.16C176.133 69.5947 175.834 69.184 175.397 68.928C174.97 68.672 174.464 68.544 173.877 68.544C173.429 68.544 173.034 68.6133 172.693 68.752C172.362 68.88 172.101 69.0613 171.909 69.296C171.728 69.52 171.637 69.7813 171.637 70.08C171.637 70.3893 171.744 70.672 171.957 70.928C172.17 71.1733 172.549 71.3547 173.093 71.472L175.013 71.888C175.77 72.048 176.298 72.2933 176.597 72.624C176.896 72.944 177.045 73.344 177.045 73.824C177.045 74.304 176.917 74.72 176.661 75.072C176.405 75.424 176.042 75.696 175.573 75.888C175.104 76.0693 174.554 76.16 173.925 76.16ZM182.547 76.16C181.811 76.16 181.155 75.9947 180.579 75.664C180.003 75.3333 179.55 74.8587 179.219 74.24C178.899 73.6107 178.739 72.864 178.739 72C178.739 71.136 178.899 70.3947 179.219 69.776C179.55 69.1467 179.993 68.6667 180.547 68.336C181.102 68.0053 181.737 67.84 182.451 67.84C183.177 67.84 183.795 68 184.307 68.32C184.819 68.64 185.214 69.088 185.491 69.664C185.769 70.2293 185.907 70.8853 185.907 71.632C185.907 71.728 185.902 71.824 185.891 71.92C185.891 72.0053 185.886 72.0853 185.875 72.16H179.235V71.44H185.523L185.123 71.552C185.113 70.6347 184.867 69.904 184.387 69.36C183.918 68.816 183.267 68.544 182.435 68.544C181.859 68.544 181.353 68.6827 180.915 68.96C180.478 69.2267 180.137 69.6213 179.891 70.144C179.646 70.656 179.523 71.2747 179.523 72C179.523 72.7147 179.646 73.3333 179.891 73.856C180.147 74.3787 180.499 74.7787 180.947 75.056C181.406 75.3227 181.934 75.456 182.531 75.456C183.15 75.456 183.678 75.3227 184.115 75.056C184.563 74.7893 184.91 74.4213 185.155 73.952L185.795 74.32C185.603 74.704 185.347 75.0347 185.027 75.312C184.707 75.5787 184.339 75.7867 183.923 75.936C183.507 76.0853 183.049 76.16 182.547 76.16ZM188.926 64.32V74.112C188.926 74.6027 189.011 74.9493 189.182 75.152C189.352 75.3547 189.619 75.456 189.982 75.456C190.206 75.456 190.382 75.44 190.51 75.408C190.648 75.376 190.808 75.3227 190.99 75.248L190.878 75.952C190.739 76.016 190.579 76.064 190.398 76.096C190.227 76.1387 190.035 76.16 189.822 76.16C189.256 76.16 188.83 76 188.542 75.68C188.264 75.3493 188.126 74.8373 188.126 74.144V64.32H188.926ZM195.508 64.24C195.796 64.24 196.052 64.2773 196.276 64.352C196.5 64.4267 196.676 64.5333 196.804 64.672L196.58 65.312C196.442 65.184 196.292 65.0933 196.132 65.04C195.972 64.9867 195.786 64.96 195.572 64.96C195.05 64.96 194.644 65.1093 194.356 65.408C194.068 65.7067 193.924 66.1493 193.924 66.736V68V68.288V76H193.124V66.656C193.124 66.2933 193.172 65.9627 193.268 65.664C193.375 65.3653 193.53 65.1147 193.732 64.912C193.935 64.6987 194.186 64.5333 194.484 64.416C194.783 64.2987 195.124 64.24 195.508 64.24ZM196.74 68V68.688H191.524V68H196.74ZM202.13 71.344V72.16H197.218V71.344H202.13ZM208.079 76.16C207.343 76.16 206.687 75.9947 206.111 75.664C205.535 75.3333 205.081 74.8587 204.751 74.24C204.431 73.6107 204.271 72.864 204.271 72C204.271 71.136 204.431 70.3947 204.751 69.776C205.081 69.1467 205.524 68.6667 206.079 68.336C206.633 68.0053 207.268 67.84 207.983 67.84C208.708 67.84 209.327 68 209.839 68.32C210.351 68.64 210.745 69.088 211.023 69.664C211.3 70.2293 211.439 70.8853 211.439 71.632C211.439 71.728 211.433 71.824 211.423 71.92C211.423 72.0053 211.417 72.0853 211.407 72.16H204.767V71.44H211.055L210.655 71.552C210.644 70.6347 210.399 69.904 209.919 69.36C209.449 68.816 208.799 68.544 207.967 68.544C207.391 68.544 206.884 68.6827 206.447 68.96C206.009 69.2267 205.668 69.6213 205.423 70.144C205.177 70.656 205.055 71.2747 205.055 72C205.055 72.7147 205.177 73.3333 205.423 73.856C205.679 74.3787 206.031 74.7787 206.479 75.056C206.937 75.3227 207.465 75.456 208.063 75.456C208.681 75.456 209.209 75.3227 209.647 75.056C210.095 74.7893 210.441 74.4213 210.687 73.952L211.327 74.32C211.135 74.704 210.879 75.0347 210.559 75.312C210.239 75.5787 209.871 75.7867 209.455 75.936C209.039 76.0853 208.58 76.16 208.079 76.16ZM213.568 68L216.24 71.472L216.32 71.584L219.712 76H218.704L215.824 72.272L215.728 72.144L212.544 68H213.568ZM219.472 68L216.368 72.08L216.272 72.144L213.344 76H212.384L215.808 71.568L215.872 71.536L218.512 68H219.472ZM221.487 79.36V68H222.207L222.271 70.224L222.159 70.096C222.297 69.6373 222.511 69.2373 222.799 68.896C223.097 68.5547 223.46 68.2933 223.887 68.112C224.313 67.9307 224.777 67.84 225.279 67.84C225.961 67.84 226.575 68.0053 227.119 68.336C227.663 68.6667 228.095 69.1413 228.415 69.76C228.735 70.3787 228.895 71.1253 228.895 72C228.895 72.864 228.735 73.6107 228.415 74.24C228.095 74.8587 227.657 75.3333 227.103 75.664C226.559 75.9947 225.94 76.16 225.247 76.16C224.511 76.16 223.871 75.968 223.327 75.584C222.783 75.1893 222.404 74.6613 222.191 74L222.287 73.856V79.36H221.487ZM225.151 75.456C226.057 75.456 226.772 75.1467 227.295 74.528C227.828 73.9093 228.095 73.0667 228.095 72C228.095 70.9333 227.833 70.0907 227.311 69.472C226.788 68.8533 226.079 68.544 225.183 68.544C224.617 68.544 224.116 68.688 223.679 68.976C223.252 69.2533 222.911 69.6533 222.655 70.176C222.409 70.688 222.287 71.296 222.287 72C222.287 72.6933 222.409 73.3013 222.655 73.824C222.9 74.3467 223.236 74.752 223.663 75.04C224.1 75.3173 224.596 75.456 225.151 75.456ZM231.205 76V68H231.877L231.973 69.68C232.176 69.1147 232.501 68.6667 232.949 68.336C233.397 68.0053 233.936 67.84 234.565 67.84C234.779 67.84 234.971 67.8613 235.141 67.904C235.312 67.9467 235.451 68.016 235.557 68.112L235.381 68.816C235.264 68.7413 235.136 68.6827 234.997 68.64C234.859 68.5973 234.651 68.576 234.373 68.576C233.968 68.576 233.584 68.704 233.221 68.96C232.859 69.2053 232.565 69.552 232.341 70C232.117 70.4373 232.005 70.944 232.005 71.52V76H231.205ZM240.141 76.16C239.405 76.16 238.749 75.9947 238.173 75.664C237.597 75.3333 237.144 74.8587 236.813 74.24C236.493 73.6107 236.333 72.864 236.333 72C236.333 71.136 236.493 70.3947 236.813 69.776C237.144 69.1467 237.586 68.6667 238.141 68.336C238.696 68.0053 239.33 67.84 240.045 67.84C240.77 67.84 241.389 68 241.901 68.32C242.413 68.64 242.808 69.088 243.085 69.664C243.362 70.2293 243.501 70.8853 243.501 71.632C243.501 71.728 243.496 71.824 243.485 71.92C243.485 72.0053 243.48 72.0853 243.469 72.16H236.829V71.44H243.117L242.717 71.552C242.706 70.6347 242.461 69.904 241.981 69.36C241.512 68.816 240.861 68.544 240.029 68.544C239.453 68.544 238.946 68.6827 238.509 68.96C238.072 69.2267 237.73 69.6213 237.485 70.144C237.24 70.656 237.117 71.2747 237.117 72C237.117 72.7147 237.24 73.3333 237.485 73.856C237.741 74.3787 238.093 74.7787 238.541 75.056C239 75.3227 239.528 75.456 240.125 75.456C240.744 75.456 241.272 75.3227 241.709 75.056C242.157 74.7893 242.504 74.4213 242.749 73.952L243.389 74.32C243.197 74.704 242.941 75.0347 242.621 75.312C242.301 75.5787 241.933 75.7867 241.517 75.936C241.101 76.0853 240.642 76.16 240.141 76.16ZM248.487 76.16C247.677 76.16 246.957 75.9947 246.327 75.664C245.709 75.3333 245.271 74.8587 245.015 74.24L245.703 73.776C245.895 74.3093 246.237 74.7253 246.727 75.024C247.229 75.312 247.837 75.456 248.551 75.456C249.255 75.456 249.805 75.3173 250.199 75.04C250.605 74.7627 250.807 74.3947 250.807 73.936C250.807 73.6267 250.706 73.36 250.503 73.136C250.311 72.9013 249.943 72.7253 249.399 72.608L247.527 72.208C246.759 72.048 246.21 71.792 245.879 71.44C245.559 71.0773 245.399 70.64 245.399 70.128C245.399 69.7013 245.527 69.3173 245.783 68.976C246.039 68.6347 246.391 68.3627 246.839 68.16C247.298 67.9467 247.831 67.84 248.439 67.84C249.239 67.84 249.901 68 250.423 68.32C250.946 68.6293 251.314 69.0987 251.527 69.728L250.855 70.16C250.695 69.5947 250.397 69.184 249.959 68.928C249.533 68.672 249.026 68.544 248.439 68.544C247.991 68.544 247.597 68.6133 247.255 68.752C246.925 68.88 246.663 69.0613 246.471 69.296C246.29 69.52 246.199 69.7813 246.199 70.08C246.199 70.3893 246.306 70.672 246.519 70.928C246.733 71.1733 247.111 71.3547 247.655 71.472L249.575 71.888C250.333 72.048 250.861 72.2933 251.159 72.624C251.458 72.944 251.607 73.344 251.607 73.824C251.607 74.304 251.479 74.72 251.223 75.072C250.967 75.424 250.605 75.696 250.135 75.888C249.666 76.0693 249.117 76.16 248.487 76.16ZM256.55 76.16C255.739 76.16 255.019 75.9947 254.39 75.664C253.771 75.3333 253.334 74.8587 253.078 74.24L253.766 73.776C253.958 74.3093 254.299 74.7253 254.79 75.024C255.291 75.312 255.899 75.456 256.614 75.456C257.318 75.456 257.867 75.3173 258.262 75.04C258.667 74.7627 258.87 74.3947 258.87 73.936C258.87 73.6267 258.769 73.36 258.566 73.136C258.374 72.9013 258.006 72.7253 257.462 72.608L255.59 72.208C254.822 72.048 254.273 71.792 253.942 71.44C253.622 71.0773 253.462 70.64 253.462 70.128C253.462 69.7013 253.59 69.3173 253.846 68.976C254.102 68.6347 254.454 68.3627 254.902 68.16C255.361 67.9467 255.894 67.84 256.502 67.84C257.302 67.84 257.963 68 258.486 68.32C259.009 68.6293 259.377 69.0987 259.59 69.728L258.918 70.16C258.758 69.5947 258.459 69.184 258.022 68.928C257.595 68.672 257.089 68.544 256.502 68.544C256.054 68.544 255.659 68.6133 255.318 68.752C254.987 68.88 254.726 69.0613 254.534 69.296C254.353 69.52 254.262 69.7813 254.262 70.08C254.262 70.3893 254.369 70.672 254.582 70.928C254.795 71.1733 255.174 71.3547 255.718 71.472L257.638 71.888C258.395 72.048 258.923 72.2933 259.222 72.624C259.521 72.944 259.67 73.344 259.67 73.824C259.67 74.304 259.542 74.72 259.286 75.072C259.03 75.424 258.667 75.696 258.198 75.888C257.729 76.0693 257.179 76.16 256.55 76.16ZM267.324 66.448C267.121 66.448 266.956 66.3893 266.828 66.272C266.711 66.144 266.652 65.9787 266.652 65.776C266.652 65.5733 266.711 65.4133 266.828 65.296C266.956 65.168 267.121 65.104 267.324 65.104C267.527 65.104 267.687 65.168 267.804 65.296C267.932 65.4133 267.996 65.5733 267.996 65.776C267.996 65.9787 267.932 66.144 267.804 66.272C267.687 66.3893 267.527 66.448 267.324 66.448ZM267.724 68V76H266.924V68H267.724ZM273.269 76.16C272.458 76.16 271.738 75.9947 271.109 75.664C270.49 75.3333 270.053 74.8587 269.797 74.24L270.485 73.776C270.677 74.3093 271.018 74.7253 271.509 75.024C272.01 75.312 272.618 75.456 273.333 75.456C274.037 75.456 274.586 75.3173 274.981 75.04C275.386 74.7627 275.589 74.3947 275.589 73.936C275.589 73.6267 275.487 73.36 275.285 73.136C275.093 72.9013 274.725 72.7253 274.181 72.608L272.309 72.208C271.541 72.048 270.991 71.792 270.661 71.44C270.341 71.0773 270.181 70.64 270.181 70.128C270.181 69.7013 270.309 69.3173 270.565 68.976C270.821 68.6347 271.173 68.3627 271.621 68.16C272.079 67.9467 272.613 67.84 273.221 67.84C274.021 67.84 274.682 68 275.205 68.32C275.727 68.6293 276.095 69.0987 276.309 69.728L275.637 70.16C275.477 69.5947 275.178 69.184 274.741 68.928C274.314 68.672 273.807 68.544 273.221 68.544C272.773 68.544 272.378 68.6133 272.037 68.752C271.706 68.88 271.445 69.0613 271.253 69.296C271.071 69.52 270.981 69.7813 270.981 70.08C270.981 70.3893 271.087 70.672 271.301 70.928C271.514 71.1733 271.893 71.3547 272.437 71.472L274.357 71.888C275.114 72.048 275.642 72.2933 275.941 72.624C276.239 72.944 276.389 73.344 276.389 73.824C276.389 74.304 276.261 74.72 276.005 75.072C275.749 75.424 275.386 75.696 274.917 75.888C274.447 76.0693 273.898 76.16 273.269 76.16ZM284.658 65.776V73.888C284.658 74.3893 284.776 74.7733 285.01 75.04C285.256 75.296 285.608 75.424 286.066 75.424C286.365 75.424 286.626 75.376 286.85 75.28C287.085 75.1733 287.293 75.024 287.474 74.832L287.778 75.488C287.576 75.6907 287.32 75.856 287.01 75.984C286.701 76.1013 286.354 76.16 285.97 76.16C285.554 76.16 285.186 76.0853 284.866 75.936C284.546 75.776 284.296 75.536 284.114 75.216C283.944 74.896 283.858 74.4907 283.858 74V66L284.658 65.776ZM287.65 68V68.688H282.258V68H287.65ZM292.626 67.84C293.372 67.84 294.028 68.0053 294.594 68.336C295.17 68.6667 295.618 69.1467 295.938 69.776C296.268 70.3947 296.434 71.136 296.434 72C296.434 72.864 296.268 73.6107 295.938 74.24C295.618 74.8587 295.17 75.3333 294.594 75.664C294.028 75.9947 293.372 76.16 292.626 76.16C291.879 76.16 291.218 75.9947 290.642 75.664C290.076 75.3333 289.628 74.8587 289.298 74.24C288.978 73.6107 288.818 72.864 288.818 72C288.818 71.136 288.978 70.3947 289.298 69.776C289.628 69.1467 290.076 68.6667 290.642 68.336C291.218 68.0053 291.879 67.84 292.626 67.84ZM292.626 68.528C292.018 68.528 291.49 68.6667 291.042 68.944C290.594 69.2213 290.242 69.6213 289.986 70.144C289.74 70.656 289.618 71.2747 289.618 72C289.618 72.7147 289.74 73.3333 289.986 73.856C290.242 74.3787 290.594 74.7787 291.042 75.056C291.49 75.3333 292.018 75.472 292.626 75.472C293.234 75.472 293.762 75.3333 294.21 75.056C294.658 74.7787 295.004 74.3787 295.25 73.856C295.506 73.3333 295.634 72.7147 295.634 72C295.634 71.2747 295.506 70.656 295.25 70.144C295.004 69.6213 294.658 69.2213 294.21 68.944C293.762 68.6667 293.234 68.528 292.626 68.528ZM307.497 76.16C307.006 76.16 306.547 76.0693 306.121 75.888C305.705 75.7067 305.347 75.4453 305.049 75.104C304.761 74.7627 304.547 74.3627 304.409 73.904L304.521 73.776L304.457 76H303.737V64.32H304.537V70.144L304.441 70C304.654 69.3387 305.033 68.816 305.577 68.432C306.131 68.0373 306.771 67.84 307.497 67.84C308.201 67.84 308.825 68.0053 309.369 68.336C309.913 68.6667 310.345 69.1413 310.665 69.76C310.985 70.3787 311.145 71.1253 311.145 72C311.145 72.864 310.985 73.6107 310.665 74.24C310.345 74.8587 309.907 75.3333 309.353 75.664C308.809 75.9947 308.19 76.16 307.497 76.16ZM307.401 75.456C308.307 75.456 309.022 75.1467 309.545 74.528C310.078 73.9093 310.345 73.0667 310.345 72C310.345 70.9333 310.083 70.0907 309.561 69.472C309.038 68.8533 308.323 68.544 307.417 68.544C306.862 68.544 306.366 68.688 305.929 68.976C305.491 69.2533 305.15 69.6533 304.905 70.176C304.659 70.6987 304.537 71.312 304.537 72.016C304.537 72.72 304.659 73.3333 304.905 73.856C305.15 74.368 305.486 74.7627 305.913 75.04C306.35 75.3173 306.846 75.456 307.401 75.456ZM316.719 76.16C315.983 76.16 315.327 75.9947 314.751 75.664C314.175 75.3333 313.722 74.8587 313.391 74.24C313.071 73.6107 312.911 72.864 312.911 72C312.911 71.136 313.071 70.3947 313.391 69.776C313.722 69.1467 314.165 68.6667 314.719 68.336C315.274 68.0053 315.909 67.84 316.623 67.84C317.349 67.84 317.967 68 318.479 68.32C318.991 68.64 319.386 69.088 319.663 69.664C319.941 70.2293 320.079 70.8853 320.079 71.632C320.079 71.728 320.074 71.824 320.063 71.92C320.063 72.0053 320.058 72.0853 320.047 72.16H313.407V71.44H319.695L319.295 71.552C319.285 70.6347 319.039 69.904 318.559 69.36C318.09 68.816 317.439 68.544 316.607 68.544C316.031 68.544 315.525 68.6827 315.087 68.96C314.65 69.2267 314.309 69.6213 314.063 70.144C313.818 70.656 313.695 71.2747 313.695 72C313.695 72.7147 313.818 73.3333 314.063 73.856C314.319 74.3787 314.671 74.7787 315.119 75.056C315.578 75.3227 316.106 75.456 316.703 75.456C317.322 75.456 317.85 75.3227 318.287 75.056C318.735 74.7893 319.082 74.4213 319.327 73.952L319.967 74.32C319.775 74.704 319.519 75.0347 319.199 75.312C318.879 75.5787 318.511 75.7867 318.095 75.936C317.679 76.0853 317.221 76.16 316.719 76.16ZM330.008 64.24C330.296 64.24 330.552 64.2773 330.776 64.352C331 64.4267 331.176 64.5333 331.304 64.672L331.08 65.312C330.942 65.184 330.792 65.0933 330.632 65.04C330.472 64.9867 330.286 64.96 330.072 64.96C329.55 64.96 329.144 65.1093 328.856 65.408C328.568 65.7067 328.424 66.1493 328.424 66.736V68V68.288V76H327.624V66.656C327.624 66.2933 327.672 65.9627 327.768 65.664C327.875 65.3653 328.03 65.1147 328.232 64.912C328.435 64.6987 328.686 64.5333 328.984 64.416C329.283 64.2987 329.624 64.24 330.008 64.24ZM331.24 68V68.688H326.024V68H331.24ZM335.751 76.16C335.015 76.16 334.359 75.9947 333.783 75.664C333.207 75.3333 332.753 74.8587 332.423 74.24C332.103 73.6107 331.943 72.864 331.943 72C331.943 71.136 332.103 70.3947 332.423 69.776C332.753 69.1467 333.196 68.6667 333.751 68.336C334.305 68.0053 334.94 67.84 335.655 67.84C336.38 67.84 336.999 68 337.511 68.32C338.023 68.64 338.417 69.088 338.695 69.664C338.972 70.2293 339.111 70.8853 339.111 71.632C339.111 71.728 339.105 71.824 339.095 71.92C339.095 72.0053 339.089 72.0853 339.079 72.16H332.439V71.44H338.727L338.327 71.552C338.316 70.6347 338.071 69.904 337.591 69.36C337.121 68.816 336.471 68.544 335.639 68.544C335.063 68.544 334.556 68.6827 334.119 68.96C333.681 69.2267 333.34 69.6213 333.095 70.144C332.849 70.656 332.727 71.2747 332.727 72C332.727 72.7147 332.849 73.3333 333.095 73.856C333.351 74.3787 333.703 74.7787 334.151 75.056C334.609 75.3227 335.137 75.456 335.735 75.456C336.353 75.456 336.881 75.3227 337.319 75.056C337.767 74.7893 338.113 74.4213 338.359 73.952L338.999 74.32C338.807 74.704 338.551 75.0347 338.231 75.312C337.911 75.5787 337.543 75.7867 337.127 75.936C336.711 76.0853 336.252 76.16 335.751 76.16ZM346.289 70.736C346.289 70.0427 346.102 69.504 345.729 69.12C345.355 68.736 344.822 68.544 344.129 68.544C343.521 68.544 342.998 68.6773 342.561 68.944C342.123 69.2 341.798 69.632 341.585 70.24L340.929 69.824C341.163 69.1947 341.553 68.7093 342.097 68.368C342.651 68.016 343.334 67.84 344.145 67.84C344.731 67.84 345.243 67.9467 345.681 68.16C346.129 68.3627 346.475 68.6667 346.721 69.072C346.966 69.4773 347.089 69.984 347.089 70.592V74.592C347.089 75.1573 347.345 75.44 347.857 75.44C348.081 75.44 348.273 75.4027 348.433 75.328L348.385 75.968C348.203 76.064 347.969 76.112 347.681 76.112C347.435 76.112 347.206 76.064 346.993 75.968C346.779 75.872 346.603 75.712 346.465 75.488C346.337 75.264 346.273 74.96 346.273 74.576V74.144L346.497 74.128C346.401 74.5867 346.187 74.9707 345.857 75.28C345.537 75.5787 345.163 75.8027 344.737 75.952C344.31 76.0907 343.883 76.16 343.457 76.16C342.955 76.16 342.507 76.08 342.113 75.92C341.718 75.76 341.409 75.5307 341.185 75.232C340.961 74.9227 340.849 74.544 340.849 74.096C340.849 73.4987 341.046 73.0187 341.441 72.656C341.846 72.2827 342.411 72.0267 343.137 71.888L346.449 71.232V71.904L343.537 72.48C342.907 72.608 342.438 72.7947 342.129 73.04C341.819 73.2853 341.665 73.6213 341.665 74.048C341.665 74.4853 341.83 74.832 342.161 75.088C342.491 75.3333 342.961 75.456 343.569 75.456C343.878 75.456 344.193 75.4133 344.513 75.328C344.833 75.2427 345.126 75.1093 345.393 74.928C345.67 74.736 345.889 74.5013 346.049 74.224C346.209 73.936 346.289 73.5893 346.289 73.184V70.736ZM350.08 76V68H350.752L350.848 69.68C351.051 69.1147 351.376 68.6667 351.824 68.336C352.272 68.0053 352.811 67.84 353.44 67.84C353.654 67.84 353.846 67.8613 354.016 67.904C354.187 67.9467 354.326 68.016 354.432 68.112L354.256 68.816C354.139 68.7413 354.011 68.6827 353.872 68.64C353.734 68.5973 353.526 68.576 353.248 68.576C352.843 68.576 352.459 68.704 352.096 68.96C351.734 69.2053 351.44 69.552 351.216 70C350.992 70.4373 350.88 70.944 350.88 71.52V76H350.08ZM356.863 64.32V74.112C356.863 74.6027 356.948 74.9493 357.119 75.152C357.29 75.3547 357.556 75.456 357.919 75.456C358.143 75.456 358.319 75.44 358.447 75.408C358.586 75.376 358.746 75.3227 358.927 75.248L358.815 75.952C358.676 76.016 358.516 76.064 358.335 76.096C358.164 76.1387 357.972 76.16 357.759 76.16C357.194 76.16 356.767 76 356.479 75.68C356.202 75.3493 356.063 74.8373 356.063 74.144V64.32H356.863ZM363.719 76.16C362.983 76.16 362.327 75.9947 361.751 75.664C361.175 75.3333 360.722 74.8587 360.391 74.24C360.071 73.6107 359.911 72.864 359.911 72C359.911 71.136 360.071 70.3947 360.391 69.776C360.722 69.1467 361.165 68.6667 361.719 68.336C362.274 68.0053 362.909 67.84 363.623 67.84C364.349 67.84 364.967 68 365.479 68.32C365.991 68.64 366.386 69.088 366.663 69.664C366.941 70.2293 367.079 70.8853 367.079 71.632C367.079 71.728 367.074 71.824 367.063 71.92C367.063 72.0053 367.058 72.0853 367.047 72.16H360.407V71.44H366.695L366.295 71.552C366.285 70.6347 366.039 69.904 365.559 69.36C365.09 68.816 364.439 68.544 363.607 68.544C363.031 68.544 362.525 68.6827 362.087 68.96C361.65 69.2267 361.309 69.6213 361.063 70.144C360.818 70.656 360.695 71.2747 360.695 72C360.695 72.7147 360.818 73.3333 361.063 73.856C361.319 74.3787 361.671 74.7787 362.119 75.056C362.578 75.3227 363.106 75.456 363.703 75.456C364.322 75.456 364.85 75.3227 365.287 75.056C365.735 74.7893 366.082 74.4213 366.327 73.952L366.967 74.32C366.775 74.704 366.519 75.0347 366.199 75.312C365.879 75.5787 365.511 75.7867 365.095 75.936C364.679 76.0853 364.221 76.16 363.719 76.16ZM372.066 76.16C371.255 76.16 370.535 75.9947 369.906 75.664C369.287 75.3333 368.85 74.8587 368.594 74.24L369.282 73.776C369.474 74.3093 369.815 74.7253 370.306 75.024C370.807 75.312 371.415 75.456 372.13 75.456C372.834 75.456 373.383 75.3173 373.778 75.04C374.183 74.7627 374.386 74.3947 374.386 73.936C374.386 73.6267 374.284 73.36 374.082 73.136C373.89 72.9013 373.522 72.7253 372.978 72.608L371.106 72.208C370.338 72.048 369.788 71.792 369.458 71.44C369.138 71.0773 368.978 70.64 368.978 70.128C368.978 69.7013 369.106 69.3173 369.362 68.976C369.618 68.6347 369.97 68.3627 370.418 68.16C370.876 67.9467 371.41 67.84 372.018 67.84C372.818 67.84 373.479 68 374.002 68.32C374.524 68.6293 374.892 69.0987 375.106 69.728L374.434 70.16C374.274 69.5947 373.975 69.184 373.538 68.928C373.111 68.672 372.604 68.544 372.018 68.544C371.57 68.544 371.175 68.6133 370.834 68.752C370.503 68.88 370.242 69.0613 370.049 69.296C369.868 69.52 369.778 69.7813 369.778 70.08C369.778 70.3893 369.884 70.672 370.098 70.928C370.311 71.1733 370.69 71.3547 371.234 71.472L373.154 71.888C373.911 72.048 374.439 72.2933 374.738 72.624C375.036 72.944 375.186 73.344 375.186 73.824C375.186 74.304 375.058 74.72 374.802 75.072C374.546 75.424 374.183 75.696 373.714 75.888C373.244 76.0693 372.695 76.16 372.066 76.16ZM380.128 76.16C379.317 76.16 378.597 75.9947 377.968 75.664C377.349 75.3333 376.912 74.8587 376.656 74.24L377.344 73.776C377.536 74.3093 377.877 74.7253 378.368 75.024C378.869 75.312 379.477 75.456 380.192 75.456C380.896 75.456 381.445 75.3173 381.84 75.04C382.245 74.7627 382.448 74.3947 382.448 73.936C382.448 73.6267 382.347 73.36 382.144 73.136C381.952 72.9013 381.584 72.7253 381.04 72.608L379.168 72.208C378.4 72.048 377.851 71.792 377.52 71.44C377.2 71.0773 377.04 70.64 377.04 70.128C377.04 69.7013 377.168 69.3173 377.424 68.976C377.68 68.6347 378.032 68.3627 378.48 68.16C378.939 67.9467 379.472 67.84 380.08 67.84C380.88 67.84 381.541 68 382.064 68.32C382.587 68.6293 382.955 69.0987 383.168 69.728L382.496 70.16C382.336 69.5947 382.037 69.184 381.6 68.928C381.173 68.672 380.667 68.544 380.08 68.544C379.632 68.544 379.237 68.6133 378.896 68.752C378.565 68.88 378.304 69.0613 378.112 69.296C377.931 69.52 377.84 69.7813 377.84 70.08C377.84 70.3893 377.947 70.672 378.16 70.928C378.373 71.1733 378.752 71.3547 379.296 71.472L381.216 71.888C381.973 72.048 382.501 72.2933 382.8 72.624C383.099 72.944 383.248 73.344 383.248 73.824C383.248 74.304 383.12 74.72 382.864 75.072C382.608 75.424 382.245 75.696 381.776 75.888C381.307 76.0693 380.757 76.16 380.128 76.16ZM385.823 74.688C386.036 74.688 386.207 74.7573 386.335 74.896C386.473 75.024 386.543 75.1947 386.543 75.408C386.543 75.6213 386.473 75.7973 386.335 75.936C386.207 76.064 386.036 76.128 385.823 76.128C385.609 76.128 385.433 76.064 385.295 75.936C385.167 75.7973 385.103 75.6213 385.103 75.408C385.103 75.1947 385.167 75.024 385.295 74.896C385.433 74.7573 385.609 74.688 385.823 74.688ZM401.02 65.44V66.176H397.164V76H396.364V66.176H392.508V65.44H401.02ZM404.266 67.84C405.013 67.84 405.669 68.0053 406.234 68.336C406.81 68.6667 407.258 69.1467 407.578 69.776C407.909 70.3947 408.074 71.136 408.074 72C408.074 72.864 407.909 73.6107 407.578 74.24C407.258 74.8587 406.81 75.3333 406.234 75.664C405.669 75.9947 405.013 76.16 404.266 76.16C403.519 76.16 402.858 75.9947 402.282 75.664C401.717 75.3333 401.269 74.8587 400.938 74.24C400.618 73.6107 400.458 72.864 400.458 72C400.458 71.136 400.618 70.3947 400.938 69.776C401.269 69.1467 401.717 68.6667 402.282 68.336C402.858 68.0053 403.519 67.84 404.266 67.84ZM404.266 68.528C403.658 68.528 403.13 68.6667 402.682 68.944C402.234 69.2213 401.882 69.6213 401.626 70.144C401.381 70.656 401.258 71.2747 401.258 72C401.258 72.7147 401.381 73.3333 401.626 73.856C401.882 74.3787 402.234 74.7787 402.682 75.056C403.13 75.3333 403.658 75.472 404.266 75.472C404.874 75.472 405.402 75.3333 405.85 75.056C406.298 74.7787 406.645 74.3787 406.89 73.856C407.146 73.3333 407.274 72.7147 407.274 72C407.274 71.2747 407.146 70.656 406.89 70.144C406.645 69.6213 406.298 69.2213 405.85 68.944C405.402 68.6667 404.874 68.528 404.266 68.528ZM419.137 76.16C418.646 76.16 418.188 76.0693 417.761 75.888C417.345 75.7067 416.988 75.4453 416.689 75.104C416.401 74.7627 416.188 74.3627 416.049 73.904L416.161 73.776L416.097 76H415.377V64.32H416.177V70.144L416.081 70C416.294 69.3387 416.673 68.816 417.217 68.432C417.772 68.0373 418.412 67.84 419.137 67.84C419.841 67.84 420.465 68.0053 421.009 68.336C421.553 68.6667 421.985 69.1413 422.305 69.76C422.625 70.3787 422.785 71.1253 422.785 72C422.785 72.864 422.625 73.6107 422.305 74.24C421.985 74.8587 421.548 75.3333 420.993 75.664C420.449 75.9947 419.83 76.16 419.137 76.16ZM419.041 75.456C419.948 75.456 420.662 75.1467 421.185 74.528C421.718 73.9093 421.985 73.0667 421.985 72C421.985 70.9333 421.724 70.0907 421.201 69.472C420.678 68.8533 419.964 68.544 419.057 68.544C418.502 68.544 418.006 68.688 417.569 68.976C417.132 69.2533 416.79 69.6533 416.545 70.176C416.3 70.6987 416.177 71.312 416.177 72.016C416.177 72.72 416.3 73.3333 416.545 73.856C416.79 74.368 417.126 74.7627 417.553 75.04C417.99 75.3173 418.486 75.456 419.041 75.456ZM428.36 76.16C427.624 76.16 426.968 75.9947 426.392 75.664C425.816 75.3333 425.363 74.8587 425.032 74.24C424.712 73.6107 424.552 72.864 424.552 72C424.552 71.136 424.712 70.3947 425.032 69.776C425.363 69.1467 425.805 68.6667 426.36 68.336C426.915 68.0053 427.549 67.84 428.264 67.84C428.989 67.84 429.608 68 430.12 68.32C430.632 68.64 431.027 69.088 431.304 69.664C431.581 70.2293 431.72 70.8853 431.72 71.632C431.72 71.728 431.715 71.824 431.704 71.92C431.704 72.0053 431.699 72.0853 431.688 72.16H425.048V71.44H431.336L430.936 71.552C430.925 70.6347 430.68 69.904 430.2 69.36C429.731 68.816 429.08 68.544 428.248 68.544C427.672 68.544 427.165 68.6827 426.728 68.96C426.291 69.2267 425.949 69.6213 425.704 70.144C425.459 70.656 425.336 71.2747 425.336 72C425.336 72.7147 425.459 73.3333 425.704 73.856C425.96 74.3787 426.312 74.7787 426.76 75.056C427.219 75.3227 427.747 75.456 428.344 75.456C428.963 75.456 429.491 75.3227 429.928 75.056C430.376 74.7893 430.723 74.4213 430.968 73.952L431.608 74.32C431.416 74.704 431.16 75.0347 430.84 75.312C430.52 75.5787 430.152 75.7867 429.736 75.936C429.32 76.0853 428.861 76.16 428.36 76.16ZM152.352 83.24C152.64 83.24 152.896 83.2773 153.12 83.352C153.344 83.4267 153.52 83.5333 153.648 83.672L153.424 84.312C153.285 84.184 153.136 84.0933 152.976 84.04C152.816 83.9867 152.629 83.96 152.416 83.96C151.893 83.96 151.488 84.1093 151.2 84.408C150.912 84.7067 150.768 85.1493 150.768 85.736V87V87.288V95H149.968V85.656C149.968 85.2933 150.016 84.9627 150.112 84.664C150.219 84.3653 150.373 84.1147 150.576 83.912C150.779 83.6987 151.029 83.5333 151.328 83.416C151.627 83.2987 151.968 83.24 152.352 83.24ZM153.584 87V87.688H148.368V87H153.584ZM158.094 95.16C157.358 95.16 156.702 94.9947 156.126 94.664C155.55 94.3333 155.097 93.8587 154.766 93.24C154.446 92.6107 154.286 91.864 154.286 91C154.286 90.136 154.446 89.3947 154.766 88.776C155.097 88.1467 155.54 87.6667 156.094 87.336C156.649 87.0053 157.284 86.84 157.998 86.84C158.724 86.84 159.342 87 159.854 87.32C160.366 87.64 160.761 88.088 161.038 88.664C161.316 89.2293 161.454 89.8853 161.454 90.632C161.454 90.728 161.449 90.824 161.438 90.92C161.438 91.0053 161.433 91.0853 161.422 91.16H154.782V90.44H161.07L160.67 90.552C160.66 89.6347 160.414 88.904 159.934 88.36C159.465 87.816 158.814 87.544 157.982 87.544C157.406 87.544 156.9 87.6827 156.462 87.96C156.025 88.2267 155.684 88.6213 155.438 89.144C155.193 89.656 155.07 90.2747 155.07 91C155.07 91.7147 155.193 92.3333 155.438 92.856C155.694 93.3787 156.046 93.7787 156.494 94.056C156.953 94.3227 157.481 94.456 158.078 94.456C158.697 94.456 159.225 94.3227 159.662 94.056C160.11 93.7893 160.457 93.4213 160.702 92.952L161.342 93.32C161.15 93.704 160.894 94.0347 160.574 94.312C160.254 94.5787 159.886 94.7867 159.47 94.936C159.054 95.0853 158.596 95.16 158.094 95.16ZM168.633 89.736C168.633 89.0427 168.446 88.504 168.073 88.12C167.699 87.736 167.166 87.544 166.473 87.544C165.865 87.544 165.342 87.6773 164.905 87.944C164.467 88.2 164.142 88.632 163.929 89.24L163.273 88.824C163.507 88.1947 163.897 87.7093 164.441 87.368C164.995 87.016 165.678 86.84 166.489 86.84C167.075 86.84 167.587 86.9467 168.025 87.16C168.473 87.3627 168.819 87.6667 169.065 88.072C169.31 88.4773 169.433 88.984 169.433 89.592V93.592C169.433 94.1573 169.689 94.44 170.201 94.44C170.425 94.44 170.617 94.4027 170.777 94.328L170.729 94.968C170.547 95.064 170.313 95.112 170.025 95.112C169.779 95.112 169.55 95.064 169.337 94.968C169.123 94.872 168.947 94.712 168.809 94.488C168.681 94.264 168.617 93.96 168.617 93.576V93.144L168.841 93.128C168.745 93.5867 168.531 93.9707 168.201 94.28C167.881 94.5787 167.507 94.8027 167.081 94.952C166.654 95.0907 166.227 95.16 165.801 95.16C165.299 95.16 164.851 95.08 164.457 94.92C164.062 94.76 163.753 94.5307 163.529 94.232C163.305 93.9227 163.193 93.544 163.193 93.096C163.193 92.4987 163.39 92.0187 163.785 91.656C164.19 91.2827 164.755 91.0267 165.481 90.888L168.793 90.232V90.904L165.881 91.48C165.251 91.608 164.782 91.7947 164.473 92.04C164.163 92.2853 164.009 92.6213 164.009 93.048C164.009 93.4853 164.174 93.832 164.505 94.088C164.835 94.3333 165.305 94.456 165.913 94.456C166.222 94.456 166.537 94.4133 166.857 94.328C167.177 94.2427 167.47 94.1093 167.737 93.928C168.014 93.736 168.233 93.5013 168.393 93.224C168.553 92.936 168.633 92.5893 168.633 92.184V89.736ZM172.424 95V87H173.096L173.192 88.68C173.395 88.1147 173.72 87.6667 174.168 87.336C174.616 87.0053 175.155 86.84 175.784 86.84C175.997 86.84 176.189 86.8613 176.36 86.904C176.531 86.9467 176.669 87.016 176.776 87.112L176.6 87.816C176.483 87.7413 176.355 87.6827 176.216 87.64C176.077 87.5973 175.869 87.576 175.592 87.576C175.187 87.576 174.803 87.704 174.44 87.96C174.077 88.2053 173.784 88.552 173.56 89C173.336 89.4373 173.224 89.944 173.224 90.52V95H172.424ZM179.207 83.32V93.112C179.207 93.6027 179.292 93.9493 179.463 94.152C179.634 94.3547 179.9 94.456 180.263 94.456C180.487 94.456 180.663 94.44 180.791 94.408C180.93 94.376 181.09 94.3227 181.271 94.248L181.159 94.952C181.02 95.016 180.86 95.064 180.679 95.096C180.508 95.1387 180.316 95.16 180.103 95.16C179.538 95.16 179.111 95 178.823 94.68C178.546 94.3493 178.407 93.8373 178.407 93.144V83.32H179.207ZM186.063 95.16C185.327 95.16 184.671 94.9947 184.095 94.664C183.519 94.3333 183.066 93.8587 182.735 93.24C182.415 92.6107 182.255 91.864 182.255 91C182.255 90.136 182.415 89.3947 182.735 88.776C183.066 88.1467 183.508 87.6667 184.063 87.336C184.618 87.0053 185.252 86.84 185.967 86.84C186.692 86.84 187.311 87 187.823 87.32C188.335 87.64 188.73 88.088 189.007 88.664C189.284 89.2293 189.423 89.8853 189.423 90.632C189.423 90.728 189.418 90.824 189.407 90.92C189.407 91.0053 189.402 91.0853 189.391 91.16H182.751V90.44H189.039L188.639 90.552C188.628 89.6347 188.383 88.904 187.903 88.36C187.434 87.816 186.783 87.544 185.951 87.544C185.375 87.544 184.868 87.6827 184.431 87.96C183.994 88.2267 183.652 88.6213 183.407 89.144C183.162 89.656 183.039 90.2747 183.039 91C183.039 91.7147 183.162 92.3333 183.407 92.856C183.663 93.3787 184.015 93.7787 184.463 94.056C184.922 94.3227 185.45 94.456 186.047 94.456C186.666 94.456 187.194 94.3227 187.631 94.056C188.079 93.7893 188.426 93.4213 188.671 92.952L189.311 93.32C189.119 93.704 188.863 94.0347 188.543 94.312C188.223 94.5787 187.855 94.7867 187.439 94.936C187.023 95.0853 186.564 95.16 186.063 95.16ZM194.409 95.16C193.599 95.16 192.879 94.9947 192.249 94.664C191.631 94.3333 191.193 93.8587 190.937 93.24L191.625 92.776C191.817 93.3093 192.159 93.7253 192.649 94.024C193.151 94.312 193.759 94.456 194.473 94.456C195.177 94.456 195.727 94.3173 196.121 94.04C196.527 93.7627 196.729 93.3947 196.729 92.936C196.729 92.6267 196.628 92.36 196.425 92.136C196.233 91.9013 195.865 91.7253 195.321 91.608L193.449 91.208C192.681 91.048 192.132 90.792 191.801 90.44C191.481 90.0773 191.321 89.64 191.321 89.128C191.321 88.7013 191.449 88.3173 191.705 87.976C191.961 87.6347 192.313 87.3627 192.761 87.16C193.22 86.9467 193.753 86.84 194.361 86.84C195.161 86.84 195.823 87 196.345 87.32C196.868 87.6293 197.236 88.0987 197.449 88.728L196.777 89.16C196.617 88.5947 196.319 88.184 195.881 87.928C195.455 87.672 194.948 87.544 194.361 87.544C193.913 87.544 193.519 87.6133 193.177 87.752C192.847 87.88 192.585 88.0613 192.393 88.296C192.212 88.52 192.121 88.7813 192.121 89.08C192.121 89.3893 192.228 89.672 192.441 89.928C192.655 90.1733 193.033 90.3547 193.577 90.472L195.497 90.888C196.255 91.048 196.783 91.2933 197.081 91.624C197.38 91.944 197.529 92.344 197.529 92.824C197.529 93.304 197.401 93.72 197.145 94.072C196.889 94.424 196.527 94.696 196.057 94.888C195.588 95.0693 195.039 95.16 194.409 95.16ZM202.472 95.16C201.661 95.16 200.941 94.9947 200.312 94.664C199.693 94.3333 199.256 93.8587 199 93.24L199.688 92.776C199.88 93.3093 200.221 93.7253 200.712 94.024C201.213 94.312 201.821 94.456 202.536 94.456C203.24 94.456 203.789 94.3173 204.184 94.04C204.589 93.7627 204.792 93.3947 204.792 92.936C204.792 92.6267 204.69 92.36 204.488 92.136C204.296 91.9013 203.928 91.7253 203.384 91.608L201.512 91.208C200.744 91.048 200.194 90.792 199.864 90.44C199.544 90.0773 199.384 89.64 199.384 89.128C199.384 88.7013 199.512 88.3173 199.768 87.976C200.024 87.6347 200.376 87.3627 200.824 87.16C201.282 86.9467 201.816 86.84 202.424 86.84C203.224 86.84 203.885 87 204.408 87.32C204.93 87.6293 205.298 88.0987 205.512 88.728L204.84 89.16C204.68 88.5947 204.381 88.184 203.944 87.928C203.517 87.672 203.01 87.544 202.424 87.544C201.976 87.544 201.581 87.6133 201.24 87.752C200.909 87.88 200.648 88.0613 200.456 88.296C200.274 88.52 200.184 88.7813 200.184 89.08C200.184 89.3893 200.29 89.672 200.504 89.928C200.717 90.1733 201.096 90.3547 201.64 90.472L203.56 90.888C204.317 91.048 204.845 91.2933 205.144 91.624C205.442 91.944 205.592 92.344 205.592 92.824C205.592 93.304 205.464 93.72 205.208 94.072C204.952 94.424 204.589 94.696 204.12 94.888C203.65 95.0693 203.101 95.16 202.472 95.16ZM213.246 85.448C213.043 85.448 212.878 85.3893 212.75 85.272C212.633 85.144 212.574 84.9787 212.574 84.776C212.574 84.5733 212.633 84.4133 212.75 84.296C212.878 84.168 213.043 84.104 213.246 84.104C213.449 84.104 213.609 84.168 213.726 84.296C213.854 84.4133 213.918 84.5733 213.918 84.776C213.918 84.9787 213.854 85.144 213.726 85.272C213.609 85.3893 213.449 85.448 213.246 85.448ZM213.646 87V95H212.846V87H213.646ZM219.191 95.16C218.38 95.16 217.66 94.9947 217.031 94.664C216.412 94.3333 215.975 93.8587 215.719 93.24L216.407 92.776C216.599 93.3093 216.94 93.7253 217.431 94.024C217.932 94.312 218.54 94.456 219.255 94.456C219.959 94.456 220.508 94.3173 220.903 94.04C221.308 93.7627 221.511 93.3947 221.511 92.936C221.511 92.6267 221.409 92.36 221.207 92.136C221.015 91.9013 220.647 91.7253 220.103 91.608L218.231 91.208C217.463 91.048 216.913 90.792 216.583 90.44C216.263 90.0773 216.103 89.64 216.103 89.128C216.103 88.7013 216.231 88.3173 216.487 87.976C216.743 87.6347 217.095 87.3627 217.543 87.16C218.001 86.9467 218.535 86.84 219.143 86.84C219.943 86.84 220.604 87 221.127 87.32C221.649 87.6293 222.017 88.0987 222.231 88.728L221.559 89.16C221.399 88.5947 221.1 88.184 220.663 87.928C220.236 87.672 219.729 87.544 219.143 87.544C218.695 87.544 218.3 87.6133 217.959 87.752C217.628 87.88 217.367 88.0613 217.174 88.296C216.993 88.52 216.903 88.7813 216.903 89.08C216.903 89.3893 217.009 89.672 217.223 89.928C217.436 90.1733 217.815 90.3547 218.359 90.472L220.279 90.888C221.036 91.048 221.564 91.2933 221.863 91.624C222.161 91.944 222.311 92.344 222.311 92.824C222.311 93.304 222.183 93.72 221.927 94.072C221.671 94.424 221.308 94.696 220.839 94.888C220.369 95.0693 219.82 95.16 219.191 95.16ZM230.58 84.776V92.888C230.58 93.3893 230.697 93.7733 230.932 94.04C231.177 94.296 231.529 94.424 231.988 94.424C232.287 94.424 232.548 94.376 232.772 94.28C233.007 94.1733 233.215 94.024 233.396 93.832L233.7 94.488C233.497 94.6907 233.241 94.856 232.932 94.984C232.623 95.1013 232.276 95.16 231.892 95.16C231.476 95.16 231.108 95.0853 230.788 94.936C230.468 94.776 230.217 94.536 230.036 94.216C229.865 93.896 229.78 93.4907 229.78 93V85L230.58 84.776ZM233.572 87V87.688H228.18V87H233.572ZM238.547 86.84C239.294 86.84 239.95 87.0053 240.515 87.336C241.091 87.6667 241.539 88.1467 241.859 88.776C242.19 89.3947 242.355 90.136 242.355 91C242.355 91.864 242.19 92.6107 241.859 93.24C241.539 93.8587 241.091 94.3333 240.515 94.664C239.95 94.9947 239.294 95.16 238.547 95.16C237.801 95.16 237.139 94.9947 236.563 94.664C235.998 94.3333 235.55 93.8587 235.219 93.24C234.899 92.6107 234.739 91.864 234.739 91C234.739 90.136 234.899 89.3947 235.219 88.776C235.55 88.1467 235.998 87.6667 236.563 87.336C237.139 87.0053 237.801 86.84 238.547 86.84ZM238.547 87.528C237.939 87.528 237.411 87.6667 236.963 87.944C236.515 88.2213 236.163 88.6213 235.907 89.144C235.662 89.656 235.539 90.2747 235.539 91C235.539 91.7147 235.662 92.3333 235.907 92.856C236.163 93.3787 236.515 93.7787 236.963 94.056C237.411 94.3333 237.939 94.472 238.547 94.472C239.155 94.472 239.683 94.3333 240.131 94.056C240.579 93.7787 240.926 93.3787 241.171 92.856C241.427 92.3333 241.555 91.7147 241.555 91C241.555 90.2747 241.427 89.656 241.171 89.144C240.926 88.6213 240.579 88.2213 240.131 87.944C239.683 87.6667 239.155 87.528 238.547 87.528ZM252.922 86.84C253.669 86.84 254.325 87.0053 254.89 87.336C255.466 87.6667 255.914 88.1467 256.234 88.776C256.565 89.3947 256.73 90.136 256.73 91C256.73 91.864 256.565 92.6107 256.234 93.24C255.914 93.8587 255.466 94.3333 254.89 94.664C254.325 94.9947 253.669 95.16 252.922 95.16C252.176 95.16 251.514 94.9947 250.938 94.664C250.373 94.3333 249.925 93.8587 249.594 93.24C249.274 92.6107 249.114 91.864 249.114 91C249.114 90.136 249.274 89.3947 249.594 88.776C249.925 88.1467 250.373 87.6667 250.938 87.336C251.514 87.0053 252.176 86.84 252.922 86.84ZM252.922 87.528C252.314 87.528 251.786 87.6667 251.338 87.944C250.89 88.2213 250.538 88.6213 250.282 89.144C250.037 89.656 249.914 90.2747 249.914 91C249.914 91.7147 250.037 92.3333 250.282 92.856C250.538 93.3787 250.89 93.7787 251.338 94.056C251.786 94.3333 252.314 94.472 252.922 94.472C253.53 94.472 254.058 94.3333 254.506 94.056C254.954 93.7787 255.301 93.3787 255.546 92.856C255.802 92.3333 255.93 91.7147 255.93 91C255.93 90.2747 255.802 89.656 255.546 89.144C255.301 88.6213 254.954 88.2213 254.506 87.944C254.058 87.6667 253.53 87.528 252.922 87.528ZM259.018 98.36V87H259.738L259.802 89.224L259.69 89.096C259.828 88.6373 260.042 88.2373 260.33 87.896C260.628 87.5547 260.991 87.2933 261.418 87.112C261.844 86.9307 262.308 86.84 262.81 86.84C263.492 86.84 264.106 87.0053 264.65 87.336C265.194 87.6667 265.626 88.1413 265.946 88.76C266.266 89.3787 266.426 90.1253 266.426 91C266.426 91.864 266.266 92.6107 265.946 93.24C265.626 93.8587 265.188 94.3333 264.634 94.664C264.09 94.9947 263.471 95.16 262.778 95.16C262.042 95.16 261.402 94.968 260.858 94.584C260.314 94.1893 259.935 93.6613 259.722 93L259.818 92.856V98.36H259.018ZM262.682 94.456C263.588 94.456 264.303 94.1467 264.826 93.528C265.359 92.9093 265.626 92.0667 265.626 91C265.626 89.9333 265.364 89.0907 264.842 88.472C264.319 87.8533 263.61 87.544 262.714 87.544C262.148 87.544 261.647 87.688 261.21 87.976C260.783 88.2533 260.442 88.6533 260.186 89.176C259.94 89.688 259.818 90.296 259.818 91C259.818 91.6933 259.94 92.3013 260.186 92.824C260.431 93.3467 260.767 93.752 261.194 94.04C261.631 94.3173 262.127 94.456 262.682 94.456ZM272.001 95.16C271.265 95.16 270.609 94.9947 270.033 94.664C269.457 94.3333 269.003 93.8587 268.673 93.24C268.353 92.6107 268.193 91.864 268.193 91C268.193 90.136 268.353 89.3947 268.673 88.776C269.003 88.1467 269.446 87.6667 270.001 87.336C270.555 87.0053 271.19 86.84 271.905 86.84C272.63 86.84 273.249 87 273.761 87.32C274.273 87.64 274.667 88.088 274.945 88.664C275.222 89.2293 275.361 89.8853 275.361 90.632C275.361 90.728 275.355 90.824 275.345 90.92C275.345 91.0053 275.339 91.0853 275.329 91.16H268.689V90.44H274.977L274.577 90.552C274.566 89.6347 274.321 88.904 273.841 88.36C273.371 87.816 272.721 87.544 271.889 87.544C271.313 87.544 270.806 87.6827 270.369 87.96C269.931 88.2267 269.59 88.6213 269.345 89.144C269.099 89.656 268.977 90.2747 268.977 91C268.977 91.7147 269.099 92.3333 269.345 92.856C269.601 93.3787 269.953 93.7787 270.401 94.056C270.859 94.3227 271.387 94.456 271.985 94.456C272.603 94.456 273.131 94.3227 273.569 94.056C274.017 93.7893 274.363 93.4213 274.609 92.952L275.249 93.32C275.057 93.704 274.801 94.0347 274.481 94.312C274.161 94.5787 273.793 94.7867 273.377 94.936C272.961 95.0853 272.502 95.16 272.001 95.16ZM277.643 95V87H278.363L278.427 89L278.299 88.888C278.448 88.4507 278.672 88.0827 278.971 87.784C279.269 87.4747 279.627 87.24 280.043 87.08C280.459 86.92 280.907 86.84 281.387 86.84C281.984 86.84 282.512 86.952 282.971 87.176C283.429 87.4 283.787 87.7307 284.043 88.168C284.309 88.6053 284.443 89.1547 284.443 89.816V95H283.643V90.072C283.643 89.1973 283.424 88.5573 282.987 88.152C282.56 87.7467 282 87.544 281.307 87.544C280.805 87.544 280.336 87.6613 279.899 87.896C279.472 88.12 279.12 88.4507 278.843 88.888C278.576 89.3253 278.443 89.8587 278.443 90.488V95H277.643ZM292.221 95V87H292.941L293.005 89L292.877 88.888C293.026 88.4507 293.25 88.0827 293.549 87.784C293.848 87.4747 294.205 87.24 294.621 87.08C295.037 86.92 295.485 86.84 295.965 86.84C296.562 86.84 297.09 86.952 297.549 87.176C298.008 87.4 298.365 87.7307 298.621 88.168C298.888 88.6053 299.021 89.1547 299.021 89.816V95H298.221V90.072C298.221 89.1973 298.002 88.5573 297.565 88.152C297.138 87.7467 296.578 87.544 295.885 87.544C295.384 87.544 294.914 87.6613 294.477 87.896C294.05 88.12 293.698 88.4507 293.421 88.888C293.154 89.3253 293.021 89.8587 293.021 90.488V95H292.221ZM305.047 95.16C304.311 95.16 303.655 94.9947 303.079 94.664C302.503 94.3333 302.05 93.8587 301.719 93.24C301.399 92.6107 301.239 91.864 301.239 91C301.239 90.136 301.399 89.3947 301.719 88.776C302.05 88.1467 302.493 87.6667 303.047 87.336C303.602 87.0053 304.237 86.84 304.951 86.84C305.677 86.84 306.295 87 306.807 87.32C307.319 87.64 307.714 88.088 307.991 88.664C308.269 89.2293 308.407 89.8853 308.407 90.632C308.407 90.728 308.402 90.824 308.391 90.92C308.391 91.0053 308.386 91.0853 308.375 91.16H301.735V90.44H308.023L307.623 90.552C307.613 89.6347 307.367 88.904 306.887 88.36C306.418 87.816 305.767 87.544 304.935 87.544C304.359 87.544 303.853 87.6827 303.415 87.96C302.978 88.2267 302.637 88.6213 302.391 89.144C302.146 89.656 302.023 90.2747 302.023 91C302.023 91.7147 302.146 92.3333 302.391 92.856C302.647 93.3787 302.999 93.7787 303.447 94.056C303.906 94.3227 304.434 94.456 305.031 94.456C305.65 94.456 306.178 94.3227 306.615 94.056C307.063 93.7893 307.41 93.4213 307.655 92.952L308.295 93.32C308.103 93.704 307.847 94.0347 307.527 94.312C307.207 94.5787 306.839 94.7867 306.423 94.936C306.007 95.0853 305.549 95.16 305.047 95.16ZM320.694 87H321.574L318.854 95H318.054L315.526 88.04L313.046 95H312.246L309.526 87H310.406L312.662 94.04L315.142 87H315.958L318.454 94.04L320.694 87ZM331.216 95.16C330.523 95.16 329.899 94.9947 329.344 94.664C328.789 94.3333 328.352 93.8587 328.032 93.24C327.723 92.6107 327.568 91.864 327.568 91C327.568 90.1147 327.733 89.3627 328.064 88.744C328.395 88.1253 328.843 87.656 329.408 87.336C329.973 87.0053 330.597 86.84 331.28 86.84C332.027 86.84 332.661 87.0373 333.184 87.432C333.717 87.8267 334.075 88.376 334.256 89.08L334.16 89.144V83.32H334.96V95H334.24L334.192 92.776L334.288 92.744C334.192 93.256 333.995 93.6933 333.696 94.056C333.408 94.4187 333.045 94.696 332.608 94.888C332.181 95.0693 331.717 95.16 331.216 95.16ZM331.312 94.456C331.877 94.456 332.373 94.3173 332.8 94.04C333.227 93.752 333.557 93.3413 333.792 92.808C334.037 92.2747 334.16 91.6507 334.16 90.936C334.16 90.232 334.037 89.6293 333.792 89.128C333.557 88.616 333.227 88.2267 332.8 87.96C332.384 87.6827 331.899 87.544 331.344 87.544C330.427 87.544 329.701 87.8533 329.168 88.472C328.635 89.0907 328.368 89.9333 328.368 91C328.368 92.0667 328.629 92.9093 329.152 93.528C329.685 94.1467 330.405 94.456 331.312 94.456ZM341.079 86.84C341.825 86.84 342.481 87.0053 343.047 87.336C343.623 87.6667 344.071 88.1467 344.391 88.776C344.721 89.3947 344.887 90.136 344.887 91C344.887 91.864 344.721 92.6107 344.391 93.24C344.071 93.8587 343.623 94.3333 343.047 94.664C342.481 94.9947 341.825 95.16 341.079 95.16C340.332 95.16 339.671 94.9947 339.095 94.664C338.529 94.3333 338.081 93.8587 337.751 93.24C337.431 92.6107 337.271 91.864 337.271 91C337.271 90.136 337.431 89.3947 337.751 88.776C338.081 88.1467 338.529 87.6667 339.095 87.336C339.671 87.0053 340.332 86.84 341.079 86.84ZM341.079 87.528C340.471 87.528 339.943 87.6667 339.495 87.944C339.047 88.2213 338.695 88.6213 338.439 89.144C338.193 89.656 338.071 90.2747 338.071 91C338.071 91.7147 338.193 92.3333 338.439 92.856C338.695 93.3787 339.047 93.7787 339.495 94.056C339.943 94.3333 340.471 94.472 341.079 94.472C341.687 94.472 342.215 94.3333 342.663 94.056C343.111 93.7787 343.457 93.3787 343.703 92.856C343.959 92.3333 344.087 91.7147 344.087 91C344.087 90.2747 343.959 89.656 343.703 89.144C343.457 88.6213 343.111 88.2213 342.663 87.944C342.215 87.6667 341.687 87.528 341.079 87.528ZM350.438 86.84C351.185 86.84 351.841 87.0053 352.406 87.336C352.982 87.6667 353.43 88.1467 353.75 88.776C354.081 89.3947 354.246 90.136 354.246 91C354.246 91.864 354.081 92.6107 353.75 93.24C353.43 93.8587 352.982 94.3333 352.406 94.664C351.841 94.9947 351.185 95.16 350.438 95.16C349.691 95.16 349.03 94.9947 348.454 94.664C347.889 94.3333 347.441 93.8587 347.11 93.24C346.79 92.6107 346.63 91.864 346.63 91C346.63 90.136 346.79 89.3947 347.11 88.776C347.441 88.1467 347.889 87.6667 348.454 87.336C349.03 87.0053 349.691 86.84 350.438 86.84ZM350.438 87.528C349.83 87.528 349.302 87.6667 348.854 87.944C348.406 88.2213 348.054 88.6213 347.798 89.144C347.553 89.656 347.43 90.2747 347.43 91C347.43 91.7147 347.553 92.3333 347.798 92.856C348.054 93.3787 348.406 93.7787 348.854 94.056C349.302 94.3333 349.83 94.472 350.438 94.472C351.046 94.472 351.574 94.3333 352.022 94.056C352.47 93.7787 352.817 93.3787 353.062 92.856C353.318 92.3333 353.446 91.7147 353.446 91C353.446 90.2747 353.318 89.656 353.062 89.144C352.817 88.6213 352.47 88.2213 352.022 87.944C351.574 87.6667 351.046 87.528 350.438 87.528ZM356.533 95V87H357.205L357.301 88.68C357.504 88.1147 357.829 87.6667 358.277 87.336C358.725 87.0053 359.264 86.84 359.893 86.84C360.107 86.84 360.299 86.8613 360.469 86.904C360.64 86.9467 360.779 87.016 360.885 87.112L360.709 87.816C360.592 87.7413 360.464 87.6827 360.325 87.64C360.187 87.5973 359.979 87.576 359.701 87.576C359.296 87.576 358.912 87.704 358.549 87.96C358.187 88.2053 357.893 88.552 357.669 89C357.445 89.4373 357.333 89.944 357.333 90.52V95H356.533ZM365.003 95.16C364.192 95.16 363.472 94.9947 362.843 94.664C362.224 94.3333 361.787 93.8587 361.531 93.24L362.219 92.776C362.411 93.3093 362.752 93.7253 363.243 94.024C363.744 94.312 364.352 94.456 365.067 94.456C365.771 94.456 366.32 94.3173 366.715 94.04C367.12 93.7627 367.323 93.3947 367.323 92.936C367.323 92.6267 367.222 92.36 367.019 92.136C366.827 91.9013 366.459 91.7253 365.915 91.608L364.043 91.208C363.275 91.048 362.726 90.792 362.395 90.44C362.075 90.0773 361.915 89.64 361.915 89.128C361.915 88.7013 362.043 88.3173 362.299 87.976C362.555 87.6347 362.907 87.3627 363.355 87.16C363.814 86.9467 364.347 86.84 364.955 86.84C365.755 86.84 366.416 87 366.939 87.32C367.462 87.6293 367.83 88.0987 368.043 88.728L367.371 89.16C367.211 88.5947 366.912 88.184 366.475 87.928C366.048 87.672 365.542 87.544 364.955 87.544C364.507 87.544 364.112 87.6133 363.771 87.752C363.44 87.88 363.179 88.0613 362.987 88.296C362.806 88.52 362.715 88.7813 362.715 89.08C362.715 89.3893 362.822 89.672 363.035 89.928C363.248 90.1733 363.627 90.3547 364.171 90.472L366.091 90.888C366.848 91.048 367.376 91.2933 367.675 91.624C367.974 91.944 368.123 92.344 368.123 92.824C368.123 93.304 367.995 93.72 367.739 94.072C367.483 94.424 367.12 94.696 366.651 94.888C366.182 95.0693 365.632 95.16 365.003 95.16ZM370.698 93.688C370.911 93.688 371.082 93.7573 371.21 93.896C371.348 94.024 371.418 94.1947 371.418 94.408C371.418 94.6213 371.348 94.7973 371.21 94.936C371.082 95.064 370.911 95.128 370.698 95.128C370.484 95.128 370.308 95.064 370.17 94.936C370.042 94.7973 369.978 94.6213 369.978 94.408C369.978 94.1947 370.042 94.024 370.17 93.896C370.308 93.7573 370.484 93.688 370.698 93.688Z" fill="#303030"/>
<path d="M59.6668 92.3334C62.4335 95.1 66.9001 95.1 69.6668 92.3334L113 49C115.767 46.2334 115.767 41.7667 113 39C110.233 36.2334 105.767 36.2334 103 39L59.6668 82.3334C56.9001 85.1 56.9001 89.5667 59.6668 92.3334Z" stroke="#303030" stroke-width="2" stroke-linecap="round" stroke-linejoin="round"/>
<path d="M108.033 53.9667L98.0332 43.9667" stroke="#303030" stroke-width="2" stroke-linecap="round" stroke-linejoin="round"/>
<path d="M76.333 32.1333L81.333 30.6666L79.8663 35.6666L81.333 40.6666L76.333 39.2L71.333 40.6666L72.7997 35.6666L71.333 30.6666L76.333 32.1333Z" stroke="#303030" stroke-width="2" stroke-linecap="round" stroke-linejoin="round"/>
<path d="M63 52.1333L68 50.6666L66.5333 55.6666L68 60.6666L63 59.2L58 60.6666L59.4667 55.6666L58 50.6666L63 52.1333Z" stroke="#303030" stroke-width="2" stroke-linecap="round" stroke-linejoin="round"/>
<path d="M113 68.8L118 67.3334L116.533 72.3334L118 77.3334L113 75.8667L108 77.3334L109.467 72.3334L108 67.3334L113 68.8Z" stroke="#303030" stroke-width="2" stroke-linecap="round" stroke-linejoin="round"/>
</svg>
