<svg width="512" height="104" viewBox="0 0 512 104" fill="none" xmlns="http://www.w3.org/2000/svg">
<path d="M124.114 33.3916V15.9371H130.216C131.432 15.9371 132.435 16.1473 133.224 16.5677C134.014 16.9825 134.602 17.5422 134.989 18.2467C135.375 18.9456 135.568 19.7211 135.568 20.5734C135.568 21.3234 135.435 21.9427 135.168 22.4314C134.906 22.92 134.56 23.3064 134.128 23.5905C133.702 23.8746 133.239 24.0848 132.739 24.2211V24.3916C133.273 24.4257 133.81 24.6132 134.349 24.9541C134.889 25.295 135.341 25.7836 135.705 26.42C136.068 27.0564 136.25 27.8348 136.25 28.7552C136.25 29.6302 136.051 30.4172 135.653 31.116C135.256 31.8149 134.628 32.3689 133.77 32.778C132.912 33.1871 131.795 33.3916 130.42 33.3916H124.114ZM126.227 31.5166H130.42C131.801 31.5166 132.781 31.2496 133.361 30.7155C133.946 30.1757 134.239 29.5223 134.239 28.7552C134.239 28.1643 134.088 27.6189 133.787 27.1189C133.486 26.6132 133.057 26.2098 132.5 25.9086C131.943 25.6018 131.284 25.4484 130.523 25.4484H126.227V31.5166ZM126.227 23.6075H130.148C130.784 23.6075 131.358 23.4825 131.869 23.2325C132.386 22.9825 132.795 22.6302 133.097 22.1757C133.403 21.7211 133.557 21.1871 133.557 20.5734C133.557 19.8064 133.29 19.1558 132.756 18.6217C132.222 18.0819 131.375 17.8121 130.216 17.8121H126.227V23.6075ZM144.939 33.6643C143.678 33.6643 142.589 33.3859 141.675 32.8291C140.766 32.2666 140.064 31.4825 139.57 30.4768C139.081 29.4655 138.837 28.2893 138.837 26.9484C138.837 25.6075 139.081 24.4257 139.57 23.403C140.064 22.3746 140.751 21.5734 141.632 20.9996C142.518 20.42 143.553 20.1302 144.734 20.1302C145.416 20.1302 146.089 20.2439 146.754 20.4711C147.419 20.6984 148.024 21.0677 148.57 21.5791C149.115 22.0848 149.55 22.7552 149.874 23.5905C150.197 24.4257 150.359 25.4541 150.359 26.6757V27.528H140.268V25.7893H148.314C148.314 25.0507 148.166 24.3916 147.871 23.8121C147.581 23.2325 147.166 22.7751 146.626 22.4399C146.092 22.1047 145.462 21.9371 144.734 21.9371C143.933 21.9371 143.24 22.1359 142.655 22.5336C142.075 22.9257 141.629 23.4371 141.317 24.0677C141.004 24.6984 140.848 25.3746 140.848 26.0961V27.2552C140.848 28.2439 141.018 29.0819 141.359 29.7694C141.706 30.4513 142.186 30.9711 142.8 31.3291C143.413 31.6814 144.126 31.8575 144.939 31.8575C145.467 31.8575 145.945 31.7836 146.371 31.6359C146.803 31.4825 147.175 31.2552 147.487 30.9541C147.8 30.6473 148.041 30.2666 148.212 29.8121L150.155 30.3575C149.95 31.0166 149.607 31.5961 149.124 32.0961C148.641 32.5905 148.044 32.9768 147.334 33.2552C146.624 33.528 145.825 33.6643 144.939 33.6643ZM174.487 21.3916H172.374C172.249 20.7836 172.03 20.2496 171.717 19.7893C171.411 19.3291 171.036 18.9427 170.592 18.6302C170.155 18.3121 169.669 18.0734 169.135 17.9143C168.601 17.7552 168.044 17.6757 167.464 17.6757C166.408 17.6757 165.45 17.9427 164.592 18.4768C163.74 19.0109 163.061 19.7979 162.555 20.8376C162.055 21.8774 161.805 23.153 161.805 24.6643C161.805 26.1757 162.055 27.4513 162.555 28.491C163.061 29.5308 163.74 30.3177 164.592 30.8518C165.45 31.3859 166.408 31.653 167.464 31.653C168.044 31.653 168.601 31.5734 169.135 31.4143C169.669 31.2552 170.155 31.0194 170.592 30.7069C171.036 30.3888 171.411 29.9996 171.717 29.5393C172.03 29.0734 172.249 28.5393 172.374 27.9371H174.487C174.328 28.8291 174.038 29.6274 173.618 30.3319C173.197 31.0365 172.675 31.6359 172.05 32.1302C171.425 32.6189 170.723 32.991 169.945 33.2467C169.172 33.5024 168.345 33.6302 167.464 33.6302C165.976 33.6302 164.652 33.2666 163.493 32.5393C162.334 31.8121 161.422 30.778 160.757 29.4371C160.092 28.0961 159.76 26.5052 159.76 24.6643C159.76 22.8234 160.092 21.2325 160.757 19.8916C161.422 18.5507 162.334 17.5166 163.493 16.7893C164.652 16.0621 165.976 15.6984 167.464 15.6984C168.345 15.6984 169.172 15.8263 169.945 16.0819C170.723 16.3376 171.425 16.7126 172.05 17.2069C172.675 17.6956 173.197 18.2922 173.618 18.9967C174.038 19.6956 174.328 20.4939 174.487 21.3916ZM177.63 33.3916V20.3007H179.573V22.278H179.71C179.948 21.6302 180.38 21.1047 181.005 20.7013C181.63 20.2979 182.335 20.0961 183.119 20.0961C183.266 20.0961 183.451 20.099 183.673 20.1047C183.894 20.1104 184.062 20.1189 184.175 20.1302V22.1757C184.107 22.1586 183.951 22.1331 183.707 22.099C183.468 22.0592 183.215 22.0393 182.948 22.0393C182.312 22.0393 181.744 22.1729 181.244 22.4399C180.749 22.7013 180.357 23.0649 180.067 23.5308C179.783 23.991 179.641 24.5166 179.641 25.1075V33.3916H177.63ZM191.65 33.6643C190.388 33.6643 189.3 33.3859 188.386 32.8291C187.477 32.2666 186.775 31.4825 186.281 30.4768C185.792 29.4655 185.548 28.2893 185.548 26.9484C185.548 25.6075 185.792 24.4257 186.281 23.403C186.775 22.3746 187.462 21.5734 188.343 20.9996C189.229 20.42 190.263 20.1302 191.445 20.1302C192.127 20.1302 192.8 20.2439 193.465 20.4711C194.13 20.6984 194.735 21.0677 195.281 21.5791C195.826 22.0848 196.261 22.7552 196.585 23.5905C196.908 24.4257 197.07 25.4541 197.07 26.6757V27.528H186.979V25.7893H195.025C195.025 25.0507 194.877 24.3916 194.582 23.8121C194.292 23.2325 193.877 22.7751 193.337 22.4399C192.803 22.1047 192.173 21.9371 191.445 21.9371C190.644 21.9371 189.951 22.1359 189.366 22.5336C188.786 22.9257 188.34 23.4371 188.028 24.0677C187.715 24.6984 187.559 25.3746 187.559 26.0961V27.2552C187.559 28.2439 187.729 29.0819 188.07 29.7694C188.417 30.4513 188.897 30.9711 189.511 31.3291C190.124 31.6814 190.837 31.8575 191.65 31.8575C192.178 31.8575 192.656 31.7836 193.082 31.6359C193.513 31.4825 193.886 31.2552 194.198 30.9541C194.511 30.6473 194.752 30.2666 194.923 29.8121L196.866 30.3575C196.661 31.0166 196.317 31.5961 195.835 32.0961C195.352 32.5905 194.755 32.9768 194.045 33.2552C193.335 33.528 192.536 33.6643 191.65 33.6643ZM203.982 33.6984C203.153 33.6984 202.4 33.5422 201.724 33.2297C201.048 32.9115 200.511 32.4541 200.113 31.8575C199.715 31.2552 199.516 30.528 199.516 29.6757C199.516 28.9257 199.664 28.3177 199.96 27.8518C200.255 27.3802 200.65 27.0109 201.144 26.7439C201.638 26.4768 202.184 26.278 202.781 26.1473C203.383 26.0109 203.988 25.903 204.596 25.8234C205.391 25.7211 206.036 25.6444 206.531 25.5933C207.031 25.5365 207.394 25.4427 207.621 25.3121C207.854 25.1814 207.971 24.9541 207.971 24.6302V24.5621C207.971 23.7211 207.741 23.0677 207.281 22.6018C206.826 22.1359 206.136 21.903 205.21 21.903C204.249 21.903 203.496 22.1132 202.951 22.5336C202.406 22.9541 202.022 23.403 201.8 23.8802L199.891 23.1984C200.232 22.403 200.687 21.7836 201.255 21.3405C201.829 20.8916 202.454 20.5791 203.13 20.403C203.812 20.2211 204.482 20.1302 205.141 20.1302C205.562 20.1302 206.045 20.1814 206.59 20.2836C207.141 20.3802 207.673 20.5819 208.184 20.8888C208.701 21.1956 209.13 21.6586 209.471 22.278C209.812 22.8973 209.982 23.7268 209.982 24.7666V33.3916H207.971V31.6189H207.869C207.732 31.903 207.505 32.2069 207.187 32.5308C206.869 32.8547 206.445 33.1302 205.917 33.3575C205.388 33.5848 204.744 33.6984 203.982 33.6984ZM204.289 31.8916C205.085 31.8916 205.755 31.7354 206.3 31.4229C206.852 31.1104 207.266 30.7069 207.545 30.2126C207.829 29.7183 207.971 29.1984 207.971 28.653V26.8121C207.886 26.9143 207.698 27.0081 207.408 27.0933C207.124 27.1729 206.795 27.2439 206.42 27.3064C206.05 27.3632 205.69 27.4143 205.337 27.4598C204.991 27.4996 204.71 27.5336 204.494 27.5621C203.971 27.6302 203.482 27.741 203.028 27.8944C202.579 28.0422 202.215 28.2666 201.937 28.5677C201.664 28.8632 201.528 29.2666 201.528 29.778C201.528 30.4768 201.786 31.0052 202.303 31.3632C202.826 31.7155 203.488 31.8916 204.289 31.8916ZM219.347 20.3007V22.0052H212.562V20.3007H219.347ZM214.54 17.1643H216.551V29.6416C216.551 30.2098 216.634 30.6359 216.798 30.92C216.969 31.1984 217.185 31.3859 217.446 31.4825C217.713 31.5734 217.994 31.6189 218.29 31.6189C218.511 31.6189 218.693 31.6075 218.835 31.5848C218.977 31.5564 219.091 31.5336 219.176 31.5166L219.585 33.3234C219.449 33.3746 219.259 33.4257 219.014 33.4768C218.77 33.5336 218.46 33.5621 218.085 33.5621C217.517 33.5621 216.96 33.4399 216.415 33.1956C215.875 32.9513 215.426 32.5791 215.068 32.0791C214.716 31.5791 214.54 30.9484 214.54 30.1871V17.1643ZM222.372 33.3916V20.3007H224.384V33.3916H222.372ZM223.395 18.1189C223.003 18.1189 222.665 17.9854 222.381 17.7183C222.102 17.4513 221.963 17.1302 221.963 16.7552C221.963 16.3802 222.102 16.0592 222.381 15.7922C222.665 15.5251 223.003 15.3916 223.395 15.3916C223.787 15.3916 224.122 15.5251 224.401 15.7922C224.685 16.0592 224.827 16.3802 224.827 16.7552C224.827 17.1302 224.685 17.4513 224.401 17.7183C224.122 17.9854 223.787 18.1189 223.395 18.1189ZM238.772 20.3007L233.931 33.3916H231.886L227.045 20.3007H229.227L232.84 30.7325H232.977L236.59 20.3007H238.772ZM246.447 33.6643C245.185 33.6643 244.097 33.3859 243.183 32.8291C242.273 32.2666 241.572 31.4825 241.077 30.4768C240.589 29.4655 240.344 28.2893 240.344 26.9484C240.344 25.6075 240.589 24.4257 241.077 23.403C241.572 22.3746 242.259 21.5734 243.14 20.9996C244.026 20.42 245.06 20.1302 246.242 20.1302C246.924 20.1302 247.597 20.2439 248.262 20.4711C248.927 20.6984 249.532 21.0677 250.077 21.5791C250.623 22.0848 251.058 22.7552 251.381 23.5905C251.705 24.4257 251.867 25.4541 251.867 26.6757V27.528H241.776V25.7893H249.822C249.822 25.0507 249.674 24.3916 249.379 23.8121C249.089 23.2325 248.674 22.7751 248.134 22.4399C247.6 22.1047 246.969 21.9371 246.242 21.9371C245.441 21.9371 244.748 22.1359 244.163 22.5336C243.583 22.9257 243.137 23.4371 242.825 24.0677C242.512 24.6984 242.356 25.3746 242.356 26.0961V27.2552C242.356 28.2439 242.526 29.0819 242.867 29.7694C243.214 30.4513 243.694 30.9711 244.308 31.3291C244.921 31.6814 245.634 31.8575 246.447 31.8575C246.975 31.8575 247.452 31.7836 247.879 31.6359C248.31 31.4825 248.683 31.2552 248.995 30.9541C249.308 30.6473 249.549 30.2666 249.719 29.8121L251.663 30.3575C251.458 31.0166 251.114 31.5961 250.631 32.0961C250.148 32.5905 249.552 32.9768 248.842 33.2552C248.131 33.528 247.333 33.6643 246.447 33.6643ZM122.773 61.0052V59.7552H131.5V61.0052H127.841V71.3916H126.432V61.0052H122.773ZM135.773 71.5734C134.985 71.5734 134.294 71.3859 133.699 71.0109C133.108 70.6359 132.646 70.1113 132.312 69.4371C131.983 68.7628 131.818 67.9749 131.818 67.0734C131.818 66.1643 131.983 65.3708 132.312 64.6927C132.646 64.0147 133.108 63.4882 133.699 63.1132C134.294 62.7382 134.985 62.5507 135.773 62.5507C136.561 62.5507 137.25 62.7382 137.841 63.1132C138.436 63.4882 138.898 64.0147 139.227 64.6927C139.561 65.3708 139.727 66.1643 139.727 67.0734C139.727 67.9749 139.561 68.7628 139.227 69.4371C138.898 70.1113 138.436 70.6359 137.841 71.0109C137.25 71.3859 136.561 71.5734 135.773 71.5734ZM135.773 70.3689C136.371 70.3689 136.864 70.2155 137.25 69.9086C137.636 69.6018 137.922 69.1984 138.108 68.6984C138.294 68.1984 138.386 67.6568 138.386 67.0734C138.386 66.4901 138.294 65.9465 138.108 65.4427C137.922 64.9389 137.636 64.5318 137.25 64.2211C136.864 63.9105 136.371 63.7552 135.773 63.7552C135.174 63.7552 134.682 63.9105 134.295 64.2211C133.909 64.5318 133.623 64.9389 133.438 65.4427C133.252 65.9465 133.159 66.4901 133.159 67.0734C133.159 67.6568 133.252 68.1984 133.438 68.6984C133.623 69.1984 133.909 69.6018 134.295 69.9086C134.682 70.2155 135.174 70.3689 135.773 70.3689ZM152.456 64.6189L151.251 64.9598C151.176 64.759 151.064 64.5639 150.916 64.3746C150.772 64.1814 150.575 64.0223 150.325 63.8973C150.075 63.7723 149.755 63.7098 149.365 63.7098C148.831 63.7098 148.386 63.8329 148.03 64.0791C147.678 64.3215 147.501 64.6302 147.501 65.0052C147.501 65.3386 147.623 65.6018 147.865 65.795C148.107 65.9882 148.486 66.1492 149.001 66.278L150.297 66.5961C151.077 66.7855 151.659 67.0753 152.041 67.4655C152.424 67.8518 152.615 68.3499 152.615 68.9598C152.615 69.4598 152.471 69.9068 152.183 70.3007C151.899 70.6946 151.501 71.0052 150.99 71.2325C150.479 71.4598 149.884 71.5734 149.206 71.5734C148.316 71.5734 147.579 71.3802 146.996 70.9939C146.412 70.6075 146.043 70.0431 145.888 69.3007L147.161 68.9825C147.282 69.4522 147.511 69.8045 147.848 70.0393C148.189 70.2742 148.634 70.3916 149.183 70.3916C149.808 70.3916 150.304 70.259 150.672 69.9939C151.043 69.7249 151.229 69.403 151.229 69.028C151.229 68.7249 151.123 68.4711 150.911 68.2666C150.698 68.0583 150.373 67.903 149.933 67.8007L148.479 67.4598C147.679 67.2704 147.092 66.9768 146.717 66.5791C146.346 66.1776 146.161 65.6757 146.161 65.0734C146.161 64.581 146.299 64.1454 146.575 63.7666C146.856 63.3878 147.236 63.0905 147.717 62.8746C148.202 62.6586 148.751 62.5507 149.365 62.5507C150.229 62.5507 150.907 62.7401 151.399 63.1189C151.895 63.4977 152.248 63.9977 152.456 64.6189ZM158.293 71.5734C157.452 71.5734 156.726 71.3878 156.116 71.0166C155.51 70.6416 155.043 70.1189 154.713 69.4484C154.387 68.7742 154.224 67.9901 154.224 67.0961C154.224 66.2022 154.387 65.4143 154.713 64.7325C155.043 64.0469 155.501 63.5128 156.088 63.1302C156.679 62.7439 157.368 62.5507 158.156 62.5507C158.611 62.5507 159.06 62.6264 159.503 62.778C159.946 62.9295 160.349 63.1757 160.713 63.5166C161.077 63.8537 161.366 64.3007 161.582 64.8575C161.798 65.4143 161.906 66.0999 161.906 66.9143V67.4825H155.179V66.3234H160.543C160.543 65.831 160.444 65.3916 160.247 65.0052C160.054 64.6189 159.777 64.3139 159.418 64.0905C159.062 63.867 158.641 63.7552 158.156 63.7552C157.622 63.7552 157.16 63.8878 156.77 64.153C156.384 64.4143 156.086 64.7552 155.878 65.1757C155.67 65.5961 155.565 66.0469 155.565 66.528V67.3007C155.565 67.9598 155.679 68.5185 155.906 68.9768C156.137 69.4314 156.457 69.778 156.866 70.0166C157.276 70.2515 157.751 70.3689 158.293 70.3689C158.645 70.3689 158.963 70.3196 159.247 70.2211C159.535 70.1189 159.783 69.9674 159.991 69.7666C160.2 69.5621 160.361 69.3083 160.474 69.0052L161.77 69.3689C161.634 69.8083 161.404 70.1946 161.082 70.528C160.76 70.8575 160.363 71.1151 159.889 71.3007C159.416 71.4825 158.884 71.5734 158.293 71.5734ZM165.287 59.7552V71.3916H163.946V59.7552H165.287ZM171.629 62.6643V63.8007H166.925V62.6643H171.629ZM168.334 71.3916V61.4598C168.334 60.9598 168.451 60.5431 168.686 60.2098C168.921 59.8764 169.226 59.6264 169.601 59.4598C169.976 59.2931 170.372 59.2098 170.788 59.2098C171.118 59.2098 171.387 59.2363 171.595 59.2893C171.804 59.3424 171.959 59.3916 172.061 59.4371L171.675 60.5961C171.607 60.5734 171.512 60.545 171.391 60.5109C171.273 60.4768 171.118 60.4598 170.925 60.4598C170.482 60.4598 170.161 60.5715 169.964 60.795C169.771 61.0185 169.675 61.3461 169.675 61.778V71.3916H168.334ZM178.055 65.778V67.028H172.964V65.778H178.055ZM184.074 71.5734C183.233 71.5734 182.508 71.3878 181.898 71.0166C181.292 70.6416 180.824 70.1189 180.494 69.4484C180.169 68.7742 180.006 67.9901 180.006 67.0961C180.006 66.2022 180.169 65.4143 180.494 64.7325C180.824 64.0469 181.282 63.5128 181.869 63.1302C182.46 62.7439 183.15 62.5507 183.938 62.5507C184.392 62.5507 184.841 62.6264 185.284 62.778C185.727 62.9295 186.131 63.1757 186.494 63.5166C186.858 63.8537 187.148 64.3007 187.364 64.8575C187.58 65.4143 187.688 66.0999 187.688 66.9143V67.4825H180.96V66.3234H186.324C186.324 65.831 186.225 65.3916 186.028 65.0052C185.835 64.6189 185.559 64.3139 185.199 64.0905C184.843 63.867 184.422 63.7552 183.938 63.7552C183.403 63.7552 182.941 63.8878 182.551 64.153C182.165 64.4143 181.867 64.7552 181.659 65.1757C181.451 65.5961 181.347 66.0469 181.347 66.528V67.3007C181.347 67.9598 181.46 68.5185 181.688 68.9768C181.919 69.4314 182.239 69.778 182.648 70.0166C183.057 70.2515 183.532 70.3689 184.074 70.3689C184.426 70.3689 184.744 70.3196 185.028 70.2211C185.316 70.1189 185.564 69.9674 185.773 69.7666C185.981 69.5621 186.142 69.3083 186.256 69.0052L187.551 69.3689C187.415 69.8083 187.186 70.1946 186.864 70.528C186.542 70.8575 186.144 71.1151 185.67 71.3007C185.197 71.4825 184.665 71.5734 184.074 71.5734ZM190.493 62.6643L192.584 66.2325L194.675 62.6643H196.22L193.402 67.028L196.22 71.3916H194.675L192.584 68.0052L190.493 71.3916H188.947L191.72 67.028L188.947 62.6643H190.493ZM198.134 74.6643V62.6643H199.429V64.0507H199.588C199.687 63.8992 199.823 63.706 199.997 63.4711C200.175 63.2325 200.429 63.0204 200.759 62.8348C201.092 62.6454 201.543 62.5507 202.111 62.5507C202.846 62.5507 203.493 62.7344 204.054 63.1018C204.615 63.4693 205.052 63.9901 205.366 64.6643C205.681 65.3386 205.838 66.134 205.838 67.0507C205.838 67.9749 205.681 68.7761 205.366 69.4541C205.052 70.1283 204.616 70.6511 204.06 71.0223C203.503 71.3897 202.861 71.5734 202.134 71.5734C201.573 71.5734 201.124 71.4806 200.787 71.295C200.45 71.1056 200.19 70.8916 200.009 70.653C199.827 70.4105 199.687 70.2098 199.588 70.0507H199.474V74.6643H198.134ZM199.452 67.028C199.452 67.6871 199.548 68.2685 199.741 68.7723C199.935 69.2723 200.217 69.6643 200.588 69.9484C200.959 70.2287 201.414 70.3689 201.952 70.3689C202.512 70.3689 202.98 70.2211 203.355 69.9257C203.734 69.6265 204.018 69.2249 204.207 68.7211C204.401 68.2136 204.497 67.6492 204.497 67.028C204.497 66.4143 204.402 65.8613 204.213 65.3689C204.027 64.8727 203.745 64.4806 203.366 64.1927C202.991 63.9011 202.52 63.7552 201.952 63.7552C201.406 63.7552 200.948 63.8935 200.577 64.17C200.205 64.4427 199.925 64.8253 199.736 65.3177C199.546 65.8064 199.452 66.3764 199.452 67.028ZM207.884 71.3916V62.6643H209.179V63.9825H209.27C209.429 63.5507 209.717 63.2003 210.134 62.9314C210.55 62.6624 211.02 62.528 211.543 62.528C211.641 62.528 211.764 62.5299 211.912 62.5336C212.06 62.5374 212.171 62.5431 212.247 62.5507V63.9143C212.202 63.903 212.098 63.8859 211.935 63.8632C211.776 63.8367 211.607 63.8234 211.429 63.8234C211.005 63.8234 210.626 63.9124 210.293 64.0905C209.963 64.2647 209.702 64.5071 209.509 64.8177C209.319 65.1246 209.224 65.4749 209.224 65.8689V71.3916H207.884ZM217.23 71.5734C216.389 71.5734 215.664 71.3878 215.054 71.0166C214.448 70.6416 213.98 70.1189 213.651 69.4484C213.325 68.7742 213.162 67.9901 213.162 67.0961C213.162 66.2022 213.325 65.4143 213.651 64.7325C213.98 64.0469 214.438 63.5128 215.026 63.1302C215.616 62.7439 216.306 62.5507 217.094 62.5507C217.548 62.5507 217.997 62.6264 218.44 62.778C218.884 62.9295 219.287 63.1757 219.651 63.5166C220.014 63.8537 220.304 64.3007 220.52 64.8575C220.736 65.4143 220.844 66.0999 220.844 66.9143V67.4825H214.116V66.3234H219.48C219.48 65.831 219.382 65.3916 219.185 65.0052C218.991 64.6189 218.715 64.3139 218.355 64.0905C217.999 63.867 217.579 63.7552 217.094 63.7552C216.56 63.7552 216.098 63.8878 215.707 64.153C215.321 64.4143 215.024 64.7552 214.815 65.1757C214.607 65.5961 214.503 66.0469 214.503 66.528V67.3007C214.503 67.9598 214.616 68.5185 214.844 68.9768C215.075 69.4314 215.395 69.778 215.804 70.0166C216.213 70.2515 216.688 70.3689 217.23 70.3689C217.582 70.3689 217.901 70.3196 218.185 70.2211C218.473 70.1189 218.721 69.9674 218.929 69.7666C219.137 69.5621 219.298 69.3083 219.412 69.0052L220.707 69.3689C220.571 69.8083 220.342 70.1946 220.02 70.528C219.698 70.8575 219.3 71.1151 218.827 71.3007C218.353 71.4825 217.821 71.5734 217.23 71.5734ZM229.065 64.6189L227.861 64.9598C227.785 64.759 227.673 64.5639 227.526 64.3746C227.382 64.1814 227.185 64.0223 226.935 63.8973C226.685 63.7723 226.365 63.7098 225.974 63.7098C225.44 63.7098 224.995 63.8329 224.639 64.0791C224.287 64.3215 224.111 64.6302 224.111 65.0052C224.111 65.3386 224.232 65.6018 224.474 65.795C224.717 65.9882 225.096 66.1492 225.611 66.278L226.906 66.5961C227.687 66.7855 228.268 67.0753 228.651 67.4655C229.033 67.8518 229.224 68.3499 229.224 68.9598C229.224 69.4598 229.08 69.9068 228.793 70.3007C228.509 70.6946 228.111 71.0052 227.599 71.2325C227.088 71.4598 226.493 71.5734 225.815 71.5734C224.925 71.5734 224.188 71.3802 223.605 70.9939C223.022 70.6075 222.652 70.0431 222.497 69.3007L223.77 68.9825C223.891 69.4522 224.12 69.8045 224.457 70.0393C224.798 70.2742 225.243 70.3916 225.793 70.3916C226.418 70.3916 226.914 70.259 227.281 69.9939C227.652 69.7249 227.838 69.403 227.838 69.028C227.838 68.7249 227.732 68.4711 227.52 68.2666C227.308 68.0583 226.982 67.903 226.543 67.8007L225.088 67.4598C224.289 67.2704 223.702 66.9768 223.327 66.5791C222.955 66.1776 222.77 65.6757 222.77 65.0734C222.77 64.581 222.908 64.1454 223.185 63.7666C223.465 63.3878 223.846 63.0905 224.327 62.8746C224.812 62.6586 225.361 62.5507 225.974 62.5507C226.838 62.5507 227.516 62.7401 228.009 63.1189C228.505 63.4977 228.857 63.9977 229.065 64.6189ZM237.425 64.6189L236.22 64.9598C236.144 64.759 236.033 64.5639 235.885 64.3746C235.741 64.1814 235.544 64.0223 235.294 63.8973C235.044 63.7723 234.724 63.7098 234.334 63.7098C233.8 63.7098 233.355 63.8329 232.999 64.0791C232.646 64.3215 232.47 64.6302 232.47 65.0052C232.47 65.3386 232.591 65.6018 232.834 65.795C233.076 65.9882 233.455 66.1492 233.97 66.278L235.266 66.5961C236.046 66.7855 236.627 67.0753 237.01 67.4655C237.393 67.8518 237.584 68.3499 237.584 68.9598C237.584 69.4598 237.44 69.9068 237.152 70.3007C236.868 70.6946 236.47 71.0052 235.959 71.2325C235.447 71.4598 234.853 71.5734 234.175 71.5734C233.285 71.5734 232.548 71.3802 231.964 70.9939C231.381 70.6075 231.012 70.0431 230.857 69.3007L232.129 68.9825C232.25 69.4522 232.48 69.8045 232.817 70.0393C233.158 70.2742 233.603 70.3916 234.152 70.3916C234.777 70.3916 235.273 70.259 235.641 69.9939C236.012 69.7249 236.197 69.403 236.197 69.028C236.197 68.7249 236.091 68.4711 235.879 68.2666C235.667 68.0583 235.341 67.903 234.902 67.8007L233.447 67.4598C232.648 67.2704 232.061 66.9768 231.686 66.5791C231.315 66.1776 231.129 65.6757 231.129 65.0734C231.129 64.581 231.268 64.1454 231.544 63.7666C231.824 63.3878 232.205 63.0905 232.686 62.8746C233.171 62.6586 233.72 62.5507 234.334 62.5507C235.197 62.5507 235.875 62.7401 236.368 63.1189C236.864 63.4977 237.216 63.9977 237.425 64.6189ZM244.102 71.3916V62.6643H245.443V71.3916H244.102ZM244.784 61.2098C244.523 61.2098 244.297 61.1208 244.108 60.9427C243.922 60.7647 243.83 60.5507 243.83 60.3007C243.83 60.0507 243.922 59.8367 244.108 59.6586C244.297 59.4806 244.523 59.3916 244.784 59.3916C245.045 59.3916 245.269 59.4806 245.455 59.6586C245.644 59.8367 245.739 60.0507 245.739 60.3007C245.739 60.5507 245.644 60.7647 245.455 60.9427C245.269 61.1208 245.045 61.2098 244.784 61.2098ZM254.081 64.6189L252.876 64.9598C252.801 64.759 252.689 64.5639 252.541 64.3746C252.397 64.1814 252.2 64.0223 251.95 63.8973C251.7 63.7723 251.38 63.7098 250.99 63.7098C250.456 63.7098 250.011 63.8329 249.655 64.0791C249.303 64.3215 249.126 64.6302 249.126 65.0052C249.126 65.3386 249.248 65.6018 249.49 65.795C249.732 65.9882 250.111 66.1492 250.626 66.278L251.922 66.5961C252.702 66.7855 253.284 67.0753 253.666 67.4655C254.049 67.8518 254.24 68.3499 254.24 68.9598C254.24 69.4598 254.096 69.9068 253.808 70.3007C253.524 70.6946 253.126 71.0052 252.615 71.2325C252.104 71.4598 251.509 71.5734 250.831 71.5734C249.941 71.5734 249.204 71.3802 248.621 70.9939C248.037 70.6075 247.668 70.0431 247.513 69.3007L248.786 68.9825C248.907 69.4522 249.136 69.8045 249.473 70.0393C249.814 70.2742 250.259 70.3916 250.808 70.3916C251.433 70.3916 251.929 70.259 252.297 69.9939C252.668 69.7249 252.854 69.403 252.854 69.028C252.854 68.7249 252.748 68.4711 252.536 68.2666C252.323 68.0583 251.998 67.903 251.558 67.8007L250.104 67.4598C249.304 67.2704 248.717 66.9768 248.342 66.5791C247.971 66.1776 247.786 65.6757 247.786 65.0734C247.786 64.581 247.924 64.1454 248.2 63.7666C248.481 63.3878 248.861 63.0905 249.342 62.8746C249.827 62.6586 250.376 62.5507 250.99 62.5507C251.854 62.5507 252.532 62.7401 253.024 63.1189C253.52 63.4977 253.873 63.9977 254.081 64.6189ZM264.554 62.6643V63.8007H260.031V62.6643H264.554ZM261.349 60.5734H262.69V68.8916C262.69 69.2704 262.745 69.5545 262.855 69.7439C262.969 69.9295 263.113 70.0545 263.287 70.1189C263.465 70.1795 263.652 70.2098 263.849 70.2098C263.997 70.2098 264.118 70.2022 264.213 70.1871C264.308 70.1681 264.384 70.153 264.44 70.1416L264.713 71.3461C264.622 71.3802 264.495 71.4143 264.332 71.4484C264.17 71.4863 263.963 71.5052 263.713 71.5052C263.334 71.5052 262.963 71.4238 262.599 71.2609C262.24 71.098 261.94 70.8499 261.702 70.5166C261.467 70.1833 261.349 69.7628 261.349 69.2552V60.5734ZM270.023 71.5734C269.235 71.5734 268.544 71.3859 267.949 71.0109C267.358 70.6359 266.896 70.1113 266.562 69.4371C266.233 68.7628 266.068 67.9749 266.068 67.0734C266.068 66.1643 266.233 65.3708 266.562 64.6927C266.896 64.0147 267.358 63.4882 267.949 63.1132C268.544 62.7382 269.235 62.5507 270.023 62.5507C270.811 62.5507 271.5 62.7382 272.091 63.1132C272.686 63.4882 273.148 64.0147 273.477 64.6927C273.811 65.3708 273.977 66.1643 273.977 67.0734C273.977 67.9749 273.811 68.7628 273.477 69.4371C273.148 70.1113 272.686 70.6359 272.091 71.0109C271.5 71.3859 270.811 71.5734 270.023 71.5734ZM270.023 70.3689C270.621 70.3689 271.114 70.2155 271.5 69.9086C271.886 69.6018 272.172 69.1984 272.358 68.6984C272.544 68.1984 272.636 67.6568 272.636 67.0734C272.636 66.4901 272.544 65.9465 272.358 65.4427C272.172 64.9389 271.886 64.5318 271.5 64.2211C271.114 63.9105 270.621 63.7552 270.023 63.7552C269.424 63.7552 268.932 63.9105 268.545 64.2211C268.159 64.5318 267.873 64.9389 267.688 65.4427C267.502 65.9465 267.409 66.4901 267.409 67.0734C267.409 67.6568 267.502 68.1984 267.688 68.6984C267.873 69.1984 268.159 69.6018 268.545 69.9086C268.932 70.2155 269.424 70.3689 270.023 70.3689ZM280.706 71.3916V59.7552H282.047V64.0507H282.161C282.259 63.8992 282.395 63.706 282.57 63.4711C282.748 63.2325 283.001 63.0204 283.331 62.8348C283.664 62.6454 284.115 62.5507 284.683 62.5507C285.418 62.5507 286.066 62.7344 286.626 63.1018C287.187 63.4693 287.625 63.9901 287.939 64.6643C288.253 65.3386 288.411 66.134 288.411 67.0507C288.411 67.9749 288.253 68.7761 287.939 69.4541C287.625 70.1283 287.189 70.6511 286.632 71.0223C286.075 71.3897 285.433 71.5734 284.706 71.5734C284.145 71.5734 283.696 71.4806 283.359 71.295C283.022 71.1056 282.763 70.8916 282.581 70.653C282.399 70.4105 282.259 70.2098 282.161 70.0507H282.001V71.3916H280.706ZM282.024 67.028C282.024 67.6871 282.121 68.2685 282.314 68.7723C282.507 69.2723 282.789 69.6643 283.161 69.9484C283.532 70.2287 283.986 70.3689 284.524 70.3689C285.085 70.3689 285.553 70.2211 285.928 69.9257C286.306 69.6265 286.59 69.2249 286.78 68.7211C286.973 68.2136 287.07 67.6492 287.07 67.028C287.07 66.4143 286.975 65.8613 286.786 65.3689C286.6 64.8727 286.318 64.4806 285.939 64.1927C285.564 63.9011 285.092 63.7552 284.524 63.7552C283.979 63.7552 283.52 63.8935 283.149 64.17C282.778 64.4427 282.498 64.8253 282.308 65.3177C282.119 65.8064 282.024 66.3764 282.024 67.028ZM294.121 71.5734C293.28 71.5734 292.554 71.3878 291.945 71.0166C291.339 70.6416 290.871 70.1189 290.541 69.4484C290.215 68.7742 290.053 67.9901 290.053 67.0961C290.053 66.2022 290.215 65.4143 290.541 64.7325C290.871 64.0469 291.329 63.5128 291.916 63.1302C292.507 62.7439 293.196 62.5507 293.984 62.5507C294.439 62.5507 294.888 62.6264 295.331 62.778C295.774 62.9295 296.178 63.1757 296.541 63.5166C296.905 63.8537 297.195 64.3007 297.411 64.8575C297.626 65.4143 297.734 66.0999 297.734 66.9143V67.4825H291.007V66.3234H296.371C296.371 65.831 296.272 65.3916 296.075 65.0052C295.882 64.6189 295.606 64.3139 295.246 64.0905C294.89 63.867 294.469 63.7552 293.984 63.7552C293.45 63.7552 292.988 63.8878 292.598 64.153C292.212 64.4143 291.914 64.7552 291.706 65.1757C291.498 65.5961 291.393 66.0469 291.393 66.528V67.3007C291.393 67.9598 291.507 68.5185 291.734 68.9768C291.965 69.4314 292.286 69.778 292.695 70.0166C293.104 70.2515 293.579 70.3689 294.121 70.3689C294.473 70.3689 294.791 70.3196 295.075 70.2211C295.363 70.1189 295.611 69.9674 295.82 69.7666C296.028 69.5621 296.189 69.3083 296.303 69.0052L297.598 69.3689C297.462 69.8083 297.232 70.1946 296.911 70.528C296.589 70.8575 296.191 71.1151 295.717 71.3007C295.244 71.4825 294.712 71.5734 294.121 71.5734ZM308.161 62.6643V63.8007H303.456V62.6643H308.161ZM304.865 71.3916V61.4598C304.865 60.9598 304.982 60.5431 305.217 60.2098C305.452 59.8764 305.757 59.6264 306.132 59.4598C306.507 59.2931 306.903 59.2098 307.32 59.2098C307.649 59.2098 307.918 59.2363 308.126 59.2893C308.335 59.3424 308.49 59.3916 308.592 59.4371L308.206 60.5961C308.138 60.5734 308.043 60.545 307.922 60.5109C307.804 60.4768 307.649 60.4598 307.456 60.4598C307.013 60.4598 306.693 60.5715 306.496 60.795C306.303 61.0185 306.206 61.3461 306.206 61.778V71.3916H304.865ZM313.339 71.5734C312.499 71.5734 311.773 71.3878 311.163 71.0166C310.557 70.6416 310.089 70.1189 309.76 69.4484C309.434 68.7742 309.271 67.9901 309.271 67.0961C309.271 66.2022 309.434 65.4143 309.76 64.7325C310.089 64.0469 310.548 63.5128 311.135 63.1302C311.726 62.7439 312.415 62.5507 313.203 62.5507C313.658 62.5507 314.107 62.6264 314.55 62.778C314.993 62.9295 315.396 63.1757 315.76 63.5166C316.124 63.8537 316.413 64.3007 316.629 64.8575C316.845 65.4143 316.953 66.0999 316.953 66.9143V67.4825H310.226V66.3234H315.589C315.589 65.831 315.491 65.3916 315.294 65.0052C315.101 64.6189 314.824 64.3139 314.464 64.0905C314.108 63.867 313.688 63.7552 313.203 63.7552C312.669 63.7552 312.207 63.8878 311.817 64.153C311.43 64.4143 311.133 64.7552 310.925 65.1757C310.716 65.5961 310.612 66.0469 310.612 66.528V67.3007C310.612 67.9598 310.726 68.5185 310.953 68.9768C311.184 69.4314 311.504 69.778 311.913 70.0166C312.322 70.2515 312.798 70.3689 313.339 70.3689C313.692 70.3689 314.01 70.3196 314.294 70.2211C314.582 70.1189 314.83 69.9674 315.038 69.7666C315.247 69.5621 315.408 69.3083 315.521 69.0052L316.817 69.3689C316.68 69.8083 316.451 70.1946 316.129 70.528C315.807 70.8575 315.41 71.1151 314.936 71.3007C314.463 71.4825 313.93 71.5734 313.339 71.5734ZM321.561 71.5961C321.008 71.5961 320.506 71.492 320.055 71.2836C319.605 71.0715 319.247 70.7666 318.982 70.3689C318.716 69.9674 318.584 69.4825 318.584 68.9143C318.584 68.4143 318.682 68.009 318.879 67.6984C319.076 67.384 319.339 67.1378 319.669 66.9598C319.999 66.7818 320.362 66.6492 320.76 66.5621C321.161 66.4711 321.565 66.3992 321.97 66.3461C322.5 66.278 322.93 66.2268 323.26 66.1927C323.593 66.1549 323.836 66.0924 323.987 66.0052C324.143 65.9181 324.22 65.7666 324.22 65.5507V65.5052C324.22 64.9446 324.067 64.509 323.76 64.1984C323.457 63.8878 322.997 63.7325 322.379 63.7325C321.739 63.7325 321.237 63.8727 320.874 64.153C320.51 64.4333 320.254 64.7325 320.107 65.0507L318.834 64.5961C319.061 64.0658 319.364 63.653 319.743 63.3575C320.125 63.0583 320.542 62.8499 320.993 62.7325C321.447 62.6113 321.894 62.5507 322.334 62.5507C322.614 62.5507 322.936 62.5848 323.3 62.653C323.667 62.7174 324.021 62.8518 324.362 63.0564C324.707 63.2609 324.993 63.5696 325.22 63.9825C325.447 64.3954 325.561 64.9484 325.561 65.6416V71.3916H324.22V70.2098H324.152C324.061 70.3992 323.91 70.6018 323.697 70.8177C323.485 71.0336 323.203 71.2174 322.851 71.3689C322.499 71.5204 322.069 71.5961 321.561 71.5961ZM321.766 70.3916C322.296 70.3916 322.743 70.2874 323.107 70.0791C323.474 69.8708 323.75 69.6018 323.936 69.2723C324.125 68.9427 324.22 68.5961 324.22 68.2325V67.0052C324.163 67.0734 324.038 67.1359 323.845 67.1927C323.656 67.2458 323.436 67.2931 323.186 67.3348C322.94 67.3727 322.699 67.4068 322.464 67.4371C322.233 67.4636 322.046 67.4863 321.902 67.5052C321.554 67.5507 321.228 67.6246 320.925 67.7268C320.625 67.8253 320.383 67.9749 320.197 68.1757C320.016 68.3727 319.925 68.6416 319.925 68.9825C319.925 69.4484 320.097 69.8007 320.442 70.0393C320.79 70.2742 321.232 70.3916 321.766 70.3916ZM328.009 71.3916V62.6643H329.304V63.9825H329.395C329.554 63.5507 329.842 63.2003 330.259 62.9314C330.675 62.6624 331.145 62.528 331.668 62.528C331.766 62.528 331.889 62.5299 332.037 62.5336C332.185 62.5374 332.296 62.5431 332.372 62.5507V63.9143C332.327 63.903 332.223 63.8859 332.06 63.8632C331.901 63.8367 331.732 63.8234 331.554 63.8234C331.13 63.8234 330.751 63.9124 330.418 64.0905C330.088 64.2647 329.827 64.5071 329.634 64.8177C329.444 65.1246 329.349 65.4749 329.349 65.8689V71.3916H328.009ZM335.303 59.7552V71.3916H333.962V59.7552H335.303ZM341.418 71.5734C340.577 71.5734 339.851 71.3878 339.241 71.0166C338.635 70.6416 338.168 70.1189 337.838 69.4484C337.512 68.7742 337.349 67.9901 337.349 67.0961C337.349 66.2022 337.512 65.4143 337.838 64.7325C338.168 64.0469 338.626 63.5128 339.213 63.1302C339.804 62.7439 340.493 62.5507 341.281 62.5507C341.736 62.5507 342.185 62.6264 342.628 62.778C343.071 62.9295 343.474 63.1757 343.838 63.5166C344.202 63.8537 344.491 64.3007 344.707 64.8575C344.923 65.4143 345.031 66.0999 345.031 66.9143V67.4825H338.304V66.3234H343.668C343.668 65.831 343.569 65.3916 343.372 65.0052C343.179 64.6189 342.902 64.3139 342.543 64.0905C342.187 63.867 341.766 63.7552 341.281 63.7552C340.747 63.7552 340.285 63.8878 339.895 64.153C339.509 64.4143 339.211 64.7552 339.003 65.1757C338.795 65.5961 338.69 66.0469 338.69 66.528V67.3007C338.69 67.9598 338.804 68.5185 339.031 68.9768C339.262 69.4314 339.582 69.778 339.991 70.0166C340.401 70.2515 340.876 70.3689 341.418 70.3689C341.77 70.3689 342.088 70.3196 342.372 70.2211C342.66 70.1189 342.908 69.9674 343.116 69.7666C343.325 69.5621 343.486 69.3083 343.599 69.0052L344.895 69.3689C344.759 69.8083 344.529 70.1946 344.207 70.528C343.885 70.8575 343.488 71.1151 343.014 71.3007C342.541 71.4825 342.009 71.5734 341.418 71.5734ZM353.253 64.6189L352.048 64.9598C351.973 64.759 351.861 64.5639 351.713 64.3746C351.569 64.1814 351.372 64.0223 351.122 63.8973C350.872 63.7723 350.552 63.7098 350.162 63.7098C349.628 63.7098 349.183 63.8329 348.827 64.0791C348.474 64.3215 348.298 64.6302 348.298 65.0052C348.298 65.3386 348.42 65.6018 348.662 65.795C348.904 65.9882 349.283 66.1492 349.798 66.278L351.094 66.5961C351.874 66.7855 352.455 67.0753 352.838 67.4655C353.221 67.8518 353.412 68.3499 353.412 68.9598C353.412 69.4598 353.268 69.9068 352.98 70.3007C352.696 70.6946 352.298 71.0052 351.787 71.2325C351.276 71.4598 350.681 71.5734 350.003 71.5734C349.113 71.5734 348.376 71.3802 347.793 70.9939C347.209 70.6075 346.84 70.0431 346.685 69.3007L347.957 68.9825C348.079 69.4522 348.308 69.8045 348.645 70.0393C348.986 70.2742 349.431 70.3916 349.98 70.3916C350.605 70.3916 351.101 70.259 351.469 69.9939C351.84 69.7249 352.026 69.403 352.026 69.028C352.026 68.7249 351.92 68.4711 351.707 68.2666C351.495 68.0583 351.17 67.903 350.73 67.8007L349.276 67.4598C348.476 67.2704 347.889 66.9768 347.514 66.5791C347.143 66.1776 346.957 65.6757 346.957 65.0734C346.957 64.581 347.096 64.1454 347.372 63.7666C347.652 63.3878 348.033 63.0905 348.514 62.8746C348.999 62.6586 349.548 62.5507 350.162 62.5507C351.026 62.5507 351.704 62.7401 352.196 63.1189C352.692 63.4977 353.045 63.9977 353.253 64.6189ZM361.612 64.6189L360.408 64.9598C360.332 64.759 360.22 64.5639 360.072 64.3746C359.929 64.1814 359.732 64.0223 359.482 63.8973C359.232 63.7723 358.911 63.7098 358.521 63.7098C357.987 63.7098 357.542 63.8329 357.186 64.0791C356.834 64.3215 356.658 64.6302 356.658 65.0052C356.658 65.3386 356.779 65.6018 357.021 65.795C357.264 65.9882 357.643 66.1492 358.158 66.278L359.453 66.5961C360.233 66.7855 360.815 67.0753 361.197 67.4655C361.58 67.8518 361.771 68.3499 361.771 68.9598C361.771 69.4598 361.627 69.9068 361.339 70.3007C361.055 70.6946 360.658 71.0052 360.146 71.2325C359.635 71.4598 359.04 71.5734 358.362 71.5734C357.472 71.5734 356.735 71.3802 356.152 70.9939C355.569 70.6075 355.199 70.0431 355.044 69.3007L356.317 68.9825C356.438 69.4522 356.667 69.8045 357.004 70.0393C357.345 70.2742 357.79 70.3916 358.339 70.3916C358.964 70.3916 359.461 70.259 359.828 69.9939C360.199 69.7249 360.385 69.403 360.385 69.028C360.385 68.7249 360.279 68.4711 360.067 68.2666C359.855 68.0583 359.529 67.903 359.089 67.8007L357.635 67.4598C356.836 67.2704 356.249 66.9768 355.874 66.5791C355.502 66.1776 355.317 65.6757 355.317 65.0734C355.317 64.581 355.455 64.1454 355.732 63.7666C356.012 63.3878 356.393 63.0905 356.874 62.8746C357.358 62.6586 357.908 62.5507 358.521 62.5507C359.385 62.5507 360.063 62.7401 360.555 63.1189C361.052 63.4977 361.404 63.9977 361.612 64.6189ZM364.767 71.4825C364.487 71.4825 364.246 71.3821 364.045 71.1814C363.845 70.9806 363.744 70.7401 363.744 70.4598C363.744 70.1795 363.845 69.939 364.045 69.7382C364.246 69.5374 364.487 69.4371 364.767 69.4371C365.047 69.4371 365.288 69.5374 365.489 69.7382C365.689 69.939 365.79 70.1795 365.79 70.4598C365.79 70.6454 365.742 70.8158 365.648 70.9711C365.557 71.1265 365.434 71.2515 365.278 71.3461C365.127 71.4371 364.956 71.4825 364.767 71.4825ZM372.241 61.0052V59.7552H380.969V61.0052H377.31V71.3916H375.901V61.0052H372.241ZM385.241 71.5734C384.454 71.5734 383.762 71.3859 383.168 71.0109C382.577 70.6359 382.115 70.1113 381.781 69.4371C381.452 68.7628 381.287 67.9749 381.287 67.0734C381.287 66.1643 381.452 65.3708 381.781 64.6927C382.115 64.0147 382.577 63.4882 383.168 63.1132C383.762 62.7382 384.454 62.5507 385.241 62.5507C386.029 62.5507 386.719 62.7382 387.31 63.1132C387.904 63.4882 388.366 64.0147 388.696 64.6927C389.029 65.3708 389.196 66.1643 389.196 67.0734C389.196 67.9749 389.029 68.7628 388.696 69.4371C388.366 70.1113 387.904 70.6359 387.31 71.0109C386.719 71.3859 386.029 71.5734 385.241 71.5734ZM385.241 70.3689C385.84 70.3689 386.332 70.2155 386.719 69.9086C387.105 69.6018 387.391 69.1984 387.577 68.6984C387.762 68.1984 387.855 67.6568 387.855 67.0734C387.855 66.4901 387.762 65.9465 387.577 65.4427C387.391 64.9389 387.105 64.5318 386.719 64.2211C386.332 63.9105 385.84 63.7552 385.241 63.7552C384.643 63.7552 384.151 63.9105 383.764 64.2211C383.378 64.5318 383.092 64.9389 382.906 65.4427C382.721 65.9465 382.628 66.4901 382.628 67.0734C382.628 67.6568 382.721 68.1984 382.906 68.6984C383.092 69.1984 383.378 69.6018 383.764 69.9086C384.151 70.2155 384.643 70.3689 385.241 70.3689ZM395.925 71.3916V59.7552H397.266V64.0507H397.379C397.478 63.8992 397.614 63.706 397.788 63.4711C397.966 63.2325 398.22 63.0204 398.55 62.8348C398.883 62.6454 399.334 62.5507 399.902 62.5507C400.637 62.5507 401.285 62.7344 401.845 63.1018C402.406 63.4693 402.843 63.9901 403.158 64.6643C403.472 65.3386 403.629 66.134 403.629 67.0507C403.629 67.9749 403.472 68.7761 403.158 69.4541C402.843 70.1283 402.408 70.6511 401.851 71.0223C401.294 71.3897 400.652 71.5734 399.925 71.5734C399.364 71.5734 398.915 71.4806 398.578 71.295C398.241 71.1056 397.982 70.8916 397.8 70.653C397.618 70.4105 397.478 70.2098 397.379 70.0507H397.22V71.3916H395.925ZM397.243 67.028C397.243 67.6871 397.339 68.2685 397.533 68.7723C397.726 69.2723 398.008 69.6643 398.379 69.9484C398.75 70.2287 399.205 70.3689 399.743 70.3689C400.304 70.3689 400.771 70.2211 401.146 69.9257C401.525 69.6265 401.809 69.2249 401.999 68.7211C402.192 68.2136 402.288 67.6492 402.288 67.028C402.288 66.4143 402.194 65.8613 402.004 65.3689C401.819 64.8727 401.536 64.4806 401.158 64.1927C400.783 63.9011 400.311 63.7552 399.743 63.7552C399.197 63.7552 398.739 63.8935 398.368 64.17C397.997 64.4427 397.716 64.8253 397.527 65.3177C397.338 65.8064 397.243 66.3764 397.243 67.028ZM409.339 71.5734C408.499 71.5734 407.773 71.3878 407.163 71.0166C406.557 70.6416 406.089 70.1189 405.76 69.4484C405.434 68.7742 405.271 67.9901 405.271 67.0961C405.271 66.2022 405.434 65.4143 405.76 64.7325C406.089 64.0469 406.548 63.5128 407.135 63.1302C407.726 62.7439 408.415 62.5507 409.203 62.5507C409.658 62.5507 410.107 62.6264 410.55 62.778C410.993 62.9295 411.396 63.1757 411.76 63.5166C412.124 63.8537 412.413 64.3007 412.629 64.8575C412.845 65.4143 412.953 66.0999 412.953 66.9143V67.4825H406.226V66.3234H411.589C411.589 65.831 411.491 65.3916 411.294 65.0052C411.101 64.6189 410.824 64.3139 410.464 64.0905C410.108 63.867 409.688 63.7552 409.203 63.7552C408.669 63.7552 408.207 63.8878 407.817 64.153C407.43 64.4143 407.133 64.7552 406.925 65.1757C406.716 65.5961 406.612 66.0469 406.612 66.528V67.3007C406.612 67.9598 406.726 68.5185 406.953 68.9768C407.184 69.4314 407.504 69.778 407.913 70.0166C408.322 70.2515 408.798 70.3689 409.339 70.3689C409.692 70.3689 410.01 70.3196 410.294 70.2211C410.582 70.1189 410.83 69.9674 411.038 69.7666C411.247 69.5621 411.408 69.3083 411.521 69.0052L412.817 69.3689C412.68 69.8083 412.451 70.1946 412.129 70.528C411.807 70.8575 411.41 71.1151 410.936 71.3007C410.463 71.4825 409.93 71.5734 409.339 71.5734ZM423.379 62.6643V63.8007H418.675V62.6643H423.379ZM420.084 71.3916V61.4598C420.084 60.9598 420.201 60.5431 420.436 60.2098C420.671 59.8764 420.976 59.6264 421.351 59.4598C421.726 59.2931 422.122 59.2098 422.538 59.2098C422.868 59.2098 423.137 59.2363 423.345 59.2893C423.554 59.3424 423.709 59.3916 423.811 59.4371L423.425 60.5961C423.357 60.5734 423.262 60.545 423.141 60.5109C423.023 60.4768 422.868 60.4598 422.675 60.4598C422.232 60.4598 421.911 60.5715 421.714 60.795C421.521 61.0185 421.425 61.3461 421.425 61.778V71.3916H420.084ZM428.558 71.5734C427.717 71.5734 426.992 71.3878 426.382 71.0166C425.776 70.6416 425.308 70.1189 424.979 69.4484C424.653 68.7742 424.49 67.9901 424.49 67.0961C424.49 66.2022 424.653 65.4143 424.979 64.7325C425.308 64.0469 425.767 63.5128 426.354 63.1302C426.945 62.7439 427.634 62.5507 428.422 62.5507C428.876 62.5507 429.325 62.6264 429.768 62.778C430.212 62.9295 430.615 63.1757 430.979 63.5166C431.342 63.8537 431.632 64.3007 431.848 64.8575C432.064 65.4143 432.172 66.0999 432.172 66.9143V67.4825H425.445V66.3234H430.808C430.808 65.831 430.71 65.3916 430.513 65.0052C430.32 64.6189 430.043 64.3139 429.683 64.0905C429.327 63.867 428.907 63.7552 428.422 63.7552C427.888 63.7552 427.426 63.8878 427.036 64.153C426.649 64.4143 426.352 64.7552 426.143 65.1757C425.935 65.5961 425.831 66.0469 425.831 66.528V67.3007C425.831 67.9598 425.945 68.5185 426.172 68.9768C426.403 69.4314 426.723 69.778 427.132 70.0166C427.541 70.2515 428.017 70.3689 428.558 70.3689C428.911 70.3689 429.229 70.3196 429.513 70.2211C429.801 70.1189 430.049 69.9674 430.257 69.7666C430.465 69.5621 430.626 69.3083 430.74 69.0052L432.036 69.3689C431.899 69.8083 431.67 70.1946 431.348 70.528C431.026 70.8575 430.628 71.1151 430.155 71.3007C429.681 71.4825 429.149 71.5734 428.558 71.5734ZM436.78 71.5961C436.227 71.5961 435.725 71.492 435.274 71.2836C434.823 71.0715 434.465 70.7666 434.2 70.3689C433.935 69.9674 433.803 69.4825 433.803 68.9143C433.803 68.4143 433.901 68.009 434.098 67.6984C434.295 67.384 434.558 67.1378 434.888 66.9598C435.217 66.7818 435.581 66.6492 435.979 66.5621C436.38 66.4711 436.784 66.3992 437.189 66.3461C437.719 66.278 438.149 66.2268 438.479 66.1927C438.812 66.1549 439.054 66.0924 439.206 66.0052C439.361 65.9181 439.439 65.7666 439.439 65.5507V65.5052C439.439 64.9446 439.286 64.509 438.979 64.1984C438.676 63.8878 438.215 63.7325 437.598 63.7325C436.958 63.7325 436.456 63.8727 436.092 64.153C435.729 64.4333 435.473 64.7325 435.325 65.0507L434.053 64.5961C434.28 64.0658 434.583 63.653 434.962 63.3575C435.344 63.0583 435.761 62.8499 436.212 62.7325C436.666 62.6113 437.113 62.5507 437.553 62.5507C437.833 62.5507 438.155 62.5848 438.518 62.653C438.886 62.7174 439.24 62.8518 439.581 63.0564C439.926 63.2609 440.212 63.5696 440.439 63.9825C440.666 64.3954 440.78 64.9484 440.78 65.6416V71.3916H439.439V70.2098H439.371C439.28 70.3992 439.128 70.6018 438.916 70.8177C438.704 71.0336 438.422 71.2174 438.07 71.3689C437.717 71.5204 437.287 71.5961 436.78 71.5961ZM436.984 70.3916C437.515 70.3916 437.962 70.2874 438.325 70.0791C438.693 69.8708 438.969 69.6018 439.155 69.2723C439.344 68.9427 439.439 68.5961 439.439 68.2325V67.0052C439.382 67.0734 439.257 67.1359 439.064 67.1927C438.875 67.2458 438.655 67.2931 438.405 67.3348C438.159 67.3727 437.918 67.4068 437.683 67.4371C437.452 67.4636 437.265 67.4863 437.121 67.5052C436.772 67.5507 436.446 67.6246 436.143 67.7268C435.844 67.8253 435.602 67.9749 435.416 68.1757C435.234 68.3727 435.143 68.6416 435.143 68.9825C435.143 69.4484 435.316 69.8007 435.661 70.0393C436.009 70.2742 436.45 70.3916 436.984 70.3916ZM443.227 71.3916V62.6643H444.523V63.9825H444.614C444.773 63.5507 445.061 63.2003 445.477 62.9314C445.894 62.6624 446.364 62.528 446.886 62.528C446.985 62.528 447.108 62.5299 447.256 62.5336C447.403 62.5374 447.515 62.5431 447.591 62.5507V63.9143C447.545 63.903 447.441 63.8859 447.278 63.8632C447.119 63.8367 446.951 63.8234 446.773 63.8234C446.348 63.8234 445.97 63.9124 445.636 64.0905C445.307 64.2647 445.045 64.5071 444.852 64.8177C444.663 65.1246 444.568 65.4749 444.568 65.8689V71.3916H443.227ZM450.521 59.7552V71.3916H449.18V59.7552H450.521ZM456.636 71.5734C455.795 71.5734 455.07 71.3878 454.46 71.0166C453.854 70.6416 453.386 70.1189 453.057 69.4484C452.731 68.7742 452.568 67.9901 452.568 67.0961C452.568 66.2022 452.731 65.4143 453.057 64.7325C453.386 64.0469 453.845 63.5128 454.432 63.1302C455.023 62.7439 455.712 62.5507 456.5 62.5507C456.955 62.5507 457.403 62.6264 457.847 62.778C458.29 62.9295 458.693 63.1757 459.057 63.5166C459.42 63.8537 459.71 64.3007 459.926 64.8575C460.142 65.4143 460.25 66.0999 460.25 66.9143V67.4825H453.523V66.3234H458.886C458.886 65.831 458.788 65.3916 458.591 65.0052C458.398 64.6189 458.121 64.3139 457.761 64.0905C457.405 63.867 456.985 63.7552 456.5 63.7552C455.966 63.7552 455.504 63.8878 455.114 64.153C454.727 64.4143 454.43 64.7552 454.222 65.1757C454.013 65.5961 453.909 66.0469 453.909 66.528V67.3007C453.909 67.9598 454.023 68.5185 454.25 68.9768C454.481 69.4314 454.801 69.778 455.21 70.0166C455.619 70.2515 456.095 70.3689 456.636 70.3689C456.989 70.3689 457.307 70.3196 457.591 70.2211C457.879 70.1189 458.127 69.9674 458.335 69.7666C458.544 69.5621 458.705 69.3083 458.818 69.0052L460.114 69.3689C459.977 69.8083 459.748 70.1946 459.426 70.528C459.104 70.8575 458.706 71.1151 458.233 71.3007C457.759 71.4825 457.227 71.5734 456.636 71.5734ZM468.472 64.6189L467.267 64.9598C467.191 64.759 467.08 64.5639 466.932 64.3746C466.788 64.1814 466.591 64.0223 466.341 63.8973C466.091 63.7723 465.771 63.7098 465.381 63.7098C464.847 63.7098 464.402 63.8329 464.045 64.0791C463.693 64.3215 463.517 64.6302 463.517 65.0052C463.517 65.3386 463.638 65.6018 463.881 65.795C464.123 65.9882 464.502 66.1492 465.017 66.278L466.312 66.5961C467.093 66.7855 467.674 67.0753 468.057 67.4655C468.439 67.8518 468.631 68.3499 468.631 68.9598C468.631 69.4598 468.487 69.9068 468.199 70.3007C467.915 70.6946 467.517 71.0052 467.006 71.2325C466.494 71.4598 465.9 71.5734 465.222 71.5734C464.331 71.5734 463.595 71.3802 463.011 70.9939C462.428 70.6075 462.059 70.0431 461.903 69.3007L463.176 68.9825C463.297 69.4522 463.527 69.8045 463.864 70.0393C464.205 70.2742 464.65 70.3916 465.199 70.3916C465.824 70.3916 466.32 70.259 466.688 69.9939C467.059 69.7249 467.244 69.403 467.244 69.028C467.244 68.7249 467.138 68.4711 466.926 68.2666C466.714 68.0583 466.388 67.903 465.949 67.8007L464.494 67.4598C463.695 67.2704 463.108 66.9768 462.733 66.5791C462.362 66.1776 462.176 65.6757 462.176 65.0734C462.176 64.581 462.314 64.1454 462.591 63.7666C462.871 63.3878 463.252 63.0905 463.733 62.8746C464.218 62.6586 464.767 62.5507 465.381 62.5507C466.244 62.5507 466.922 62.7401 467.415 63.1189C467.911 63.4977 468.263 63.9977 468.472 64.6189ZM476.831 64.6189L475.626 64.9598C475.551 64.759 475.439 64.5639 475.291 64.3746C475.147 64.1814 474.95 64.0223 474.7 63.8973C474.45 63.7723 474.13 63.7098 473.74 63.7098C473.206 63.7098 472.761 63.8329 472.405 64.0791C472.053 64.3215 471.876 64.6302 471.876 65.0052C471.876 65.3386 471.998 65.6018 472.24 65.795C472.482 65.9882 472.861 66.1492 473.376 66.278L474.672 66.5961C475.452 66.7855 476.034 67.0753 476.416 67.4655C476.799 67.8518 476.99 68.3499 476.99 68.9598C476.99 69.4598 476.846 69.9068 476.558 70.3007C476.274 70.6946 475.876 71.0052 475.365 71.2325C474.854 71.4598 474.259 71.5734 473.581 71.5734C472.691 71.5734 471.954 71.3802 471.371 70.9939C470.787 70.6075 470.418 70.0431 470.263 69.3007L471.536 68.9825C471.657 69.4522 471.886 69.8045 472.223 70.0393C472.564 70.2742 473.009 70.3916 473.558 70.3916C474.183 70.3916 474.679 70.259 475.047 69.9939C475.418 69.7249 475.604 69.403 475.604 69.028C475.604 68.7249 475.498 68.4711 475.286 68.2666C475.073 68.0583 474.748 67.903 474.308 67.8007L472.854 67.4598C472.054 67.2704 471.467 66.9768 471.092 66.5791C470.721 66.1776 470.536 65.6757 470.536 65.0734C470.536 64.581 470.674 64.1454 470.95 63.7666C471.231 63.3878 471.611 63.0905 472.092 62.8746C472.577 62.6586 473.126 62.5507 473.74 62.5507C474.604 62.5507 475.282 62.7401 475.774 63.1189C476.27 63.4977 476.623 63.9977 476.831 64.6189ZM483.509 71.3916V62.6643H484.849V71.3916H483.509ZM484.19 61.2098C483.929 61.2098 483.704 61.1208 483.514 60.9427C483.329 60.7647 483.236 60.5507 483.236 60.3007C483.236 60.0507 483.329 59.8367 483.514 59.6586C483.704 59.4806 483.929 59.3916 484.19 59.3916C484.452 59.3916 484.675 59.4806 484.861 59.6586C485.05 59.8367 485.145 60.0507 485.145 60.3007C485.145 60.5507 485.05 60.7647 484.861 60.9427C484.675 61.1208 484.452 61.2098 484.19 61.2098ZM493.487 64.6189L492.283 64.9598C492.207 64.759 492.095 64.5639 491.947 64.3746C491.804 64.1814 491.607 64.0223 491.357 63.8973C491.107 63.7723 490.786 63.7098 490.396 63.7098C489.862 63.7098 489.417 63.8329 489.061 64.0791C488.709 64.3215 488.533 64.6302 488.533 65.0052C488.533 65.3386 488.654 65.6018 488.896 65.795C489.139 65.9882 489.518 66.1492 490.033 66.278L491.328 66.5961C492.108 66.7855 492.69 67.0753 493.072 67.4655C493.455 67.8518 493.646 68.3499 493.646 68.9598C493.646 69.4598 493.502 69.9068 493.214 70.3007C492.93 70.6946 492.533 71.0052 492.021 71.2325C491.51 71.4598 490.915 71.5734 490.237 71.5734C489.347 71.5734 488.61 71.3802 488.027 70.9939C487.444 70.6075 487.074 70.0431 486.919 69.3007L488.192 68.9825C488.313 69.4522 488.542 69.8045 488.879 70.0393C489.22 70.2742 489.665 70.3916 490.214 70.3916C490.839 70.3916 491.336 70.259 491.703 69.9939C492.074 69.7249 492.26 69.403 492.26 69.028C492.26 68.7249 492.154 68.4711 491.942 68.2666C491.73 68.0583 491.404 67.903 490.964 67.8007L489.51 67.4598C488.711 67.2704 488.124 66.9768 487.749 66.5791C487.377 66.1776 487.192 65.6757 487.192 65.0734C487.192 64.581 487.33 64.1454 487.607 63.7666C487.887 63.3878 488.268 63.0905 488.749 62.8746C489.233 62.6586 489.783 62.5507 490.396 62.5507C491.26 62.5507 491.938 62.7401 492.43 63.1189C492.927 63.4977 493.279 63.9977 493.487 64.6189ZM127.023 81.6643V82.8007H122.5V81.6643H127.023ZM123.818 79.5734H125.159V87.8916C125.159 88.2704 125.214 88.5545 125.324 88.7439C125.438 88.9295 125.581 89.0545 125.756 89.1189C125.934 89.1795 126.121 89.2098 126.318 89.2098C126.466 89.2098 126.587 89.2022 126.682 89.1871C126.777 89.1681 126.852 89.153 126.909 89.1416L127.182 90.3461C127.091 90.3802 126.964 90.4143 126.801 90.4484C126.638 90.4863 126.432 90.5052 126.182 90.5052C125.803 90.5052 125.432 90.4238 125.068 90.2609C124.708 90.098 124.409 89.8499 124.17 89.5166C123.936 89.1833 123.818 88.7628 123.818 88.2552V79.5734ZM132.491 90.5734C131.704 90.5734 131.012 90.3859 130.418 90.0109C129.827 89.6359 129.365 89.1113 129.031 88.4371C128.702 87.7628 128.537 86.9749 128.537 86.0734C128.537 85.1643 128.702 84.3708 129.031 83.6927C129.365 83.0147 129.827 82.4882 130.418 82.1132C131.012 81.7382 131.704 81.5507 132.491 81.5507C133.279 81.5507 133.969 81.7382 134.56 82.1132C135.154 82.4882 135.616 83.0147 135.946 83.6927C136.279 84.3708 136.446 85.1643 136.446 86.0734C136.446 86.9749 136.279 87.7628 135.946 88.4371C135.616 89.1113 135.154 89.6359 134.56 90.0109C133.969 90.3859 133.279 90.5734 132.491 90.5734ZM132.491 89.3689C133.09 89.3689 133.582 89.2155 133.969 88.9086C134.355 88.6018 134.641 88.1984 134.827 87.6984C135.012 87.1984 135.105 86.6568 135.105 86.0734C135.105 85.4901 135.012 84.9465 134.827 84.4427C134.641 83.9389 134.355 83.5318 133.969 83.2211C133.582 82.9105 133.09 82.7552 132.491 82.7552C131.893 82.7552 131.401 82.9105 131.014 83.2211C130.628 83.5318 130.342 83.9389 130.156 84.4427C129.971 84.9465 129.878 85.4901 129.878 86.0734C129.878 86.6568 129.971 87.1984 130.156 87.6984C130.342 88.1984 130.628 88.6018 131.014 88.9086C131.401 89.2155 131.893 89.3689 132.491 89.3689ZM146.538 90.5734C145.75 90.5734 145.059 90.3859 144.464 90.0109C143.874 89.6359 143.411 89.1113 143.078 88.4371C142.749 87.7628 142.584 86.9749 142.584 86.0734C142.584 85.1643 142.749 84.3708 143.078 83.6927C143.411 83.0147 143.874 82.4882 144.464 82.1132C145.059 81.7382 145.75 81.5507 146.538 81.5507C147.326 81.5507 148.016 81.7382 148.607 82.1132C149.201 82.4882 149.663 83.0147 149.993 83.6927C150.326 84.3708 150.493 85.1643 150.493 86.0734C150.493 86.9749 150.326 87.7628 149.993 88.4371C149.663 89.1113 149.201 89.6359 148.607 90.0109C148.016 90.3859 147.326 90.5734 146.538 90.5734ZM146.538 89.3689C147.137 89.3689 147.629 89.2155 148.016 88.9086C148.402 88.6018 148.688 88.1984 148.874 87.6984C149.059 87.1984 149.152 86.6568 149.152 86.0734C149.152 85.4901 149.059 84.9465 148.874 84.4427C148.688 83.9389 148.402 83.5318 148.016 83.2211C147.629 82.9105 147.137 82.7552 146.538 82.7552C145.94 82.7552 145.447 82.9105 145.061 83.2211C144.675 83.5318 144.389 83.9389 144.203 84.4427C144.018 84.9465 143.925 85.4901 143.925 86.0734C143.925 86.6568 144.018 87.1984 144.203 87.6984C144.389 88.1984 144.675 88.6018 145.061 88.9086C145.447 89.2155 145.94 89.3689 146.538 89.3689ZM152.54 93.6643V81.6643H153.835V83.0507H153.994C154.093 82.8992 154.229 82.706 154.403 82.4711C154.581 82.2325 154.835 82.0204 155.165 81.8348C155.498 81.6454 155.949 81.5507 156.517 81.5507C157.252 81.5507 157.9 81.7344 158.46 82.1018C159.021 82.4693 159.458 82.9901 159.773 83.6643C160.087 84.3386 160.244 85.134 160.244 86.0507C160.244 86.9749 160.087 87.7761 159.773 88.4541C159.458 89.1283 159.023 89.6511 158.466 90.0223C157.909 90.3897 157.267 90.5734 156.54 90.5734C155.979 90.5734 155.53 90.4806 155.193 90.295C154.856 90.1056 154.597 89.8916 154.415 89.653C154.233 89.4105 154.093 89.2098 153.994 89.0507H153.881V93.6643H152.54ZM153.858 86.028C153.858 86.6871 153.955 87.2685 154.148 87.7723C154.341 88.2723 154.623 88.6643 154.994 88.9484C155.366 89.2287 155.82 89.3689 156.358 89.3689C156.919 89.3689 157.386 89.2211 157.761 88.9257C158.14 88.6265 158.424 88.2249 158.614 87.7211C158.807 87.2136 158.903 86.6492 158.903 86.028C158.903 85.4143 158.809 84.8613 158.619 84.3689C158.434 83.8727 158.152 83.4806 157.773 83.1927C157.398 82.9011 156.926 82.7552 156.358 82.7552C155.813 82.7552 155.354 82.8935 154.983 83.17C154.612 83.4427 154.331 83.8253 154.142 84.3177C153.953 84.8064 153.858 85.3764 153.858 86.028ZM165.949 90.5734C165.108 90.5734 164.383 90.3878 163.773 90.0166C163.167 89.6416 162.699 89.1189 162.369 88.4484C162.044 87.7742 161.881 86.9901 161.881 86.0961C161.881 85.2022 162.044 84.4143 162.369 83.7325C162.699 83.0469 163.157 82.5128 163.744 82.1302C164.335 81.7439 165.025 81.5507 165.812 81.5507C166.267 81.5507 166.716 81.6264 167.159 81.778C167.602 81.9295 168.006 82.1757 168.369 82.5166C168.733 82.8537 169.023 83.3007 169.239 83.8575C169.455 84.4143 169.562 85.0999 169.562 85.9143V86.4825H162.835V85.3234H168.199C168.199 84.831 168.1 84.3916 167.903 84.0052C167.71 83.6189 167.434 83.3139 167.074 83.0905C166.718 82.867 166.297 82.7552 165.812 82.7552C165.278 82.7552 164.816 82.8878 164.426 83.153C164.04 83.4143 163.742 83.7552 163.534 84.1757C163.326 84.5961 163.222 85.0469 163.222 85.528V86.3007C163.222 86.9598 163.335 87.5185 163.562 87.9768C163.794 88.4314 164.114 88.778 164.523 89.0166C164.932 89.2515 165.407 89.3689 165.949 89.3689C166.301 89.3689 166.619 89.3196 166.903 89.2211C167.191 89.1189 167.439 88.9674 167.648 88.7666C167.856 88.5621 168.017 88.3083 168.131 88.0052L169.426 88.3689C169.29 88.8083 169.061 89.1946 168.739 89.528C168.417 89.8575 168.019 90.1151 167.545 90.3007C167.072 90.4825 166.54 90.5734 165.949 90.5734ZM172.943 85.1416V90.3916H171.602V81.6643H172.898V83.028H173.011C173.216 82.5848 173.527 82.2287 173.943 81.9598C174.36 81.6871 174.898 81.5507 175.557 81.5507C176.148 81.5507 176.665 81.6719 177.108 81.9143C177.551 82.153 177.896 82.5166 178.142 83.0052C178.388 83.4901 178.511 84.1037 178.511 84.8461V90.3916H177.17V84.9371C177.17 84.2515 176.992 83.7174 176.636 83.3348C176.28 82.9484 175.792 82.7552 175.17 82.7552C174.742 82.7552 174.36 82.848 174.023 83.0336C173.689 83.2193 173.426 83.4901 173.233 83.8461C173.04 84.2022 172.943 84.634 172.943 85.1416ZM186.803 85.1416V90.3916H185.462V81.6643H186.757V83.028H186.871C187.075 82.5848 187.386 82.2287 187.803 81.9598C188.219 81.6871 188.757 81.5507 189.416 81.5507C190.007 81.5507 190.524 81.6719 190.967 81.9143C191.411 82.153 191.755 82.5166 192.001 83.0052C192.248 83.4901 192.371 84.1037 192.371 84.8461V90.3916H191.03V84.9371C191.03 84.2515 190.852 83.7174 190.496 83.3348C190.14 82.9484 189.651 82.7552 189.03 82.7552C188.602 82.7552 188.219 82.848 187.882 83.0336C187.549 83.2193 187.286 83.4901 187.092 83.8461C186.899 84.2022 186.803 84.634 186.803 85.1416ZM198.48 90.5734C197.639 90.5734 196.914 90.3878 196.304 90.0166C195.698 89.6416 195.23 89.1189 194.901 88.4484C194.575 87.7742 194.412 86.9901 194.412 86.0961C194.412 85.2022 194.575 84.4143 194.901 83.7325C195.23 83.0469 195.688 82.5128 196.276 82.1302C196.866 81.7439 197.556 81.5507 198.344 81.5507C198.798 81.5507 199.247 81.6264 199.69 81.778C200.134 81.9295 200.537 82.1757 200.901 82.5166C201.264 82.8537 201.554 83.3007 201.77 83.8575C201.986 84.4143 202.094 85.0999 202.094 85.9143V86.4825H195.366V85.3234H200.73C200.73 84.831 200.632 84.3916 200.435 84.0052C200.241 83.6189 199.965 83.3139 199.605 83.0905C199.249 82.867 198.829 82.7552 198.344 82.7552C197.81 82.7552 197.348 82.8878 196.957 83.153C196.571 83.4143 196.274 83.7552 196.065 84.1757C195.857 84.5961 195.753 85.0469 195.753 85.528V86.3007C195.753 86.9598 195.866 87.5185 196.094 87.9768C196.325 88.4314 196.645 88.778 197.054 89.0166C197.463 89.2515 197.938 89.3689 198.48 89.3689C198.832 89.3689 199.151 89.3196 199.435 89.2211C199.723 89.1189 199.971 88.9674 200.179 88.7666C200.387 88.5621 200.548 88.3083 200.662 88.0052L201.957 88.3689C201.821 88.8083 201.592 89.1946 201.27 89.528C200.948 89.8575 200.55 90.1151 200.077 90.3007C199.603 90.4825 199.071 90.5734 198.48 90.5734ZM206.111 90.3916L203.452 81.6643H204.861L206.747 88.3461H206.838L208.702 81.6643H210.134L211.974 88.3234H212.065L213.952 81.6643H215.361L212.702 90.3916H211.384L209.474 83.6871H209.338L207.429 90.3916H206.111ZM224.929 90.5734C224.202 90.5734 223.56 90.3897 223.003 90.0223C222.446 89.6511 222.01 89.1283 221.696 88.4541C221.382 87.7761 221.224 86.9749 221.224 86.0507C221.224 85.134 221.382 84.3386 221.696 83.6643C222.01 82.9901 222.448 82.4693 223.009 82.1018C223.569 81.7344 224.217 81.5507 224.952 81.5507C225.52 81.5507 225.969 81.6454 226.298 81.8348C226.632 82.0204 226.885 82.2325 227.06 82.4711C227.238 82.706 227.376 82.8992 227.474 83.0507H227.588V78.7552H228.929V90.3916H227.634V89.0507H227.474C227.376 89.2098 227.236 89.4105 227.054 89.653C226.872 89.8916 226.613 90.1056 226.276 90.295C225.938 90.4806 225.49 90.5734 224.929 90.5734ZM225.111 89.3689C225.649 89.3689 226.103 89.2287 226.474 88.9484C226.846 88.6643 227.128 88.2723 227.321 87.7723C227.514 87.2685 227.611 86.6871 227.611 86.028C227.611 85.3764 227.516 84.8064 227.327 84.3177C227.137 83.8253 226.857 83.4427 226.486 83.17C226.115 82.8935 225.656 82.7552 225.111 82.7552C224.543 82.7552 224.069 82.9011 223.69 83.1927C223.315 83.4806 223.033 83.8727 222.844 84.3689C222.658 84.8613 222.565 85.4143 222.565 86.028C222.565 86.6492 222.66 87.2136 222.849 87.7211C223.043 88.2249 223.327 88.6265 223.702 88.9257C224.08 89.2211 224.55 89.3689 225.111 89.3689ZM235.116 90.5734C234.329 90.5734 233.637 90.3859 233.043 90.0109C232.452 89.6359 231.99 89.1113 231.656 88.4371C231.327 87.7628 231.162 86.9749 231.162 86.0734C231.162 85.1643 231.327 84.3708 231.656 83.6927C231.99 83.0147 232.452 82.4882 233.043 82.1132C233.637 81.7382 234.329 81.5507 235.116 81.5507C235.904 81.5507 236.594 81.7382 237.185 82.1132C237.779 82.4882 238.241 83.0147 238.571 83.6927C238.904 84.3708 239.071 85.1643 239.071 86.0734C239.071 86.9749 238.904 87.7628 238.571 88.4371C238.241 89.1113 237.779 89.6359 237.185 90.0109C236.594 90.3859 235.904 90.5734 235.116 90.5734ZM235.116 89.3689C235.715 89.3689 236.207 89.2155 236.594 88.9086C236.98 88.6018 237.266 88.1984 237.452 87.6984C237.637 87.1984 237.73 86.6568 237.73 86.0734C237.73 85.4901 237.637 84.9465 237.452 84.4427C237.266 83.9389 236.98 83.5318 236.594 83.2211C236.207 82.9105 235.715 82.7552 235.116 82.7552C234.518 82.7552 234.026 82.9105 233.639 83.2211C233.253 83.5318 232.967 83.9389 232.781 84.4427C232.596 84.9465 232.503 85.4901 232.503 86.0734C232.503 86.6568 232.596 87.1984 232.781 87.6984C232.967 88.1984 233.253 88.6018 233.639 88.9086C234.026 89.2155 234.518 89.3689 235.116 89.3689ZM244.663 90.5734C243.875 90.5734 243.184 90.3859 242.589 90.0109C241.999 89.6359 241.536 89.1113 241.203 88.4371C240.874 87.7628 240.709 86.9749 240.709 86.0734C240.709 85.1643 240.874 84.3708 241.203 83.6927C241.536 83.0147 241.999 82.4882 242.589 82.1132C243.184 81.7382 243.875 81.5507 244.663 81.5507C245.451 81.5507 246.141 81.7382 246.732 82.1132C247.326 82.4882 247.788 83.0147 248.118 83.6927C248.451 84.3708 248.618 85.1643 248.618 86.0734C248.618 86.9749 248.451 87.7628 248.118 88.4371C247.788 89.1113 247.326 89.6359 246.732 90.0109C246.141 90.3859 245.451 90.5734 244.663 90.5734ZM244.663 89.3689C245.262 89.3689 245.754 89.2155 246.141 88.9086C246.527 88.6018 246.813 88.1984 246.999 87.6984C247.184 87.1984 247.277 86.6568 247.277 86.0734C247.277 85.4901 247.184 84.9465 246.999 84.4427C246.813 83.9389 246.527 83.5318 246.141 83.2211C245.754 82.9105 245.262 82.7552 244.663 82.7552C244.065 82.7552 243.572 82.9105 243.186 83.2211C242.8 83.5318 242.514 83.9389 242.328 84.4427C242.143 84.9465 242.05 85.4901 242.05 86.0734C242.05 86.6568 242.143 87.1984 242.328 87.6984C242.514 88.1984 242.8 88.6018 243.186 88.9086C243.572 89.2155 244.065 89.3689 244.663 89.3689ZM250.665 90.3916V81.6643H251.96V82.9825H252.051C252.21 82.5507 252.498 82.2003 252.915 81.9314C253.331 81.6624 253.801 81.528 254.324 81.528C254.422 81.528 254.545 81.5299 254.693 81.5336C254.841 81.5374 254.953 81.5431 255.028 81.5507V82.9143C254.983 82.903 254.879 82.8859 254.716 82.8632C254.557 82.8367 254.388 82.8234 254.21 82.8234C253.786 82.8234 253.407 82.9124 253.074 83.0905C252.744 83.2647 252.483 83.5071 252.29 83.8177C252.1 84.1246 252.006 84.4749 252.006 84.8689V90.3916H250.665ZM262.8 83.6189L261.595 83.9598C261.519 83.759 261.408 83.5639 261.26 83.3746C261.116 83.1814 260.919 83.0223 260.669 82.8973C260.419 82.7723 260.099 82.7098 259.709 82.7098C259.175 82.7098 258.73 82.8329 258.374 83.0791C258.021 83.3215 257.845 83.6302 257.845 84.0052C257.845 84.3386 257.966 84.6018 258.209 84.795C258.451 84.9882 258.83 85.1492 259.345 85.278L260.641 85.5961C261.421 85.7855 262.002 86.0753 262.385 86.4655C262.768 86.8518 262.959 87.3499 262.959 87.9598C262.959 88.4598 262.815 88.9068 262.527 89.3007C262.243 89.6946 261.845 90.0052 261.334 90.2325C260.822 90.4598 260.228 90.5734 259.55 90.5734C258.66 90.5734 257.923 90.3802 257.339 89.9939C256.756 89.6075 256.387 89.0431 256.232 88.3007L257.504 87.9825C257.625 88.4522 257.855 88.8045 258.192 89.0393C258.533 89.2742 258.978 89.3916 259.527 89.3916C260.152 89.3916 260.648 89.259 261.016 88.9939C261.387 88.7249 261.572 88.403 261.572 88.028C261.572 87.7249 261.466 87.4711 261.254 87.2666C261.042 87.0583 260.716 86.903 260.277 86.8007L258.822 86.4598C258.023 86.2704 257.436 85.9768 257.061 85.5791C256.69 85.1776 256.504 84.6757 256.504 84.0734C256.504 83.581 256.643 83.1454 256.919 82.7666C257.199 82.3878 257.58 82.0905 258.061 81.8746C258.546 81.6586 259.095 81.5507 259.709 81.5507C260.572 81.5507 261.25 81.7401 261.743 82.1189C262.239 82.4977 262.591 82.9977 262.8 83.6189ZM265.955 90.4825C265.674 90.4825 265.434 90.3821 265.233 90.1814C265.032 89.9806 264.932 89.7401 264.932 89.4598C264.932 89.1795 265.032 88.939 265.233 88.7382C265.434 88.5374 265.674 88.4371 265.955 88.4371C266.235 88.4371 266.475 88.5374 266.676 88.7382C266.877 88.939 266.977 89.1795 266.977 89.4598C266.977 89.6454 266.93 89.8158 266.835 89.9711C266.744 90.1265 266.621 90.2515 266.466 90.3461C266.314 90.4371 266.144 90.4825 265.955 90.4825Z" fill="#303030"/>
<mask id="mask0_1205_120" style="mask-type:alpha" maskUnits="userSpaceOnUse" x="0" y="0" width="104" height="104">
<path d="M52 87.3915L86.9999 52.3912L102 67.3913L67 102.392L52 87.3915Z" stroke="black" stroke-width="2.96488" stroke-linecap="round" stroke-linejoin="round"/>
<path d="M81.9999 57.392L74.4999 19.8917L2 2.3916L19.5 74.8922L56.9999 82.3922L81.9999 57.392Z" stroke="black" stroke-width="2.96488" stroke-linecap="round" stroke-linejoin="round"/>
<path d="M2 2.3916L39.9299 40.3219" stroke="black" stroke-width="2.96488" stroke-linecap="round" stroke-linejoin="round"/>
<path d="M46.9995 57.3919C52.5223 57.3919 56.9995 52.9147 56.9995 47.3918C56.9995 41.869 52.5223 37.3918 46.9995 37.3918C41.4767 37.3918 36.9995 41.869 36.9995 47.3918C36.9995 52.9147 41.4767 57.3919 46.9995 57.3919Z" stroke="black" stroke-width="2.96488" stroke-linecap="round" stroke-linejoin="round"/>
</mask>
<g mask="url(#mask0_1205_120)">
<path d="M-17.0547 -18.3124C-17.0547 -24.3601 -12.1521 -29.2627 -6.10435 -29.2627H170.104C176.151 -29.2627 181.054 -24.3601 181.054 -18.3124V157.898C181.054 163.945 176.151 168.848 170.104 168.848H-6.10436C-12.1521 168.848 -17.0547 163.945 -17.0547 157.898V-18.3124Z" fill="url(#paint0_linear_1205_120)"/>
</g>
<defs>
<linearGradient id="paint0_linear_1205_120" x1="-17.0547" y1="-29.2627" x2="181.056" y2="168.846" gradientUnits="userSpaceOnUse">
<stop stop-color="#00D1FF"/>
<stop offset="1" stop-color="#3300FF"/>
</linearGradient>
</defs>
</svg>
