<svg width="451" height="151" viewBox="0 0 451 151" fill="none" xmlns="http://www.w3.org/2000/svg">
<path d="M128.099 56.0859V38.6313H134.202C135.418 38.6313 136.42 38.8416 137.21 39.262C138 39.6768 138.588 40.2364 138.974 40.941C139.361 41.6399 139.554 42.4154 139.554 43.2677C139.554 44.0177 139.42 44.637 139.153 45.1256C138.892 45.6143 138.545 46.0006 138.114 46.2847C137.688 46.5688 137.224 46.7791 136.724 46.9154V47.0859C137.259 47.12 137.795 47.3075 138.335 47.6484C138.875 47.9893 139.327 48.4779 139.69 49.1143C140.054 49.7506 140.236 50.5291 140.236 51.4495C140.236 52.3245 140.037 53.1114 139.639 53.8103C139.242 54.5092 138.614 55.0631 137.756 55.4722C136.898 55.8813 135.781 56.0859 134.406 56.0859H128.099ZM130.213 54.2109H134.406C135.787 54.2109 136.767 53.9438 137.347 53.4097C137.932 52.87 138.224 52.2166 138.224 51.4495C138.224 50.8586 138.074 50.3131 137.773 49.8131C137.472 49.3075 137.043 48.9041 136.486 48.6029C135.929 48.2961 135.27 48.1427 134.509 48.1427H130.213V54.2109ZM130.213 46.3018H134.134C134.77 46.3018 135.344 46.1768 135.855 45.9268C136.372 45.6768 136.781 45.3245 137.082 44.87C137.389 44.4154 137.543 43.8813 137.543 43.2677C137.543 42.5006 137.276 41.8501 136.742 41.316C136.207 40.7762 135.361 40.5063 134.202 40.5063H130.213V46.3018ZM148.925 56.3586C147.663 56.3586 146.575 56.0802 145.661 55.5234C144.751 54.9609 144.05 54.1768 143.555 53.1711C143.067 52.1597 142.822 50.9836 142.822 49.6427C142.822 48.3018 143.067 47.12 143.555 46.0972C144.05 45.0688 144.737 44.2677 145.618 43.6938C146.504 43.1143 147.538 42.8245 148.72 42.8245C149.402 42.8245 150.075 42.9381 150.74 43.1654C151.405 43.3927 152.01 43.762 152.555 44.2734C153.101 44.7791 153.536 45.4495 153.859 46.2847C154.183 47.12 154.345 48.1484 154.345 49.37V50.2222H144.254V48.4836H152.3C152.3 47.745 152.152 47.0859 151.857 46.5063C151.567 45.9268 151.152 45.4694 150.612 45.1342C150.078 44.7989 149.447 44.6313 148.72 44.6313C147.919 44.6313 147.226 44.8302 146.641 45.2279C146.061 45.62 145.615 46.1313 145.303 46.762C144.99 47.3927 144.834 48.0688 144.834 48.7904V49.9495C144.834 50.9381 145.004 51.7762 145.345 52.4637C145.692 53.1455 146.172 53.6654 146.786 54.0234C147.399 54.3756 148.112 54.5518 148.925 54.5518C149.453 54.5518 149.93 54.4779 150.357 54.3302C150.788 54.1768 151.161 53.9495 151.473 53.6484C151.786 53.3416 152.027 52.9609 152.197 52.5063L154.141 53.0518C153.936 53.7109 153.592 54.2904 153.109 54.7904C152.626 55.2847 152.03 55.6711 151.32 55.9495C150.609 56.2222 149.811 56.3586 148.925 56.3586ZM178.473 44.0859H176.359C176.234 43.4779 176.016 42.9438 175.703 42.4836C175.396 42.0234 175.021 41.637 174.578 41.3245C174.141 41.0063 173.655 40.7677 173.121 40.6086C172.587 40.4495 172.03 40.37 171.45 40.37C170.394 40.37 169.436 40.637 168.578 41.1711C167.726 41.7052 167.047 42.4921 166.541 43.5319C166.041 44.5717 165.791 45.8472 165.791 47.3586C165.791 48.87 166.041 50.1455 166.541 51.1853C167.047 52.2251 167.726 53.012 168.578 53.5461C169.436 54.0802 170.394 54.3472 171.45 54.3472C172.03 54.3472 172.587 54.2677 173.121 54.1086C173.655 53.9495 174.141 53.7137 174.578 53.4012C175.021 53.083 175.396 52.6938 175.703 52.2336C176.016 51.7677 176.234 51.2336 176.359 50.6313H178.473C178.314 51.5234 178.024 52.3217 177.604 53.0262C177.183 53.7308 176.661 54.3302 176.036 54.8245C175.411 55.3131 174.709 55.6853 173.93 55.941C173.158 56.1967 172.331 56.3245 171.45 56.3245C169.962 56.3245 168.638 55.9609 167.479 55.2336C166.32 54.5063 165.408 53.4722 164.743 52.1313C164.078 50.7904 163.746 49.1995 163.746 47.3586C163.746 45.5177 164.078 43.9268 164.743 42.5859C165.408 41.245 166.32 40.2109 167.479 39.4836C168.638 38.7563 169.962 38.3927 171.45 38.3927C172.331 38.3927 173.158 38.5205 173.93 38.7762C174.709 39.0319 175.411 39.4069 176.036 39.9012C176.661 40.3899 177.183 40.9864 177.604 41.691C178.024 42.3899 178.314 43.1881 178.473 44.0859ZM181.616 56.0859V42.995H183.559V44.9722H183.695C183.934 44.3245 184.366 43.7989 184.991 43.3955C185.616 42.9921 186.32 42.7904 187.104 42.7904C187.252 42.7904 187.437 42.7933 187.658 42.7989C187.88 42.8046 188.048 42.8131 188.161 42.8245V44.87C188.093 44.8529 187.937 44.8274 187.693 44.7933C187.454 44.7535 187.201 44.7336 186.934 44.7336C186.298 44.7336 185.729 44.8671 185.229 45.1342C184.735 45.3955 184.343 45.7592 184.053 46.2251C183.769 46.6853 183.627 47.2109 183.627 47.8018V56.0859H181.616ZM195.636 56.3586C194.374 56.3586 193.286 56.0802 192.371 55.5234C191.462 54.9609 190.761 54.1768 190.266 53.1711C189.778 52.1597 189.533 50.9836 189.533 49.6427C189.533 48.3018 189.778 47.12 190.266 46.0972C190.761 45.0688 191.448 44.2677 192.329 43.6938C193.215 43.1143 194.249 42.8245 195.431 42.8245C196.113 42.8245 196.786 42.9381 197.451 43.1654C198.116 43.3927 198.721 43.762 199.266 44.2734C199.812 44.7791 200.246 45.4495 200.57 46.2847C200.894 47.12 201.056 48.1484 201.056 49.37V50.2222H190.965V48.4836H199.011C199.011 47.745 198.863 47.0859 198.568 46.5063C198.278 45.9268 197.863 45.4694 197.323 45.1342C196.789 44.7989 196.158 44.6313 195.431 44.6313C194.63 44.6313 193.937 44.8302 193.352 45.2279C192.772 45.62 192.326 46.1313 192.014 46.762C191.701 47.3927 191.545 48.0688 191.545 48.7904V49.9495C191.545 50.9381 191.715 51.7762 192.056 52.4637C192.403 53.1455 192.883 53.6654 193.496 54.0234C194.11 54.3756 194.823 54.5518 195.636 54.5518C196.164 54.5518 196.641 54.4779 197.068 54.3302C197.499 54.1768 197.871 53.9495 198.184 53.6484C198.496 53.3416 198.738 52.9609 198.908 52.5063L200.852 53.0518C200.647 53.7109 200.303 54.2904 199.82 54.7904C199.337 55.2847 198.741 55.6711 198.031 55.9495C197.32 56.2222 196.522 56.3586 195.636 56.3586ZM207.968 56.3927C207.139 56.3927 206.386 56.2364 205.71 55.9239C205.033 55.6058 204.496 55.1484 204.099 54.5518C203.701 53.9495 203.502 53.2222 203.502 52.37C203.502 51.62 203.65 51.012 203.945 50.5461C204.241 50.0745 204.636 49.7052 205.13 49.4381C205.624 49.1711 206.17 48.9722 206.766 48.8416C207.369 48.7052 207.974 48.5972 208.582 48.5177C209.377 48.4154 210.022 48.3387 210.516 48.2876C211.016 48.2308 211.38 48.137 211.607 48.0063C211.84 47.8756 211.957 47.6484 211.957 47.3245V47.2563C211.957 46.4154 211.727 45.762 211.266 45.2961C210.812 44.8302 210.121 44.5972 209.195 44.5972C208.235 44.5972 207.482 44.8075 206.937 45.2279C206.391 45.6484 206.008 46.0972 205.786 46.5745L203.877 45.8927C204.218 45.0972 204.673 44.4779 205.241 44.0347C205.815 43.5859 206.44 43.2734 207.116 43.0972C207.798 42.9154 208.468 42.8245 209.127 42.8245C209.548 42.8245 210.031 42.8756 210.576 42.9779C211.127 43.0745 211.658 43.2762 212.17 43.583C212.687 43.8899 213.116 44.3529 213.457 44.9722C213.798 45.5916 213.968 46.4211 213.968 47.4609V56.0859H211.957V54.3131H211.854C211.718 54.5972 211.491 54.9012 211.173 55.2251C210.854 55.5489 210.431 55.8245 209.903 56.0518C209.374 56.2791 208.729 56.3927 207.968 56.3927ZM208.275 54.5859C209.07 54.5859 209.741 54.4296 210.286 54.1171C210.837 53.8046 211.252 53.4012 211.531 52.9069C211.815 52.4126 211.957 51.8927 211.957 51.3472V49.5063C211.871 49.6086 211.684 49.7024 211.394 49.7876C211.11 49.8671 210.781 49.9381 210.406 50.0006C210.036 50.0575 209.675 50.1086 209.323 50.1541C208.977 50.1938 208.695 50.2279 208.479 50.2563C207.957 50.3245 207.468 50.4353 207.014 50.5887C206.565 50.7364 206.201 50.9609 205.923 51.262C205.65 51.5575 205.514 51.9609 205.514 52.4722C205.514 53.1711 205.772 53.6995 206.289 54.0575C206.812 54.4097 207.474 54.5859 208.275 54.5859ZM223.332 42.995V44.6995H216.548V42.995H223.332ZM218.526 39.8586H220.537V52.3359C220.537 52.9041 220.619 53.3302 220.784 53.6143C220.955 53.8927 221.17 54.0802 221.432 54.1768C221.699 54.2677 221.98 54.3131 222.276 54.3131C222.497 54.3131 222.679 54.3018 222.821 54.2791C222.963 54.2506 223.077 54.2279 223.162 54.2109L223.571 56.0177C223.435 56.0688 223.244 56.12 223 56.1711C222.756 56.2279 222.446 56.2563 222.071 56.2563C221.503 56.2563 220.946 56.1342 220.401 55.8899C219.861 55.6455 219.412 55.2734 219.054 54.7734C218.702 54.2734 218.526 53.6427 218.526 52.8813V39.8586ZM226.358 56.0859V42.995H228.369V56.0859H226.358ZM227.381 40.8131C226.989 40.8131 226.651 40.6796 226.367 40.4126C226.088 40.1455 225.949 39.8245 225.949 39.4495C225.949 39.0745 226.088 38.7535 226.367 38.4864C226.651 38.2194 226.989 38.0859 227.381 38.0859C227.773 38.0859 228.108 38.2194 228.386 38.4864C228.67 38.7535 228.813 39.0745 228.813 39.4495C228.813 39.8245 228.67 40.1455 228.386 40.4126C228.108 40.6796 227.773 40.8131 227.381 40.8131ZM242.758 42.995L237.917 56.0859H235.871L231.031 42.995H233.212L236.826 53.4268H236.962L240.576 42.995H242.758ZM250.433 56.3586C249.171 56.3586 248.083 56.0802 247.168 55.5234C246.259 54.9609 245.558 54.1768 245.063 53.1711C244.575 52.1597 244.33 50.9836 244.33 49.6427C244.33 48.3018 244.575 47.12 245.063 46.0972C245.558 45.0688 246.245 44.2677 247.126 43.6938C248.012 43.1143 249.046 42.8245 250.228 42.8245C250.91 42.8245 251.583 42.9381 252.248 43.1654C252.913 43.3927 253.518 43.762 254.063 44.2734C254.609 44.7791 255.043 45.4495 255.367 46.2847C255.691 47.12 255.853 48.1484 255.853 49.37V50.2222H245.762V48.4836H253.808C253.808 47.745 253.66 47.0859 253.364 46.5063C253.075 45.9268 252.66 45.4694 252.12 45.1342C251.586 44.7989 250.955 44.6313 250.228 44.6313C249.427 44.6313 248.734 44.8302 248.148 45.2279C247.569 45.62 247.123 46.1313 246.81 46.762C246.498 47.3927 246.342 48.0688 246.342 48.7904V49.9495C246.342 50.9381 246.512 51.7762 246.853 52.4637C247.2 53.1455 247.68 53.6654 248.293 54.0234C248.907 54.3756 249.62 54.5518 250.433 54.5518C250.961 54.5518 251.438 54.4779 251.864 54.3302C252.296 54.1768 252.668 53.9495 252.981 53.6484C253.293 53.3416 253.535 52.9609 253.705 52.5063L255.648 53.0518C255.444 53.7109 255.1 54.2904 254.617 54.7904C254.134 55.2847 253.538 55.6711 252.827 55.9495C252.117 56.2222 251.319 56.3586 250.433 56.3586ZM126.759 83.6995V82.4495H135.486V83.6995H131.827V94.0859H130.418V83.6995H126.759ZM139.759 94.2677C138.971 94.2677 138.279 94.0802 137.685 93.7052C137.094 93.3302 136.632 92.8056 136.298 92.1313C135.969 91.4571 135.804 90.6692 135.804 89.7677C135.804 88.8586 135.969 88.065 136.298 87.387C136.632 86.709 137.094 86.1825 137.685 85.8075C138.279 85.4325 138.971 85.245 139.759 85.245C140.546 85.245 141.236 85.4325 141.827 85.8075C142.421 86.1825 142.884 86.709 143.213 87.387C143.546 88.065 143.713 88.8586 143.713 89.7677C143.713 90.6692 143.546 91.4571 143.213 92.1313C142.884 92.8056 142.421 93.3302 141.827 93.7052C141.236 94.0802 140.546 94.2677 139.759 94.2677ZM139.759 93.0631C140.357 93.0631 140.849 92.9097 141.236 92.6029C141.622 92.2961 141.908 91.8927 142.094 91.3927C142.279 90.8927 142.372 90.351 142.372 89.7677C142.372 89.1844 142.279 88.6408 142.094 88.137C141.908 87.6332 141.622 87.226 141.236 86.9154C140.849 86.6048 140.357 86.4495 139.759 86.4495C139.16 86.4495 138.668 86.6048 138.281 86.9154C137.895 87.226 137.609 87.6332 137.423 88.137C137.238 88.6408 137.145 89.1844 137.145 89.7677C137.145 90.351 137.238 90.8927 137.423 91.3927C137.609 91.8927 137.895 92.2961 138.281 92.6029C138.668 92.9097 139.16 93.0631 139.759 93.0631ZM156.442 87.3131L155.237 87.6541C155.162 87.4533 155.05 87.2582 154.902 87.0688C154.758 86.8756 154.561 86.7166 154.311 86.5916C154.061 86.4666 153.741 86.4041 153.351 86.4041C152.817 86.4041 152.372 86.5272 152.016 86.7734C151.663 87.0158 151.487 87.3245 151.487 87.6995C151.487 88.0328 151.608 88.2961 151.851 88.4893C152.093 88.6825 152.472 88.8435 152.987 88.9722L154.283 89.2904C155.063 89.4798 155.644 89.7696 156.027 90.1597C156.41 90.5461 156.601 91.0442 156.601 91.6541C156.601 92.1541 156.457 92.601 156.169 92.995C155.885 93.3889 155.487 93.6995 154.976 93.9268C154.465 94.1541 153.87 94.2677 153.192 94.2677C152.302 94.2677 151.565 94.0745 150.982 93.6881C150.398 93.3018 150.029 92.7374 149.874 91.995L151.146 91.6768C151.268 92.1465 151.497 92.4988 151.834 92.7336C152.175 92.9685 152.62 93.0859 153.169 93.0859C153.794 93.0859 154.29 92.9533 154.658 92.6881C155.029 92.4192 155.215 92.0972 155.215 91.7222C155.215 91.4192 155.108 91.1654 154.896 90.9609C154.684 90.7525 154.358 90.5972 153.919 90.495L152.465 90.1541C151.665 89.9647 151.078 89.6711 150.703 89.2734C150.332 88.8719 150.146 88.37 150.146 87.7677C150.146 87.2753 150.285 86.8397 150.561 86.4609C150.841 86.0821 151.222 85.7847 151.703 85.5688C152.188 85.3529 152.737 85.245 153.351 85.245C154.215 85.245 154.893 85.4344 155.385 85.8131C155.881 86.1919 156.233 86.6919 156.442 87.3131ZM162.278 94.2677C161.438 94.2677 160.712 94.0821 160.102 93.7109C159.496 93.3359 159.028 92.8131 158.699 92.1427C158.373 91.4685 158.21 90.6844 158.21 89.7904C158.21 88.8965 158.373 88.1086 158.699 87.4268C159.028 86.7412 159.487 86.2071 160.074 85.8245C160.665 85.4381 161.354 85.245 162.142 85.245C162.597 85.245 163.045 85.3207 163.489 85.4722C163.932 85.6238 164.335 85.87 164.699 86.2109C165.063 86.548 165.352 86.995 165.568 87.5518C165.784 88.1086 165.892 88.7942 165.892 89.6086V90.1768H159.165V89.0177H164.528C164.528 88.5253 164.43 88.0859 164.233 87.6995C164.04 87.3131 163.763 87.0082 163.403 86.7847C163.047 86.5613 162.627 86.4495 162.142 86.4495C161.608 86.4495 161.146 86.5821 160.756 86.8472C160.369 87.1086 160.072 87.4495 159.864 87.87C159.655 88.2904 159.551 88.7412 159.551 89.2222V89.995C159.551 90.6541 159.665 91.2128 159.892 91.6711C160.123 92.1256 160.443 92.4722 160.852 92.7109C161.261 92.9457 161.737 93.0631 162.278 93.0631C162.631 93.0631 162.949 93.0139 163.233 92.9154C163.521 92.8131 163.769 92.6616 163.977 92.4609C164.186 92.2563 164.347 92.0025 164.46 91.6995L165.756 92.0631C165.619 92.5025 165.39 92.8889 165.068 93.2222C164.746 93.5518 164.349 93.8094 163.875 93.995C163.402 94.1768 162.869 94.2677 162.278 94.2677ZM169.273 82.4495V94.0859H167.932V82.4495H169.273ZM175.615 85.3586V86.495H170.911V85.3586H175.615ZM172.32 94.0859V84.1541C172.32 83.6541 172.437 83.2374 172.672 82.9041C172.907 82.5707 173.212 82.3207 173.587 82.1541C173.962 81.9874 174.358 81.9041 174.774 81.9041C175.104 81.9041 175.373 81.9306 175.581 81.9836C175.789 82.0366 175.945 82.0859 176.047 82.1313L175.661 83.2904C175.592 83.2677 175.498 83.2393 175.376 83.2052C175.259 83.1711 175.104 83.1541 174.911 83.1541C174.467 83.1541 174.147 83.2658 173.95 83.4893C173.757 83.7128 173.661 84.0404 173.661 84.4722V94.0859H172.32ZM182.041 88.4722V89.7222H176.95V88.4722H182.041ZM188.06 94.2677C187.219 94.2677 186.493 94.0821 185.884 93.7109C185.278 93.3359 184.81 92.8131 184.48 92.1427C184.154 91.4685 183.992 90.6844 183.992 89.7904C183.992 88.8965 184.154 88.1086 184.48 87.4268C184.81 86.7412 185.268 86.2071 185.855 85.8245C186.446 85.4381 187.135 85.245 187.923 85.245C188.378 85.245 188.827 85.3207 189.27 85.4722C189.713 85.6238 190.117 85.87 190.48 86.2109C190.844 86.548 191.134 86.995 191.349 87.5518C191.565 88.1086 191.673 88.7942 191.673 89.6086V90.1768H184.946V89.0177H190.31C190.31 88.5253 190.211 88.0859 190.014 87.6995C189.821 87.3131 189.545 87.0082 189.185 86.7847C188.829 86.5613 188.408 86.4495 187.923 86.4495C187.389 86.4495 186.927 86.5821 186.537 86.8472C186.151 87.1086 185.853 87.4495 185.645 87.87C185.437 88.2904 185.332 88.7412 185.332 89.2222V89.995C185.332 90.6541 185.446 91.2128 185.673 91.6711C185.904 92.1256 186.224 92.4722 186.634 92.7109C187.043 92.9457 187.518 93.0631 188.06 93.0631C188.412 93.0631 188.73 93.0139 189.014 92.9154C189.302 92.8131 189.55 92.6616 189.759 92.4609C189.967 92.2563 190.128 92.0025 190.242 91.6995L191.537 92.0631C191.401 92.5025 191.171 92.8889 190.849 93.2222C190.528 93.5518 190.13 93.8094 189.656 93.995C189.183 94.1768 188.651 94.2677 188.06 94.2677ZM194.479 85.3586L196.57 88.9268L198.661 85.3586H200.206L197.388 89.7222L200.206 94.0859H198.661L196.57 90.6995L194.479 94.0859H192.933L195.706 89.7222L192.933 85.3586H194.479ZM202.119 97.3586V85.3586H203.415V86.745H203.574C203.672 86.5935 203.809 86.4003 203.983 86.1654C204.161 85.9268 204.415 85.7147 204.744 85.5291C205.078 85.3397 205.528 85.245 206.097 85.245C206.831 85.245 207.479 85.4287 208.04 85.7961C208.6 86.1635 209.038 86.6844 209.352 87.3586C209.667 88.0328 209.824 88.8283 209.824 89.745C209.824 90.6692 209.667 91.4703 209.352 92.1484C209.038 92.8226 208.602 93.3453 208.045 93.7166C207.489 94.084 206.847 94.2677 206.119 94.2677C205.559 94.2677 205.11 94.1749 204.773 93.9893C204.436 93.7999 204.176 93.5859 203.994 93.3472C203.813 93.1048 203.672 92.9041 203.574 92.745H203.46V97.3586H202.119ZM203.438 89.7222C203.438 90.3813 203.534 90.9628 203.727 91.4666C203.92 91.9666 204.203 92.3586 204.574 92.6427C204.945 92.923 205.4 93.0631 205.938 93.0631C206.498 93.0631 206.966 92.9154 207.341 92.62C207.72 92.3207 208.004 91.9192 208.193 91.4154C208.386 90.9078 208.483 90.3435 208.483 89.7222C208.483 89.1086 208.388 88.5556 208.199 88.0631C208.013 87.5669 207.731 87.1749 207.352 86.887C206.977 86.5953 206.506 86.4495 205.938 86.4495C205.392 86.4495 204.934 86.5878 204.563 86.8643C204.191 87.137 203.911 87.5196 203.722 88.012C203.532 88.5006 203.438 89.0707 203.438 89.7222ZM211.869 94.0859V85.3586H213.165V86.6768H213.256C213.415 86.245 213.703 85.8946 214.119 85.6256C214.536 85.3567 215.006 85.2222 215.528 85.2222C215.627 85.2222 215.75 85.2241 215.898 85.2279C216.045 85.2317 216.157 85.2374 216.233 85.245V86.6086C216.188 86.5972 216.083 86.5802 215.92 86.5575C215.761 86.531 215.593 86.5177 215.415 86.5177C214.991 86.5177 214.612 86.6067 214.278 86.7847C213.949 86.959 213.688 87.2014 213.494 87.512C213.305 87.8188 213.21 88.1692 213.21 88.5631V94.0859H211.869ZM221.216 94.2677C220.375 94.2677 219.65 94.0821 219.04 93.7109C218.434 93.3359 217.966 92.8131 217.636 92.1427C217.311 91.4685 217.148 90.6844 217.148 89.7904C217.148 88.8965 217.311 88.1086 217.636 87.4268C217.966 86.7412 218.424 86.2071 219.011 85.8245C219.602 85.4381 220.292 85.245 221.08 85.245C221.534 85.245 221.983 85.3207 222.426 85.4722C222.869 85.6238 223.273 85.87 223.636 86.2109C224 86.548 224.29 86.995 224.506 87.5518C224.722 88.1086 224.83 88.7942 224.83 89.6086V90.1768H218.102V89.0177H223.466C223.466 88.5253 223.367 88.0859 223.17 87.6995C222.977 87.3131 222.701 87.0082 222.341 86.7847C221.985 86.5613 221.564 86.4495 221.08 86.4495C220.545 86.4495 220.083 86.5821 219.693 86.8472C219.307 87.1086 219.01 87.4495 218.801 87.87C218.593 88.2904 218.489 88.7412 218.489 89.2222V89.995C218.489 90.6541 218.602 91.2128 218.83 91.6711C219.061 92.1256 219.381 92.4722 219.79 92.7109C220.199 92.9457 220.674 93.0631 221.216 93.0631C221.568 93.0631 221.886 93.0139 222.17 92.9154C222.458 92.8131 222.706 92.6616 222.915 92.4609C223.123 92.2563 223.284 92.0025 223.398 91.6995L224.693 92.0631C224.557 92.5025 224.328 92.8889 224.006 93.2222C223.684 93.5518 223.286 93.8094 222.813 93.995C222.339 94.1768 221.807 94.2677 221.216 94.2677ZM233.051 87.3131L231.847 87.6541C231.771 87.4533 231.659 87.2582 231.511 87.0688C231.367 86.8756 231.17 86.7166 230.92 86.5916C230.67 86.4666 230.35 86.4041 229.96 86.4041C229.426 86.4041 228.981 86.5272 228.625 86.7734C228.273 87.0158 228.097 87.3245 228.097 87.6995C228.097 88.0328 228.218 88.2961 228.46 88.4893C228.703 88.6825 229.081 88.8435 229.597 88.9722L230.892 89.2904C231.672 89.4798 232.254 89.7696 232.636 90.1597C233.019 90.5461 233.21 91.0442 233.21 91.6541C233.21 92.1541 233.066 92.601 232.778 92.995C232.494 93.3889 232.097 93.6995 231.585 93.9268C231.074 94.1541 230.479 94.2677 229.801 94.2677C228.911 94.2677 228.174 94.0745 227.591 93.6881C227.008 93.3018 226.638 92.7374 226.483 91.995L227.756 91.6768C227.877 92.1465 228.106 92.4988 228.443 92.7336C228.784 92.9685 229.229 93.0859 229.778 93.0859C230.403 93.0859 230.9 92.9533 231.267 92.6881C231.638 92.4192 231.824 92.0972 231.824 91.7222C231.824 91.4192 231.718 91.1654 231.506 90.9609C231.294 90.7525 230.968 90.5972 230.528 90.495L229.074 90.1541C228.275 89.9647 227.688 89.6711 227.313 89.2734C226.941 88.8719 226.756 88.37 226.756 87.7677C226.756 87.2753 226.894 86.8397 227.17 86.4609C227.451 86.0821 227.831 85.7847 228.313 85.5688C228.797 85.3529 229.347 85.245 229.96 85.245C230.824 85.245 231.502 85.4344 231.994 85.8131C232.491 86.1919 232.843 86.6919 233.051 87.3131ZM241.411 87.3131L240.206 87.6541C240.13 87.4533 240.019 87.2582 239.871 87.0688C239.727 86.8756 239.53 86.7166 239.28 86.5916C239.03 86.4666 238.71 86.4041 238.32 86.4041C237.786 86.4041 237.34 86.5272 236.984 86.7734C236.632 87.0158 236.456 87.3245 236.456 87.6995C236.456 88.0328 236.577 88.2961 236.82 88.4893C237.062 88.6825 237.441 88.8435 237.956 88.9722L239.251 89.2904C240.032 89.4798 240.613 89.7696 240.996 90.1597C241.378 90.5461 241.57 91.0442 241.57 91.6541C241.57 92.1541 241.426 92.601 241.138 92.995C240.854 93.3889 240.456 93.6995 239.945 93.9268C239.433 94.1541 238.839 94.2677 238.161 94.2677C237.27 94.2677 236.534 94.0745 235.95 93.6881C235.367 93.3018 234.998 92.7374 234.842 91.995L236.115 91.6768C236.236 92.1465 236.465 92.4988 236.803 92.7336C237.144 92.9685 237.589 93.0859 238.138 93.0859C238.763 93.0859 239.259 92.9533 239.626 92.6881C239.998 92.4192 240.183 92.0972 240.183 91.7222C240.183 91.4192 240.077 91.1654 239.865 90.9609C239.653 90.7525 239.327 90.5972 238.888 90.495L237.433 90.1541C236.634 89.9647 236.047 89.6711 235.672 89.2734C235.301 88.8719 235.115 88.37 235.115 87.7677C235.115 87.2753 235.253 86.8397 235.53 86.4609C235.81 86.0821 236.191 85.7847 236.672 85.5688C237.157 85.3529 237.706 85.245 238.32 85.245C239.183 85.245 239.861 85.4344 240.354 85.8131C240.85 86.1919 241.202 86.6919 241.411 87.3131ZM248.088 94.0859V85.3586H249.429V94.0859H248.088ZM248.77 83.9041C248.509 83.9041 248.283 83.815 248.094 83.637C247.908 83.459 247.815 83.245 247.815 82.995C247.815 82.745 247.908 82.531 248.094 82.3529C248.283 82.1749 248.509 82.0859 248.77 82.0859C249.031 82.0859 249.255 82.1749 249.44 82.3529C249.63 82.531 249.724 82.745 249.724 82.995C249.724 83.245 249.63 83.459 249.44 83.637C249.255 83.815 249.031 83.9041 248.77 83.9041ZM258.067 87.3131L256.862 87.6541C256.787 87.4533 256.675 87.2582 256.527 87.0688C256.383 86.8756 256.186 86.7166 255.936 86.5916C255.686 86.4666 255.366 86.4041 254.976 86.4041C254.442 86.4041 253.997 86.5272 253.641 86.7734C253.288 87.0158 253.112 87.3245 253.112 87.6995C253.112 88.0328 253.233 88.2961 253.476 88.4893C253.718 88.6825 254.097 88.8435 254.612 88.9722L255.908 89.2904C256.688 89.4798 257.269 89.7696 257.652 90.1597C258.035 90.5461 258.226 91.0442 258.226 91.6541C258.226 92.1541 258.082 92.601 257.794 92.995C257.51 93.3889 257.112 93.6995 256.601 93.9268C256.09 94.1541 255.495 94.2677 254.817 94.2677C253.927 94.2677 253.19 94.0745 252.607 93.6881C252.023 93.3018 251.654 92.7374 251.499 91.995L252.771 91.6768C252.893 92.1465 253.122 92.4988 253.459 92.7336C253.8 92.9685 254.245 93.0859 254.794 93.0859C255.419 93.0859 255.915 92.9533 256.283 92.6881C256.654 92.4192 256.84 92.0972 256.84 91.7222C256.84 91.4192 256.733 91.1654 256.521 90.9609C256.309 90.7525 255.983 90.5972 255.544 90.495L254.09 90.1541C253.29 89.9647 252.703 89.6711 252.328 89.2734C251.957 88.8719 251.771 88.37 251.771 87.7677C251.771 87.2753 251.91 86.8397 252.186 86.4609C252.466 86.0821 252.847 85.7847 253.328 85.5688C253.813 85.3529 254.362 85.245 254.976 85.245C255.84 85.245 256.518 85.4344 257.01 85.8131C257.506 86.1919 257.858 86.6919 258.067 87.3131ZM268.54 85.3586V86.495H264.017V85.3586H268.54ZM265.335 83.2677H266.676V91.5859C266.676 91.9647 266.731 92.2488 266.841 92.4381C266.955 92.6238 267.099 92.7488 267.273 92.8131C267.451 92.8738 267.638 92.9041 267.835 92.9041C267.983 92.9041 268.104 92.8965 268.199 92.8813C268.294 92.8624 268.369 92.8472 268.426 92.8359L268.699 94.0404C268.608 94.0745 268.481 94.1086 268.318 94.1427C268.155 94.1806 267.949 94.1995 267.699 94.1995C267.32 94.1995 266.949 94.1181 266.585 93.9552C266.225 93.7923 265.926 93.5442 265.688 93.2109C265.453 92.8775 265.335 92.4571 265.335 91.9495V83.2677ZM274.009 94.2677C273.221 94.2677 272.529 94.0802 271.935 93.7052C271.344 93.3302 270.882 92.8056 270.548 92.1313C270.219 91.4571 270.054 90.6692 270.054 89.7677C270.054 88.8586 270.219 88.065 270.548 87.387C270.882 86.709 271.344 86.1825 271.935 85.8075C272.529 85.4325 273.221 85.245 274.009 85.245C274.796 85.245 275.486 85.4325 276.077 85.8075C276.671 86.1825 277.134 86.709 277.463 87.387C277.796 88.065 277.963 88.8586 277.963 89.7677C277.963 90.6692 277.796 91.4571 277.463 92.1313C277.134 92.8056 276.671 93.3302 276.077 93.7052C275.486 94.0802 274.796 94.2677 274.009 94.2677ZM274.009 93.0631C274.607 93.0631 275.099 92.9097 275.486 92.6029C275.872 92.2961 276.158 91.8927 276.344 91.3927C276.529 90.8927 276.622 90.351 276.622 89.7677C276.622 89.1844 276.529 88.6408 276.344 88.137C276.158 87.6332 275.872 87.226 275.486 86.9154C275.099 86.6048 274.607 86.4495 274.009 86.4495C273.41 86.4495 272.918 86.6048 272.531 86.9154C272.145 87.226 271.859 87.6332 271.673 88.137C271.488 88.6408 271.395 89.1844 271.395 89.7677C271.395 90.351 271.488 90.8927 271.673 91.3927C271.859 91.8927 272.145 92.2961 272.531 92.6029C272.918 92.9097 273.41 93.0631 274.009 93.0631ZM284.692 94.0859V82.4495H286.033V86.745H286.146C286.245 86.5935 286.381 86.4003 286.555 86.1654C286.733 85.9268 286.987 85.7147 287.317 85.5291C287.65 85.3397 288.101 85.245 288.669 85.245C289.404 85.245 290.052 85.4287 290.612 85.7961C291.173 86.1635 291.61 86.6844 291.925 87.3586C292.239 88.0328 292.396 88.8283 292.396 89.745C292.396 90.6692 292.239 91.4703 291.925 92.1484C291.61 92.8226 291.175 93.3453 290.618 93.7166C290.061 94.084 289.419 94.2677 288.692 94.2677C288.131 94.2677 287.682 94.1749 287.345 93.9893C287.008 93.7999 286.749 93.5859 286.567 93.3472C286.385 93.1048 286.245 92.9041 286.146 92.745H285.987V94.0859H284.692ZM286.01 89.7222C286.01 90.3813 286.107 90.9628 286.3 91.4666C286.493 91.9666 286.775 92.3586 287.146 92.6427C287.518 92.923 287.972 93.0631 288.51 93.0631C289.071 93.0631 289.538 92.9154 289.913 92.62C290.292 92.3207 290.576 91.9192 290.766 91.4154C290.959 90.9078 291.055 90.3435 291.055 89.7222C291.055 89.1086 290.961 88.5556 290.771 88.0631C290.586 87.5669 290.304 87.1749 289.925 86.887C289.55 86.5953 289.078 86.4495 288.51 86.4495C287.965 86.4495 287.506 86.5878 287.135 86.8643C286.764 87.137 286.483 87.5196 286.294 88.012C286.105 88.5006 286.01 89.0707 286.01 89.7222ZM298.107 94.2677C297.266 94.2677 296.54 94.0821 295.93 93.7109C295.324 93.3359 294.857 92.8131 294.527 92.1427C294.201 91.4685 294.038 90.6844 294.038 89.7904C294.038 88.8965 294.201 88.1086 294.527 87.4268C294.857 86.7412 295.315 86.2071 295.902 85.8245C296.493 85.4381 297.182 85.245 297.97 85.245C298.425 85.245 298.874 85.3207 299.317 85.4722C299.76 85.6238 300.163 85.87 300.527 86.2109C300.891 86.548 301.18 86.995 301.396 87.5518C301.612 88.1086 301.72 88.7942 301.72 89.6086V90.1768H294.993V89.0177H300.357C300.357 88.5253 300.258 88.0859 300.061 87.6995C299.868 87.3131 299.591 87.0082 299.232 86.7847C298.876 86.5613 298.455 86.4495 297.97 86.4495C297.436 86.4495 296.974 86.5821 296.584 86.8472C296.197 87.1086 295.9 87.4495 295.692 87.87C295.483 88.2904 295.379 88.7412 295.379 89.2222V89.995C295.379 90.6541 295.493 91.2128 295.72 91.6711C295.951 92.1256 296.271 92.4722 296.68 92.7109C297.09 92.9457 297.565 93.0631 298.107 93.0631C298.459 93.0631 298.777 93.0139 299.061 92.9154C299.349 92.8131 299.597 92.6616 299.805 92.4609C300.014 92.2563 300.175 92.0025 300.288 91.6995L301.584 92.0631C301.447 92.5025 301.218 92.8889 300.896 93.2222C300.574 93.5518 300.177 93.8094 299.703 93.995C299.23 94.1768 298.697 94.2677 298.107 94.2677ZM312.146 85.3586V86.495H307.442V85.3586H312.146ZM308.851 94.0859V84.1541C308.851 83.6541 308.968 83.2374 309.203 82.9041C309.438 82.5707 309.743 82.3207 310.118 82.1541C310.493 81.9874 310.889 81.9041 311.305 81.9041C311.635 81.9041 311.904 81.9306 312.112 81.9836C312.321 82.0366 312.476 82.0859 312.578 82.1313L312.192 83.2904C312.124 83.2677 312.029 83.2393 311.908 83.2052C311.79 83.1711 311.635 83.1541 311.442 83.1541C310.999 83.1541 310.679 83.2658 310.482 83.4893C310.288 83.7128 310.192 84.0404 310.192 84.4722V94.0859H308.851ZM317.325 94.2677C316.484 94.2677 315.759 94.0821 315.149 93.7109C314.543 93.3359 314.075 92.8131 313.746 92.1427C313.42 91.4685 313.257 90.6844 313.257 89.7904C313.257 88.8965 313.42 88.1086 313.746 87.4268C314.075 86.7412 314.534 86.2071 315.121 85.8245C315.712 85.4381 316.401 85.245 317.189 85.245C317.644 85.245 318.092 85.3207 318.536 85.4722C318.979 85.6238 319.382 85.87 319.746 86.2109C320.109 86.548 320.399 86.995 320.615 87.5518C320.831 88.1086 320.939 88.7942 320.939 89.6086V90.1768H314.212V89.0177H319.575C319.575 88.5253 319.477 88.0859 319.28 87.6995C319.087 87.3131 318.81 87.0082 318.45 86.7847C318.094 86.5613 317.674 86.4495 317.189 86.4495C316.655 86.4495 316.193 86.5821 315.803 86.8472C315.416 87.1086 315.119 87.4495 314.911 87.87C314.702 88.2904 314.598 88.7412 314.598 89.2222V89.995C314.598 90.6541 314.712 91.2128 314.939 91.6711C315.17 92.1256 315.49 92.4722 315.899 92.7109C316.308 92.9457 316.784 93.0631 317.325 93.0631C317.678 93.0631 317.996 93.0139 318.28 92.9154C318.568 92.8131 318.816 92.6616 319.024 92.4609C319.233 92.2563 319.394 92.0025 319.507 91.6995L320.803 92.0631C320.666 92.5025 320.437 92.8889 320.115 93.2222C319.793 93.5518 319.395 93.8094 318.922 93.995C318.448 94.1768 317.916 94.2677 317.325 94.2677ZM325.547 94.2904C324.994 94.2904 324.492 94.1863 324.041 93.9779C323.59 93.7658 323.233 93.4609 322.967 93.0631C322.702 92.6616 322.57 92.1768 322.57 91.6086C322.57 91.1086 322.668 90.7033 322.865 90.3927C323.062 90.0783 323.325 89.8321 323.655 89.6541C323.984 89.476 324.348 89.3435 324.746 89.2563C325.147 89.1654 325.551 89.0935 325.956 89.0404C326.486 88.9722 326.916 88.9211 327.246 88.887C327.579 88.8491 327.822 88.7866 327.973 88.6995C328.128 88.6124 328.206 88.4609 328.206 88.245V88.1995C328.206 87.6389 328.053 87.2033 327.746 86.8927C327.443 86.5821 326.983 86.4268 326.365 86.4268C325.725 86.4268 325.223 86.5669 324.859 86.8472C324.496 87.1275 324.24 87.4268 324.092 87.745L322.82 87.2904C323.047 86.7601 323.35 86.3472 323.729 86.0518C324.111 85.7525 324.528 85.5442 324.979 85.4268C325.433 85.3056 325.88 85.245 326.32 85.245C326.6 85.245 326.922 85.2791 327.286 85.3472C327.653 85.4116 328.007 85.5461 328.348 85.7506C328.693 85.9552 328.979 86.2639 329.206 86.6768C329.433 87.0897 329.547 87.6427 329.547 88.3359V94.0859H328.206V92.9041H328.138C328.047 93.0935 327.895 93.2961 327.683 93.512C327.471 93.7279 327.189 93.9116 326.837 94.0631C326.484 94.2147 326.054 94.2904 325.547 94.2904ZM325.751 93.0859C326.282 93.0859 326.729 92.9817 327.092 92.7734C327.46 92.565 327.736 92.2961 327.922 91.9666C328.111 91.637 328.206 91.2904 328.206 90.9268V89.6995C328.149 89.7677 328.024 89.8302 327.831 89.887C327.642 89.94 327.422 89.9874 327.172 90.0291C326.926 90.0669 326.685 90.101 326.45 90.1313C326.219 90.1578 326.032 90.1806 325.888 90.1995C325.539 90.245 325.214 90.3188 324.911 90.4211C324.611 90.5196 324.369 90.6692 324.183 90.87C324.001 91.0669 323.911 91.3359 323.911 91.6768C323.911 92.1427 324.083 92.495 324.428 92.7336C324.776 92.9685 325.217 93.0859 325.751 93.0859ZM331.994 94.0859V85.3586H333.29V86.6768H333.381C333.54 86.245 333.828 85.8946 334.244 85.6256C334.661 85.3567 335.131 85.2222 335.653 85.2222C335.752 85.2222 335.875 85.2241 336.023 85.2279C336.17 85.2317 336.282 85.2374 336.358 85.245V86.6086C336.313 86.5972 336.208 86.5802 336.045 86.5575C335.886 86.531 335.718 86.5177 335.54 86.5177C335.116 86.5177 334.737 86.6067 334.403 86.7847C334.074 86.959 333.813 87.2014 333.619 87.512C333.43 87.8188 333.335 88.1692 333.335 88.5631V94.0859H331.994ZM339.288 82.4495V94.0859H337.947V82.4495H339.288ZM345.403 94.2677C344.563 94.2677 343.837 94.0821 343.227 93.7109C342.621 93.3359 342.153 92.8131 341.824 92.1427C341.498 91.4685 341.335 90.6844 341.335 89.7904C341.335 88.8965 341.498 88.1086 341.824 87.4268C342.153 86.7412 342.612 86.2071 343.199 85.8245C343.79 85.4381 344.479 85.245 345.267 85.245C345.722 85.245 346.17 85.3207 346.614 85.4722C347.057 85.6238 347.46 85.87 347.824 86.2109C348.188 86.548 348.477 86.995 348.693 87.5518C348.909 88.1086 349.017 88.7942 349.017 89.6086V90.1768H342.29V89.0177H347.653C347.653 88.5253 347.555 88.0859 347.358 87.6995C347.165 87.3131 346.888 87.0082 346.528 86.7847C346.172 86.5613 345.752 86.4495 345.267 86.4495C344.733 86.4495 344.271 86.5821 343.881 86.8472C343.494 87.1086 343.197 87.4495 342.989 87.87C342.78 88.2904 342.676 88.7412 342.676 89.2222V89.995C342.676 90.6541 342.79 91.2128 343.017 91.6711C343.248 92.1256 343.568 92.4722 343.977 92.7109C344.386 92.9457 344.862 93.0631 345.403 93.0631C345.756 93.0631 346.074 93.0139 346.358 92.9154C346.646 92.8131 346.894 92.6616 347.102 92.4609C347.311 92.2563 347.472 92.0025 347.585 91.6995L348.881 92.0631C348.744 92.5025 348.515 92.8889 348.193 93.2222C347.871 93.5518 347.474 93.8094 347 93.995C346.527 94.1768 345.994 94.2677 345.403 94.2677ZM357.239 87.3131L356.034 87.6541C355.958 87.4533 355.847 87.2582 355.699 87.0688C355.555 86.8756 355.358 86.7166 355.108 86.5916C354.858 86.4666 354.538 86.4041 354.148 86.4041C353.614 86.4041 353.169 86.5272 352.813 86.7734C352.46 87.0158 352.284 87.3245 352.284 87.6995C352.284 88.0328 352.405 88.2961 352.648 88.4893C352.89 88.6825 353.269 88.8435 353.784 88.9722L355.08 89.2904C355.86 89.4798 356.441 89.7696 356.824 90.1597C357.206 90.5461 357.398 91.0442 357.398 91.6541C357.398 92.1541 357.254 92.601 356.966 92.995C356.682 93.3889 356.284 93.6995 355.773 93.9268C355.261 94.1541 354.667 94.2677 353.989 94.2677C353.099 94.2677 352.362 94.0745 351.778 93.6881C351.195 93.3018 350.826 92.7374 350.67 91.995L351.943 91.6768C352.064 92.1465 352.294 92.4988 352.631 92.7336C352.972 92.9685 353.417 93.0859 353.966 93.0859C354.591 93.0859 355.087 92.9533 355.455 92.6881C355.826 92.4192 356.011 92.0972 356.011 91.7222C356.011 91.4192 355.905 91.1654 355.693 90.9609C355.481 90.7525 355.155 90.5972 354.716 90.495L353.261 90.1541C352.462 89.9647 351.875 89.6711 351.5 89.2734C351.129 88.8719 350.943 88.37 350.943 87.7677C350.943 87.2753 351.081 86.8397 351.358 86.4609C351.638 86.0821 352.019 85.7847 352.5 85.5688C352.985 85.3529 353.534 85.245 354.148 85.245C355.011 85.245 355.689 85.4344 356.182 85.8131C356.678 86.1919 357.03 86.6919 357.239 87.3131ZM365.598 87.3131L364.394 87.6541C364.318 87.4533 364.206 87.2582 364.058 87.0688C363.914 86.8756 363.717 86.7166 363.467 86.5916C363.217 86.4666 362.897 86.4041 362.507 86.4041C361.973 86.4041 361.528 86.5272 361.172 86.7734C360.82 87.0158 360.644 87.3245 360.644 87.6995C360.644 88.0328 360.765 88.2961 361.007 88.4893C361.25 88.6825 361.628 88.8435 362.144 88.9722L363.439 89.2904C364.219 89.4798 364.801 89.7696 365.183 90.1597C365.566 90.5461 365.757 91.0442 365.757 91.6541C365.757 92.1541 365.613 92.601 365.325 92.995C365.041 93.3889 364.644 93.6995 364.132 93.9268C363.621 94.1541 363.026 94.2677 362.348 94.2677C361.458 94.2677 360.721 94.0745 360.138 93.6881C359.554 93.3018 359.185 92.7374 359.03 91.995L360.303 91.6768C360.424 92.1465 360.653 92.4988 360.99 92.7336C361.331 92.9685 361.776 93.0859 362.325 93.0859C362.95 93.0859 363.447 92.9533 363.814 92.6881C364.185 92.4192 364.371 92.0972 364.371 91.7222C364.371 91.4192 364.265 91.1654 364.053 90.9609C363.84 90.7525 363.515 90.5972 363.075 90.495L361.621 90.1541C360.822 89.9647 360.234 89.6711 359.859 89.2734C359.488 88.8719 359.303 88.37 359.303 87.7677C359.303 87.2753 359.441 86.8397 359.717 86.4609C359.998 86.0821 360.378 85.7847 360.859 85.5688C361.344 85.3529 361.894 85.245 362.507 85.245C363.371 85.245 364.049 85.4344 364.541 85.8131C365.037 86.1919 365.39 86.6919 365.598 87.3131ZM368.753 94.1768C368.473 94.1768 368.232 94.0764 368.031 93.8756C367.831 93.6749 367.73 93.4344 367.73 93.1541C367.73 92.8738 367.831 92.6332 368.031 92.4325C368.232 92.2317 368.473 92.1313 368.753 92.1313C369.033 92.1313 369.274 92.2317 369.474 92.4325C369.675 92.6332 369.776 92.8738 369.776 93.1541C369.776 93.3397 369.728 93.5101 369.634 93.6654C369.543 93.8207 369.42 93.9457 369.264 94.0404C369.113 94.1313 368.942 94.1768 368.753 94.1768ZM376.227 83.6995V82.4495H384.955V83.6995H381.295V94.0859H379.886V83.6995H376.227ZM389.227 94.2677C388.439 94.2677 387.748 94.0802 387.153 93.7052C386.563 93.3302 386.1 92.8056 385.767 92.1313C385.438 91.4571 385.273 90.6692 385.273 89.7677C385.273 88.8586 385.438 88.065 385.767 87.387C386.1 86.709 386.563 86.1825 387.153 85.8075C387.748 85.4325 388.439 85.245 389.227 85.245C390.015 85.245 390.705 85.4325 391.295 85.8075C391.89 86.1825 392.352 86.709 392.682 87.387C393.015 88.065 393.182 88.8586 393.182 89.7677C393.182 90.6692 393.015 91.4571 392.682 92.1313C392.352 92.8056 391.89 93.3302 391.295 93.7052C390.705 94.0802 390.015 94.2677 389.227 94.2677ZM389.227 93.0631C389.826 93.0631 390.318 92.9097 390.705 92.6029C391.091 92.2961 391.377 91.8927 391.563 91.3927C391.748 90.8927 391.841 90.351 391.841 89.7677C391.841 89.1844 391.748 88.6408 391.563 88.137C391.377 87.6332 391.091 87.226 390.705 86.9154C390.318 86.6048 389.826 86.4495 389.227 86.4495C388.629 86.4495 388.136 86.6048 387.75 86.9154C387.364 87.226 387.078 87.6332 386.892 88.137C386.706 88.6408 386.614 89.1844 386.614 89.7677C386.614 90.351 386.706 90.8927 386.892 91.3927C387.078 91.8927 387.364 92.2961 387.75 92.6029C388.136 92.9097 388.629 93.0631 389.227 93.0631ZM399.911 94.0859V82.4495H401.251V86.745H401.365C401.464 86.5935 401.6 86.4003 401.774 86.1654C401.952 85.9268 402.206 85.7147 402.536 85.5291C402.869 85.3397 403.32 85.245 403.888 85.245C404.623 85.245 405.27 85.4287 405.831 85.7961C406.392 86.1635 406.829 86.6844 407.144 87.3586C407.458 88.0328 407.615 88.8283 407.615 89.745C407.615 90.6692 407.458 91.4703 407.144 92.1484C406.829 92.8226 406.394 93.3453 405.837 93.7166C405.28 94.084 404.638 94.2677 403.911 94.2677C403.35 94.2677 402.901 94.1749 402.564 93.9893C402.227 93.7999 401.967 93.5859 401.786 93.3472C401.604 93.1048 401.464 92.9041 401.365 92.745H401.206V94.0859H399.911ZM401.229 89.7222C401.229 90.3813 401.325 90.9628 401.519 91.4666C401.712 91.9666 401.994 92.3586 402.365 92.6427C402.736 92.923 403.191 93.0631 403.729 93.0631C404.289 93.0631 404.757 92.9154 405.132 92.62C405.511 92.3207 405.795 91.9192 405.984 91.4154C406.178 90.9078 406.274 90.3435 406.274 89.7222C406.274 89.1086 406.179 88.5556 405.99 88.0631C405.804 87.5669 405.522 87.1749 405.144 86.887C404.769 86.5953 404.297 86.4495 403.729 86.4495C403.183 86.4495 402.725 86.5878 402.354 86.8643C401.983 87.137 401.702 87.5196 401.513 88.012C401.323 88.5006 401.229 89.0707 401.229 89.7222ZM413.325 94.2677C412.484 94.2677 411.759 94.0821 411.149 93.7109C410.543 93.3359 410.075 92.8131 409.746 92.1427C409.42 91.4685 409.257 90.6844 409.257 89.7904C409.257 88.8965 409.42 88.1086 409.746 87.4268C410.075 86.7412 410.534 86.2071 411.121 85.8245C411.712 85.4381 412.401 85.245 413.189 85.245C413.644 85.245 414.092 85.3207 414.536 85.4722C414.979 85.6238 415.382 85.87 415.746 86.2109C416.109 86.548 416.399 86.995 416.615 87.5518C416.831 88.1086 416.939 88.7942 416.939 89.6086V90.1768H410.212V89.0177H415.575C415.575 88.5253 415.477 88.0859 415.28 87.6995C415.087 87.3131 414.81 87.0082 414.45 86.7847C414.094 86.5613 413.674 86.4495 413.189 86.4495C412.655 86.4495 412.193 86.5821 411.803 86.8472C411.416 87.1086 411.119 87.4495 410.911 87.87C410.702 88.2904 410.598 88.7412 410.598 89.2222V89.995C410.598 90.6541 410.712 91.2128 410.939 91.6711C411.17 92.1256 411.49 92.4722 411.899 92.7109C412.308 92.9457 412.784 93.0631 413.325 93.0631C413.678 93.0631 413.996 93.0139 414.28 92.9154C414.568 92.8131 414.816 92.6616 415.024 92.4609C415.233 92.2563 415.394 92.0025 415.507 91.6995L416.803 92.0631C416.666 92.5025 416.437 92.8889 416.115 93.2222C415.793 93.5518 415.395 93.8094 414.922 93.995C414.448 94.1768 413.916 94.2677 413.325 94.2677ZM131.099 104.359V105.495H126.395V104.359H131.099ZM127.804 113.086V103.154C127.804 102.654 127.921 102.237 128.156 101.904C128.391 101.571 128.696 101.321 129.071 101.154C129.446 100.987 129.842 100.904 130.259 100.904C130.588 100.904 130.857 100.931 131.065 100.984C131.274 101.037 131.429 101.086 131.531 101.131L131.145 102.29C131.077 102.268 130.982 102.239 130.861 102.205C130.743 102.171 130.588 102.154 130.395 102.154C129.952 102.154 129.632 102.266 129.435 102.489C129.242 102.713 129.145 103.04 129.145 103.472V113.086H127.804ZM136.278 113.268C135.438 113.268 134.712 113.082 134.102 112.711C133.496 112.336 133.028 111.813 132.699 111.143C132.373 110.468 132.21 109.684 132.21 108.79C132.21 107.896 132.373 107.109 132.699 106.427C133.028 105.741 133.487 105.207 134.074 104.825C134.665 104.438 135.354 104.245 136.142 104.245C136.597 104.245 137.045 104.321 137.489 104.472C137.932 104.624 138.335 104.87 138.699 105.211C139.063 105.548 139.352 105.995 139.568 106.552C139.784 107.109 139.892 107.794 139.892 108.609V109.177H133.165V108.018H138.528C138.528 107.525 138.43 107.086 138.233 106.7C138.04 106.313 137.763 106.008 137.403 105.785C137.047 105.561 136.627 105.45 136.142 105.45C135.608 105.45 135.146 105.582 134.756 105.847C134.369 106.109 134.072 106.45 133.864 106.87C133.655 107.29 133.551 107.741 133.551 108.222V108.995C133.551 109.654 133.665 110.213 133.892 110.671C134.123 111.126 134.443 111.472 134.852 111.711C135.261 111.946 135.737 112.063 136.278 112.063C136.631 112.063 136.949 112.014 137.233 111.915C137.521 111.813 137.769 111.662 137.977 111.461C138.186 111.256 138.347 111.003 138.46 110.7L139.756 111.063C139.619 111.503 139.39 111.889 139.068 112.222C138.746 112.552 138.349 112.809 137.875 112.995C137.402 113.177 136.869 113.268 136.278 113.268ZM144.5 113.29C143.947 113.29 143.445 113.186 142.994 112.978C142.544 112.766 142.186 112.461 141.92 112.063C141.655 111.662 141.523 111.177 141.523 110.609C141.523 110.109 141.621 109.703 141.818 109.393C142.015 109.078 142.278 108.832 142.608 108.654C142.938 108.476 143.301 108.343 143.699 108.256C144.1 108.165 144.504 108.093 144.909 108.04C145.439 107.972 145.869 107.921 146.199 107.887C146.532 107.849 146.775 107.787 146.926 107.7C147.081 107.612 147.159 107.461 147.159 107.245V107.2C147.159 106.639 147.006 106.203 146.699 105.893C146.396 105.582 145.936 105.427 145.318 105.427C144.678 105.427 144.176 105.567 143.813 105.847C143.449 106.128 143.193 106.427 143.045 106.745L141.773 106.29C142 105.76 142.303 105.347 142.682 105.052C143.064 104.753 143.481 104.544 143.932 104.427C144.386 104.306 144.833 104.245 145.273 104.245C145.553 104.245 145.875 104.279 146.239 104.347C146.606 104.412 146.96 104.546 147.301 104.751C147.646 104.955 147.932 105.264 148.159 105.677C148.386 106.09 148.5 106.643 148.5 107.336V113.086H147.159V111.904H147.091C147 112.093 146.849 112.296 146.636 112.512C146.424 112.728 146.142 112.912 145.79 113.063C145.438 113.215 145.008 113.29 144.5 113.29ZM144.705 112.086C145.235 112.086 145.682 111.982 146.045 111.773C146.413 111.565 146.689 111.296 146.875 110.967C147.064 110.637 147.159 110.29 147.159 109.927V108.7C147.102 108.768 146.977 108.83 146.784 108.887C146.595 108.94 146.375 108.987 146.125 109.029C145.879 109.067 145.638 109.101 145.403 109.131C145.172 109.158 144.985 109.181 144.841 109.2C144.492 109.245 144.167 109.319 143.864 109.421C143.564 109.52 143.322 109.669 143.136 109.87C142.955 110.067 142.864 110.336 142.864 110.677C142.864 111.143 143.036 111.495 143.381 111.734C143.729 111.968 144.17 112.086 144.705 112.086ZM150.947 113.086V104.359H152.243V105.677H152.334C152.493 105.245 152.781 104.895 153.197 104.626C153.614 104.357 154.084 104.222 154.607 104.222C154.705 104.222 154.828 104.224 154.976 104.228C155.124 104.232 155.235 104.237 155.311 104.245V105.609C155.266 105.597 155.162 105.58 154.999 105.557C154.84 105.531 154.671 105.518 154.493 105.518C154.069 105.518 153.69 105.607 153.357 105.785C153.027 105.959 152.766 106.201 152.572 106.512C152.383 106.819 152.288 107.169 152.288 107.563V113.086H150.947ZM158.242 101.45V113.086H156.901V101.45H158.242ZM164.357 113.268C163.516 113.268 162.79 113.082 162.18 112.711C161.574 112.336 161.107 111.813 160.777 111.143C160.451 110.468 160.288 109.684 160.288 108.79C160.288 107.896 160.451 107.109 160.777 106.427C161.107 105.741 161.565 105.207 162.152 104.825C162.743 104.438 163.432 104.245 164.22 104.245C164.675 104.245 165.124 104.321 165.567 104.472C166.01 104.624 166.413 104.87 166.777 105.211C167.141 105.548 167.43 105.995 167.646 106.552C167.862 107.109 167.97 107.794 167.97 108.609V109.177H161.243V108.018H166.607C166.607 107.525 166.508 107.086 166.311 106.7C166.118 106.313 165.841 106.008 165.482 105.785C165.126 105.561 164.705 105.45 164.22 105.45C163.686 105.45 163.224 105.582 162.834 105.847C162.447 106.109 162.15 106.45 161.942 106.87C161.733 107.29 161.629 107.741 161.629 108.222V108.995C161.629 109.654 161.743 110.213 161.97 110.671C162.201 111.126 162.521 111.472 162.93 111.711C163.34 111.946 163.815 112.063 164.357 112.063C164.709 112.063 165.027 112.014 165.311 111.915C165.599 111.813 165.847 111.662 166.055 111.461C166.264 111.256 166.425 111.003 166.538 110.7L167.834 111.063C167.697 111.503 167.468 111.889 167.146 112.222C166.824 112.552 166.427 112.809 165.953 112.995C165.48 113.177 164.947 113.268 164.357 113.268ZM176.192 106.313L174.987 106.654C174.912 106.453 174.8 106.258 174.652 106.069C174.508 105.876 174.311 105.717 174.061 105.592C173.811 105.467 173.491 105.404 173.101 105.404C172.567 105.404 172.122 105.527 171.766 105.773C171.413 106.016 171.237 106.325 171.237 106.7C171.237 107.033 171.358 107.296 171.601 107.489C171.843 107.682 172.222 107.843 172.737 107.972L174.033 108.29C174.813 108.48 175.394 108.77 175.777 109.16C176.16 109.546 176.351 110.044 176.351 110.654C176.351 111.154 176.207 111.601 175.919 111.995C175.635 112.389 175.237 112.7 174.726 112.927C174.215 113.154 173.62 113.268 172.942 113.268C172.052 113.268 171.315 113.075 170.732 112.688C170.148 112.302 169.779 111.737 169.624 110.995L170.896 110.677C171.018 111.146 171.247 111.499 171.584 111.734C171.925 111.968 172.37 112.086 172.919 112.086C173.544 112.086 174.04 111.953 174.408 111.688C174.779 111.419 174.965 111.097 174.965 110.722C174.965 110.419 174.858 110.165 174.646 109.961C174.434 109.753 174.108 109.597 173.669 109.495L172.215 109.154C171.415 108.965 170.828 108.671 170.453 108.273C170.082 107.872 169.896 107.37 169.896 106.768C169.896 106.275 170.035 105.84 170.311 105.461C170.591 105.082 170.972 104.785 171.453 104.569C171.938 104.353 172.487 104.245 173.101 104.245C173.965 104.245 174.643 104.434 175.135 104.813C175.631 105.192 175.983 105.692 176.192 106.313ZM184.551 106.313L183.347 106.654C183.271 106.453 183.159 106.258 183.011 106.069C182.867 105.876 182.67 105.717 182.42 105.592C182.17 105.467 181.85 105.404 181.46 105.404C180.926 105.404 180.481 105.527 180.125 105.773C179.773 106.016 179.597 106.325 179.597 106.7C179.597 107.033 179.718 107.296 179.96 107.489C180.203 107.682 180.581 107.843 181.097 107.972L182.392 108.29C183.172 108.48 183.754 108.77 184.136 109.16C184.519 109.546 184.71 110.044 184.71 110.654C184.71 111.154 184.566 111.601 184.278 111.995C183.994 112.389 183.597 112.7 183.085 112.927C182.574 113.154 181.979 113.268 181.301 113.268C180.411 113.268 179.674 113.075 179.091 112.688C178.508 112.302 178.138 111.737 177.983 110.995L179.256 110.677C179.377 111.146 179.606 111.499 179.943 111.734C180.284 111.968 180.729 112.086 181.278 112.086C181.903 112.086 182.4 111.953 182.767 111.688C183.138 111.419 183.324 111.097 183.324 110.722C183.324 110.419 183.218 110.165 183.006 109.961C182.794 109.753 182.468 109.597 182.028 109.495L180.574 109.154C179.775 108.965 179.188 108.671 178.813 108.273C178.441 107.872 178.256 107.37 178.256 106.768C178.256 106.275 178.394 105.84 178.67 105.461C178.951 105.082 179.331 104.785 179.813 104.569C180.297 104.353 180.847 104.245 181.46 104.245C182.324 104.245 183.002 104.434 183.494 104.813C183.991 105.192 184.343 105.692 184.551 106.313ZM191.229 113.086V104.359H192.57V113.086H191.229ZM191.911 102.904C191.649 102.904 191.424 102.815 191.234 102.637C191.049 102.459 190.956 102.245 190.956 101.995C190.956 101.745 191.049 101.531 191.234 101.353C191.424 101.175 191.649 101.086 191.911 101.086C192.172 101.086 192.395 101.175 192.581 101.353C192.77 101.531 192.865 101.745 192.865 101.995C192.865 102.245 192.77 102.459 192.581 102.637C192.395 102.815 192.172 102.904 191.911 102.904ZM201.207 106.313L200.003 106.654C199.927 106.453 199.815 106.258 199.668 106.069C199.524 105.876 199.327 105.717 199.077 105.592C198.827 105.467 198.507 105.404 198.117 105.404C197.582 105.404 197.137 105.527 196.781 105.773C196.429 106.016 196.253 106.325 196.253 106.7C196.253 107.033 196.374 107.296 196.617 107.489C196.859 107.682 197.238 107.843 197.753 107.972L199.048 108.29C199.829 108.48 200.41 108.77 200.793 109.16C201.175 109.546 201.367 110.044 201.367 110.654C201.367 111.154 201.223 111.601 200.935 111.995C200.651 112.389 200.253 112.7 199.742 112.927C199.23 113.154 198.635 113.268 197.957 113.268C197.067 113.268 196.331 113.075 195.747 112.688C195.164 112.302 194.795 111.737 194.639 110.995L195.912 110.677C196.033 111.146 196.262 111.499 196.599 111.734C196.94 111.968 197.385 112.086 197.935 112.086C198.56 112.086 199.056 111.953 199.423 111.688C199.795 111.419 199.98 111.097 199.98 110.722C199.98 110.419 199.874 110.165 199.662 109.961C199.45 109.753 199.124 109.597 198.685 109.495L197.23 109.154C196.431 108.965 195.844 108.671 195.469 108.273C195.098 107.872 194.912 107.37 194.912 106.768C194.912 106.275 195.05 105.84 195.327 105.461C195.607 105.082 195.988 104.785 196.469 104.569C196.954 104.353 197.503 104.245 198.117 104.245C198.98 104.245 199.658 104.434 200.151 104.813C200.647 105.192 200.999 105.692 201.207 106.313ZM211.68 104.359V105.495H207.158V104.359H211.68ZM208.476 102.268H209.817V110.586C209.817 110.965 209.872 111.249 209.982 111.438C210.095 111.624 210.239 111.749 210.413 111.813C210.591 111.874 210.779 111.904 210.976 111.904C211.124 111.904 211.245 111.896 211.34 111.881C211.434 111.862 211.51 111.847 211.567 111.836L211.84 113.04C211.749 113.075 211.622 113.109 211.459 113.143C211.296 113.181 211.09 113.2 210.84 113.2C210.461 113.2 210.09 113.118 209.726 112.955C209.366 112.792 209.067 112.544 208.828 112.211C208.593 111.878 208.476 111.457 208.476 110.95V102.268ZM217.149 113.268C216.361 113.268 215.67 113.08 215.075 112.705C214.484 112.33 214.022 111.806 213.689 111.131C213.359 110.457 213.195 109.669 213.195 108.768C213.195 107.859 213.359 107.065 213.689 106.387C214.022 105.709 214.484 105.182 215.075 104.807C215.67 104.432 216.361 104.245 217.149 104.245C217.937 104.245 218.626 104.432 219.217 104.807C219.812 105.182 220.274 105.709 220.604 106.387C220.937 107.065 221.104 107.859 221.104 108.768C221.104 109.669 220.937 110.457 220.604 111.131C220.274 111.806 219.812 112.33 219.217 112.705C218.626 113.08 217.937 113.268 217.149 113.268ZM217.149 112.063C217.748 112.063 218.24 111.91 218.626 111.603C219.013 111.296 219.299 110.893 219.484 110.393C219.67 109.893 219.763 109.351 219.763 108.768C219.763 108.184 219.67 107.641 219.484 107.137C219.299 106.633 219.013 106.226 218.626 105.915C218.24 105.605 217.748 105.45 217.149 105.45C216.551 105.45 216.058 105.605 215.672 105.915C215.286 106.226 215 106.633 214.814 107.137C214.628 107.641 214.536 108.184 214.536 108.768C214.536 109.351 214.628 109.893 214.814 110.393C215 110.893 215.286 111.296 215.672 111.603C216.058 111.91 216.551 112.063 217.149 112.063ZM231.196 113.268C230.408 113.268 229.717 113.08 229.122 112.705C228.531 112.33 228.069 111.806 227.736 111.131C227.406 110.457 227.242 109.669 227.242 108.768C227.242 107.859 227.406 107.065 227.736 106.387C228.069 105.709 228.531 105.182 229.122 104.807C229.717 104.432 230.408 104.245 231.196 104.245C231.984 104.245 232.673 104.432 233.264 104.807C233.859 105.182 234.321 105.709 234.651 106.387C234.984 107.065 235.151 107.859 235.151 108.768C235.151 109.669 234.984 110.457 234.651 111.131C234.321 111.806 233.859 112.33 233.264 112.705C232.673 113.08 231.984 113.268 231.196 113.268ZM231.196 112.063C231.795 112.063 232.287 111.91 232.673 111.603C233.06 111.296 233.346 110.893 233.531 110.393C233.717 109.893 233.81 109.351 233.81 108.768C233.81 108.184 233.717 107.641 233.531 107.137C233.346 106.633 233.06 106.226 232.673 105.915C232.287 105.605 231.795 105.45 231.196 105.45C230.598 105.45 230.105 105.605 229.719 105.915C229.332 106.226 229.046 106.633 228.861 107.137C228.675 107.641 228.582 108.184 228.582 108.768C228.582 109.351 228.675 109.893 228.861 110.393C229.046 110.893 229.332 111.296 229.719 111.603C230.105 111.91 230.598 112.063 231.196 112.063ZM237.197 116.359V104.359H238.493V105.745H238.652C238.751 105.593 238.887 105.4 239.061 105.165C239.239 104.927 239.493 104.715 239.822 104.529C240.156 104.34 240.607 104.245 241.175 104.245C241.91 104.245 242.557 104.429 243.118 104.796C243.679 105.164 244.116 105.684 244.43 106.359C244.745 107.033 244.902 107.828 244.902 108.745C244.902 109.669 244.745 110.47 244.43 111.148C244.116 111.823 243.68 112.345 243.124 112.717C242.567 113.084 241.925 113.268 241.197 113.268C240.637 113.268 240.188 113.175 239.851 112.989C239.514 112.8 239.254 112.586 239.072 112.347C238.891 112.105 238.751 111.904 238.652 111.745H238.538V116.359H237.197ZM238.516 108.722C238.516 109.381 238.612 109.963 238.805 110.467C238.999 110.967 239.281 111.359 239.652 111.643C240.023 111.923 240.478 112.063 241.016 112.063C241.576 112.063 242.044 111.915 242.419 111.62C242.798 111.321 243.082 110.919 243.271 110.415C243.465 109.908 243.561 109.343 243.561 108.722C243.561 108.109 243.466 107.556 243.277 107.063C243.091 106.567 242.809 106.175 242.43 105.887C242.055 105.595 241.584 105.45 241.016 105.45C240.47 105.45 240.012 105.588 239.641 105.864C239.269 106.137 238.989 106.52 238.8 107.012C238.61 107.501 238.516 108.071 238.516 108.722ZM250.607 113.268C249.766 113.268 249.04 113.082 248.43 112.711C247.824 112.336 247.357 111.813 247.027 111.143C246.701 110.468 246.538 109.684 246.538 108.79C246.538 107.896 246.701 107.109 247.027 106.427C247.357 105.741 247.815 105.207 248.402 104.825C248.993 104.438 249.682 104.245 250.47 104.245C250.925 104.245 251.374 104.321 251.817 104.472C252.26 104.624 252.663 104.87 253.027 105.211C253.391 105.548 253.68 105.995 253.896 106.552C254.112 107.109 254.22 107.794 254.22 108.609V109.177H247.493V108.018H252.857C252.857 107.525 252.758 107.086 252.561 106.7C252.368 106.313 252.091 106.008 251.732 105.785C251.376 105.561 250.955 105.45 250.47 105.45C249.936 105.45 249.474 105.582 249.084 105.847C248.697 106.109 248.4 106.45 248.192 106.87C247.983 107.29 247.879 107.741 247.879 108.222V108.995C247.879 109.654 247.993 110.213 248.22 110.671C248.451 111.126 248.771 111.472 249.18 111.711C249.59 111.946 250.065 112.063 250.607 112.063C250.959 112.063 251.277 112.014 251.561 111.915C251.849 111.813 252.097 111.662 252.305 111.461C252.514 111.256 252.675 111.003 252.788 110.7L254.084 111.063C253.947 111.503 253.718 111.889 253.396 112.222C253.074 112.552 252.677 112.809 252.203 112.995C251.73 113.177 251.197 113.268 250.607 113.268ZM257.601 107.836V113.086H256.26V104.359H257.555V105.722H257.669C257.874 105.279 258.184 104.923 258.601 104.654C259.018 104.381 259.555 104.245 260.215 104.245C260.805 104.245 261.322 104.366 261.766 104.609C262.209 104.847 262.554 105.211 262.8 105.7C263.046 106.184 263.169 106.798 263.169 107.54V113.086H261.828V107.631C261.828 106.946 261.65 106.412 261.294 106.029C260.938 105.643 260.449 105.45 259.828 105.45C259.4 105.45 259.018 105.542 258.68 105.728C258.347 105.914 258.084 106.184 257.891 106.54C257.697 106.896 257.601 107.328 257.601 107.836ZM271.46 107.836V113.086H270.119V104.359H271.415V105.722H271.528C271.733 105.279 272.044 104.923 272.46 104.654C272.877 104.381 273.415 104.245 274.074 104.245C274.665 104.245 275.182 104.366 275.625 104.609C276.068 104.847 276.413 105.211 276.659 105.7C276.905 106.184 277.028 106.798 277.028 107.54V113.086H275.688V107.631C275.688 106.946 275.51 106.412 275.153 106.029C274.797 105.643 274.309 105.45 273.688 105.45C273.26 105.45 272.877 105.542 272.54 105.728C272.206 105.914 271.943 106.184 271.75 106.54C271.557 106.896 271.46 107.328 271.46 107.836ZM283.138 113.268C282.297 113.268 281.572 113.082 280.962 112.711C280.356 112.336 279.888 111.813 279.558 111.143C279.233 110.468 279.07 109.684 279.07 108.79C279.07 107.896 279.233 107.109 279.558 106.427C279.888 105.741 280.346 105.207 280.933 104.825C281.524 104.438 282.214 104.245 283.001 104.245C283.456 104.245 283.905 104.321 284.348 104.472C284.791 104.624 285.195 104.87 285.558 105.211C285.922 105.548 286.212 105.995 286.428 106.552C286.644 107.109 286.751 107.794 286.751 108.609V109.177H280.024V108.018H285.388C285.388 107.525 285.289 107.086 285.092 106.7C284.899 106.313 284.623 106.008 284.263 105.785C283.907 105.561 283.486 105.45 283.001 105.45C282.467 105.45 282.005 105.582 281.615 105.847C281.229 106.109 280.931 106.45 280.723 106.87C280.515 107.29 280.411 107.741 280.411 108.222V108.995C280.411 109.654 280.524 110.213 280.751 110.671C280.983 111.126 281.303 111.472 281.712 111.711C282.121 111.946 282.596 112.063 283.138 112.063C283.49 112.063 283.808 112.014 284.092 111.915C284.38 111.813 284.628 111.662 284.837 111.461C285.045 111.256 285.206 111.003 285.32 110.7L286.615 111.063C286.479 111.503 286.25 111.889 285.928 112.222C285.606 112.552 285.208 112.809 284.734 112.995C284.261 113.177 283.729 113.268 283.138 113.268ZM290.769 113.086L288.109 104.359H289.519L291.405 111.04H291.496L293.359 104.359H294.791L296.632 111.018H296.723L298.609 104.359H300.019L297.359 113.086H296.041L294.132 106.381H293.996L292.087 113.086H290.769ZM309.587 113.268C308.859 113.268 308.217 113.084 307.661 112.717C307.104 112.345 306.668 111.823 306.354 111.148C306.039 110.47 305.882 109.669 305.882 108.745C305.882 107.828 306.039 107.033 306.354 106.359C306.668 105.684 307.106 105.164 307.666 104.796C308.227 104.429 308.875 104.245 309.609 104.245C310.178 104.245 310.626 104.34 310.956 104.529C311.289 104.715 311.543 104.927 311.717 105.165C311.895 105.4 312.034 105.593 312.132 105.745H312.246V101.45H313.587V113.086H312.291V111.745H312.132C312.034 111.904 311.894 112.105 311.712 112.347C311.53 112.586 311.27 112.8 310.933 112.989C310.596 113.175 310.147 113.268 309.587 113.268ZM309.769 112.063C310.306 112.063 310.761 111.923 311.132 111.643C311.503 111.359 311.786 110.967 311.979 110.467C312.172 109.963 312.269 109.381 312.269 108.722C312.269 108.071 312.174 107.501 311.984 107.012C311.795 106.52 311.515 106.137 311.144 105.864C310.772 105.588 310.314 105.45 309.769 105.45C309.2 105.45 308.727 105.595 308.348 105.887C307.973 106.175 307.691 106.567 307.501 107.063C307.316 107.556 307.223 108.109 307.223 108.722C307.223 109.343 307.318 109.908 307.507 110.415C307.7 110.919 307.984 111.321 308.359 111.62C308.738 111.915 309.208 112.063 309.769 112.063ZM319.774 113.268C318.986 113.268 318.295 113.08 317.7 112.705C317.109 112.33 316.647 111.806 316.314 111.131C315.984 110.457 315.82 109.669 315.82 108.768C315.82 107.859 315.984 107.065 316.314 106.387C316.647 105.709 317.109 105.182 317.7 104.807C318.295 104.432 318.986 104.245 319.774 104.245C320.562 104.245 321.251 104.432 321.842 104.807C322.437 105.182 322.899 105.709 323.229 106.387C323.562 107.065 323.729 107.859 323.729 108.768C323.729 109.669 323.562 110.457 323.229 111.131C322.899 111.806 322.437 112.33 321.842 112.705C321.251 113.08 320.562 113.268 319.774 113.268ZM319.774 112.063C320.373 112.063 320.865 111.91 321.251 111.603C321.638 111.296 321.924 110.893 322.109 110.393C322.295 109.893 322.388 109.351 322.388 108.768C322.388 108.184 322.295 107.641 322.109 107.137C321.924 106.633 321.638 106.226 321.251 105.915C320.865 105.605 320.373 105.45 319.774 105.45C319.176 105.45 318.683 105.605 318.297 105.915C317.911 106.226 317.625 106.633 317.439 107.137C317.253 107.641 317.161 108.184 317.161 108.768C317.161 109.351 317.253 109.893 317.439 110.393C317.625 110.893 317.911 111.296 318.297 111.603C318.683 111.91 319.176 112.063 319.774 112.063ZM329.321 113.268C328.533 113.268 327.842 113.08 327.247 112.705C326.656 112.33 326.194 111.806 325.861 111.131C325.531 110.457 325.367 109.669 325.367 108.768C325.367 107.859 325.531 107.065 325.861 106.387C326.194 105.709 326.656 105.182 327.247 104.807C327.842 104.432 328.533 104.245 329.321 104.245C330.109 104.245 330.798 104.432 331.389 104.807C331.984 105.182 332.446 105.709 332.776 106.387C333.109 107.065 333.276 107.859 333.276 108.768C333.276 109.669 333.109 110.457 332.776 111.131C332.446 111.806 331.984 112.33 331.389 112.705C330.798 113.08 330.109 113.268 329.321 113.268ZM329.321 112.063C329.92 112.063 330.412 111.91 330.798 111.603C331.185 111.296 331.471 110.893 331.656 110.393C331.842 109.893 331.935 109.351 331.935 108.768C331.935 108.184 331.842 107.641 331.656 107.137C331.471 106.633 331.185 106.226 330.798 105.915C330.412 105.605 329.92 105.45 329.321 105.45C328.723 105.45 328.23 105.605 327.844 105.915C327.457 106.226 327.171 106.633 326.986 107.137C326.8 107.641 326.707 108.184 326.707 108.768C326.707 109.351 326.8 109.893 326.986 110.393C327.171 110.893 327.457 111.296 327.844 111.603C328.23 111.91 328.723 112.063 329.321 112.063ZM335.322 113.086V104.359H336.618V105.677H336.709C336.868 105.245 337.156 104.895 337.572 104.626C337.989 104.357 338.459 104.222 338.982 104.222C339.08 104.222 339.203 104.224 339.351 104.228C339.499 104.232 339.61 104.237 339.686 104.245V105.609C339.641 105.597 339.537 105.58 339.374 105.557C339.215 105.531 339.046 105.518 338.868 105.518C338.444 105.518 338.065 105.607 337.732 105.785C337.402 105.959 337.141 106.201 336.947 106.512C336.758 106.819 336.663 107.169 336.663 107.563V113.086H335.322ZM347.457 106.313L346.253 106.654C346.177 106.453 346.065 106.258 345.918 106.069C345.774 105.876 345.577 105.717 345.327 105.592C345.077 105.467 344.757 105.404 344.367 105.404C343.832 105.404 343.387 105.527 343.031 105.773C342.679 106.016 342.503 106.325 342.503 106.7C342.503 107.033 342.624 107.296 342.867 107.489C343.109 107.682 343.488 107.843 344.003 107.972L345.298 108.29C346.079 108.48 346.66 108.77 347.043 109.16C347.425 109.546 347.617 110.044 347.617 110.654C347.617 111.154 347.473 111.601 347.185 111.995C346.901 112.389 346.503 112.7 345.992 112.927C345.48 113.154 344.885 113.268 344.207 113.268C343.317 113.268 342.581 113.075 341.997 112.688C341.414 112.302 341.045 111.737 340.889 110.995L342.162 110.677C342.283 111.146 342.512 111.499 342.849 111.734C343.19 111.968 343.635 112.086 344.185 112.086C344.81 112.086 345.306 111.953 345.673 111.688C346.045 111.419 346.23 111.097 346.23 110.722C346.23 110.419 346.124 110.165 345.912 109.961C345.7 109.753 345.374 109.597 344.935 109.495L343.48 109.154C342.681 108.965 342.094 108.671 341.719 108.273C341.348 107.872 341.162 107.37 341.162 106.768C341.162 106.275 341.3 105.84 341.577 105.461C341.857 105.082 342.238 104.785 342.719 104.569C343.204 104.353 343.753 104.245 344.367 104.245C345.23 104.245 345.908 104.434 346.401 104.813C346.897 105.192 347.249 105.692 347.457 106.313ZM350.612 113.177C350.332 113.177 350.091 113.076 349.891 112.876C349.69 112.675 349.59 112.434 349.59 112.154C349.59 111.874 349.69 111.633 349.891 111.432C350.091 111.232 350.332 111.131 350.612 111.131C350.893 111.131 351.133 111.232 351.334 111.432C351.535 111.633 351.635 111.874 351.635 112.154C351.635 112.34 351.588 112.51 351.493 112.665C351.402 112.821 351.279 112.946 351.124 113.04C350.972 113.131 350.802 113.177 350.612 113.177Z" fill="#303030"/>
<mask id="mask0_1214_195" style="mask-type:alpha" maskUnits="userSpaceOnUse" x="24" y="33" width="84" height="84">
<path d="M65.9858 103.086L93.9858 75.0856L105.986 87.0857L77.9858 115.086L65.9858 103.086Z" fill="white" stroke="black" stroke-width="2.96488" stroke-linecap="round" stroke-linejoin="round"/>
<path d="M89.9858 79.0862L83.9858 49.086L25.9858 35.0859L39.9858 93.0863L69.9858 99.0864L89.9858 79.0862Z" fill="white" stroke="black" stroke-width="2.96488" stroke-linecap="round" stroke-linejoin="round"/>
</mask>
<g mask="url(#mask0_1214_195)">
<path d="M-13.2578 2.93009C-13.2578 -3.11762 -8.35518 -8.02026 -2.30747 -8.02026H134.279C140.327 -8.02026 145.229 -3.11763 145.229 2.93008V139.518C145.229 145.566 140.327 150.468 134.279 150.468H-2.30747C-8.35518 150.468 -13.2578 145.566 -13.2578 139.518V2.93009Z" fill="url(#paint0_linear_1214_195)"/>
</g>
<path d="M25.9858 35.0859L56.3298 65.4301" stroke="white" stroke-width="2.96488" stroke-linecap="round" stroke-linejoin="round"/>
<path d="M61.9853 79.0861C66.4036 79.0861 69.9853 75.5044 69.9853 71.0861C69.9853 66.6677 66.4036 63.086 61.9853 63.086C57.5671 63.086 53.9854 66.6677 53.9854 71.0861C53.9854 75.5044 57.5671 79.0861 61.9853 79.0861Z" stroke="white" stroke-width="2.96488" stroke-linecap="round" stroke-linejoin="round"/>
<defs>
<linearGradient id="paint0_linear_1214_195" x1="-13.2578" y1="-8.02026" x2="145.231" y2="150.467" gradientUnits="userSpaceOnUse">
<stop stop-color="#00D1FF"/>
<stop offset="1" stop-color="#3300FF"/>
</linearGradient>
</defs>
</svg>
