<svg width="451" height="151" viewBox="0 0 451 151" fill="none" xmlns="http://www.w3.org/2000/svg">
<mask id="mask0_1214_196" style="mask-type:alpha" maskUnits="userSpaceOnUse" x="22" y="32" width="86" height="87">
<path d="M25.1416 115.934L52.5146 66.0009L70.7046 98.5736C70.7046 98.5736 91.6931 60.3961 105.142 35.9338M105.142 35.9338C105.142 44.5306 105.142 57.9472 105.142 57.9472M105.142 35.9338C98.107 38.7295 87.1284 43.0926 87.1284 43.0926" stroke="black" stroke-width="5" stroke-linecap="round"/>
</mask>
<g mask="url(#mask0_1214_196)">
<path d="M17.8804 -46.4209H171.167V234.993H17.8804V-46.4209Z" fill="url(#paint0_linear_1214_196)"/>
</g>
<path d="M139.187 44.9338C139 44.3599 138.752 43.8457 138.446 43.3912C138.144 42.9309 137.784 42.5389 137.363 42.215C136.948 41.8912 136.477 41.644 135.948 41.4735C135.42 41.3031 134.84 41.2179 134.21 41.2179C133.176 41.2179 132.235 41.4849 131.389 42.019C130.542 42.5531 129.869 43.34 129.369 44.3798C128.869 45.4196 128.619 46.6951 128.619 48.2065C128.619 49.7179 128.872 50.9934 129.377 52.0332C129.883 53.073 130.568 53.8599 131.431 54.394C132.295 54.9281 133.267 55.1951 134.346 55.1951C135.346 55.1951 136.227 54.9821 136.988 54.5559C137.755 54.1241 138.352 53.5162 138.778 52.7321C139.21 51.9423 139.426 51.0133 139.426 49.9451L140.073 50.0815H134.823V48.2065H141.471V50.0815C141.471 51.519 141.164 52.769 140.551 53.8315C139.943 54.894 139.102 55.7179 138.028 56.3031C136.96 56.8826 135.733 57.1724 134.346 57.1724C132.801 57.1724 131.443 56.8088 130.272 56.0815C129.108 55.3542 128.198 54.3201 127.545 52.9792C126.897 51.6383 126.573 50.0474 126.573 48.2065C126.573 46.8258 126.758 45.5843 127.127 44.4821C127.502 43.3741 128.031 42.4309 128.713 41.6525C129.394 40.8741 130.201 40.2775 131.133 39.8628C132.065 39.448 133.09 39.2406 134.21 39.2406C135.13 39.2406 135.988 39.3798 136.784 39.6582C137.585 39.9309 138.298 40.3201 138.923 40.8258C139.554 41.3258 140.079 41.9253 140.5 42.6241C140.92 43.3173 141.21 44.0872 141.369 44.9338H139.187ZM144.818 56.9338V43.8429H146.762V45.8201H146.898C147.137 45.1724 147.568 44.6468 148.193 44.2434C148.818 43.84 149.523 43.6383 150.307 43.6383C150.455 43.6383 150.639 43.6412 150.861 43.6468C151.083 43.6525 151.25 43.661 151.364 43.6724V45.7179C151.296 45.7008 151.139 45.6753 150.895 45.6412C150.657 45.6014 150.404 45.5815 150.137 45.5815C149.5 45.5815 148.932 45.715 148.432 45.9821C147.938 46.2434 147.546 46.6071 147.256 47.073C146.972 47.5332 146.83 48.0588 146.83 48.6497V56.9338H144.818ZM158.668 57.2065C157.486 57.2065 156.449 56.9253 155.557 56.3628C154.671 55.8003 153.978 55.0133 153.478 54.002C152.983 52.9906 152.736 51.8088 152.736 50.4565C152.736 49.0929 152.983 47.9025 153.478 46.8855C153.978 45.8684 154.671 45.0787 155.557 44.5162C156.449 43.9537 157.486 43.6724 158.668 43.6724C159.85 43.6724 160.884 43.9537 161.77 44.5162C162.662 45.0787 163.355 45.8684 163.85 46.8855C164.35 47.9025 164.6 49.0929 164.6 50.4565C164.6 51.8088 164.35 52.9906 163.85 54.002C163.355 55.0133 162.662 55.8003 161.77 56.3628C160.884 56.9253 159.85 57.2065 158.668 57.2065ZM158.668 55.3997C159.566 55.3997 160.304 55.1696 160.884 54.7093C161.463 54.2491 161.892 53.644 162.171 52.894C162.449 52.144 162.588 51.3315 162.588 50.4565C162.588 49.5815 162.449 48.7662 162.171 48.0105C161.892 47.2548 161.463 46.644 160.884 46.1781C160.304 45.7122 159.566 45.4792 158.668 45.4792C157.77 45.4792 157.032 45.7122 156.452 46.1781C155.872 46.644 155.443 47.2548 155.165 48.0105C154.887 48.7662 154.747 49.5815 154.747 50.4565C154.747 51.3315 154.887 52.144 155.165 52.894C155.443 53.644 155.872 54.2491 156.452 54.7093C157.032 55.1696 157.77 55.3997 158.668 55.3997ZM170.191 56.9338L166.202 43.8429H168.316L171.145 53.8656H171.282L174.077 43.8429H176.225L178.986 53.8315H179.122L181.952 43.8429H184.066L180.077 56.9338H178.1L175.236 46.877H175.032L172.168 56.9338H170.191ZM192.418 43.8429V45.5474H185.634V43.8429H192.418ZM187.611 40.7065H189.622V53.1838C189.622 53.752 189.705 54.1781 189.87 54.4622C190.04 54.7406 190.256 54.9281 190.517 55.0247C190.784 55.1156 191.066 55.161 191.361 55.161C191.583 55.161 191.764 55.1497 191.907 55.127C192.049 55.0985 192.162 55.0758 192.247 55.0588L192.657 56.8656C192.52 56.9167 192.33 56.9679 192.085 57.019C191.841 57.0758 191.532 57.1042 191.157 57.1042C190.588 57.1042 190.032 56.9821 189.486 56.7378C188.946 56.4934 188.497 56.1213 188.139 55.6213C187.787 55.1213 187.611 54.4906 187.611 53.7292V40.7065ZM197.736 49.0588V56.9338H195.725V39.4792H197.736V45.8883H197.907C198.213 45.2122 198.674 44.6753 199.287 44.2775C199.907 43.8741 200.73 43.6724 201.759 43.6724C202.651 43.6724 203.432 43.8514 204.103 44.2093C204.773 44.5616 205.293 45.1042 205.662 45.8372C206.037 46.5645 206.225 47.4906 206.225 48.6156V56.9338H204.213V48.752C204.213 47.7122 203.943 46.9082 203.404 46.34C202.87 45.7662 202.128 45.4792 201.179 45.4792C200.52 45.4792 199.929 45.6184 199.407 45.8968C198.889 46.1753 198.48 46.5815 198.179 47.1156C197.884 47.6497 197.736 48.2974 197.736 49.0588ZM216.927 39.4792H219.45L225.382 53.9679H225.586L231.518 39.4792H234.041V56.9338H232.063V43.6724H231.893L226.438 56.9338H224.529L219.075 43.6724H218.904V56.9338H216.927V39.4792ZM238.006 56.9338V43.8429H240.017V56.9338H238.006ZM239.029 41.661C238.637 41.661 238.299 41.5275 238.014 41.2605C237.736 40.9934 237.597 40.6724 237.597 40.2974C237.597 39.9224 237.736 39.6014 238.014 39.3343C238.299 39.0673 238.637 38.9338 239.029 38.9338C239.421 38.9338 239.756 39.0673 240.034 39.3343C240.318 39.6014 240.46 39.9224 240.46 40.2974C240.46 40.6724 240.318 40.9934 240.034 41.2605C239.756 41.5275 239.421 41.661 239.029 41.661ZM245.713 49.0588V56.9338H243.701V43.8429H245.644V45.8883H245.815C246.122 45.2235 246.588 44.6895 247.213 44.286C247.838 43.877 248.644 43.6724 249.633 43.6724C250.519 43.6724 251.295 43.8542 251.96 44.2179C252.625 44.5758 253.142 45.1213 253.511 45.8542C253.88 46.5815 254.065 47.502 254.065 48.6156V56.9338H252.054V48.752C252.054 47.7235 251.786 46.9224 251.252 46.3485C250.718 45.769 249.985 45.4792 249.054 45.4792C248.411 45.4792 247.838 45.6184 247.332 45.8968C246.832 46.1753 246.437 46.5815 246.147 47.1156C245.858 47.6497 245.713 48.2974 245.713 49.0588ZM262.684 57.2065C261.593 57.2065 260.63 56.9309 259.794 56.3798C258.959 55.823 258.306 55.0389 257.834 54.0275C257.362 53.0105 257.127 51.8088 257.127 50.4224C257.127 49.0474 257.362 47.8542 257.834 46.8429C258.306 45.8315 258.962 45.0503 259.803 44.4991C260.644 43.948 261.615 43.6724 262.718 43.6724C263.57 43.6724 264.243 43.8145 264.737 44.0985C265.237 44.377 265.618 44.6951 265.88 45.0531C266.147 45.4054 266.354 45.6951 266.502 45.9224H266.672V39.4792H268.684V56.9338H266.74V54.9224H266.502C266.354 55.161 266.144 55.4622 265.871 55.8258C265.598 56.1838 265.209 56.5048 264.703 56.7889C264.198 57.0673 263.524 57.2065 262.684 57.2065ZM262.956 55.3997C263.763 55.3997 264.445 55.1895 265.002 54.769C265.559 54.3429 265.982 53.7548 266.272 53.0048C266.561 52.2491 266.706 51.377 266.706 50.3883C266.706 49.411 266.564 48.5559 266.28 47.823C265.996 47.0843 265.576 46.5105 265.019 46.1014C264.462 45.6866 263.774 45.4792 262.956 45.4792C262.104 45.4792 261.394 45.698 260.826 46.1355C260.263 46.5673 259.84 47.1554 259.556 47.8997C259.277 48.6383 259.138 49.4679 259.138 50.3883C259.138 51.3201 259.28 52.1667 259.564 52.9281C259.854 53.6838 260.28 54.286 260.843 54.7349C261.411 55.1781 262.115 55.3997 262.956 55.3997ZM281.919 46.7747L280.112 47.286C279.999 46.9849 279.831 46.6923 279.61 46.4082C279.394 46.1184 279.098 45.8798 278.723 45.6923C278.348 45.5048 277.868 45.411 277.283 45.411C276.482 45.411 275.814 45.5957 275.28 45.965C274.752 46.3287 274.487 46.7917 274.487 47.3542C274.487 47.8542 274.669 48.2491 275.033 48.5389C275.397 48.8287 275.965 49.0701 276.737 49.2633L278.681 49.7406C279.851 50.0247 280.723 50.4593 281.297 51.0446C281.871 51.6241 282.158 52.3713 282.158 53.286C282.158 54.036 281.942 54.7065 281.51 55.2974C281.084 55.8883 280.487 56.3542 279.72 56.6951C278.953 57.036 278.061 57.2065 277.044 57.2065C275.709 57.2065 274.604 56.9167 273.729 56.3372C272.854 55.7576 272.3 54.911 272.067 53.7974L273.976 53.3201C274.158 54.0247 274.502 54.5531 275.007 54.9054C275.519 55.2576 276.186 55.4338 277.01 55.4338C277.948 55.4338 278.692 55.2349 279.243 54.8372C279.8 54.4338 280.078 53.9508 280.078 53.3883C280.078 52.9338 279.919 52.5531 279.601 52.2463C279.283 51.9338 278.794 51.7008 278.135 51.5474L275.953 51.036C274.755 50.752 273.874 50.3116 273.311 49.715C272.755 49.1128 272.476 48.3599 272.476 47.4565C272.476 46.7179 272.684 46.0645 273.098 45.4963C273.519 44.9281 274.09 44.4821 274.811 44.1582C275.539 43.8343 276.362 43.6724 277.283 43.6724C278.578 43.6724 279.595 43.9565 280.334 44.5247C281.078 45.0929 281.607 45.8429 281.919 46.7747ZM290.674 57.2065C289.413 57.2065 288.325 56.9281 287.41 56.3713C286.501 55.8088 285.799 55.0247 285.305 54.019C284.816 53.0076 284.572 51.8315 284.572 50.4906C284.572 49.1497 284.816 47.9679 285.305 46.9451C285.799 45.9167 286.487 45.1156 287.367 44.5417C288.254 43.9622 289.288 43.6724 290.47 43.6724C291.152 43.6724 291.825 43.786 292.49 44.0133C293.154 44.2406 293.759 44.6099 294.305 45.1213C294.85 45.627 295.285 46.2974 295.609 47.1326C295.933 47.9679 296.095 48.9963 296.095 50.2179V51.0701H286.004V49.3315H294.049C294.049 48.5929 293.902 47.9338 293.606 47.3542C293.316 46.7747 292.902 46.3173 292.362 45.9821C291.828 45.6468 291.197 45.4792 290.47 45.4792C289.669 45.4792 288.975 45.6781 288.39 46.0758C287.811 46.4679 287.365 46.9792 287.052 47.6099C286.74 48.2406 286.583 48.9167 286.583 49.6383V50.7974C286.583 51.786 286.754 52.6241 287.095 53.3116C287.441 53.9934 287.921 54.5133 288.535 54.8713C289.149 55.2235 289.862 55.3997 290.674 55.3997C291.203 55.3997 291.68 55.3258 292.106 55.1781C292.538 55.0247 292.91 54.7974 293.223 54.4963C293.535 54.1895 293.777 53.8088 293.947 53.3542L295.89 53.8997C295.686 54.5588 295.342 55.1383 294.859 55.6383C294.376 56.1326 293.779 56.519 293.069 56.7974C292.359 57.0701 291.561 57.2065 290.674 57.2065ZM304.848 43.8429V45.5474H298.063V43.8429H304.848ZM300.041 40.7065H302.052V53.1838C302.052 53.752 302.134 54.1781 302.299 54.4622C302.47 54.7406 302.686 54.9281 302.947 55.0247C303.214 55.1156 303.495 55.161 303.791 55.161C304.012 55.161 304.194 55.1497 304.336 55.127C304.478 55.0985 304.592 55.0758 304.677 55.0588L305.086 56.8656C304.95 56.9167 304.759 56.9679 304.515 57.019C304.271 57.0758 303.961 57.1042 303.586 57.1042C303.018 57.1042 302.461 56.9821 301.916 56.7378C301.376 56.4934 300.927 56.1213 300.569 55.6213C300.217 55.1213 300.041 54.4906 300.041 53.7292V40.7065ZM127.028 94.9338H125.551L129.823 83.2974H131.278L135.551 94.9338H134.073L130.596 85.1383H130.505L127.028 94.9338ZM127.573 90.3883H133.528V91.6383H127.573V90.3883ZM138.522 83.2974V94.9338H137.181V83.2974H138.522ZM142.956 94.9338L140.296 86.2065H141.706L143.592 92.8883H143.683L145.546 86.2065H146.978L148.819 92.8656H148.91L150.796 86.2065H152.206L149.546 94.9338H148.228L146.319 88.2292H146.183L144.274 94.9338H142.956ZM156.546 95.1383C155.993 95.1383 155.492 95.0342 155.041 94.8258C154.59 94.6137 154.232 94.3088 153.967 93.911C153.702 93.5095 153.569 93.0247 153.569 92.4565C153.569 91.9565 153.668 91.5512 153.865 91.2406C154.062 90.9262 154.325 90.68 154.654 90.502C154.984 90.3239 155.348 90.1914 155.745 90.1042C156.147 90.0133 156.55 89.9414 156.956 89.8883C157.486 89.8201 157.916 89.769 158.245 89.7349C158.579 89.697 158.821 89.6345 158.973 89.5474C159.128 89.4603 159.206 89.3088 159.206 89.0929V89.0474C159.206 88.4868 159.052 88.0512 158.745 87.7406C158.442 87.43 157.982 87.2747 157.365 87.2747C156.724 87.2747 156.223 87.4148 155.859 87.6951C155.495 87.9754 155.24 88.2747 155.092 88.5929L153.819 88.1383C154.046 87.608 154.349 87.1951 154.728 86.8997C155.111 86.6004 155.527 86.3921 155.978 86.2747C156.433 86.1535 156.88 86.0929 157.319 86.0929C157.599 86.0929 157.921 86.127 158.285 86.1951C158.652 86.2595 159.007 86.394 159.348 86.5985C159.692 86.8031 159.978 87.1118 160.206 87.5247C160.433 87.9376 160.546 88.4906 160.546 89.1838V94.9338H159.206V93.752H159.137C159.046 93.9414 158.895 94.144 158.683 94.3599C158.471 94.5758 158.188 94.7595 157.836 94.911C157.484 95.0626 157.054 95.1383 156.546 95.1383ZM156.751 93.9338C157.281 93.9338 157.728 93.8296 158.092 93.6213C158.459 93.4129 158.736 93.144 158.921 92.8145C159.111 92.4849 159.206 92.1383 159.206 91.7747V90.5474C159.149 90.6156 159.024 90.6781 158.831 90.7349C158.641 90.7879 158.421 90.8353 158.171 90.877C157.925 90.9148 157.685 90.9489 157.45 90.9792C157.219 91.0057 157.031 91.0285 156.887 91.0474C156.539 91.0929 156.213 91.1667 155.91 91.269C155.611 91.3675 155.368 91.5171 155.183 91.7179C155.001 91.9148 154.91 92.1838 154.91 92.5247C154.91 92.9906 155.082 93.3429 155.427 93.5815C155.776 93.8164 156.217 93.9338 156.751 93.9338ZM163.545 98.2065C163.318 98.2065 163.115 98.1876 162.937 98.1497C162.759 98.1156 162.636 98.0815 162.568 98.0474L162.909 96.8656C163.234 96.9489 163.522 96.9792 163.772 96.9565C164.022 96.9338 164.244 96.822 164.437 96.6213C164.634 96.4243 164.814 96.1042 164.977 95.661L165.227 94.9792L162 86.2065H163.454L165.863 93.161H165.954L168.363 86.2065H169.818L166.113 96.2065C165.947 96.6573 165.74 97.0304 165.494 97.3258C165.248 97.6251 164.962 97.8467 164.636 97.9906C164.314 98.1345 163.95 98.2065 163.545 98.2065ZM177.769 88.161L176.565 88.502C176.489 88.3012 176.377 88.1061 176.23 87.9167C176.086 87.7235 175.889 87.5645 175.639 87.4395C175.389 87.3145 175.069 87.252 174.679 87.252C174.144 87.252 173.699 87.3751 173.343 87.6213C172.991 87.8637 172.815 88.1724 172.815 88.5474C172.815 88.8807 172.936 89.144 173.179 89.3372C173.421 89.5304 173.8 89.6914 174.315 89.8201L175.61 90.1383C176.391 90.3277 176.972 90.6175 177.355 91.0076C177.737 91.394 177.929 91.8921 177.929 92.502C177.929 93.002 177.785 93.4489 177.497 93.8429C177.213 94.2368 176.815 94.5474 176.304 94.7747C175.792 95.002 175.197 95.1156 174.519 95.1156C173.629 95.1156 172.893 94.9224 172.309 94.536C171.726 94.1497 171.357 93.5853 171.201 92.8429L172.474 92.5247C172.595 92.9944 172.824 93.3467 173.161 93.5815C173.502 93.8164 173.947 93.9338 174.497 93.9338C175.122 93.9338 175.618 93.8012 175.985 93.536C176.357 93.2671 176.542 92.9451 176.542 92.5701C176.542 92.2671 176.436 92.0133 176.224 91.8088C176.012 91.6004 175.686 91.4451 175.247 91.3429L173.792 91.002C172.993 90.8126 172.406 90.519 172.031 90.1213C171.66 89.7198 171.474 89.2179 171.474 88.6156C171.474 88.1232 171.612 87.6876 171.889 87.3088C172.169 86.93 172.55 86.6326 173.031 86.4167C173.516 86.2008 174.065 86.0929 174.679 86.0929C175.542 86.0929 176.22 86.2823 176.713 86.661C177.209 87.0398 177.561 87.5398 177.769 88.161ZM187.015 95.1383C186.462 95.1383 185.96 95.0342 185.509 94.8258C185.059 94.6137 184.701 94.3088 184.436 93.911C184.17 93.5095 184.038 93.0247 184.038 92.4565C184.038 91.9565 184.136 91.5512 184.333 91.2406C184.53 90.9262 184.794 90.68 185.123 90.502C185.453 90.3239 185.816 90.1914 186.214 90.1042C186.616 90.0133 187.019 89.9414 187.424 89.8883C187.955 89.8201 188.384 89.769 188.714 89.7349C189.047 89.697 189.29 89.6345 189.441 89.5474C189.597 89.4603 189.674 89.3088 189.674 89.0929V89.0474C189.674 88.4868 189.521 88.0512 189.214 87.7406C188.911 87.43 188.451 87.2747 187.833 87.2747C187.193 87.2747 186.691 87.4148 186.328 87.6951C185.964 87.9754 185.708 88.2747 185.561 88.5929L184.288 88.1383C184.515 87.608 184.818 87.1951 185.197 86.8997C185.58 86.6004 185.996 86.3921 186.447 86.2747C186.902 86.1535 187.349 86.0929 187.788 86.0929C188.068 86.0929 188.39 86.127 188.754 86.1951C189.121 86.2595 189.475 86.394 189.816 86.5985C190.161 86.8031 190.447 87.1118 190.674 87.5247C190.902 87.9376 191.015 88.4906 191.015 89.1838V94.9338H189.674V93.752H189.606C189.515 93.9414 189.364 94.144 189.152 94.3599C188.939 94.5758 188.657 94.7595 188.305 94.911C187.953 95.0626 187.523 95.1383 187.015 95.1383ZM187.22 93.9338C187.75 93.9338 188.197 93.8296 188.561 93.6213C188.928 93.4129 189.205 93.144 189.39 92.8145C189.58 92.4849 189.674 92.1383 189.674 91.7747V90.5474C189.617 90.6156 189.492 90.6781 189.299 90.7349C189.11 90.7879 188.89 90.8353 188.64 90.877C188.394 90.9148 188.153 90.9489 187.919 90.9792C187.688 91.0057 187.5 91.0285 187.356 91.0474C187.008 91.0929 186.682 91.1667 186.379 91.269C186.08 91.3675 185.837 91.5171 185.652 91.7179C185.47 91.9148 185.379 92.1838 185.379 92.5247C185.379 92.9906 185.551 93.3429 185.896 93.5815C186.244 93.8164 186.686 93.9338 187.22 93.9338ZM204.144 88.161L202.94 88.502C202.864 88.3012 202.752 88.1061 202.605 87.9167C202.461 87.7235 202.264 87.5645 202.014 87.4395C201.764 87.3145 201.444 87.252 201.054 87.252C200.519 87.252 200.074 87.3751 199.718 87.6213C199.366 87.8637 199.19 88.1724 199.19 88.5474C199.19 88.8807 199.311 89.144 199.554 89.3372C199.796 89.5304 200.175 89.6914 200.69 89.8201L201.985 90.1383C202.766 90.3277 203.347 90.6175 203.73 91.0076C204.112 91.394 204.304 91.8921 204.304 92.502C204.304 93.002 204.16 93.4489 203.872 93.8429C203.588 94.2368 203.19 94.5474 202.679 94.7747C202.167 95.002 201.572 95.1156 200.894 95.1156C200.004 95.1156 199.268 94.9224 198.684 94.536C198.101 94.1497 197.732 93.5853 197.576 92.8429L198.849 92.5247C198.97 92.9944 199.199 93.3467 199.536 93.5815C199.877 93.8164 200.322 93.9338 200.872 93.9338C201.497 93.9338 201.993 93.8012 202.36 93.536C202.732 93.2671 202.917 92.9451 202.917 92.5701C202.917 92.2671 202.811 92.0133 202.599 91.8088C202.387 91.6004 202.061 91.4451 201.622 91.3429L200.167 91.002C199.368 90.8126 198.781 90.519 198.406 90.1213C198.035 89.7198 197.849 89.2179 197.849 88.6156C197.849 88.1232 197.987 87.6876 198.264 87.3088C198.544 86.93 198.925 86.6326 199.406 86.4167C199.891 86.2008 200.44 86.0929 201.054 86.0929C201.917 86.0929 202.595 86.2823 203.088 86.661C203.584 87.0398 203.936 87.5398 204.144 88.161ZM210.117 86.2065V87.3429H205.595V86.2065H210.117ZM206.913 84.1156H208.254V92.4338C208.254 92.8126 208.309 93.0967 208.419 93.286C208.532 93.4717 208.676 93.5967 208.85 93.661C209.028 93.7217 209.216 93.752 209.413 93.752C209.561 93.752 209.682 93.7444 209.777 93.7292C209.871 93.7103 209.947 93.6951 210.004 93.6838L210.277 94.8883C210.186 94.9224 210.059 94.9565 209.896 94.9906C209.733 95.0285 209.527 95.0474 209.277 95.0474C208.898 95.0474 208.527 94.966 208.163 94.8031C207.803 94.6402 207.504 94.3921 207.265 94.0588C207.03 93.7254 206.913 93.305 206.913 92.7974V84.1156ZM217.634 91.3656V86.2065H218.975V94.9338H217.634V93.4565H217.544C217.339 93.8997 217.021 94.2766 216.589 94.5872C216.157 94.894 215.612 95.0474 214.953 95.0474C214.407 95.0474 213.922 94.9281 213.498 94.6895C213.074 94.447 212.741 94.0834 212.498 93.5985C212.256 93.1099 212.134 92.4944 212.134 91.752V86.2065H213.475V91.661C213.475 92.2974 213.653 92.805 214.009 93.1838C214.369 93.5626 214.828 93.752 215.384 93.752C215.718 93.752 216.057 93.6667 216.402 93.4963C216.75 93.3258 217.042 93.0645 217.277 92.7122C217.515 92.3599 217.634 91.911 217.634 91.3656ZM224.727 95.1156C224 95.1156 223.358 94.9319 222.801 94.5645C222.244 94.1932 221.808 93.6705 221.494 92.9963C221.179 92.3182 221.022 91.5171 221.022 90.5929C221.022 89.6762 221.179 88.8807 221.494 88.2065C221.808 87.5323 222.246 87.0114 222.806 86.644C223.367 86.2766 224.015 86.0929 224.75 86.0929C225.318 86.0929 225.767 86.1876 226.096 86.377C226.429 86.5626 226.683 86.7747 226.858 87.0133C227.036 87.2482 227.174 87.4414 227.272 87.5929H227.386V83.2974H228.727V94.9338H227.431V93.5929H227.272C227.174 93.752 227.034 93.9527 226.852 94.1951C226.67 94.4338 226.411 94.6478 226.073 94.8372C225.736 95.0228 225.287 95.1156 224.727 95.1156ZM224.909 93.911C225.447 93.911 225.901 93.7709 226.272 93.4906C226.643 93.2065 226.926 92.8145 227.119 92.3145C227.312 91.8107 227.409 91.2292 227.409 90.5701C227.409 89.9186 227.314 89.3485 227.125 88.8599C226.935 88.3675 226.655 87.9849 226.284 87.7122C225.912 87.4357 225.454 87.2974 224.909 87.2974C224.34 87.2974 223.867 87.4432 223.488 87.7349C223.113 88.0228 222.831 88.4148 222.642 88.911C222.456 89.4035 222.363 89.9565 222.363 90.5701C222.363 91.1914 222.458 91.7557 222.647 92.2633C222.84 92.7671 223.125 93.1686 223.5 93.4679C223.878 93.7633 224.348 93.911 224.909 93.911ZM235.028 95.1156C234.187 95.1156 233.462 94.93 232.852 94.5588C232.246 94.1838 231.778 93.661 231.448 92.9906C231.123 92.3164 230.96 91.5323 230.96 90.6383C230.96 89.7444 231.123 88.9565 231.448 88.2747C231.778 87.5891 232.236 87.055 232.823 86.6724C233.414 86.286 234.104 86.0929 234.892 86.0929C235.346 86.0929 235.795 86.1686 236.238 86.3201C236.681 86.4717 237.085 86.7179 237.448 87.0588C237.812 87.3959 238.102 87.8429 238.318 88.3997C238.534 88.9565 238.642 89.6421 238.642 90.4565V91.0247H231.914V89.8656H237.278C237.278 89.3732 237.179 88.9338 236.983 88.5474C236.789 88.161 236.513 87.8561 236.153 87.6326C235.797 87.4092 235.376 87.2974 234.892 87.2974C234.358 87.2974 233.895 87.43 233.505 87.6951C233.119 87.9565 232.822 88.2974 232.613 88.7179C232.405 89.1383 232.301 89.5891 232.301 90.0701V90.8429C232.301 91.502 232.414 92.0607 232.642 92.519C232.873 92.9735 233.193 93.3201 233.602 93.5588C234.011 93.7936 234.486 93.911 235.028 93.911C235.38 93.911 235.698 93.8618 235.983 93.7633C236.27 93.661 236.518 93.5095 236.727 93.3088C236.935 93.1042 237.096 92.8504 237.21 92.5474L238.505 92.911C238.369 93.3504 238.14 93.7368 237.818 94.0701C237.496 94.3997 237.098 94.6573 236.625 94.8429C236.151 95.0247 235.619 95.1156 235.028 95.1156ZM242.022 89.6838V94.9338H240.681V86.2065H241.977V87.5701H242.09C242.295 87.127 242.606 86.7709 243.022 86.502C243.439 86.2292 243.977 86.0929 244.636 86.0929C245.227 86.0929 245.744 86.2141 246.187 86.4565C246.63 86.6951 246.975 87.0588 247.221 87.5474C247.467 88.0323 247.59 88.6459 247.59 89.3883V94.9338H246.25V89.4792C246.25 88.7936 246.072 88.2595 245.715 87.877C245.359 87.4906 244.871 87.2974 244.25 87.2974C243.822 87.2974 243.439 87.3902 243.102 87.5758C242.768 87.7614 242.505 88.0323 242.312 88.3883C242.119 88.7444 242.022 89.1762 242.022 89.6838ZM253.836 86.2065V87.3429H249.313V86.2065H253.836ZM250.632 84.1156H251.973V92.4338C251.973 92.8126 252.027 93.0967 252.137 93.286C252.251 93.4717 252.395 93.5967 252.569 93.661C252.747 93.7217 252.935 93.752 253.132 93.752C253.279 93.752 253.401 93.7444 253.495 93.7292C253.59 93.7103 253.666 93.6951 253.723 93.6838L253.995 94.8883C253.904 94.9224 253.777 94.9565 253.615 94.9906C253.452 95.0285 253.245 95.0474 252.995 95.0474C252.617 95.0474 252.245 94.966 251.882 94.8031C251.522 94.6402 251.223 94.3921 250.984 94.0588C250.749 93.7254 250.632 93.305 250.632 92.7974V84.1156ZM256.831 95.0247C256.55 95.0247 256.31 94.9243 256.109 94.7235C255.908 94.5228 255.808 94.2823 255.808 94.002C255.808 93.7217 255.908 93.4811 256.109 93.2804C256.31 93.0796 256.55 92.9792 256.831 92.9792C257.111 92.9792 257.351 93.0796 257.552 93.2804C257.753 93.4811 257.853 93.7217 257.853 94.002C257.853 94.1876 257.806 94.358 257.711 94.5133C257.62 94.6686 257.497 94.7936 257.342 94.8883C257.19 94.9792 257.02 95.0247 256.831 95.0247ZM265.419 94.9338H263.941L268.214 83.2974H269.669L273.941 94.9338H272.464L268.987 85.1383H268.896L265.419 94.9338ZM265.964 90.3883H271.919V91.6383H265.964V90.3883ZM276.913 83.2974V94.9338H275.572V83.2974H276.913ZM281.346 94.9338L278.687 86.2065H280.096L281.983 92.8883H282.073L283.937 86.2065H285.369L287.21 92.8656H287.301L289.187 86.2065H290.596L287.937 94.9338H286.619L284.71 88.2292H284.573L282.664 94.9338H281.346ZM294.937 95.1383C294.384 95.1383 293.882 95.0342 293.431 94.8258C292.981 94.6137 292.623 94.3088 292.358 93.911C292.092 93.5095 291.96 93.0247 291.96 92.4565C291.96 91.9565 292.058 91.5512 292.255 91.2406C292.452 90.9262 292.715 90.68 293.045 90.502C293.375 90.3239 293.738 90.1914 294.136 90.1042C294.537 90.0133 294.941 89.9414 295.346 89.8883C295.876 89.8201 296.306 89.769 296.636 89.7349C296.969 89.697 297.212 89.6345 297.363 89.5474C297.518 89.4603 297.596 89.3088 297.596 89.0929V89.0474C297.596 88.4868 297.443 88.0512 297.136 87.7406C296.833 87.43 296.373 87.2747 295.755 87.2747C295.115 87.2747 294.613 87.4148 294.25 87.6951C293.886 87.9754 293.63 88.2747 293.483 88.5929L292.21 88.1383C292.437 87.608 292.74 87.1951 293.119 86.8997C293.501 86.6004 293.918 86.3921 294.369 86.2747C294.823 86.1535 295.27 86.0929 295.71 86.0929C295.99 86.0929 296.312 86.127 296.676 86.1951C297.043 86.2595 297.397 86.394 297.738 86.5985C298.083 86.8031 298.369 87.1118 298.596 87.5247C298.823 87.9376 298.937 88.4906 298.937 89.1838V94.9338H297.596V93.752H297.528C297.437 93.9414 297.286 94.144 297.073 94.3599C296.861 94.5758 296.579 94.7595 296.227 94.911C295.875 95.0626 295.445 95.1383 294.937 95.1383ZM295.142 93.9338C295.672 93.9338 296.119 93.8296 296.483 93.6213C296.85 93.4129 297.126 93.144 297.312 92.8145C297.501 92.4849 297.596 92.1383 297.596 91.7747V90.5474C297.539 90.6156 297.414 90.6781 297.221 90.7349C297.032 90.7879 296.812 90.8353 296.562 90.877C296.316 90.9148 296.075 90.9489 295.84 90.9792C295.609 91.0057 295.422 91.0285 295.278 91.0474C294.929 91.0929 294.604 91.1667 294.301 91.269C294.001 91.3675 293.759 91.5171 293.573 91.7179C293.392 91.9148 293.301 92.1838 293.301 92.5247C293.301 92.9906 293.473 93.3429 293.818 93.5815C294.166 93.8164 294.608 93.9338 295.142 93.9338ZM301.936 98.2065C301.708 98.2065 301.506 98.1876 301.328 98.1497C301.15 98.1156 301.027 98.0815 300.958 98.0474L301.299 96.8656C301.625 96.9489 301.913 96.9792 302.163 96.9565C302.413 96.9338 302.634 96.822 302.828 96.6213C303.025 96.4243 303.205 96.1042 303.367 95.661L303.617 94.9792L300.39 86.2065H301.845L304.254 93.161H304.345L306.754 86.2065H308.208L304.504 96.2065C304.337 96.6573 304.131 97.0304 303.884 97.3258C303.638 97.6251 303.352 97.8467 303.027 97.9906C302.705 98.1345 302.341 98.2065 301.936 98.2065ZM316.16 88.161L314.956 88.502C314.88 88.3012 314.768 88.1061 314.62 87.9167C314.476 87.7235 314.279 87.5645 314.029 87.4395C313.779 87.3145 313.459 87.252 313.069 87.252C312.535 87.252 312.09 87.3751 311.734 87.6213C311.382 87.8637 311.206 88.1724 311.206 88.5474C311.206 88.8807 311.327 89.144 311.569 89.3372C311.812 89.5304 312.19 89.6914 312.706 89.8201L314.001 90.1383C314.781 90.3277 315.363 90.6175 315.745 91.0076C316.128 91.394 316.319 91.8921 316.319 92.502C316.319 93.002 316.175 93.4489 315.887 93.8429C315.603 94.2368 315.206 94.5474 314.694 94.7747C314.183 95.002 313.588 95.1156 312.91 95.1156C312.02 95.1156 311.283 94.9224 310.7 94.536C310.117 94.1497 309.747 93.5853 309.592 92.8429L310.865 92.5247C310.986 92.9944 311.215 93.3467 311.552 93.5815C311.893 93.8164 312.338 93.9338 312.887 93.9338C313.512 93.9338 314.009 93.8012 314.376 93.536C314.747 93.2671 314.933 92.9451 314.933 92.5701C314.933 92.2671 314.827 92.0133 314.615 91.8088C314.402 91.6004 314.077 91.4451 313.637 91.3429L312.183 91.002C311.384 90.8126 310.796 90.519 310.421 90.1213C310.05 89.7198 309.865 89.2179 309.865 88.6156C309.865 88.1232 310.003 87.6876 310.279 87.3088C310.56 86.93 310.94 86.6326 311.421 86.4167C311.906 86.2008 312.456 86.0929 313.069 86.0929C313.933 86.0929 314.611 86.2823 315.103 86.661C315.599 87.0398 315.952 87.5398 316.16 88.161ZM322.838 94.9338V86.2065H324.133V87.5247H324.224C324.383 87.0929 324.671 86.7425 325.088 86.4735C325.504 86.2046 325.974 86.0701 326.497 86.0701C326.595 86.0701 326.718 86.072 326.866 86.0758C327.014 86.0796 327.126 86.0853 327.201 86.0929V87.4565C327.156 87.4451 327.052 87.4281 326.889 87.4054C326.73 87.3789 326.561 87.3656 326.383 87.3656C325.959 87.3656 325.58 87.4546 325.247 87.6326C324.917 87.8069 324.656 88.0493 324.463 88.3599C324.273 88.6667 324.179 89.0171 324.179 89.411V94.9338H322.838ZM332.071 95.1156C331.283 95.1156 330.591 94.9281 329.997 94.5531C329.406 94.1781 328.944 93.6535 328.61 92.9792C328.281 92.305 328.116 91.5171 328.116 90.6156C328.116 89.7065 328.281 88.9129 328.61 88.2349C328.944 87.5569 329.406 87.0304 329.997 86.6554C330.591 86.2804 331.283 86.0929 332.071 86.0929C332.858 86.0929 333.548 86.2804 334.139 86.6554C334.733 87.0304 335.196 87.5569 335.525 88.2349C335.858 88.9129 336.025 89.7065 336.025 90.6156C336.025 91.5171 335.858 92.305 335.525 92.9792C335.196 93.6535 334.733 94.1781 334.139 94.5531C333.548 94.9281 332.858 95.1156 332.071 95.1156ZM332.071 93.911C332.669 93.911 333.161 93.7576 333.548 93.4508C333.934 93.144 334.22 92.7406 334.406 92.2406C334.591 91.7406 334.684 91.1989 334.684 90.6156C334.684 90.0323 334.591 89.4887 334.406 88.9849C334.22 88.4811 333.934 88.0739 333.548 87.7633C333.161 87.4527 332.669 87.2974 332.071 87.2974C331.472 87.2974 330.98 87.4527 330.593 87.7633C330.207 88.0739 329.921 88.4811 329.735 88.9849C329.55 89.4887 329.457 90.0323 329.457 90.6156C329.457 91.1989 329.55 91.7406 329.735 92.2406C329.921 92.7406 330.207 93.144 330.593 93.4508C330.98 93.7576 331.472 93.911 332.071 93.911ZM341.617 95.1156C340.83 95.1156 340.138 94.9281 339.544 94.5531C338.953 94.1781 338.491 93.6535 338.157 92.9792C337.828 92.305 337.663 91.5171 337.663 90.6156C337.663 89.7065 337.828 88.9129 338.157 88.2349C338.491 87.5569 338.953 87.0304 339.544 86.6554C340.138 86.2804 340.83 86.0929 341.617 86.0929C342.405 86.0929 343.095 86.2804 343.686 86.6554C344.28 87.0304 344.742 87.5569 345.072 88.2349C345.405 88.9129 345.572 89.7065 345.572 90.6156C345.572 91.5171 345.405 92.305 345.072 92.9792C344.742 93.6535 344.28 94.1781 343.686 94.5531C343.095 94.9281 342.405 95.1156 341.617 95.1156ZM341.617 93.911C342.216 93.911 342.708 93.7576 343.095 93.4508C343.481 93.144 343.767 92.7406 343.953 92.2406C344.138 91.7406 344.231 91.1989 344.231 90.6156C344.231 90.0323 344.138 89.4887 343.953 88.9849C343.767 88.4811 343.481 88.0739 343.095 87.7633C342.708 87.4527 342.216 87.2974 341.617 87.2974C341.019 87.2974 340.527 87.4527 340.14 87.7633C339.754 88.0739 339.468 88.4811 339.282 88.9849C339.097 89.4887 339.004 90.0323 339.004 90.6156C339.004 91.1989 339.097 91.7406 339.282 92.2406C339.468 92.7406 339.754 93.144 340.14 93.4508C340.527 93.7576 341.019 93.911 341.617 93.911ZM347.619 94.9338V86.2065H348.914V87.5701H349.028C349.21 87.1042 349.503 86.7425 349.909 86.4849C350.314 86.2235 350.801 86.0929 351.369 86.0929C351.945 86.0929 352.424 86.2235 352.806 86.4849C353.193 86.7425 353.494 87.1042 353.71 87.5701H353.801C354.024 87.1194 354.359 86.7614 354.806 86.4963C355.253 86.2273 355.789 86.0929 356.414 86.0929C357.195 86.0929 357.833 86.3372 358.329 86.8258C358.825 87.3107 359.073 88.0664 359.073 89.0929V94.9338H357.733V89.0929C357.733 88.4489 357.556 87.9887 357.204 87.7122C356.852 87.4357 356.437 87.2974 355.96 87.2974C355.346 87.2974 354.871 87.483 354.534 87.8542C354.197 88.2217 354.028 88.6876 354.028 89.252V94.9338H352.664V88.9565C352.664 88.4603 352.503 88.0607 352.181 87.7576C351.859 87.4508 351.445 87.2974 350.937 87.2974C350.589 87.2974 350.263 87.3902 349.96 87.5758C349.661 87.7614 349.418 88.019 349.233 88.3485C349.051 88.6743 348.96 89.0512 348.96 89.4792V94.9338H347.619ZM369.911 86.2065V87.3429H365.207V86.2065H369.911ZM366.616 94.9338V85.002C366.616 84.502 366.733 84.0853 366.968 83.752C367.203 83.4186 367.508 83.1686 367.883 83.002C368.258 82.8353 368.654 82.752 369.071 82.752C369.4 82.752 369.669 82.7785 369.877 82.8315C370.086 82.8845 370.241 82.9338 370.343 82.9792L369.957 84.1383C369.889 84.1156 369.794 84.0872 369.673 84.0531C369.555 84.019 369.4 84.002 369.207 84.002C368.764 84.002 368.444 84.1137 368.247 84.3372C368.054 84.5607 367.957 84.8883 367.957 85.3201V94.9338H366.616ZM374.977 95.1156C374.189 95.1156 373.498 94.9281 372.903 94.5531C372.312 94.1781 371.85 93.6535 371.517 92.9792C371.187 92.305 371.022 91.5171 371.022 90.6156C371.022 89.7065 371.187 88.9129 371.517 88.2349C371.85 87.5569 372.312 87.0304 372.903 86.6554C373.498 86.2804 374.189 86.0929 374.977 86.0929C375.765 86.0929 376.454 86.2804 377.045 86.6554C377.64 87.0304 378.102 87.5569 378.431 88.2349C378.765 88.9129 378.931 89.7065 378.931 90.6156C378.931 91.5171 378.765 92.305 378.431 92.9792C378.102 93.6535 377.64 94.1781 377.045 94.5531C376.454 94.9281 375.765 95.1156 374.977 95.1156ZM374.977 93.911C375.575 93.911 376.068 93.7576 376.454 93.4508C376.84 93.144 377.126 92.7406 377.312 92.2406C377.498 91.7406 377.59 91.1989 377.59 90.6156C377.59 90.0323 377.498 89.4887 377.312 88.9849C377.126 88.4811 376.84 88.0739 376.454 87.7633C376.068 87.4527 375.575 87.2974 374.977 87.2974C374.378 87.2974 373.886 87.4527 373.5 87.7633C373.113 88.0739 372.827 88.4811 372.642 88.9849C372.456 89.4887 372.363 90.0323 372.363 90.6156C372.363 91.1989 372.456 91.7406 372.642 92.2406C372.827 92.7406 373.113 93.144 373.5 93.4508C373.886 93.7576 374.378 93.911 374.977 93.911ZM380.978 94.9338V86.2065H382.274V87.5247H382.365C382.524 87.0929 382.812 86.7425 383.228 86.4735C383.645 86.2046 384.115 86.0701 384.637 86.0701C384.736 86.0701 384.859 86.072 385.007 86.0758C385.154 86.0796 385.266 86.0853 385.342 86.0929V87.4565C385.296 87.4451 385.192 87.4281 385.029 87.4054C384.87 87.3789 384.702 87.3656 384.524 87.3656C384.099 87.3656 383.721 87.4546 383.387 87.6326C383.058 87.8069 382.796 88.0493 382.603 88.3599C382.414 88.6667 382.319 89.0171 382.319 89.411V94.9338H380.978ZM397.613 88.161L396.409 88.502C396.333 88.3012 396.221 88.1061 396.073 87.9167C395.929 87.7235 395.733 87.5645 395.483 87.4395C395.233 87.3145 394.912 87.252 394.522 87.252C393.988 87.252 393.543 87.3751 393.187 87.6213C392.835 87.8637 392.659 88.1724 392.659 88.5474C392.659 88.8807 392.78 89.144 393.022 89.3372C393.265 89.5304 393.643 89.6914 394.159 89.8201L395.454 90.1383C396.234 90.3277 396.816 90.6175 397.198 91.0076C397.581 91.394 397.772 91.8921 397.772 92.502C397.772 93.002 397.628 93.4489 397.34 93.8429C397.056 94.2368 396.659 94.5474 396.147 94.7747C395.636 95.002 395.041 95.1156 394.363 95.1156C393.473 95.1156 392.736 94.9224 392.153 94.536C391.57 94.1497 391.2 93.5853 391.045 92.8429L392.318 92.5247C392.439 92.9944 392.668 93.3467 393.005 93.5815C393.346 93.8164 393.791 93.9338 394.34 93.9338C394.965 93.9338 395.462 93.8012 395.829 93.536C396.2 93.2671 396.386 92.9451 396.386 92.5701C396.386 92.2671 396.28 92.0133 396.068 91.8088C395.856 91.6004 395.53 91.4451 395.09 91.3429L393.636 91.002C392.837 90.8126 392.25 90.519 391.875 90.1213C391.503 89.7198 391.318 89.2179 391.318 88.6156C391.318 88.1232 391.456 87.6876 391.733 87.3088C392.013 86.93 392.393 86.6326 392.875 86.4167C393.359 86.2008 393.909 86.0929 394.522 86.0929C395.386 86.0929 396.064 86.2823 396.556 86.661C397.053 87.0398 397.405 87.5398 397.613 88.161ZM403.45 95.1156C402.609 95.1156 401.884 94.93 401.274 94.5588C400.668 94.1838 400.2 93.661 399.87 92.9906C399.545 92.3164 399.382 91.5323 399.382 90.6383C399.382 89.7444 399.545 88.9565 399.87 88.2747C400.2 87.5891 400.658 87.055 401.245 86.6724C401.836 86.286 402.526 86.0929 403.313 86.0929C403.768 86.0929 404.217 86.1686 404.66 86.3201C405.103 86.4717 405.507 86.7179 405.87 87.0588C406.234 87.3959 406.524 87.8429 406.74 88.3997C406.956 88.9565 407.063 89.6421 407.063 90.4565V91.0247H400.336V89.8656H405.7C405.7 89.3732 405.601 88.9338 405.404 88.5474C405.211 88.161 404.935 87.8561 404.575 87.6326C404.219 87.4092 403.798 87.2974 403.313 87.2974C402.779 87.2974 402.317 87.43 401.927 87.6951C401.541 87.9565 401.243 88.2974 401.035 88.7179C400.827 89.1383 400.723 89.5891 400.723 90.0701V90.8429C400.723 91.502 400.836 92.0607 401.063 92.519C401.295 92.9735 401.615 93.3201 402.024 93.5588C402.433 93.7936 402.908 93.911 403.45 93.911C403.802 93.911 404.12 93.8618 404.404 93.7633C404.692 93.661 404.94 93.5095 405.149 93.3088C405.357 93.1042 405.518 92.8504 405.632 92.5474L406.927 92.911C406.791 93.3504 406.562 93.7368 406.24 94.0701C405.918 94.3997 405.52 94.6573 405.046 94.8429C404.573 95.0247 404.041 95.1156 403.45 95.1156ZM410.444 83.2974V94.9338H409.103V83.2974H410.444ZM416.786 86.2065V87.3429H412.082V86.2065H416.786ZM413.491 94.9338V85.002C413.491 84.502 413.608 84.0853 413.843 83.752C414.078 83.4186 414.383 83.1686 414.758 83.002C415.133 82.8353 415.529 82.752 415.946 82.752C416.275 82.752 416.544 82.7785 416.752 82.8315C416.961 82.8845 417.116 82.9338 417.218 82.9792L416.832 84.1383C416.764 84.1156 416.669 84.0872 416.548 84.0531C416.43 84.019 416.275 84.002 416.082 84.002C415.639 84.002 415.319 84.1137 415.122 84.3372C414.929 84.5607 414.832 84.8883 414.832 85.3201V94.9338H413.491ZM423.213 89.3201V90.5701H418.122V89.3201H423.213ZM126.369 113.934V105.207H127.71V113.934H126.369ZM127.051 103.752C126.789 103.752 126.564 103.663 126.375 103.485C126.189 103.307 126.096 103.093 126.096 102.843C126.096 102.593 126.189 102.379 126.375 102.201C126.564 102.023 126.789 101.934 127.051 101.934C127.312 101.934 127.536 102.023 127.721 102.201C127.911 102.379 128.005 102.593 128.005 102.843C128.005 103.093 127.911 103.307 127.721 103.485C127.536 103.663 127.312 103.752 127.051 103.752ZM130.166 113.934V105.207H131.461V106.57H131.575C131.757 106.104 132.05 105.742 132.456 105.485C132.861 105.224 133.348 105.093 133.916 105.093C134.492 105.093 134.971 105.224 135.353 105.485C135.74 105.742 136.041 106.104 136.257 106.57H136.348C136.571 106.119 136.906 105.761 137.353 105.496C137.8 105.227 138.336 105.093 138.961 105.093C139.742 105.093 140.38 105.337 140.876 105.826C141.372 106.311 141.62 107.066 141.62 108.093V113.934H140.279V108.093C140.279 107.449 140.103 106.989 139.751 106.712C139.399 106.436 138.984 106.297 138.507 106.297C137.893 106.297 137.418 106.483 137.081 106.854C136.743 107.222 136.575 107.688 136.575 108.252V113.934H135.211V107.957C135.211 107.46 135.05 107.061 134.728 106.758C134.406 106.451 133.992 106.297 133.484 106.297C133.135 106.297 132.81 106.39 132.507 106.576C132.207 106.761 131.965 107.019 131.779 107.349C131.598 107.674 131.507 108.051 131.507 108.479V113.934H130.166ZM144.072 117.207V105.207H145.367V106.593H145.527C145.625 106.441 145.761 106.248 145.936 106.013C146.114 105.775 146.367 105.563 146.697 105.377C147.03 105.188 147.481 105.093 148.049 105.093C148.784 105.093 149.432 105.277 149.992 105.644C150.553 106.011 150.991 106.532 151.305 107.207C151.619 107.881 151.777 108.676 151.777 109.593C151.777 110.517 151.619 111.318 151.305 111.996C150.991 112.671 150.555 113.193 149.998 113.564C149.441 113.932 148.799 114.116 148.072 114.116C147.511 114.116 147.063 114.023 146.725 113.837C146.388 113.648 146.129 113.434 145.947 113.195C145.765 112.953 145.625 112.752 145.527 112.593H145.413V117.207H144.072ZM145.39 109.57C145.39 110.229 145.487 110.811 145.68 111.314C145.873 111.814 146.155 112.207 146.527 112.491C146.898 112.771 147.352 112.911 147.89 112.911C148.451 112.911 148.919 112.763 149.294 112.468C149.672 112.169 149.956 111.767 150.146 111.263C150.339 110.756 150.436 110.191 150.436 109.57C150.436 108.957 150.341 108.403 150.152 107.911C149.966 107.415 149.684 107.023 149.305 106.735C148.93 106.443 148.458 106.297 147.89 106.297C147.345 106.297 146.886 106.436 146.515 106.712C146.144 106.985 145.864 107.367 145.674 107.86C145.485 108.349 145.39 108.919 145.39 109.57ZM153.822 113.934V105.207H155.117V106.525H155.208C155.367 106.093 155.655 105.742 156.072 105.474C156.489 105.205 156.958 105.07 157.481 105.07C157.58 105.07 157.703 105.072 157.85 105.076C157.998 105.08 158.11 105.085 158.186 105.093V106.457C158.14 106.445 158.036 106.428 157.873 106.405C157.714 106.379 157.545 106.366 157.367 106.366C156.943 106.366 156.564 106.455 156.231 106.633C155.902 106.807 155.64 107.049 155.447 107.36C155.258 107.667 155.163 108.017 155.163 108.411V113.934H153.822ZM163.055 114.116C162.267 114.116 161.576 113.928 160.981 113.553C160.39 113.178 159.928 112.653 159.595 111.979C159.265 111.305 159.1 110.517 159.1 109.616C159.1 108.707 159.265 107.913 159.595 107.235C159.928 106.557 160.39 106.03 160.981 105.655C161.576 105.28 162.267 105.093 163.055 105.093C163.843 105.093 164.532 105.28 165.123 105.655C165.718 106.03 166.18 106.557 166.509 107.235C166.843 107.913 167.009 108.707 167.009 109.616C167.009 110.517 166.843 111.305 166.509 111.979C166.18 112.653 165.718 113.178 165.123 113.553C164.532 113.928 163.843 114.116 163.055 114.116ZM163.055 112.911C163.653 112.911 164.146 112.758 164.532 112.451C164.919 112.144 165.205 111.741 165.39 111.241C165.576 110.741 165.669 110.199 165.669 109.616C165.669 109.032 165.576 108.489 165.39 107.985C165.205 107.481 164.919 107.074 164.532 106.763C164.146 106.453 163.653 106.297 163.055 106.297C162.456 106.297 161.964 106.453 161.578 106.763C161.191 107.074 160.905 107.481 160.72 107.985C160.534 108.489 160.441 109.032 160.441 109.616C160.441 110.199 160.534 110.741 160.72 111.241C160.905 111.741 161.191 112.144 161.578 112.451C161.964 112.758 162.456 112.911 163.055 112.911ZM175.88 105.207L172.653 113.934H171.289L168.062 105.207H169.517L171.926 112.161H172.017L174.426 105.207H175.88ZM180.997 114.116C180.156 114.116 179.43 113.93 178.821 113.559C178.215 113.184 177.747 112.661 177.417 111.991C177.091 111.316 176.929 110.532 176.929 109.638C176.929 108.744 177.091 107.957 177.417 107.275C177.747 106.589 178.205 106.055 178.792 105.672C179.383 105.286 180.072 105.093 180.86 105.093C181.315 105.093 181.764 105.169 182.207 105.32C182.65 105.472 183.054 105.718 183.417 106.059C183.781 106.396 184.071 106.843 184.286 107.4C184.502 107.957 184.61 108.642 184.61 109.457V110.025H177.883V108.866H183.247C183.247 108.373 183.148 107.934 182.951 107.547C182.758 107.161 182.482 106.856 182.122 106.633C181.766 106.409 181.345 106.297 180.86 106.297C180.326 106.297 179.864 106.43 179.474 106.695C179.088 106.957 178.79 107.297 178.582 107.718C178.374 108.138 178.269 108.589 178.269 109.07V109.843C178.269 110.502 178.383 111.061 178.61 111.519C178.841 111.974 179.161 112.32 179.571 112.559C179.98 112.794 180.455 112.911 180.997 112.911C181.349 112.911 181.667 112.862 181.951 112.763C182.239 112.661 182.487 112.51 182.696 112.309C182.904 112.104 183.065 111.85 183.179 111.547L184.474 111.911C184.338 112.35 184.108 112.737 183.786 113.07C183.465 113.4 183.067 113.657 182.593 113.843C182.12 114.025 181.588 114.116 180.997 114.116ZM186.65 113.934V105.207H187.946V106.57H188.059C188.241 106.104 188.535 105.742 188.94 105.485C189.345 105.224 189.832 105.093 190.4 105.093C190.976 105.093 191.455 105.224 191.838 105.485C192.224 105.742 192.525 106.104 192.741 106.57H192.832C193.055 106.119 193.391 105.761 193.838 105.496C194.285 105.227 194.821 105.093 195.446 105.093C196.226 105.093 196.864 105.337 197.36 105.826C197.857 106.311 198.105 107.066 198.105 108.093V113.934H196.764V108.093C196.764 107.449 196.588 106.989 196.235 106.712C195.883 106.436 195.468 106.297 194.991 106.297C194.377 106.297 193.902 106.483 193.565 106.854C193.228 107.222 193.059 107.688 193.059 108.252V113.934H191.696V107.957C191.696 107.46 191.535 107.061 191.213 106.758C190.891 106.451 190.476 106.297 189.968 106.297C189.62 106.297 189.294 106.39 188.991 106.576C188.692 106.761 188.449 107.019 188.264 107.349C188.082 107.674 187.991 108.051 187.991 108.479V113.934H186.65ZM204.215 114.116C203.375 114.116 202.649 113.93 202.039 113.559C201.433 113.184 200.965 112.661 200.636 111.991C200.31 111.316 200.147 110.532 200.147 109.638C200.147 108.744 200.31 107.957 200.636 107.275C200.965 106.589 201.424 106.055 202.011 105.672C202.602 105.286 203.291 105.093 204.079 105.093C204.534 105.093 204.983 105.169 205.426 105.32C205.869 105.472 206.272 105.718 206.636 106.059C207 106.396 207.289 106.843 207.505 107.4C207.721 107.957 207.829 108.642 207.829 109.457V110.025H201.102V108.866H206.465C206.465 108.373 206.367 107.934 206.17 107.547C205.977 107.161 205.7 106.856 205.34 106.633C204.984 106.409 204.564 106.297 204.079 106.297C203.545 106.297 203.083 106.43 202.693 106.695C202.306 106.957 202.009 107.297 201.801 107.718C201.592 108.138 201.488 108.589 201.488 109.07V109.843C201.488 110.502 201.602 111.061 201.829 111.519C202.06 111.974 202.38 112.32 202.789 112.559C203.198 112.794 203.674 112.911 204.215 112.911C204.568 112.911 204.886 112.862 205.17 112.763C205.458 112.661 205.706 112.51 205.914 112.309C206.123 112.104 206.284 111.85 206.397 111.547L207.693 111.911C207.556 112.35 207.327 112.737 207.005 113.07C206.683 113.4 206.286 113.657 205.812 113.843C205.339 114.025 204.806 114.116 204.215 114.116ZM211.21 108.684V113.934H209.869V105.207H211.164V106.57H211.278C211.483 106.127 211.793 105.771 212.21 105.502C212.626 105.229 213.164 105.093 213.823 105.093C214.414 105.093 214.931 105.214 215.375 105.457C215.818 105.695 216.162 106.059 216.409 106.547C216.655 107.032 216.778 107.646 216.778 108.388V113.934H215.437V108.479C215.437 107.794 215.259 107.26 214.903 106.877C214.547 106.491 214.058 106.297 213.437 106.297C213.009 106.297 212.626 106.39 212.289 106.576C211.956 106.761 211.693 107.032 211.5 107.388C211.306 107.744 211.21 108.176 211.21 108.684ZM223.024 105.207V106.343H218.501V105.207H223.024ZM219.819 103.116H221.16V111.434C221.16 111.813 221.215 112.097 221.325 112.286C221.438 112.472 221.582 112.597 221.757 112.661C221.935 112.722 222.122 112.752 222.319 112.752C222.467 112.752 222.588 112.744 222.683 112.729C222.777 112.71 222.853 112.695 222.91 112.684L223.183 113.888C223.092 113.922 222.965 113.957 222.802 113.991C222.639 114.028 222.433 114.047 222.183 114.047C221.804 114.047 221.433 113.966 221.069 113.803C220.709 113.64 220.41 113.392 220.171 113.059C219.937 112.725 219.819 112.305 219.819 111.797V103.116ZM226.018 114.025C225.738 114.025 225.497 113.924 225.296 113.724C225.096 113.523 224.995 113.282 224.995 113.002C224.995 112.722 225.096 112.481 225.296 112.28C225.497 112.08 225.738 111.979 226.018 111.979C226.298 111.979 226.539 112.08 226.74 112.28C226.94 112.481 227.041 112.722 227.041 113.002C227.041 113.188 226.993 113.358 226.899 113.513C226.808 113.669 226.685 113.794 226.529 113.888C226.378 113.979 226.207 114.025 226.018 114.025Z" fill="#303030"/>
<defs>
<linearGradient id="paint0_linear_1214_196" x1="17.8804" y1="-46.4209" x2="254.306" y2="82.36" gradientUnits="userSpaceOnUse">
<stop stop-color="#00D1FF"/>
<stop offset="1" stop-color="#3300FF"/>
</linearGradient>
</defs>
</svg>
