<svg width="496" height="128" viewBox="0 0 496 128" fill="none" xmlns="http://www.w3.org/2000/svg">
<rect x="0.5" y="0.5" width="495" height="127" stroke="#303030"/>
<path d="M156.76 51.24C155.272 51.24 153.984 50.912 152.896 50.256C151.808 49.584 150.968 48.64 150.376 47.424C149.784 46.208 149.488 44.76 149.488 43.08C149.488 41.4 149.792 39.952 150.4 38.736C151.024 37.52 151.88 36.584 152.968 35.928C154.072 35.256 155.344 34.92 156.784 34.92C158.4 34.92 159.704 35.24 160.696 35.88C161.704 36.52 162.464 37.496 162.976 38.808L161.872 39.384C161.504 38.28 160.896 37.448 160.048 36.888C159.2 36.312 158.112 36.024 156.784 36.024C155.584 36.024 154.528 36.312 153.616 36.888C152.72 37.448 152.016 38.256 151.504 39.312C150.992 40.368 150.736 41.624 150.736 43.08C150.736 44.536 150.976 45.792 151.456 46.848C151.936 47.904 152.624 48.72 153.52 49.296C154.432 49.856 155.528 50.136 156.808 50.136C157.688 50.136 158.448 50 159.088 49.728C159.744 49.44 160.28 49.072 160.696 48.624C161.128 48.16 161.448 47.64 161.656 47.064C161.864 46.472 161.968 45.872 161.968 45.264V44.376H156.592V43.248H163.096V51H162.112L162.064 47.568L162.28 47.616C161.896 48.736 161.232 49.624 160.288 50.28C159.36 50.92 158.184 51.24 156.76 51.24ZM166.964 51V39H167.972L168.116 41.52C168.42 40.672 168.908 40 169.58 39.504C170.252 39.008 171.06 38.76 172.004 38.76C172.324 38.76 172.612 38.792 172.868 38.856C173.124 38.92 173.332 39.024 173.492 39.168L173.228 40.224C173.052 40.112 172.86 40.024 172.652 39.96C172.444 39.896 172.132 39.864 171.716 39.864C171.108 39.864 170.532 40.056 169.988 40.44C169.444 40.808 169.004 41.328 168.668 42C168.332 42.656 168.164 43.416 168.164 44.28V51H166.964ZM180.368 38.76C181.488 38.76 182.472 39.008 183.32 39.504C184.184 40 184.856 40.72 185.336 41.664C185.832 42.592 186.08 43.704 186.08 45C186.08 46.296 185.832 47.416 185.336 48.36C184.856 49.288 184.184 50 183.32 50.496C182.472 50.992 181.488 51.24 180.368 51.24C179.248 51.24 178.256 50.992 177.392 50.496C176.544 50 175.872 49.288 175.376 48.36C174.896 47.416 174.656 46.296 174.656 45C174.656 43.704 174.896 42.592 175.376 41.664C175.872 40.72 176.544 40 177.392 39.504C178.256 39.008 179.248 38.76 180.368 38.76ZM180.368 39.792C179.456 39.792 178.664 40 177.992 40.416C177.32 40.832 176.792 41.432 176.408 42.216C176.04 42.984 175.856 43.912 175.856 45C175.856 46.072 176.04 47 176.408 47.784C176.792 48.568 177.32 49.168 177.992 49.584C178.664 50 179.456 50.208 180.368 50.208C181.28 50.208 182.072 50 182.744 49.584C183.416 49.168 183.936 48.568 184.304 47.784C184.688 47 184.88 46.072 184.88 45C184.88 43.912 184.688 42.984 184.304 42.216C183.936 41.432 183.416 40.832 182.744 40.416C182.072 40 181.28 39.792 180.368 39.792ZM204.494 39H205.814L201.734 51H200.534L196.742 40.56L193.022 51H191.822L187.742 39H189.062L192.446 49.56L196.166 39H197.39L201.134 49.56L204.494 39ZM210.605 35.664V47.832C210.605 48.584 210.781 49.16 211.133 49.56C211.501 49.944 212.029 50.136 212.717 50.136C213.165 50.136 213.557 50.064 213.893 49.92C214.245 49.76 214.557 49.536 214.829 49.248L215.285 50.232C214.981 50.536 214.597 50.784 214.133 50.976C213.669 51.152 213.149 51.24 212.573 51.24C211.949 51.24 211.397 51.128 210.917 50.904C210.437 50.664 210.061 50.304 209.789 49.824C209.533 49.344 209.405 48.736 209.405 48V36L210.605 35.664ZM215.093 39V40.032H207.005V39H215.093ZM217.659 51V33.48H218.859V41.448C219.211 40.6 219.779 39.944 220.563 39.48C221.347 39 222.251 38.76 223.275 38.76C224.171 38.76 224.963 38.928 225.651 39.264C226.339 39.584 226.875 40.08 227.259 40.752C227.659 41.408 227.859 42.224 227.859 43.2V51H226.659V43.584C226.659 42.288 226.331 41.336 225.675 40.728C225.035 40.104 224.195 39.792 223.155 39.792C222.403 39.792 221.699 39.968 221.043 40.32C220.403 40.672 219.875 41.176 219.459 41.832C219.059 42.488 218.859 43.288 218.859 44.232V51H217.659ZM254.623 35.16V51H253.471V39.192L253.615 36.312H253.591L247.807 51H246.703L240.919 36.312H240.895L241.039 39.192V51H239.887V35.16H241.687L246.463 47.16L247.255 49.584H247.279L248.047 47.184L252.823 35.16H254.623ZM259.861 36.672C259.557 36.672 259.309 36.584 259.117 36.408C258.941 36.216 258.853 35.968 258.853 35.664C258.853 35.36 258.941 35.12 259.117 34.944C259.309 34.752 259.557 34.656 259.861 34.656C260.165 34.656 260.405 34.752 260.581 34.944C260.773 35.12 260.869 35.36 260.869 35.664C260.869 35.968 260.773 36.216 260.581 36.408C260.405 36.584 260.165 36.672 259.861 36.672ZM260.461 39V51H259.261V39H260.461ZM264.722 51V39H265.802L265.898 42L265.706 41.832C265.93 41.176 266.266 40.624 266.714 40.176C267.162 39.712 267.698 39.36 268.322 39.12C268.946 38.88 269.618 38.76 270.338 38.76C271.234 38.76 272.026 38.928 272.714 39.264C273.402 39.6 273.938 40.096 274.322 40.752C274.722 41.408 274.922 42.232 274.922 43.224V51H273.722V43.608C273.722 42.296 273.394 41.336 272.738 40.728C272.098 40.12 271.258 39.816 270.218 39.816C269.466 39.816 268.762 39.992 268.106 40.344C267.466 40.68 266.938 41.176 266.522 41.832C266.122 42.488 265.922 43.288 265.922 44.232V51H264.722ZM283.746 51.24C282.706 51.24 281.77 50.992 280.938 50.496C280.106 50 279.45 49.288 278.97 48.36C278.506 47.416 278.274 46.296 278.274 45C278.274 43.672 278.522 42.544 279.018 41.616C279.514 40.688 280.186 39.984 281.034 39.504C281.882 39.008 282.818 38.76 283.842 38.76C284.962 38.76 285.914 39.056 286.698 39.648C287.498 40.24 288.034 41.064 288.306 42.12L288.162 42.216V33.48H289.362V51H288.282L288.21 47.664L288.354 47.616C288.21 48.384 287.914 49.04 287.466 49.584C287.034 50.128 286.49 50.544 285.834 50.832C285.194 51.104 284.498 51.24 283.746 51.24ZM283.89 50.184C284.738 50.184 285.482 49.976 286.122 49.56C286.762 49.128 287.258 48.512 287.61 47.712C287.978 46.912 288.162 45.976 288.162 44.904C288.162 43.848 287.978 42.944 287.61 42.192C287.258 41.424 286.762 40.84 286.122 40.44C285.498 40.024 284.77 39.816 283.938 39.816C282.562 39.816 281.474 40.28 280.674 41.208C279.874 42.136 279.474 43.4 279.474 45C279.474 46.6 279.866 47.864 280.65 48.792C281.45 49.72 282.53 50.184 283.89 50.184ZM297.7 51.24C296.484 51.24 295.404 50.992 294.46 50.496C293.532 50 292.876 49.288 292.492 48.36L293.524 47.664C293.812 48.464 294.324 49.088 295.06 49.536C295.812 49.968 296.724 50.184 297.796 50.184C298.852 50.184 299.676 49.976 300.268 49.56C300.876 49.144 301.18 48.592 301.18 47.904C301.18 47.44 301.028 47.04 300.724 46.704C300.436 46.352 299.884 46.088 299.068 45.912L296.26 45.312C295.108 45.072 294.284 44.688 293.788 44.16C293.308 43.616 293.068 42.96 293.068 42.192C293.068 41.552 293.26 40.976 293.644 40.464C294.028 39.952 294.556 39.544 295.228 39.24C295.916 38.92 296.716 38.76 297.628 38.76C298.828 38.76 299.82 39 300.604 39.48C301.388 39.944 301.94 40.648 302.26 41.592L301.252 42.24C301.012 41.392 300.564 40.776 299.908 40.392C299.268 40.008 298.508 39.816 297.628 39.816C296.956 39.816 296.364 39.92 295.852 40.128C295.356 40.32 294.964 40.592 294.676 40.944C294.404 41.28 294.268 41.672 294.268 42.12C294.268 42.584 294.428 43.008 294.748 43.392C295.068 43.76 295.636 44.032 296.452 44.208L299.332 44.832C300.468 45.072 301.26 45.44 301.708 45.936C302.156 46.416 302.38 47.016 302.38 47.736C302.38 48.456 302.188 49.08 301.804 49.608C301.42 50.136 300.876 50.544 300.172 50.832C299.468 51.104 298.644 51.24 297.7 51.24ZM310.634 51.24C309.53 51.24 308.546 50.992 307.682 50.496C306.818 50 306.138 49.288 305.642 48.36C305.162 47.416 304.922 46.296 304.922 45C304.922 43.704 305.162 42.592 305.642 41.664C306.138 40.72 306.802 40 307.634 39.504C308.466 39.008 309.418 38.76 310.49 38.76C311.578 38.76 312.506 39 313.274 39.48C314.042 39.96 314.634 40.632 315.05 41.496C315.466 42.344 315.674 43.328 315.674 44.448C315.674 44.592 315.666 44.736 315.65 44.88C315.65 45.008 315.642 45.128 315.626 45.24H305.666V44.16H315.098L314.498 44.328C314.482 42.952 314.114 41.856 313.394 41.04C312.69 40.224 311.714 39.816 310.466 39.816C309.602 39.816 308.842 40.024 308.186 40.44C307.53 40.84 307.018 41.432 306.65 42.216C306.282 42.984 306.098 43.912 306.098 45C306.098 46.072 306.282 47 306.65 47.784C307.034 48.568 307.562 49.168 308.234 49.584C308.922 49.984 309.714 50.184 310.61 50.184C311.538 50.184 312.33 49.984 312.986 49.584C313.658 49.184 314.178 48.632 314.546 47.928L315.506 48.48C315.218 49.056 314.834 49.552 314.354 49.968C313.874 50.368 313.322 50.68 312.698 50.904C312.074 51.128 311.386 51.24 310.634 51.24ZM320.831 35.664V47.832C320.831 48.584 321.007 49.16 321.359 49.56C321.727 49.944 322.255 50.136 322.943 50.136C323.391 50.136 323.783 50.064 324.119 49.92C324.471 49.76 324.783 49.536 325.055 49.248L325.511 50.232C325.207 50.536 324.823 50.784 324.359 50.976C323.895 51.152 323.375 51.24 322.799 51.24C322.175 51.24 321.623 51.128 321.143 50.904C320.663 50.664 320.287 50.304 320.015 49.824C319.759 49.344 319.631 48.736 319.631 48V36L320.831 35.664ZM325.319 39V40.032H317.231V39H325.319Z" fill="#303030"/>
<path d="M157.696 76H156.848L155.52 72.688H150.48L149.152 76H148.304L152.528 65.44H153.472L157.696 76ZM150.768 71.952H155.232L152.992 66.224L150.768 71.952ZM160.16 64.32V74.112C160.16 74.6027 160.245 74.9493 160.416 75.152C160.587 75.3547 160.853 75.456 161.216 75.456C161.44 75.456 161.616 75.44 161.744 75.408C161.883 75.376 162.043 75.3227 162.224 75.248L162.112 75.952C161.973 76.016 161.813 76.064 161.632 76.096C161.461 76.1387 161.269 76.16 161.056 76.16C160.491 76.16 160.064 76 159.776 75.68C159.499 75.3493 159.36 74.8373 159.36 74.144V64.32H160.16ZM173.757 68H174.637L171.917 76H171.117L168.589 69.04L166.109 76H165.309L162.589 68H163.469L165.725 75.04L168.205 68H169.021L171.517 75.04L173.757 68ZM181.226 70.736C181.226 70.0427 181.04 69.504 180.666 69.12C180.293 68.736 179.76 68.544 179.066 68.544C178.458 68.544 177.936 68.6773 177.498 68.944C177.061 69.2 176.736 69.632 176.522 70.24L175.866 69.824C176.101 69.1947 176.49 68.7093 177.034 68.368C177.589 68.016 178.272 67.84 179.082 67.84C179.669 67.84 180.181 67.9467 180.618 68.16C181.066 68.3627 181.413 68.6667 181.658 69.072C181.904 69.4773 182.026 69.984 182.026 70.592V74.592C182.026 75.1573 182.282 75.44 182.794 75.44C183.018 75.44 183.21 75.4027 183.37 75.328L183.322 75.968C183.141 76.064 182.906 76.112 182.618 76.112C182.373 76.112 182.144 76.064 181.93 75.968C181.717 75.872 181.541 75.712 181.402 75.488C181.274 75.264 181.21 74.96 181.21 74.576V74.144L181.434 74.128C181.338 74.5867 181.125 74.9707 180.794 75.28C180.474 75.5787 180.101 75.8027 179.674 75.952C179.248 76.0907 178.821 76.16 178.394 76.16C177.893 76.16 177.445 76.08 177.05 75.92C176.656 75.76 176.346 75.5307 176.122 75.232C175.898 74.9227 175.786 74.544 175.786 74.096C175.786 73.4987 175.984 73.0187 176.378 72.656C176.784 72.2827 177.349 72.0267 178.074 71.888L181.386 71.232V71.904L178.474 72.48C177.845 72.608 177.376 72.7947 177.066 73.04C176.757 73.2853 176.602 73.6213 176.602 74.048C176.602 74.4853 176.768 74.832 177.098 75.088C177.429 75.3333 177.898 75.456 178.506 75.456C178.816 75.456 179.13 75.4133 179.45 75.328C179.77 75.2427 180.064 75.1093 180.33 74.928C180.608 74.736 180.826 74.5013 180.986 74.224C181.146 73.936 181.226 73.5893 181.226 73.184V70.736ZM190.947 68L187.075 77.472C186.883 77.9627 186.675 78.352 186.451 78.64C186.227 78.928 185.976 79.1307 185.699 79.248C185.421 79.376 185.101 79.44 184.739 79.44C184.419 79.44 184.125 79.392 183.859 79.296C183.592 79.2 183.373 79.0667 183.203 78.896L183.459 78.208C183.619 78.4 183.811 78.5333 184.035 78.608C184.259 78.6933 184.488 78.736 184.723 78.736C185.064 78.736 185.368 78.6347 185.635 78.432C185.901 78.24 186.152 77.856 186.387 77.28L186.915 76L186.067 74.016L183.539 68H184.451L186.899 74.064L187.299 75.136L187.731 73.984L190.083 68H190.947ZM195.144 76.16C194.333 76.16 193.613 75.9947 192.984 75.664C192.365 75.3333 191.928 74.8587 191.672 74.24L192.36 73.776C192.552 74.3093 192.893 74.7253 193.384 75.024C193.885 75.312 194.493 75.456 195.208 75.456C195.912 75.456 196.461 75.3173 196.856 75.04C197.261 74.7627 197.464 74.3947 197.464 73.936C197.464 73.6267 197.362 73.36 197.16 73.136C196.968 72.9013 196.6 72.7253 196.056 72.608L194.184 72.208C193.416 72.048 192.866 71.792 192.536 71.44C192.216 71.0773 192.056 70.64 192.056 70.128C192.056 69.7013 192.184 69.3173 192.44 68.976C192.696 68.6347 193.048 68.3627 193.496 68.16C193.954 67.9467 194.488 67.84 195.096 67.84C195.896 67.84 196.557 68 197.08 68.32C197.602 68.6293 197.97 69.0987 198.184 69.728L197.512 70.16C197.352 69.5947 197.053 69.184 196.616 68.928C196.189 68.672 195.682 68.544 195.096 68.544C194.648 68.544 194.253 68.6133 193.912 68.752C193.581 68.88 193.32 69.0613 193.128 69.296C192.946 69.52 192.856 69.7813 192.856 70.08C192.856 70.3893 192.962 70.672 193.176 70.928C193.389 71.1733 193.768 71.3547 194.312 71.472L196.232 71.888C196.989 72.048 197.517 72.2933 197.816 72.624C198.114 72.944 198.264 73.344 198.264 73.824C198.264 74.304 198.136 74.72 197.88 75.072C197.624 75.424 197.261 75.696 196.792 75.888C196.322 76.0693 195.773 76.16 195.144 76.16ZM210.414 70.736C210.414 70.0427 210.227 69.504 209.854 69.12C209.48 68.736 208.947 68.544 208.254 68.544C207.646 68.544 207.123 68.6773 206.686 68.944C206.248 69.2 205.923 69.632 205.71 70.24L205.054 69.824C205.288 69.1947 205.678 68.7093 206.222 68.368C206.776 68.016 207.459 67.84 208.27 67.84C208.856 67.84 209.368 67.9467 209.806 68.16C210.254 68.3627 210.6 68.6667 210.846 69.072C211.091 69.4773 211.214 69.984 211.214 70.592V74.592C211.214 75.1573 211.47 75.44 211.982 75.44C212.206 75.44 212.398 75.4027 212.558 75.328L212.51 75.968C212.328 76.064 212.094 76.112 211.806 76.112C211.56 76.112 211.331 76.064 211.118 75.968C210.904 75.872 210.728 75.712 210.59 75.488C210.462 75.264 210.398 74.96 210.398 74.576V74.144L210.622 74.128C210.526 74.5867 210.312 74.9707 209.982 75.28C209.662 75.5787 209.288 75.8027 208.862 75.952C208.435 76.0907 208.008 76.16 207.582 76.16C207.08 76.16 206.632 76.08 206.238 75.92C205.843 75.76 205.534 75.5307 205.31 75.232C205.086 74.9227 204.974 74.544 204.974 74.096C204.974 73.4987 205.171 73.0187 205.566 72.656C205.971 72.2827 206.536 72.0267 207.262 71.888L210.574 71.232V71.904L207.662 72.48C207.032 72.608 206.563 72.7947 206.254 73.04C205.944 73.2853 205.79 73.6213 205.79 74.048C205.79 74.4853 205.955 74.832 206.286 75.088C206.616 75.3333 207.086 75.456 207.694 75.456C208.003 75.456 208.318 75.4133 208.638 75.328C208.958 75.2427 209.251 75.1093 209.518 74.928C209.795 74.736 210.014 74.5013 210.174 74.224C210.334 73.936 210.414 73.5893 210.414 73.184V70.736ZM221.519 76.16C220.708 76.16 219.988 75.9947 219.359 75.664C218.74 75.3333 218.303 74.8587 218.047 74.24L218.735 73.776C218.927 74.3093 219.268 74.7253 219.759 75.024C220.26 75.312 220.868 75.456 221.583 75.456C222.287 75.456 222.836 75.3173 223.231 75.04C223.636 74.7627 223.839 74.3947 223.839 73.936C223.839 73.6267 223.737 73.36 223.535 73.136C223.343 72.9013 222.975 72.7253 222.431 72.608L220.559 72.208C219.791 72.048 219.241 71.792 218.911 71.44C218.591 71.0773 218.431 70.64 218.431 70.128C218.431 69.7013 218.559 69.3173 218.815 68.976C219.071 68.6347 219.423 68.3627 219.871 68.16C220.329 67.9467 220.863 67.84 221.471 67.84C222.271 67.84 222.932 68 223.455 68.32C223.977 68.6293 224.345 69.0987 224.559 69.728L223.887 70.16C223.727 69.5947 223.428 69.184 222.991 68.928C222.564 68.672 222.057 68.544 221.471 68.544C221.023 68.544 220.628 68.6133 220.287 68.752C219.956 68.88 219.695 69.0613 219.503 69.296C219.321 69.52 219.231 69.7813 219.231 70.08C219.231 70.3893 219.337 70.672 219.551 70.928C219.764 71.1733 220.143 71.3547 220.687 71.472L222.607 71.888C223.364 72.048 223.892 72.2933 224.191 72.624C224.489 72.944 224.639 73.344 224.639 73.824C224.639 74.304 224.511 74.72 224.255 75.072C223.999 75.424 223.636 75.696 223.167 75.888C222.697 76.0693 222.148 76.16 221.519 76.16ZM228.205 65.776V73.888C228.205 74.3893 228.322 74.7733 228.557 75.04C228.802 75.296 229.154 75.424 229.613 75.424C229.912 75.424 230.173 75.376 230.397 75.28C230.632 75.1733 230.84 75.024 231.021 74.832L231.325 75.488C231.122 75.6907 230.866 75.856 230.557 75.984C230.248 76.1013 229.901 76.16 229.517 76.16C229.101 76.16 228.733 76.0853 228.413 75.936C228.093 75.776 227.842 75.536 227.661 75.216C227.49 74.896 227.405 74.4907 227.405 74V66L228.205 65.776ZM231.197 68V68.688H225.805V68H231.197ZM235.724 76.16C235.17 76.16 234.674 76.0587 234.236 75.856C233.799 75.6533 233.452 75.3387 233.196 74.912C232.951 74.4747 232.828 73.9307 232.828 73.28V68H233.628V73.088C233.628 73.92 233.826 74.5227 234.22 74.896C234.626 75.2693 235.191 75.456 235.916 75.456C236.343 75.456 236.727 75.3813 237.068 75.232C237.42 75.0827 237.719 74.8747 237.964 74.608C238.21 74.3413 238.396 74.0373 238.524 73.696C238.663 73.3547 238.732 72.9867 238.732 72.592V68H239.532V76H238.812L238.78 74.352C238.546 74.9173 238.162 75.36 237.628 75.68C237.095 76 236.46 76.16 235.724 76.16ZM245.497 76.16C244.804 76.16 244.18 75.9947 243.625 75.664C243.07 75.3333 242.633 74.8587 242.313 74.24C242.004 73.6107 241.849 72.864 241.849 72C241.849 71.1147 242.014 70.3627 242.345 69.744C242.676 69.1253 243.124 68.656 243.689 68.336C244.254 68.0053 244.878 67.84 245.561 67.84C246.308 67.84 246.942 68.0373 247.465 68.432C247.998 68.8267 248.356 69.376 248.537 70.08L248.441 70.144V64.32H249.241V76H248.521L248.473 73.776L248.569 73.744C248.473 74.256 248.276 74.6933 247.977 75.056C247.689 75.4187 247.326 75.696 246.889 75.888C246.462 76.0693 245.998 76.16 245.497 76.16ZM245.593 75.456C246.158 75.456 246.654 75.3173 247.081 75.04C247.508 74.752 247.838 74.3413 248.073 73.808C248.318 73.2747 248.441 72.6507 248.441 71.936C248.441 71.232 248.318 70.6293 248.073 70.128C247.838 69.616 247.508 69.2267 247.081 68.96C246.665 68.6827 246.18 68.544 245.625 68.544C244.708 68.544 243.982 68.8533 243.449 69.472C242.916 70.0907 242.649 70.9333 242.649 72C242.649 73.0667 242.91 73.9093 243.433 74.528C243.966 75.1467 244.686 75.456 245.593 75.456ZM255.36 76.16C254.624 76.16 253.968 75.9947 253.392 75.664C252.816 75.3333 252.363 74.8587 252.032 74.24C251.712 73.6107 251.552 72.864 251.552 72C251.552 71.136 251.712 70.3947 252.032 69.776C252.363 69.1467 252.805 68.6667 253.36 68.336C253.915 68.0053 254.549 67.84 255.264 67.84C255.989 67.84 256.608 68 257.12 68.32C257.632 68.64 258.027 69.088 258.304 69.664C258.581 70.2293 258.72 70.8853 258.72 71.632C258.72 71.728 258.715 71.824 258.704 71.92C258.704 72.0053 258.699 72.0853 258.688 72.16H252.048V71.44H258.336L257.936 71.552C257.925 70.6347 257.68 69.904 257.2 69.36C256.731 68.816 256.08 68.544 255.248 68.544C254.672 68.544 254.165 68.6827 253.728 68.96C253.291 69.2267 252.949 69.6213 252.704 70.144C252.459 70.656 252.336 71.2747 252.336 72C252.336 72.7147 252.459 73.3333 252.704 73.856C252.96 74.3787 253.312 74.7787 253.76 75.056C254.219 75.3227 254.747 75.456 255.344 75.456C255.963 75.456 256.491 75.3227 256.928 75.056C257.376 74.7893 257.723 74.4213 257.968 73.952L258.608 74.32C258.416 74.704 258.16 75.0347 257.84 75.312C257.52 75.5787 257.152 75.7867 256.736 75.936C256.32 76.0853 255.861 76.16 255.36 76.16ZM261.002 76V68H261.722L261.786 70L261.658 69.888C261.807 69.4507 262.031 69.0827 262.33 68.784C262.629 68.4747 262.986 68.24 263.402 68.08C263.818 67.92 264.266 67.84 264.746 67.84C265.343 67.84 265.871 67.952 266.33 68.176C266.789 68.4 267.146 68.7307 267.402 69.168C267.669 69.6053 267.802 70.1547 267.802 70.816V76H267.002V71.072C267.002 70.1973 266.783 69.5573 266.346 69.152C265.919 68.7467 265.359 68.544 264.666 68.544C264.165 68.544 263.695 68.6613 263.258 68.896C262.831 69.12 262.479 69.4507 262.202 69.888C261.935 70.3253 261.802 70.8587 261.802 71.488V76H261.002ZM271.69 65.776V73.888C271.69 74.3893 271.807 74.7733 272.042 75.04C272.287 75.296 272.639 75.424 273.098 75.424C273.396 75.424 273.658 75.376 273.882 75.28C274.116 75.1733 274.324 75.024 274.506 74.832L274.81 75.488C274.607 75.6907 274.351 75.856 274.042 75.984C273.732 76.1013 273.386 76.16 273.002 76.16C272.586 76.16 272.218 76.0853 271.898 75.936C271.578 75.776 271.327 75.536 271.146 75.216C270.975 74.896 270.89 74.4907 270.89 74V66L271.69 65.776ZM274.682 68V68.688H269.29V68H274.682ZM276.729 74.688C276.942 74.688 277.113 74.7573 277.241 74.896C277.379 75.024 277.449 75.1947 277.449 75.408C277.449 75.6213 277.379 75.7973 277.241 75.936C277.113 76.064 276.942 76.128 276.729 76.128C276.515 76.128 276.339 76.064 276.201 75.936C276.073 75.7973 276.009 75.6213 276.009 75.408C276.009 75.1947 276.073 75.024 276.201 74.896C276.339 74.7573 276.515 74.688 276.729 74.688ZM292.712 76H291.864L290.536 72.688H285.496L284.168 76H283.32L287.544 65.44H288.488L292.712 76ZM285.784 71.952H290.248L288.008 66.224L285.784 71.952ZM295.176 64.32V74.112C295.176 74.6027 295.261 74.9493 295.432 75.152C295.602 75.3547 295.869 75.456 296.232 75.456C296.456 75.456 296.632 75.44 296.76 75.408C296.898 75.376 297.058 75.3227 297.24 75.248L297.128 75.952C296.989 76.016 296.829 76.064 296.648 76.096C296.477 76.1387 296.285 76.16 296.072 76.16C295.506 76.16 295.08 76 294.792 75.68C294.514 75.3493 294.376 74.8373 294.376 74.144V64.32H295.176ZM308.772 68H309.652L306.932 76H306.132L303.604 69.04L301.124 76H300.324L297.604 68H298.484L300.74 75.04L303.22 68H304.036L306.532 75.04L308.772 68ZM316.242 70.736C316.242 70.0427 316.055 69.504 315.682 69.12C315.309 68.736 314.775 68.544 314.082 68.544C313.474 68.544 312.951 68.6773 312.514 68.944C312.077 69.2 311.751 69.632 311.538 70.24L310.882 69.824C311.117 69.1947 311.506 68.7093 312.05 68.368C312.605 68.016 313.287 67.84 314.098 67.84C314.685 67.84 315.197 67.9467 315.634 68.16C316.082 68.3627 316.429 68.6667 316.674 69.072C316.919 69.4773 317.042 69.984 317.042 70.592V74.592C317.042 75.1573 317.298 75.44 317.81 75.44C318.034 75.44 318.226 75.4027 318.386 75.328L318.338 75.968C318.157 76.064 317.922 76.112 317.634 76.112C317.389 76.112 317.159 76.064 316.946 75.968C316.733 75.872 316.557 75.712 316.418 75.488C316.29 75.264 316.226 74.96 316.226 74.576V74.144L316.45 74.128C316.354 74.5867 316.141 74.9707 315.81 75.28C315.49 75.5787 315.117 75.8027 314.69 75.952C314.263 76.0907 313.837 76.16 313.41 76.16C312.909 76.16 312.461 76.08 312.066 75.92C311.671 75.76 311.362 75.5307 311.138 75.232C310.914 74.9227 310.802 74.544 310.802 74.096C310.802 73.4987 310.999 73.0187 311.394 72.656C311.799 72.2827 312.365 72.0267 313.09 71.888L316.402 71.232V71.904L313.49 72.48C312.861 72.608 312.391 72.7947 312.082 73.04C311.773 73.2853 311.618 73.6213 311.618 74.048C311.618 74.4853 311.783 74.832 312.114 75.088C312.445 75.3333 312.914 75.456 313.522 75.456C313.831 75.456 314.146 75.4133 314.466 75.328C314.786 75.2427 315.079 75.1093 315.346 74.928C315.623 74.736 315.842 74.5013 316.002 74.224C316.162 73.936 316.242 73.5893 316.242 73.184V70.736ZM325.962 68L322.09 77.472C321.898 77.9627 321.69 78.352 321.466 78.64C321.242 78.928 320.992 79.1307 320.714 79.248C320.437 79.376 320.117 79.44 319.754 79.44C319.434 79.44 319.141 79.392 318.874 79.296C318.608 79.2 318.389 79.0667 318.218 78.896L318.474 78.208C318.634 78.4 318.826 78.5333 319.05 78.608C319.274 78.6933 319.504 78.736 319.738 78.736C320.08 78.736 320.384 78.6347 320.65 78.432C320.917 78.24 321.168 77.856 321.402 77.28L321.93 76L321.082 74.016L318.554 68H319.466L321.914 74.064L322.314 75.136L322.746 73.984L325.098 68H325.962ZM330.159 76.16C329.349 76.16 328.629 75.9947 327.999 75.664C327.381 75.3333 326.943 74.8587 326.687 74.24L327.375 73.776C327.567 74.3093 327.909 74.7253 328.399 75.024C328.901 75.312 329.509 75.456 330.223 75.456C330.927 75.456 331.477 75.3173 331.871 75.04C332.277 74.7627 332.479 74.3947 332.479 73.936C332.479 73.6267 332.378 73.36 332.175 73.136C331.983 72.9013 331.615 72.7253 331.071 72.608L329.199 72.208C328.431 72.048 327.882 71.792 327.551 71.44C327.231 71.0773 327.071 70.64 327.071 70.128C327.071 69.7013 327.199 69.3173 327.455 68.976C327.711 68.6347 328.063 68.3627 328.511 68.16C328.97 67.9467 329.503 67.84 330.111 67.84C330.911 67.84 331.573 68 332.095 68.32C332.618 68.6293 332.986 69.0987 333.199 69.728L332.527 70.16C332.367 69.5947 332.069 69.184 331.631 68.928C331.205 68.672 330.698 68.544 330.111 68.544C329.663 68.544 329.269 68.6133 328.927 68.752C328.597 68.88 328.335 69.0613 328.143 69.296C327.962 69.52 327.871 69.7813 327.871 70.08C327.871 70.3893 327.978 70.672 328.191 70.928C328.405 71.1733 328.783 71.3547 329.327 71.472L331.247 71.888C332.005 72.048 332.533 72.2933 332.831 72.624C333.13 72.944 333.279 73.344 333.279 73.824C333.279 74.304 333.151 74.72 332.895 75.072C332.639 75.424 332.277 75.696 331.807 75.888C331.338 76.0693 330.789 76.16 330.159 76.16ZM340.533 76V68H341.205L341.301 69.68C341.504 69.1147 341.829 68.6667 342.277 68.336C342.725 68.0053 343.264 67.84 343.893 67.84C344.107 67.84 344.299 67.8613 344.469 67.904C344.64 67.9467 344.779 68.016 344.885 68.112L344.709 68.816C344.592 68.7413 344.464 68.6827 344.325 68.64C344.187 68.5973 343.979 68.576 343.701 68.576C343.296 68.576 342.912 68.704 342.549 68.96C342.187 69.2053 341.893 69.552 341.669 70C341.445 70.4373 341.333 70.944 341.333 71.52V76H340.533ZM349.469 67.84C350.216 67.84 350.872 68.0053 351.437 68.336C352.013 68.6667 352.461 69.1467 352.781 69.776C353.112 70.3947 353.277 71.136 353.277 72C353.277 72.864 353.112 73.6107 352.781 74.24C352.461 74.8587 352.013 75.3333 351.437 75.664C350.872 75.9947 350.216 76.16 349.469 76.16C348.723 76.16 348.061 75.9947 347.485 75.664C346.92 75.3333 346.472 74.8587 346.141 74.24C345.821 73.6107 345.661 72.864 345.661 72C345.661 71.136 345.821 70.3947 346.141 69.776C346.472 69.1467 346.92 68.6667 347.485 68.336C348.061 68.0053 348.723 67.84 349.469 67.84ZM349.469 68.528C348.861 68.528 348.333 68.6667 347.885 68.944C347.437 69.2213 347.085 69.6213 346.829 70.144C346.584 70.656 346.461 71.2747 346.461 72C346.461 72.7147 346.584 73.3333 346.829 73.856C347.085 74.3787 347.437 74.7787 347.885 75.056C348.333 75.3333 348.861 75.472 349.469 75.472C350.077 75.472 350.605 75.3333 351.053 75.056C351.501 74.7787 351.848 74.3787 352.093 73.856C352.349 73.3333 352.477 72.7147 352.477 72C352.477 71.2747 352.349 70.656 352.093 70.144C351.848 69.6213 351.501 69.2213 351.053 68.944C350.605 68.6667 350.077 68.528 349.469 68.528ZM358.829 67.84C359.575 67.84 360.231 68.0053 360.797 68.336C361.373 68.6667 361.821 69.1467 362.141 69.776C362.471 70.3947 362.637 71.136 362.637 72C362.637 72.864 362.471 73.6107 362.141 74.24C361.821 74.8587 361.373 75.3333 360.797 75.664C360.231 75.9947 359.575 76.16 358.829 76.16C358.082 76.16 357.421 75.9947 356.845 75.664C356.279 75.3333 355.831 74.8587 355.501 74.24C355.181 73.6107 355.021 72.864 355.021 72C355.021 71.136 355.181 70.3947 355.501 69.776C355.831 69.1467 356.279 68.6667 356.845 68.336C357.421 68.0053 358.082 67.84 358.829 67.84ZM358.829 68.528C358.221 68.528 357.693 68.6667 357.245 68.944C356.797 69.2213 356.445 69.6213 356.189 70.144C355.943 70.656 355.821 71.2747 355.821 72C355.821 72.7147 355.943 73.3333 356.189 73.856C356.445 74.3787 356.797 74.7787 357.245 75.056C357.693 75.3333 358.221 75.472 358.829 75.472C359.437 75.472 359.965 75.3333 360.413 75.056C360.861 74.7787 361.207 74.3787 361.453 73.856C361.709 73.3333 361.837 72.7147 361.837 72C361.837 71.2747 361.709 70.656 361.453 70.144C361.207 69.6213 360.861 69.2213 360.413 68.944C359.965 68.6667 359.437 68.528 358.829 68.528ZM364.924 76V68H365.644L365.692 69.664C365.927 69.088 366.305 68.64 366.828 68.32C367.361 68 367.953 67.84 368.604 67.84C369.297 67.84 369.895 68.0053 370.396 68.336C370.908 68.6667 371.26 69.152 371.452 69.792C371.591 69.3867 371.815 69.04 372.124 68.752C372.433 68.4533 372.796 68.224 373.212 68.064C373.628 67.904 374.06 67.824 374.508 67.824C375.063 67.824 375.564 67.936 376.012 68.16C376.471 68.3733 376.833 68.704 377.1 69.152C377.377 69.5893 377.516 70.1387 377.516 70.8V75.984H376.716V70.88C376.716 70.0907 376.503 69.504 376.076 69.12C375.66 68.7253 375.105 68.528 374.412 68.528C373.911 68.528 373.447 68.6507 373.02 68.896C372.593 69.1307 372.252 69.4667 371.996 69.904C371.751 70.3307 371.628 70.8267 371.628 71.392V76H370.828V70.896C370.828 70.1067 370.615 69.52 370.188 69.136C369.761 68.7413 369.207 68.544 368.524 68.544C368.044 68.544 367.591 68.6613 367.164 68.896C366.737 69.1307 366.391 69.4667 366.124 69.904C365.857 70.3413 365.724 70.864 365.724 71.472V76H364.924ZM387.93 64.24C388.218 64.24 388.474 64.2773 388.698 64.352C388.922 64.4267 389.098 64.5333 389.226 64.672L389.002 65.312C388.863 65.184 388.714 65.0933 388.554 65.04C388.394 64.9867 388.207 64.96 387.994 64.96C387.471 64.96 387.066 65.1093 386.778 65.408C386.49 65.7067 386.346 66.1493 386.346 66.736V68V68.288V76H385.546V66.656C385.546 66.2933 385.594 65.9627 385.69 65.664C385.797 65.3653 385.951 65.1147 386.154 64.912C386.357 64.6987 386.607 64.5333 386.906 64.416C387.205 64.2987 387.546 64.24 387.93 64.24ZM389.162 68V68.688H383.946V68H389.162ZM393.672 67.84C394.419 67.84 395.075 68.0053 395.64 68.336C396.216 68.6667 396.664 69.1467 396.984 69.776C397.315 70.3947 397.48 71.136 397.48 72C397.48 72.864 397.315 73.6107 396.984 74.24C396.664 74.8587 396.216 75.3333 395.64 75.664C395.075 75.9947 394.419 76.16 393.672 76.16C392.926 76.16 392.264 75.9947 391.688 75.664C391.123 75.3333 390.675 74.8587 390.344 74.24C390.024 73.6107 389.864 72.864 389.864 72C389.864 71.136 390.024 70.3947 390.344 69.776C390.675 69.1467 391.123 68.6667 391.688 68.336C392.264 68.0053 392.926 67.84 393.672 67.84ZM393.672 68.528C393.064 68.528 392.536 68.6667 392.088 68.944C391.64 69.2213 391.288 69.6213 391.032 70.144C390.787 70.656 390.664 71.2747 390.664 72C390.664 72.7147 390.787 73.3333 391.032 73.856C391.288 74.3787 391.64 74.7787 392.088 75.056C392.536 75.3333 393.064 75.472 393.672 75.472C394.28 75.472 394.808 75.3333 395.256 75.056C395.704 74.7787 396.051 74.3787 396.296 73.856C396.552 73.3333 396.68 72.7147 396.68 72C396.68 71.2747 396.552 70.656 396.296 70.144C396.051 69.6213 395.704 69.2213 395.256 68.944C394.808 68.6667 394.28 68.528 393.672 68.528ZM399.768 76V68H400.44L400.536 69.68C400.738 69.1147 401.064 68.6667 401.512 68.336C401.96 68.0053 402.498 67.84 403.128 67.84C403.341 67.84 403.533 67.8613 403.704 67.904C403.874 67.9467 404.013 68.016 404.12 68.112L403.944 68.816C403.826 68.7413 403.698 68.6827 403.56 68.64C403.421 68.5973 403.213 68.576 402.936 68.576C402.53 68.576 402.146 68.704 401.784 68.96C401.421 69.2053 401.128 69.552 400.904 70C400.68 70.4373 400.568 70.944 400.568 71.52V76H399.768ZM413.144 76.16C412.333 76.16 411.613 75.9947 410.984 75.664C410.365 75.3333 409.928 74.8587 409.672 74.24L410.36 73.776C410.552 74.3093 410.893 74.7253 411.384 75.024C411.885 75.312 412.493 75.456 413.208 75.456C413.912 75.456 414.461 75.3173 414.856 75.04C415.261 74.7627 415.464 74.3947 415.464 73.936C415.464 73.6267 415.362 73.36 415.16 73.136C414.968 72.9013 414.6 72.7253 414.056 72.608L412.184 72.208C411.416 72.048 410.866 71.792 410.536 71.44C410.216 71.0773 410.056 70.64 410.056 70.128C410.056 69.7013 410.184 69.3173 410.44 68.976C410.696 68.6347 411.048 68.3627 411.496 68.16C411.954 67.9467 412.488 67.84 413.096 67.84C413.896 67.84 414.557 68 415.08 68.32C415.602 68.6293 415.97 69.0987 416.184 69.728L415.512 70.16C415.352 69.5947 415.053 69.184 414.616 68.928C414.189 68.672 413.682 68.544 413.096 68.544C412.648 68.544 412.253 68.6133 411.912 68.752C411.581 68.88 411.32 69.0613 411.128 69.296C410.946 69.52 410.856 69.7813 410.856 70.08C410.856 70.3893 410.962 70.672 411.176 70.928C411.389 71.1733 411.768 71.3547 412.312 71.472L414.232 71.888C414.989 72.048 415.517 72.2933 415.816 72.624C416.114 72.944 416.264 73.344 416.264 73.824C416.264 74.304 416.136 74.72 415.88 75.072C415.624 75.424 415.261 75.696 414.792 75.888C414.322 76.0693 413.773 76.16 413.144 76.16ZM421.766 76.16C421.03 76.16 420.374 75.9947 419.798 75.664C419.222 75.3333 418.769 74.8587 418.438 74.24C418.118 73.6107 417.958 72.864 417.958 72C417.958 71.136 418.118 70.3947 418.438 69.776C418.769 69.1467 419.211 68.6667 419.766 68.336C420.321 68.0053 420.955 67.84 421.67 67.84C422.395 67.84 423.014 68 423.526 68.32C424.038 68.64 424.433 69.088 424.71 69.664C424.987 70.2293 425.126 70.8853 425.126 71.632C425.126 71.728 425.121 71.824 425.11 71.92C425.11 72.0053 425.105 72.0853 425.094 72.16H418.454V71.44H424.742L424.342 71.552C424.331 70.6347 424.086 69.904 423.606 69.36C423.137 68.816 422.486 68.544 421.654 68.544C421.078 68.544 420.571 68.6827 420.134 68.96C419.697 69.2267 419.355 69.6213 419.11 70.144C418.865 70.656 418.742 71.2747 418.742 72C418.742 72.7147 418.865 73.3333 419.11 73.856C419.366 74.3787 419.718 74.7787 420.166 75.056C420.625 75.3227 421.153 75.456 421.75 75.456C422.369 75.456 422.897 75.3227 423.334 75.056C423.782 74.7893 424.129 74.4213 424.374 73.952L425.014 74.32C424.822 74.704 424.566 75.0347 424.246 75.312C423.926 75.5787 423.558 75.7867 423.142 75.936C422.726 76.0853 422.267 76.16 421.766 76.16ZM428.144 64.32V74.112C428.144 74.6027 428.23 74.9493 428.4 75.152C428.571 75.3547 428.838 75.456 429.2 75.456C429.424 75.456 429.6 75.44 429.728 75.408C429.867 75.376 430.027 75.3227 430.208 75.248L430.096 75.952C429.958 76.016 429.798 76.064 429.616 76.096C429.446 76.1387 429.254 76.16 429.04 76.16C428.475 76.16 428.048 76 427.76 75.68C427.483 75.3493 427.344 74.8373 427.344 74.144V64.32H428.144ZM434.727 64.24C435.015 64.24 435.271 64.2773 435.495 64.352C435.719 64.4267 435.895 64.5333 436.023 64.672L435.799 65.312C435.66 65.184 435.511 65.0933 435.351 65.04C435.191 64.9867 435.004 64.96 434.791 64.96C434.268 64.96 433.863 65.1093 433.575 65.408C433.287 65.7067 433.143 66.1493 433.143 66.736V68V68.288V76H432.343V66.656C432.343 66.2933 432.391 65.9627 432.487 65.664C432.594 65.3653 432.748 65.1147 432.951 64.912C433.154 64.6987 433.404 64.5333 433.703 64.416C434.002 64.2987 434.343 64.24 434.727 64.24ZM435.959 68V68.688H430.743V68H435.959ZM441.348 71.344V72.16H436.436V71.344H441.348ZM149.824 85.448C149.621 85.448 149.456 85.3893 149.328 85.272C149.211 85.144 149.152 84.9787 149.152 84.776C149.152 84.5733 149.211 84.4133 149.328 84.296C149.456 84.168 149.621 84.104 149.824 84.104C150.027 84.104 150.187 84.168 150.304 84.296C150.432 84.4133 150.496 84.5733 150.496 84.776C150.496 84.9787 150.432 85.144 150.304 85.272C150.187 85.3893 150.027 85.448 149.824 85.448ZM150.224 87V95H149.424V87H150.224ZM153.065 95V87H153.785L153.833 88.664C154.067 88.088 154.446 87.64 154.969 87.32C155.502 87 156.094 86.84 156.745 86.84C157.438 86.84 158.035 87.0053 158.537 87.336C159.049 87.6667 159.401 88.152 159.593 88.792C159.731 88.3867 159.955 88.04 160.265 87.752C160.574 87.4533 160.937 87.224 161.353 87.064C161.769 86.904 162.201 86.824 162.649 86.824C163.203 86.824 163.705 86.936 164.153 87.16C164.611 87.3733 164.974 87.704 165.241 88.152C165.518 88.5893 165.657 89.1387 165.657 89.8V94.984H164.857V89.88C164.857 89.0907 164.643 88.504 164.217 88.12C163.801 87.7253 163.246 87.528 162.553 87.528C162.051 87.528 161.587 87.6507 161.161 87.896C160.734 88.1307 160.393 88.4667 160.137 88.904C159.891 89.3307 159.769 89.8267 159.769 90.392V95H158.969V89.896C158.969 89.1067 158.755 88.52 158.329 88.136C157.902 87.7413 157.347 87.544 156.665 87.544C156.185 87.544 155.731 87.6613 155.305 87.896C154.878 88.1307 154.531 88.4667 154.265 88.904C153.998 89.3413 153.865 89.864 153.865 90.472V95H153.065ZM168.424 98.36V87H169.144L169.208 89.224L169.096 89.096C169.235 88.6373 169.448 88.2373 169.736 87.896C170.035 87.5547 170.397 87.2933 170.824 87.112C171.251 86.9307 171.715 86.84 172.216 86.84C172.899 86.84 173.512 87.0053 174.056 87.336C174.6 87.6667 175.032 88.1413 175.352 88.76C175.672 89.3787 175.832 90.1253 175.832 91C175.832 91.864 175.672 92.6107 175.352 93.24C175.032 93.8587 174.595 94.3333 174.04 94.664C173.496 94.9947 172.877 95.16 172.184 95.16C171.448 95.16 170.808 94.968 170.264 94.584C169.72 94.1893 169.341 93.6613 169.128 93L169.224 92.856V98.36H168.424ZM172.088 94.456C172.995 94.456 173.709 94.1467 174.232 93.528C174.765 92.9093 175.032 92.0667 175.032 91C175.032 89.9333 174.771 89.0907 174.248 88.472C173.725 87.8533 173.016 87.544 172.12 87.544C171.555 87.544 171.053 87.688 170.616 87.976C170.189 88.2533 169.848 88.6533 169.592 89.176C169.347 89.688 169.224 90.296 169.224 91C169.224 91.6933 169.347 92.3013 169.592 92.824C169.837 93.3467 170.173 93.752 170.6 94.04C171.037 94.3173 171.533 94.456 172.088 94.456ZM178.143 95V87H178.815L178.911 88.68C179.113 88.1147 179.439 87.6667 179.887 87.336C180.335 87.0053 180.873 86.84 181.503 86.84C181.716 86.84 181.908 86.8613 182.079 86.904C182.249 86.9467 182.388 87.016 182.495 87.112L182.319 87.816C182.201 87.7413 182.073 87.6827 181.935 87.64C181.796 87.5973 181.588 87.576 181.311 87.576C180.905 87.576 180.521 87.704 180.159 87.96C179.796 88.2053 179.503 88.552 179.279 89C179.055 89.4373 178.943 89.944 178.943 90.52V95H178.143ZM187.079 86.84C187.825 86.84 188.481 87.0053 189.047 87.336C189.623 87.6667 190.071 88.1467 190.391 88.776C190.721 89.3947 190.887 90.136 190.887 91C190.887 91.864 190.721 92.6107 190.391 93.24C190.071 93.8587 189.623 94.3333 189.047 94.664C188.481 94.9947 187.825 95.16 187.079 95.16C186.332 95.16 185.671 94.9947 185.095 94.664C184.529 94.3333 184.081 93.8587 183.751 93.24C183.431 92.6107 183.271 91.864 183.271 91C183.271 90.136 183.431 89.3947 183.751 88.776C184.081 88.1467 184.529 87.6667 185.095 87.336C185.671 87.0053 186.332 86.84 187.079 86.84ZM187.079 87.528C186.471 87.528 185.943 87.6667 185.495 87.944C185.047 88.2213 184.695 88.6213 184.439 89.144C184.193 89.656 184.071 90.2747 184.071 91C184.071 91.7147 184.193 92.3333 184.439 92.856C184.695 93.3787 185.047 93.7787 185.495 94.056C185.943 94.3333 186.471 94.472 187.079 94.472C187.687 94.472 188.215 94.3333 188.663 94.056C189.111 93.7787 189.457 93.3787 189.703 92.856C189.959 92.3333 190.087 91.7147 190.087 91C190.087 90.2747 189.959 89.656 189.703 89.144C189.457 88.6213 189.111 88.2213 188.663 87.944C188.215 87.6667 187.687 87.528 187.079 87.528ZM198.553 87H199.401L196.057 95H195.257L191.913 87H192.809L195.673 94.168L198.553 87ZM204.251 95.16C203.515 95.16 202.859 94.9947 202.283 94.664C201.707 94.3333 201.253 93.8587 200.923 93.24C200.603 92.6107 200.443 91.864 200.443 91C200.443 90.136 200.603 89.3947 200.923 88.776C201.253 88.1467 201.696 87.6667 202.251 87.336C202.805 87.0053 203.44 86.84 204.155 86.84C204.88 86.84 205.499 87 206.011 87.32C206.523 87.64 206.917 88.088 207.195 88.664C207.472 89.2293 207.611 89.8853 207.611 90.632C207.611 90.728 207.605 90.824 207.595 90.92C207.595 91.0053 207.589 91.0853 207.579 91.16H200.939V90.44H207.227L206.827 90.552C206.816 89.6347 206.571 88.904 206.091 88.36C205.621 87.816 204.971 87.544 204.139 87.544C203.563 87.544 203.056 87.6827 202.619 87.96C202.181 88.2267 201.84 88.6213 201.595 89.144C201.349 89.656 201.227 90.2747 201.227 91C201.227 91.7147 201.349 92.3333 201.595 92.856C201.851 93.3787 202.203 93.7787 202.651 94.056C203.109 94.3227 203.637 94.456 204.235 94.456C204.853 94.456 205.381 94.3227 205.819 94.056C206.267 93.7893 206.613 93.4213 206.859 92.952L207.499 93.32C207.307 93.704 207.051 94.0347 206.731 94.312C206.411 94.5787 206.043 94.7867 205.627 94.936C205.211 95.0853 204.752 95.16 204.251 95.16ZM209.893 95V87H210.613L210.661 88.664C210.895 88.088 211.274 87.64 211.797 87.32C212.33 87 212.922 86.84 213.573 86.84C214.266 86.84 214.863 87.0053 215.365 87.336C215.877 87.6667 216.229 88.152 216.421 88.792C216.559 88.3867 216.783 88.04 217.093 87.752C217.402 87.4533 217.765 87.224 218.181 87.064C218.597 86.904 219.029 86.824 219.477 86.824C220.031 86.824 220.533 86.936 220.981 87.16C221.439 87.3733 221.802 87.704 222.069 88.152C222.346 88.5893 222.485 89.1387 222.485 89.8V94.984H221.685V89.88C221.685 89.0907 221.471 88.504 221.045 88.12C220.629 87.7253 220.074 87.528 219.381 87.528C218.879 87.528 218.415 87.6507 217.989 87.896C217.562 88.1307 217.221 88.4667 216.965 88.904C216.719 89.3307 216.597 89.8267 216.597 90.392V95H215.797V89.896C215.797 89.1067 215.583 88.52 215.157 88.136C214.73 87.7413 214.175 87.544 213.493 87.544C213.013 87.544 212.559 87.6613 212.133 87.896C211.706 88.1307 211.359 88.4667 211.093 88.904C210.826 89.3413 210.693 89.864 210.693 90.472V95H209.893ZM228.516 95.16C227.78 95.16 227.124 94.9947 226.548 94.664C225.972 94.3333 225.519 93.8587 225.188 93.24C224.868 92.6107 224.708 91.864 224.708 91C224.708 90.136 224.868 89.3947 225.188 88.776C225.519 88.1467 225.961 87.6667 226.516 87.336C227.071 87.0053 227.705 86.84 228.42 86.84C229.145 86.84 229.764 87 230.276 87.32C230.788 87.64 231.183 88.088 231.46 88.664C231.737 89.2293 231.876 89.8853 231.876 90.632C231.876 90.728 231.871 90.824 231.86 90.92C231.86 91.0053 231.855 91.0853 231.844 91.16H225.204V90.44H231.492L231.092 90.552C231.081 89.6347 230.836 88.904 230.356 88.36C229.887 87.816 229.236 87.544 228.404 87.544C227.828 87.544 227.321 87.6827 226.884 87.96C226.447 88.2267 226.105 88.6213 225.86 89.144C225.615 89.656 225.492 90.2747 225.492 91C225.492 91.7147 225.615 92.3333 225.86 92.856C226.116 93.3787 226.468 93.7787 226.916 94.056C227.375 94.3227 227.903 94.456 228.5 94.456C229.119 94.456 229.647 94.3227 230.084 94.056C230.532 93.7893 230.879 93.4213 231.124 92.952L231.764 93.32C231.572 93.704 231.316 94.0347 230.996 94.312C230.676 94.5787 230.308 94.7867 229.892 94.936C229.476 95.0853 229.017 95.16 228.516 95.16ZM234.158 95V87H234.878L234.942 89L234.814 88.888C234.964 88.4507 235.188 88.0827 235.486 87.784C235.785 87.4747 236.142 87.24 236.558 87.08C236.974 86.92 237.422 86.84 237.902 86.84C238.5 86.84 239.028 86.952 239.486 87.176C239.945 87.4 240.302 87.7307 240.558 88.168C240.825 88.6053 240.958 89.1547 240.958 89.816V95H240.158V90.072C240.158 89.1973 239.94 88.5573 239.502 88.152C239.076 87.7467 238.516 87.544 237.822 87.544C237.321 87.544 236.852 87.6613 236.414 87.896C235.988 88.12 235.636 88.4507 235.358 88.888C235.092 89.3253 234.958 89.8587 234.958 90.488V95H234.158ZM244.846 84.776V92.888C244.846 93.3893 244.963 93.7733 245.198 94.04C245.443 94.296 245.795 94.424 246.254 94.424C246.552 94.424 246.814 94.376 247.038 94.28C247.272 94.1733 247.48 94.024 247.662 93.832L247.966 94.488C247.763 94.6907 247.507 94.856 247.198 94.984C246.888 95.1013 246.542 95.16 246.158 95.16C245.742 95.16 245.374 95.0853 245.054 94.936C244.734 94.776 244.483 94.536 244.302 94.216C244.131 93.896 244.046 93.4907 244.046 93V85L244.846 84.776ZM247.838 87V87.688H242.446V87H247.838ZM249.885 93.688C250.098 93.688 250.269 93.7573 250.397 93.896C250.536 94.024 250.605 94.1947 250.605 94.408C250.605 94.6213 250.536 94.7973 250.397 94.936C250.269 95.064 250.098 95.128 249.885 95.128C249.672 95.128 249.496 95.064 249.357 94.936C249.229 94.7973 249.165 94.6213 249.165 94.408C249.165 94.1947 249.229 94.024 249.357 93.896C249.496 93.7573 249.672 93.688 249.885 93.688Z" fill="#303030"/>
<path d="M70.9336 84.5V77.6" stroke="#303030" stroke-width="2" stroke-linecap="round"/>
<path d="M88 84.5V70.7" stroke="#303030" stroke-width="2" stroke-linecap="round"/>
<path d="M105.066 84.5001V63.7667" stroke="#303030" stroke-width="2" stroke-linecap="round"/>
<path d="M105.067 43.5L103.534 45.3C95.0336 55.2333 83.6336 62.2667 70.9336 65.4333" stroke="#303030" stroke-width="2" stroke-linecap="round"/>
<path d="M95.2998 43.5H105.066V53.2333" stroke="#303030" stroke-width="2" stroke-linecap="round" stroke-linejoin="round"/>
<path d="M78.0003 97.3333H98.0003C114.667 97.3333 121.334 90.6666 121.334 74V54C121.334 37.3333 114.667 30.6666 98.0003 30.6666H78.0003C61.3337 30.6666 54.667 37.3333 54.667 54V74C54.667 90.6666 61.3337 97.3333 78.0003 97.3333Z" stroke="#303030" stroke-width="2" stroke-linecap="round" stroke-linejoin="round"/>
</svg>
