<svg width="512" height="105" viewBox="0 0 512 105" fill="none" xmlns="http://www.w3.org/2000/svg">
<path d="M136.045 21.7726C135.858 21.1987 135.611 20.6845 135.304 20.23C135.003 19.7698 134.642 19.3777 134.222 19.0538C133.807 18.73 133.335 18.4828 132.807 18.3124C132.278 18.1419 131.699 18.0567 131.068 18.0567C130.034 18.0567 129.094 18.3237 128.247 18.8578C127.401 19.3919 126.727 20.1788 126.227 21.2186C125.727 22.2584 125.477 23.534 125.477 25.0453C125.477 26.5567 125.73 27.8323 126.236 28.872C126.741 29.9118 127.426 30.6987 128.29 31.2328C129.153 31.7669 130.125 32.034 131.205 32.034C132.205 32.034 133.085 31.8209 133.847 31.3948C134.614 30.9629 135.21 30.355 135.636 29.5709C136.068 28.7811 136.284 27.8521 136.284 26.784L136.932 26.9203H131.682V25.0453H138.33V26.9203C138.33 28.3578 138.023 29.6078 137.409 30.6703C136.801 31.7328 135.96 32.5567 134.886 33.1419C133.818 33.7215 132.591 34.0112 131.205 34.0112C129.659 34.0112 128.301 33.6476 127.131 32.9203C125.966 32.1931 125.057 31.159 124.403 29.8181C123.756 28.4771 123.432 26.8862 123.432 25.0453C123.432 23.6646 123.616 22.4232 123.986 21.3209C124.361 20.2129 124.889 19.2698 125.571 18.4913C126.253 17.7129 127.06 17.1163 127.991 16.7016C128.923 16.2868 129.949 16.0794 131.068 16.0794C131.989 16.0794 132.847 16.2186 133.642 16.497C134.443 16.7698 135.156 17.159 135.781 17.6646C136.412 18.1646 136.938 18.7641 137.358 19.4629C137.778 20.1561 138.068 20.926 138.227 21.7726H136.045ZM141.677 33.7726V20.6817H143.62V22.659H143.756C143.995 22.0112 144.427 21.4857 145.052 21.0823C145.677 20.6788 146.381 20.4771 147.165 20.4771C147.313 20.4771 147.498 20.48 147.719 20.4857C147.941 20.4913 148.109 20.4999 148.222 20.5112V22.5567C148.154 22.5396 147.998 22.5141 147.754 22.48C147.515 22.4402 147.262 22.4203 146.995 22.4203C146.359 22.4203 145.79 22.5538 145.29 22.8209C144.796 23.0823 144.404 23.4459 144.114 23.9118C143.83 24.372 143.688 24.8976 143.688 25.4885V33.7726H141.677ZM155.526 34.0453C154.344 34.0453 153.308 33.7641 152.415 33.2016C151.529 32.6391 150.836 31.8521 150.336 30.8408C149.842 29.8294 149.594 28.6476 149.594 27.2953C149.594 25.9317 149.842 24.7413 150.336 23.7243C150.836 22.7073 151.529 21.9175 152.415 21.355C153.308 20.7925 154.344 20.5112 155.526 20.5112C156.708 20.5112 157.742 20.7925 158.629 21.355C159.521 21.9175 160.214 22.7073 160.708 23.7243C161.208 24.7413 161.458 25.9317 161.458 27.2953C161.458 28.6476 161.208 29.8294 160.708 30.8408C160.214 31.8521 159.521 32.6391 158.629 33.2016C157.742 33.7641 156.708 34.0453 155.526 34.0453ZM155.526 32.2385C156.424 32.2385 157.163 32.0084 157.742 31.5482C158.322 31.0879 158.751 30.4828 159.029 29.7328C159.308 28.9828 159.447 28.1703 159.447 27.2953C159.447 26.4203 159.308 25.605 159.029 24.8493C158.751 24.0936 158.322 23.4828 157.742 23.0169C157.163 22.551 156.424 22.3181 155.526 22.3181C154.629 22.3181 153.89 22.551 153.31 23.0169C152.731 23.4828 152.302 24.0936 152.023 24.8493C151.745 25.605 151.606 26.4203 151.606 27.2953C151.606 28.1703 151.745 28.9828 152.023 29.7328C152.302 30.4828 152.731 31.0879 153.31 31.5482C153.89 32.0084 154.629 32.2385 155.526 32.2385ZM167.049 33.7726L163.06 20.6817H165.174L168.004 30.7044H168.14L170.935 20.6817H173.083L175.844 30.6703H175.981L178.81 20.6817H180.924L176.935 33.7726H174.958L172.094 23.7158H171.89L169.026 33.7726H167.049ZM189.276 20.6817V22.3862H182.492V20.6817H189.276ZM184.469 17.5453H186.481V30.0226C186.481 30.5908 186.563 31.0169 186.728 31.301C186.898 31.5794 187.114 31.7669 187.376 31.8635C187.643 31.9544 187.924 31.9999 188.219 31.9999C188.441 31.9999 188.623 31.9885 188.765 31.9658C188.907 31.9374 189.021 31.9146 189.106 31.8976L189.515 33.7044C189.379 33.7556 189.188 33.8067 188.944 33.8578C188.7 33.9146 188.39 33.9431 188.015 33.9431C187.447 33.9431 186.89 33.8209 186.344 33.5766C185.805 33.3323 185.356 32.9601 184.998 32.4601C184.646 31.9601 184.469 31.3294 184.469 30.5681V17.5453ZM194.594 25.8976V33.7726H192.583V16.3181H194.594V22.7271H194.765C195.072 22.051 195.532 21.5141 196.146 21.1163C196.765 20.7129 197.589 20.5112 198.617 20.5112C199.509 20.5112 200.29 20.6902 200.961 21.0482C201.631 21.4004 202.151 21.9431 202.521 22.676C202.896 23.4033 203.083 24.3294 203.083 25.4544V33.7726H201.072V25.5908C201.072 24.551 200.802 23.747 200.262 23.1788C199.728 22.605 198.987 22.3181 198.038 22.3181C197.379 22.3181 196.788 22.4573 196.265 22.7357C195.748 23.0141 195.339 23.4203 195.038 23.9544C194.742 24.4885 194.594 25.1362 194.594 25.8976ZM213.786 16.3181H216.308L222.24 30.8067H222.445L228.376 16.3181H230.899V33.7726H228.922V20.5112H228.751L223.297 33.7726H221.388L215.933 20.5112H215.763V33.7726H213.786V16.3181ZM234.864 33.7726V20.6817H236.876V33.7726H234.864ZM235.887 18.4999C235.495 18.4999 235.157 18.3663 234.873 18.0993C234.594 17.8323 234.455 17.5112 234.455 17.1362C234.455 16.7612 234.594 16.4402 234.873 16.1732C235.157 15.9061 235.495 15.7726 235.887 15.7726C236.279 15.7726 236.614 15.9061 236.893 16.1732C237.177 16.4402 237.319 16.7612 237.319 17.1362C237.319 17.5112 237.177 17.8323 236.893 18.0993C236.614 18.3663 236.279 18.4999 235.887 18.4999ZM242.571 25.8976V33.7726H240.56V20.6817H242.503V22.7271H242.673C242.98 22.0624 243.446 21.5283 244.071 21.1249C244.696 20.7158 245.503 20.5112 246.491 20.5112C247.378 20.5112 248.153 20.6931 248.818 21.0567C249.483 21.4146 250 21.9601 250.369 22.6931C250.739 23.4203 250.923 24.3408 250.923 25.4544V33.7726H248.912V25.5908C248.912 24.5624 248.645 23.7612 248.111 23.1874C247.577 22.6078 246.844 22.3181 245.912 22.3181C245.27 22.3181 244.696 22.4573 244.19 22.7357C243.69 23.0141 243.295 23.4203 243.006 23.9544C242.716 24.4885 242.571 25.1362 242.571 25.8976ZM259.542 34.0453C258.451 34.0453 257.488 33.7698 256.653 33.2186C255.817 32.6618 255.164 31.8777 254.692 30.8663C254.221 29.8493 253.985 28.6476 253.985 27.2612C253.985 25.8862 254.221 24.6931 254.692 23.6817C255.164 22.6703 255.82 21.8891 256.661 21.3379C257.502 20.7868 258.474 20.5112 259.576 20.5112C260.428 20.5112 261.102 20.6533 261.596 20.9374C262.096 21.2158 262.477 21.534 262.738 21.8919C263.005 22.2442 263.212 22.534 263.36 22.7612H263.531V16.3181H265.542V33.7726H263.599V31.7612H263.36C263.212 31.9999 263.002 32.301 262.729 32.6646C262.457 33.0226 262.067 33.3436 261.562 33.6277C261.056 33.9061 260.383 34.0453 259.542 34.0453ZM259.815 32.2385C260.621 32.2385 261.303 32.0283 261.86 31.6078C262.417 31.1817 262.84 30.5936 263.13 29.8436C263.42 29.0879 263.565 28.2158 263.565 27.2271C263.565 26.2499 263.423 25.3948 263.138 24.6618C262.854 23.9232 262.434 23.3493 261.877 22.9402C261.32 22.5254 260.633 22.3181 259.815 22.3181C258.962 22.3181 258.252 22.5368 257.684 22.9743C257.121 23.4061 256.698 23.9942 256.414 24.7385C256.136 25.4771 255.996 26.3067 255.996 27.2271C255.996 28.159 256.138 29.0056 256.423 29.7669C256.712 30.5226 257.138 31.1249 257.701 31.5737C258.269 32.0169 258.974 32.2385 259.815 32.2385ZM278.778 23.6135L276.971 24.1249C276.857 23.8237 276.69 23.5311 276.468 23.247C276.252 22.9573 275.957 22.7186 275.582 22.5311C275.207 22.3436 274.727 22.2499 274.141 22.2499C273.34 22.2499 272.673 22.4345 272.138 22.8038C271.61 23.1675 271.346 23.6306 271.346 24.1931C271.346 24.6931 271.528 25.0879 271.891 25.3777C272.255 25.6675 272.823 25.909 273.596 26.1021L275.539 26.5794C276.71 26.8635 277.582 27.2982 278.156 27.8834C278.729 28.4629 279.016 29.2101 279.016 30.1249C279.016 30.8749 278.8 31.5453 278.369 32.1362C277.942 32.7271 277.346 33.1931 276.579 33.534C275.812 33.8749 274.92 34.0453 273.903 34.0453C272.567 34.0453 271.462 33.7556 270.587 33.176C269.712 32.5965 269.158 31.7499 268.925 30.6362L270.835 30.159C271.016 30.8635 271.36 31.3919 271.866 31.7442C272.377 32.0965 273.045 32.2726 273.869 32.2726C274.806 32.2726 275.55 32.0737 276.102 31.676C276.658 31.2726 276.937 30.7896 276.937 30.2271C276.937 29.7726 276.778 29.3919 276.46 29.0851C276.141 28.7726 275.653 28.5396 274.994 28.3862L272.812 27.8749C271.613 27.5908 270.732 27.1504 270.17 26.5538C269.613 25.9516 269.335 25.1987 269.335 24.2953C269.335 23.5567 269.542 22.9033 269.957 22.3351C270.377 21.7669 270.948 21.3209 271.67 20.997C272.397 20.6732 273.221 20.5112 274.141 20.5112C275.437 20.5112 276.454 20.7953 277.192 21.3635C277.937 21.9317 278.465 22.6817 278.778 23.6135ZM287.533 34.0453C286.271 34.0453 285.183 33.7669 284.268 33.2101C283.359 32.6476 282.658 31.8635 282.163 30.8578C281.675 29.8465 281.43 28.6703 281.43 27.3294C281.43 25.9885 281.675 24.8067 282.163 23.784C282.658 22.7556 283.345 21.9544 284.226 21.3806C285.112 20.801 286.146 20.5112 287.328 20.5112C288.01 20.5112 288.683 20.6249 289.348 20.8521C290.013 21.0794 290.618 21.4487 291.163 21.9601C291.709 22.4658 292.143 23.1362 292.467 23.9715C292.791 24.8067 292.953 25.8351 292.953 27.0567V27.909H282.862V26.1703H290.908C290.908 25.4317 290.76 24.7726 290.464 24.1931C290.175 23.6135 289.76 23.1561 289.22 22.8209C288.686 22.4857 288.055 22.3181 287.328 22.3181C286.527 22.3181 285.834 22.5169 285.249 22.9146C284.669 23.3067 284.223 23.8181 283.911 24.4487C283.598 25.0794 283.442 25.7556 283.442 26.4771V27.6362C283.442 28.6249 283.612 29.4629 283.953 30.1504C284.3 30.8323 284.78 31.3521 285.393 31.7101C286.007 32.0624 286.72 32.2385 287.533 32.2385C288.061 32.2385 288.538 32.1646 288.964 32.0169C289.396 31.8635 289.768 31.6362 290.081 31.3351C290.393 31.0283 290.635 30.6476 290.805 30.1931L292.749 30.7385C292.544 31.3976 292.2 31.9771 291.717 32.4771C291.234 32.9715 290.638 33.3578 289.928 33.6362C289.217 33.909 288.419 34.0453 287.533 34.0453ZM301.706 20.6817V22.3862H294.922V20.6817H301.706ZM296.899 17.5453H298.911V30.0226C298.911 30.5908 298.993 31.0169 299.158 31.301C299.328 31.5794 299.544 31.7669 299.805 31.8635C300.072 31.9544 300.354 31.9999 300.649 31.9999C300.871 31.9999 301.053 31.9885 301.195 31.9658C301.337 31.9374 301.45 31.9146 301.536 31.8976L301.945 33.7044C301.808 33.7556 301.618 33.8067 301.374 33.8578C301.129 33.9146 300.82 33.9431 300.445 33.9431C299.876 33.9431 299.32 33.8209 298.774 33.5766C298.234 33.3323 297.786 32.9601 297.428 32.4601C297.075 31.9601 296.899 31.3294 296.899 30.5681V17.5453ZM123.886 71.7726H122.409L126.682 60.1362H128.136L132.409 71.7726H130.932L127.455 61.9771H127.364L123.886 71.7726ZM124.432 67.2271H130.386V68.4771H124.432V67.2271ZM135.381 60.1362V71.7726H134.04V60.1362H135.381ZM139.814 71.7726L137.155 63.0453H138.564L140.45 69.7271H140.541L142.405 63.0453H143.837L145.678 69.7044H145.768L147.655 63.0453H149.064L146.405 71.7726H145.087L143.178 65.0681H143.041L141.132 71.7726H139.814ZM153.405 71.9771C152.852 71.9771 152.35 71.873 151.899 71.6646C151.448 71.4525 151.09 71.1476 150.825 70.7499C150.56 70.3484 150.428 69.8635 150.428 69.2953C150.428 68.7953 150.526 68.39 150.723 68.0794C150.92 67.765 151.183 67.5188 151.513 67.3408C151.842 67.1627 152.206 67.0302 152.604 66.9431C153.005 66.8521 153.409 66.7802 153.814 66.7271C154.344 66.659 154.774 66.6078 155.104 66.5737C155.437 66.5359 155.679 66.4734 155.831 66.3862C155.986 66.2991 156.064 66.1476 156.064 65.9317V65.8862C156.064 65.3256 155.911 64.89 155.604 64.5794C155.301 64.2688 154.84 64.1135 154.223 64.1135C153.583 64.1135 153.081 64.2537 152.717 64.534C152.354 64.8143 152.098 65.1135 151.95 65.4317L150.678 64.9771C150.905 64.4468 151.208 64.034 151.587 63.7385C151.969 63.4393 152.386 63.2309 152.837 63.1135C153.291 62.9923 153.738 62.9317 154.178 62.9317C154.458 62.9317 154.78 62.9658 155.143 63.034C155.511 63.0984 155.865 63.2328 156.206 63.4374C156.551 63.6419 156.837 63.9506 157.064 64.3635C157.291 64.7764 157.405 65.3294 157.405 66.0226V71.7726H156.064V70.5908H155.996C155.905 70.7802 155.753 70.9828 155.541 71.1987C155.329 71.4146 155.047 71.5984 154.695 71.7499C154.342 71.9014 153.912 71.9771 153.405 71.9771ZM153.609 70.7726C154.14 70.7726 154.587 70.6684 154.95 70.4601C155.318 70.2518 155.594 69.9828 155.78 69.6533C155.969 69.3237 156.064 68.9771 156.064 68.6135V67.3862C156.007 67.4544 155.882 67.5169 155.689 67.5737C155.5 67.6268 155.28 67.6741 155.03 67.7158C154.784 67.7537 154.543 67.7877 154.308 67.8181C154.077 67.8446 153.89 67.8673 153.746 67.8862C153.397 67.9317 153.071 68.0056 152.768 68.1078C152.469 68.2063 152.227 68.3559 152.041 68.5567C151.859 68.7537 151.768 69.0226 151.768 69.3635C151.768 69.8294 151.941 70.1817 152.286 70.4203C152.634 70.6552 153.075 70.7726 153.609 70.7726ZM160.403 75.0453C160.176 75.0453 159.973 75.0264 159.795 74.9885C159.617 74.9544 159.494 74.9203 159.426 74.8862L159.767 73.7044C160.093 73.7877 160.381 73.8181 160.631 73.7953C160.881 73.7726 161.102 73.6609 161.295 73.4601C161.492 73.2631 161.672 72.9431 161.835 72.4999L162.085 71.8181L158.858 63.0453H160.312L162.722 69.9999H162.812L165.222 63.0453H166.676L162.972 73.0453C162.805 73.4961 162.598 73.8692 162.352 74.1646C162.106 74.4639 161.82 74.6855 161.494 74.8294C161.172 74.9734 160.809 75.0453 160.403 75.0453ZM174.628 64.9999L173.423 65.3408C173.348 65.14 173.236 64.9449 173.088 64.7556C172.944 64.5624 172.747 64.4033 172.497 64.2783C172.247 64.1533 171.927 64.0908 171.537 64.0908C171.003 64.0908 170.558 64.2139 170.202 64.4601C169.849 64.7025 169.673 65.0112 169.673 65.3862C169.673 65.7196 169.795 65.9828 170.037 66.176C170.279 66.3692 170.658 66.5302 171.173 66.659L172.469 66.9771C173.249 67.1665 173.83 67.4563 174.213 67.8465C174.596 68.2328 174.787 68.7309 174.787 69.3408C174.787 69.8408 174.643 70.2877 174.355 70.6817C174.071 71.0756 173.673 71.3862 173.162 71.6135C172.651 71.8408 172.056 71.9544 171.378 71.9544C170.488 71.9544 169.751 71.7612 169.168 71.3749C168.584 70.9885 168.215 70.4241 168.06 69.6817L169.332 69.3635C169.454 69.8332 169.683 70.1855 170.02 70.4203C170.361 70.6552 170.806 70.7726 171.355 70.7726C171.98 70.7726 172.476 70.64 172.844 70.3749C173.215 70.1059 173.401 69.784 173.401 69.409C173.401 69.1059 173.295 68.8521 173.082 68.6476C172.87 68.4393 172.545 68.284 172.105 68.1817L170.651 67.8408C169.851 67.6514 169.264 67.3578 168.889 66.9601C168.518 66.5586 168.332 66.0567 168.332 65.4544C168.332 64.962 168.471 64.5264 168.747 64.1476C169.027 63.7688 169.408 63.4715 169.889 63.2556C170.374 63.0396 170.923 62.9317 171.537 62.9317C172.401 62.9317 173.079 63.1211 173.571 63.4999C174.067 63.8787 174.42 64.3787 174.628 64.9999ZM183.874 71.9771C183.321 71.9771 182.819 71.873 182.368 71.6646C181.917 71.4525 181.559 71.1476 181.294 70.7499C181.029 70.3484 180.896 69.8635 180.896 69.2953C180.896 68.7953 180.995 68.39 181.192 68.0794C181.389 67.765 181.652 67.5188 181.982 67.3408C182.311 67.1627 182.675 67.0302 183.072 66.9431C183.474 66.8521 183.877 66.7802 184.283 66.7271C184.813 66.659 185.243 66.6078 185.572 66.5737C185.906 66.5359 186.148 66.4734 186.3 66.3862C186.455 66.2991 186.533 66.1476 186.533 65.9317V65.8862C186.533 65.3256 186.379 64.89 186.072 64.5794C185.769 64.2688 185.309 64.1135 184.692 64.1135C184.052 64.1135 183.55 64.2537 183.186 64.534C182.822 64.8143 182.567 65.1135 182.419 65.4317L181.146 64.9771C181.374 64.4468 181.677 64.034 182.055 63.7385C182.438 63.4393 182.855 63.2309 183.305 63.1135C183.76 62.9923 184.207 62.9317 184.646 62.9317C184.927 62.9317 185.249 62.9658 185.612 63.034C185.98 63.0984 186.334 63.2328 186.675 63.4374C187.019 63.6419 187.305 63.9506 187.533 64.3635C187.76 64.7764 187.874 65.3294 187.874 66.0226V71.7726H186.533V70.5908H186.464C186.374 70.7802 186.222 70.9828 186.01 71.1987C185.798 71.4146 185.516 71.5984 185.163 71.7499C184.811 71.9014 184.381 71.9771 183.874 71.9771ZM184.078 70.7726C184.608 70.7726 185.055 70.6684 185.419 70.4601C185.786 70.2518 186.063 69.9828 186.249 69.6533C186.438 69.3237 186.533 68.9771 186.533 68.6135V67.3862C186.476 67.4544 186.351 67.5169 186.158 67.5737C185.968 67.6268 185.749 67.6741 185.499 67.7158C185.252 67.7537 185.012 67.7877 184.777 67.8181C184.546 67.8446 184.358 67.8673 184.214 67.8862C183.866 67.9317 183.54 68.0056 183.237 68.1078C182.938 68.2063 182.696 68.3559 182.51 68.5567C182.328 68.7537 182.237 69.0226 182.237 69.3635C182.237 69.8294 182.41 70.1817 182.754 70.4203C183.103 70.6552 183.544 70.7726 184.078 70.7726ZM201.003 64.9999L199.798 65.3408C199.723 65.14 199.611 64.9449 199.463 64.7556C199.319 64.5624 199.122 64.4033 198.872 64.2783C198.622 64.1533 198.302 64.0908 197.912 64.0908C197.378 64.0908 196.933 64.2139 196.577 64.4601C196.224 64.7025 196.048 65.0112 196.048 65.3862C196.048 65.7196 196.17 65.9828 196.412 66.176C196.654 66.3692 197.033 66.5302 197.548 66.659L198.844 66.9771C199.624 67.1665 200.205 67.4563 200.588 67.8465C200.971 68.2328 201.162 68.7309 201.162 69.3408C201.162 69.8408 201.018 70.2877 200.73 70.6817C200.446 71.0756 200.048 71.3862 199.537 71.6135C199.026 71.8408 198.431 71.9544 197.753 71.9544C196.863 71.9544 196.126 71.7612 195.543 71.3749C194.959 70.9885 194.59 70.4241 194.435 69.6817L195.707 69.3635C195.829 69.8332 196.058 70.1855 196.395 70.4203C196.736 70.6552 197.181 70.7726 197.73 70.7726C198.355 70.7726 198.851 70.64 199.219 70.3749C199.59 70.1059 199.776 69.784 199.776 69.409C199.776 69.1059 199.67 68.8521 199.457 68.6476C199.245 68.4393 198.92 68.284 198.48 68.1817L197.026 67.8408C196.226 67.6514 195.639 67.3578 195.264 66.9601C194.893 66.5586 194.707 66.0567 194.707 65.4544C194.707 64.962 194.846 64.5264 195.122 64.1476C195.402 63.7688 195.783 63.4715 196.264 63.2556C196.749 63.0396 197.298 62.9317 197.912 62.9317C198.776 62.9317 199.454 63.1211 199.946 63.4999C200.442 63.8787 200.795 64.3787 201.003 64.9999ZM206.976 63.0453V64.1817H202.453V63.0453H206.976ZM203.771 60.9544H205.112V69.2726C205.112 69.6514 205.167 69.9355 205.277 70.1249C205.391 70.3105 205.535 70.4355 205.709 70.4999C205.887 70.5605 206.074 70.5908 206.271 70.5908C206.419 70.5908 206.54 70.5832 206.635 70.5681C206.73 70.5491 206.805 70.534 206.862 70.5226L207.135 71.7271C207.044 71.7612 206.917 71.7953 206.754 71.8294C206.591 71.8673 206.385 71.8862 206.135 71.8862C205.756 71.8862 205.385 71.8048 205.021 71.6419C204.661 71.479 204.362 71.2309 204.124 70.8976C203.889 70.5643 203.771 70.1438 203.771 69.6362V60.9544ZM214.493 68.2044V63.0453H215.834V71.7726H214.493V70.2953H214.402C214.197 70.7385 213.879 71.1154 213.447 71.426C213.016 71.7328 212.47 71.8862 211.811 71.8862C211.266 71.8862 210.781 71.7669 210.357 71.5283C209.932 71.2859 209.599 70.9222 209.357 70.4374C209.114 69.9487 208.993 69.3332 208.993 68.5908V63.0453H210.334V68.4999C210.334 69.1362 210.512 69.6438 210.868 70.0226C211.228 70.4014 211.686 70.5908 212.243 70.5908C212.576 70.5908 212.915 70.5056 213.26 70.3351C213.608 70.1646 213.9 69.9033 214.135 69.551C214.374 69.1987 214.493 68.7499 214.493 68.2044ZM221.585 71.9544C220.858 71.9544 220.216 71.7707 219.659 71.4033C219.102 71.0321 218.667 70.5093 218.352 69.8351C218.038 69.1571 217.881 68.3559 217.881 67.4317C217.881 66.515 218.038 65.7196 218.352 65.0453C218.667 64.3711 219.104 63.8502 219.665 63.4828C220.225 63.1154 220.873 62.9317 221.608 62.9317C222.176 62.9317 222.625 63.0264 222.955 63.2158C223.288 63.4014 223.542 63.6135 223.716 63.8521C223.894 64.087 224.032 64.2802 224.131 64.4317H224.244V60.1362H225.585V71.7726H224.29V70.4317H224.131C224.032 70.5908 223.892 70.7915 223.71 71.034C223.528 71.2726 223.269 71.4866 222.932 71.676C222.595 71.8616 222.146 71.9544 221.585 71.9544ZM221.767 70.7499C222.305 70.7499 222.759 70.6097 223.131 70.3294C223.502 70.0453 223.784 69.6533 223.977 69.1533C224.17 68.6495 224.267 68.0681 224.267 67.409C224.267 66.7574 224.172 66.1874 223.983 65.6987C223.794 65.2063 223.513 64.8237 223.142 64.551C222.771 64.2745 222.313 64.1362 221.767 64.1362C221.199 64.1362 220.725 64.2821 220.347 64.5737C219.972 64.8616 219.689 65.2537 219.5 65.7499C219.314 66.2423 219.222 66.7953 219.222 67.409C219.222 68.0302 219.316 68.5946 219.506 69.1021C219.699 69.6059 219.983 70.0074 220.358 70.3067C220.737 70.6021 221.206 70.7499 221.767 70.7499ZM231.886 71.9544C231.045 71.9544 230.32 71.7688 229.71 71.3976C229.104 71.0226 228.636 70.4999 228.307 69.8294C227.981 69.1552 227.818 68.3711 227.818 67.4771C227.818 66.5832 227.981 65.7953 228.307 65.1135C228.636 64.4279 229.095 63.8938 229.682 63.5112C230.273 63.1249 230.962 62.9317 231.75 62.9317C232.205 62.9317 232.653 63.0074 233.097 63.159C233.54 63.3105 233.943 63.5567 234.307 63.8976C234.67 64.2347 234.96 64.6817 235.176 65.2385C235.392 65.7953 235.5 66.4809 235.5 67.2953V67.8635H228.773V66.7044H234.136C234.136 66.212 234.038 65.7726 233.841 65.3862C233.648 64.9999 233.371 64.6949 233.011 64.4715C232.655 64.248 232.235 64.1362 231.75 64.1362C231.216 64.1362 230.754 64.2688 230.364 64.534C229.977 64.7953 229.68 65.1362 229.472 65.5567C229.263 65.9771 229.159 66.4279 229.159 66.909V67.6817C229.159 68.3408 229.273 68.8995 229.5 69.3578C229.731 69.8124 230.051 70.159 230.46 70.3976C230.869 70.6324 231.345 70.7499 231.886 70.7499C232.239 70.7499 232.557 70.7006 232.841 70.6021C233.129 70.4999 233.377 70.3484 233.585 70.1476C233.794 69.9431 233.955 69.6893 234.068 69.3862L235.364 69.7499C235.227 70.1893 234.998 70.5756 234.676 70.909C234.354 71.2385 233.956 71.4961 233.483 71.6817C233.009 71.8635 232.477 71.9544 231.886 71.9544ZM238.881 66.5226V71.7726H237.54V63.0453H238.835V64.409H238.949C239.153 63.9658 239.464 63.6097 239.881 63.3408C240.297 63.0681 240.835 62.9317 241.494 62.9317C242.085 62.9317 242.602 63.0529 243.045 63.2953C243.489 63.534 243.833 63.8976 244.08 64.3862C244.326 64.8711 244.449 65.4847 244.449 66.2271V71.7726H243.108V66.3181C243.108 65.6324 242.93 65.0984 242.574 64.7158C242.218 64.3294 241.729 64.1362 241.108 64.1362C240.68 64.1362 240.297 64.229 239.96 64.4146C239.627 64.6002 239.364 64.8711 239.17 65.2271C238.977 65.5832 238.881 66.015 238.881 66.5226ZM250.695 63.0453V64.1817H246.172V63.0453H250.695ZM247.49 60.9544H248.831V69.2726C248.831 69.6514 248.886 69.9355 248.996 70.1249C249.109 70.3105 249.253 70.4355 249.428 70.4999C249.606 70.5605 249.793 70.5908 249.99 70.5908C250.138 70.5908 250.259 70.5832 250.354 70.5681C250.448 70.5491 250.524 70.534 250.581 70.5226L250.854 71.7271C250.763 71.7612 250.636 71.7953 250.473 71.8294C250.31 71.8673 250.104 71.8862 249.854 71.8862C249.475 71.8862 249.104 71.8048 248.74 71.6419C248.38 71.479 248.081 71.2309 247.842 70.8976C247.607 70.5643 247.49 70.1438 247.49 69.6362V60.9544ZM253.689 71.8635C253.409 71.8635 253.168 71.7631 252.967 71.5624C252.767 71.3616 252.666 71.1211 252.666 70.8408C252.666 70.5605 252.767 70.3199 252.967 70.1192C253.168 69.9184 253.409 69.8181 253.689 69.8181C253.969 69.8181 254.21 69.9184 254.411 70.1192C254.611 70.3199 254.712 70.5605 254.712 70.8408C254.712 71.0264 254.664 71.1968 254.57 71.3521C254.479 71.5074 254.356 71.6324 254.2 71.7271C254.049 71.8181 253.878 71.8635 253.689 71.8635ZM262.277 71.7726H260.8L265.072 60.1362H266.527L270.8 71.7726H269.322L265.845 61.9771H265.754L262.277 71.7726ZM262.822 67.2271H268.777V68.4771H262.822V67.2271ZM273.771 60.1362V71.7726H272.43V60.1362H273.771ZM278.205 71.7726L275.545 63.0453H276.955L278.841 69.7271H278.932L280.795 63.0453H282.227L284.068 69.7044H284.159L286.045 63.0453H287.455L284.795 71.7726H283.477L281.568 65.0681H281.432L279.523 71.7726H278.205ZM291.795 71.9771C291.242 71.9771 290.741 71.873 290.29 71.6646C289.839 71.4525 289.481 71.1476 289.216 70.7499C288.951 70.3484 288.818 69.8635 288.818 69.2953C288.818 68.7953 288.917 68.39 289.114 68.0794C289.311 67.765 289.574 67.5188 289.903 67.3408C290.233 67.1627 290.597 67.0302 290.994 66.9431C291.396 66.8521 291.799 66.7802 292.205 66.7271C292.735 66.659 293.165 66.6078 293.494 66.5737C293.828 66.5359 294.07 66.4734 294.222 66.3862C294.377 66.2991 294.455 66.1476 294.455 65.9317V65.8862C294.455 65.3256 294.301 64.89 293.994 64.5794C293.691 64.2688 293.231 64.1135 292.614 64.1135C291.973 64.1135 291.472 64.2537 291.108 64.534C290.744 64.8143 290.489 65.1135 290.341 65.4317L289.068 64.9771C289.295 64.4468 289.598 64.034 289.977 63.7385C290.36 63.4393 290.777 63.2309 291.227 63.1135C291.682 62.9923 292.129 62.9317 292.568 62.9317C292.848 62.9317 293.17 62.9658 293.534 63.034C293.902 63.0984 294.256 63.2328 294.597 63.4374C294.941 63.6419 295.227 63.9506 295.455 64.3635C295.682 64.7764 295.795 65.3294 295.795 66.0226V71.7726H294.455V70.5908H294.386C294.295 70.7802 294.144 70.9828 293.932 71.1987C293.72 71.4146 293.438 71.5984 293.085 71.7499C292.733 71.9014 292.303 71.9771 291.795 71.9771ZM292 70.7726C292.53 70.7726 292.977 70.6684 293.341 70.4601C293.708 70.2518 293.985 69.9828 294.17 69.6533C294.36 69.3237 294.455 68.9771 294.455 68.6135V67.3862C294.398 67.4544 294.273 67.5169 294.08 67.5737C293.89 67.6268 293.67 67.6741 293.42 67.7158C293.174 67.7537 292.934 67.7877 292.699 67.8181C292.468 67.8446 292.28 67.8673 292.136 67.8862C291.788 67.9317 291.462 68.0056 291.159 68.1078C290.86 68.2063 290.617 68.3559 290.432 68.5567C290.25 68.7537 290.159 69.0226 290.159 69.3635C290.159 69.8294 290.331 70.1817 290.676 70.4203C291.025 70.6552 291.466 70.7726 292 70.7726ZM298.794 75.0453C298.567 75.0453 298.364 75.0264 298.186 74.9885C298.008 74.9544 297.885 74.9203 297.817 74.8862L298.158 73.7044C298.483 73.7877 298.771 73.8181 299.021 73.7953C299.271 73.7726 299.493 73.6609 299.686 73.4601C299.883 73.2631 300.063 72.9431 300.226 72.4999L300.476 71.8181L297.249 63.0453H298.703L301.112 69.9999H301.203L303.612 63.0453H305.067L301.362 73.0453C301.196 73.4961 300.989 73.8692 300.743 74.1646C300.497 74.4639 300.211 74.6855 299.885 74.8294C299.563 74.9734 299.199 75.0453 298.794 75.0453ZM313.018 64.9999L311.814 65.3408C311.738 65.14 311.626 64.9449 311.479 64.7556C311.335 64.5624 311.138 64.4033 310.888 64.2783C310.638 64.1533 310.318 64.0908 309.928 64.0908C309.393 64.0908 308.948 64.2139 308.592 64.4601C308.24 64.7025 308.064 65.0112 308.064 65.3862C308.064 65.7196 308.185 65.9828 308.428 66.176C308.67 66.3692 309.049 66.5302 309.564 66.659L310.859 66.9771C311.64 67.1665 312.221 67.4563 312.604 67.8465C312.986 68.2328 313.178 68.7309 313.178 69.3408C313.178 69.8408 313.034 70.2877 312.746 70.6817C312.462 71.0756 312.064 71.3862 311.553 71.6135C311.041 71.8408 310.446 71.9544 309.768 71.9544C308.878 71.9544 308.142 71.7612 307.558 71.3749C306.975 70.9885 306.606 70.4241 306.45 69.6817L307.723 69.3635C307.844 69.8332 308.073 70.1855 308.411 70.4203C308.751 70.6552 309.196 70.7726 309.746 70.7726C310.371 70.7726 310.867 70.64 311.234 70.3749C311.606 70.1059 311.791 69.784 311.791 69.409C311.791 69.1059 311.685 68.8521 311.473 68.6476C311.261 68.4393 310.935 68.284 310.496 68.1817L309.041 67.8408C308.242 67.6514 307.655 67.3578 307.28 66.9601C306.909 66.5586 306.723 66.0567 306.723 65.4544C306.723 64.962 306.861 64.5264 307.138 64.1476C307.418 63.7688 307.799 63.4715 308.28 63.2556C308.765 63.0396 309.314 62.9317 309.928 62.9317C310.791 62.9317 311.469 63.1211 311.962 63.4999C312.458 63.8787 312.81 64.3787 313.018 64.9999ZM319.696 71.7726V63.0453H320.991V64.3635H321.082C321.241 63.9317 321.529 63.5813 321.946 63.3124C322.363 63.0434 322.832 62.909 323.355 62.909C323.454 62.909 323.577 62.9109 323.724 62.9146C323.872 62.9184 323.984 62.9241 324.06 62.9317V64.2953C324.014 64.284 323.91 64.2669 323.747 64.2442C323.588 64.2177 323.42 64.2044 323.241 64.2044C322.817 64.2044 322.438 64.2934 322.105 64.4715C321.776 64.6457 321.514 64.8881 321.321 65.1987C321.132 65.5056 321.037 65.8559 321.037 66.2499V71.7726H319.696ZM328.929 71.9544C328.141 71.9544 327.45 71.7669 326.855 71.3919C326.264 71.0169 325.802 70.4923 325.469 69.8181C325.139 69.1438 324.974 68.3559 324.974 67.4544C324.974 66.5453 325.139 65.7518 325.469 65.0737C325.802 64.3957 326.264 63.8692 326.855 63.4942C327.45 63.1192 328.141 62.9317 328.929 62.9317C329.717 62.9317 330.406 63.1192 330.997 63.4942C331.592 63.8692 332.054 64.3957 332.384 65.0737C332.717 65.7518 332.884 66.5453 332.884 67.4544C332.884 68.3559 332.717 69.1438 332.384 69.8181C332.054 70.4923 331.592 71.0169 330.997 71.3919C330.406 71.7669 329.717 71.9544 328.929 71.9544ZM328.929 70.7499C329.527 70.7499 330.02 70.5965 330.406 70.2896C330.793 69.9828 331.079 69.5794 331.264 69.0794C331.45 68.5794 331.543 68.0377 331.543 67.4544C331.543 66.8711 331.45 66.3275 331.264 65.8237C331.079 65.3199 330.793 64.9127 330.406 64.6021C330.02 64.2915 329.527 64.1362 328.929 64.1362C328.33 64.1362 327.838 64.2915 327.452 64.6021C327.065 64.9127 326.779 65.3199 326.594 65.8237C326.408 66.3275 326.315 66.8711 326.315 67.4544C326.315 68.0377 326.408 68.5794 326.594 69.0794C326.779 69.5794 327.065 69.9828 327.452 70.2896C327.838 70.5965 328.33 70.7499 328.929 70.7499ZM338.476 71.9544C337.688 71.9544 336.997 71.7669 336.402 71.3919C335.811 71.0169 335.349 70.4923 335.016 69.8181C334.686 69.1438 334.521 68.3559 334.521 67.4544C334.521 66.5453 334.686 65.7518 335.016 65.0737C335.349 64.3957 335.811 63.8692 336.402 63.4942C336.997 63.1192 337.688 62.9317 338.476 62.9317C339.264 62.9317 339.953 63.1192 340.544 63.4942C341.139 63.8692 341.601 64.3957 341.93 65.0737C342.264 65.7518 342.43 66.5453 342.43 67.4544C342.43 68.3559 342.264 69.1438 341.93 69.8181C341.601 70.4923 341.139 71.0169 340.544 71.3919C339.953 71.7669 339.264 71.9544 338.476 71.9544ZM338.476 70.7499C339.074 70.7499 339.567 70.5965 339.953 70.2896C340.339 69.9828 340.625 69.5794 340.811 69.0794C340.997 68.5794 341.089 68.0377 341.089 67.4544C341.089 66.8711 340.997 66.3275 340.811 65.8237C340.625 65.3199 340.339 64.9127 339.953 64.6021C339.567 64.2915 339.074 64.1362 338.476 64.1362C337.877 64.1362 337.385 64.2915 336.999 64.6021C336.612 64.9127 336.326 65.3199 336.141 65.8237C335.955 66.3275 335.862 66.8711 335.862 67.4544C335.862 68.0377 335.955 68.5794 336.141 69.0794C336.326 69.5794 336.612 69.9828 336.999 70.2896C337.385 70.5965 337.877 70.7499 338.476 70.7499ZM344.477 71.7726V63.0453H345.773V64.409H345.886C346.068 63.9431 346.362 63.5813 346.767 63.3237C347.172 63.0624 347.659 62.9317 348.227 62.9317C348.803 62.9317 349.282 63.0624 349.665 63.3237C350.051 63.5813 350.352 63.9431 350.568 64.409H350.659C350.883 63.9582 351.218 63.6002 351.665 63.3351C352.112 63.0662 352.648 62.9317 353.273 62.9317C354.053 62.9317 354.691 63.176 355.188 63.6646C355.684 64.1495 355.932 64.9052 355.932 65.9317V71.7726H354.591V65.9317C354.591 65.2877 354.415 64.8275 354.062 64.551C353.71 64.2745 353.295 64.1362 352.818 64.1362C352.205 64.1362 351.729 64.3218 351.392 64.6931C351.055 65.0605 350.886 65.5264 350.886 66.0908V71.7726H349.523V65.7953C349.523 65.2991 349.362 64.8995 349.04 64.5965C348.718 64.2896 348.303 64.1362 347.795 64.1362C347.447 64.1362 347.121 64.229 346.818 64.4146C346.519 64.6002 346.277 64.8578 346.091 65.1874C345.909 65.5131 345.818 65.89 345.818 66.3181V71.7726H344.477ZM366.77 63.0453V64.1817H362.065V63.0453H366.77ZM363.474 71.7726V61.8408C363.474 61.3408 363.592 60.9241 363.827 60.5908C364.062 60.2574 364.366 60.0074 364.741 59.8408C365.116 59.6741 365.512 59.5908 365.929 59.5908C366.259 59.5908 366.527 59.6173 366.736 59.6703C366.944 59.7234 367.099 59.7726 367.202 59.8181L366.815 60.9771C366.747 60.9544 366.652 60.926 366.531 60.8919C366.414 60.8578 366.259 60.8408 366.065 60.8408C365.622 60.8408 365.302 60.9525 365.105 61.176C364.912 61.3995 364.815 61.7271 364.815 62.159V71.7726H363.474ZM371.835 71.9544C371.047 71.9544 370.356 71.7669 369.761 71.3919C369.17 71.0169 368.708 70.4923 368.375 69.8181C368.045 69.1438 367.881 68.3559 367.881 67.4544C367.881 66.5453 368.045 65.7518 368.375 65.0737C368.708 64.3957 369.17 63.8692 369.761 63.4942C370.356 63.1192 371.047 62.9317 371.835 62.9317C372.623 62.9317 373.313 63.1192 373.903 63.4942C374.498 63.8692 374.96 64.3957 375.29 65.0737C375.623 65.7518 375.79 66.5453 375.79 67.4544C375.79 68.3559 375.623 69.1438 375.29 69.8181C374.96 70.4923 374.498 71.0169 373.903 71.3919C373.313 71.7669 372.623 71.9544 371.835 71.9544ZM371.835 70.7499C372.434 70.7499 372.926 70.5965 373.312 70.2896C373.699 69.9828 373.985 69.5794 374.17 69.0794C374.356 68.5794 374.449 68.0377 374.449 67.4544C374.449 66.8711 374.356 66.3275 374.17 65.8237C373.985 65.3199 373.699 64.9127 373.312 64.6021C372.926 64.2915 372.434 64.1362 371.835 64.1362C371.237 64.1362 370.744 64.2915 370.358 64.6021C369.972 64.9127 369.686 65.3199 369.5 65.8237C369.314 66.3275 369.222 66.8711 369.222 67.4544C369.222 68.0377 369.314 68.5794 369.5 69.0794C369.686 69.5794 369.972 69.9828 370.358 70.2896C370.744 70.5965 371.237 70.7499 371.835 70.7499ZM377.837 71.7726V63.0453H379.132V64.3635H379.223C379.382 63.9317 379.67 63.5813 380.087 63.3124C380.503 63.0434 380.973 62.909 381.496 62.909C381.594 62.909 381.717 62.9109 381.865 62.9146C382.013 62.9184 382.125 62.9241 382.2 62.9317V64.2953C382.155 64.284 382.051 64.2669 381.888 64.2442C381.729 64.2177 381.56 64.2044 381.382 64.2044C380.958 64.2044 380.579 64.2934 380.246 64.4715C379.916 64.6457 379.655 64.8881 379.462 65.1987C379.272 65.5056 379.178 65.8559 379.178 66.2499V71.7726H377.837ZM394.472 64.9999L393.267 65.3408C393.191 65.14 393.08 64.9449 392.932 64.7556C392.788 64.5624 392.591 64.4033 392.341 64.2783C392.091 64.1533 391.771 64.0908 391.381 64.0908C390.847 64.0908 390.402 64.2139 390.045 64.4601C389.693 64.7025 389.517 65.0112 389.517 65.3862C389.517 65.7196 389.638 65.9828 389.881 66.176C390.123 66.3692 390.502 66.5302 391.017 66.659L392.312 66.9771C393.093 67.1665 393.674 67.4563 394.057 67.8465C394.439 68.2328 394.631 68.7309 394.631 69.3408C394.631 69.8408 394.487 70.2877 394.199 70.6817C393.915 71.0756 393.517 71.3862 393.006 71.6135C392.494 71.8408 391.9 71.9544 391.222 71.9544C390.331 71.9544 389.595 71.7612 389.011 71.3749C388.428 70.9885 388.059 70.4241 387.903 69.6817L389.176 69.3635C389.297 69.8332 389.527 70.1855 389.864 70.4203C390.205 70.6552 390.65 70.7726 391.199 70.7726C391.824 70.7726 392.32 70.64 392.688 70.3749C393.059 70.1059 393.244 69.784 393.244 69.409C393.244 69.1059 393.138 68.8521 392.926 68.6476C392.714 68.4393 392.388 68.284 391.949 68.1817L390.494 67.8408C389.695 67.6514 389.108 67.3578 388.733 66.9601C388.362 66.5586 388.176 66.0567 388.176 65.4544C388.176 64.962 388.314 64.5264 388.591 64.1476C388.871 63.7688 389.252 63.4715 389.733 63.2556C390.218 63.0396 390.767 62.9317 391.381 62.9317C392.244 62.9317 392.922 63.1211 393.415 63.4999C393.911 63.8787 394.263 64.3787 394.472 64.9999ZM400.308 71.9544C399.467 71.9544 398.742 71.7688 398.132 71.3976C397.526 71.0226 397.058 70.4999 396.729 69.8294C396.403 69.1552 396.24 68.3711 396.24 67.4771C396.24 66.5832 396.403 65.7953 396.729 65.1135C397.058 64.4279 397.517 63.8938 398.104 63.5112C398.695 63.1249 399.384 62.9317 400.172 62.9317C400.626 62.9317 401.075 63.0074 401.518 63.159C401.962 63.3105 402.365 63.5567 402.729 63.8976C403.092 64.2347 403.382 64.6817 403.598 65.2385C403.814 65.7953 403.922 66.4809 403.922 67.2953V67.8635H397.195V66.7044H402.558C402.558 66.212 402.46 65.7726 402.263 65.3862C402.07 64.9999 401.793 64.6949 401.433 64.4715C401.077 64.248 400.657 64.1362 400.172 64.1362C399.638 64.1362 399.176 64.2688 398.786 64.534C398.399 64.7953 398.102 65.1362 397.893 65.5567C397.685 65.9771 397.581 66.4279 397.581 66.909V67.6817C397.581 68.3408 397.695 68.8995 397.922 69.3578C398.153 69.8124 398.473 70.159 398.882 70.3976C399.291 70.6324 399.767 70.7499 400.308 70.7499C400.661 70.7499 400.979 70.7006 401.263 70.6021C401.551 70.4999 401.799 70.3484 402.007 70.1476C402.215 69.9431 402.376 69.6893 402.49 69.3862L403.786 69.7499C403.649 70.1893 403.42 70.5756 403.098 70.909C402.776 71.2385 402.378 71.4961 401.905 71.6817C401.431 71.8635 400.899 71.9544 400.308 71.9544ZM407.303 60.1362V71.7726H405.962V60.1362H407.303ZM413.645 63.0453V64.1817H408.94V63.0453H413.645ZM410.349 71.7726V61.8408C410.349 61.3408 410.467 60.9241 410.702 60.5908C410.937 60.2574 411.241 60.0074 411.616 59.8408C411.991 59.6741 412.387 59.5908 412.804 59.5908C413.134 59.5908 413.402 59.6173 413.611 59.6703C413.819 59.7234 413.974 59.7726 414.077 59.8181L413.69 60.9771C413.622 60.9544 413.527 60.926 413.406 60.8919C413.289 60.8578 413.134 60.8408 412.94 60.8408C412.497 60.8408 412.177 60.9525 411.98 61.176C411.787 61.3995 411.69 61.7271 411.69 62.159V71.7726H410.349ZM420.071 66.159V67.409H414.98V66.159H420.071ZM123.227 90.7726V82.0453H124.568V90.7726H123.227ZM123.909 80.5908C123.648 80.5908 123.422 80.5018 123.233 80.3237C123.047 80.1457 122.955 79.9317 122.955 79.6817C122.955 79.4317 123.047 79.2177 123.233 79.0396C123.422 78.8616 123.648 78.7726 123.909 78.7726C124.17 78.7726 124.394 78.8616 124.58 79.0396C124.769 79.2177 124.864 79.4317 124.864 79.6817C124.864 79.9317 124.769 80.1457 124.58 80.3237C124.394 80.5018 124.17 80.5908 123.909 80.5908ZM127.024 90.7726V82.0453H128.32V83.409H128.433C128.615 82.9431 128.909 82.5813 129.314 82.3237C129.719 82.0624 130.206 81.9317 130.774 81.9317C131.35 81.9317 131.829 82.0624 132.212 82.3237C132.598 82.5813 132.899 82.9431 133.115 83.409H133.206C133.429 82.9582 133.765 82.6002 134.212 82.3351C134.659 82.0662 135.195 81.9317 135.82 81.9317C136.6 81.9317 137.238 82.176 137.734 82.6646C138.231 83.1495 138.479 83.9052 138.479 84.9317V90.7726H137.138V84.9317C137.138 84.2877 136.962 83.8275 136.609 83.551C136.257 83.2745 135.842 83.1362 135.365 83.1362C134.751 83.1362 134.276 83.3218 133.939 83.6931C133.602 84.0605 133.433 84.5264 133.433 85.0908V90.7726H132.07V84.7953C132.07 84.2991 131.909 83.8995 131.587 83.5965C131.265 83.2896 130.85 83.1362 130.342 83.1362C129.994 83.1362 129.668 83.229 129.365 83.4146C129.066 83.6002 128.823 83.8578 128.638 84.1874C128.456 84.5131 128.365 84.89 128.365 85.3181V90.7726H127.024ZM140.93 94.0453V82.0453H142.226V83.4317H142.385C142.483 83.2802 142.62 83.087 142.794 82.8521C142.972 82.6135 143.226 82.4014 143.555 82.2158C143.889 82.0264 144.339 81.9317 144.908 81.9317C145.643 81.9317 146.29 82.1154 146.851 82.4828C147.411 82.8502 147.849 83.3711 148.163 84.0453C148.478 84.7196 148.635 85.515 148.635 86.4317C148.635 87.3559 148.478 88.1571 148.163 88.8351C147.849 89.5093 147.413 90.0321 146.857 90.4033C146.3 90.7707 145.658 90.9544 144.93 90.9544C144.37 90.9544 143.921 90.8616 143.584 90.676C143.247 90.4866 142.987 90.2726 142.805 90.034C142.624 89.7915 142.483 89.5908 142.385 89.4317H142.271V94.0453H140.93ZM142.249 86.409C142.249 87.0681 142.345 87.6495 142.538 88.1533C142.732 88.6533 143.014 89.0453 143.385 89.3294C143.756 89.6097 144.211 89.7499 144.749 89.7499C145.309 89.7499 145.777 89.6021 146.152 89.3067C146.531 89.0074 146.815 88.6059 147.004 88.1021C147.197 87.5946 147.294 87.0302 147.294 86.409C147.294 85.7953 147.199 85.2423 147.01 84.7499C146.824 84.2537 146.542 83.8616 146.163 83.5737C145.788 83.2821 145.317 83.1362 144.749 83.1362C144.203 83.1362 143.745 83.2745 143.374 83.551C143.002 83.8237 142.722 84.2063 142.533 84.6987C142.343 85.1874 142.249 85.7574 142.249 86.409ZM150.68 90.7726V82.0453H151.976V83.3635H152.067C152.226 82.9317 152.514 82.5813 152.93 82.3124C153.347 82.0434 153.817 81.909 154.339 81.909C154.438 81.909 154.561 81.9109 154.709 81.9146C154.857 81.9184 154.968 81.9241 155.044 81.9317V83.2953C154.999 83.284 154.894 83.2669 154.732 83.2442C154.572 83.2177 154.404 83.2044 154.226 83.2044C153.802 83.2044 153.423 83.2934 153.089 83.4715C152.76 83.6457 152.499 83.8881 152.305 84.1987C152.116 84.5056 152.021 84.8559 152.021 85.2499V90.7726H150.68ZM159.913 90.9544C159.125 90.9544 158.434 90.7669 157.839 90.3919C157.249 90.0169 156.786 89.4923 156.453 88.8181C156.124 88.1438 155.959 87.3559 155.959 86.4544C155.959 85.5453 156.124 84.7518 156.453 84.0737C156.786 83.3957 157.249 82.8692 157.839 82.4942C158.434 82.1192 159.125 81.9317 159.913 81.9317C160.701 81.9317 161.391 82.1192 161.982 82.4942C162.576 82.8692 163.038 83.3957 163.368 84.0737C163.701 84.7518 163.868 85.5453 163.868 86.4544C163.868 87.3559 163.701 88.1438 163.368 88.8181C163.038 89.4923 162.576 90.0169 161.982 90.3919C161.391 90.7669 160.701 90.9544 159.913 90.9544ZM159.913 89.7499C160.512 89.7499 161.004 89.5965 161.391 89.2896C161.777 88.9828 162.063 88.5794 162.249 88.0794C162.434 87.5794 162.527 87.0377 162.527 86.4544C162.527 85.8711 162.434 85.3275 162.249 84.8237C162.063 84.3199 161.777 83.9127 161.391 83.6021C161.004 83.2915 160.512 83.1362 159.913 83.1362C159.315 83.1362 158.822 83.2915 158.436 83.6021C158.05 83.9127 157.764 84.3199 157.578 84.8237C157.393 85.3275 157.3 85.8711 157.3 86.4544C157.3 87.0377 157.393 87.5794 157.578 88.0794C157.764 88.5794 158.05 88.9828 158.436 89.2896C158.822 89.5965 159.315 89.7499 159.913 89.7499ZM172.739 82.0453L169.511 90.7726H168.148L164.92 82.0453H166.375L168.784 88.9999H168.875L171.284 82.0453H172.739ZM177.855 90.9544C177.014 90.9544 176.289 90.7688 175.679 90.3976C175.073 90.0226 174.605 89.4999 174.276 88.8294C173.95 88.1552 173.787 87.3711 173.787 86.4771C173.787 85.5832 173.95 84.7953 174.276 84.1135C174.605 83.4279 175.063 82.8938 175.651 82.5112C176.241 82.1249 176.931 81.9317 177.719 81.9317C178.173 81.9317 178.622 82.0074 179.065 82.159C179.509 82.3105 179.912 82.5567 180.276 82.8976C180.639 83.2347 180.929 83.6817 181.145 84.2385C181.361 84.7953 181.469 85.4809 181.469 86.2953V86.8635H174.741V85.7044H180.105C180.105 85.212 180.007 84.7726 179.81 84.3862C179.616 83.9999 179.34 83.6949 178.98 83.4715C178.624 83.248 178.204 83.1362 177.719 83.1362C177.185 83.1362 176.723 83.2688 176.332 83.534C175.946 83.7953 175.649 84.1362 175.44 84.5567C175.232 84.9771 175.128 85.4279 175.128 85.909V86.6817C175.128 87.3408 175.241 87.8995 175.469 88.3578C175.7 88.8124 176.02 89.159 176.429 89.3976C176.838 89.6324 177.313 89.7499 177.855 89.7499C178.207 89.7499 178.526 89.7006 178.81 89.6021C179.098 89.4999 179.346 89.3484 179.554 89.1476C179.762 88.9431 179.923 88.6893 180.037 88.3862L181.332 88.7499C181.196 89.1893 180.967 89.5756 180.645 89.909C180.323 90.2385 179.925 90.4961 179.452 90.6817C178.978 90.8635 178.446 90.9544 177.855 90.9544ZM183.509 90.7726V82.0453H184.804V83.409H184.918C185.099 82.9431 185.393 82.5813 185.798 82.3237C186.204 82.0624 186.69 81.9317 187.259 81.9317C187.834 81.9317 188.313 82.0624 188.696 82.3237C189.082 82.5813 189.384 82.9431 189.599 83.409H189.69C189.914 82.9582 190.249 82.6002 190.696 82.3351C191.143 82.0662 191.679 81.9317 192.304 81.9317C193.084 81.9317 193.723 82.176 194.219 82.6646C194.715 83.1495 194.963 83.9052 194.963 84.9317V90.7726H193.622V84.9317C193.622 84.2877 193.446 83.8275 193.094 83.551C192.741 83.2745 192.327 83.1362 191.849 83.1362C191.236 83.1362 190.76 83.3218 190.423 83.6931C190.086 84.0605 189.918 84.5264 189.918 85.0908V90.7726H188.554V84.7953C188.554 84.2991 188.393 83.8995 188.071 83.5965C187.749 83.2896 187.334 83.1362 186.827 83.1362C186.478 83.1362 186.152 83.229 185.849 83.4146C185.55 83.6002 185.308 83.8578 185.122 84.1874C184.94 84.5131 184.849 84.89 184.849 85.3181V90.7726H183.509ZM201.074 90.9544C200.233 90.9544 199.508 90.7688 198.898 90.3976C198.292 90.0226 197.824 89.4999 197.494 88.8294C197.169 88.1552 197.006 87.3711 197.006 86.4771C197.006 85.5832 197.169 84.7953 197.494 84.1135C197.824 83.4279 198.282 82.8938 198.869 82.5112C199.46 82.1249 200.15 81.9317 200.938 81.9317C201.392 81.9317 201.841 82.0074 202.284 82.159C202.727 82.3105 203.131 82.5567 203.494 82.8976C203.858 83.2347 204.148 83.6817 204.364 84.2385C204.58 84.7953 204.688 85.4809 204.688 86.2953V86.8635H197.96V85.7044H203.324C203.324 85.212 203.225 84.7726 203.028 84.3862C202.835 83.9999 202.559 83.6949 202.199 83.4715C201.843 83.248 201.422 83.1362 200.938 83.1362C200.403 83.1362 199.941 83.2688 199.551 83.534C199.165 83.7953 198.867 84.1362 198.659 84.5567C198.451 84.9771 198.347 85.4279 198.347 85.909V86.6817C198.347 87.3408 198.46 87.8995 198.688 88.3578C198.919 88.8124 199.239 89.159 199.648 89.3976C200.057 89.6324 200.532 89.7499 201.074 89.7499C201.426 89.7499 201.744 89.7006 202.028 89.6021C202.316 89.4999 202.564 89.3484 202.773 89.1476C202.981 88.9431 203.142 88.6893 203.256 88.3862L204.551 88.7499C204.415 89.1893 204.186 89.5756 203.864 89.909C203.542 90.2385 203.144 90.4961 202.67 90.6817C202.197 90.8635 201.665 90.9544 201.074 90.9544ZM208.068 85.5226V90.7726H206.727V82.0453H208.023V83.409H208.136C208.341 82.9658 208.652 82.6097 209.068 82.3408C209.485 82.0681 210.023 81.9317 210.682 81.9317C211.273 81.9317 211.79 82.0529 212.233 82.2953C212.676 82.534 213.021 82.8976 213.267 83.3862C213.513 83.8711 213.636 84.4847 213.636 85.2271V90.7726H212.295V85.3181C212.295 84.6324 212.117 84.0984 211.761 83.7158C211.405 83.3294 210.917 83.1362 210.295 83.1362C209.867 83.1362 209.485 83.229 209.148 83.4146C208.814 83.6002 208.551 83.8711 208.358 84.2271C208.165 84.5832 208.068 85.015 208.068 85.5226ZM219.882 82.0453V83.1817H215.359V82.0453H219.882ZM216.678 79.9544H218.018V88.2726C218.018 88.6514 218.073 88.9355 218.183 89.1249C218.297 89.3105 218.441 89.4355 218.615 89.4999C218.793 89.5605 218.981 89.5908 219.178 89.5908C219.325 89.5908 219.446 89.5832 219.541 89.5681C219.636 89.5491 219.712 89.534 219.768 89.5226L220.041 90.7271C219.95 90.7612 219.823 90.7953 219.661 90.8294C219.498 90.8673 219.291 90.8862 219.041 90.8862C218.662 90.8862 218.291 90.8048 217.928 90.6419C217.568 90.479 217.268 90.2309 217.03 89.8976C216.795 89.5643 216.678 89.1438 216.678 88.6362V79.9544ZM222.876 90.8635C222.596 90.8635 222.356 90.7631 222.155 90.5624C221.954 90.3616 221.854 90.1211 221.854 89.8408C221.854 89.5605 221.954 89.3199 222.155 89.1192C222.356 88.9184 222.596 88.8181 222.876 88.8181C223.157 88.8181 223.397 88.9184 223.598 89.1192C223.799 89.3199 223.899 89.5605 223.899 89.8408C223.899 90.0264 223.852 90.1968 223.757 90.3521C223.666 90.5074 223.543 90.6324 223.388 90.7271C223.236 90.8181 223.066 90.8635 222.876 90.8635Z" fill="#303030"/>
<mask id="mask0_1205_121" style="mask-type:alpha" maskUnits="userSpaceOnUse" x="0" y="0" width="104" height="105">
<path d="M2 102.773L36.2163 40.3565L58.9537 81.0724C58.9537 81.0724 85.1894 33.3506 102 2.7726M102 2.7726C102 13.5186 102 30.2894 102 30.2894M102 2.7726C93.2067 6.26722 79.4835 11.7211 79.4835 11.7211" stroke="black" stroke-width="3.15" stroke-linecap="round"/>
</mask>
<g mask="url(#mask0_1205_121)">
<path d="M-7.07666 -100.171H184.531V251.597H-7.07666V-100.171Z" fill="url(#paint0_linear_1205_121)"/>
</g>
<defs>
<linearGradient id="paint0_linear_1205_121" x1="-7.07666" y1="-100.171" x2="288.455" y2="60.8054" gradientUnits="userSpaceOnUse">
<stop stop-color="#00D1FF"/>
<stop offset="1" stop-color="#3300FF"/>
</linearGradient>
</defs>
</svg>
