<svg width="130" height="109" viewBox="0 0 130 109" fill="none" xmlns="http://www.w3.org/2000/svg">
<mask id="mask0_1157_331" style="mask-type:alpha" maskUnits="userSpaceOnUse" x="0" y="0" width="130" height="109">
<path d="M117.874 11.6759C114.819 8.73809 111.192 6.40765 107.199 4.81766C103.207 3.22767 98.9281 2.4093 94.6067 2.4093C90.2853 2.4093 86.0062 3.22767 82.0139 4.81766C78.0216 6.40765 74.3944 8.73809 71.3394 11.6759L64.9992 17.7699L58.659 11.6759C52.4882 5.74455 44.1187 2.41238 35.3917 2.41238C26.6648 2.41238 18.2953 5.74455 12.1244 11.6759C5.95358 17.6072 2.48682 25.6518 2.48682 34.0399C2.48682 42.428 5.95358 50.4726 12.1244 56.4039L18.4646 62.498L64.9992 107.226L111.534 62.498L117.874 56.4039C120.93 53.4675 123.355 49.9811 125.009 46.1438C126.663 42.3065 127.515 38.1936 127.515 34.0399C127.515 29.8862 126.663 25.7733 125.009 21.936C123.355 18.0987 120.93 14.6123 117.874 11.6759V11.6759Z" stroke="#303030" stroke-width="3.35709" stroke-linecap="round" stroke-linejoin="round"/>
</mask>
<g mask="url(#mask0_1157_331)">
<path d="M-24.8628 -30.5071C-24.8628 -36.3531 -20.1237 -41.0922 -14.2777 -41.0922H184.804C190.65 -41.0922 195.39 -36.3531 195.39 -30.5071V160.025C195.39 165.871 190.65 170.61 184.804 170.61H-14.2777C-20.1237 170.61 -24.8628 165.871 -24.8628 160.025V-30.5071Z" fill="url(#paint0_linear_1157_331)"/>
</g>
<defs>
<linearGradient id="paint0_linear_1157_331" x1="-24.8628" y1="-41.0922" x2="186.673" y2="178.988" gradientUnits="userSpaceOnUse">
<stop stop-color="#00D1FF"/>
<stop offset="1" stop-color="#3300FF"/>
</linearGradient>
</defs>
</svg>
