<svg width="450" height="150" viewBox="0 0 450 150" fill="none" xmlns="http://www.w3.org/2000/svg">
<path d="M127.114 56V38.5455H133.011C134.375 38.5455 135.494 38.7784 136.369 39.2443C137.244 39.7045 137.892 40.3381 138.312 41.1449C138.733 41.9517 138.943 42.8693 138.943 43.8977C138.943 44.9261 138.733 45.8381 138.312 46.6335C137.892 47.429 137.247 48.054 136.378 48.5085C135.509 48.9574 134.398 49.1818 133.045 49.1818H128.273V47.2727H132.977C133.909 47.2727 134.659 47.1364 135.227 46.8636C135.801 46.5909 136.216 46.2045 136.472 45.7045C136.733 45.1989 136.864 44.5966 136.864 43.8977C136.864 43.1989 136.733 42.5881 136.472 42.0653C136.21 41.5426 135.793 41.1392 135.219 40.8551C134.645 40.5653 133.886 40.4205 132.943 40.4205H129.227V56H127.114ZM135.33 48.1591L139.625 56H137.17L132.943 48.1591H135.33ZM147.54 56.2727C146.279 56.2727 145.191 55.9943 144.276 55.4375C143.367 54.875 142.665 54.0909 142.171 53.0852C141.683 52.0739 141.438 50.8977 141.438 49.5568C141.438 48.2159 141.683 47.0341 142.171 46.0114C142.665 44.983 143.353 44.1818 144.234 43.608C145.12 43.0284 146.154 42.7386 147.336 42.7386C148.018 42.7386 148.691 42.8523 149.356 43.0795C150.021 43.3068 150.626 43.6761 151.171 44.1875C151.717 44.6932 152.151 45.3636 152.475 46.1989C152.799 47.0341 152.961 48.0625 152.961 49.2841V50.1364H142.87V48.3977H150.915C150.915 47.6591 150.768 47 150.472 46.4205C150.183 45.8409 149.768 45.3835 149.228 45.0483C148.694 44.7131 148.063 44.5455 147.336 44.5455C146.535 44.5455 145.842 44.7443 145.256 45.142C144.677 45.5341 144.231 46.0455 143.918 46.6761C143.606 47.3068 143.45 47.983 143.45 48.7045V49.8636C143.45 50.8523 143.62 51.6903 143.961 52.3778C144.308 53.0597 144.788 53.5795 145.401 53.9375C146.015 54.2898 146.728 54.4659 147.54 54.4659C148.069 54.4659 148.546 54.392 148.972 54.2443C149.404 54.0909 149.776 53.8636 150.089 53.5625C150.401 53.2557 150.643 52.875 150.813 52.4205L152.756 52.9659C152.552 53.625 152.208 54.2045 151.725 54.7045C151.242 55.1989 150.646 55.5852 149.935 55.8636C149.225 56.1364 148.427 56.2727 147.54 56.2727ZM165.293 45.8409L163.487 46.3523C163.373 46.0511 163.205 45.7585 162.984 45.4744C162.768 45.1847 162.472 44.946 162.097 44.7585C161.722 44.571 161.242 44.4773 160.657 44.4773C159.856 44.4773 159.188 44.6619 158.654 45.0312C158.126 45.3949 157.862 45.858 157.862 46.4205C157.862 46.9205 158.043 47.3153 158.407 47.6051C158.771 47.8949 159.339 48.1364 160.112 48.3295L162.055 48.8068C163.225 49.0909 164.097 49.5256 164.671 50.1108C165.245 50.6903 165.532 51.4375 165.532 52.3523C165.532 53.1023 165.316 53.7727 164.884 54.3636C164.458 54.9545 163.862 55.4205 163.094 55.7614C162.327 56.1023 161.435 56.2727 160.418 56.2727C159.083 56.2727 157.978 55.983 157.103 55.4034C156.228 54.8239 155.674 53.9773 155.441 52.8636L157.35 52.3864C157.532 53.0909 157.876 53.6193 158.381 53.9716C158.893 54.3239 159.56 54.5 160.384 54.5C161.322 54.5 162.066 54.3011 162.617 53.9034C163.174 53.5 163.452 53.017 163.452 52.4545C163.452 52 163.293 51.6193 162.975 51.3125C162.657 51 162.168 50.767 161.509 50.6136L159.327 50.1023C158.129 49.8182 157.248 49.3778 156.685 48.7812C156.129 48.179 155.85 47.4261 155.85 46.5227C155.85 45.7841 156.058 45.1307 156.472 44.5625C156.893 43.9943 157.464 43.5483 158.185 43.2244C158.913 42.9006 159.737 42.7386 160.657 42.7386C161.952 42.7386 162.969 43.0227 163.708 43.5909C164.452 44.1591 164.981 44.9091 165.293 45.8409ZM168.56 60.9091V42.9091H170.503V44.9886H170.741C170.889 44.7614 171.094 44.4716 171.355 44.1193C171.622 43.7614 172.003 43.4432 172.497 43.1648C172.997 42.8807 173.673 42.7386 174.526 42.7386C175.628 42.7386 176.599 43.0142 177.44 43.5653C178.281 44.1165 178.938 44.8977 179.409 45.9091C179.881 46.9205 180.116 48.1136 180.116 49.4886C180.116 50.875 179.881 52.0767 179.409 53.0938C178.938 54.1051 178.284 54.8892 177.449 55.446C176.614 55.9972 175.651 56.2727 174.56 56.2727C173.719 56.2727 173.045 56.1335 172.54 55.8551C172.034 55.571 171.645 55.25 171.372 54.892C171.099 54.5284 170.889 54.2273 170.741 53.9886H170.571V60.9091H168.56ZM170.537 49.4545C170.537 50.4432 170.682 51.3153 170.972 52.071C171.261 52.821 171.685 53.4091 172.241 53.8352C172.798 54.2557 173.48 54.4659 174.287 54.4659C175.128 54.4659 175.83 54.2443 176.392 53.8011C176.96 53.3523 177.386 52.75 177.67 51.9943C177.96 51.233 178.105 50.3864 178.105 49.4545C178.105 48.5341 177.963 47.7045 177.679 46.9659C177.401 46.2216 176.977 45.6335 176.409 45.2017C175.847 44.7642 175.139 44.5455 174.287 44.5455C173.469 44.5455 172.781 44.7528 172.224 45.1676C171.668 45.5767 171.247 46.1506 170.963 46.8892C170.679 47.6222 170.537 48.4773 170.537 49.4545ZM188.673 56.2727C187.412 56.2727 186.324 55.9943 185.409 55.4375C184.5 54.875 183.798 54.0909 183.304 53.0852C182.815 52.0739 182.571 50.8977 182.571 49.5568C182.571 48.2159 182.815 47.0341 183.304 46.0114C183.798 44.983 184.486 44.1818 185.366 43.608C186.253 43.0284 187.287 42.7386 188.469 42.7386C189.151 42.7386 189.824 42.8523 190.489 43.0795C191.153 43.3068 191.759 43.6761 192.304 44.1875C192.849 44.6932 193.284 45.3636 193.608 46.1989C193.932 47.0341 194.094 48.0625 194.094 49.2841V50.1364H184.003V48.3977H192.048C192.048 47.6591 191.901 47 191.605 46.4205C191.315 45.8409 190.901 45.3835 190.361 45.0483C189.827 44.7131 189.196 44.5455 188.469 44.5455C187.668 44.5455 186.974 44.7443 186.389 45.142C185.81 45.5341 185.364 46.0455 185.051 46.6761C184.739 47.3068 184.582 47.983 184.582 48.7045V49.8636C184.582 50.8523 184.753 51.6903 185.094 52.3778C185.44 53.0597 185.92 53.5795 186.534 53.9375C187.148 54.2898 187.861 54.4659 188.673 54.4659C189.202 54.4659 189.679 54.392 190.105 54.2443C190.537 54.0909 190.909 53.8636 191.222 53.5625C191.534 53.2557 191.776 52.875 191.946 52.4205L193.889 52.9659C193.685 53.625 193.341 54.2045 192.858 54.7045C192.375 55.1989 191.778 55.5852 191.068 55.8636C190.358 56.1364 189.56 56.2727 188.673 56.2727ZM202.472 56.2727C201.244 56.2727 200.188 55.983 199.301 55.4034C198.415 54.8239 197.733 54.0256 197.256 53.0085C196.778 51.9915 196.54 50.8295 196.54 49.5227C196.54 48.1932 196.784 47.0199 197.273 46.0028C197.767 44.9801 198.455 44.1818 199.335 43.608C200.222 43.0284 201.256 42.7386 202.438 42.7386C203.358 42.7386 204.188 42.9091 204.926 43.25C205.665 43.5909 206.27 44.0682 206.741 44.6818C207.213 45.2955 207.506 46.0114 207.619 46.8295H205.608C205.455 46.233 205.114 45.7045 204.585 45.2443C204.063 44.7784 203.358 44.5455 202.472 44.5455C201.688 44.5455 201 44.75 200.409 45.1591C199.824 45.5625 199.366 46.1335 199.037 46.8722C198.713 47.6051 198.551 48.4659 198.551 49.4545C198.551 50.4659 198.71 51.3466 199.028 52.0966C199.352 52.8466 199.807 53.429 200.392 53.8438C200.983 54.2585 201.676 54.4659 202.472 54.4659C202.994 54.4659 203.469 54.375 203.895 54.1932C204.321 54.0114 204.682 53.75 204.977 53.4091C205.273 53.0682 205.483 52.6591 205.608 52.1818H207.619C207.506 52.9545 207.224 53.6506 206.776 54.2699C206.332 54.8835 205.744 55.3722 205.011 55.7358C204.284 56.0938 203.438 56.2727 202.472 56.2727ZM216.253 42.9091V44.6136H209.469V42.9091H216.253ZM211.446 39.7727H213.457V52.25C213.457 52.8182 213.54 53.2443 213.705 53.5284C213.875 53.8068 214.091 53.9943 214.352 54.0909C214.619 54.1818 214.901 54.2273 215.196 54.2273C215.418 54.2273 215.599 54.2159 215.741 54.1932C215.884 54.1648 215.997 54.142 216.082 54.125L216.491 55.9318C216.355 55.983 216.165 56.0341 215.92 56.0852C215.676 56.142 215.366 56.1705 214.991 56.1705C214.423 56.1705 213.866 56.0483 213.321 55.804C212.781 55.5597 212.332 55.1875 211.974 54.6875C211.622 54.1875 211.446 53.5568 211.446 52.7955V39.7727ZM126.409 94V82.3636H130.341C131.25 82.3636 131.996 82.5189 132.58 82.8295C133.163 83.1364 133.595 83.5587 133.875 84.0966C134.155 84.6345 134.295 85.2462 134.295 85.9318C134.295 86.6174 134.155 87.2254 133.875 87.7557C133.595 88.286 133.165 88.7027 132.585 89.0057C132.006 89.3049 131.265 89.4545 130.364 89.4545H127.182V88.1818H130.318C130.939 88.1818 131.439 88.0909 131.818 87.9091C132.201 87.7273 132.477 87.4697 132.648 87.1364C132.822 86.7992 132.909 86.3977 132.909 85.9318C132.909 85.4659 132.822 85.0587 132.648 84.7102C132.473 84.3617 132.195 84.0928 131.812 83.9034C131.43 83.7102 130.924 83.6136 130.295 83.6136H127.818V94H126.409ZM131.886 88.7727L134.75 94H133.114L130.295 88.7727H131.886ZM140.027 94.1818C139.186 94.1818 138.461 93.9962 137.851 93.625C137.245 93.25 136.777 92.7273 136.447 92.0568C136.122 91.3826 135.959 90.5985 135.959 89.7045C135.959 88.8106 136.122 88.0227 136.447 87.3409C136.777 86.6553 137.235 86.1212 137.822 85.7386C138.413 85.3523 139.103 85.1591 139.891 85.1591C140.345 85.1591 140.794 85.2348 141.237 85.3864C141.68 85.5379 142.084 85.7841 142.447 86.125C142.811 86.4621 143.101 86.9091 143.317 87.4659C143.533 88.0227 143.641 88.7083 143.641 89.5227V90.0909H136.913V88.9318H142.277C142.277 88.4394 142.179 88 141.982 87.6136C141.788 87.2273 141.512 86.9223 141.152 86.6989C140.796 86.4754 140.375 86.3636 139.891 86.3636C139.357 86.3636 138.894 86.4962 138.504 86.7614C138.118 87.0227 137.821 87.3636 137.612 87.7841C137.404 88.2045 137.3 88.6553 137.3 89.1364V89.9091C137.3 90.5682 137.413 91.1269 137.641 91.5852C137.872 92.0398 138.192 92.3864 138.601 92.625C139.01 92.8598 139.485 92.9773 140.027 92.9773C140.379 92.9773 140.697 92.928 140.982 92.8295C141.269 92.7273 141.518 92.5758 141.726 92.375C141.934 92.1705 142.095 91.9167 142.209 91.6136L143.504 91.9773C143.368 92.4167 143.139 92.803 142.817 93.1364C142.495 93.4659 142.097 93.7235 141.624 93.9091C141.15 94.0909 140.618 94.1818 140.027 94.1818ZM151.862 87.2273L150.658 87.5682C150.582 87.3674 150.47 87.1723 150.322 86.983C150.179 86.7898 149.982 86.6307 149.732 86.5057C149.482 86.3807 149.161 86.3182 148.771 86.3182C148.237 86.3182 147.792 86.4413 147.436 86.6875C147.084 86.9299 146.908 87.2386 146.908 87.6136C146.908 87.947 147.029 88.2102 147.271 88.4034C147.514 88.5966 147.893 88.7576 148.408 88.8864L149.703 89.2045C150.483 89.3939 151.065 89.6837 151.447 90.0739C151.83 90.4602 152.021 90.9583 152.021 91.5682C152.021 92.0682 151.877 92.5152 151.589 92.9091C151.305 93.303 150.908 93.6136 150.396 93.8409C149.885 94.0682 149.29 94.1818 148.612 94.1818C147.722 94.1818 146.985 93.9886 146.402 93.6023C145.819 93.2159 145.449 92.6515 145.294 91.9091L146.567 91.5909C146.688 92.0606 146.917 92.4129 147.254 92.6477C147.595 92.8826 148.04 93 148.589 93C149.214 93 149.711 92.8674 150.078 92.6023C150.449 92.3333 150.635 92.0114 150.635 91.6364C150.635 91.3333 150.529 91.0795 150.317 90.875C150.105 90.6667 149.779 90.5114 149.339 90.4091L147.885 90.0682C147.086 89.8788 146.499 89.5852 146.124 89.1875C145.752 88.786 145.567 88.2841 145.567 87.6818C145.567 87.1894 145.705 86.7538 145.982 86.375C146.262 85.9962 146.643 85.6989 147.124 85.483C147.608 85.267 148.158 85.1591 148.771 85.1591C149.635 85.1591 150.313 85.3485 150.805 85.7273C151.302 86.1061 151.654 86.6061 151.862 87.2273ZM154.04 97.2727V85.2727H155.335V86.6591H155.494C155.593 86.5076 155.729 86.3144 155.903 86.0795C156.081 85.8409 156.335 85.6288 156.665 85.4432C156.998 85.2538 157.449 85.1591 158.017 85.1591C158.752 85.1591 159.4 85.3428 159.96 85.7102C160.521 86.0777 160.958 86.5985 161.273 87.2727C161.587 87.947 161.744 88.7424 161.744 89.6591C161.744 90.5833 161.587 91.3845 161.273 92.0625C160.958 92.7367 160.523 93.2595 159.966 93.6307C159.409 93.9981 158.767 94.1818 158.04 94.1818C157.479 94.1818 157.03 94.089 156.693 93.9034C156.356 93.714 156.097 93.5 155.915 93.2614C155.733 93.0189 155.593 92.8182 155.494 92.6591H155.381V97.2727H154.04ZM155.358 89.6364C155.358 90.2955 155.455 90.8769 155.648 91.3807C155.841 91.8807 156.123 92.2727 156.494 92.5568C156.866 92.8371 157.32 92.9773 157.858 92.9773C158.419 92.9773 158.886 92.8295 159.261 92.5341C159.64 92.2348 159.924 91.8333 160.114 91.3295C160.307 90.822 160.403 90.2576 160.403 89.6364C160.403 89.0227 160.309 88.4697 160.119 87.9773C159.934 87.4811 159.652 87.089 159.273 86.8011C158.898 86.5095 158.426 86.3636 157.858 86.3636C157.313 86.3636 156.854 86.5019 156.483 86.7784C156.112 87.0511 155.831 87.4337 155.642 87.9261C155.453 88.4148 155.358 88.9848 155.358 89.6364ZM167.449 94.1818C166.608 94.1818 165.883 93.9962 165.273 93.625C164.667 93.25 164.199 92.7273 163.869 92.0568C163.544 91.3826 163.381 90.5985 163.381 89.7045C163.381 88.8106 163.544 88.0227 163.869 87.3409C164.199 86.6553 164.657 86.1212 165.244 85.7386C165.835 85.3523 166.525 85.1591 167.312 85.1591C167.767 85.1591 168.216 85.2348 168.659 85.3864C169.102 85.5379 169.506 85.7841 169.869 86.125C170.233 86.4621 170.523 86.9091 170.739 87.4659C170.955 88.0227 171.062 88.7083 171.062 89.5227V90.0909H164.335V88.9318H169.699C169.699 88.4394 169.6 88 169.403 87.6136C169.21 87.2273 168.934 86.9223 168.574 86.6989C168.218 86.4754 167.797 86.3636 167.312 86.3636C166.778 86.3636 166.316 86.4962 165.926 86.7614C165.54 87.0227 165.242 87.3636 165.034 87.7841C164.826 88.2045 164.722 88.6553 164.722 89.1364V89.9091C164.722 90.5682 164.835 91.1269 165.062 91.5852C165.294 92.0398 165.614 92.3864 166.023 92.625C166.432 92.8598 166.907 92.9773 167.449 92.9773C167.801 92.9773 168.119 92.928 168.403 92.8295C168.691 92.7273 168.939 92.5758 169.148 92.375C169.356 92.1705 169.517 91.9167 169.631 91.6136L170.926 91.9773C170.79 92.4167 170.561 92.803 170.239 93.1364C169.917 93.4659 169.519 93.7235 169.045 93.9091C168.572 94.0909 168.04 94.1818 167.449 94.1818ZM176.648 94.1818C175.83 94.1818 175.125 93.9886 174.534 93.6023C173.943 93.2159 173.489 92.6837 173.17 92.0057C172.852 91.3277 172.693 90.553 172.693 89.6818C172.693 88.7955 172.856 88.0133 173.182 87.3352C173.511 86.6534 173.97 86.1212 174.557 85.7386C175.148 85.3523 175.837 85.1591 176.625 85.1591C177.239 85.1591 177.792 85.2727 178.284 85.5C178.777 85.7273 179.18 86.0455 179.494 86.4545C179.809 86.8636 180.004 87.3409 180.08 87.8864H178.739C178.636 87.4886 178.409 87.1364 178.057 86.8295C177.708 86.5189 177.239 86.3636 176.648 86.3636C176.125 86.3636 175.667 86.5 175.273 86.7727C174.883 87.0417 174.578 87.4223 174.358 87.9148C174.142 88.4034 174.034 88.9773 174.034 89.6364C174.034 90.3106 174.14 90.8977 174.352 91.3977C174.568 91.8977 174.871 92.286 175.261 92.5625C175.655 92.839 176.117 92.9773 176.648 92.9773C176.996 92.9773 177.312 92.9167 177.597 92.7955C177.881 92.6742 178.121 92.5 178.318 92.2727C178.515 92.0455 178.655 91.7727 178.739 91.4545H180.08C180.004 91.9697 179.816 92.4337 179.517 92.8466C179.222 93.2557 178.83 93.5814 178.341 93.8239C177.856 94.0625 177.292 94.1818 176.648 94.1818ZM185.835 85.2727V86.4091H181.312V85.2727H185.835ZM182.631 83.1818H183.972V91.5C183.972 91.8788 184.027 92.1629 184.136 92.3523C184.25 92.5379 184.394 92.6629 184.568 92.7273C184.746 92.7879 184.934 92.8182 185.131 92.8182C185.278 92.8182 185.4 92.8106 185.494 92.7955C185.589 92.7765 185.665 92.7614 185.722 92.75L185.994 93.9545C185.903 93.9886 185.777 94.0227 185.614 94.0568C185.451 94.0947 185.244 94.1136 184.994 94.1136C184.616 94.1136 184.244 94.0322 183.881 93.8693C183.521 93.7064 183.222 93.4583 182.983 93.125C182.748 92.7917 182.631 92.3712 182.631 91.8636V83.1818ZM195.898 94.1818C195.11 94.1818 194.419 93.9943 193.824 93.6193C193.233 93.2443 192.771 92.7197 192.438 92.0455C192.108 91.3712 191.943 90.5833 191.943 89.6818C191.943 88.7727 192.108 87.9792 192.438 87.3011C192.771 86.6231 193.233 86.0966 193.824 85.7216C194.419 85.3466 195.11 85.1591 195.898 85.1591C196.686 85.1591 197.375 85.3466 197.966 85.7216C198.561 86.0966 199.023 86.6231 199.352 87.3011C199.686 87.9792 199.852 88.7727 199.852 89.6818C199.852 90.5833 199.686 91.3712 199.352 92.0455C199.023 92.7197 198.561 93.2443 197.966 93.6193C197.375 93.9943 196.686 94.1818 195.898 94.1818ZM195.898 92.9773C196.496 92.9773 196.989 92.8239 197.375 92.517C197.761 92.2102 198.047 91.8068 198.233 91.3068C198.419 90.8068 198.511 90.2652 198.511 89.6818C198.511 89.0985 198.419 88.5549 198.233 88.0511C198.047 87.5473 197.761 87.1402 197.375 86.8295C196.989 86.5189 196.496 86.3636 195.898 86.3636C195.299 86.3636 194.807 86.5189 194.42 86.8295C194.034 87.1402 193.748 87.5473 193.562 88.0511C193.377 88.5549 193.284 89.0985 193.284 89.6818C193.284 90.2652 193.377 90.8068 193.562 91.3068C193.748 91.8068 194.034 92.2102 194.42 92.517C194.807 92.8239 195.299 92.9773 195.898 92.9773ZM205.695 85.2727V86.4091H201.172V85.2727H205.695ZM202.49 83.1818H203.831V91.5C203.831 91.8788 203.886 92.1629 203.996 92.3523C204.109 92.5379 204.253 92.6629 204.428 92.7273C204.606 92.7879 204.793 92.8182 204.99 92.8182C205.138 92.8182 205.259 92.8106 205.354 92.7955C205.448 92.7765 205.524 92.7614 205.581 92.75L205.854 93.9545C205.763 93.9886 205.636 94.0227 205.473 94.0568C205.31 94.0947 205.104 94.1136 204.854 94.1136C204.475 94.1136 204.104 94.0322 203.74 93.8693C203.38 93.7064 203.081 93.4583 202.842 93.125C202.607 92.7917 202.49 92.3712 202.49 91.8636V83.1818ZM209.24 88.75V94H207.899V82.3636H209.24V86.6364H209.354C209.558 86.1856 209.865 85.8277 210.274 85.5625C210.687 85.2936 211.236 85.1591 211.922 85.1591C212.517 85.1591 213.037 85.2784 213.484 85.517C213.931 85.7519 214.278 86.1136 214.524 86.6023C214.774 87.0871 214.899 87.7045 214.899 88.4545V94H213.558V88.5455C213.558 87.8523 213.378 87.3163 213.018 86.9375C212.662 86.5549 212.168 86.3636 211.536 86.3636C211.096 86.3636 210.702 86.4564 210.354 86.642C210.009 86.8277 209.736 87.0985 209.536 87.4545C209.339 87.8106 209.24 88.2424 209.24 88.75ZM221.011 94.1818C220.17 94.1818 219.445 93.9962 218.835 93.625C218.229 93.25 217.761 92.7273 217.432 92.0568C217.106 91.3826 216.943 90.5985 216.943 89.7045C216.943 88.8106 217.106 88.0227 217.432 87.3409C217.761 86.6553 218.22 86.1212 218.807 85.7386C219.398 85.3523 220.087 85.1591 220.875 85.1591C221.33 85.1591 221.778 85.2348 222.222 85.3864C222.665 85.5379 223.068 85.7841 223.432 86.125C223.795 86.4621 224.085 86.9091 224.301 87.4659C224.517 88.0227 224.625 88.7083 224.625 89.5227V90.0909H217.898V88.9318H223.261C223.261 88.4394 223.163 88 222.966 87.6136C222.773 87.2273 222.496 86.9223 222.136 86.6989C221.78 86.4754 221.36 86.3636 220.875 86.3636C220.341 86.3636 219.879 86.4962 219.489 86.7614C219.102 87.0227 218.805 87.3636 218.597 87.7841C218.388 88.2045 218.284 88.6553 218.284 89.1364V89.9091C218.284 90.5682 218.398 91.1269 218.625 91.5852C218.856 92.0398 219.176 92.3864 219.585 92.625C219.994 92.8598 220.47 92.9773 221.011 92.9773C221.364 92.9773 221.682 92.928 221.966 92.8295C222.254 92.7273 222.502 92.5758 222.71 92.375C222.919 92.1705 223.08 91.9167 223.193 91.6136L224.489 91.9773C224.352 92.4167 224.123 92.803 223.801 93.1364C223.479 93.4659 223.081 93.7235 222.608 93.9091C222.134 94.0909 221.602 94.1818 221.011 94.1818ZM226.665 94V85.2727H227.96V86.5909H228.051C228.21 86.1591 228.498 85.8087 228.915 85.5398C229.331 85.2708 229.801 85.1364 230.324 85.1364C230.422 85.1364 230.545 85.1383 230.693 85.142C230.841 85.1458 230.953 85.1515 231.028 85.1591V86.5227C230.983 86.5114 230.879 86.4943 230.716 86.4716C230.557 86.4451 230.388 86.4318 230.21 86.4318C229.786 86.4318 229.407 86.5208 229.074 86.6989C228.744 86.8731 228.483 87.1155 228.29 87.4261C228.1 87.733 228.006 88.0833 228.006 88.4773V94H226.665ZM238.8 87.2273L237.595 87.5682C237.519 87.3674 237.408 87.1723 237.26 86.983C237.116 86.7898 236.919 86.6307 236.669 86.5057C236.419 86.3807 236.099 86.3182 235.709 86.3182C235.175 86.3182 234.73 86.4413 234.374 86.6875C234.021 86.9299 233.845 87.2386 233.845 87.6136C233.845 87.947 233.966 88.2102 234.209 88.4034C234.451 88.5966 234.83 88.7576 235.345 88.8864L236.641 89.2045C237.421 89.3939 238.002 89.6837 238.385 90.0739C238.768 90.4602 238.959 90.9583 238.959 91.5682C238.959 92.0682 238.815 92.5152 238.527 92.9091C238.243 93.303 237.845 93.6136 237.334 93.8409C236.822 94.0682 236.228 94.1818 235.55 94.1818C234.66 94.1818 233.923 93.9886 233.339 93.6023C232.756 93.2159 232.387 92.6515 232.232 91.9091L233.504 91.5909C233.625 92.0606 233.855 92.4129 234.192 92.6477C234.533 92.8826 234.978 93 235.527 93C236.152 93 236.648 92.8674 237.016 92.6023C237.387 92.3333 237.572 92.0114 237.572 91.6364C237.572 91.3333 237.466 91.0795 237.254 90.875C237.042 90.6667 236.716 90.5114 236.277 90.4091L234.822 90.0682C234.023 89.8788 233.436 89.5852 233.061 89.1875C232.69 88.786 232.504 88.2841 232.504 87.6818C232.504 87.1894 232.643 86.7538 232.919 86.375C233.199 85.9962 233.58 85.6989 234.061 85.483C234.546 85.267 235.095 85.1591 235.709 85.1591C236.572 85.1591 237.25 85.3485 237.743 85.7273C238.239 86.1061 238.591 86.6061 238.8 87.2273ZM241.955 94.0909C241.674 94.0909 241.434 93.9905 241.233 93.7898C241.032 93.589 240.932 93.3485 240.932 93.0682C240.932 92.7879 241.032 92.5473 241.233 92.3466C241.434 92.1458 241.674 92.0455 241.955 92.0455C242.235 92.0455 242.475 92.1458 242.676 92.3466C242.877 92.5473 242.977 92.7879 242.977 93.0682C242.977 93.2538 242.93 93.4242 242.835 93.5795C242.744 93.7348 242.621 93.8598 242.466 93.9545C242.314 94.0455 242.144 94.0909 241.955 94.0909ZM250.065 94V82.3636H253.997C254.906 82.3636 255.652 82.5189 256.236 82.8295C256.819 83.1364 257.251 83.5587 257.531 84.0966C257.812 84.6345 257.952 85.2462 257.952 85.9318C257.952 86.6174 257.812 87.2254 257.531 87.7557C257.251 88.286 256.821 88.7027 256.241 89.0057C255.662 89.3049 254.921 89.4545 254.02 89.4545H250.838V88.1818H253.974C254.596 88.1818 255.096 88.0909 255.474 87.9091C255.857 87.7273 256.134 87.4697 256.304 87.1364C256.478 86.7992 256.565 86.3977 256.565 85.9318C256.565 85.4659 256.478 85.0587 256.304 84.7102C256.13 84.3617 255.851 84.0928 255.469 83.9034C255.086 83.7102 254.58 83.6136 253.952 83.6136H251.474V94H250.065ZM255.543 88.7727L258.406 94H256.77L253.952 88.7727H255.543ZM263.683 94.1818C262.842 94.1818 262.117 93.9962 261.507 93.625C260.901 93.25 260.433 92.7273 260.104 92.0568C259.778 91.3826 259.615 90.5985 259.615 89.7045C259.615 88.8106 259.778 88.0227 260.104 87.3409C260.433 86.6553 260.892 86.1212 261.479 85.7386C262.07 85.3523 262.759 85.1591 263.547 85.1591C264.001 85.1591 264.45 85.2348 264.893 85.3864C265.337 85.5379 265.74 85.7841 266.104 86.125C266.467 86.4621 266.757 86.9091 266.973 87.4659C267.189 88.0227 267.297 88.7083 267.297 89.5227V90.0909H260.57V88.9318H265.933C265.933 88.4394 265.835 88 265.638 87.6136C265.445 87.2273 265.168 86.9223 264.808 86.6989C264.452 86.4754 264.032 86.3636 263.547 86.3636C263.013 86.3636 262.551 86.4962 262.161 86.7614C261.774 87.0227 261.477 87.3636 261.268 87.7841C261.06 88.2045 260.956 88.6553 260.956 89.1364V89.9091C260.956 90.5682 261.07 91.1269 261.297 91.5852C261.528 92.0398 261.848 92.3864 262.257 92.625C262.666 92.8598 263.142 92.9773 263.683 92.9773C264.036 92.9773 264.354 92.928 264.638 92.8295C264.926 92.7273 265.174 92.5758 265.382 92.375C265.59 92.1705 265.751 91.9167 265.865 91.6136L267.161 91.9773C267.024 92.4167 266.795 92.803 266.473 93.1364C266.151 93.4659 265.753 93.7235 265.28 93.9091C264.806 94.0909 264.274 94.1818 263.683 94.1818ZM275.518 87.2273L274.314 87.5682C274.238 87.3674 274.126 87.1723 273.979 86.983C273.835 86.7898 273.638 86.6307 273.388 86.5057C273.138 86.3807 272.818 86.3182 272.428 86.3182C271.893 86.3182 271.448 86.4413 271.092 86.6875C270.74 86.9299 270.564 87.2386 270.564 87.6136C270.564 87.947 270.685 88.2102 270.928 88.4034C271.17 88.5966 271.549 88.7576 272.064 88.8864L273.359 89.2045C274.14 89.3939 274.721 89.6837 275.104 90.0739C275.486 90.4602 275.678 90.9583 275.678 91.5682C275.678 92.0682 275.534 92.5152 275.246 92.9091C274.962 93.303 274.564 93.6136 274.053 93.8409C273.541 94.0682 272.946 94.1818 272.268 94.1818C271.378 94.1818 270.642 93.9886 270.058 93.6023C269.475 93.2159 269.106 92.6515 268.95 91.9091L270.223 91.5909C270.344 92.0606 270.573 92.4129 270.911 92.6477C271.251 92.8826 271.696 93 272.246 93C272.871 93 273.367 92.8674 273.734 92.6023C274.106 92.3333 274.291 92.0114 274.291 91.6364C274.291 91.3333 274.185 91.0795 273.973 90.875C273.761 90.6667 273.435 90.5114 272.996 90.4091L271.541 90.0682C270.742 89.8788 270.155 89.5852 269.78 89.1875C269.409 88.786 269.223 88.2841 269.223 87.6818C269.223 87.1894 269.361 86.7538 269.638 86.375C269.918 85.9962 270.299 85.6989 270.78 85.483C271.265 85.267 271.814 85.1591 272.428 85.1591C273.291 85.1591 273.969 85.3485 274.462 85.7273C274.958 86.1061 275.31 86.6061 275.518 87.2273ZM277.696 97.2727V85.2727H278.991V86.6591H279.151C279.249 86.5076 279.385 86.3144 279.56 86.0795C279.738 85.8409 279.991 85.6288 280.321 85.4432C280.654 85.2538 281.105 85.1591 281.673 85.1591C282.408 85.1591 283.056 85.3428 283.616 85.7102C284.177 86.0777 284.615 86.5985 284.929 87.2727C285.243 87.947 285.401 88.7424 285.401 89.6591C285.401 90.5833 285.243 91.3845 284.929 92.0625C284.615 92.7367 284.179 93.2595 283.622 93.6307C283.065 93.9981 282.423 94.1818 281.696 94.1818C281.135 94.1818 280.687 94.089 280.349 93.9034C280.012 93.714 279.753 93.5 279.571 93.2614C279.389 93.0189 279.249 92.8182 279.151 92.6591H279.037V97.2727H277.696ZM279.014 89.6364C279.014 90.2955 279.111 90.8769 279.304 91.3807C279.497 91.8807 279.779 92.2727 280.151 92.5568C280.522 92.8371 280.976 92.9773 281.514 92.9773C282.075 92.9773 282.543 92.8295 282.918 92.5341C283.296 92.2348 283.58 91.8333 283.77 91.3295C283.963 90.822 284.06 90.2576 284.06 89.6364C284.06 89.0227 283.965 88.4697 283.776 87.9773C283.59 87.4811 283.308 87.089 282.929 86.8011C282.554 86.5095 282.082 86.3636 281.514 86.3636C280.969 86.3636 280.51 86.5019 280.139 86.7784C279.768 87.0511 279.488 87.4337 279.298 87.9261C279.109 88.4148 279.014 88.9848 279.014 89.6364ZM291.105 94.1818C290.264 94.1818 289.539 93.9962 288.929 93.625C288.323 93.25 287.855 92.7273 287.526 92.0568C287.2 91.3826 287.037 90.5985 287.037 89.7045C287.037 88.8106 287.2 88.0227 287.526 87.3409C287.855 86.6553 288.313 86.1212 288.901 85.7386C289.491 85.3523 290.181 85.1591 290.969 85.1591C291.423 85.1591 291.872 85.2348 292.315 85.3864C292.759 85.5379 293.162 85.7841 293.526 86.125C293.889 86.4621 294.179 86.9091 294.395 87.4659C294.611 88.0227 294.719 88.7083 294.719 89.5227V90.0909H287.991V88.9318H293.355C293.355 88.4394 293.257 88 293.06 87.6136C292.866 87.2273 292.59 86.9223 292.23 86.6989C291.874 86.4754 291.454 86.3636 290.969 86.3636C290.435 86.3636 289.973 86.4962 289.582 86.7614C289.196 87.0227 288.899 87.3636 288.69 87.7841C288.482 88.2045 288.378 88.6553 288.378 89.1364V89.9091C288.378 90.5682 288.491 91.1269 288.719 91.5852C288.95 92.0398 289.27 92.3864 289.679 92.625C290.088 92.8598 290.563 92.9773 291.105 92.9773C291.457 92.9773 291.776 92.928 292.06 92.8295C292.348 92.7273 292.596 92.5758 292.804 92.375C293.012 92.1705 293.173 91.9167 293.287 91.6136L294.582 91.9773C294.446 92.4167 294.217 92.803 293.895 93.1364C293.573 93.4659 293.175 93.7235 292.702 93.9091C292.228 94.0909 291.696 94.1818 291.105 94.1818ZM300.304 94.1818C299.486 94.1818 298.781 93.9886 298.19 93.6023C297.599 93.2159 297.145 92.6837 296.827 92.0057C296.509 91.3277 296.349 90.553 296.349 89.6818C296.349 88.7955 296.512 88.0133 296.838 87.3352C297.168 86.6534 297.626 86.1212 298.213 85.7386C298.804 85.3523 299.493 85.1591 300.281 85.1591C300.895 85.1591 301.448 85.2727 301.94 85.5C302.433 85.7273 302.836 86.0455 303.151 86.4545C303.465 86.8636 303.66 87.3409 303.736 87.8864H302.395C302.293 87.4886 302.065 87.1364 301.713 86.8295C301.365 86.5189 300.895 86.3636 300.304 86.3636C299.781 86.3636 299.323 86.5 298.929 86.7727C298.539 87.0417 298.234 87.4223 298.014 87.9148C297.798 88.4034 297.69 88.9773 297.69 89.6364C297.69 90.3106 297.796 90.8977 298.009 91.3977C298.224 91.8977 298.527 92.286 298.918 92.5625C299.312 92.839 299.774 92.9773 300.304 92.9773C300.652 92.9773 300.969 92.9167 301.253 92.7955C301.537 92.6742 301.777 92.5 301.974 92.2727C302.171 92.0455 302.312 91.7727 302.395 91.4545H303.736C303.66 91.9697 303.473 92.4337 303.173 92.8466C302.878 93.2557 302.486 93.5814 301.997 93.8239C301.512 94.0625 300.948 94.1818 300.304 94.1818ZM309.491 85.2727V86.4091H304.969V85.2727H309.491ZM306.287 83.1818H307.628V91.5C307.628 91.8788 307.683 92.1629 307.793 92.3523C307.906 92.5379 308.05 92.6629 308.224 92.7273C308.402 92.7879 308.59 92.8182 308.787 92.8182C308.935 92.8182 309.056 92.8106 309.151 92.7955C309.245 92.7765 309.321 92.7614 309.378 92.75L309.651 93.9545C309.56 93.9886 309.433 94.0227 309.27 94.0568C309.107 94.0947 308.901 94.1136 308.651 94.1136C308.272 94.1136 307.901 94.0322 307.537 93.8693C307.177 93.7064 306.878 93.4583 306.639 93.125C306.404 92.7917 306.287 92.3712 306.287 91.8636V83.1818ZM316.009 97.2727V85.2727H317.304V86.6591H317.463C317.562 86.5076 317.698 86.3144 317.872 86.0795C318.05 85.8409 318.304 85.6288 318.634 85.4432C318.967 85.2538 319.418 85.1591 319.986 85.1591C320.721 85.1591 321.368 85.3428 321.929 85.7102C322.49 86.0777 322.927 86.5985 323.241 87.2727C323.556 87.947 323.713 88.7424 323.713 89.6591C323.713 90.5833 323.556 91.3845 323.241 92.0625C322.927 92.7367 322.491 93.2595 321.935 93.6307C321.378 93.9981 320.736 94.1818 320.009 94.1818C319.448 94.1818 318.999 94.089 318.662 93.9034C318.325 93.714 318.065 93.5 317.884 93.2614C317.702 93.0189 317.562 92.8182 317.463 92.6591H317.349V97.2727H316.009ZM317.327 89.6364C317.327 90.2955 317.423 90.8769 317.616 91.3807C317.81 91.8807 318.092 92.2727 318.463 92.5568C318.834 92.8371 319.289 92.9773 319.827 92.9773C320.387 92.9773 320.855 92.8295 321.23 92.5341C321.609 92.2348 321.893 91.8333 322.082 91.3295C322.276 90.822 322.372 90.2576 322.372 89.6364C322.372 89.0227 322.277 88.4697 322.088 87.9773C321.902 87.4811 321.62 87.089 321.241 86.8011C320.866 86.5095 320.395 86.3636 319.827 86.3636C319.281 86.3636 318.823 86.5019 318.452 86.7784C318.08 87.0511 317.8 87.4337 317.611 87.9261C317.421 88.4148 317.327 88.9848 317.327 89.6364ZM329.418 94.1818C328.577 94.1818 327.851 93.9962 327.241 93.625C326.635 93.25 326.168 92.7273 325.838 92.0568C325.512 91.3826 325.349 90.5985 325.349 89.7045C325.349 88.8106 325.512 88.0227 325.838 87.3409C326.168 86.6553 326.626 86.1212 327.213 85.7386C327.804 85.3523 328.493 85.1591 329.281 85.1591C329.736 85.1591 330.185 85.2348 330.628 85.3864C331.071 85.5379 331.474 85.7841 331.838 86.125C332.202 86.4621 332.491 86.9091 332.707 87.4659C332.923 88.0227 333.031 88.7083 333.031 89.5227V90.0909H326.304V88.9318H331.668C331.668 88.4394 331.569 88 331.372 87.6136C331.179 87.2273 330.902 86.9223 330.543 86.6989C330.187 86.4754 329.766 86.3636 329.281 86.3636C328.747 86.3636 328.285 86.4962 327.895 86.7614C327.509 87.0227 327.211 87.3636 327.003 87.7841C326.795 88.2045 326.69 88.6553 326.69 89.1364V89.9091C326.69 90.5682 326.804 91.1269 327.031 91.5852C327.262 92.0398 327.582 92.3864 327.991 92.625C328.401 92.8598 328.876 92.9773 329.418 92.9773C329.77 92.9773 330.088 92.928 330.372 92.8295C330.66 92.7273 330.908 92.5758 331.116 92.375C331.325 92.1705 331.486 91.9167 331.599 91.6136L332.895 91.9773C332.759 92.4167 332.529 92.803 332.207 93.1364C331.885 93.4659 331.488 93.7235 331.014 93.9091C330.541 94.0909 330.009 94.1818 329.418 94.1818ZM335.071 94V85.2727H336.366V86.5909H336.457C336.616 86.1591 336.904 85.8087 337.321 85.5398C337.738 85.2708 338.207 85.1364 338.73 85.1364C338.829 85.1364 338.952 85.1383 339.099 85.142C339.247 85.1458 339.359 85.1515 339.435 85.1591V86.5227C339.389 86.5114 339.285 86.4943 339.122 86.4716C338.963 86.4451 338.795 86.4318 338.616 86.4318C338.192 86.4318 337.813 86.5208 337.48 86.6989C337.151 86.8731 336.889 87.1155 336.696 87.4261C336.507 87.733 336.412 88.0833 336.412 88.4773V94H335.071ZM347.206 87.2273L346.001 87.5682C345.926 87.3674 345.814 87.1723 345.666 86.983C345.522 86.7898 345.325 86.6307 345.075 86.5057C344.825 86.3807 344.505 86.3182 344.115 86.3182C343.581 86.3182 343.136 86.4413 342.78 86.6875C342.428 86.9299 342.251 87.2386 342.251 87.6136C342.251 87.947 342.373 88.2102 342.615 88.4034C342.857 88.5966 343.236 88.7576 343.751 88.8864L345.047 89.2045C345.827 89.3939 346.409 89.6837 346.791 90.0739C347.174 90.4602 347.365 90.9583 347.365 91.5682C347.365 92.0682 347.221 92.5152 346.933 92.9091C346.649 93.303 346.251 93.6136 345.74 93.8409C345.229 94.0682 344.634 94.1818 343.956 94.1818C343.066 94.1818 342.329 93.9886 341.746 93.6023C341.162 93.2159 340.793 92.6515 340.638 91.9091L341.911 91.5909C342.032 92.0606 342.261 92.4129 342.598 92.6477C342.939 92.8826 343.384 93 343.933 93C344.558 93 345.054 92.8674 345.422 92.6023C345.793 92.3333 345.979 92.0114 345.979 91.6364C345.979 91.3333 345.873 91.0795 345.661 90.875C345.448 90.6667 345.123 90.5114 344.683 90.4091L343.229 90.0682C342.429 89.8788 341.842 89.5852 341.467 89.1875C341.096 88.786 340.911 88.2841 340.911 87.6818C340.911 87.1894 341.049 86.7538 341.325 86.375C341.606 85.9962 341.986 85.6989 342.467 85.483C342.952 85.267 343.501 85.1591 344.115 85.1591C344.979 85.1591 345.657 85.3485 346.149 85.7273C346.645 86.1061 346.998 86.6061 347.206 87.2273ZM349.384 97.2727V85.2727H350.679V86.6591H350.838C350.937 86.5076 351.073 86.3144 351.247 86.0795C351.425 85.8409 351.679 85.6288 352.009 85.4432C352.342 85.2538 352.793 85.1591 353.361 85.1591C354.096 85.1591 354.743 85.3428 355.304 85.7102C355.865 86.0777 356.302 86.5985 356.616 87.2727C356.931 87.947 357.088 88.7424 357.088 89.6591C357.088 90.5833 356.931 91.3845 356.616 92.0625C356.302 92.7367 355.866 93.2595 355.31 93.6307C354.753 93.9981 354.111 94.1818 353.384 94.1818C352.823 94.1818 352.374 94.089 352.037 93.9034C351.7 93.714 351.44 93.5 351.259 93.2614C351.077 93.0189 350.937 92.8182 350.838 92.6591H350.724V97.2727H349.384ZM350.702 89.6364C350.702 90.2955 350.798 90.8769 350.991 91.3807C351.185 91.8807 351.467 92.2727 351.838 92.5568C352.209 92.8371 352.664 92.9773 353.202 92.9773C353.762 92.9773 354.23 92.8295 354.605 92.5341C354.984 92.2348 355.268 91.8333 355.457 91.3295C355.651 90.822 355.747 90.2576 355.747 89.6364C355.747 89.0227 355.652 88.4697 355.463 87.9773C355.277 87.4811 354.995 87.089 354.616 86.8011C354.241 86.5095 353.77 86.3636 353.202 86.3636C352.656 86.3636 352.198 86.5019 351.827 86.7784C351.455 87.0511 351.175 87.4337 350.986 87.9261C350.796 88.4148 350.702 88.9848 350.702 89.6364ZM362.793 94.1818C361.952 94.1818 361.226 93.9962 360.616 93.625C360.01 93.25 359.543 92.7273 359.213 92.0568C358.887 91.3826 358.724 90.5985 358.724 89.7045C358.724 88.8106 358.887 88.0227 359.213 87.3409C359.543 86.6553 360.001 86.1212 360.588 85.7386C361.179 85.3523 361.868 85.1591 362.656 85.1591C363.111 85.1591 363.56 85.2348 364.003 85.3864C364.446 85.5379 364.849 85.7841 365.213 86.125C365.577 86.4621 365.866 86.9091 366.082 87.4659C366.298 88.0227 366.406 88.7083 366.406 89.5227V90.0909H359.679V88.9318H365.043C365.043 88.4394 364.944 88 364.747 87.6136C364.554 87.2273 364.277 86.9223 363.918 86.6989C363.562 86.4754 363.141 86.3636 362.656 86.3636C362.122 86.3636 361.66 86.4962 361.27 86.7614C360.884 87.0227 360.586 87.3636 360.378 87.7841C360.17 88.2045 360.065 88.6553 360.065 89.1364V89.9091C360.065 90.5682 360.179 91.1269 360.406 91.5852C360.637 92.0398 360.957 92.3864 361.366 92.625C361.776 92.8598 362.251 92.9773 362.793 92.9773C363.145 92.9773 363.463 92.928 363.747 92.8295C364.035 92.7273 364.283 92.5758 364.491 92.375C364.7 92.1705 364.861 91.9167 364.974 91.6136L366.27 91.9773C366.134 92.4167 365.904 92.803 365.582 93.1364C365.26 93.4659 364.863 93.7235 364.389 93.9091C363.916 94.0909 363.384 94.1818 362.793 94.1818ZM371.991 94.1818C371.173 94.1818 370.469 93.9886 369.878 93.6023C369.287 93.2159 368.832 92.6837 368.514 92.0057C368.196 91.3277 368.037 90.553 368.037 89.6818C368.037 88.7955 368.2 88.0133 368.526 87.3352C368.855 86.6534 369.313 86.1212 369.901 85.7386C370.491 85.3523 371.181 85.1591 371.969 85.1591C372.582 85.1591 373.135 85.2727 373.628 85.5C374.12 85.7273 374.524 86.0455 374.838 86.4545C375.152 86.8636 375.348 87.3409 375.423 87.8864H374.082C373.98 87.4886 373.753 87.1364 373.401 86.8295C373.052 86.5189 372.582 86.3636 371.991 86.3636C371.469 86.3636 371.01 86.5 370.616 86.7727C370.226 87.0417 369.921 87.4223 369.702 87.9148C369.486 88.4034 369.378 88.9773 369.378 89.6364C369.378 90.3106 369.484 90.8977 369.696 91.3977C369.912 91.8977 370.215 92.286 370.605 92.5625C370.999 92.839 371.461 92.9773 371.991 92.9773C372.34 92.9773 372.656 92.9167 372.94 92.7955C373.224 92.6742 373.465 92.5 373.662 92.2727C373.859 92.0455 373.999 91.7727 374.082 91.4545H375.423C375.348 91.9697 375.16 92.4337 374.861 92.8466C374.565 93.2557 374.173 93.5814 373.685 93.8239C373.2 94.0625 372.635 94.1818 371.991 94.1818ZM381.179 85.2727V86.4091H376.656V85.2727H381.179ZM377.974 83.1818H379.315V91.5C379.315 91.8788 379.37 92.1629 379.48 92.3523C379.594 92.5379 379.738 92.6629 379.912 92.7273C380.09 92.7879 380.277 92.8182 380.474 92.8182C380.622 92.8182 380.743 92.8106 380.838 92.7955C380.933 92.7765 381.009 92.7614 381.065 92.75L381.338 93.9545C381.247 93.9886 381.12 94.0227 380.957 94.0568C380.795 94.0947 380.588 94.1136 380.338 94.1136C379.959 94.1136 379.588 94.0322 379.224 93.8693C378.865 93.7064 378.565 93.4583 378.327 93.125C378.092 92.7917 377.974 92.3712 377.974 91.8636V83.1818ZM383.196 94V85.2727H384.537V94H383.196ZM383.878 83.8182C383.616 83.8182 383.391 83.7292 383.202 83.5511C383.016 83.3731 382.923 83.1591 382.923 82.9091C382.923 82.6591 383.016 82.4451 383.202 82.267C383.391 82.089 383.616 82 383.878 82C384.139 82 384.363 82.089 384.548 82.267C384.738 82.4451 384.832 82.6591 384.832 82.9091C384.832 83.1591 384.738 83.3731 384.548 83.5511C384.363 83.7292 384.139 83.8182 383.878 83.8182ZM394.129 85.2727L390.902 94H389.538L386.311 85.2727H387.766L390.175 92.2273H390.266L392.675 85.2727H394.129ZM399.246 94.1818C398.405 94.1818 397.679 93.9962 397.07 93.625C396.464 93.25 395.996 92.7273 395.666 92.0568C395.34 91.3826 395.178 90.5985 395.178 89.7045C395.178 88.8106 395.34 88.0227 395.666 87.3409C395.996 86.6553 396.454 86.1212 397.041 85.7386C397.632 85.3523 398.321 85.1591 399.109 85.1591C399.564 85.1591 400.013 85.2348 400.456 85.3864C400.899 85.5379 401.303 85.7841 401.666 86.125C402.03 86.4621 402.32 86.9091 402.536 87.4659C402.751 88.0227 402.859 88.7083 402.859 89.5227V90.0909H396.132V88.9318H401.496C401.496 88.4394 401.397 88 401.2 87.6136C401.007 87.2273 400.731 86.9223 400.371 86.6989C400.015 86.4754 399.594 86.3636 399.109 86.3636C398.575 86.3636 398.113 86.4962 397.723 86.7614C397.337 87.0227 397.039 87.3636 396.831 87.7841C396.623 88.2045 396.518 88.6553 396.518 89.1364V89.9091C396.518 90.5682 396.632 91.1269 396.859 91.5852C397.09 92.0398 397.411 92.3864 397.82 92.625C398.229 92.8598 398.704 92.9773 399.246 92.9773C399.598 92.9773 399.916 92.928 400.2 92.8295C400.488 92.7273 400.736 92.5758 400.945 92.375C401.153 92.1705 401.314 91.9167 401.428 91.6136L402.723 91.9773C402.587 92.4167 402.357 92.803 402.036 93.1364C401.714 93.4659 401.316 93.7235 400.842 93.9091C400.369 94.0909 399.837 94.1818 399.246 94.1818ZM411.081 87.2273L409.876 87.5682C409.801 87.3674 409.689 87.1723 409.541 86.983C409.397 86.7898 409.2 86.6307 408.95 86.5057C408.7 86.3807 408.38 86.3182 407.99 86.3182C407.456 86.3182 407.011 86.4413 406.655 86.6875C406.303 86.9299 406.126 87.2386 406.126 87.6136C406.126 87.947 406.248 88.2102 406.49 88.4034C406.732 88.5966 407.111 88.7576 407.626 88.8864L408.922 89.2045C409.702 89.3939 410.284 89.6837 410.666 90.0739C411.049 90.4602 411.24 90.9583 411.24 91.5682C411.24 92.0682 411.096 92.5152 410.808 92.9091C410.524 93.303 410.126 93.6136 409.615 93.8409C409.104 94.0682 408.509 94.1818 407.831 94.1818C406.941 94.1818 406.204 93.9886 405.621 93.6023C405.037 93.2159 404.668 92.6515 404.513 91.9091L405.786 91.5909C405.907 92.0606 406.136 92.4129 406.473 92.6477C406.814 92.8826 407.259 93 407.808 93C408.433 93 408.929 92.8674 409.297 92.6023C409.668 92.3333 409.854 92.0114 409.854 91.6364C409.854 91.3333 409.748 91.0795 409.536 90.875C409.323 90.6667 408.998 90.5114 408.558 90.4091L407.104 90.0682C406.304 89.8788 405.717 89.5852 405.342 89.1875C404.971 88.786 404.786 88.2841 404.786 87.6818C404.786 87.1894 404.924 86.7538 405.2 86.375C405.481 85.9962 405.861 85.6989 406.342 85.483C406.827 85.267 407.376 85.1591 407.99 85.1591C408.854 85.1591 409.532 85.3485 410.024 85.7273C410.52 86.1061 410.873 86.6061 411.081 87.2273ZM414.236 94.0909C413.955 94.0909 413.715 93.9905 413.514 93.7898C413.313 93.589 413.213 93.3485 413.213 93.0682C413.213 92.7879 413.313 92.5473 413.514 92.3466C413.715 92.1458 413.955 92.0455 414.236 92.0455C414.516 92.0455 414.757 92.1458 414.957 92.3466C415.158 92.5473 415.259 92.7879 415.259 93.0682C415.259 93.2538 415.211 93.4242 415.116 93.5795C415.026 93.7348 414.902 93.8598 414.747 93.9545C414.596 94.0455 414.425 94.0909 414.236 94.0909ZM126.886 113H125.409L129.682 101.364H131.136L135.409 113H133.932L130.455 103.205H130.364L126.886 113ZM127.432 108.455H133.386V109.705H127.432V108.455ZM137.222 113V101.364H138.562V105.659H138.676C138.775 105.508 138.911 105.314 139.085 105.08C139.263 104.841 139.517 104.629 139.847 104.443C140.18 104.254 140.631 104.159 141.199 104.159C141.934 104.159 142.581 104.343 143.142 104.71C143.703 105.078 144.14 105.598 144.455 106.273C144.769 106.947 144.926 107.742 144.926 108.659C144.926 109.583 144.769 110.384 144.455 111.062C144.14 111.737 143.705 112.259 143.148 112.631C142.591 112.998 141.949 113.182 141.222 113.182C140.661 113.182 140.212 113.089 139.875 112.903C139.538 112.714 139.278 112.5 139.097 112.261C138.915 112.019 138.775 111.818 138.676 111.659H138.517V113H137.222ZM138.54 108.636C138.54 109.295 138.636 109.877 138.83 110.381C139.023 110.881 139.305 111.273 139.676 111.557C140.047 111.837 140.502 111.977 141.04 111.977C141.6 111.977 142.068 111.83 142.443 111.534C142.822 111.235 143.106 110.833 143.295 110.33C143.489 109.822 143.585 109.258 143.585 108.636C143.585 108.023 143.491 107.47 143.301 106.977C143.116 106.481 142.833 106.089 142.455 105.801C142.08 105.509 141.608 105.364 141.04 105.364C140.494 105.364 140.036 105.502 139.665 105.778C139.294 106.051 139.013 106.434 138.824 106.926C138.634 107.415 138.54 107.985 138.54 108.636ZM150.523 113.182C149.735 113.182 149.044 112.994 148.449 112.619C147.858 112.244 147.396 111.72 147.062 111.045C146.733 110.371 146.568 109.583 146.568 108.682C146.568 107.773 146.733 106.979 147.062 106.301C147.396 105.623 147.858 105.097 148.449 104.722C149.044 104.347 149.735 104.159 150.523 104.159C151.311 104.159 152 104.347 152.591 104.722C153.186 105.097 153.648 105.623 153.977 106.301C154.311 106.979 154.477 107.773 154.477 108.682C154.477 109.583 154.311 110.371 153.977 111.045C153.648 111.72 153.186 112.244 152.591 112.619C152 112.994 151.311 113.182 150.523 113.182ZM150.523 111.977C151.121 111.977 151.614 111.824 152 111.517C152.386 111.21 152.672 110.807 152.858 110.307C153.044 109.807 153.136 109.265 153.136 108.682C153.136 108.098 153.044 107.555 152.858 107.051C152.672 106.547 152.386 106.14 152 105.83C151.614 105.519 151.121 105.364 150.523 105.364C149.924 105.364 149.432 105.519 149.045 105.83C148.659 106.14 148.373 106.547 148.188 107.051C148.002 107.555 147.909 108.098 147.909 108.682C147.909 109.265 148.002 109.807 148.188 110.307C148.373 110.807 148.659 111.21 149.045 111.517C149.432 111.824 149.924 111.977 150.523 111.977ZM163.348 104.273L160.121 113H158.757L155.53 104.273H156.984L159.393 111.227H159.484L161.893 104.273H163.348ZM168.464 113.182C167.624 113.182 166.898 112.996 166.288 112.625C165.682 112.25 165.214 111.727 164.885 111.057C164.559 110.383 164.396 109.598 164.396 108.705C164.396 107.811 164.559 107.023 164.885 106.341C165.214 105.655 165.673 105.121 166.26 104.739C166.851 104.352 167.54 104.159 168.328 104.159C168.783 104.159 169.232 104.235 169.675 104.386C170.118 104.538 170.521 104.784 170.885 105.125C171.249 105.462 171.538 105.909 171.754 106.466C171.97 107.023 172.078 107.708 172.078 108.523V109.091H165.351V107.932H170.714C170.714 107.439 170.616 107 170.419 106.614C170.226 106.227 169.949 105.922 169.589 105.699C169.233 105.475 168.813 105.364 168.328 105.364C167.794 105.364 167.332 105.496 166.942 105.761C166.555 106.023 166.258 106.364 166.05 106.784C165.841 107.205 165.737 107.655 165.737 108.136V108.909C165.737 109.568 165.851 110.127 166.078 110.585C166.309 111.04 166.629 111.386 167.038 111.625C167.447 111.86 167.923 111.977 168.464 111.977C168.817 111.977 169.135 111.928 169.419 111.83C169.707 111.727 169.955 111.576 170.163 111.375C170.372 111.17 170.533 110.917 170.646 110.614L171.942 110.977C171.805 111.417 171.576 111.803 171.254 112.136C170.932 112.466 170.535 112.723 170.061 112.909C169.588 113.091 169.055 113.182 168.464 113.182ZM181.186 113.205C180.633 113.205 180.131 113.1 179.68 112.892C179.23 112.68 178.872 112.375 178.607 111.977C178.341 111.576 178.209 111.091 178.209 110.523C178.209 110.023 178.307 109.617 178.504 109.307C178.701 108.992 178.964 108.746 179.294 108.568C179.624 108.39 179.987 108.258 180.385 108.17C180.786 108.08 181.19 108.008 181.595 107.955C182.125 107.886 182.555 107.835 182.885 107.801C183.218 107.763 183.461 107.701 183.612 107.614C183.768 107.527 183.845 107.375 183.845 107.159V107.114C183.845 106.553 183.692 106.117 183.385 105.807C183.082 105.496 182.622 105.341 182.004 105.341C181.364 105.341 180.862 105.481 180.499 105.761C180.135 106.042 179.879 106.341 179.732 106.659L178.459 106.205C178.686 105.674 178.989 105.261 179.368 104.966C179.75 104.667 180.167 104.458 180.618 104.341C181.072 104.22 181.519 104.159 181.959 104.159C182.239 104.159 182.561 104.193 182.925 104.261C183.292 104.326 183.646 104.46 183.987 104.665C184.332 104.869 184.618 105.178 184.845 105.591C185.072 106.004 185.186 106.557 185.186 107.25V113H183.845V111.818H183.777C183.686 112.008 183.535 112.21 183.322 112.426C183.11 112.642 182.828 112.826 182.476 112.977C182.124 113.129 181.694 113.205 181.186 113.205ZM181.391 112C181.921 112 182.368 111.896 182.732 111.688C183.099 111.479 183.375 111.21 183.561 110.881C183.75 110.551 183.845 110.205 183.845 109.841V108.614C183.788 108.682 183.663 108.744 183.47 108.801C183.281 108.854 183.061 108.902 182.811 108.943C182.565 108.981 182.324 109.015 182.089 109.045C181.858 109.072 181.671 109.095 181.527 109.114C181.179 109.159 180.853 109.233 180.55 109.335C180.25 109.434 180.008 109.583 179.822 109.784C179.641 109.981 179.55 110.25 179.55 110.591C179.55 111.057 179.722 111.409 180.067 111.648C180.415 111.883 180.857 112 181.391 112ZM188.974 101.364V113H187.634V101.364H188.974ZM192.771 101.364V113H191.43V101.364H192.771ZM197.227 111.409L197.136 112.023C197.072 112.455 196.973 112.917 196.841 113.409C196.712 113.902 196.578 114.366 196.438 114.801C196.297 115.237 196.182 115.583 196.091 115.841H195.068C195.117 115.598 195.182 115.278 195.261 114.881C195.341 114.483 195.42 114.038 195.5 113.545C195.583 113.057 195.652 112.557 195.705 112.045L195.773 111.409H197.227ZM204.212 113V104.273H205.507V105.591H205.598C205.757 105.159 206.045 104.809 206.462 104.54C206.878 104.271 207.348 104.136 207.871 104.136C207.969 104.136 208.092 104.138 208.24 104.142C208.388 104.146 208.5 104.152 208.575 104.159V105.523C208.53 105.511 208.426 105.494 208.263 105.472C208.104 105.445 207.935 105.432 207.757 105.432C207.333 105.432 206.954 105.521 206.621 105.699C206.291 105.873 206.03 106.116 205.837 106.426C205.647 106.733 205.553 107.083 205.553 107.477V113H204.212ZM213.558 113.182C212.717 113.182 211.992 112.996 211.382 112.625C210.776 112.25 210.308 111.727 209.979 111.057C209.653 110.383 209.49 109.598 209.49 108.705C209.49 107.811 209.653 107.023 209.979 106.341C210.308 105.655 210.767 105.121 211.354 104.739C211.945 104.352 212.634 104.159 213.422 104.159C213.876 104.159 214.325 104.235 214.768 104.386C215.212 104.538 215.615 104.784 215.979 105.125C216.342 105.462 216.632 105.909 216.848 106.466C217.064 107.023 217.172 107.708 217.172 108.523V109.091H210.445V107.932H215.808C215.808 107.439 215.71 107 215.513 106.614C215.32 106.227 215.043 105.922 214.683 105.699C214.327 105.475 213.907 105.364 213.422 105.364C212.888 105.364 212.426 105.496 212.036 105.761C211.649 106.023 211.352 106.364 211.143 106.784C210.935 107.205 210.831 107.655 210.831 108.136V108.909C210.831 109.568 210.945 110.127 211.172 110.585C211.403 111.04 211.723 111.386 212.132 111.625C212.541 111.86 213.017 111.977 213.558 111.977C213.911 111.977 214.229 111.928 214.513 111.83C214.801 111.727 215.049 111.576 215.257 111.375C215.465 111.17 215.626 110.917 215.74 110.614L217.036 110.977C216.899 111.417 216.67 111.803 216.348 112.136C216.026 112.466 215.628 112.723 215.155 112.909C214.681 113.091 214.149 113.182 213.558 113.182ZM225.393 106.227L224.189 106.568C224.113 106.367 224.001 106.172 223.854 105.983C223.71 105.79 223.513 105.631 223.263 105.506C223.013 105.381 222.693 105.318 222.303 105.318C221.768 105.318 221.323 105.441 220.967 105.688C220.615 105.93 220.439 106.239 220.439 106.614C220.439 106.947 220.56 107.21 220.803 107.403C221.045 107.597 221.424 107.758 221.939 107.886L223.234 108.205C224.015 108.394 224.596 108.684 224.979 109.074C225.361 109.46 225.553 109.958 225.553 110.568C225.553 111.068 225.409 111.515 225.121 111.909C224.837 112.303 224.439 112.614 223.928 112.841C223.416 113.068 222.821 113.182 222.143 113.182C221.253 113.182 220.517 112.989 219.933 112.602C219.35 112.216 218.981 111.652 218.825 110.909L220.098 110.591C220.219 111.061 220.448 111.413 220.786 111.648C221.126 111.883 221.571 112 222.121 112C222.746 112 223.242 111.867 223.609 111.602C223.981 111.333 224.166 111.011 224.166 110.636C224.166 110.333 224.06 110.08 223.848 109.875C223.636 109.667 223.31 109.511 222.871 109.409L221.416 109.068C220.617 108.879 220.03 108.585 219.655 108.188C219.284 107.786 219.098 107.284 219.098 106.682C219.098 106.189 219.236 105.754 219.513 105.375C219.793 104.996 220.174 104.699 220.655 104.483C221.14 104.267 221.689 104.159 222.303 104.159C223.166 104.159 223.844 104.348 224.337 104.727C224.833 105.106 225.185 105.606 225.393 106.227ZM227.571 116.273V104.273H228.866V105.659H229.026C229.124 105.508 229.26 105.314 229.435 105.08C229.613 104.841 229.866 104.629 230.196 104.443C230.529 104.254 230.98 104.159 231.548 104.159C232.283 104.159 232.931 104.343 233.491 104.71C234.052 105.078 234.49 105.598 234.804 106.273C235.118 106.947 235.276 107.742 235.276 108.659C235.276 109.583 235.118 110.384 234.804 111.062C234.49 111.737 234.054 112.259 233.497 112.631C232.94 112.998 232.298 113.182 231.571 113.182C231.01 113.182 230.562 113.089 230.224 112.903C229.887 112.714 229.628 112.5 229.446 112.261C229.264 112.019 229.124 111.818 229.026 111.659H228.912V116.273H227.571ZM228.889 108.636C228.889 109.295 228.986 109.877 229.179 110.381C229.372 110.881 229.654 111.273 230.026 111.557C230.397 111.837 230.851 111.977 231.389 111.977C231.95 111.977 232.418 111.83 232.793 111.534C233.171 111.235 233.455 110.833 233.645 110.33C233.838 109.822 233.935 109.258 233.935 108.636C233.935 108.023 233.84 107.47 233.651 106.977C233.465 106.481 233.183 106.089 232.804 105.801C232.429 105.509 231.957 105.364 231.389 105.364C230.844 105.364 230.385 105.502 230.014 105.778C229.643 106.051 229.363 106.434 229.173 106.926C228.984 107.415 228.889 107.985 228.889 108.636ZM240.98 113.182C240.139 113.182 239.414 112.996 238.804 112.625C238.198 112.25 237.73 111.727 237.401 111.057C237.075 110.383 236.912 109.598 236.912 108.705C236.912 107.811 237.075 107.023 237.401 106.341C237.73 105.655 238.188 105.121 238.776 104.739C239.366 104.352 240.056 104.159 240.844 104.159C241.298 104.159 241.747 104.235 242.19 104.386C242.634 104.538 243.037 104.784 243.401 105.125C243.764 105.462 244.054 105.909 244.27 106.466C244.486 107.023 244.594 107.708 244.594 108.523V109.091H237.866V107.932H243.23C243.23 107.439 243.132 107 242.935 106.614C242.741 106.227 242.465 105.922 242.105 105.699C241.749 105.475 241.329 105.364 240.844 105.364C240.31 105.364 239.848 105.496 239.457 105.761C239.071 106.023 238.774 106.364 238.565 106.784C238.357 107.205 238.253 107.655 238.253 108.136V108.909C238.253 109.568 238.366 110.127 238.594 110.585C238.825 111.04 239.145 111.386 239.554 111.625C239.963 111.86 240.438 111.977 240.98 111.977C241.332 111.977 241.651 111.928 241.935 111.83C242.223 111.727 242.471 111.576 242.679 111.375C242.887 111.17 243.048 110.917 243.162 110.614L244.457 110.977C244.321 111.417 244.092 111.803 243.77 112.136C243.448 112.466 243.05 112.723 242.577 112.909C242.103 113.091 241.571 113.182 240.98 113.182ZM250.179 113.182C249.361 113.182 248.656 112.989 248.065 112.602C247.474 112.216 247.02 111.684 246.702 111.006C246.384 110.328 246.224 109.553 246.224 108.682C246.224 107.795 246.387 107.013 246.713 106.335C247.043 105.653 247.501 105.121 248.088 104.739C248.679 104.352 249.368 104.159 250.156 104.159C250.77 104.159 251.323 104.273 251.815 104.5C252.308 104.727 252.711 105.045 253.026 105.455C253.34 105.864 253.535 106.341 253.611 106.886H252.27C252.168 106.489 251.94 106.136 251.588 105.83C251.24 105.519 250.77 105.364 250.179 105.364C249.656 105.364 249.198 105.5 248.804 105.773C248.414 106.042 248.109 106.422 247.889 106.915C247.673 107.403 247.565 107.977 247.565 108.636C247.565 109.311 247.671 109.898 247.884 110.398C248.099 110.898 248.402 111.286 248.793 111.562C249.187 111.839 249.649 111.977 250.179 111.977C250.527 111.977 250.844 111.917 251.128 111.795C251.412 111.674 251.652 111.5 251.849 111.273C252.046 111.045 252.187 110.773 252.27 110.455H253.611C253.535 110.97 253.348 111.434 253.048 111.847C252.753 112.256 252.361 112.581 251.872 112.824C251.387 113.062 250.823 113.182 250.179 113.182ZM259.366 104.273V105.409H254.844V104.273H259.366ZM256.162 102.182H257.503V110.5C257.503 110.879 257.558 111.163 257.668 111.352C257.781 111.538 257.925 111.663 258.099 111.727C258.277 111.788 258.465 111.818 258.662 111.818C258.81 111.818 258.931 111.811 259.026 111.795C259.12 111.777 259.196 111.761 259.253 111.75L259.526 112.955C259.435 112.989 259.308 113.023 259.145 113.057C258.982 113.095 258.776 113.114 258.526 113.114C258.147 113.114 257.776 113.032 257.412 112.869C257.052 112.706 256.753 112.458 256.514 112.125C256.279 111.792 256.162 111.371 256.162 110.864V102.182ZM266.747 116.273C266.52 116.273 266.317 116.254 266.139 116.216C265.961 116.182 265.838 116.148 265.77 116.114L266.111 114.932C266.437 115.015 266.724 115.045 266.974 115.023C267.224 115 267.446 114.888 267.639 114.688C267.836 114.491 268.016 114.17 268.179 113.727L268.429 113.045L265.202 104.273H266.656L269.065 111.227H269.156L271.565 104.273H273.02L269.315 114.273C269.149 114.723 268.942 115.097 268.696 115.392C268.45 115.691 268.164 115.913 267.838 116.057C267.516 116.201 267.152 116.273 266.747 116.273ZM278.023 113.182C277.235 113.182 276.544 112.994 275.949 112.619C275.358 112.244 274.896 111.72 274.562 111.045C274.233 110.371 274.068 109.583 274.068 108.682C274.068 107.773 274.233 106.979 274.562 106.301C274.896 105.623 275.358 105.097 275.949 104.722C276.544 104.347 277.235 104.159 278.023 104.159C278.811 104.159 279.5 104.347 280.091 104.722C280.686 105.097 281.148 105.623 281.477 106.301C281.811 106.979 281.977 107.773 281.977 108.682C281.977 109.583 281.811 110.371 281.477 111.045C281.148 111.72 280.686 112.244 280.091 112.619C279.5 112.994 278.811 113.182 278.023 113.182ZM278.023 111.977C278.621 111.977 279.114 111.824 279.5 111.517C279.886 111.21 280.172 110.807 280.358 110.307C280.544 109.807 280.636 109.265 280.636 108.682C280.636 108.098 280.544 107.555 280.358 107.051C280.172 106.547 279.886 106.14 279.5 105.83C279.114 105.519 278.621 105.364 278.023 105.364C277.424 105.364 276.932 105.519 276.545 105.83C276.159 106.14 275.873 106.547 275.688 107.051C275.502 107.555 275.409 108.098 275.409 108.682C275.409 109.265 275.502 109.807 275.688 110.307C275.873 110.807 276.159 111.21 276.545 111.517C276.932 111.824 277.424 111.977 278.023 111.977ZM289.524 109.432V104.273H290.865V113H289.524V111.523H289.433C289.229 111.966 288.911 112.343 288.479 112.653C288.047 112.96 287.501 113.114 286.842 113.114C286.297 113.114 285.812 112.994 285.388 112.756C284.964 112.513 284.63 112.15 284.388 111.665C284.145 111.176 284.024 110.561 284.024 109.818V104.273H285.365V109.727C285.365 110.364 285.543 110.871 285.899 111.25C286.259 111.629 286.717 111.818 287.274 111.818C287.607 111.818 287.946 111.733 288.291 111.562C288.64 111.392 288.931 111.131 289.166 110.778C289.405 110.426 289.524 109.977 289.524 109.432ZM293.321 113V104.273H294.616V105.591H294.707C294.866 105.159 295.154 104.809 295.571 104.54C295.988 104.271 296.457 104.136 296.98 104.136C297.079 104.136 297.202 104.138 297.349 104.142C297.497 104.146 297.609 104.152 297.685 104.159V105.523C297.639 105.511 297.535 105.494 297.372 105.472C297.213 105.445 297.045 105.432 296.866 105.432C296.442 105.432 296.063 105.521 295.73 105.699C295.401 105.873 295.139 106.116 294.946 106.426C294.757 106.733 294.662 107.083 294.662 107.477V113H293.321ZM305.456 106.227L304.251 106.568C304.176 106.367 304.064 106.172 303.916 105.983C303.772 105.79 303.575 105.631 303.325 105.506C303.075 105.381 302.755 105.318 302.365 105.318C301.831 105.318 301.386 105.441 301.03 105.688C300.678 105.93 300.501 106.239 300.501 106.614C300.501 106.947 300.623 107.21 300.865 107.403C301.107 107.597 301.486 107.758 302.001 107.886L303.297 108.205C304.077 108.394 304.659 108.684 305.041 109.074C305.424 109.46 305.615 109.958 305.615 110.568C305.615 111.068 305.471 111.515 305.183 111.909C304.899 112.303 304.501 112.614 303.99 112.841C303.479 113.068 302.884 113.182 302.206 113.182C301.316 113.182 300.579 112.989 299.996 112.602C299.412 112.216 299.043 111.652 298.888 110.909L300.161 110.591C300.282 111.061 300.511 111.413 300.848 111.648C301.189 111.883 301.634 112 302.183 112C302.808 112 303.304 111.867 303.672 111.602C304.043 111.333 304.229 111.011 304.229 110.636C304.229 110.333 304.123 110.08 303.911 109.875C303.698 109.667 303.373 109.511 302.933 109.409L301.479 109.068C300.679 108.879 300.092 108.585 299.717 108.188C299.346 107.786 299.161 107.284 299.161 106.682C299.161 106.189 299.299 105.754 299.575 105.375C299.856 104.996 300.236 104.699 300.717 104.483C301.202 104.267 301.751 104.159 302.365 104.159C303.229 104.159 303.907 104.348 304.399 104.727C304.895 105.106 305.248 105.606 305.456 106.227ZM311.293 113.182C310.452 113.182 309.726 112.996 309.116 112.625C308.51 112.25 308.043 111.727 307.713 111.057C307.387 110.383 307.224 109.598 307.224 108.705C307.224 107.811 307.387 107.023 307.713 106.341C308.043 105.655 308.501 105.121 309.088 104.739C309.679 104.352 310.368 104.159 311.156 104.159C311.611 104.159 312.06 104.235 312.503 104.386C312.946 104.538 313.349 104.784 313.713 105.125C314.077 105.462 314.366 105.909 314.582 106.466C314.798 107.023 314.906 107.708 314.906 108.523V109.091H308.179V107.932H313.543C313.543 107.439 313.444 107 313.247 106.614C313.054 106.227 312.777 105.922 312.418 105.699C312.062 105.475 311.641 105.364 311.156 105.364C310.622 105.364 310.16 105.496 309.77 105.761C309.384 106.023 309.086 106.364 308.878 106.784C308.67 107.205 308.565 107.655 308.565 108.136V108.909C308.565 109.568 308.679 110.127 308.906 110.585C309.137 111.04 309.457 111.386 309.866 111.625C310.276 111.86 310.751 111.977 311.293 111.977C311.645 111.977 311.963 111.928 312.247 111.83C312.535 111.727 312.783 111.576 312.991 111.375C313.2 111.17 313.361 110.917 313.474 110.614L314.77 110.977C314.634 111.417 314.404 111.803 314.082 112.136C313.76 112.466 313.363 112.723 312.889 112.909C312.416 113.091 311.884 113.182 311.293 113.182ZM318.287 101.364V113H316.946V101.364H318.287ZM324.629 104.273V105.409H319.925V104.273H324.629ZM321.334 113V103.068C321.334 102.568 321.451 102.152 321.686 101.818C321.921 101.485 322.226 101.235 322.601 101.068C322.976 100.902 323.372 100.818 323.788 100.818C324.118 100.818 324.387 100.845 324.595 100.898C324.804 100.951 324.959 101 325.061 101.045L324.675 102.205C324.607 102.182 324.512 102.153 324.391 102.119C324.273 102.085 324.118 102.068 323.925 102.068C323.482 102.068 323.161 102.18 322.964 102.403C322.771 102.627 322.675 102.955 322.675 103.386V113H321.334ZM326.58 113.091C326.299 113.091 326.059 112.991 325.858 112.79C325.657 112.589 325.557 112.348 325.557 112.068C325.557 111.788 325.657 111.547 325.858 111.347C326.059 111.146 326.299 111.045 326.58 111.045C326.86 111.045 327.1 111.146 327.301 111.347C327.502 111.547 327.602 111.788 327.602 112.068C327.602 112.254 327.555 112.424 327.46 112.58C327.369 112.735 327.246 112.86 327.091 112.955C326.939 113.045 326.769 113.091 326.58 113.091Z" fill="#303030"/>
<mask id="mask0_1214_198" style="mask-type:alpha" maskUnits="userSpaceOnUse" x="23" y="33" width="84" height="84">
<path d="M98.8313 42.0726C96.8765 39.8304 94.5556 38.0517 92.0011 36.8381C89.4466 35.6246 86.7086 35 83.9435 35C81.1784 35 78.4404 35.6246 75.8859 36.8381C73.3315 38.0517 71.0105 39.8304 69.0558 42.0726L64.999 46.7238L60.9422 42.0726C56.9937 37.5456 51.6384 35.0023 46.0544 35.0023C40.4705 35.0023 35.1152 37.5456 31.1667 42.0726C27.2182 46.5996 25 52.7395 25 59.1416C25 65.5438 27.2182 71.6837 31.1667 76.2107L35.2235 80.8619L64.999 115L94.7744 80.8619L98.8313 76.2107C100.787 73.9695 102.338 71.3086 103.397 68.3798C104.455 65.451 105 62.3119 105 59.1416C105 55.9714 104.455 52.8322 103.397 49.9035C102.338 46.9747 100.787 44.3137 98.8313 42.0726V42.0726Z" fill="#D9D9D9" stroke="#303030" stroke-width="3.08406" stroke-linecap="round" stroke-linejoin="round"/>
</mask>
<g mask="url(#mask0_1214_198)">
<path d="M7.5 11.5224C7.5 6.1518 11.8537 1.7981 17.2242 1.7981H138.706C144.076 1.7981 148.43 6.15179 148.43 11.5223V153.653C148.43 159.023 144.076 163.377 138.706 163.377H17.2242C11.8537 163.377 7.5 159.023 7.5 153.653V11.5224Z" fill="url(#paint0_linear_1214_198)"/>
</g>
<defs>
<linearGradient id="paint0_linear_1214_198" x1="7.5" y1="1.7981" x2="167.58" y2="141.421" gradientUnits="userSpaceOnUse">
<stop stop-color="#00D1FF"/>
<stop offset="1" stop-color="#3300FF"/>
</linearGradient>
</defs>
</svg>
