<svg width="512" height="104" viewBox="0 0 512 104" fill="none" xmlns="http://www.w3.org/2000/svg">
<path d="M124.114 33V15.5455H130.011C131.375 15.5455 132.494 15.7784 133.369 16.2443C134.244 16.7045 134.892 17.3381 135.312 18.1449C135.733 18.9517 135.943 19.8693 135.943 20.8977C135.943 21.9261 135.733 22.8381 135.312 23.6335C134.892 24.429 134.247 25.054 133.378 25.5085C132.509 25.9574 131.398 26.1818 130.045 26.1818H125.273V24.2727H129.977C130.909 24.2727 131.659 24.1364 132.227 23.8636C132.801 23.5909 133.216 23.2045 133.472 22.7045C133.733 22.1989 133.864 21.5966 133.864 20.8977C133.864 20.1989 133.733 19.5881 133.472 19.0653C133.21 18.5426 132.793 18.1392 132.219 17.8551C131.645 17.5653 130.886 17.4205 129.943 17.4205H126.227V33H124.114ZM132.33 25.1591L136.625 33H134.17L129.943 25.1591H132.33ZM144.54 33.2727C143.279 33.2727 142.191 32.9943 141.276 32.4375C140.367 31.875 139.665 31.0909 139.171 30.0852C138.683 29.0739 138.438 27.8977 138.438 26.5568C138.438 25.2159 138.683 24.0341 139.171 23.0114C139.665 21.983 140.353 21.1818 141.234 20.608C142.12 20.0284 143.154 19.7386 144.336 19.7386C145.018 19.7386 145.691 19.8523 146.356 20.0795C147.021 20.3068 147.626 20.6761 148.171 21.1875C148.717 21.6932 149.151 22.3636 149.475 23.1989C149.799 24.0341 149.961 25.0625 149.961 26.2841V27.1364H139.87V25.3977H147.915C147.915 24.6591 147.768 24 147.472 23.4205C147.183 22.8409 146.768 22.3835 146.228 22.0483C145.694 21.7131 145.063 21.5455 144.336 21.5455C143.535 21.5455 142.842 21.7443 142.256 22.142C141.677 22.5341 141.231 23.0455 140.918 23.6761C140.606 24.3068 140.45 24.983 140.45 25.7045V26.8636C140.45 27.8523 140.62 28.6903 140.961 29.3778C141.308 30.0597 141.788 30.5795 142.401 30.9375C143.015 31.2898 143.728 31.4659 144.54 31.4659C145.069 31.4659 145.546 31.392 145.972 31.2443C146.404 31.0909 146.776 30.8636 147.089 30.5625C147.401 30.2557 147.643 29.875 147.813 29.4205L149.756 29.9659C149.552 30.625 149.208 31.2045 148.725 31.7045C148.242 32.1989 147.646 32.5852 146.935 32.8636C146.225 33.1364 145.427 33.2727 144.54 33.2727ZM162.293 22.8409L160.487 23.3523C160.373 23.0511 160.205 22.7585 159.984 22.4744C159.768 22.1847 159.472 21.946 159.097 21.7585C158.722 21.571 158.242 21.4773 157.657 21.4773C156.856 21.4773 156.188 21.6619 155.654 22.0312C155.126 22.3949 154.862 22.858 154.862 23.4205C154.862 23.9205 155.043 24.3153 155.407 24.6051C155.771 24.8949 156.339 25.1364 157.112 25.3295L159.055 25.8068C160.225 26.0909 161.097 26.5256 161.671 27.1108C162.245 27.6903 162.532 28.4375 162.532 29.3523C162.532 30.1023 162.316 30.7727 161.884 31.3636C161.458 31.9545 160.862 32.4205 160.094 32.7614C159.327 33.1023 158.435 33.2727 157.418 33.2727C156.083 33.2727 154.978 32.983 154.103 32.4034C153.228 31.8239 152.674 30.9773 152.441 29.8636L154.35 29.3864C154.532 30.0909 154.876 30.6193 155.381 30.9716C155.893 31.3239 156.56 31.5 157.384 31.5C158.322 31.5 159.066 31.3011 159.617 30.9034C160.174 30.5 160.452 30.017 160.452 29.4545C160.452 29 160.293 28.6193 159.975 28.3125C159.657 28 159.168 27.767 158.509 27.6136L156.327 27.1023C155.129 26.8182 154.248 26.3778 153.685 25.7812C153.129 25.179 152.85 24.4261 152.85 23.5227C152.85 22.7841 153.058 22.1307 153.472 21.5625C153.893 20.9943 154.464 20.5483 155.185 20.2244C155.913 19.9006 156.737 19.7386 157.657 19.7386C158.952 19.7386 159.969 20.0227 160.708 20.5909C161.452 21.1591 161.981 21.9091 162.293 22.8409ZM165.56 37.9091V19.9091H167.503V21.9886H167.741C167.889 21.7614 168.094 21.4716 168.355 21.1193C168.622 20.7614 169.003 20.4432 169.497 20.1648C169.997 19.8807 170.673 19.7386 171.526 19.7386C172.628 19.7386 173.599 20.0142 174.44 20.5653C175.281 21.1165 175.938 21.8977 176.409 22.9091C176.881 23.9205 177.116 25.1136 177.116 26.4886C177.116 27.875 176.881 29.0767 176.409 30.0938C175.938 31.1051 175.284 31.8892 174.449 32.446C173.614 32.9972 172.651 33.2727 171.56 33.2727C170.719 33.2727 170.045 33.1335 169.54 32.8551C169.034 32.571 168.645 32.25 168.372 31.892C168.099 31.5284 167.889 31.2273 167.741 30.9886H167.571V37.9091H165.56ZM167.537 26.4545C167.537 27.4432 167.682 28.3153 167.972 29.071C168.261 29.821 168.685 30.4091 169.241 30.8352C169.798 31.2557 170.48 31.4659 171.287 31.4659C172.128 31.4659 172.83 31.2443 173.392 30.8011C173.96 30.3523 174.386 29.75 174.67 28.9943C174.96 28.233 175.105 27.3864 175.105 26.4545C175.105 25.5341 174.963 24.7045 174.679 23.9659C174.401 23.2216 173.977 22.6335 173.409 22.2017C172.847 21.7642 172.139 21.5455 171.287 21.5455C170.469 21.5455 169.781 21.7528 169.224 22.1676C168.668 22.5767 168.247 23.1506 167.963 23.8892C167.679 24.6222 167.537 25.4773 167.537 26.4545ZM185.673 33.2727C184.412 33.2727 183.324 32.9943 182.409 32.4375C181.5 31.875 180.798 31.0909 180.304 30.0852C179.815 29.0739 179.571 27.8977 179.571 26.5568C179.571 25.2159 179.815 24.0341 180.304 23.0114C180.798 21.983 181.486 21.1818 182.366 20.608C183.253 20.0284 184.287 19.7386 185.469 19.7386C186.151 19.7386 186.824 19.8523 187.489 20.0795C188.153 20.3068 188.759 20.6761 189.304 21.1875C189.849 21.6932 190.284 22.3636 190.608 23.1989C190.932 24.0341 191.094 25.0625 191.094 26.2841V27.1364H181.003V25.3977H189.048C189.048 24.6591 188.901 24 188.605 23.4205C188.315 22.8409 187.901 22.3835 187.361 22.0483C186.827 21.7131 186.196 21.5455 185.469 21.5455C184.668 21.5455 183.974 21.7443 183.389 22.142C182.81 22.5341 182.364 23.0455 182.051 23.6761C181.739 24.3068 181.582 24.983 181.582 25.7045V26.8636C181.582 27.8523 181.753 28.6903 182.094 29.3778C182.44 30.0597 182.92 30.5795 183.534 30.9375C184.148 31.2898 184.861 31.4659 185.673 31.4659C186.202 31.4659 186.679 31.392 187.105 31.2443C187.537 31.0909 187.909 30.8636 188.222 30.5625C188.534 30.2557 188.776 29.875 188.946 29.4205L190.889 29.9659C190.685 30.625 190.341 31.2045 189.858 31.7045C189.375 32.1989 188.778 32.5852 188.068 32.8636C187.358 33.1364 186.56 33.2727 185.673 33.2727ZM199.472 33.2727C198.244 33.2727 197.188 32.983 196.301 32.4034C195.415 31.8239 194.733 31.0256 194.256 30.0085C193.778 28.9915 193.54 27.8295 193.54 26.5227C193.54 25.1932 193.784 24.0199 194.273 23.0028C194.767 21.9801 195.455 21.1818 196.335 20.608C197.222 20.0284 198.256 19.7386 199.438 19.7386C200.358 19.7386 201.188 19.9091 201.926 20.25C202.665 20.5909 203.27 21.0682 203.741 21.6818C204.213 22.2955 204.506 23.0114 204.619 23.8295H202.608C202.455 23.233 202.114 22.7045 201.585 22.2443C201.063 21.7784 200.358 21.5455 199.472 21.5455C198.688 21.5455 198 21.75 197.409 22.1591C196.824 22.5625 196.366 23.1335 196.037 23.8722C195.713 24.6051 195.551 25.4659 195.551 26.4545C195.551 27.4659 195.71 28.3466 196.028 29.0966C196.352 29.8466 196.807 30.429 197.392 30.8438C197.983 31.2585 198.676 31.4659 199.472 31.4659C199.994 31.4659 200.469 31.375 200.895 31.1932C201.321 31.0114 201.682 30.75 201.977 30.4091C202.273 30.0682 202.483 29.6591 202.608 29.1818H204.619C204.506 29.9545 204.224 30.6506 203.776 31.2699C203.332 31.8835 202.744 32.3722 202.011 32.7358C201.284 33.0938 200.438 33.2727 199.472 33.2727ZM213.253 19.9091V21.6136H206.469V19.9091H213.253ZM208.446 16.7727H210.457V29.25C210.457 29.8182 210.54 30.2443 210.705 30.5284C210.875 30.8068 211.091 30.9943 211.352 31.0909C211.619 31.1818 211.901 31.2273 212.196 31.2273C212.418 31.2273 212.599 31.2159 212.741 31.1932C212.884 31.1648 212.997 31.142 213.082 31.125L213.491 32.9318C213.355 32.983 213.165 33.0341 212.92 33.0852C212.676 33.142 212.366 33.1705 211.991 33.1705C211.423 33.1705 210.866 33.0483 210.321 32.804C209.781 32.5597 209.332 32.1875 208.974 31.6875C208.622 31.1875 208.446 30.5568 208.446 29.7955V16.7727ZM123.409 71V59.3636H127.341C128.25 59.3636 128.996 59.5189 129.58 59.8295C130.163 60.1364 130.595 60.5587 130.875 61.0966C131.155 61.6345 131.295 62.2462 131.295 62.9318C131.295 63.6174 131.155 64.2254 130.875 64.7557C130.595 65.286 130.165 65.7027 129.585 66.0057C129.006 66.3049 128.265 66.4545 127.364 66.4545H124.182V65.1818H127.318C127.939 65.1818 128.439 65.0909 128.818 64.9091C129.201 64.7273 129.477 64.4697 129.648 64.1364C129.822 63.7992 129.909 63.3977 129.909 62.9318C129.909 62.4659 129.822 62.0587 129.648 61.7102C129.473 61.3617 129.195 61.0928 128.812 60.9034C128.43 60.7102 127.924 60.6136 127.295 60.6136H124.818V71H123.409ZM128.886 65.7727L131.75 71H130.114L127.295 65.7727H128.886ZM137.027 71.1818C136.186 71.1818 135.461 70.9962 134.851 70.625C134.245 70.25 133.777 69.7273 133.447 69.0568C133.122 68.3826 132.959 67.5985 132.959 66.7045C132.959 65.8106 133.122 65.0227 133.447 64.3409C133.777 63.6553 134.235 63.1212 134.822 62.7386C135.413 62.3523 136.103 62.1591 136.891 62.1591C137.345 62.1591 137.794 62.2348 138.237 62.3864C138.68 62.5379 139.084 62.7841 139.447 63.125C139.811 63.4621 140.101 63.9091 140.317 64.4659C140.533 65.0227 140.641 65.7083 140.641 66.5227V67.0909H133.913V65.9318H139.277C139.277 65.4394 139.179 65 138.982 64.6136C138.788 64.2273 138.512 63.9223 138.152 63.6989C137.796 63.4754 137.375 63.3636 136.891 63.3636C136.357 63.3636 135.894 63.4962 135.504 63.7614C135.118 64.0227 134.821 64.3636 134.612 64.7841C134.404 65.2045 134.3 65.6553 134.3 66.1364V66.9091C134.3 67.5682 134.413 68.1269 134.641 68.5852C134.872 69.0398 135.192 69.3864 135.601 69.625C136.01 69.8598 136.485 69.9773 137.027 69.9773C137.379 69.9773 137.697 69.928 137.982 69.8295C138.269 69.7273 138.518 69.5758 138.726 69.375C138.934 69.1705 139.095 68.9167 139.209 68.6136L140.504 68.9773C140.368 69.4167 140.139 69.803 139.817 70.1364C139.495 70.4659 139.097 70.7235 138.624 70.9091C138.15 71.0909 137.618 71.1818 137.027 71.1818ZM148.862 64.2273L147.658 64.5682C147.582 64.3674 147.47 64.1723 147.322 63.983C147.179 63.7898 146.982 63.6307 146.732 63.5057C146.482 63.3807 146.161 63.3182 145.771 63.3182C145.237 63.3182 144.792 63.4413 144.436 63.6875C144.084 63.9299 143.908 64.2386 143.908 64.6136C143.908 64.947 144.029 65.2102 144.271 65.4034C144.514 65.5966 144.893 65.7576 145.408 65.8864L146.703 66.2045C147.483 66.3939 148.065 66.6837 148.447 67.0739C148.83 67.4602 149.021 67.9583 149.021 68.5682C149.021 69.0682 148.877 69.5152 148.589 69.9091C148.305 70.303 147.908 70.6136 147.396 70.8409C146.885 71.0682 146.29 71.1818 145.612 71.1818C144.722 71.1818 143.985 70.9886 143.402 70.6023C142.819 70.2159 142.449 69.6515 142.294 68.9091L143.567 68.5909C143.688 69.0606 143.917 69.4129 144.254 69.6477C144.595 69.8826 145.04 70 145.589 70C146.214 70 146.711 69.8674 147.078 69.6023C147.449 69.3333 147.635 69.0114 147.635 68.6364C147.635 68.3333 147.529 68.0795 147.317 67.875C147.105 67.6667 146.779 67.5114 146.339 67.4091L144.885 67.0682C144.086 66.8788 143.499 66.5852 143.124 66.1875C142.752 65.786 142.567 65.2841 142.567 64.6818C142.567 64.1894 142.705 63.7538 142.982 63.375C143.262 62.9962 143.643 62.6989 144.124 62.483C144.608 62.267 145.158 62.1591 145.771 62.1591C146.635 62.1591 147.313 62.3485 147.805 62.7273C148.302 63.1061 148.654 63.6061 148.862 64.2273ZM151.04 74.2727V62.2727H152.335V63.6591H152.494C152.593 63.5076 152.729 63.3144 152.903 63.0795C153.081 62.8409 153.335 62.6288 153.665 62.4432C153.998 62.2538 154.449 62.1591 155.017 62.1591C155.752 62.1591 156.4 62.3428 156.96 62.7102C157.521 63.0777 157.958 63.5985 158.273 64.2727C158.587 64.947 158.744 65.7424 158.744 66.6591C158.744 67.5833 158.587 68.3845 158.273 69.0625C157.958 69.7367 157.523 70.2595 156.966 70.6307C156.409 70.9981 155.767 71.1818 155.04 71.1818C154.479 71.1818 154.03 71.089 153.693 70.9034C153.356 70.714 153.097 70.5 152.915 70.2614C152.733 70.0189 152.593 69.8182 152.494 69.6591H152.381V74.2727H151.04ZM152.358 66.6364C152.358 67.2955 152.455 67.8769 152.648 68.3807C152.841 68.8807 153.123 69.2727 153.494 69.5568C153.866 69.8371 154.32 69.9773 154.858 69.9773C155.419 69.9773 155.886 69.8295 156.261 69.5341C156.64 69.2348 156.924 68.8333 157.114 68.3295C157.307 67.822 157.403 67.2576 157.403 66.6364C157.403 66.0227 157.309 65.4697 157.119 64.9773C156.934 64.4811 156.652 64.089 156.273 63.8011C155.898 63.5095 155.426 63.3636 154.858 63.3636C154.313 63.3636 153.854 63.5019 153.483 63.7784C153.112 64.0511 152.831 64.4337 152.642 64.9261C152.453 65.4148 152.358 65.9848 152.358 66.6364ZM164.449 71.1818C163.608 71.1818 162.883 70.9962 162.273 70.625C161.667 70.25 161.199 69.7273 160.869 69.0568C160.544 68.3826 160.381 67.5985 160.381 66.7045C160.381 65.8106 160.544 65.0227 160.869 64.3409C161.199 63.6553 161.657 63.1212 162.244 62.7386C162.835 62.3523 163.525 62.1591 164.312 62.1591C164.767 62.1591 165.216 62.2348 165.659 62.3864C166.102 62.5379 166.506 62.7841 166.869 63.125C167.233 63.4621 167.523 63.9091 167.739 64.4659C167.955 65.0227 168.062 65.7083 168.062 66.5227V67.0909H161.335V65.9318H166.699C166.699 65.4394 166.6 65 166.403 64.6136C166.21 64.2273 165.934 63.9223 165.574 63.6989C165.218 63.4754 164.797 63.3636 164.312 63.3636C163.778 63.3636 163.316 63.4962 162.926 63.7614C162.54 64.0227 162.242 64.3636 162.034 64.7841C161.826 65.2045 161.722 65.6553 161.722 66.1364V66.9091C161.722 67.5682 161.835 68.1269 162.062 68.5852C162.294 69.0398 162.614 69.3864 163.023 69.625C163.432 69.8598 163.907 69.9773 164.449 69.9773C164.801 69.9773 165.119 69.928 165.403 69.8295C165.691 69.7273 165.939 69.5758 166.148 69.375C166.356 69.1705 166.517 68.9167 166.631 68.6136L167.926 68.9773C167.79 69.4167 167.561 69.803 167.239 70.1364C166.917 70.4659 166.519 70.7235 166.045 70.9091C165.572 71.0909 165.04 71.1818 164.449 71.1818ZM173.648 71.1818C172.83 71.1818 172.125 70.9886 171.534 70.6023C170.943 70.2159 170.489 69.6837 170.17 69.0057C169.852 68.3277 169.693 67.553 169.693 66.6818C169.693 65.7955 169.856 65.0133 170.182 64.3352C170.511 63.6534 170.97 63.1212 171.557 62.7386C172.148 62.3523 172.837 62.1591 173.625 62.1591C174.239 62.1591 174.792 62.2727 175.284 62.5C175.777 62.7273 176.18 63.0455 176.494 63.4545C176.809 63.8636 177.004 64.3409 177.08 64.8864H175.739C175.636 64.4886 175.409 64.1364 175.057 63.8295C174.708 63.5189 174.239 63.3636 173.648 63.3636C173.125 63.3636 172.667 63.5 172.273 63.7727C171.883 64.0417 171.578 64.4223 171.358 64.9148C171.142 65.4034 171.034 65.9773 171.034 66.6364C171.034 67.3106 171.14 67.8977 171.352 68.3977C171.568 68.8977 171.871 69.286 172.261 69.5625C172.655 69.839 173.117 69.9773 173.648 69.9773C173.996 69.9773 174.312 69.9167 174.597 69.7955C174.881 69.6742 175.121 69.5 175.318 69.2727C175.515 69.0455 175.655 68.7727 175.739 68.4545H177.08C177.004 68.9697 176.816 69.4337 176.517 69.8466C176.222 70.2557 175.83 70.5814 175.341 70.8239C174.856 71.0625 174.292 71.1818 173.648 71.1818ZM182.835 62.2727V63.4091H178.312V62.2727H182.835ZM179.631 60.1818H180.972V68.5C180.972 68.8788 181.027 69.1629 181.136 69.3523C181.25 69.5379 181.394 69.6629 181.568 69.7273C181.746 69.7879 181.934 69.8182 182.131 69.8182C182.278 69.8182 182.4 69.8106 182.494 69.7955C182.589 69.7765 182.665 69.7614 182.722 69.75L182.994 70.9545C182.903 70.9886 182.777 71.0227 182.614 71.0568C182.451 71.0947 182.244 71.1136 181.994 71.1136C181.616 71.1136 181.244 71.0322 180.881 70.8693C180.521 70.7064 180.222 70.4583 179.983 70.125C179.748 69.7917 179.631 69.3712 179.631 68.8636V60.1818ZM192.898 71.1818C192.11 71.1818 191.419 70.9943 190.824 70.6193C190.233 70.2443 189.771 69.7197 189.438 69.0455C189.108 68.3712 188.943 67.5833 188.943 66.6818C188.943 65.7727 189.108 64.9792 189.438 64.3011C189.771 63.6231 190.233 63.0966 190.824 62.7216C191.419 62.3466 192.11 62.1591 192.898 62.1591C193.686 62.1591 194.375 62.3466 194.966 62.7216C195.561 63.0966 196.023 63.6231 196.352 64.3011C196.686 64.9792 196.852 65.7727 196.852 66.6818C196.852 67.5833 196.686 68.3712 196.352 69.0455C196.023 69.7197 195.561 70.2443 194.966 70.6193C194.375 70.9943 193.686 71.1818 192.898 71.1818ZM192.898 69.9773C193.496 69.9773 193.989 69.8239 194.375 69.517C194.761 69.2102 195.047 68.8068 195.233 68.3068C195.419 67.8068 195.511 67.2652 195.511 66.6818C195.511 66.0985 195.419 65.5549 195.233 65.0511C195.047 64.5473 194.761 64.1402 194.375 63.8295C193.989 63.5189 193.496 63.3636 192.898 63.3636C192.299 63.3636 191.807 63.5189 191.42 63.8295C191.034 64.1402 190.748 64.5473 190.562 65.0511C190.377 65.5549 190.284 66.0985 190.284 66.6818C190.284 67.2652 190.377 67.8068 190.562 68.3068C190.748 68.8068 191.034 69.2102 191.42 69.517C191.807 69.8239 192.299 69.9773 192.898 69.9773ZM202.695 62.2727V63.4091H198.172V62.2727H202.695ZM199.49 60.1818H200.831V68.5C200.831 68.8788 200.886 69.1629 200.996 69.3523C201.109 69.5379 201.253 69.6629 201.428 69.7273C201.606 69.7879 201.793 69.8182 201.99 69.8182C202.138 69.8182 202.259 69.8106 202.354 69.7955C202.448 69.7765 202.524 69.7614 202.581 69.75L202.854 70.9545C202.763 70.9886 202.636 71.0227 202.473 71.0568C202.31 71.0947 202.104 71.1136 201.854 71.1136C201.475 71.1136 201.104 71.0322 200.74 70.8693C200.38 70.7064 200.081 70.4583 199.842 70.125C199.607 69.7917 199.49 69.3712 199.49 68.8636V60.1818ZM206.24 65.75V71H204.899V59.3636H206.24V63.6364H206.354C206.558 63.1856 206.865 62.8277 207.274 62.5625C207.687 62.2936 208.236 62.1591 208.922 62.1591C209.517 62.1591 210.037 62.2784 210.484 62.517C210.931 62.7519 211.278 63.1136 211.524 63.6023C211.774 64.0871 211.899 64.7045 211.899 65.4545V71H210.558V65.5455C210.558 64.8523 210.378 64.3163 210.018 63.9375C209.662 63.5549 209.168 63.3636 208.536 63.3636C208.096 63.3636 207.702 63.4564 207.354 63.642C207.009 63.8277 206.736 64.0985 206.536 64.4545C206.339 64.8106 206.24 65.2424 206.24 65.75ZM218.011 71.1818C217.17 71.1818 216.445 70.9962 215.835 70.625C215.229 70.25 214.761 69.7273 214.432 69.0568C214.106 68.3826 213.943 67.5985 213.943 66.7045C213.943 65.8106 214.106 65.0227 214.432 64.3409C214.761 63.6553 215.22 63.1212 215.807 62.7386C216.398 62.3523 217.087 62.1591 217.875 62.1591C218.33 62.1591 218.778 62.2348 219.222 62.3864C219.665 62.5379 220.068 62.7841 220.432 63.125C220.795 63.4621 221.085 63.9091 221.301 64.4659C221.517 65.0227 221.625 65.7083 221.625 66.5227V67.0909H214.898V65.9318H220.261C220.261 65.4394 220.163 65 219.966 64.6136C219.773 64.2273 219.496 63.9223 219.136 63.6989C218.78 63.4754 218.36 63.3636 217.875 63.3636C217.341 63.3636 216.879 63.4962 216.489 63.7614C216.102 64.0227 215.805 64.3636 215.597 64.7841C215.388 65.2045 215.284 65.6553 215.284 66.1364V66.9091C215.284 67.5682 215.398 68.1269 215.625 68.5852C215.856 69.0398 216.176 69.3864 216.585 69.625C216.994 69.8598 217.47 69.9773 218.011 69.9773C218.364 69.9773 218.682 69.928 218.966 69.8295C219.254 69.7273 219.502 69.5758 219.71 69.375C219.919 69.1705 220.08 68.9167 220.193 68.6136L221.489 68.9773C221.352 69.4167 221.123 69.803 220.801 70.1364C220.479 70.4659 220.081 70.7235 219.608 70.9091C219.134 71.0909 218.602 71.1818 218.011 71.1818ZM223.665 71V62.2727H224.96V63.5909H225.051C225.21 63.1591 225.498 62.8087 225.915 62.5398C226.331 62.2708 226.801 62.1364 227.324 62.1364C227.422 62.1364 227.545 62.1383 227.693 62.142C227.841 62.1458 227.953 62.1515 228.028 62.1591V63.5227C227.983 63.5114 227.879 63.4943 227.716 63.4716C227.557 63.4451 227.388 63.4318 227.21 63.4318C226.786 63.4318 226.407 63.5208 226.074 63.6989C225.744 63.8731 225.483 64.1155 225.29 64.4261C225.1 64.733 225.006 65.0833 225.006 65.4773V71H223.665ZM235.8 64.2273L234.595 64.5682C234.519 64.3674 234.408 64.1723 234.26 63.983C234.116 63.7898 233.919 63.6307 233.669 63.5057C233.419 63.3807 233.099 63.3182 232.709 63.3182C232.175 63.3182 231.73 63.4413 231.374 63.6875C231.021 63.9299 230.845 64.2386 230.845 64.6136C230.845 64.947 230.966 65.2102 231.209 65.4034C231.451 65.5966 231.83 65.7576 232.345 65.8864L233.641 66.2045C234.421 66.3939 235.002 66.6837 235.385 67.0739C235.768 67.4602 235.959 67.9583 235.959 68.5682C235.959 69.0682 235.815 69.5152 235.527 69.9091C235.243 70.303 234.845 70.6136 234.334 70.8409C233.822 71.0682 233.228 71.1818 232.55 71.1818C231.66 71.1818 230.923 70.9886 230.339 70.6023C229.756 70.2159 229.387 69.6515 229.232 68.9091L230.504 68.5909C230.625 69.0606 230.855 69.4129 231.192 69.6477C231.533 69.8826 231.978 70 232.527 70C233.152 70 233.648 69.8674 234.016 69.6023C234.387 69.3333 234.572 69.0114 234.572 68.6364C234.572 68.3333 234.466 68.0795 234.254 67.875C234.042 67.6667 233.716 67.5114 233.277 67.4091L231.822 67.0682C231.023 66.8788 230.436 66.5852 230.061 66.1875C229.69 65.786 229.504 65.2841 229.504 64.6818C229.504 64.1894 229.643 63.7538 229.919 63.375C230.199 62.9962 230.58 62.6989 231.061 62.483C231.546 62.267 232.095 62.1591 232.709 62.1591C233.572 62.1591 234.25 62.3485 234.743 62.7273C235.239 63.1061 235.591 63.6061 235.8 64.2273ZM238.955 71.0909C238.674 71.0909 238.434 70.9905 238.233 70.7898C238.032 70.589 237.932 70.3485 237.932 70.0682C237.932 69.7879 238.032 69.5473 238.233 69.3466C238.434 69.1458 238.674 69.0455 238.955 69.0455C239.235 69.0455 239.475 69.1458 239.676 69.3466C239.877 69.5473 239.977 69.7879 239.977 70.0682C239.977 70.2538 239.93 70.4242 239.835 70.5795C239.744 70.7348 239.621 70.8598 239.466 70.9545C239.314 71.0455 239.144 71.0909 238.955 71.0909ZM247.065 71V59.3636H250.997C251.906 59.3636 252.652 59.5189 253.236 59.8295C253.819 60.1364 254.251 60.5587 254.531 61.0966C254.812 61.6345 254.952 62.2462 254.952 62.9318C254.952 63.6174 254.812 64.2254 254.531 64.7557C254.251 65.286 253.821 65.7027 253.241 66.0057C252.662 66.3049 251.921 66.4545 251.02 66.4545H247.838V65.1818H250.974C251.596 65.1818 252.096 65.0909 252.474 64.9091C252.857 64.7273 253.134 64.4697 253.304 64.1364C253.478 63.7992 253.565 63.3977 253.565 62.9318C253.565 62.4659 253.478 62.0587 253.304 61.7102C253.13 61.3617 252.851 61.0928 252.469 60.9034C252.086 60.7102 251.58 60.6136 250.952 60.6136H248.474V71H247.065ZM252.543 65.7727L255.406 71H253.77L250.952 65.7727H252.543ZM260.683 71.1818C259.842 71.1818 259.117 70.9962 258.507 70.625C257.901 70.25 257.433 69.7273 257.104 69.0568C256.778 68.3826 256.615 67.5985 256.615 66.7045C256.615 65.8106 256.778 65.0227 257.104 64.3409C257.433 63.6553 257.892 63.1212 258.479 62.7386C259.07 62.3523 259.759 62.1591 260.547 62.1591C261.001 62.1591 261.45 62.2348 261.893 62.3864C262.337 62.5379 262.74 62.7841 263.104 63.125C263.467 63.4621 263.757 63.9091 263.973 64.4659C264.189 65.0227 264.297 65.7083 264.297 66.5227V67.0909H257.57V65.9318H262.933C262.933 65.4394 262.835 65 262.638 64.6136C262.445 64.2273 262.168 63.9223 261.808 63.6989C261.452 63.4754 261.032 63.3636 260.547 63.3636C260.013 63.3636 259.551 63.4962 259.161 63.7614C258.774 64.0227 258.477 64.3636 258.268 64.7841C258.06 65.2045 257.956 65.6553 257.956 66.1364V66.9091C257.956 67.5682 258.07 68.1269 258.297 68.5852C258.528 69.0398 258.848 69.3864 259.257 69.625C259.666 69.8598 260.142 69.9773 260.683 69.9773C261.036 69.9773 261.354 69.928 261.638 69.8295C261.926 69.7273 262.174 69.5758 262.382 69.375C262.59 69.1705 262.751 68.9167 262.865 68.6136L264.161 68.9773C264.024 69.4167 263.795 69.803 263.473 70.1364C263.151 70.4659 262.753 70.7235 262.28 70.9091C261.806 71.0909 261.274 71.1818 260.683 71.1818ZM272.518 64.2273L271.314 64.5682C271.238 64.3674 271.126 64.1723 270.979 63.983C270.835 63.7898 270.638 63.6307 270.388 63.5057C270.138 63.3807 269.818 63.3182 269.428 63.3182C268.893 63.3182 268.448 63.4413 268.092 63.6875C267.74 63.9299 267.564 64.2386 267.564 64.6136C267.564 64.947 267.685 65.2102 267.928 65.4034C268.17 65.5966 268.549 65.7576 269.064 65.8864L270.359 66.2045C271.14 66.3939 271.721 66.6837 272.104 67.0739C272.486 67.4602 272.678 67.9583 272.678 68.5682C272.678 69.0682 272.534 69.5152 272.246 69.9091C271.962 70.303 271.564 70.6136 271.053 70.8409C270.541 71.0682 269.946 71.1818 269.268 71.1818C268.378 71.1818 267.642 70.9886 267.058 70.6023C266.475 70.2159 266.106 69.6515 265.95 68.9091L267.223 68.5909C267.344 69.0606 267.573 69.4129 267.911 69.6477C268.251 69.8826 268.696 70 269.246 70C269.871 70 270.367 69.8674 270.734 69.6023C271.106 69.3333 271.291 69.0114 271.291 68.6364C271.291 68.3333 271.185 68.0795 270.973 67.875C270.761 67.6667 270.435 67.5114 269.996 67.4091L268.541 67.0682C267.742 66.8788 267.155 66.5852 266.78 66.1875C266.409 65.786 266.223 65.2841 266.223 64.6818C266.223 64.1894 266.361 63.7538 266.638 63.375C266.918 62.9962 267.299 62.6989 267.78 62.483C268.265 62.267 268.814 62.1591 269.428 62.1591C270.291 62.1591 270.969 62.3485 271.462 62.7273C271.958 63.1061 272.31 63.6061 272.518 64.2273ZM274.696 74.2727V62.2727H275.991V63.6591H276.151C276.249 63.5076 276.385 63.3144 276.56 63.0795C276.738 62.8409 276.991 62.6288 277.321 62.4432C277.654 62.2538 278.105 62.1591 278.673 62.1591C279.408 62.1591 280.056 62.3428 280.616 62.7102C281.177 63.0777 281.615 63.5985 281.929 64.2727C282.243 64.947 282.401 65.7424 282.401 66.6591C282.401 67.5833 282.243 68.3845 281.929 69.0625C281.615 69.7367 281.179 70.2595 280.622 70.6307C280.065 70.9981 279.423 71.1818 278.696 71.1818C278.135 71.1818 277.687 71.089 277.349 70.9034C277.012 70.714 276.753 70.5 276.571 70.2614C276.389 70.0189 276.249 69.8182 276.151 69.6591H276.037V74.2727H274.696ZM276.014 66.6364C276.014 67.2955 276.111 67.8769 276.304 68.3807C276.497 68.8807 276.779 69.2727 277.151 69.5568C277.522 69.8371 277.976 69.9773 278.514 69.9773C279.075 69.9773 279.543 69.8295 279.918 69.5341C280.296 69.2348 280.58 68.8333 280.77 68.3295C280.963 67.822 281.06 67.2576 281.06 66.6364C281.06 66.0227 280.965 65.4697 280.776 64.9773C280.59 64.4811 280.308 64.089 279.929 63.8011C279.554 63.5095 279.082 63.3636 278.514 63.3636C277.969 63.3636 277.51 63.5019 277.139 63.7784C276.768 64.0511 276.488 64.4337 276.298 64.9261C276.109 65.4148 276.014 65.9848 276.014 66.6364ZM288.105 71.1818C287.264 71.1818 286.539 70.9962 285.929 70.625C285.323 70.25 284.855 69.7273 284.526 69.0568C284.2 68.3826 284.037 67.5985 284.037 66.7045C284.037 65.8106 284.2 65.0227 284.526 64.3409C284.855 63.6553 285.313 63.1212 285.901 62.7386C286.491 62.3523 287.181 62.1591 287.969 62.1591C288.423 62.1591 288.872 62.2348 289.315 62.3864C289.759 62.5379 290.162 62.7841 290.526 63.125C290.889 63.4621 291.179 63.9091 291.395 64.4659C291.611 65.0227 291.719 65.7083 291.719 66.5227V67.0909H284.991V65.9318H290.355C290.355 65.4394 290.257 65 290.06 64.6136C289.866 64.2273 289.59 63.9223 289.23 63.6989C288.874 63.4754 288.454 63.3636 287.969 63.3636C287.435 63.3636 286.973 63.4962 286.582 63.7614C286.196 64.0227 285.899 64.3636 285.69 64.7841C285.482 65.2045 285.378 65.6553 285.378 66.1364V66.9091C285.378 67.5682 285.491 68.1269 285.719 68.5852C285.95 69.0398 286.27 69.3864 286.679 69.625C287.088 69.8598 287.563 69.9773 288.105 69.9773C288.457 69.9773 288.776 69.928 289.06 69.8295C289.348 69.7273 289.596 69.5758 289.804 69.375C290.012 69.1705 290.173 68.9167 290.287 68.6136L291.582 68.9773C291.446 69.4167 291.217 69.803 290.895 70.1364C290.573 70.4659 290.175 70.7235 289.702 70.9091C289.228 71.0909 288.696 71.1818 288.105 71.1818ZM297.304 71.1818C296.486 71.1818 295.781 70.9886 295.19 70.6023C294.599 70.2159 294.145 69.6837 293.827 69.0057C293.509 68.3277 293.349 67.553 293.349 66.6818C293.349 65.7955 293.512 65.0133 293.838 64.3352C294.168 63.6534 294.626 63.1212 295.213 62.7386C295.804 62.3523 296.493 62.1591 297.281 62.1591C297.895 62.1591 298.448 62.2727 298.94 62.5C299.433 62.7273 299.836 63.0455 300.151 63.4545C300.465 63.8636 300.66 64.3409 300.736 64.8864H299.395C299.293 64.4886 299.065 64.1364 298.713 63.8295C298.365 63.5189 297.895 63.3636 297.304 63.3636C296.781 63.3636 296.323 63.5 295.929 63.7727C295.539 64.0417 295.234 64.4223 295.014 64.9148C294.798 65.4034 294.69 65.9773 294.69 66.6364C294.69 67.3106 294.796 67.8977 295.009 68.3977C295.224 68.8977 295.527 69.286 295.918 69.5625C296.312 69.839 296.774 69.9773 297.304 69.9773C297.652 69.9773 297.969 69.9167 298.253 69.7955C298.537 69.6742 298.777 69.5 298.974 69.2727C299.171 69.0455 299.312 68.7727 299.395 68.4545H300.736C300.66 68.9697 300.473 69.4337 300.173 69.8466C299.878 70.2557 299.486 70.5814 298.997 70.8239C298.512 71.0625 297.948 71.1818 297.304 71.1818ZM306.491 62.2727V63.4091H301.969V62.2727H306.491ZM303.287 60.1818H304.628V68.5C304.628 68.8788 304.683 69.1629 304.793 69.3523C304.906 69.5379 305.05 69.6629 305.224 69.7273C305.402 69.7879 305.59 69.8182 305.787 69.8182C305.935 69.8182 306.056 69.8106 306.151 69.7955C306.245 69.7765 306.321 69.7614 306.378 69.75L306.651 70.9545C306.56 70.9886 306.433 71.0227 306.27 71.0568C306.107 71.0947 305.901 71.1136 305.651 71.1136C305.272 71.1136 304.901 71.0322 304.537 70.8693C304.177 70.7064 303.878 70.4583 303.639 70.125C303.404 69.7917 303.287 69.3712 303.287 68.8636V60.1818ZM313.009 74.2727V62.2727H314.304V63.6591H314.463C314.562 63.5076 314.698 63.3144 314.872 63.0795C315.05 62.8409 315.304 62.6288 315.634 62.4432C315.967 62.2538 316.418 62.1591 316.986 62.1591C317.721 62.1591 318.368 62.3428 318.929 62.7102C319.49 63.0777 319.927 63.5985 320.241 64.2727C320.556 64.947 320.713 65.7424 320.713 66.6591C320.713 67.5833 320.556 68.3845 320.241 69.0625C319.927 69.7367 319.491 70.2595 318.935 70.6307C318.378 70.9981 317.736 71.1818 317.009 71.1818C316.448 71.1818 315.999 71.089 315.662 70.9034C315.325 70.714 315.065 70.5 314.884 70.2614C314.702 70.0189 314.562 69.8182 314.463 69.6591H314.349V74.2727H313.009ZM314.327 66.6364C314.327 67.2955 314.423 67.8769 314.616 68.3807C314.81 68.8807 315.092 69.2727 315.463 69.5568C315.834 69.8371 316.289 69.9773 316.827 69.9773C317.387 69.9773 317.855 69.8295 318.23 69.5341C318.609 69.2348 318.893 68.8333 319.082 68.3295C319.276 67.822 319.372 67.2576 319.372 66.6364C319.372 66.0227 319.277 65.4697 319.088 64.9773C318.902 64.4811 318.62 64.089 318.241 63.8011C317.866 63.5095 317.395 63.3636 316.827 63.3636C316.281 63.3636 315.823 63.5019 315.452 63.7784C315.08 64.0511 314.8 64.4337 314.611 64.9261C314.421 65.4148 314.327 65.9848 314.327 66.6364ZM326.418 71.1818C325.577 71.1818 324.851 70.9962 324.241 70.625C323.635 70.25 323.168 69.7273 322.838 69.0568C322.512 68.3826 322.349 67.5985 322.349 66.7045C322.349 65.8106 322.512 65.0227 322.838 64.3409C323.168 63.6553 323.626 63.1212 324.213 62.7386C324.804 62.3523 325.493 62.1591 326.281 62.1591C326.736 62.1591 327.185 62.2348 327.628 62.3864C328.071 62.5379 328.474 62.7841 328.838 63.125C329.202 63.4621 329.491 63.9091 329.707 64.4659C329.923 65.0227 330.031 65.7083 330.031 66.5227V67.0909H323.304V65.9318H328.668C328.668 65.4394 328.569 65 328.372 64.6136C328.179 64.2273 327.902 63.9223 327.543 63.6989C327.187 63.4754 326.766 63.3636 326.281 63.3636C325.747 63.3636 325.285 63.4962 324.895 63.7614C324.509 64.0227 324.211 64.3636 324.003 64.7841C323.795 65.2045 323.69 65.6553 323.69 66.1364V66.9091C323.69 67.5682 323.804 68.1269 324.031 68.5852C324.262 69.0398 324.582 69.3864 324.991 69.625C325.401 69.8598 325.876 69.9773 326.418 69.9773C326.77 69.9773 327.088 69.928 327.372 69.8295C327.66 69.7273 327.908 69.5758 328.116 69.375C328.325 69.1705 328.486 68.9167 328.599 68.6136L329.895 68.9773C329.759 69.4167 329.529 69.803 329.207 70.1364C328.885 70.4659 328.488 70.7235 328.014 70.9091C327.541 71.0909 327.009 71.1818 326.418 71.1818ZM332.071 71V62.2727H333.366V63.5909H333.457C333.616 63.1591 333.904 62.8087 334.321 62.5398C334.738 62.2708 335.207 62.1364 335.73 62.1364C335.829 62.1364 335.952 62.1383 336.099 62.142C336.247 62.1458 336.359 62.1515 336.435 62.1591V63.5227C336.389 63.5114 336.285 63.4943 336.122 63.4716C335.963 63.4451 335.795 63.4318 335.616 63.4318C335.192 63.4318 334.813 63.5208 334.48 63.6989C334.151 63.8731 333.889 64.1155 333.696 64.4261C333.507 64.733 333.412 65.0833 333.412 65.4773V71H332.071ZM344.206 64.2273L343.001 64.5682C342.926 64.3674 342.814 64.1723 342.666 63.983C342.522 63.7898 342.325 63.6307 342.075 63.5057C341.825 63.3807 341.505 63.3182 341.115 63.3182C340.581 63.3182 340.136 63.4413 339.78 63.6875C339.428 63.9299 339.251 64.2386 339.251 64.6136C339.251 64.947 339.373 65.2102 339.615 65.4034C339.857 65.5966 340.236 65.7576 340.751 65.8864L342.047 66.2045C342.827 66.3939 343.409 66.6837 343.791 67.0739C344.174 67.4602 344.365 67.9583 344.365 68.5682C344.365 69.0682 344.221 69.5152 343.933 69.9091C343.649 70.303 343.251 70.6136 342.74 70.8409C342.229 71.0682 341.634 71.1818 340.956 71.1818C340.066 71.1818 339.329 70.9886 338.746 70.6023C338.162 70.2159 337.793 69.6515 337.638 68.9091L338.911 68.5909C339.032 69.0606 339.261 69.4129 339.598 69.6477C339.939 69.8826 340.384 70 340.933 70C341.558 70 342.054 69.8674 342.422 69.6023C342.793 69.3333 342.979 69.0114 342.979 68.6364C342.979 68.3333 342.873 68.0795 342.661 67.875C342.448 67.6667 342.123 67.5114 341.683 67.4091L340.229 67.0682C339.429 66.8788 338.842 66.5852 338.467 66.1875C338.096 65.786 337.911 65.2841 337.911 64.6818C337.911 64.1894 338.049 63.7538 338.325 63.375C338.606 62.9962 338.986 62.6989 339.467 62.483C339.952 62.267 340.501 62.1591 341.115 62.1591C341.979 62.1591 342.657 62.3485 343.149 62.7273C343.645 63.1061 343.998 63.6061 344.206 64.2273ZM346.384 74.2727V62.2727H347.679V63.6591H347.838C347.937 63.5076 348.073 63.3144 348.247 63.0795C348.425 62.8409 348.679 62.6288 349.009 62.4432C349.342 62.2538 349.793 62.1591 350.361 62.1591C351.096 62.1591 351.743 62.3428 352.304 62.7102C352.865 63.0777 353.302 63.5985 353.616 64.2727C353.931 64.947 354.088 65.7424 354.088 66.6591C354.088 67.5833 353.931 68.3845 353.616 69.0625C353.302 69.7367 352.866 70.2595 352.31 70.6307C351.753 70.9981 351.111 71.1818 350.384 71.1818C349.823 71.1818 349.374 71.089 349.037 70.9034C348.7 70.714 348.44 70.5 348.259 70.2614C348.077 70.0189 347.937 69.8182 347.838 69.6591H347.724V74.2727H346.384ZM347.702 66.6364C347.702 67.2955 347.798 67.8769 347.991 68.3807C348.185 68.8807 348.467 69.2727 348.838 69.5568C349.209 69.8371 349.664 69.9773 350.202 69.9773C350.762 69.9773 351.23 69.8295 351.605 69.5341C351.984 69.2348 352.268 68.8333 352.457 68.3295C352.651 67.822 352.747 67.2576 352.747 66.6364C352.747 66.0227 352.652 65.4697 352.463 64.9773C352.277 64.4811 351.995 64.089 351.616 63.8011C351.241 63.5095 350.77 63.3636 350.202 63.3636C349.656 63.3636 349.198 63.5019 348.827 63.7784C348.455 64.0511 348.175 64.4337 347.986 64.9261C347.796 65.4148 347.702 65.9848 347.702 66.6364ZM359.793 71.1818C358.952 71.1818 358.226 70.9962 357.616 70.625C357.01 70.25 356.543 69.7273 356.213 69.0568C355.887 68.3826 355.724 67.5985 355.724 66.7045C355.724 65.8106 355.887 65.0227 356.213 64.3409C356.543 63.6553 357.001 63.1212 357.588 62.7386C358.179 62.3523 358.868 62.1591 359.656 62.1591C360.111 62.1591 360.56 62.2348 361.003 62.3864C361.446 62.5379 361.849 62.7841 362.213 63.125C362.577 63.4621 362.866 63.9091 363.082 64.4659C363.298 65.0227 363.406 65.7083 363.406 66.5227V67.0909H356.679V65.9318H362.043C362.043 65.4394 361.944 65 361.747 64.6136C361.554 64.2273 361.277 63.9223 360.918 63.6989C360.562 63.4754 360.141 63.3636 359.656 63.3636C359.122 63.3636 358.66 63.4962 358.27 63.7614C357.884 64.0227 357.586 64.3636 357.378 64.7841C357.17 65.2045 357.065 65.6553 357.065 66.1364V66.9091C357.065 67.5682 357.179 68.1269 357.406 68.5852C357.637 69.0398 357.957 69.3864 358.366 69.625C358.776 69.8598 359.251 69.9773 359.793 69.9773C360.145 69.9773 360.463 69.928 360.747 69.8295C361.035 69.7273 361.283 69.5758 361.491 69.375C361.7 69.1705 361.861 68.9167 361.974 68.6136L363.27 68.9773C363.134 69.4167 362.904 69.803 362.582 70.1364C362.26 70.4659 361.863 70.7235 361.389 70.9091C360.916 71.0909 360.384 71.1818 359.793 71.1818ZM368.991 71.1818C368.173 71.1818 367.469 70.9886 366.878 70.6023C366.287 70.2159 365.832 69.6837 365.514 69.0057C365.196 68.3277 365.037 67.553 365.037 66.6818C365.037 65.7955 365.2 65.0133 365.526 64.3352C365.855 63.6534 366.313 63.1212 366.901 62.7386C367.491 62.3523 368.181 62.1591 368.969 62.1591C369.582 62.1591 370.135 62.2727 370.628 62.5C371.12 62.7273 371.524 63.0455 371.838 63.4545C372.152 63.8636 372.348 64.3409 372.423 64.8864H371.082C370.98 64.4886 370.753 64.1364 370.401 63.8295C370.052 63.5189 369.582 63.3636 368.991 63.3636C368.469 63.3636 368.01 63.5 367.616 63.7727C367.226 64.0417 366.921 64.4223 366.702 64.9148C366.486 65.4034 366.378 65.9773 366.378 66.6364C366.378 67.3106 366.484 67.8977 366.696 68.3977C366.912 68.8977 367.215 69.286 367.605 69.5625C367.999 69.839 368.461 69.9773 368.991 69.9773C369.34 69.9773 369.656 69.9167 369.94 69.7955C370.224 69.6742 370.465 69.5 370.662 69.2727C370.859 69.0455 370.999 68.7727 371.082 68.4545H372.423C372.348 68.9697 372.16 69.4337 371.861 69.8466C371.565 70.2557 371.173 70.5814 370.685 70.8239C370.2 71.0625 369.635 71.1818 368.991 71.1818ZM378.179 62.2727V63.4091H373.656V62.2727H378.179ZM374.974 60.1818H376.315V68.5C376.315 68.8788 376.37 69.1629 376.48 69.3523C376.594 69.5379 376.738 69.6629 376.912 69.7273C377.09 69.7879 377.277 69.8182 377.474 69.8182C377.622 69.8182 377.743 69.8106 377.838 69.7955C377.933 69.7765 378.009 69.7614 378.065 69.75L378.338 70.9545C378.247 70.9886 378.12 71.0227 377.957 71.0568C377.795 71.0947 377.588 71.1136 377.338 71.1136C376.959 71.1136 376.588 71.0322 376.224 70.8693C375.865 70.7064 375.565 70.4583 375.327 70.125C375.092 69.7917 374.974 69.3712 374.974 68.8636V60.1818ZM380.196 71V62.2727H381.537V71H380.196ZM380.878 60.8182C380.616 60.8182 380.391 60.7292 380.202 60.5511C380.016 60.3731 379.923 60.1591 379.923 59.9091C379.923 59.6591 380.016 59.4451 380.202 59.267C380.391 59.089 380.616 59 380.878 59C381.139 59 381.363 59.089 381.548 59.267C381.738 59.4451 381.832 59.6591 381.832 59.9091C381.832 60.1591 381.738 60.3731 381.548 60.5511C381.363 60.7292 381.139 60.8182 380.878 60.8182ZM391.129 62.2727L387.902 71H386.538L383.311 62.2727H384.766L387.175 69.2273H387.266L389.675 62.2727H391.129ZM396.246 71.1818C395.405 71.1818 394.679 70.9962 394.07 70.625C393.464 70.25 392.996 69.7273 392.666 69.0568C392.34 68.3826 392.178 67.5985 392.178 66.7045C392.178 65.8106 392.34 65.0227 392.666 64.3409C392.996 63.6553 393.454 63.1212 394.041 62.7386C394.632 62.3523 395.321 62.1591 396.109 62.1591C396.564 62.1591 397.013 62.2348 397.456 62.3864C397.899 62.5379 398.303 62.7841 398.666 63.125C399.03 63.4621 399.32 63.9091 399.536 64.4659C399.751 65.0227 399.859 65.7083 399.859 66.5227V67.0909H393.132V65.9318H398.496C398.496 65.4394 398.397 65 398.2 64.6136C398.007 64.2273 397.731 63.9223 397.371 63.6989C397.015 63.4754 396.594 63.3636 396.109 63.3636C395.575 63.3636 395.113 63.4962 394.723 63.7614C394.337 64.0227 394.039 64.3636 393.831 64.7841C393.623 65.2045 393.518 65.6553 393.518 66.1364V66.9091C393.518 67.5682 393.632 68.1269 393.859 68.5852C394.09 69.0398 394.411 69.3864 394.82 69.625C395.229 69.8598 395.704 69.9773 396.246 69.9773C396.598 69.9773 396.916 69.928 397.2 69.8295C397.488 69.7273 397.736 69.5758 397.945 69.375C398.153 69.1705 398.314 68.9167 398.428 68.6136L399.723 68.9773C399.587 69.4167 399.357 69.803 399.036 70.1364C398.714 70.4659 398.316 70.7235 397.842 70.9091C397.369 71.0909 396.837 71.1818 396.246 71.1818ZM408.081 64.2273L406.876 64.5682C406.801 64.3674 406.689 64.1723 406.541 63.983C406.397 63.7898 406.2 63.6307 405.95 63.5057C405.7 63.3807 405.38 63.3182 404.99 63.3182C404.456 63.3182 404.011 63.4413 403.655 63.6875C403.303 63.9299 403.126 64.2386 403.126 64.6136C403.126 64.947 403.248 65.2102 403.49 65.4034C403.732 65.5966 404.111 65.7576 404.626 65.8864L405.922 66.2045C406.702 66.3939 407.284 66.6837 407.666 67.0739C408.049 67.4602 408.24 67.9583 408.24 68.5682C408.24 69.0682 408.096 69.5152 407.808 69.9091C407.524 70.303 407.126 70.6136 406.615 70.8409C406.104 71.0682 405.509 71.1818 404.831 71.1818C403.941 71.1818 403.204 70.9886 402.621 70.6023C402.037 70.2159 401.668 69.6515 401.513 68.9091L402.786 68.5909C402.907 69.0606 403.136 69.4129 403.473 69.6477C403.814 69.8826 404.259 70 404.808 70C405.433 70 405.929 69.8674 406.297 69.6023C406.668 69.3333 406.854 69.0114 406.854 68.6364C406.854 68.3333 406.748 68.0795 406.536 67.875C406.323 67.6667 405.998 67.5114 405.558 67.4091L404.104 67.0682C403.304 66.8788 402.717 66.5852 402.342 66.1875C401.971 65.786 401.786 65.2841 401.786 64.6818C401.786 64.1894 401.924 63.7538 402.2 63.375C402.481 62.9962 402.861 62.6989 403.342 62.483C403.827 62.267 404.376 62.1591 404.99 62.1591C405.854 62.1591 406.532 62.3485 407.024 62.7273C407.52 63.1061 407.873 63.6061 408.081 64.2273ZM411.236 71.0909C410.955 71.0909 410.715 70.9905 410.514 70.7898C410.313 70.589 410.213 70.3485 410.213 70.0682C410.213 69.7879 410.313 69.5473 410.514 69.3466C410.715 69.1458 410.955 69.0455 411.236 69.0455C411.516 69.0455 411.757 69.1458 411.957 69.3466C412.158 69.5473 412.259 69.7879 412.259 70.0682C412.259 70.2538 412.211 70.4242 412.116 70.5795C412.026 70.7348 411.902 70.8598 411.747 70.9545C411.596 71.0455 411.425 71.0909 411.236 71.0909ZM419.824 71H418.347L422.619 59.3636H424.074L428.347 71H426.869L423.392 61.2045H423.301L419.824 71ZM420.369 66.4545H426.324V67.7045H420.369V66.4545ZM430.159 71V59.3636H431.5V63.6591H431.614C431.712 63.5076 431.848 63.3144 432.023 63.0795C432.201 62.8409 432.455 62.6288 432.784 62.4432C433.117 62.2538 433.568 62.1591 434.136 62.1591C434.871 62.1591 435.519 62.3428 436.08 62.7102C436.64 63.0777 437.078 63.5985 437.392 64.2727C437.706 64.947 437.864 65.7424 437.864 66.6591C437.864 67.5833 437.706 68.3845 437.392 69.0625C437.078 69.7367 436.642 70.2595 436.085 70.6307C435.528 70.9981 434.886 71.1818 434.159 71.1818C433.598 71.1818 433.15 71.089 432.812 70.9034C432.475 70.714 432.216 70.5 432.034 70.2614C431.852 70.0189 431.712 69.8182 431.614 69.6591H431.455V71H430.159ZM431.477 66.6364C431.477 67.2955 431.574 67.8769 431.767 68.3807C431.96 68.8807 432.242 69.2727 432.614 69.5568C432.985 69.8371 433.439 69.9773 433.977 69.9773C434.538 69.9773 435.006 69.8295 435.381 69.5341C435.759 69.2348 436.044 68.8333 436.233 68.3295C436.426 67.822 436.523 67.2576 436.523 66.6364C436.523 66.0227 436.428 65.4697 436.239 64.9773C436.053 64.4811 435.771 64.089 435.392 63.8011C435.017 63.5095 434.545 63.3636 433.977 63.3636C433.432 63.3636 432.973 63.5019 432.602 63.7784C432.231 64.0511 431.951 64.4337 431.761 64.9261C431.572 65.4148 431.477 65.9848 431.477 66.6364ZM443.46 71.1818C442.672 71.1818 441.981 70.9943 441.386 70.6193C440.795 70.2443 440.333 69.7197 440 69.0455C439.67 68.3712 439.506 67.5833 439.506 66.6818C439.506 65.7727 439.67 64.9792 440 64.3011C440.333 63.6231 440.795 63.0966 441.386 62.7216C441.981 62.3466 442.672 62.1591 443.46 62.1591C444.248 62.1591 444.938 62.3466 445.528 62.7216C446.123 63.0966 446.585 63.6231 446.915 64.3011C447.248 64.9792 447.415 65.7727 447.415 66.6818C447.415 67.5833 447.248 68.3712 446.915 69.0455C446.585 69.7197 446.123 70.2443 445.528 70.6193C444.938 70.9943 444.248 71.1818 443.46 71.1818ZM443.46 69.9773C444.059 69.9773 444.551 69.8239 444.938 69.517C445.324 69.2102 445.61 68.8068 445.795 68.3068C445.981 67.8068 446.074 67.2652 446.074 66.6818C446.074 66.0985 445.981 65.5549 445.795 65.0511C445.61 64.5473 445.324 64.1402 444.938 63.8295C444.551 63.5189 444.059 63.3636 443.46 63.3636C442.862 63.3636 442.369 63.5189 441.983 63.8295C441.597 64.1402 441.311 64.5473 441.125 65.0511C440.939 65.5549 440.847 66.0985 440.847 66.6818C440.847 67.2652 440.939 67.8068 441.125 68.3068C441.311 68.8068 441.597 69.2102 441.983 69.517C442.369 69.8239 442.862 69.9773 443.46 69.9773ZM456.286 62.2727L453.058 71H451.695L448.467 62.2727H449.922L452.331 69.2273H452.422L454.831 62.2727H456.286ZM461.402 71.1818C460.561 71.1818 459.836 70.9962 459.226 70.625C458.62 70.25 458.152 69.7273 457.822 69.0568C457.497 68.3826 457.334 67.5985 457.334 66.7045C457.334 65.8106 457.497 65.0227 457.822 64.3409C458.152 63.6553 458.61 63.1212 459.197 62.7386C459.788 62.3523 460.478 62.1591 461.266 62.1591C461.72 62.1591 462.169 62.2348 462.612 62.3864C463.055 62.5379 463.459 62.7841 463.822 63.125C464.186 63.4621 464.476 63.9091 464.692 64.4659C464.908 65.0227 465.016 65.7083 465.016 66.5227V67.0909H458.288V65.9318H463.652C463.652 65.4394 463.554 65 463.357 64.6136C463.163 64.2273 462.887 63.9223 462.527 63.6989C462.171 63.4754 461.75 63.3636 461.266 63.3636C460.732 63.3636 460.269 63.4962 459.879 63.7614C459.493 64.0227 459.196 64.3636 458.987 64.7841C458.779 65.2045 458.675 65.6553 458.675 66.1364V66.9091C458.675 67.5682 458.788 68.1269 459.016 68.5852C459.247 69.0398 459.567 69.3864 459.976 69.625C460.385 69.8598 460.86 69.9773 461.402 69.9773C461.754 69.9773 462.072 69.928 462.357 69.8295C462.644 69.7273 462.893 69.5758 463.101 69.375C463.309 69.1705 463.47 68.9167 463.584 68.6136L464.879 68.9773C464.743 69.4167 464.514 69.803 464.192 70.1364C463.87 70.4659 463.472 70.7235 462.999 70.9091C462.525 71.0909 461.993 71.1818 461.402 71.1818ZM474.124 71.2045C473.571 71.2045 473.069 71.1004 472.618 70.892C472.167 70.6799 471.809 70.375 471.544 69.9773C471.279 69.5758 471.146 69.0909 471.146 68.5227C471.146 68.0227 471.245 67.6174 471.442 67.3068C471.639 66.9924 471.902 66.7462 472.232 66.5682C472.561 66.3902 472.925 66.2576 473.322 66.1705C473.724 66.0795 474.127 66.0076 474.533 65.9545C475.063 65.8864 475.493 65.8352 475.822 65.8011C476.156 65.7633 476.398 65.7008 476.55 65.6136C476.705 65.5265 476.783 65.375 476.783 65.1591V65.1136C476.783 64.553 476.629 64.1174 476.322 63.8068C476.019 63.4962 475.559 63.3409 474.942 63.3409C474.302 63.3409 473.8 63.4811 473.436 63.7614C473.072 64.0417 472.817 64.3409 472.669 64.6591L471.396 64.2045C471.624 63.6742 471.927 63.2614 472.305 62.9659C472.688 62.6667 473.105 62.4583 473.555 62.3409C474.01 62.2197 474.457 62.1591 474.896 62.1591C475.177 62.1591 475.499 62.1932 475.862 62.2614C476.23 62.3258 476.584 62.4602 476.925 62.6648C477.269 62.8693 477.555 63.178 477.783 63.5909C478.01 64.0038 478.124 64.5568 478.124 65.25V71H476.783V69.8182H476.714C476.624 70.0076 476.472 70.2102 476.26 70.4261C476.048 70.642 475.766 70.8258 475.413 70.9773C475.061 71.1288 474.631 71.2045 474.124 71.2045ZM474.328 70C474.858 70 475.305 69.8958 475.669 69.6875C476.036 69.4792 476.313 69.2102 476.499 68.8807C476.688 68.5511 476.783 68.2045 476.783 67.8409V66.6136C476.726 66.6818 476.601 66.7443 476.408 66.8011C476.218 66.8542 475.999 66.9015 475.749 66.9432C475.502 66.9811 475.262 67.0152 475.027 67.0455C474.796 67.072 474.608 67.0947 474.464 67.1136C474.116 67.1591 473.79 67.233 473.487 67.3352C473.188 67.4337 472.946 67.5833 472.76 67.7841C472.578 67.9811 472.487 68.25 472.487 68.5909C472.487 69.0568 472.66 69.4091 473.004 69.6477C473.353 69.8826 473.794 70 474.328 70ZM481.912 59.3636V71H480.571V59.3636H481.912ZM485.709 59.3636V71H484.368V59.3636H485.709ZM490.165 69.4091L490.074 70.0227C490.009 70.4545 489.911 70.9167 489.778 71.4091C489.65 71.9015 489.515 72.3655 489.375 72.8011C489.235 73.2367 489.119 73.5833 489.028 73.8409H488.006C488.055 73.5985 488.119 73.2784 488.199 72.8807C488.278 72.483 488.358 72.0379 488.438 71.5455C488.521 71.0568 488.589 70.5568 488.642 70.0455L488.71 69.4091H490.165ZM123.227 90V81.2727H124.523V82.5909H124.614C124.773 82.1591 125.061 81.8087 125.477 81.5398C125.894 81.2708 126.364 81.1364 126.886 81.1364C126.985 81.1364 127.108 81.1383 127.256 81.142C127.403 81.1458 127.515 81.1515 127.591 81.1591V82.5227C127.545 82.5114 127.441 82.4943 127.278 82.4716C127.119 82.4451 126.951 82.4318 126.773 82.4318C126.348 82.4318 125.97 82.5208 125.636 82.6989C125.307 82.8731 125.045 83.1155 124.852 83.4261C124.663 83.733 124.568 84.0833 124.568 84.4773V90H123.227ZM132.574 90.1818C131.733 90.1818 131.008 89.9962 130.398 89.625C129.792 89.25 129.324 88.7273 128.994 88.0568C128.669 87.3826 128.506 86.5985 128.506 85.7045C128.506 84.8106 128.669 84.0227 128.994 83.3409C129.324 82.6553 129.782 82.1212 130.369 81.7386C130.96 81.3523 131.65 81.1591 132.438 81.1591C132.892 81.1591 133.341 81.2348 133.784 81.3864C134.227 81.5379 134.631 81.7841 134.994 82.125C135.358 82.4621 135.648 82.9091 135.864 83.4659C136.08 84.0227 136.188 84.7083 136.188 85.5227V86.0909H129.46V84.9318H134.824C134.824 84.4394 134.725 84 134.528 83.6136C134.335 83.2273 134.059 82.9223 133.699 82.6989C133.343 82.4754 132.922 82.3636 132.438 82.3636C131.903 82.3636 131.441 82.4962 131.051 82.7614C130.665 83.0227 130.367 83.3636 130.159 83.7841C129.951 84.2045 129.847 84.6553 129.847 85.1364V85.9091C129.847 86.5682 129.96 87.1269 130.188 87.5852C130.419 88.0398 130.739 88.3864 131.148 88.625C131.557 88.8598 132.032 88.9773 132.574 88.9773C132.926 88.9773 133.244 88.928 133.528 88.8295C133.816 88.7273 134.064 88.5758 134.273 88.375C134.481 88.1705 134.642 87.9167 134.756 87.6136L136.051 87.9773C135.915 88.4167 135.686 88.803 135.364 89.1364C135.042 89.4659 134.644 89.7235 134.17 89.9091C133.697 90.0909 133.165 90.1818 132.574 90.1818ZM144.409 83.2273L143.205 83.5682C143.129 83.3674 143.017 83.1723 142.869 82.983C142.725 82.7898 142.528 82.6307 142.278 82.5057C142.028 82.3807 141.708 82.3182 141.318 82.3182C140.784 82.3182 140.339 82.4413 139.983 82.6875C139.631 82.9299 139.455 83.2386 139.455 83.6136C139.455 83.947 139.576 84.2102 139.818 84.4034C140.061 84.5966 140.439 84.7576 140.955 84.8864L142.25 85.2045C143.03 85.3939 143.612 85.6837 143.994 86.0739C144.377 86.4602 144.568 86.9583 144.568 87.5682C144.568 88.0682 144.424 88.5152 144.136 88.9091C143.852 89.303 143.455 89.6136 142.943 89.8409C142.432 90.0682 141.837 90.1818 141.159 90.1818C140.269 90.1818 139.532 89.9886 138.949 89.6023C138.366 89.2159 137.996 88.6515 137.841 87.9091L139.114 87.5909C139.235 88.0606 139.464 88.4129 139.801 88.6477C140.142 88.8826 140.587 89 141.136 89C141.761 89 142.258 88.8674 142.625 88.6023C142.996 88.3333 143.182 88.0114 143.182 87.6364C143.182 87.3333 143.076 87.0795 142.864 86.875C142.652 86.6667 142.326 86.5114 141.886 86.4091L140.432 86.0682C139.633 85.8788 139.045 85.5852 138.67 85.1875C138.299 84.786 138.114 84.2841 138.114 83.6818C138.114 83.1894 138.252 82.7538 138.528 82.375C138.809 81.9962 139.189 81.6989 139.67 81.483C140.155 81.267 140.705 81.1591 141.318 81.1591C142.182 81.1591 142.86 81.3485 143.352 81.7273C143.848 82.1061 144.201 82.6061 144.409 83.2273ZM146.587 93.2727V81.2727H147.882V82.6591H148.041C148.14 82.5076 148.276 82.3144 148.45 82.0795C148.628 81.8409 148.882 81.6288 149.212 81.4432C149.545 81.2538 149.996 81.1591 150.564 81.1591C151.299 81.1591 151.946 81.3428 152.507 81.7102C153.068 82.0777 153.505 82.5985 153.82 83.2727C154.134 83.947 154.291 84.7424 154.291 85.6591C154.291 86.5833 154.134 87.3845 153.82 88.0625C153.505 88.7367 153.07 89.2595 152.513 89.6307C151.956 89.9981 151.314 90.1818 150.587 90.1818C150.026 90.1818 149.577 90.089 149.24 89.9034C148.903 89.714 148.643 89.5 148.462 89.2614C148.28 89.0189 148.14 88.8182 148.041 88.6591H147.928V93.2727H146.587ZM147.905 85.6364C147.905 86.2955 148.001 86.8769 148.195 87.3807C148.388 87.8807 148.67 88.2727 149.041 88.5568C149.412 88.8371 149.867 88.9773 150.405 88.9773C150.965 88.9773 151.433 88.8295 151.808 88.5341C152.187 88.2348 152.471 87.8333 152.661 87.3295C152.854 86.822 152.95 86.2576 152.95 85.6364C152.95 85.0227 152.856 84.4697 152.666 83.9773C152.481 83.4811 152.198 83.089 151.82 82.8011C151.445 82.5095 150.973 82.3636 150.405 82.3636C149.859 82.3636 149.401 82.5019 149.03 82.7784C148.659 83.0511 148.378 83.4337 148.189 83.9261C148 84.4148 147.905 84.9848 147.905 85.6364ZM159.996 90.1818C159.155 90.1818 158.429 89.9962 157.82 89.625C157.214 89.25 156.746 88.7273 156.416 88.0568C156.09 87.3826 155.928 86.5985 155.928 85.7045C155.928 84.8106 156.09 84.0227 156.416 83.3409C156.746 82.6553 157.204 82.1212 157.791 81.7386C158.382 81.3523 159.071 81.1591 159.859 81.1591C160.314 81.1591 160.763 81.2348 161.206 81.3864C161.649 81.5379 162.053 81.7841 162.416 82.125C162.78 82.4621 163.07 82.9091 163.286 83.4659C163.501 84.0227 163.609 84.7083 163.609 85.5227V86.0909H156.882V84.9318H162.246C162.246 84.4394 162.147 84 161.95 83.6136C161.757 83.2273 161.481 82.9223 161.121 82.6989C160.765 82.4754 160.344 82.3636 159.859 82.3636C159.325 82.3636 158.863 82.4962 158.473 82.7614C158.087 83.0227 157.789 83.3636 157.581 83.7841C157.373 84.2045 157.268 84.6553 157.268 85.1364V85.9091C157.268 86.5682 157.382 87.1269 157.609 87.5852C157.84 88.0398 158.161 88.3864 158.57 88.625C158.979 88.8598 159.454 88.9773 159.996 88.9773C160.348 88.9773 160.666 88.928 160.95 88.8295C161.238 88.7273 161.486 88.5758 161.695 88.375C161.903 88.1705 162.064 87.9167 162.178 87.6136L163.473 87.9773C163.337 88.4167 163.107 88.803 162.786 89.1364C162.464 89.4659 162.066 89.7235 161.592 89.9091C161.119 90.0909 160.587 90.1818 159.996 90.1818ZM169.195 90.1818C168.376 90.1818 167.672 89.9886 167.081 89.6023C166.49 89.2159 166.036 88.6837 165.717 88.0057C165.399 87.3277 165.24 86.553 165.24 85.6818C165.24 84.7955 165.403 84.0133 165.729 83.3352C166.058 82.6534 166.517 82.1212 167.104 81.7386C167.695 81.3523 168.384 81.1591 169.172 81.1591C169.786 81.1591 170.339 81.2727 170.831 81.5C171.323 81.7273 171.727 82.0455 172.041 82.4545C172.356 82.8636 172.551 83.3409 172.626 83.8864H171.286C171.183 83.4886 170.956 83.1364 170.604 82.8295C170.255 82.5189 169.786 82.3636 169.195 82.3636C168.672 82.3636 168.214 82.5 167.82 82.7727C167.429 83.0417 167.125 83.4223 166.905 83.9148C166.689 84.4034 166.581 84.9773 166.581 85.6364C166.581 86.3106 166.687 86.8977 166.899 87.3977C167.115 87.8977 167.418 88.286 167.808 88.5625C168.202 88.839 168.664 88.9773 169.195 88.9773C169.543 88.9773 169.859 88.9167 170.143 88.7955C170.428 88.6742 170.668 88.5 170.865 88.2727C171.062 88.0455 171.202 87.7727 171.286 87.4545H172.626C172.551 87.9697 172.363 88.4337 172.064 88.8466C171.768 89.2557 171.376 89.5814 170.888 89.8239C170.403 90.0625 169.839 90.1818 169.195 90.1818ZM178.382 81.2727V82.4091H173.859V81.2727H178.382ZM175.178 79.1818H176.518V87.5C176.518 87.8788 176.573 88.1629 176.683 88.3523C176.797 88.5379 176.941 88.6629 177.115 88.7273C177.293 88.7879 177.481 88.8182 177.678 88.8182C177.825 88.8182 177.946 88.8106 178.041 88.7955C178.136 88.7765 178.212 88.7614 178.268 88.75L178.541 89.9545C178.45 89.9886 178.323 90.0227 178.161 90.0568C177.998 90.0947 177.791 90.1136 177.541 90.1136C177.162 90.1136 176.791 90.0322 176.428 89.8693C176.068 89.7064 175.768 89.4583 175.53 89.125C175.295 88.7917 175.178 88.3712 175.178 87.8636V79.1818ZM185.763 93.2727C185.536 93.2727 185.333 93.2538 185.155 93.2159C184.977 93.1818 184.854 93.1477 184.786 93.1136L185.126 91.9318C185.452 92.0152 185.74 92.0455 185.99 92.0227C186.24 92 186.462 91.8883 186.655 91.6875C186.852 91.4905 187.032 91.1705 187.195 90.7273L187.445 90.0455L184.217 81.2727H185.672L188.081 88.2273H188.172L190.581 81.2727H192.036L188.331 91.2727C188.164 91.7235 187.958 92.0966 187.712 92.392C187.465 92.6913 187.179 92.9129 186.854 93.0568C186.532 93.2008 186.168 93.2727 185.763 93.2727ZM197.038 90.1818C196.25 90.1818 195.559 89.9943 194.964 89.6193C194.374 89.2443 193.911 88.7197 193.578 88.0455C193.249 87.3712 193.084 86.5833 193.084 85.6818C193.084 84.7727 193.249 83.9792 193.578 83.3011C193.911 82.6231 194.374 82.0966 194.964 81.7216C195.559 81.3466 196.25 81.1591 197.038 81.1591C197.826 81.1591 198.516 81.3466 199.107 81.7216C199.701 82.0966 200.163 82.6231 200.493 83.3011C200.826 83.9792 200.993 84.7727 200.993 85.6818C200.993 86.5833 200.826 87.3712 200.493 88.0455C200.163 88.7197 199.701 89.2443 199.107 89.6193C198.516 89.9943 197.826 90.1818 197.038 90.1818ZM197.038 88.9773C197.637 88.9773 198.129 88.8239 198.516 88.517C198.902 88.2102 199.188 87.8068 199.374 87.3068C199.559 86.8068 199.652 86.2652 199.652 85.6818C199.652 85.0985 199.559 84.5549 199.374 84.0511C199.188 83.5473 198.902 83.1402 198.516 82.8295C198.129 82.5189 197.637 82.3636 197.038 82.3636C196.44 82.3636 195.947 82.5189 195.561 82.8295C195.175 83.1402 194.889 83.5473 194.703 84.0511C194.518 84.5549 194.425 85.0985 194.425 85.6818C194.425 86.2652 194.518 86.8068 194.703 87.3068C194.889 87.8068 195.175 88.2102 195.561 88.517C195.947 88.8239 196.44 88.9773 197.038 88.9773ZM208.54 86.4318V81.2727H209.881V90H208.54V88.5227H208.449C208.244 88.9659 207.926 89.3428 207.494 89.6534C207.063 89.9602 206.517 90.1136 205.858 90.1136C205.312 90.1136 204.828 89.9943 204.403 89.7557C203.979 89.5133 203.646 89.1496 203.403 88.6648C203.161 88.1761 203.04 87.5606 203.04 86.8182V81.2727H204.381V86.7273C204.381 87.3636 204.559 87.8712 204.915 88.25C205.275 88.6288 205.733 88.8182 206.29 88.8182C206.623 88.8182 206.962 88.733 207.307 88.5625C207.655 88.392 207.947 88.1307 208.182 87.7784C208.42 87.4261 208.54 86.9773 208.54 86.4318ZM212.337 90V81.2727H213.632V82.5909H213.723C213.882 82.1591 214.17 81.8087 214.587 81.5398C215.003 81.2708 215.473 81.1364 215.996 81.1364C216.094 81.1364 216.217 81.1383 216.365 81.142C216.513 81.1458 216.625 81.1515 216.7 81.1591V82.5227C216.655 82.5114 216.551 82.4943 216.388 82.4716C216.229 82.4451 216.06 82.4318 215.882 82.4318C215.458 82.4318 215.079 82.5208 214.746 82.6989C214.416 82.8731 214.155 83.1155 213.962 83.4261C213.772 83.733 213.678 84.0833 213.678 84.4773V90H212.337ZM224.472 83.2273L223.267 83.5682C223.191 83.3674 223.08 83.1723 222.932 82.983C222.788 82.7898 222.591 82.6307 222.341 82.5057C222.091 82.3807 221.771 82.3182 221.381 82.3182C220.847 82.3182 220.402 82.4413 220.045 82.6875C219.693 82.9299 219.517 83.2386 219.517 83.6136C219.517 83.947 219.638 84.2102 219.881 84.4034C220.123 84.5966 220.502 84.7576 221.017 84.8864L222.312 85.2045C223.093 85.3939 223.674 85.6837 224.057 86.0739C224.439 86.4602 224.631 86.9583 224.631 87.5682C224.631 88.0682 224.487 88.5152 224.199 88.9091C223.915 89.303 223.517 89.6136 223.006 89.8409C222.494 90.0682 221.9 90.1818 221.222 90.1818C220.331 90.1818 219.595 89.9886 219.011 89.6023C218.428 89.2159 218.059 88.6515 217.903 87.9091L219.176 87.5909C219.297 88.0606 219.527 88.4129 219.864 88.6477C220.205 88.8826 220.65 89 221.199 89C221.824 89 222.32 88.8674 222.688 88.6023C223.059 88.3333 223.244 88.0114 223.244 87.6364C223.244 87.3333 223.138 87.0795 222.926 86.875C222.714 86.6667 222.388 86.5114 221.949 86.4091L220.494 86.0682C219.695 85.8788 219.108 85.5852 218.733 85.1875C218.362 84.786 218.176 84.2841 218.176 83.6818C218.176 83.1894 218.314 82.7538 218.591 82.375C218.871 81.9962 219.252 81.6989 219.733 81.483C220.218 81.267 220.767 81.1591 221.381 81.1591C222.244 81.1591 222.922 81.3485 223.415 81.7273C223.911 82.1061 224.263 82.6061 224.472 83.2273ZM230.308 90.1818C229.467 90.1818 228.742 89.9962 228.132 89.625C227.526 89.25 227.058 88.7273 226.729 88.0568C226.403 87.3826 226.24 86.5985 226.24 85.7045C226.24 84.8106 226.403 84.0227 226.729 83.3409C227.058 82.6553 227.517 82.1212 228.104 81.7386C228.695 81.3523 229.384 81.1591 230.172 81.1591C230.626 81.1591 231.075 81.2348 231.518 81.3864C231.962 81.5379 232.365 81.7841 232.729 82.125C233.092 82.4621 233.382 82.9091 233.598 83.4659C233.814 84.0227 233.922 84.7083 233.922 85.5227V86.0909H227.195V84.9318H232.558C232.558 84.4394 232.46 84 232.263 83.6136C232.07 83.2273 231.793 82.9223 231.433 82.6989C231.077 82.4754 230.657 82.3636 230.172 82.3636C229.638 82.3636 229.176 82.4962 228.786 82.7614C228.399 83.0227 228.102 83.3636 227.893 83.7841C227.685 84.2045 227.581 84.6553 227.581 85.1364V85.9091C227.581 86.5682 227.695 87.1269 227.922 87.5852C228.153 88.0398 228.473 88.3864 228.882 88.625C229.291 88.8598 229.767 88.9773 230.308 88.9773C230.661 88.9773 230.979 88.928 231.263 88.8295C231.551 88.7273 231.799 88.5758 232.007 88.375C232.215 88.1705 232.376 87.9167 232.49 87.6136L233.786 87.9773C233.649 88.4167 233.42 88.803 233.098 89.1364C232.776 89.4659 232.378 89.7235 231.905 89.9091C231.431 90.0909 230.899 90.1818 230.308 90.1818ZM237.303 78.3636V90H235.962V78.3636H237.303ZM243.645 81.2727V82.4091H238.94V81.2727H243.645ZM240.349 90V80.0682C240.349 79.5682 240.467 79.1515 240.702 78.8182C240.937 78.4848 241.241 78.2348 241.616 78.0682C241.991 77.9015 242.387 77.8182 242.804 77.8182C243.134 77.8182 243.402 77.8447 243.611 77.8977C243.819 77.9508 243.974 78 244.077 78.0455L243.69 79.2045C243.622 79.1818 243.527 79.1534 243.406 79.1193C243.289 79.0852 243.134 79.0682 242.94 79.0682C242.497 79.0682 242.177 79.1799 241.98 79.4034C241.787 79.6269 241.69 79.9545 241.69 80.3864V90H240.349ZM245.595 90.0909C245.315 90.0909 245.074 89.9905 244.874 89.7898C244.673 89.589 244.572 89.3485 244.572 89.0682C244.572 88.7879 244.673 88.5473 244.874 88.3466C245.074 88.1458 245.315 88.0455 245.595 88.0455C245.875 88.0455 246.116 88.1458 246.317 88.3466C246.518 88.5473 246.618 88.7879 246.618 89.0682C246.618 89.2538 246.571 89.4242 246.476 89.5795C246.385 89.7348 246.262 89.8598 246.107 89.9545C245.955 90.0455 245.785 90.0909 245.595 90.0909Z" fill="#303030"/>
<mask id="mask0_1205_123" style="mask-type:alpha" maskUnits="userSpaceOnUse" x="0" y="0" width="104" height="104">
<path d="M94.2891 10.8407C91.8456 8.03796 88.9445 5.8146 85.7514 4.29768C82.5583 2.78076 79.1358 2 75.6794 2C72.223 2 68.8005 2.78076 65.6074 4.29768C62.4143 5.8146 59.5132 8.03796 57.0697 10.8407L51.9987 16.6547L46.9277 10.8407C41.9921 5.18198 35.298 2.00293 28.318 2.00293C21.3381 2.00293 14.644 5.18198 9.70838 10.8407C4.77279 16.4995 2 24.1744 2 32.177C2 40.1797 4.77279 47.8546 9.70838 53.5134L14.7794 59.3274L51.9987 102L89.2181 59.3274L94.2891 53.5134C96.7337 50.7119 98.6729 47.3857 99.9959 43.7247C101.319 40.0638 102 36.1398 102 32.177C102 28.2143 101.319 24.2903 99.9959 20.6293C98.6729 16.9684 96.7337 13.6422 94.2891 10.8407V10.8407Z" stroke="#303030" stroke-width="3.08406" stroke-linecap="round" stroke-linejoin="round"/>
</mask>
<g mask="url(#mask0_1205_123)">
<path d="M-19.875 -29.7781C-19.875 -35.1487 -15.5213 -39.5024 -10.1508 -39.5024H146.563C151.934 -39.5024 156.287 -35.1487 156.287 -29.7781V152.747C156.287 158.117 151.934 162.471 146.563 162.471H-10.1508C-15.5213 162.471 -19.875 158.117 -19.875 152.747V-29.7781Z" fill="url(#paint0_linear_1205_123)"/>
</g>
<defs>
<linearGradient id="paint0_linear_1205_123" x1="-19.875" y1="-39.5024" x2="180.225" y2="135.026" gradientUnits="userSpaceOnUse">
<stop stop-color="#00D1FF"/>
<stop offset="1" stop-color="#3300FF"/>
</linearGradient>
</defs>
</svg>
