<svg width="412" height="67" viewBox="0 0 412 67" fill="none" xmlns="http://www.w3.org/2000/svg">
<g clip-path="url(#clip0_2750_24323)">
<rect width="66.6717" height="66.6717" rx="6" fill="#F0BB31"/>
<rect width="66.6717" height="66.6717" rx="6" fill="url(#paint0_linear_2750_24323)"/>
<path d="M22.5119 32.6518C23.7751 30.5897 26.9159 31.0862 27.4743 33.4363L30.6205 46.6766C31.0236 48.3733 29.7299 50 27.9773 50H16.7202C14.6008 50 13.298 47.6926 14.401 45.8922L22.5119 32.6518Z" fill="#F0BB31"/>
<path d="M22.5119 32.6518C23.7751 30.5897 26.9159 31.0862 27.4743 33.4363L30.6205 46.6766C31.0236 48.3733 29.7299 50 27.9773 50H16.7202C14.6008 50 13.298 47.6926 14.401 45.8922L22.5119 32.6518Z" fill="#1A1A1A"/>
<path d="M29.1027 19.2962C28.4295 16.3728 32.3858 14.7209 34.0525 17.2295L53.0615 45.8387C54.2499 47.6272 52.9465 50 50.7756 50H38.3548C37.0789 50 35.9729 49.1304 35.6908 47.9054L29.1027 19.2962Z" fill="#F0BB31"/>
<path d="M29.1027 19.2962C28.4295 16.3728 32.3858 14.7209 34.0525 17.2295L53.0615 45.8387C54.2499 47.6272 52.9465 50 50.7756 50H38.3548C37.0789 50 35.9729 49.1304 35.6908 47.9054L29.1027 19.2962Z" fill="#1A1A1A"/>
<path d="M86.6719 57.666H118.445V48.8878H98.0346V8.24542H86.6719V57.666Z" fill="#1A1A1A"/>
<path d="M136.528 58.4263C142.56 58.4263 146.277 55.6615 148.171 51.9982V57.666H158.271V21.5164H148.171V42.7361C148.171 48.0583 144.805 50.6849 140.526 50.6849C136.177 50.6849 134.143 48.3348 134.143 43.4273V21.5164H124.043V44.8097C124.043 54.2791 129.374 58.4263 136.528 58.4263Z" fill="#1A1A1A"/>
<path d="M163.974 57.666H174.425L182.351 45.5009L190.066 57.666H201.78L188.874 38.4507L200.587 21.5164H190.066L183.333 32.3682L176.459 21.5164H164.816L176.529 39.211L163.974 57.666Z" fill="#1A1A1A"/>
<path d="M221.853 50.8231C216.101 50.8231 212.875 46.676 212.875 39.764V39.211C212.875 32.2991 216.241 28.2901 221.853 28.2901C227.534 28.2901 230.831 32.4373 230.831 39.3493V39.8331C230.831 46.676 227.534 50.8231 221.853 50.8231ZM221.782 58.4263C232.794 58.4263 241.141 51.1687 241.141 39.764V39.211C241.141 27.9445 232.865 20.687 221.853 20.687C210.841 20.687 202.494 28.0828 202.494 39.4184V39.9713C202.494 51.2379 210.841 58.4263 221.782 58.4263Z" fill="#1A1A1A"/>
<path d="M247.96 57.666H258.13V39.5566C258.13 32.6447 262.479 30.2255 269.984 30.2946V20.9634C264.022 21.0326 260.445 23.59 258.13 28.4284V21.5164H247.96V57.666Z" fill="#1A1A1A"/>
</g>
<defs>
<linearGradient id="paint0_linear_2750_24323" x1="33.3358" y1="0" x2="33.3358" y2="66.6717" gradientUnits="userSpaceOnUse">
<stop stop-color="#E5AA12"/>
<stop offset="1" stop-color="white" stop-opacity="0"/>
</linearGradient>
<clipPath id="clip0_2750_24323">
<rect width="412" height="66.6717" fill="white"/>
</clipPath>
</defs>
</svg>
