<svg width="383" height="67" viewBox="0 0 383 67" fill="none" xmlns="http://www.w3.org/2000/svg">
<g clip-path="url(#clip0_2547_18026)">
<rect y="0.192932" width="66.6142" height="66.6142" fill="#0066FF"/>
<path d="M32.333 31.9509C33.5517 31.0047 34.5415 29.7931 36.0469 29.2906C37.5948 28.7739 39.0833 28.8273 40.4067 29.8607C41.5698 30.7687 42.1333 31.9793 41.8897 33.4776C41.681 34.7622 41.2809 35.3754 40.0693 36.4208C39.2795 35.8316 38.4881 35.2413 37.6651 34.6276C37.8793 34.5355 38.0663 34.4597 38.2489 34.3747C38.6168 34.2036 38.9094 33.9463 39.1476 33.6149C39.6779 32.8764 39.2196 32.0234 38.5764 31.7531C37.8793 31.4598 37.2182 31.5994 36.5729 31.9198C35.8752 32.2665 35.3602 32.8279 34.8505 33.3953C34.79 33.4623 34.7344 33.5337 34.6658 33.6165C33.8918 33.0639 33.1255 32.5167 32.333 31.9509Z" fill="white"/>
<path d="M41.7145 22.49C42.4847 22.4688 43.0471 23.1146 43.0788 23.8466C43.1098 24.5775 42.4465 25.1945 41.6933 25.2163C41.0768 25.2343 40.3012 24.6211 40.3563 23.8183C40.4064 23.0901 40.9749 22.4884 41.7145 22.49Z" fill="white"/>
<path fill-rule="evenodd" clip-rule="evenodd" d="M42.9906 21.6191C43.9254 21.7647 44.7162 22.2203 45.3844 23.0024C45.3497 23.0301 45.3171 23.0545 45.2867 23.0773C45.2236 23.1247 45.1698 23.165 45.125 23.2128C44.314 24.0522 43.9014 25.0736 43.8098 26.222C43.7275 27.2576 43.8921 28.2724 44.1003 29.2873C44.3745 30.6243 44.581 31.9672 44.3576 33.3456C44.1357 34.7137 43.7052 35.9983 42.9841 37.1794C42.427 38.0913 41.7038 38.8603 40.8938 39.5542C40.1134 40.2235 39.2685 40.7849 38.318 41.1822C38.2689 41.2027 38.2155 41.2132 38.1622 41.2236C38.1362 41.2287 38.1102 41.2337 38.0847 41.24C38.5363 40.5988 39.0139 40.0047 39.4907 39.4116C39.5117 39.3856 39.5326 39.3595 39.5536 39.3334C39.8992 38.9034 39.8997 38.8996 39.4462 38.5796C37.9341 37.5126 36.4215 36.4461 34.909 35.3796C33.6912 34.5209 32.4734 33.6622 31.2559 32.8033C30.8629 32.5258 30.471 32.2465 30.0899 31.9748C29.9642 31.8852 29.8397 31.7965 29.7167 31.7089C29.8352 31.6265 29.9572 31.5489 30.0786 31.4716C30.3429 31.3035 30.6049 31.1368 30.8237 30.9251C31.8702 29.9124 32.213 28.667 31.759 27.2843C31.3033 25.8971 30.2972 25.0785 28.8452 24.8692C26.9163 24.5912 25.0654 26.101 24.9308 28.0446C24.9155 28.2582 24.8305 28.3078 24.6326 28.3269C23.494 28.4376 22.6138 28.9859 21.9903 29.9419C20.94 31.5514 21.4632 33.7015 23.0798 34.766C24.6108 35.7738 26.6536 35.4288 27.7421 33.9653C27.9092 33.7409 28.0451 33.4933 28.1825 33.2428C28.2463 33.1266 28.3104 33.0098 28.3781 32.8943C28.487 32.9736 28.5973 33.0539 28.7085 33.135C28.9738 33.3283 29.2447 33.5257 29.5162 33.7223C29.7985 33.9266 29.8012 33.9446 29.5614 34.1845C29.1792 34.567 28.7973 34.95 28.4155 35.333C27.5032 36.2481 26.591 37.1631 25.6731 38.0722C24.1248 39.6057 22.5714 41.134 21.0179 42.6623C20.6852 42.9895 20.3526 43.3168 20.02 43.6441C19.5362 44.1203 19.0515 44.5958 18.5669 45.0713C18.0077 45.6201 17.4484 46.1689 16.8903 46.7187C16.8833 46.7256 16.8762 46.7326 16.869 46.7396C16.7369 46.8686 16.5734 47.0284 16.6974 47.1994C16.7721 47.3024 17.0184 47.3242 17.1825 47.3128C17.9258 47.2603 18.6685 47.1954 19.4111 47.1305C19.6251 47.1117 19.8392 47.093 20.0532 47.0746C20.4357 47.0415 20.8181 47.008 21.2005 46.9744C21.8384 46.9184 22.4763 46.8625 23.1141 46.8086C23.3898 46.7856 23.6659 46.7679 23.9291 46.751C24.0521 46.7431 24.1722 46.7354 24.2882 46.7274C24.1643 47.5359 24.0424 48.3303 23.9175 49.143H26.5165C26.5303 49.0572 26.5434 48.9724 26.5563 48.8883C26.6053 48.5702 26.6525 48.2641 26.731 47.9663C26.8231 47.6167 26.9498 47.2764 27.0764 46.9363C27.114 46.8353 27.1516 46.7343 27.1883 46.6331C27.2646 46.4222 27.4069 46.3197 27.65 46.2892C28.7722 46.149 29.8925 45.9959 31.0129 45.8428C31.3301 45.7995 31.6472 45.7562 31.9645 45.7131C32.042 45.7028 32.1191 45.6868 32.2027 45.6695C32.2431 45.6611 32.2849 45.6524 32.3291 45.6439C32.6167 46.8887 33.0925 48.0405 33.8202 49.143H36.8491C36.0439 48.2707 35.5155 47.2384 35.1726 46.1055C35.1001 45.8664 35.0499 45.6205 34.9996 45.3745C34.9769 45.2633 34.9542 45.1522 34.9295 45.0416C34.9842 45.0259 35.0304 45.0124 35.0712 45.0004C35.1394 44.9805 35.1926 44.9649 35.2462 44.9506C36.6088 44.5849 37.9414 44.1281 39.2206 43.533C40.4938 42.941 41.6531 42.1698 42.7072 41.2351C43.7182 40.3385 44.5843 39.3285 45.2803 38.1698C45.8019 37.3015 46.1464 36.3592 46.4462 35.3999C46.8015 34.2618 47.0473 33.0927 46.9808 31.9013C46.9235 30.8693 46.7705 29.8411 46.618 28.8164C46.6081 28.7501 46.5983 28.6837 46.5884 28.6174C46.4363 27.596 46.3431 26.5763 46.6086 25.569C46.9558 24.2528 47.7684 23.2564 48.8678 22.4814C49.072 22.3374 49.2801 22.1985 49.4966 22.0539C49.5973 21.9867 49.6998 21.9183 49.8047 21.8475C48.9849 21.4812 48.1521 21.2877 47.2986 21.1885C46.9143 21.1439 46.565 21.0932 46.3104 20.7454C46.1773 20.5635 45.9921 20.4164 45.8115 20.273C45.7924 20.2579 45.7734 20.2427 45.7545 20.2276C43.9074 18.7495 41.8215 18.1598 39.5056 18.7212C36.7625 19.3861 35.0031 21.1684 34.046 23.79C33.6138 24.9744 33.617 26.2029 33.6748 27.4341C33.6841 27.6375 33.7311 27.8391 33.7784 28.0418C33.8003 28.1358 33.8222 28.23 33.8405 28.3247C33.8638 28.32 33.8827 28.3174 33.8984 28.3152C33.9244 28.3116 33.9413 28.3093 33.9539 28.3008C34.8897 27.6816 35.88 27.2069 37.0186 27.0995C37.0846 27.0935 37.1859 26.9649 37.1903 26.8891C37.2563 25.6579 37.6765 24.5493 38.4286 23.5911C39.583 22.1195 41.0699 21.3199 42.9906 21.6191ZM23.6973 44.136C23.5475 44.1359 23.3953 44.1358 23.24 44.1358C24.3964 42.9979 25.5455 41.867 26.6903 40.7403C28.4924 38.9669 30.2838 37.2039 32.0757 35.4408C32.1936 35.5235 32.3091 35.6045 32.4236 35.6848C32.6901 35.8718 32.9509 36.0548 33.2235 36.2458C33.0551 36.4206 32.8899 36.5938 32.7262 36.7653C32.3729 37.1357 32.0269 37.4983 31.6723 37.8526C30.7807 38.7435 29.886 39.6311 28.9913 40.5186C28.4432 41.0622 27.8952 41.6059 27.348 42.1502C27.012 42.4841 26.6776 42.8198 26.3431 43.1555C26.0564 43.4434 25.7696 43.7312 25.4818 44.018C25.4327 44.0671 25.3662 44.1303 25.3068 44.1309C24.7813 44.1369 24.2557 44.1365 23.6973 44.136ZM37.2116 41.6158C37.2101 41.6317 37.2086 41.6477 37.2072 41.6635C34.9284 42.5753 32.5526 43.0773 30.1233 43.3493C30.1152 43.3332 30.1069 43.3171 30.0986 43.3011C30.0902 43.285 30.0819 43.2689 30.0737 43.2528C31.8904 41.4863 33.707 39.7204 35.5503 37.9289C36.0365 38.293 36.5188 38.6538 37.029 39.0353C36.9502 39.1275 36.8744 39.2175 36.8003 39.3055C36.6428 39.4926 36.4927 39.6709 36.3362 39.8436C35.9051 40.3194 35.9422 40.6633 36.4703 41.0301C36.645 41.1511 36.8164 41.2765 36.9881 41.402C37.0639 41.4575 37.1398 41.513 37.2159 41.5681C37.2146 41.5839 37.2131 41.5998 37.2116 41.6158ZM24.9242 30.4002C25.6764 30.3784 26.3849 31.081 26.3468 31.7999C26.3489 32.5908 25.7483 33.2012 24.9667 33.2034C24.2075 33.2061 23.5698 32.5837 23.5665 31.8375C23.5633 31.0336 24.1584 30.4226 24.9242 30.4002ZM27.0193 28.3329C27.0422 27.5393 27.657 26.9311 28.425 26.9431C29.212 26.9556 29.8148 27.5726 29.8034 28.3547C29.792 29.1652 29.1853 29.7566 28.3803 29.7429C27.6347 29.7298 26.9981 29.0709 27.0193 28.3329Z" fill="white"/>
</g>
<path d="M84.0409 52V17.254H92.0879L101.147 34.5204L104.558 42.1944H104.771C104.629 40.347 104.434 38.2864 104.185 36.0126C103.936 33.7388 103.812 31.5717 103.812 29.5111V17.254H111.273V52H103.226L94.1663 34.6803L90.7556 27.1129H90.5425C90.7201 29.0314 90.9155 31.092 91.1287 33.2947C91.3774 35.4974 91.5017 37.6291 91.5017 39.6897V52H84.0409ZM126.783 52.6395C123.905 52.6395 121.809 51.698 120.494 49.8151C119.215 47.8966 118.576 45.2853 118.576 41.9812V25.5675H126.41V40.9687C126.41 42.8517 126.676 44.1662 127.209 44.9123C127.742 45.6228 128.577 45.9781 129.714 45.9781C130.708 45.9781 131.543 45.7471 132.218 45.2853C132.893 44.8234 133.622 44.0774 134.403 43.0471V25.5675H142.237V52H135.842L135.256 48.3229H135.096C133.995 49.6374 132.787 50.6855 131.472 51.4671C130.158 52.2487 128.595 52.6395 126.783 52.6395ZM149.131 52V25.5675H155.526L156.059 28.9781H156.272C157.373 27.8768 158.546 26.9353 159.789 26.1537C161.033 25.3366 162.525 24.928 164.266 24.928C166.149 24.928 167.659 25.3188 168.795 26.1004C169.968 26.8465 170.892 27.9301 171.567 29.3512C172.739 28.1432 173.982 27.1129 175.297 26.2603C176.611 25.3721 178.139 24.928 179.88 24.928C182.722 24.928 184.801 25.8872 186.115 27.8057C187.465 29.6887 188.14 32.2822 188.14 35.5863V52H180.306V36.5988C180.306 34.6803 180.04 33.3658 179.507 32.6552C179.01 31.9447 178.192 31.5894 177.056 31.5894C175.741 31.5894 174.231 32.4421 172.526 34.1474V52H164.692V36.5988C164.692 34.6803 164.426 33.3658 163.893 32.6552C163.395 31.9447 162.578 31.5894 161.441 31.5894C160.127 31.5894 158.635 32.4421 156.965 34.1474V52H149.131ZM201.485 52.6395C199.07 52.6395 197.151 51.8757 195.73 50.348C194.309 48.7848 193.598 46.884 193.598 44.6458C193.598 41.8746 194.771 39.7075 197.116 38.1443C199.46 36.581 203.244 35.533 208.467 35.0001C208.396 33.8277 208.04 32.9039 207.401 32.2289C206.797 31.5184 205.767 31.1631 204.31 31.1631C203.209 31.1631 202.089 31.3763 200.953 31.8026C199.816 32.2289 198.608 32.8151 197.329 33.5612L194.504 28.3919C196.174 27.3616 197.95 26.5267 199.833 25.8872C201.752 25.2477 203.741 24.928 205.802 24.928C209.177 24.928 211.771 25.905 213.583 27.859C215.395 29.813 216.3 32.8151 216.3 36.8653V52H209.906L209.373 49.2821H209.159C208.058 50.2769 206.868 51.094 205.589 51.7335C204.345 52.3375 202.978 52.6395 201.485 52.6395ZM204.15 46.5643C205.038 46.5643 205.802 46.3689 206.442 45.9781C207.117 45.5517 207.792 45.0011 208.467 44.326V39.6897C205.695 40.045 203.777 40.6134 202.711 41.395C201.645 42.1411 201.112 43.0293 201.112 44.0596C201.112 44.9123 201.379 45.5517 201.912 45.9781C202.48 46.3689 203.226 46.5643 204.15 46.5643ZM222.927 52V25.5675H230.761V52H222.927ZM226.817 21.6772C225.503 21.6772 224.437 21.3042 223.62 20.5581C222.803 19.812 222.394 18.8173 222.394 17.5738C222.394 16.3303 222.803 15.3356 223.62 14.5895C224.437 13.8434 225.503 13.4704 226.817 13.4704C228.132 13.4704 229.198 13.8434 230.015 14.5895C230.832 15.3356 231.24 16.3303 231.24 17.5738C231.24 18.8173 230.832 19.812 230.015 20.5581C229.198 21.3042 228.132 21.6772 226.817 21.6772ZM237.655 52V25.5675H244.05L244.583 30.2038H244.796C245.755 28.4275 246.91 27.1129 248.26 26.2603C249.61 25.3721 250.96 24.928 252.31 24.928C253.056 24.928 253.678 24.9813 254.175 25.0879C254.673 25.1589 255.099 25.2833 255.454 25.4609L254.175 32.2289C253.713 32.0868 253.251 31.9802 252.79 31.9092C252.363 31.8381 251.866 31.8026 251.297 31.8026C250.303 31.8026 249.255 32.1756 248.153 32.9217C247.087 33.6323 246.199 34.8757 245.489 36.6521V52H237.655ZM264.04 52.6395C261.624 52.6395 259.706 51.8757 258.285 50.348C256.864 48.7848 256.153 46.884 256.153 44.6458C256.153 41.8746 257.326 39.7075 259.67 38.1443C262.015 36.581 265.799 35.533 271.022 35.0001C270.95 33.8277 270.595 32.9039 269.956 32.2289C269.352 31.5184 268.321 31.1631 266.865 31.1631C265.763 31.1631 264.644 31.3763 263.507 31.8026C262.371 32.2289 261.163 32.8151 259.884 33.5612L257.059 28.3919C258.729 27.3616 260.505 26.5267 262.388 25.8872C264.307 25.2477 266.296 24.928 268.357 24.928C271.732 24.928 274.326 25.905 276.137 27.859C277.949 29.813 278.855 32.8151 278.855 36.8653V52H272.46L271.927 49.2821H271.714C270.613 50.2769 269.423 51.094 268.144 51.7335C266.9 52.3375 265.533 52.6395 264.04 52.6395ZM266.705 46.5643C267.593 46.5643 268.357 46.3689 268.996 45.9781C269.671 45.5517 270.346 45.0011 271.022 44.326V39.6897C268.25 40.045 266.332 40.6134 265.266 41.395C264.2 42.1411 263.667 43.0293 263.667 44.0596C263.667 44.9123 263.934 45.5517 264.467 45.9781C265.035 46.3689 265.781 46.5643 266.705 46.5643Z" fill="#0066FF"/>
<defs>
<clipPath id="clip0_2547_18026">
<rect y="0.192932" width="66.6142" height="66.6142" rx="13.3228" fill="white"/>
</clipPath>
</defs>
</svg>
