<svg width="450" height="151" viewBox="0 0 450 151" fill="none" xmlns="http://www.w3.org/2000/svg">
<path d="M127.83 56.0629H125.614L132.023 38.6084H134.205L140.614 56.0629H138.398L133.182 41.3697H133.045L127.83 56.0629ZM128.648 49.2447H137.58V51.1197H128.648V49.2447ZM148.378 56.3356C147.151 56.3356 146.094 56.0459 145.207 55.4663C144.321 54.8868 143.639 54.0885 143.162 53.0714C142.685 52.0544 142.446 50.8924 142.446 49.5856C142.446 48.2561 142.69 47.0828 143.179 46.0657C143.673 45.043 144.361 44.2447 145.241 43.6709C146.128 43.0913 147.162 42.8015 148.344 42.8015C149.264 42.8015 150.094 42.972 150.832 43.3129C151.571 43.6538 152.176 44.1311 152.648 44.7447C153.119 45.3584 153.412 46.0743 153.526 46.8924H151.514C151.361 46.2959 151.02 45.7674 150.491 45.3072C149.969 44.8413 149.264 44.6084 148.378 44.6084C147.594 44.6084 146.906 44.8129 146.315 45.222C145.73 45.6254 145.273 46.1964 144.943 46.9351C144.619 47.668 144.457 48.5288 144.457 49.5174C144.457 50.5288 144.616 51.4095 144.935 52.1595C145.259 52.9095 145.713 53.4919 146.298 53.9067C146.889 54.3214 147.582 54.5288 148.378 54.5288C148.901 54.5288 149.375 54.4379 149.801 54.2561C150.227 54.0743 150.588 53.8129 150.884 53.472C151.179 53.1311 151.389 52.722 151.514 52.2447H153.526C153.412 53.0174 153.131 53.7135 152.682 54.3328C152.239 54.9464 151.651 55.4351 150.918 55.7987C150.19 56.1567 149.344 56.3356 148.378 56.3356ZM161.784 56.3356C160.557 56.3356 159.5 56.0459 158.614 55.4663C157.727 54.8868 157.045 54.0885 156.568 53.0714C156.091 52.0544 155.852 50.8924 155.852 49.5856C155.852 48.2561 156.097 47.0828 156.585 46.0657C157.08 45.043 157.767 44.2447 158.648 43.6709C159.534 43.0913 160.568 42.8015 161.75 42.8015C162.67 42.8015 163.5 42.972 164.239 43.3129C164.977 43.6538 165.582 44.1311 166.054 44.7447C166.526 45.3584 166.818 46.0743 166.932 46.8924H164.92C164.767 46.2959 164.426 45.7674 163.898 45.3072C163.375 44.8413 162.67 44.6084 161.784 44.6084C161 44.6084 160.313 44.8129 159.722 45.222C159.136 45.6254 158.679 46.1964 158.349 46.9351C158.026 47.668 157.864 48.5288 157.864 49.5174C157.864 50.5288 158.023 51.4095 158.341 52.1595C158.665 52.9095 159.119 53.4919 159.705 53.9067C160.295 54.3214 160.989 54.5288 161.784 54.5288C162.307 54.5288 162.781 54.4379 163.207 54.2561C163.634 54.0743 163.994 53.8129 164.29 53.472C164.585 53.1311 164.795 52.722 164.92 52.2447H166.932C166.818 53.0174 166.537 53.7135 166.088 54.3328C165.645 54.9464 165.057 55.4351 164.324 55.7987C163.597 56.1567 162.75 56.3356 161.784 56.3356ZM175.361 56.3356C174.099 56.3356 173.011 56.0572 172.097 55.5004C171.188 54.9379 170.486 54.1538 169.991 53.1481C169.503 52.1368 169.259 50.9606 169.259 49.6197C169.259 48.2788 169.503 47.097 169.991 46.0743C170.486 45.0459 171.173 44.2447 172.054 43.6709C172.94 43.0913 173.974 42.8015 175.156 42.8015C175.838 42.8015 176.511 42.9152 177.176 43.1424C177.841 43.3697 178.446 43.739 178.991 44.2504C179.537 44.7561 179.972 45.4265 180.295 46.2618C180.619 47.097 180.781 48.1254 180.781 49.347V50.1993H170.69V48.4606H178.736C178.736 47.722 178.588 47.0629 178.293 46.4834C178.003 45.9038 177.588 45.4464 177.048 45.1112C176.514 44.776 175.884 44.6084 175.156 44.6084C174.355 44.6084 173.662 44.8072 173.077 45.2049C172.497 45.597 172.051 46.1084 171.739 46.739C171.426 47.3697 171.27 48.0459 171.27 48.7674V49.9265C171.27 50.9152 171.44 51.7532 171.781 52.4407C172.128 53.1226 172.608 53.6424 173.222 54.0004C173.835 54.3527 174.548 54.5288 175.361 54.5288C175.889 54.5288 176.366 54.4549 176.793 54.3072C177.224 54.1538 177.597 53.9265 177.909 53.6254C178.222 53.3186 178.463 52.9379 178.634 52.4834L180.577 53.0288C180.372 53.6879 180.028 54.2674 179.545 54.7674C179.063 55.2618 178.466 55.6481 177.756 55.9265C177.045 56.1993 176.247 56.3356 175.361 56.3356ZM183.841 60.972V42.972H185.784V45.0515H186.023C186.17 44.8243 186.375 44.5345 186.636 44.1822C186.903 43.8243 187.284 43.5061 187.778 43.2277C188.278 42.9436 188.955 42.8015 189.807 42.8015C190.909 42.8015 191.881 43.0771 192.722 43.6282C193.563 44.1794 194.219 44.9606 194.69 45.972C195.162 46.9834 195.398 48.1765 195.398 49.5515C195.398 50.9379 195.162 52.1396 194.69 53.1567C194.219 54.168 193.565 54.9521 192.73 55.5089C191.895 56.0601 190.932 56.3356 189.841 56.3356C189 56.3356 188.327 56.1964 187.821 55.918C187.315 55.6339 186.926 55.3129 186.653 54.9549C186.381 54.5913 186.17 54.2902 186.023 54.0515H185.852V60.972H183.841ZM185.818 49.5174C185.818 50.5061 185.963 51.3782 186.253 52.1339C186.543 52.8839 186.966 53.472 187.523 53.8981C188.08 54.3186 188.761 54.5288 189.568 54.5288C190.409 54.5288 191.111 54.3072 191.673 53.864C192.241 53.4152 192.668 52.8129 192.952 52.0572C193.241 51.2959 193.386 50.4493 193.386 49.5174C193.386 48.597 193.244 47.7674 192.96 47.0288C192.682 46.2845 192.259 45.6964 191.69 45.2646C191.128 44.8271 190.42 44.6084 189.568 44.6084C188.75 44.6084 188.063 44.8157 187.506 45.2305C186.949 45.6396 186.528 46.2135 186.244 46.9521C185.96 47.6851 185.818 48.5402 185.818 49.5174ZM204.159 42.972V44.6765H197.375V42.972H204.159ZM199.352 39.8356H201.364V52.3129C201.364 52.8811 201.446 53.3072 201.611 53.5913C201.781 53.8697 201.997 54.0572 202.259 54.1538C202.526 54.2447 202.807 54.2902 203.102 54.2902C203.324 54.2902 203.506 54.2788 203.648 54.2561C203.79 54.2277 203.903 54.2049 203.989 54.1879L204.398 55.9947C204.261 56.0459 204.071 56.097 203.827 56.1481C203.582 56.2049 203.273 56.2334 202.898 56.2334C202.33 56.2334 201.773 56.1112 201.227 55.8669C200.688 55.6226 200.239 55.2504 199.881 54.7504C199.528 54.2504 199.352 53.6197 199.352 52.8584V39.8356ZM214.207 38.6084H216.73L222.662 53.097H222.866L228.798 38.6084H231.321V56.0629H229.344V42.8015H229.173L223.719 56.0629H221.81L216.355 42.8015H216.185V56.0629H214.207V38.6084ZM235.286 56.0629V42.972H237.298V56.0629H235.286ZM236.309 40.7902C235.917 40.7902 235.579 40.6567 235.295 40.3896C235.016 40.1226 234.877 39.8015 234.877 39.4265C234.877 39.0515 235.016 38.7305 235.295 38.4635C235.579 38.1964 235.917 38.0629 236.309 38.0629C236.701 38.0629 237.036 38.1964 237.315 38.4635C237.599 38.7305 237.741 39.0515 237.741 39.4265C237.741 39.8015 237.599 40.1226 237.315 40.3896C237.036 40.6567 236.701 40.7902 236.309 40.7902ZM250.254 45.9038L248.447 46.4152C248.334 46.114 248.166 45.8214 247.945 45.5373C247.729 45.2476 247.433 45.0089 247.058 44.8214C246.683 44.6339 246.203 44.5402 245.618 44.5402C244.817 44.5402 244.149 44.7248 243.615 45.0942C243.087 45.4578 242.822 45.9209 242.822 46.4834C242.822 46.9834 243.004 47.3782 243.368 47.668C243.732 47.9578 244.3 48.1993 245.072 48.3924L247.016 48.8697C248.186 49.1538 249.058 49.5885 249.632 50.1737C250.206 50.7532 250.493 51.5004 250.493 52.4152C250.493 53.1652 250.277 53.8356 249.845 54.4265C249.419 55.0174 248.822 55.4834 248.055 55.8243C247.288 56.1652 246.396 56.3356 245.379 56.3356C244.044 56.3356 242.939 56.0459 242.064 55.4663C241.189 54.8868 240.635 54.0402 240.402 52.9265L242.311 52.4493C242.493 53.1538 242.837 53.6822 243.342 54.0345C243.854 54.3868 244.521 54.5629 245.345 54.5629C246.283 54.5629 247.027 54.364 247.578 53.9663C248.135 53.5629 248.413 53.0799 248.413 52.5174C248.413 52.0629 248.254 51.6822 247.936 51.3754C247.618 51.0629 247.129 50.8299 246.47 50.6765L244.288 50.1652C243.089 49.8811 242.209 49.4407 241.646 48.8442C241.089 48.2419 240.811 47.489 240.811 46.5856C240.811 45.847 241.018 45.1936 241.433 44.6254C241.854 44.0572 242.425 43.6112 243.146 43.2873C243.874 42.9635 244.697 42.8015 245.618 42.8015C246.913 42.8015 247.93 43.0856 248.669 43.6538C249.413 44.222 249.942 44.972 250.254 45.9038ZM259.214 42.972V44.6765H252.43V42.972H259.214ZM254.407 39.8356H256.418V52.3129C256.418 52.8811 256.501 53.3072 256.665 53.5913C256.836 53.8697 257.052 54.0572 257.313 54.1538C257.58 54.2447 257.862 54.2902 258.157 54.2902C258.379 54.2902 258.56 54.2788 258.702 54.2561C258.844 54.2277 258.958 54.2049 259.043 54.1879L259.452 55.9947C259.316 56.0459 259.126 56.097 258.881 56.1481C258.637 56.2049 258.327 56.2334 257.952 56.2334C257.384 56.2334 256.827 56.1112 256.282 55.8669C255.742 55.6226 255.293 55.2504 254.935 54.7504C254.583 54.2504 254.407 53.6197 254.407 52.8584V39.8356ZM266.092 56.3697C265.262 56.3697 264.509 56.2135 263.833 55.901C263.157 55.5828 262.62 55.1254 262.222 54.5288C261.825 53.9265 261.626 53.1993 261.626 52.347C261.626 51.597 261.773 50.989 262.069 50.5231C262.364 50.0515 262.759 49.6822 263.254 49.4152C263.748 49.1481 264.293 48.9493 264.89 48.8186C265.492 48.6822 266.097 48.5743 266.705 48.4947C267.501 48.3924 268.146 48.3157 268.64 48.2646C269.14 48.2078 269.504 48.114 269.731 47.9834C269.964 47.8527 270.08 47.6254 270.08 47.3015V47.2334C270.08 46.3924 269.85 45.739 269.39 45.2731C268.935 44.8072 268.245 44.5743 267.319 44.5743C266.359 44.5743 265.606 44.7845 265.06 45.2049C264.515 45.6254 264.131 46.0743 263.91 46.5515L262.001 45.8697C262.342 45.0743 262.796 44.4549 263.364 44.0118C263.938 43.5629 264.563 43.2504 265.239 43.0743C265.921 42.8924 266.592 42.8015 267.251 42.8015C267.671 42.8015 268.154 42.8527 268.7 42.9549C269.251 43.0515 269.782 43.2532 270.293 43.5601C270.81 43.8669 271.239 44.3299 271.58 44.9493C271.921 45.5686 272.092 46.3981 272.092 47.4379V56.0629H270.08V54.2902H269.978C269.842 54.5743 269.614 54.8782 269.296 55.2021C268.978 55.526 268.555 55.8015 268.026 56.0288C267.498 56.2561 266.853 56.3697 266.092 56.3697ZM266.398 54.5629C267.194 54.5629 267.864 54.4067 268.41 54.0942C268.961 53.7817 269.376 53.3782 269.654 52.8839C269.938 52.3896 270.08 51.8697 270.08 51.3243V49.4834C269.995 49.5856 269.808 49.6794 269.518 49.7646C269.234 49.8442 268.904 49.9152 268.529 49.9777C268.16 50.0345 267.799 50.0856 267.447 50.1311C267.1 50.1709 266.819 50.2049 266.603 50.2334C266.08 50.3015 265.592 50.4123 265.137 50.5657C264.688 50.7135 264.325 50.9379 264.046 51.239C263.773 51.5345 263.637 51.9379 263.637 52.4493C263.637 53.1481 263.896 53.6765 264.413 54.0345C264.935 54.3868 265.597 54.5629 266.398 54.5629ZM277.638 51.2902L277.604 48.8015H278.013L283.74 42.972H286.229L280.126 49.1424H279.956L277.638 51.2902ZM275.763 56.0629V38.6084H277.774V56.0629H275.763ZM284.081 56.0629L278.967 49.5856L280.399 48.1879L286.638 56.0629H284.081ZM293.767 56.3356C292.506 56.3356 291.418 56.0572 290.503 55.5004C289.594 54.9379 288.892 54.1538 288.398 53.1481C287.909 52.1368 287.665 50.9606 287.665 49.6197C287.665 48.2788 287.909 47.097 288.398 46.0743C288.892 45.0459 289.58 44.2447 290.46 43.6709C291.347 43.0913 292.381 42.8015 293.562 42.8015C294.244 42.8015 294.918 42.9152 295.582 43.1424C296.247 43.3697 296.852 43.739 297.398 44.2504C297.943 44.7561 298.378 45.4265 298.702 46.2618C299.026 47.097 299.188 48.1254 299.188 49.347V50.1993H289.097V48.4606H297.142C297.142 47.722 296.994 47.0629 296.699 46.4834C296.409 45.9038 295.994 45.4464 295.455 45.1112C294.92 44.776 294.29 44.6084 293.562 44.6084C292.761 44.6084 292.068 44.8072 291.483 45.2049C290.903 45.597 290.457 46.1084 290.145 46.739C289.832 47.3697 289.676 48.0459 289.676 48.7674V49.9265C289.676 50.9152 289.847 51.7532 290.188 52.4407C290.534 53.1226 291.014 53.6424 291.628 54.0004C292.241 54.3527 292.955 54.5288 293.767 54.5288C294.295 54.5288 294.773 54.4549 295.199 54.3072C295.631 54.1538 296.003 53.9265 296.315 53.6254C296.628 53.3186 296.869 52.9379 297.04 52.4834L298.983 53.0288C298.778 53.6879 298.435 54.2674 297.952 54.7674C297.469 55.2618 296.872 55.6481 296.162 55.9265C295.452 56.1993 294.653 56.3356 293.767 56.3356ZM311.52 45.9038L309.713 46.4152C309.599 46.114 309.432 45.8214 309.21 45.5373C308.994 45.2476 308.699 45.0089 308.324 44.8214C307.949 44.6339 307.469 44.5402 306.884 44.5402C306.082 44.5402 305.415 44.7248 304.881 45.0942C304.352 45.4578 304.088 45.9209 304.088 46.4834C304.088 46.9834 304.27 47.3782 304.634 47.668C304.997 47.9578 305.565 48.1993 306.338 48.3924L308.281 48.8697C309.452 49.1538 310.324 49.5885 310.898 50.1737C311.472 50.7532 311.759 51.5004 311.759 52.4152C311.759 53.1652 311.543 53.8356 311.111 54.4265C310.685 55.0174 310.088 55.4834 309.321 55.8243C308.554 56.1652 307.662 56.3356 306.645 56.3356C305.31 56.3356 304.205 56.0459 303.33 55.4663C302.455 54.8868 301.901 54.0402 301.668 52.9265L303.577 52.4493C303.759 53.1538 304.102 53.6822 304.608 54.0345C305.119 54.3868 305.787 54.5629 306.611 54.5629C307.548 54.5629 308.293 54.364 308.844 53.9663C309.401 53.5629 309.679 53.0799 309.679 52.5174C309.679 52.0629 309.52 51.6822 309.202 51.3754C308.884 51.0629 308.395 50.8299 307.736 50.6765L305.554 50.1652C304.355 49.8811 303.474 49.4407 302.912 48.8442C302.355 48.2419 302.077 47.489 302.077 46.5856C302.077 45.847 302.284 45.1936 302.699 44.6254C303.119 44.0572 303.69 43.6112 304.412 43.2873C305.139 42.9635 305.963 42.8015 306.884 42.8015C308.179 42.8015 309.196 43.0856 309.935 43.6538C310.679 44.222 311.207 44.972 311.52 45.9038ZM125.773 83.6765V82.4265H134.5V83.6765H130.841V94.0629H129.432V83.6765H125.773ZM138.773 94.2447C137.985 94.2447 137.294 94.0572 136.699 93.6822C136.108 93.3072 135.646 92.7826 135.312 92.1084C134.983 91.4341 134.818 90.6462 134.818 89.7447C134.818 88.8356 134.983 88.0421 135.312 87.364C135.646 86.686 136.108 86.1595 136.699 85.7845C137.294 85.4095 137.985 85.222 138.773 85.222C139.561 85.222 140.25 85.4095 140.841 85.7845C141.436 86.1595 141.898 86.686 142.227 87.364C142.561 88.0421 142.727 88.8356 142.727 89.7447C142.727 90.6462 142.561 91.4341 142.227 92.1084C141.898 92.7826 141.436 93.3072 140.841 93.6822C140.25 94.0572 139.561 94.2447 138.773 94.2447ZM138.773 93.0402C139.371 93.0402 139.864 92.8868 140.25 92.5799C140.636 92.2731 140.922 91.8697 141.108 91.3697C141.294 90.8697 141.386 90.3281 141.386 89.7447C141.386 89.1614 141.294 88.6178 141.108 88.114C140.922 87.6102 140.636 87.2031 140.25 86.8924C139.864 86.5818 139.371 86.4265 138.773 86.4265C138.174 86.4265 137.682 86.5818 137.295 86.8924C136.909 87.2031 136.623 87.6102 136.438 88.114C136.252 88.6178 136.159 89.1614 136.159 89.7447C136.159 90.3281 136.252 90.8697 136.438 91.3697C136.623 91.8697 136.909 92.2731 137.295 92.5799C137.682 92.8868 138.174 93.0402 138.773 93.0402ZM152.933 94.2447C152.092 94.2447 151.367 94.0591 150.757 93.6879C150.151 93.3129 149.683 92.7902 149.354 92.1197C149.028 91.4455 148.865 90.6614 148.865 89.7674C148.865 88.8735 149.028 88.0856 149.354 87.4038C149.683 86.7182 150.142 86.1841 150.729 85.8015C151.32 85.4152 152.009 85.222 152.797 85.222C153.251 85.222 153.7 85.2977 154.143 85.4493C154.587 85.6008 154.99 85.847 155.354 86.1879C155.717 86.525 156.007 86.972 156.223 87.5288C156.439 88.0856 156.547 88.7712 156.547 89.5856V90.1538H149.82V88.9947H155.183C155.183 88.5023 155.085 88.0629 154.888 87.6765C154.695 87.2902 154.418 86.9852 154.058 86.7618C153.702 86.5383 153.282 86.4265 152.797 86.4265C152.263 86.4265 151.801 86.5591 151.411 86.8243C151.024 87.0856 150.727 87.4265 150.518 87.847C150.31 88.2674 150.206 88.7182 150.206 89.1993V89.972C150.206 90.6311 150.32 91.1898 150.547 91.6481C150.778 92.1027 151.098 92.4493 151.507 92.6879C151.916 92.9227 152.392 93.0402 152.933 93.0402C153.286 93.0402 153.604 92.9909 153.888 92.8924C154.176 92.7902 154.424 92.6387 154.632 92.4379C154.84 92.2334 155.001 91.9796 155.115 91.6765L156.411 92.0402C156.274 92.4796 156.045 92.8659 155.723 93.1993C155.401 93.5288 155.003 93.7864 154.53 93.972C154.056 94.1538 153.524 94.2447 152.933 94.2447ZM158.587 94.0629V85.3356H159.882V86.6538H159.973C160.132 86.222 160.42 85.8716 160.837 85.6027C161.253 85.3337 161.723 85.1993 162.246 85.1993C162.344 85.1993 162.467 85.2012 162.615 85.2049C162.763 85.2087 162.875 85.2144 162.95 85.222V86.5856C162.905 86.5743 162.801 86.5572 162.638 86.5345C162.479 86.508 162.31 86.4947 162.132 86.4947C161.708 86.4947 161.329 86.5837 160.996 86.7618C160.666 86.936 160.405 87.1784 160.212 87.489C160.022 87.7959 159.928 88.1462 159.928 88.5402V94.0629H158.587ZM164.54 94.0629V85.3356H165.835V86.6538H165.926C166.085 86.222 166.373 85.8716 166.79 85.6027C167.206 85.3337 167.676 85.1993 168.199 85.1993C168.297 85.1993 168.42 85.2012 168.568 85.2049C168.716 85.2087 168.828 85.2144 168.903 85.222V86.5856C168.858 86.5743 168.754 86.5572 168.591 86.5345C168.432 86.508 168.263 86.4947 168.085 86.4947C167.661 86.4947 167.282 86.5837 166.949 86.7618C166.619 86.936 166.358 87.1784 166.165 87.489C165.975 87.7959 165.881 88.1462 165.881 88.5402V94.0629H164.54ZM173.773 94.2447C172.985 94.2447 172.294 94.0572 171.699 93.6822C171.108 93.3072 170.646 92.7826 170.312 92.1084C169.983 91.4341 169.818 90.6462 169.818 89.7447C169.818 88.8356 169.983 88.0421 170.312 87.364C170.646 86.686 171.108 86.1595 171.699 85.7845C172.294 85.4095 172.985 85.222 173.773 85.222C174.561 85.222 175.25 85.4095 175.841 85.7845C176.436 86.1595 176.898 86.686 177.227 87.364C177.561 88.0421 177.727 88.8356 177.727 89.7447C177.727 90.6462 177.561 91.4341 177.227 92.1084C176.898 92.7826 176.436 93.3072 175.841 93.6822C175.25 94.0572 174.561 94.2447 173.773 94.2447ZM173.773 93.0402C174.371 93.0402 174.864 92.8868 175.25 92.5799C175.636 92.2731 175.922 91.8697 176.108 91.3697C176.294 90.8697 176.386 90.3281 176.386 89.7447C176.386 89.1614 176.294 88.6178 176.108 88.114C175.922 87.6102 175.636 87.2031 175.25 86.8924C174.864 86.5818 174.371 86.4265 173.773 86.4265C173.174 86.4265 172.682 86.5818 172.295 86.8924C171.909 87.2031 171.623 87.6102 171.438 88.114C171.252 88.6178 171.159 89.1614 171.159 89.7447C171.159 90.3281 171.252 90.8697 171.438 91.3697C171.623 91.8697 171.909 92.2731 172.295 92.5799C172.682 92.8868 173.174 93.0402 173.773 93.0402ZM179.774 94.0629V85.3356H181.07V86.6538H181.161C181.32 86.222 181.607 85.8716 182.024 85.6027C182.441 85.3337 182.911 85.1993 183.433 85.1993C183.532 85.1993 183.655 85.2012 183.803 85.2049C183.95 85.2087 184.062 85.2144 184.138 85.222V86.5856C184.092 86.5743 183.988 86.5572 183.825 86.5345C183.666 86.508 183.498 86.4947 183.32 86.4947C182.895 86.4947 182.517 86.5837 182.183 86.7618C181.854 86.936 181.592 87.1784 181.399 87.489C181.21 87.7959 181.115 88.1462 181.115 88.5402V94.0629H179.774ZM190.227 94.0629V85.3356H191.568V94.0629H190.227ZM190.909 83.8811C190.648 83.8811 190.422 83.7921 190.233 83.614C190.047 83.436 189.955 83.222 189.955 82.972C189.955 82.722 190.047 82.508 190.233 82.3299C190.422 82.1519 190.648 82.0629 190.909 82.0629C191.17 82.0629 191.394 82.1519 191.58 82.3299C191.769 82.508 191.864 82.722 191.864 82.972C191.864 83.222 191.769 83.436 191.58 83.614C191.394 83.7921 191.17 83.8811 190.909 83.8811ZM200.206 87.2902L199.001 87.6311C198.926 87.4303 198.814 87.2352 198.666 87.0459C198.522 86.8527 198.325 86.6936 198.075 86.5686C197.825 86.4436 197.505 86.3811 197.115 86.3811C196.581 86.3811 196.136 86.5042 195.78 86.7504C195.428 86.9928 195.251 87.3015 195.251 87.6765C195.251 88.0099 195.373 88.2731 195.615 88.4663C195.857 88.6595 196.236 88.8205 196.751 88.9493L198.047 89.2674C198.827 89.4568 199.409 89.7466 199.791 90.1368C200.174 90.5231 200.365 91.0212 200.365 91.6311C200.365 92.1311 200.221 92.5781 199.933 92.972C199.649 93.3659 199.251 93.6765 198.74 93.9038C198.229 94.1311 197.634 94.2447 196.956 94.2447C196.066 94.2447 195.329 94.0515 194.746 93.6652C194.162 93.2788 193.793 92.7144 193.638 91.972L194.911 91.6538C195.032 92.1235 195.261 92.4758 195.598 92.7106C195.939 92.9455 196.384 93.0629 196.933 93.0629C197.558 93.0629 198.054 92.9303 198.422 92.6652C198.793 92.3962 198.979 92.0743 198.979 91.6993C198.979 91.3962 198.873 91.1424 198.661 90.9379C198.448 90.7296 198.123 90.5743 197.683 90.472L196.229 90.1311C195.429 89.9417 194.842 89.6481 194.467 89.2504C194.096 88.8489 193.911 88.347 193.911 87.7447C193.911 87.2523 194.049 86.8167 194.325 86.4379C194.606 86.0591 194.986 85.7618 195.467 85.5459C195.952 85.3299 196.501 85.222 197.115 85.222C197.979 85.222 198.657 85.4114 199.149 85.7902C199.645 86.169 199.998 86.669 200.206 87.2902ZM206.884 97.3356V85.3356H208.179V86.722H208.338C208.437 86.5705 208.573 86.3773 208.747 86.1424C208.925 85.9038 209.179 85.6917 209.509 85.5061C209.842 85.3167 210.293 85.222 210.861 85.222C211.596 85.222 212.243 85.4057 212.804 85.7731C213.365 86.1406 213.802 86.6614 214.116 87.3356C214.431 88.0099 214.588 88.8053 214.588 89.722C214.588 90.6462 214.431 91.4474 214.116 92.1254C213.802 92.7996 213.366 93.3224 212.81 93.6936C212.253 94.061 211.611 94.2447 210.884 94.2447C210.323 94.2447 209.874 94.1519 209.537 93.9663C209.2 93.7769 208.94 93.5629 208.759 93.3243C208.577 93.0818 208.437 92.8811 208.338 92.722H208.224V97.3356H206.884ZM208.202 89.6993C208.202 90.3584 208.298 90.9398 208.491 91.4436C208.685 91.9436 208.967 92.3356 209.338 92.6197C209.709 92.9 210.164 93.0402 210.702 93.0402C211.262 93.0402 211.73 92.8924 212.105 92.597C212.484 92.2977 212.768 91.8962 212.957 91.3924C213.151 90.8849 213.247 90.3205 213.247 89.6993C213.247 89.0856 213.152 88.5326 212.963 88.0402C212.777 87.544 212.495 87.1519 212.116 86.864C211.741 86.5724 211.27 86.4265 210.702 86.4265C210.156 86.4265 209.698 86.5648 209.327 86.8413C208.955 87.114 208.675 87.4966 208.486 87.989C208.296 88.4777 208.202 89.0477 208.202 89.6993ZM216.634 94.0629V85.3356H217.929V86.6538H218.02C218.179 86.222 218.467 85.8716 218.884 85.6027C219.3 85.3337 219.77 85.1993 220.293 85.1993C220.391 85.1993 220.514 85.2012 220.662 85.2049C220.81 85.2087 220.921 85.2144 220.997 85.222V86.5856C220.952 86.5743 220.848 86.5572 220.685 86.5345C220.526 86.508 220.357 86.4947 220.179 86.4947C219.755 86.4947 219.376 86.5837 219.043 86.7618C218.713 86.936 218.452 87.1784 218.259 87.489C218.069 87.7959 217.974 88.1462 217.974 88.5402V94.0629H216.634ZM225.866 94.2447C225.079 94.2447 224.387 94.0572 223.793 93.6822C223.202 93.3072 222.74 92.7826 222.406 92.1084C222.077 91.4341 221.912 90.6462 221.912 89.7447C221.912 88.8356 222.077 88.0421 222.406 87.364C222.74 86.686 223.202 86.1595 223.793 85.7845C224.387 85.4095 225.079 85.222 225.866 85.222C226.654 85.222 227.344 85.4095 227.935 85.7845C228.529 86.1595 228.991 86.686 229.321 87.364C229.654 88.0421 229.821 88.8356 229.821 89.7447C229.821 90.6462 229.654 91.4341 229.321 92.1084C228.991 92.7826 228.529 93.3072 227.935 93.6822C227.344 94.0572 226.654 94.2447 225.866 94.2447ZM225.866 93.0402C226.465 93.0402 226.957 92.8868 227.344 92.5799C227.73 92.2731 228.016 91.8697 228.202 91.3697C228.387 90.8697 228.48 90.3281 228.48 89.7447C228.48 89.1614 228.387 88.6178 228.202 88.114C228.016 87.6102 227.73 87.2031 227.344 86.8924C226.957 86.5818 226.465 86.4265 225.866 86.4265C225.268 86.4265 224.776 86.5818 224.389 86.8924C224.003 87.2031 223.717 87.6102 223.531 88.114C223.346 88.6178 223.253 89.1614 223.253 89.7447C223.253 90.3281 223.346 90.8697 223.531 91.3697C223.717 91.8697 224.003 92.2731 224.389 92.5799C224.776 92.8868 225.268 93.0402 225.866 93.0402ZM235.413 94.2447C234.625 94.2447 233.934 94.0572 233.339 93.6822C232.749 93.3072 232.286 92.7826 231.953 92.1084C231.624 91.4341 231.459 90.6462 231.459 89.7447C231.459 88.8356 231.624 88.0421 231.953 87.364C232.286 86.686 232.749 86.1595 233.339 85.7845C233.934 85.4095 234.625 85.222 235.413 85.222C236.201 85.222 236.891 85.4095 237.482 85.7845C238.076 86.1595 238.538 86.686 238.868 87.364C239.201 88.0421 239.368 88.8356 239.368 89.7447C239.368 90.6462 239.201 91.4341 238.868 92.1084C238.538 92.7826 238.076 93.3072 237.482 93.6822C236.891 94.0572 236.201 94.2447 235.413 94.2447ZM235.413 93.0402C236.012 93.0402 236.504 92.8868 236.891 92.5799C237.277 92.2731 237.563 91.8697 237.749 91.3697C237.934 90.8697 238.027 90.3281 238.027 89.7447C238.027 89.1614 237.934 88.6178 237.749 88.114C237.563 87.6102 237.277 87.2031 236.891 86.8924C236.504 86.5818 236.012 86.4265 235.413 86.4265C234.815 86.4265 234.322 86.5818 233.936 86.8924C233.55 87.2031 233.264 87.6102 233.078 88.114C232.893 88.6178 232.8 89.1614 232.8 89.7447C232.8 90.3281 232.893 90.8697 233.078 91.3697C233.264 91.8697 233.55 92.2731 233.936 92.5799C234.322 92.8868 234.815 93.0402 235.413 93.0402ZM245.301 85.3356V86.472H240.597V85.3356H245.301ZM242.006 94.0629V84.1311C242.006 83.6311 242.123 83.2144 242.358 82.8811C242.593 82.5477 242.898 82.2977 243.273 82.1311C243.648 81.9644 244.044 81.8811 244.46 81.8811C244.79 81.8811 245.059 81.9076 245.267 81.9606C245.475 82.0137 245.631 82.0629 245.733 82.1084L245.347 83.2674C245.278 83.2447 245.184 83.2163 245.062 83.1822C244.945 83.1481 244.79 83.1311 244.597 83.1311C244.153 83.1311 243.833 83.2428 243.636 83.4663C243.443 83.6898 243.347 84.0174 243.347 84.4493V94.0629H242.006ZM255.226 94.2447C254.438 94.2447 253.747 94.0572 253.152 93.6822C252.561 93.3072 252.099 92.7826 251.766 92.1084C251.436 91.4341 251.271 90.6462 251.271 89.7447C251.271 88.8356 251.436 88.0421 251.766 87.364C252.099 86.686 252.561 86.1595 253.152 85.7845C253.747 85.4095 254.438 85.222 255.226 85.222C256.014 85.222 256.703 85.4095 257.294 85.7845C257.889 86.1595 258.351 86.686 258.68 87.364C259.014 88.0421 259.18 88.8356 259.18 89.7447C259.18 90.6462 259.014 91.4341 258.68 92.1084C258.351 92.7826 257.889 93.3072 257.294 93.6822C256.703 94.0572 256.014 94.2447 255.226 94.2447ZM255.226 93.0402C255.824 93.0402 256.317 92.8868 256.703 92.5799C257.089 92.2731 257.375 91.8697 257.561 91.3697C257.747 90.8697 257.839 90.3281 257.839 89.7447C257.839 89.1614 257.747 88.6178 257.561 88.114C257.375 87.6102 257.089 87.2031 256.703 86.8924C256.317 86.5818 255.824 86.4265 255.226 86.4265C254.627 86.4265 254.135 86.5818 253.749 86.8924C253.362 87.2031 253.076 87.6102 252.891 88.114C252.705 88.6178 252.612 89.1614 252.612 89.7447C252.612 90.3281 252.705 90.8697 252.891 91.3697C253.076 91.8697 253.362 92.2731 253.749 92.5799C254.135 92.8868 254.627 93.0402 255.226 93.0402ZM265.114 85.3356V86.472H260.409V85.3356H265.114ZM261.818 94.0629V84.1311C261.818 83.6311 261.936 83.2144 262.17 82.8811C262.405 82.5477 262.71 82.2977 263.085 82.1311C263.46 81.9644 263.856 81.8811 264.273 81.8811C264.602 81.8811 264.871 81.9076 265.08 81.9606C265.288 82.0137 265.443 82.0629 265.545 82.1084L265.159 83.2674C265.091 83.2447 264.996 83.2163 264.875 83.1822C264.758 83.1481 264.602 83.1311 264.409 83.1311C263.966 83.1311 263.646 83.2428 263.449 83.4663C263.256 83.6898 263.159 84.0174 263.159 84.4493V94.0629H261.818ZM272.834 88.8129V94.0629H271.493V82.4265H272.834V86.6993H272.947C273.152 86.2485 273.459 85.8906 273.868 85.6254C274.281 85.3565 274.83 85.222 275.516 85.222C276.11 85.222 276.631 85.3413 277.078 85.5799C277.525 85.8148 277.872 86.1765 278.118 86.6652C278.368 87.15 278.493 87.7674 278.493 88.5174V94.0629H277.152V88.6084C277.152 87.9152 276.972 87.3792 276.612 87.0004C276.256 86.6178 275.762 86.4265 275.129 86.4265C274.69 86.4265 274.296 86.5193 273.947 86.7049C273.603 86.8906 273.33 87.1614 273.129 87.5174C272.932 87.8735 272.834 88.3053 272.834 88.8129ZM286.446 90.4947V85.3356H287.787V94.0629H286.446V92.5856H286.355C286.151 93.0288 285.832 93.4057 285.401 93.7163C284.969 94.0231 284.423 94.1765 283.764 94.1765C283.219 94.1765 282.734 94.0572 282.31 93.8186C281.885 93.5762 281.552 93.2125 281.31 92.7277C281.067 92.239 280.946 91.6235 280.946 90.8811V85.3356H282.287V90.7902C282.287 91.4265 282.465 91.9341 282.821 92.3129C283.181 92.6917 283.639 92.8811 284.196 92.8811C284.529 92.8811 284.868 92.7959 285.213 92.6254C285.562 92.4549 285.853 92.1936 286.088 91.8413C286.327 91.489 286.446 91.0402 286.446 90.4947ZM290.243 94.0629V85.3356H291.538V86.6993H291.652C291.834 86.2334 292.127 85.8716 292.533 85.614C292.938 85.3527 293.425 85.222 293.993 85.222C294.569 85.222 295.048 85.3527 295.43 85.614C295.817 85.8716 296.118 86.2334 296.334 86.6993H296.425C296.648 86.2485 296.983 85.8906 297.43 85.6254C297.877 85.3565 298.413 85.222 299.038 85.222C299.819 85.222 300.457 85.4663 300.953 85.9549C301.449 86.4398 301.697 87.1955 301.697 88.222V94.0629H300.357V88.222C300.357 87.5781 300.18 87.1178 299.828 86.8413C299.476 86.5648 299.061 86.4265 298.584 86.4265C297.97 86.4265 297.495 86.6121 297.158 86.9834C296.821 87.3508 296.652 87.8167 296.652 88.3811V94.0629H295.288V88.0856C295.288 87.5894 295.127 87.1898 294.805 86.8868C294.483 86.5799 294.069 86.4265 293.561 86.4265C293.213 86.4265 292.887 86.5193 292.584 86.7049C292.285 86.8906 292.042 87.1481 291.857 87.4777C291.675 87.8034 291.584 88.1803 291.584 88.6084V94.0629H290.243ZM306.717 94.2674C306.164 94.2674 305.662 94.1633 305.212 93.9549C304.761 93.7428 304.403 93.4379 304.138 93.0402C303.873 92.6387 303.74 92.1538 303.74 91.5856C303.74 91.0856 303.839 90.6803 304.036 90.3697C304.232 90.0553 304.496 89.8091 304.825 89.6311C305.155 89.4531 305.518 89.3205 305.916 89.2334C306.318 89.1424 306.721 89.0705 307.126 89.0174C307.657 88.9493 308.087 88.8981 308.416 88.864C308.75 88.8262 308.992 88.7637 309.143 88.6765C309.299 88.5894 309.376 88.4379 309.376 88.222V88.1765C309.376 87.6159 309.223 87.1803 308.916 86.8697C308.613 86.5591 308.153 86.4038 307.536 86.4038C306.895 86.4038 306.393 86.544 306.03 86.8243C305.666 87.1046 305.411 87.4038 305.263 87.722L303.99 87.2674C304.217 86.7371 304.52 86.3243 304.899 86.0288C305.282 85.7296 305.698 85.5212 306.149 85.4038C306.604 85.2826 307.051 85.222 307.49 85.222C307.77 85.222 308.092 85.2561 308.456 85.3243C308.823 85.3887 309.178 85.5231 309.518 85.7277C309.863 85.9322 310.149 86.2409 310.376 86.6538C310.604 87.0667 310.717 87.6197 310.717 88.3129V94.0629H309.376V92.8811H309.308C309.217 93.0705 309.066 93.2731 308.854 93.489C308.642 93.7049 308.359 93.8887 308.007 94.0402C307.655 94.1917 307.225 94.2674 306.717 94.2674ZM306.922 93.0629C307.452 93.0629 307.899 92.9587 308.263 92.7504C308.63 92.5421 308.907 92.2731 309.092 91.9436C309.282 91.614 309.376 91.2674 309.376 90.9038V89.6765C309.32 89.7447 309.195 89.8072 309.001 89.864C308.812 89.9171 308.592 89.9644 308.342 90.0061C308.096 90.044 307.856 90.0781 307.621 90.1084C307.39 90.1349 307.202 90.1576 307.058 90.1765C306.71 90.222 306.384 90.2959 306.081 90.3981C305.782 90.4966 305.539 90.6462 305.354 90.847C305.172 91.044 305.081 91.3129 305.081 91.6538C305.081 92.1197 305.253 92.472 305.598 92.7106C305.946 92.9455 306.388 93.0629 306.922 93.0629ZM314.506 88.8129V94.0629H313.165V85.3356H314.46V86.6993H314.574C314.778 86.2561 315.089 85.9 315.506 85.6311C315.922 85.3584 316.46 85.222 317.119 85.222C317.71 85.222 318.227 85.3432 318.67 85.5856C319.114 85.8243 319.458 86.1879 319.705 86.6765C319.951 87.1614 320.074 87.775 320.074 88.5174V94.0629H318.733V88.6084C318.733 87.9227 318.555 87.3887 318.199 87.0061C317.843 86.6197 317.354 86.4265 316.733 86.4265C316.305 86.4265 315.922 86.5193 315.585 86.7049C315.252 86.8906 314.989 87.1614 314.795 87.5174C314.602 87.8735 314.506 88.3053 314.506 88.8129ZM322.524 94.0629V85.3356H323.865V94.0629H322.524ZM323.206 83.8811C322.945 83.8811 322.719 83.7921 322.53 83.614C322.344 83.436 322.251 83.222 322.251 82.972C322.251 82.722 322.344 82.508 322.53 82.3299C322.719 82.1519 322.945 82.0629 323.206 82.0629C323.467 82.0629 323.691 82.1519 323.876 82.3299C324.066 82.508 324.161 82.722 324.161 82.972C324.161 83.222 324.066 83.436 323.876 83.614C323.691 83.7921 323.467 83.8811 323.206 83.8811ZM330.116 85.3356V86.472H325.594V85.3356H330.116ZM326.912 83.2447H328.253V91.5629C328.253 91.9417 328.308 92.2258 328.418 92.4152C328.531 92.6008 328.675 92.7258 328.849 92.7902C329.027 92.8508 329.215 92.8811 329.412 92.8811C329.56 92.8811 329.681 92.8735 329.776 92.8584C329.87 92.8394 329.946 92.8243 330.003 92.8129L330.276 94.0174C330.185 94.0515 330.058 94.0856 329.895 94.1197C329.732 94.1576 329.526 94.1765 329.276 94.1765C328.897 94.1765 328.526 94.0951 328.162 93.9322C327.802 93.7693 327.503 93.5212 327.264 93.1879C327.029 92.8546 326.912 92.4341 326.912 91.9265V83.2447ZM332.997 97.3356C332.77 97.3356 332.567 97.3167 332.389 97.2788C332.211 97.2447 332.088 97.2106 332.02 97.1765L332.361 95.9947C332.687 96.0781 332.974 96.1084 333.224 96.0856C333.474 96.0629 333.696 95.9512 333.889 95.7504C334.086 95.5534 334.266 95.2334 334.429 94.7902L334.679 94.1084L331.452 85.3356H332.906L335.315 92.2902H335.406L337.815 85.3356H339.27L335.565 95.3356C335.399 95.7864 335.192 96.1595 334.946 96.4549C334.7 96.7542 334.414 96.9758 334.088 97.1197C333.766 97.2637 333.402 97.3356 332.997 97.3356ZM341.47 94.1538C341.19 94.1538 340.949 94.0534 340.749 93.8527C340.548 93.6519 340.447 93.4114 340.447 93.1311C340.447 92.8508 340.548 92.6102 340.749 92.4095C340.949 92.2087 341.19 92.1084 341.47 92.1084C341.75 92.1084 341.991 92.2087 342.192 92.4095C342.393 92.6102 342.493 92.8508 342.493 93.1311C342.493 93.3167 342.446 93.4871 342.351 93.6424C342.26 93.7977 342.137 93.9227 341.982 94.0174C341.83 94.1084 341.66 94.1538 341.47 94.1538ZM348.945 83.6765V82.4265H357.672V83.6765H354.013V94.0629H352.604V83.6765H348.945ZM361.945 94.2447C361.157 94.2447 360.465 94.0572 359.871 93.6822C359.28 93.3072 358.818 92.7826 358.484 92.1084C358.155 91.4341 357.99 90.6462 357.99 89.7447C357.99 88.8356 358.155 88.0421 358.484 87.364C358.818 86.686 359.28 86.1595 359.871 85.7845C360.465 85.4095 361.157 85.222 361.945 85.222C362.732 85.222 363.422 85.4095 364.013 85.7845C364.607 86.1595 365.07 86.686 365.399 87.364C365.732 88.0421 365.899 88.8356 365.899 89.7447C365.899 90.6462 365.732 91.4341 365.399 92.1084C365.07 92.7826 364.607 93.3072 364.013 93.6822C363.422 94.0572 362.732 94.2447 361.945 94.2447ZM361.945 93.0402C362.543 93.0402 363.036 92.8868 363.422 92.5799C363.808 92.2731 364.094 91.8697 364.28 91.3697C364.465 90.8697 364.558 90.3281 364.558 89.7447C364.558 89.1614 364.465 88.6178 364.28 88.114C364.094 87.6102 363.808 87.2031 363.422 86.8924C363.036 86.5818 362.543 86.4265 361.945 86.4265C361.346 86.4265 360.854 86.5818 360.467 86.8924C360.081 87.2031 359.795 87.6102 359.609 88.114C359.424 88.6178 359.331 89.1614 359.331 89.7447C359.331 90.3281 359.424 90.8697 359.609 91.3697C359.795 91.8697 360.081 92.2731 360.467 92.5799C360.854 92.8868 361.346 93.0402 361.945 93.0402ZM376.105 94.2447C375.264 94.2447 374.539 94.0591 373.929 93.6879C373.323 93.3129 372.855 92.7902 372.526 92.1197C372.2 91.4455 372.037 90.6614 372.037 89.7674C372.037 88.8735 372.2 88.0856 372.526 87.4038C372.855 86.7182 373.313 86.1841 373.901 85.8015C374.491 85.4152 375.181 85.222 375.969 85.222C376.423 85.222 376.872 85.2977 377.315 85.4493C377.759 85.6008 378.162 85.847 378.526 86.1879C378.889 86.525 379.179 86.972 379.395 87.5288C379.611 88.0856 379.719 88.7712 379.719 89.5856V90.1538H372.991V88.9947H378.355C378.355 88.5023 378.257 88.0629 378.06 87.6765C377.866 87.2902 377.59 86.9852 377.23 86.7618C376.874 86.5383 376.454 86.4265 375.969 86.4265C375.435 86.4265 374.973 86.5591 374.582 86.8243C374.196 87.0856 373.899 87.4265 373.69 87.847C373.482 88.2674 373.378 88.7182 373.378 89.1993V89.972C373.378 90.6311 373.491 91.1898 373.719 91.6481C373.95 92.1027 374.27 92.4493 374.679 92.6879C375.088 92.9227 375.563 93.0402 376.105 93.0402C376.457 93.0402 376.776 92.9909 377.06 92.8924C377.348 92.7902 377.596 92.6387 377.804 92.4379C378.012 92.2334 378.173 91.9796 378.287 91.6765L379.582 92.0402C379.446 92.4796 379.217 92.8659 378.895 93.1993C378.573 93.5288 378.175 93.7864 377.702 93.972C377.228 94.1538 376.696 94.2447 376.105 94.2447ZM381.759 94.0629V85.3356H383.054V86.6538H383.145C383.304 86.222 383.592 85.8716 384.009 85.6027C384.425 85.3337 384.895 85.1993 385.418 85.1993C385.516 85.1993 385.639 85.2012 385.787 85.2049C385.935 85.2087 386.046 85.2144 386.122 85.222V86.5856C386.077 86.5743 385.973 86.5572 385.81 86.5345C385.651 86.508 385.482 86.4947 385.304 86.4947C384.88 86.4947 384.501 86.5837 384.168 86.7618C383.838 86.936 383.577 87.1784 383.384 87.489C383.194 87.7959 383.099 88.1462 383.099 88.5402V94.0629H381.759ZM387.712 94.0629V85.3356H389.007V86.6538H389.098C389.257 86.222 389.545 85.8716 389.962 85.6027C390.378 85.3337 390.848 85.1993 391.371 85.1993C391.469 85.1993 391.592 85.2012 391.74 85.2049C391.888 85.2087 392 85.2144 392.075 85.222V86.5856C392.03 86.5743 391.926 86.5572 391.763 86.5345C391.604 86.508 391.435 86.4947 391.257 86.4947C390.833 86.4947 390.454 86.5837 390.121 86.7618C389.791 86.936 389.53 87.1784 389.337 87.489C389.147 87.7959 389.053 88.1462 389.053 88.5402V94.0629H387.712ZM396.945 94.2447C396.157 94.2447 395.465 94.0572 394.871 93.6822C394.28 93.3072 393.818 92.7826 393.484 92.1084C393.155 91.4341 392.99 90.6462 392.99 89.7447C392.99 88.8356 393.155 88.0421 393.484 87.364C393.818 86.686 394.28 86.1595 394.871 85.7845C395.465 85.4095 396.157 85.222 396.945 85.222C397.732 85.222 398.422 85.4095 399.013 85.7845C399.607 86.1595 400.07 86.686 400.399 87.364C400.732 88.0421 400.899 88.8356 400.899 89.7447C400.899 90.6462 400.732 91.4341 400.399 92.1084C400.07 92.7826 399.607 93.3072 399.013 93.6822C398.422 94.0572 397.732 94.2447 396.945 94.2447ZM396.945 93.0402C397.543 93.0402 398.036 92.8868 398.422 92.5799C398.808 92.2731 399.094 91.8697 399.28 91.3697C399.465 90.8697 399.558 90.3281 399.558 89.7447C399.558 89.1614 399.465 88.6178 399.28 88.114C399.094 87.6102 398.808 87.2031 398.422 86.8924C398.036 86.5818 397.543 86.4265 396.945 86.4265C396.346 86.4265 395.854 86.5818 395.467 86.8924C395.081 87.2031 394.795 87.6102 394.609 88.114C394.424 88.6178 394.331 89.1614 394.331 89.7447C394.331 90.3281 394.424 90.8697 394.609 91.3697C394.795 91.8697 395.081 92.2731 395.467 92.5799C395.854 92.8868 396.346 93.0402 396.945 93.0402ZM402.946 94.0629V85.3356H404.241V86.6538H404.332C404.491 86.222 404.779 85.8716 405.196 85.6027C405.613 85.3337 406.082 85.1993 406.605 85.1993C406.704 85.1993 406.827 85.2012 406.974 85.2049C407.122 85.2087 407.234 85.2144 407.31 85.222V86.5856C407.264 86.5743 407.16 86.5572 406.997 86.5345C406.838 86.508 406.67 86.4947 406.491 86.4947C406.067 86.4947 405.688 86.5837 405.355 86.7618C405.026 86.936 404.764 87.1784 404.571 87.489C404.382 87.7959 404.287 88.1462 404.287 88.5402V94.0629H402.946ZM413.399 94.0629V85.3356H414.74V94.0629H413.399ZM414.081 83.8811C413.82 83.8811 413.594 83.7921 413.405 83.614C413.219 83.436 413.126 83.222 413.126 82.972C413.126 82.722 413.219 82.508 413.405 82.3299C413.594 82.1519 413.82 82.0629 414.081 82.0629C414.342 82.0629 414.566 82.1519 414.751 82.3299C414.941 82.508 415.036 82.722 415.036 82.972C415.036 83.222 414.941 83.436 414.751 83.614C414.566 83.7921 414.342 83.8811 414.081 83.8811ZM423.378 87.2902L422.173 87.6311C422.098 87.4303 421.986 87.2352 421.838 87.0459C421.694 86.8527 421.497 86.6936 421.247 86.5686C420.997 86.4436 420.677 86.3811 420.287 86.3811C419.753 86.3811 419.308 86.5042 418.952 86.7504C418.599 86.9928 418.423 87.3015 418.423 87.6765C418.423 88.0099 418.545 88.2731 418.787 88.4663C419.029 88.6595 419.408 88.8205 419.923 88.9493L421.219 89.2674C421.999 89.4568 422.58 89.7466 422.963 90.1368C423.346 90.5231 423.537 91.0212 423.537 91.6311C423.537 92.1311 423.393 92.5781 423.105 92.972C422.821 93.3659 422.423 93.6765 421.912 93.9038C421.401 94.1311 420.806 94.2447 420.128 94.2447C419.238 94.2447 418.501 94.0515 417.918 93.6652C417.334 93.2788 416.965 92.7144 416.81 91.972L418.082 91.6538C418.204 92.1235 418.433 92.4758 418.77 92.7106C419.111 92.9455 419.556 93.0629 420.105 93.0629C420.73 93.0629 421.226 92.9303 421.594 92.6652C421.965 92.3962 422.151 92.0743 422.151 91.6993C422.151 91.3962 422.045 91.1424 421.832 90.9379C421.62 90.7296 421.295 90.5743 420.855 90.472L419.401 90.1311C418.601 89.9417 418.014 89.6481 417.639 89.2504C417.268 88.8489 417.082 88.347 417.082 87.7447C417.082 87.2523 417.221 86.8167 417.497 86.4379C417.777 86.0591 418.158 85.7618 418.639 85.5459C419.124 85.3299 419.673 85.222 420.287 85.222C421.151 85.222 421.829 85.4114 422.321 85.7902C422.817 86.169 423.17 86.669 423.378 87.2902ZM128.795 113.267C128.242 113.267 127.741 113.163 127.29 112.955C126.839 112.743 126.481 112.438 126.216 112.04C125.951 111.639 125.818 111.154 125.818 110.586C125.818 110.086 125.917 109.68 126.114 109.37C126.311 109.055 126.574 108.809 126.903 108.631C127.233 108.453 127.597 108.32 127.994 108.233C128.396 108.142 128.799 108.07 129.205 108.017C129.735 107.949 130.165 107.898 130.494 107.864C130.828 107.826 131.07 107.764 131.222 107.677C131.377 107.589 131.455 107.438 131.455 107.222V107.177C131.455 106.616 131.301 106.18 130.994 105.87C130.691 105.559 130.231 105.404 129.614 105.404C128.973 105.404 128.472 105.544 128.108 105.824C127.744 106.105 127.489 106.404 127.341 106.722L126.068 106.267C126.295 105.737 126.598 105.324 126.977 105.029C127.36 104.73 127.777 104.521 128.227 104.404C128.682 104.283 129.129 104.222 129.568 104.222C129.848 104.222 130.17 104.256 130.534 104.324C130.902 104.389 131.256 104.523 131.597 104.728C131.941 104.932 132.227 105.241 132.455 105.654C132.682 106.067 132.795 106.62 132.795 107.313V113.063H131.455V111.881H131.386C131.295 112.07 131.144 112.273 130.932 112.489C130.72 112.705 130.438 112.889 130.085 113.04C129.733 113.192 129.303 113.267 128.795 113.267ZM129 112.063C129.53 112.063 129.977 111.959 130.341 111.75C130.708 111.542 130.985 111.273 131.17 110.944C131.36 110.614 131.455 110.267 131.455 109.904V108.677C131.398 108.745 131.273 108.807 131.08 108.864C130.89 108.917 130.67 108.964 130.42 109.006C130.174 109.044 129.934 109.078 129.699 109.108C129.468 109.135 129.28 109.158 129.136 109.177C128.788 109.222 128.462 109.296 128.159 109.398C127.86 109.497 127.617 109.646 127.432 109.847C127.25 110.044 127.159 110.313 127.159 110.654C127.159 111.12 127.331 111.472 127.676 111.711C128.025 111.945 128.466 112.063 129 112.063ZM136.584 107.813V113.063H135.243V104.336H136.538V105.699H136.652C136.857 105.256 137.167 104.9 137.584 104.631C138 104.358 138.538 104.222 139.197 104.222C139.788 104.222 140.305 104.343 140.749 104.586C141.192 104.824 141.536 105.188 141.783 105.677C142.029 106.161 142.152 106.775 142.152 107.517V113.063H140.811V107.608C140.811 106.923 140.633 106.389 140.277 106.006C139.921 105.62 139.432 105.427 138.811 105.427C138.383 105.427 138 105.519 137.663 105.705C137.33 105.891 137.067 106.161 136.874 106.517C136.68 106.874 136.584 107.305 136.584 107.813ZM152.648 113.245C151.86 113.245 151.169 113.057 150.574 112.682C149.983 112.307 149.521 111.783 149.188 111.108C148.858 110.434 148.693 109.646 148.693 108.745C148.693 107.836 148.858 107.042 149.188 106.364C149.521 105.686 149.983 105.159 150.574 104.784C151.169 104.409 151.86 104.222 152.648 104.222C153.436 104.222 154.125 104.409 154.716 104.784C155.311 105.159 155.773 105.686 156.102 106.364C156.436 107.042 156.602 107.836 156.602 108.745C156.602 109.646 156.436 110.434 156.102 111.108C155.773 111.783 155.311 112.307 154.716 112.682C154.125 113.057 153.436 113.245 152.648 113.245ZM152.648 112.04C153.246 112.04 153.739 111.887 154.125 111.58C154.511 111.273 154.797 110.87 154.983 110.37C155.169 109.87 155.261 109.328 155.261 108.745C155.261 108.161 155.169 107.618 154.983 107.114C154.797 106.61 154.511 106.203 154.125 105.892C153.739 105.582 153.246 105.427 152.648 105.427C152.049 105.427 151.557 105.582 151.17 105.892C150.784 106.203 150.498 106.61 150.312 107.114C150.127 107.618 150.034 108.161 150.034 108.745C150.034 109.328 150.127 109.87 150.312 110.37C150.498 110.87 150.784 111.273 151.17 111.58C151.557 111.887 152.049 112.04 152.648 112.04ZM158.649 116.336V104.336H159.945V105.722H160.104C160.202 105.57 160.339 105.377 160.513 105.142C160.691 104.904 160.945 104.692 161.274 104.506C161.607 104.317 162.058 104.222 162.626 104.222C163.361 104.222 164.009 104.406 164.57 104.773C165.13 105.141 165.568 105.661 165.882 106.336C166.196 107.01 166.354 107.805 166.354 108.722C166.354 109.646 166.196 110.447 165.882 111.125C165.568 111.8 165.132 112.322 164.575 112.694C164.018 113.061 163.376 113.245 162.649 113.245C162.089 113.245 161.64 113.152 161.303 112.966C160.965 112.777 160.706 112.563 160.524 112.324C160.342 112.082 160.202 111.881 160.104 111.722H159.99V116.336H158.649ZM159.967 108.699C159.967 109.358 160.064 109.94 160.257 110.444C160.45 110.944 160.732 111.336 161.104 111.62C161.475 111.9 161.929 112.04 162.467 112.04C163.028 112.04 163.496 111.892 163.871 111.597C164.25 111.298 164.534 110.896 164.723 110.392C164.916 109.885 165.013 109.32 165.013 108.699C165.013 108.086 164.918 107.533 164.729 107.04C164.543 106.544 164.261 106.152 163.882 105.864C163.507 105.572 163.036 105.427 162.467 105.427C161.922 105.427 161.464 105.565 161.092 105.841C160.721 106.114 160.441 106.497 160.251 106.989C160.062 107.478 159.967 108.048 159.967 108.699ZM168.399 116.336V104.336H169.695V105.722H169.854C169.952 105.57 170.089 105.377 170.263 105.142C170.441 104.904 170.695 104.692 171.024 104.506C171.357 104.317 171.808 104.222 172.376 104.222C173.111 104.222 173.759 104.406 174.32 104.773C174.88 105.141 175.318 105.661 175.632 106.336C175.946 107.01 176.104 107.805 176.104 108.722C176.104 109.646 175.946 110.447 175.632 111.125C175.318 111.8 174.882 112.322 174.325 112.694C173.768 113.061 173.126 113.245 172.399 113.245C171.839 113.245 171.39 113.152 171.053 112.966C170.715 112.777 170.456 112.563 170.274 112.324C170.092 112.082 169.952 111.881 169.854 111.722H169.74V116.336H168.399ZM169.717 108.699C169.717 109.358 169.814 109.94 170.007 110.444C170.2 110.944 170.482 111.336 170.854 111.62C171.225 111.9 171.679 112.04 172.217 112.04C172.778 112.04 173.246 111.892 173.621 111.597C174 111.298 174.284 110.896 174.473 110.392C174.666 109.885 174.763 109.32 174.763 108.699C174.763 108.086 174.668 107.533 174.479 107.04C174.293 106.544 174.011 106.152 173.632 105.864C173.257 105.572 172.786 105.427 172.217 105.427C171.672 105.427 171.214 105.565 170.842 105.841C170.471 106.114 170.191 106.497 170.001 106.989C169.812 107.478 169.717 108.048 169.717 108.699ZM181.695 113.245C180.907 113.245 180.215 113.057 179.621 112.682C179.03 112.307 178.568 111.783 178.234 111.108C177.905 110.434 177.74 109.646 177.74 108.745C177.74 107.836 177.905 107.042 178.234 106.364C178.568 105.686 179.03 105.159 179.621 104.784C180.215 104.409 180.907 104.222 181.695 104.222C182.482 104.222 183.172 104.409 183.763 104.784C184.357 105.159 184.82 105.686 185.149 106.364C185.482 107.042 185.649 107.836 185.649 108.745C185.649 109.646 185.482 110.434 185.149 111.108C184.82 111.783 184.357 112.307 183.763 112.682C183.172 113.057 182.482 113.245 181.695 113.245ZM181.695 112.04C182.293 112.04 182.786 111.887 183.172 111.58C183.558 111.273 183.844 110.87 184.03 110.37C184.215 109.87 184.308 109.328 184.308 108.745C184.308 108.161 184.215 107.618 184.03 107.114C183.844 106.61 183.558 106.203 183.172 105.892C182.786 105.582 182.293 105.427 181.695 105.427C181.096 105.427 180.604 105.582 180.217 105.892C179.831 106.203 179.545 106.61 179.359 107.114C179.174 107.618 179.081 108.161 179.081 108.745C179.081 109.328 179.174 109.87 179.359 110.37C179.545 110.87 179.831 111.273 180.217 111.58C180.604 111.887 181.096 112.04 181.695 112.04ZM187.696 113.063V104.336H188.991V105.654H189.082C189.241 105.222 189.529 104.872 189.946 104.603C190.363 104.334 190.832 104.199 191.355 104.199C191.454 104.199 191.577 104.201 191.724 104.205C191.872 104.209 191.984 104.214 192.06 104.222V105.586C192.014 105.574 191.91 105.557 191.747 105.534C191.588 105.508 191.42 105.495 191.241 105.495C190.817 105.495 190.438 105.584 190.105 105.762C189.776 105.936 189.514 106.178 189.321 106.489C189.132 106.796 189.037 107.146 189.037 107.54V113.063H187.696ZM197.991 104.336V105.472H193.469V104.336H197.991ZM194.787 102.245H196.128V110.563C196.128 110.942 196.183 111.226 196.293 111.415C196.406 111.601 196.55 111.726 196.724 111.79C196.902 111.851 197.09 111.881 197.287 111.881C197.435 111.881 197.556 111.874 197.651 111.858C197.745 111.839 197.821 111.824 197.878 111.813L198.151 113.017C198.06 113.052 197.933 113.086 197.77 113.12C197.607 113.158 197.401 113.177 197.151 113.177C196.772 113.177 196.401 113.095 196.037 112.932C195.677 112.769 195.378 112.521 195.139 112.188C194.904 111.855 194.787 111.434 194.787 110.927V102.245ZM205.509 109.495V104.336H206.849V113.063H205.509V111.586H205.418C205.213 112.029 204.895 112.406 204.463 112.716C204.031 113.023 203.486 113.177 202.827 113.177C202.281 113.177 201.796 113.057 201.372 112.819C200.948 112.576 200.615 112.213 200.372 111.728C200.13 111.239 200.009 110.624 200.009 109.881V104.336H201.349V109.79C201.349 110.427 201.527 110.934 201.884 111.313C202.243 111.692 202.702 111.881 203.259 111.881C203.592 111.881 203.931 111.796 204.276 111.625C204.624 111.455 204.916 111.194 205.151 110.841C205.389 110.489 205.509 110.04 205.509 109.495ZM210.646 107.813V113.063H209.305V104.336H210.601V105.699H210.714C210.919 105.256 211.23 104.9 211.646 104.631C212.063 104.358 212.601 104.222 213.26 104.222C213.851 104.222 214.368 104.343 214.811 104.586C215.254 104.824 215.599 105.188 215.845 105.677C216.091 106.161 216.214 106.775 216.214 107.517V113.063H214.874V107.608C214.874 106.923 214.696 106.389 214.339 106.006C213.983 105.62 213.495 105.427 212.874 105.427C212.446 105.427 212.063 105.519 211.726 105.705C211.393 105.891 211.129 106.161 210.936 106.517C210.743 106.874 210.646 107.305 210.646 107.813ZM218.665 113.063V104.336H220.006V113.063H218.665ZM219.347 102.881C219.085 102.881 218.86 102.792 218.67 102.614C218.485 102.436 218.392 102.222 218.392 101.972C218.392 101.722 218.485 101.508 218.67 101.33C218.86 101.152 219.085 101.063 219.347 101.063C219.608 101.063 219.831 101.152 220.017 101.33C220.206 101.508 220.301 101.722 220.301 101.972C220.301 102.222 220.206 102.436 220.017 102.614C219.831 102.792 219.608 102.881 219.347 102.881ZM226.257 104.336V105.472H221.734V104.336H226.257ZM223.053 102.245H224.393V110.563C224.393 110.942 224.448 111.226 224.558 111.415C224.672 111.601 224.816 111.726 224.99 111.79C225.168 111.851 225.356 111.881 225.553 111.881C225.7 111.881 225.821 111.874 225.916 111.858C226.011 111.839 226.087 111.824 226.143 111.813L226.416 113.017C226.325 113.052 226.198 113.086 226.036 113.12C225.873 113.158 225.666 113.177 225.416 113.177C225.037 113.177 224.666 113.095 224.303 112.932C223.943 112.769 223.643 112.521 223.405 112.188C223.17 111.855 223.053 111.434 223.053 110.927V102.245ZM229.138 116.336C228.911 116.336 228.708 116.317 228.53 116.279C228.352 116.245 228.229 116.211 228.161 116.177L228.501 114.995C228.827 115.078 229.115 115.108 229.365 115.086C229.615 115.063 229.837 114.951 230.03 114.75C230.227 114.553 230.407 114.233 230.57 113.79L230.82 113.108L227.592 104.336H229.047L231.456 111.29H231.547L233.956 104.336H235.411L231.706 114.336C231.539 114.786 231.333 115.159 231.087 115.455C230.84 115.754 230.554 115.976 230.229 116.12C229.907 116.264 229.543 116.336 229.138 116.336ZM245.567 104.336V105.472H240.862V104.336H245.567ZM242.271 113.063V103.131C242.271 102.631 242.389 102.214 242.624 101.881C242.858 101.548 243.163 101.298 243.538 101.131C243.913 100.964 244.309 100.881 244.726 100.881C245.055 100.881 245.324 100.908 245.533 100.961C245.741 101.014 245.896 101.063 245.999 101.108L245.612 102.267C245.544 102.245 245.449 102.216 245.328 102.182C245.211 102.148 245.055 102.131 244.862 102.131C244.419 102.131 244.099 102.243 243.902 102.466C243.709 102.69 243.612 103.017 243.612 103.449V113.063H242.271ZM250.632 113.245C249.844 113.245 249.153 113.057 248.558 112.682C247.967 112.307 247.505 111.783 247.172 111.108C246.842 110.434 246.678 109.646 246.678 108.745C246.678 107.836 246.842 107.042 247.172 106.364C247.505 105.686 247.967 105.159 248.558 104.784C249.153 104.409 249.844 104.222 250.632 104.222C251.42 104.222 252.109 104.409 252.7 104.784C253.295 105.159 253.757 105.686 254.087 106.364C254.42 107.042 254.587 107.836 254.587 108.745C254.587 109.646 254.42 110.434 254.087 111.108C253.757 111.783 253.295 112.307 252.7 112.682C252.109 113.057 251.42 113.245 250.632 113.245ZM250.632 112.04C251.231 112.04 251.723 111.887 252.109 111.58C252.496 111.273 252.782 110.87 252.967 110.37C253.153 109.87 253.246 109.328 253.246 108.745C253.246 108.161 253.153 107.618 252.967 107.114C252.782 106.61 252.496 106.203 252.109 105.892C251.723 105.582 251.231 105.427 250.632 105.427C250.034 105.427 249.541 105.582 249.155 105.892C248.768 106.203 248.482 106.61 248.297 107.114C248.111 107.618 248.018 108.161 248.018 108.745C248.018 109.328 248.111 109.87 248.297 110.37C248.482 110.87 248.768 111.273 249.155 111.58C249.541 111.887 250.034 112.04 250.632 112.04ZM256.634 113.063V104.336H257.929V105.654H258.02C258.179 105.222 258.467 104.872 258.884 104.603C259.3 104.334 259.77 104.199 260.293 104.199C260.391 104.199 260.514 104.201 260.662 104.205C260.81 104.209 260.921 104.214 260.997 104.222V105.586C260.952 105.574 260.848 105.557 260.685 105.534C260.526 105.508 260.357 105.495 260.179 105.495C259.755 105.495 259.376 105.584 259.043 105.762C258.713 105.936 258.452 106.178 258.259 106.489C258.069 106.796 257.974 107.146 257.974 107.54V113.063H256.634ZM267.087 113.063V104.336H268.382V105.654H268.473C268.632 105.222 268.92 104.872 269.337 104.603C269.753 104.334 270.223 104.199 270.746 104.199C270.844 104.199 270.967 104.201 271.115 104.205C271.263 104.209 271.375 104.214 271.45 104.222V105.586C271.405 105.574 271.301 105.557 271.138 105.534C270.979 105.508 270.81 105.495 270.632 105.495C270.208 105.495 269.829 105.584 269.496 105.762C269.166 105.936 268.905 106.178 268.712 106.489C268.522 106.796 268.428 107.146 268.428 107.54V113.063H267.087ZM276.433 113.245C275.592 113.245 274.867 113.059 274.257 112.688C273.651 112.313 273.183 111.79 272.854 111.12C272.528 110.445 272.365 109.661 272.365 108.767C272.365 107.874 272.528 107.086 272.854 106.404C273.183 105.718 273.642 105.184 274.229 104.802C274.82 104.415 275.509 104.222 276.297 104.222C276.751 104.222 277.2 104.298 277.643 104.449C278.087 104.601 278.49 104.847 278.854 105.188C279.217 105.525 279.507 105.972 279.723 106.529C279.939 107.086 280.047 107.771 280.047 108.586V109.154H273.32V107.995H278.683C278.683 107.502 278.585 107.063 278.388 106.677C278.195 106.29 277.918 105.985 277.558 105.762C277.202 105.538 276.782 105.427 276.297 105.427C275.763 105.427 275.301 105.559 274.911 105.824C274.524 106.086 274.227 106.427 274.018 106.847C273.81 107.267 273.706 107.718 273.706 108.199V108.972C273.706 109.631 273.82 110.19 274.047 110.648C274.278 111.103 274.598 111.449 275.007 111.688C275.416 111.923 275.892 112.04 276.433 112.04C276.786 112.04 277.104 111.991 277.388 111.892C277.676 111.79 277.924 111.639 278.132 111.438C278.34 111.233 278.501 110.98 278.615 110.677L279.911 111.04C279.774 111.48 279.545 111.866 279.223 112.199C278.901 112.529 278.503 112.786 278.03 112.972C277.556 113.154 277.024 113.245 276.433 113.245ZM285.973 104.336V105.472H281.268V104.336H285.973ZM282.678 113.063V103.131C282.678 102.631 282.795 102.214 283.03 101.881C283.265 101.548 283.57 101.298 283.945 101.131C284.32 100.964 284.715 100.881 285.132 100.881C285.462 100.881 285.731 100.908 285.939 100.961C286.147 101.014 286.303 101.063 286.405 101.108L286.018 102.267C285.95 102.245 285.856 102.216 285.734 102.182C285.617 102.148 285.462 102.131 285.268 102.131C284.825 102.131 284.505 102.243 284.308 102.466C284.115 102.69 284.018 103.017 284.018 103.449V113.063H282.678ZM289.193 101.427V113.063H287.852V101.427H289.193ZM295.308 113.245C294.467 113.245 293.742 113.059 293.132 112.688C292.526 112.313 292.058 111.79 291.729 111.12C291.403 110.445 291.24 109.661 291.24 108.767C291.24 107.874 291.403 107.086 291.729 106.404C292.058 105.718 292.517 105.184 293.104 104.802C293.695 104.415 294.384 104.222 295.172 104.222C295.626 104.222 296.075 104.298 296.518 104.449C296.962 104.601 297.365 104.847 297.729 105.188C298.092 105.525 298.382 105.972 298.598 106.529C298.814 107.086 298.922 107.771 298.922 108.586V109.154H292.195V107.995H297.558C297.558 107.502 297.46 107.063 297.263 106.677C297.07 106.29 296.793 105.985 296.433 105.762C296.077 105.538 295.657 105.427 295.172 105.427C294.638 105.427 294.176 105.559 293.786 105.824C293.399 106.086 293.102 106.427 292.893 106.847C292.685 107.267 292.581 107.718 292.581 108.199V108.972C292.581 109.631 292.695 110.19 292.922 110.648C293.153 111.103 293.473 111.449 293.882 111.688C294.291 111.923 294.767 112.04 295.308 112.04C295.661 112.04 295.979 111.991 296.263 111.892C296.551 111.79 296.799 111.639 297.007 111.438C297.215 111.233 297.376 110.98 297.49 110.677L298.786 111.04C298.649 111.48 298.42 111.866 298.098 112.199C297.776 112.529 297.378 112.786 296.905 112.972C296.431 113.154 295.899 113.245 295.308 113.245ZM304.507 113.245C303.689 113.245 302.984 113.052 302.393 112.665C301.803 112.279 301.348 111.747 301.03 111.069C300.712 110.391 300.553 109.616 300.553 108.745C300.553 107.858 300.715 107.076 301.041 106.398C301.371 105.716 301.829 105.184 302.416 104.802C303.007 104.415 303.696 104.222 304.484 104.222C305.098 104.222 305.651 104.336 306.143 104.563C306.636 104.79 307.039 105.108 307.354 105.517C307.668 105.927 307.863 106.404 307.939 106.949H306.598C306.496 106.552 306.268 106.199 305.916 105.892C305.568 105.582 305.098 105.427 304.507 105.427C303.984 105.427 303.526 105.563 303.132 105.836C302.742 106.105 302.437 106.485 302.217 106.978C302.001 107.466 301.893 108.04 301.893 108.699C301.893 109.374 302 109.961 302.212 110.461C302.428 110.961 302.731 111.349 303.121 111.625C303.515 111.902 303.977 112.04 304.507 112.04C304.856 112.04 305.172 111.98 305.456 111.858C305.74 111.737 305.981 111.563 306.178 111.336C306.375 111.108 306.515 110.836 306.598 110.517H307.939C307.863 111.033 307.676 111.497 307.376 111.909C307.081 112.319 306.689 112.644 306.2 112.887C305.715 113.125 305.151 113.245 304.507 113.245ZM313.695 104.336V105.472H309.172V104.336H313.695ZM310.49 102.245H311.831V110.563C311.831 110.942 311.886 111.226 311.996 111.415C312.109 111.601 312.253 111.726 312.428 111.79C312.606 111.851 312.793 111.881 312.99 111.881C313.138 111.881 313.259 111.874 313.354 111.858C313.448 111.839 313.524 111.824 313.581 111.813L313.854 113.017C313.763 113.052 313.636 113.086 313.473 113.12C313.31 113.158 313.104 113.177 312.854 113.177C312.475 113.177 312.104 113.095 311.74 112.932C311.38 112.769 311.081 112.521 310.842 112.188C310.607 111.855 310.49 111.434 310.49 110.927V102.245ZM315.712 113.063V104.336H317.053V113.063H315.712ZM316.393 102.881C316.132 102.881 315.907 102.792 315.717 102.614C315.532 102.436 315.439 102.222 315.439 101.972C315.439 101.722 315.532 101.508 315.717 101.33C315.907 101.152 316.132 101.063 316.393 101.063C316.655 101.063 316.878 101.152 317.064 101.33C317.253 101.508 317.348 101.722 317.348 101.972C317.348 102.222 317.253 102.436 317.064 102.614C316.878 102.792 316.655 102.881 316.393 102.881ZM323.054 113.245C322.266 113.245 321.575 113.057 320.98 112.682C320.389 112.307 319.927 111.783 319.594 111.108C319.264 110.434 319.099 109.646 319.099 108.745C319.099 107.836 319.264 107.042 319.594 106.364C319.927 105.686 320.389 105.159 320.98 104.784C321.575 104.409 322.266 104.222 323.054 104.222C323.842 104.222 324.531 104.409 325.122 104.784C325.717 105.159 326.179 105.686 326.509 106.364C326.842 107.042 327.009 107.836 327.009 108.745C327.009 109.646 326.842 110.434 326.509 111.108C326.179 111.783 325.717 112.307 325.122 112.682C324.531 113.057 323.842 113.245 323.054 113.245ZM323.054 112.04C323.652 112.04 324.145 111.887 324.531 111.58C324.918 111.273 325.204 110.87 325.389 110.37C325.575 109.87 325.668 109.328 325.668 108.745C325.668 108.161 325.575 107.618 325.389 107.114C325.204 106.61 324.918 106.203 324.531 105.892C324.145 105.582 323.652 105.427 323.054 105.427C322.455 105.427 321.963 105.582 321.577 105.892C321.19 106.203 320.904 106.61 320.719 107.114C320.533 107.618 320.44 108.161 320.44 108.745C320.44 109.328 320.533 109.87 320.719 110.37C320.904 110.87 321.19 111.273 321.577 111.58C321.963 111.887 322.455 112.04 323.054 112.04ZM330.396 107.813V113.063H329.055V104.336H330.351V105.699H330.464C330.669 105.256 330.98 104.9 331.396 104.631C331.813 104.358 332.351 104.222 333.01 104.222C333.601 104.222 334.118 104.343 334.561 104.586C335.004 104.824 335.349 105.188 335.595 105.677C335.841 106.161 335.964 106.775 335.964 107.517V113.063H334.624V107.608C334.624 106.923 334.446 106.389 334.089 106.006C333.733 105.62 333.245 105.427 332.624 105.427C332.196 105.427 331.813 105.519 331.476 105.705C331.143 105.891 330.879 106.161 330.686 106.517C330.493 106.874 330.396 107.305 330.396 107.813ZM339.392 113.154C339.112 113.154 338.871 113.053 338.67 112.853C338.47 112.652 338.369 112.411 338.369 112.131C338.369 111.851 338.47 111.61 338.67 111.409C338.871 111.209 339.112 111.108 339.392 111.108C339.672 111.108 339.913 111.209 340.114 111.409C340.314 111.61 340.415 111.851 340.415 112.131C340.415 112.317 340.367 112.487 340.273 112.642C340.182 112.798 340.059 112.923 339.903 113.017C339.752 113.108 339.581 113.154 339.392 113.154Z" fill="#303030"/>
<mask id="mask0_1214_197" style="mask-type:alpha" maskUnits="userSpaceOnUse" x="25" y="35" width="82" height="81">
<path d="M25 101.538C25 93.2537 31.7157 86.5379 40 86.5379H66.3207C74.6049 86.5379 81.3207 93.2537 81.3207 101.538V115.063H25V101.538Z" fill="white"/>
<path d="M82.8994 70.7844L89.8864 78.5727C90.2943 79.0274 91.0109 79.0134 91.4007 78.5431L105 62.1329" stroke="white" stroke-width="3" stroke-linecap="round"/>
<ellipse cx="53.2211" cy="53.7027" rx="15.6615" ry="18.6398" fill="white"/>
</mask>
<g mask="url(#mask0_1214_197)">
<rect x="-1.15932" y="31.5185" width="152.079" height="90.7834" rx="4.95135" fill="url(#paint0_linear_1214_197)" stroke="white" stroke-width="1.1003"/>
</g>
<defs>
<linearGradient id="paint0_linear_1214_197" x1="-1.70947" y1="30.9684" x2="79.3545" y2="166.11" gradientUnits="userSpaceOnUse">
<stop stop-color="#00D1FF"/>
<stop offset="1" stop-color="#3300FF"/>
</linearGradient>
</defs>
</svg>
