<svg width="512" height="104" viewBox="0 0 512 104" fill="none" xmlns="http://www.w3.org/2000/svg">
<path d="M124.83 32.6186H122.614L129.023 15.1641H131.205L137.614 32.6186H135.398L130.182 17.9254H130.045L124.83 32.6186ZM125.648 25.8004H134.58V27.6754H125.648V25.8004ZM145.378 32.8913C144.151 32.8913 143.094 32.6016 142.207 32.022C141.321 31.4425 140.639 30.6442 140.162 29.6271C139.685 28.6101 139.446 27.4481 139.446 26.1413C139.446 24.8118 139.69 23.6385 140.179 22.6214C140.673 21.5987 141.361 20.8004 142.241 20.2266C143.128 19.647 144.162 19.3572 145.344 19.3572C146.264 19.3572 147.094 19.5277 147.832 19.8686C148.571 20.2095 149.176 20.6868 149.648 21.3004C150.119 21.9141 150.412 22.63 150.526 23.4481H148.514C148.361 22.8516 148.02 22.3231 147.491 21.8629C146.969 21.397 146.264 21.1641 145.378 21.1641C144.594 21.1641 143.906 21.3686 143.315 21.7777C142.73 22.1811 142.273 22.7521 141.943 23.4908C141.619 24.2237 141.457 25.0845 141.457 26.0731C141.457 27.0845 141.616 27.9652 141.935 28.7152C142.259 29.4652 142.713 30.0476 143.298 30.4624C143.889 30.8771 144.582 31.0845 145.378 31.0845C145.901 31.0845 146.375 30.9936 146.801 30.8118C147.227 30.63 147.588 30.3686 147.884 30.0277C148.179 29.6868 148.389 29.2777 148.514 28.8004H150.526C150.412 29.5731 150.131 30.2692 149.682 30.8885C149.239 31.5021 148.651 31.9908 147.918 32.3544C147.19 32.7124 146.344 32.8913 145.378 32.8913ZM158.784 32.8913C157.557 32.8913 156.5 32.6016 155.614 32.022C154.727 31.4425 154.045 30.6442 153.568 29.6271C153.091 28.6101 152.852 27.4481 152.852 26.1413C152.852 24.8118 153.097 23.6385 153.585 22.6214C154.08 21.5987 154.767 20.8004 155.648 20.2266C156.534 19.647 157.568 19.3572 158.75 19.3572C159.67 19.3572 160.5 19.5277 161.239 19.8686C161.977 20.2095 162.582 20.6868 163.054 21.3004C163.526 21.9141 163.818 22.63 163.932 23.4481H161.92C161.767 22.8516 161.426 22.3231 160.898 21.8629C160.375 21.397 159.67 21.1641 158.784 21.1641C158 21.1641 157.313 21.3686 156.722 21.7777C156.136 22.1811 155.679 22.7521 155.349 23.4908C155.026 24.2237 154.864 25.0845 154.864 26.0731C154.864 27.0845 155.023 27.9652 155.341 28.7152C155.665 29.4652 156.119 30.0476 156.705 30.4624C157.295 30.8771 157.989 31.0845 158.784 31.0845C159.307 31.0845 159.781 30.9936 160.207 30.8118C160.634 30.63 160.994 30.3686 161.29 30.0277C161.585 29.6868 161.795 29.2777 161.92 28.8004H163.932C163.818 29.5731 163.537 30.2692 163.088 30.8885C162.645 31.5021 162.057 31.9908 161.324 32.3544C160.597 32.7124 159.75 32.8913 158.784 32.8913ZM172.361 32.8913C171.099 32.8913 170.011 32.6129 169.097 32.0561C168.188 31.4936 167.486 30.7095 166.991 29.7038C166.503 28.6925 166.259 27.5163 166.259 26.1754C166.259 24.8345 166.503 23.6527 166.991 22.63C167.486 21.6016 168.173 20.8004 169.054 20.2266C169.94 19.647 170.974 19.3572 172.156 19.3572C172.838 19.3572 173.511 19.4709 174.176 19.6981C174.841 19.9254 175.446 20.2947 175.991 20.8061C176.537 21.3118 176.972 21.9822 177.295 22.8175C177.619 23.6527 177.781 24.6811 177.781 25.9027V26.755H167.69V25.0163H175.736C175.736 24.2777 175.588 23.6186 175.293 23.0391C175.003 22.4595 174.588 22.0021 174.048 21.6669C173.514 21.3317 172.884 21.1641 172.156 21.1641C171.355 21.1641 170.662 21.3629 170.077 21.7606C169.497 22.1527 169.051 22.6641 168.739 23.2947C168.426 23.9254 168.27 24.6016 168.27 25.3231V26.4822C168.27 27.4709 168.44 28.3089 168.781 28.9964C169.128 29.6783 169.608 30.1981 170.222 30.5561C170.835 30.9084 171.548 31.0845 172.361 31.0845C172.889 31.0845 173.366 31.0106 173.793 30.8629C174.224 30.7095 174.597 30.4822 174.909 30.1811C175.222 29.8743 175.463 29.4936 175.634 29.0391L177.577 29.5845C177.372 30.2436 177.028 30.8231 176.545 31.3231C176.063 31.8175 175.466 32.2038 174.756 32.4822C174.045 32.755 173.247 32.8913 172.361 32.8913ZM180.841 37.5277V19.5277H182.784V21.6072H183.023C183.17 21.38 183.375 21.0902 183.636 20.7379C183.903 20.38 184.284 20.0618 184.778 19.7834C185.278 19.4993 185.955 19.3572 186.807 19.3572C187.909 19.3572 188.881 19.6328 189.722 20.1839C190.563 20.7351 191.219 21.5163 191.69 22.5277C192.162 23.5391 192.398 24.7322 192.398 26.1072C192.398 27.4936 192.162 28.6953 191.69 29.7124C191.219 30.7237 190.565 31.5078 189.73 32.0646C188.895 32.6158 187.932 32.8913 186.841 32.8913C186 32.8913 185.327 32.7521 184.821 32.4737C184.315 32.1896 183.926 31.8686 183.653 31.5106C183.381 31.147 183.17 30.8459 183.023 30.6072H182.852V37.5277H180.841ZM182.818 26.0731C182.818 27.0618 182.963 27.9339 183.253 28.6896C183.543 29.4396 183.966 30.0277 184.523 30.4538C185.08 30.8743 185.761 31.0845 186.568 31.0845C187.409 31.0845 188.111 30.8629 188.673 30.4197C189.241 29.9709 189.668 29.3686 189.952 28.6129C190.241 27.8516 190.386 27.005 190.386 26.0731C190.386 25.1527 190.244 24.3231 189.96 23.5845C189.682 22.8402 189.259 22.2521 188.69 21.8203C188.128 21.3828 187.42 21.1641 186.568 21.1641C185.75 21.1641 185.063 21.3714 184.506 21.7862C183.949 22.1953 183.528 22.7692 183.244 23.5078C182.96 24.2408 182.818 25.0959 182.818 26.0731ZM201.159 19.5277V21.2322H194.375V19.5277H201.159ZM196.352 16.3913H198.364V28.8686C198.364 29.4368 198.446 29.8629 198.611 30.147C198.781 30.4254 198.997 30.6129 199.259 30.7095C199.526 30.8004 199.807 30.8459 200.102 30.8459C200.324 30.8459 200.506 30.8345 200.648 30.8118C200.79 30.7834 200.903 30.7606 200.989 30.7436L201.398 32.5504C201.261 32.6016 201.071 32.6527 200.827 32.7038C200.582 32.7606 200.273 32.7891 199.898 32.7891C199.33 32.7891 198.773 32.6669 198.227 32.4226C197.688 32.1783 197.239 31.8061 196.881 31.3061C196.528 30.8061 196.352 30.1754 196.352 29.4141V16.3913ZM211.207 15.1641H213.73L219.662 29.6527H219.866L225.798 15.1641H228.321V32.6186H226.344V19.3572H226.173L220.719 32.6186H218.81L213.355 19.3572H213.185V32.6186H211.207V15.1641ZM232.286 32.6186V19.5277H234.298V32.6186H232.286ZM233.309 17.3459C232.917 17.3459 232.579 17.2124 232.295 16.9453C232.016 16.6783 231.877 16.3572 231.877 15.9822C231.877 15.6072 232.016 15.2862 232.295 15.0192C232.579 14.7521 232.917 14.6186 233.309 14.6186C233.701 14.6186 234.036 14.7521 234.315 15.0192C234.599 15.2862 234.741 15.6072 234.741 15.9822C234.741 16.3572 234.599 16.6783 234.315 16.9453C234.036 17.2124 233.701 17.3459 233.309 17.3459ZM247.254 22.4595L245.447 22.9709C245.334 22.6697 245.166 22.3771 244.945 22.093C244.729 21.8033 244.433 21.5646 244.058 21.3771C243.683 21.1896 243.203 21.0959 242.618 21.0959C241.817 21.0959 241.149 21.2805 240.615 21.6499C240.087 22.0135 239.822 22.4766 239.822 23.0391C239.822 23.5391 240.004 23.9339 240.368 24.2237C240.732 24.5135 241.3 24.755 242.072 24.9481L244.016 25.4254C245.186 25.7095 246.058 26.1442 246.632 26.7294C247.206 27.3089 247.493 28.0561 247.493 28.9709C247.493 29.7209 247.277 30.3913 246.845 30.9822C246.419 31.5731 245.822 32.0391 245.055 32.38C244.288 32.7209 243.396 32.8913 242.379 32.8913C241.044 32.8913 239.939 32.6016 239.064 32.022C238.189 31.4425 237.635 30.5959 237.402 29.4822L239.311 29.005C239.493 29.7095 239.837 30.2379 240.342 30.5902C240.854 30.9425 241.521 31.1186 242.345 31.1186C243.283 31.1186 244.027 30.9197 244.578 30.522C245.135 30.1186 245.413 29.6356 245.413 29.0731C245.413 28.6186 245.254 28.2379 244.936 27.9311C244.618 27.6186 244.129 27.3856 243.47 27.2322L241.288 26.7209C240.089 26.4368 239.209 25.9964 238.646 25.3999C238.089 24.7976 237.811 24.0447 237.811 23.1413C237.811 22.4027 238.018 21.7493 238.433 21.1811C238.854 20.6129 239.425 20.1669 240.146 19.843C240.874 19.5192 241.697 19.3572 242.618 19.3572C243.913 19.3572 244.93 19.6413 245.669 20.2095C246.413 20.7777 246.942 21.5277 247.254 22.4595ZM256.214 19.5277V21.2322H249.43V19.5277H256.214ZM251.407 16.3913H253.418V28.8686C253.418 29.4368 253.501 29.8629 253.665 30.147C253.836 30.4254 254.052 30.6129 254.313 30.7095C254.58 30.8004 254.862 30.8459 255.157 30.8459C255.379 30.8459 255.56 30.8345 255.702 30.8118C255.844 30.7834 255.958 30.7606 256.043 30.7436L256.452 32.5504C256.316 32.6016 256.126 32.6527 255.881 32.7038C255.637 32.7606 255.327 32.7891 254.952 32.7891C254.384 32.7891 253.827 32.6669 253.282 32.4226C252.742 32.1783 252.293 31.8061 251.935 31.3061C251.583 30.8061 251.407 30.1754 251.407 29.4141V16.3913ZM263.092 32.9254C262.262 32.9254 261.509 32.7692 260.833 32.4567C260.157 32.1385 259.62 31.6811 259.222 31.0845C258.825 30.4822 258.626 29.755 258.626 28.9027C258.626 28.1527 258.773 27.5447 259.069 27.0788C259.364 26.6072 259.759 26.2379 260.254 25.9709C260.748 25.7038 261.293 25.505 261.89 25.3743C262.492 25.2379 263.097 25.13 263.705 25.0504C264.501 24.9481 265.146 24.8714 265.64 24.8203C266.14 24.7635 266.504 24.6697 266.731 24.5391C266.964 24.4084 267.08 24.1811 267.08 23.8572V23.7891C267.08 22.9481 266.85 22.2947 266.39 21.8288C265.935 21.3629 265.245 21.13 264.319 21.13C263.359 21.13 262.606 21.3402 262.06 21.7606C261.515 22.1811 261.131 22.63 260.91 23.1072L259.001 22.4254C259.342 21.63 259.796 21.0106 260.364 20.5675C260.938 20.1186 261.563 19.8061 262.239 19.63C262.921 19.4481 263.592 19.3572 264.251 19.3572C264.671 19.3572 265.154 19.4084 265.7 19.5106C266.251 19.6072 266.782 19.8089 267.293 20.1158C267.81 20.4226 268.239 20.8856 268.58 21.505C268.921 22.1243 269.092 22.9538 269.092 23.9936V32.6186H267.08V30.8459H266.978C266.842 31.13 266.614 31.4339 266.296 31.7578C265.978 32.0817 265.555 32.3572 265.026 32.5845C264.498 32.8118 263.853 32.9254 263.092 32.9254ZM263.398 31.1186C264.194 31.1186 264.864 30.9624 265.41 30.6499C265.961 30.3374 266.376 29.9339 266.654 29.4396C266.938 28.9453 267.08 28.4254 267.08 27.88V26.0391C266.995 26.1413 266.808 26.2351 266.518 26.3203C266.234 26.3999 265.904 26.4709 265.529 26.5334C265.16 26.5902 264.799 26.6413 264.447 26.6868C264.1 26.7266 263.819 26.7606 263.603 26.7891C263.08 26.8572 262.592 26.968 262.137 27.1214C261.688 27.2692 261.325 27.4936 261.046 27.7947C260.773 28.0902 260.637 28.4936 260.637 29.005C260.637 29.7038 260.896 30.2322 261.413 30.5902C261.935 30.9425 262.597 31.1186 263.398 31.1186ZM274.638 27.8459L274.604 25.3572H275.013L280.74 19.5277H283.229L277.126 25.6981H276.956L274.638 27.8459ZM272.763 32.6186V15.1641H274.774V32.6186H272.763ZM281.081 32.6186L275.967 26.1413L277.399 24.7436L283.638 32.6186H281.081ZM290.767 32.8913C289.506 32.8913 288.418 32.6129 287.503 32.0561C286.594 31.4936 285.892 30.7095 285.398 29.7038C284.909 28.6925 284.665 27.5163 284.665 26.1754C284.665 24.8345 284.909 23.6527 285.398 22.63C285.892 21.6016 286.58 20.8004 287.46 20.2266C288.347 19.647 289.381 19.3572 290.562 19.3572C291.244 19.3572 291.918 19.4709 292.582 19.6981C293.247 19.9254 293.852 20.2947 294.398 20.8061C294.943 21.3118 295.378 21.9822 295.702 22.8175C296.026 23.6527 296.188 24.6811 296.188 25.9027V26.755H286.097V25.0163H294.142C294.142 24.2777 293.994 23.6186 293.699 23.0391C293.409 22.4595 292.994 22.0021 292.455 21.6669C291.92 21.3317 291.29 21.1641 290.562 21.1641C289.761 21.1641 289.068 21.3629 288.483 21.7606C287.903 22.1527 287.457 22.6641 287.145 23.2947C286.832 23.9254 286.676 24.6016 286.676 25.3231V26.4822C286.676 27.4709 286.847 28.3089 287.188 28.9964C287.534 29.6783 288.014 30.1981 288.628 30.5561C289.241 30.9084 289.955 31.0845 290.767 31.0845C291.295 31.0845 291.773 31.0106 292.199 30.8629C292.631 30.7095 293.003 30.4822 293.315 30.1811C293.628 29.8743 293.869 29.4936 294.04 29.0391L295.983 29.5845C295.778 30.2436 295.435 30.8231 294.952 31.3231C294.469 31.8175 293.872 32.2038 293.162 32.4822C292.452 32.755 291.653 32.8913 290.767 32.8913ZM308.52 22.4595L306.713 22.9709C306.599 22.6697 306.432 22.3771 306.21 22.093C305.994 21.8033 305.699 21.5646 305.324 21.3771C304.949 21.1896 304.469 21.0959 303.884 21.0959C303.082 21.0959 302.415 21.2805 301.881 21.6499C301.352 22.0135 301.088 22.4766 301.088 23.0391C301.088 23.5391 301.27 23.9339 301.634 24.2237C301.997 24.5135 302.565 24.755 303.338 24.9481L305.281 25.4254C306.452 25.7095 307.324 26.1442 307.898 26.7294C308.472 27.3089 308.759 28.0561 308.759 28.9709C308.759 29.7209 308.543 30.3913 308.111 30.9822C307.685 31.5731 307.088 32.0391 306.321 32.38C305.554 32.7209 304.662 32.8913 303.645 32.8913C302.31 32.8913 301.205 32.6016 300.33 32.022C299.455 31.4425 298.901 30.5959 298.668 29.4822L300.577 29.005C300.759 29.7095 301.102 30.2379 301.608 30.5902C302.119 30.9425 302.787 31.1186 303.611 31.1186C304.548 31.1186 305.293 30.9197 305.844 30.522C306.401 30.1186 306.679 29.6356 306.679 29.0731C306.679 28.6186 306.52 28.2379 306.202 27.9311C305.884 27.6186 305.395 27.3856 304.736 27.2322L302.554 26.7209C301.355 26.4368 300.474 25.9964 299.912 25.3999C299.355 24.7976 299.077 24.0447 299.077 23.1413C299.077 22.4027 299.284 21.7493 299.699 21.1811C300.119 20.6129 300.69 20.1669 301.412 19.843C302.139 19.5192 302.963 19.3572 303.884 19.3572C305.179 19.3572 306.196 19.6413 306.935 20.2095C307.679 20.7777 308.207 21.5277 308.52 22.4595ZM122.773 60.2322V58.9822H131.5V60.2322H127.841V70.6186H126.432V60.2322H122.773ZM135.773 70.8004C134.985 70.8004 134.294 70.6129 133.699 70.2379C133.108 69.8629 132.646 69.3383 132.312 68.6641C131.983 67.9898 131.818 67.2019 131.818 66.3004C131.818 65.3913 131.983 64.5978 132.312 63.9197C132.646 63.2417 133.108 62.7152 133.699 62.3402C134.294 61.9652 134.985 61.7777 135.773 61.7777C136.561 61.7777 137.25 61.9652 137.841 62.3402C138.436 62.7152 138.898 63.2417 139.227 63.9197C139.561 64.5978 139.727 65.3913 139.727 66.3004C139.727 67.2019 139.561 67.9898 139.227 68.6641C138.898 69.3383 138.436 69.8629 137.841 70.2379C137.25 70.6129 136.561 70.8004 135.773 70.8004ZM135.773 69.5959C136.371 69.5959 136.864 69.4425 137.25 69.1356C137.636 68.8288 137.922 68.4254 138.108 67.9254C138.294 67.4254 138.386 66.8838 138.386 66.3004C138.386 65.7171 138.294 65.1735 138.108 64.6697C137.922 64.166 137.636 63.7588 137.25 63.4481C136.864 63.1375 136.371 62.9822 135.773 62.9822C135.174 62.9822 134.682 63.1375 134.295 63.4481C133.909 63.7588 133.623 64.166 133.438 64.6697C133.252 65.1735 133.159 65.7171 133.159 66.3004C133.159 66.8838 133.252 67.4254 133.438 67.9254C133.623 68.4254 133.909 68.8288 134.295 69.1356C134.682 69.4425 135.174 69.5959 135.773 69.5959ZM149.933 70.8004C149.092 70.8004 148.367 70.6148 147.757 70.2436C147.151 69.8686 146.683 69.3459 146.354 68.6754C146.028 68.0012 145.865 67.2171 145.865 66.3231C145.865 65.4292 146.028 64.6413 146.354 63.9595C146.683 63.2739 147.142 62.7398 147.729 62.3572C148.32 61.9709 149.009 61.7777 149.797 61.7777C150.251 61.7777 150.7 61.8535 151.143 62.005C151.587 62.1565 151.99 62.4027 152.354 62.7436C152.717 63.0807 153.007 63.5277 153.223 64.0845C153.439 64.6413 153.547 65.3269 153.547 66.1413V66.7095H146.82V65.5504H152.183C152.183 65.058 152.085 64.6186 151.888 64.2322C151.695 63.8459 151.418 63.541 151.058 63.3175C150.702 63.094 150.282 62.9822 149.797 62.9822C149.263 62.9822 148.801 63.1148 148.411 63.38C148.024 63.6413 147.727 63.9822 147.518 64.4027C147.31 64.8231 147.206 65.2739 147.206 65.755V66.5277C147.206 67.1868 147.32 67.7455 147.547 68.2038C147.778 68.6584 148.098 69.005 148.507 69.2436C148.916 69.4785 149.392 69.5959 149.933 69.5959C150.286 69.5959 150.604 69.5466 150.888 69.4481C151.176 69.3459 151.424 69.1944 151.632 68.9936C151.84 68.7891 152.001 68.5353 152.115 68.2322L153.411 68.5959C153.274 69.0353 153.045 69.4216 152.723 69.755C152.401 70.0845 152.003 70.3421 151.53 70.5277C151.056 70.7095 150.524 70.8004 149.933 70.8004ZM155.587 70.6186V61.8913H156.882V63.2095H156.973C157.132 62.7777 157.42 62.4273 157.837 62.1584C158.253 61.8894 158.723 61.755 159.246 61.755C159.344 61.755 159.467 61.7569 159.615 61.7606C159.763 61.7644 159.875 61.7701 159.95 61.7777V63.1413C159.905 63.13 159.801 63.1129 159.638 63.0902C159.479 63.0637 159.31 63.0504 159.132 63.0504C158.708 63.0504 158.329 63.1394 157.996 63.3175C157.666 63.4917 157.405 63.7341 157.212 64.0447C157.022 64.3516 156.928 64.7019 156.928 65.0959V70.6186H155.587ZM161.54 70.6186V61.8913H162.835V63.2095H162.926C163.085 62.7777 163.373 62.4273 163.79 62.1584C164.206 61.8894 164.676 61.755 165.199 61.755C165.297 61.755 165.42 61.7569 165.568 61.7606C165.716 61.7644 165.828 61.7701 165.903 61.7777V63.1413C165.858 63.13 165.754 63.1129 165.591 63.0902C165.432 63.0637 165.263 63.0504 165.085 63.0504C164.661 63.0504 164.282 63.1394 163.949 63.3175C163.619 63.4917 163.358 63.7341 163.165 64.0447C162.975 64.3516 162.881 64.7019 162.881 65.0959V70.6186H161.54ZM170.773 70.8004C169.985 70.8004 169.294 70.6129 168.699 70.2379C168.108 69.8629 167.646 69.3383 167.312 68.6641C166.983 67.9898 166.818 67.2019 166.818 66.3004C166.818 65.3913 166.983 64.5978 167.312 63.9197C167.646 63.2417 168.108 62.7152 168.699 62.3402C169.294 61.9652 169.985 61.7777 170.773 61.7777C171.561 61.7777 172.25 61.9652 172.841 62.3402C173.436 62.7152 173.898 63.2417 174.227 63.9197C174.561 64.5978 174.727 65.3913 174.727 66.3004C174.727 67.2019 174.561 67.9898 174.227 68.6641C173.898 69.3383 173.436 69.8629 172.841 70.2379C172.25 70.6129 171.561 70.8004 170.773 70.8004ZM170.773 69.5959C171.371 69.5959 171.864 69.4425 172.25 69.1356C172.636 68.8288 172.922 68.4254 173.108 67.9254C173.294 67.4254 173.386 66.8838 173.386 66.3004C173.386 65.7171 173.294 65.1735 173.108 64.6697C172.922 64.166 172.636 63.7588 172.25 63.4481C171.864 63.1375 171.371 62.9822 170.773 62.9822C170.174 62.9822 169.682 63.1375 169.295 63.4481C168.909 63.7588 168.623 64.166 168.438 64.6697C168.252 65.1735 168.159 65.7171 168.159 66.3004C168.159 66.8838 168.252 67.4254 168.438 67.9254C168.623 68.4254 168.909 68.8288 169.295 69.1356C169.682 69.4425 170.174 69.5959 170.773 69.5959ZM176.774 70.6186V61.8913H178.07V63.2095H178.161C178.32 62.7777 178.607 62.4273 179.024 62.1584C179.441 61.8894 179.911 61.755 180.433 61.755C180.532 61.755 180.655 61.7569 180.803 61.7606C180.95 61.7644 181.062 61.7701 181.138 61.7777V63.1413C181.092 63.13 180.988 63.1129 180.825 63.0902C180.666 63.0637 180.498 63.0504 180.32 63.0504C179.895 63.0504 179.517 63.1394 179.183 63.3175C178.854 63.4917 178.592 63.7341 178.399 64.0447C178.21 64.3516 178.115 64.7019 178.115 65.0959V70.6186H176.774ZM187.227 70.6186V61.8913H188.568V70.6186H187.227ZM187.909 60.4368C187.648 60.4368 187.422 60.3478 187.233 60.1697C187.047 59.9917 186.955 59.7777 186.955 59.5277C186.955 59.2777 187.047 59.0637 187.233 58.8856C187.422 58.7076 187.648 58.6186 187.909 58.6186C188.17 58.6186 188.394 58.7076 188.58 58.8856C188.769 59.0637 188.864 59.2777 188.864 59.5277C188.864 59.7777 188.769 59.9917 188.58 60.1697C188.394 60.3478 188.17 60.4368 187.909 60.4368ZM197.206 63.8459L196.001 64.1868C195.926 63.986 195.814 63.791 195.666 63.6016C195.522 63.4084 195.325 63.2493 195.075 63.1243C194.825 62.9993 194.505 62.9368 194.115 62.9368C193.581 62.9368 193.136 63.0599 192.78 63.3061C192.428 63.5485 192.251 63.8572 192.251 64.2322C192.251 64.5656 192.373 64.8288 192.615 65.022C192.857 65.2152 193.236 65.3762 193.751 65.505L195.047 65.8231C195.827 66.0125 196.409 66.3023 196.791 66.6925C197.174 67.0788 197.365 67.5769 197.365 68.1868C197.365 68.6868 197.221 69.1338 196.933 69.5277C196.649 69.9216 196.251 70.2322 195.74 70.4595C195.229 70.6868 194.634 70.8004 193.956 70.8004C193.066 70.8004 192.329 70.6072 191.746 70.2209C191.162 69.8345 190.793 69.2701 190.638 68.5277L191.911 68.2095C192.032 68.6792 192.261 69.0315 192.598 69.2663C192.939 69.5012 193.384 69.6186 193.933 69.6186C194.558 69.6186 195.054 69.486 195.422 69.2209C195.793 68.9519 195.979 68.63 195.979 68.255C195.979 67.9519 195.873 67.6981 195.661 67.4936C195.448 67.2853 195.123 67.13 194.683 67.0277L193.229 66.6868C192.429 66.4974 191.842 66.2038 191.467 65.8061C191.096 65.4046 190.911 64.9027 190.911 64.3004C190.911 63.808 191.049 63.3724 191.325 62.9936C191.606 62.6148 191.986 62.3175 192.467 62.1016C192.952 61.8856 193.501 61.7777 194.115 61.7777C194.979 61.7777 195.657 61.9671 196.149 62.3459C196.645 62.7247 196.998 63.2247 197.206 63.8459ZM203.884 73.8913V61.8913H205.179V63.2777H205.338C205.437 63.1262 205.573 62.933 205.747 62.6981C205.925 62.4595 206.179 62.2474 206.509 62.0618C206.842 61.8724 207.293 61.7777 207.861 61.7777C208.596 61.7777 209.243 61.9614 209.804 62.3288C210.365 62.6963 210.802 63.2171 211.116 63.8913C211.431 64.5656 211.588 65.361 211.588 66.2777C211.588 67.2019 211.431 68.0031 211.116 68.6811C210.802 69.3553 210.366 69.8781 209.81 70.2493C209.253 70.6167 208.611 70.8004 207.884 70.8004C207.323 70.8004 206.874 70.7076 206.537 70.522C206.2 70.3326 205.94 70.1186 205.759 69.88C205.577 69.6375 205.437 69.4368 205.338 69.2777H205.224V73.8913H203.884ZM205.202 66.255C205.202 66.9141 205.298 67.4955 205.491 67.9993C205.685 68.4993 205.967 68.8913 206.338 69.1754C206.709 69.4557 207.164 69.5959 207.702 69.5959C208.262 69.5959 208.73 69.4481 209.105 69.1527C209.484 68.8535 209.768 68.4519 209.957 67.9481C210.151 67.4406 210.247 66.8762 210.247 66.255C210.247 65.6413 210.152 65.0883 209.963 64.5959C209.777 64.0997 209.495 63.7076 209.116 63.4197C208.741 63.1281 208.27 62.9822 207.702 62.9822C207.156 62.9822 206.698 63.1205 206.327 63.397C205.955 63.6697 205.675 64.0523 205.486 64.5447C205.296 65.0334 205.202 65.6035 205.202 66.255ZM213.634 70.6186V61.8913H214.929V63.2095H215.02C215.179 62.7777 215.467 62.4273 215.884 62.1584C216.3 61.8894 216.77 61.755 217.293 61.755C217.391 61.755 217.514 61.7569 217.662 61.7606C217.81 61.7644 217.921 61.7701 217.997 61.7777V63.1413C217.952 63.13 217.848 63.1129 217.685 63.0902C217.526 63.0637 217.357 63.0504 217.179 63.0504C216.755 63.0504 216.376 63.1394 216.043 63.3175C215.713 63.4917 215.452 63.7341 215.259 64.0447C215.069 64.3516 214.974 64.7019 214.974 65.0959V70.6186H213.634ZM222.866 70.8004C222.079 70.8004 221.387 70.6129 220.793 70.2379C220.202 69.8629 219.74 69.3383 219.406 68.6641C219.077 67.9898 218.912 67.2019 218.912 66.3004C218.912 65.3913 219.077 64.5978 219.406 63.9197C219.74 63.2417 220.202 62.7152 220.793 62.3402C221.387 61.9652 222.079 61.7777 222.866 61.7777C223.654 61.7777 224.344 61.9652 224.935 62.3402C225.529 62.7152 225.991 63.2417 226.321 63.9197C226.654 64.5978 226.821 65.3913 226.821 66.3004C226.821 67.2019 226.654 67.9898 226.321 68.6641C225.991 69.3383 225.529 69.8629 224.935 70.2379C224.344 70.6129 223.654 70.8004 222.866 70.8004ZM222.866 69.5959C223.465 69.5959 223.957 69.4425 224.344 69.1356C224.73 68.8288 225.016 68.4254 225.202 67.9254C225.387 67.4254 225.48 66.8838 225.48 66.3004C225.48 65.7171 225.387 65.1735 225.202 64.6697C225.016 64.166 224.73 63.7588 224.344 63.4481C223.957 63.1375 223.465 62.9822 222.866 62.9822C222.268 62.9822 221.776 63.1375 221.389 63.4481C221.003 63.7588 220.717 64.166 220.531 64.6697C220.346 65.1735 220.253 65.7171 220.253 66.3004C220.253 66.8838 220.346 67.4254 220.531 67.9254C220.717 68.4254 221.003 68.8288 221.389 69.1356C221.776 69.4425 222.268 69.5959 222.866 69.5959ZM232.413 70.8004C231.625 70.8004 230.934 70.6129 230.339 70.2379C229.749 69.8629 229.286 69.3383 228.953 68.6641C228.624 67.9898 228.459 67.2019 228.459 66.3004C228.459 65.3913 228.624 64.5978 228.953 63.9197C229.286 63.2417 229.749 62.7152 230.339 62.3402C230.934 61.9652 231.625 61.7777 232.413 61.7777C233.201 61.7777 233.891 61.9652 234.482 62.3402C235.076 62.7152 235.538 63.2417 235.868 63.9197C236.201 64.5978 236.368 65.3913 236.368 66.3004C236.368 67.2019 236.201 67.9898 235.868 68.6641C235.538 69.3383 235.076 69.8629 234.482 70.2379C233.891 70.6129 233.201 70.8004 232.413 70.8004ZM232.413 69.5959C233.012 69.5959 233.504 69.4425 233.891 69.1356C234.277 68.8288 234.563 68.4254 234.749 67.9254C234.934 67.4254 235.027 66.8838 235.027 66.3004C235.027 65.7171 234.934 65.1735 234.749 64.6697C234.563 64.166 234.277 63.7588 233.891 63.4481C233.504 63.1375 233.012 62.9822 232.413 62.9822C231.815 62.9822 231.322 63.1375 230.936 63.4481C230.55 63.7588 230.264 64.166 230.078 64.6697C229.893 65.1735 229.8 65.7171 229.8 66.3004C229.8 66.8838 229.893 67.4254 230.078 67.9254C230.264 68.4254 230.55 68.8288 230.936 69.1356C231.322 69.4425 231.815 69.5959 232.413 69.5959ZM242.301 61.8913V63.0277H237.597V61.8913H242.301ZM239.006 70.6186V60.6868C239.006 60.1868 239.123 59.7701 239.358 59.4368C239.593 59.1035 239.898 58.8535 240.273 58.6868C240.648 58.5201 241.044 58.4368 241.46 58.4368C241.79 58.4368 242.059 58.4633 242.267 58.5163C242.475 58.5694 242.631 58.6186 242.733 58.6641L242.347 59.8231C242.278 59.8004 242.184 59.772 242.062 59.7379C241.945 59.7038 241.79 59.6868 241.597 59.6868C241.153 59.6868 240.833 59.7985 240.636 60.022C240.443 60.2455 240.347 60.5731 240.347 61.005V70.6186H239.006ZM252.226 70.8004C251.438 70.8004 250.747 70.6129 250.152 70.2379C249.561 69.8629 249.099 69.3383 248.766 68.6641C248.436 67.9898 248.271 67.2019 248.271 66.3004C248.271 65.3913 248.436 64.5978 248.766 63.9197C249.099 63.2417 249.561 62.7152 250.152 62.3402C250.747 61.9652 251.438 61.7777 252.226 61.7777C253.014 61.7777 253.703 61.9652 254.294 62.3402C254.889 62.7152 255.351 63.2417 255.68 63.9197C256.014 64.5978 256.18 65.3913 256.18 66.3004C256.18 67.2019 256.014 67.9898 255.68 68.6641C255.351 69.3383 254.889 69.8629 254.294 70.2379C253.703 70.6129 253.014 70.8004 252.226 70.8004ZM252.226 69.5959C252.824 69.5959 253.317 69.4425 253.703 69.1356C254.089 68.8288 254.375 68.4254 254.561 67.9254C254.747 67.4254 254.839 66.8838 254.839 66.3004C254.839 65.7171 254.747 65.1735 254.561 64.6697C254.375 64.166 254.089 63.7588 253.703 63.4481C253.317 63.1375 252.824 62.9822 252.226 62.9822C251.627 62.9822 251.135 63.1375 250.749 63.4481C250.362 63.7588 250.076 64.166 249.891 64.6697C249.705 65.1735 249.612 65.7171 249.612 66.3004C249.612 66.8838 249.705 67.4254 249.891 67.9254C250.076 68.4254 250.362 68.8288 250.749 69.1356C251.135 69.4425 251.627 69.5959 252.226 69.5959ZM262.114 61.8913V63.0277H257.409V61.8913H262.114ZM258.818 70.6186V60.6868C258.818 60.1868 258.936 59.7701 259.17 59.4368C259.405 59.1035 259.71 58.8535 260.085 58.6868C260.46 58.5201 260.856 58.4368 261.273 58.4368C261.602 58.4368 261.871 58.4633 262.08 58.5163C262.288 58.5694 262.443 58.6186 262.545 58.6641L262.159 59.8231C262.091 59.8004 261.996 59.772 261.875 59.7379C261.758 59.7038 261.602 59.6868 261.409 59.6868C260.966 59.6868 260.646 59.7985 260.449 60.022C260.256 60.2455 260.159 60.5731 260.159 61.005V70.6186H258.818ZM269.834 65.3686V70.6186H268.493V58.9822H269.834V63.255H269.947C270.152 62.8042 270.459 62.4463 270.868 62.1811C271.281 61.9122 271.83 61.7777 272.516 61.7777C273.11 61.7777 273.631 61.897 274.078 62.1356C274.525 62.3705 274.872 62.7322 275.118 63.2209C275.368 63.7057 275.493 64.3231 275.493 65.0731V70.6186H274.152V65.1641C274.152 64.4709 273.972 63.9349 273.612 63.5561C273.256 63.1735 272.762 62.9822 272.129 62.9822C271.69 62.9822 271.296 63.075 270.947 63.2606C270.603 63.4463 270.33 63.7171 270.129 64.0731C269.932 64.4292 269.834 64.861 269.834 65.3686ZM283.446 67.0504V61.8913H284.787V70.6186H283.446V69.1413H283.355C283.151 69.5845 282.832 69.9614 282.401 70.272C281.969 70.5788 281.423 70.7322 280.764 70.7322C280.219 70.7322 279.734 70.6129 279.31 70.3743C278.885 70.1319 278.552 69.7682 278.31 69.2834C278.067 68.7947 277.946 68.1792 277.946 67.4368V61.8913H279.287V67.3459C279.287 67.9822 279.465 68.4898 279.821 68.8686C280.181 69.2474 280.639 69.4368 281.196 69.4368C281.529 69.4368 281.868 69.3516 282.213 69.1811C282.562 69.0106 282.853 68.7493 283.088 68.397C283.327 68.0447 283.446 67.5959 283.446 67.0504ZM287.243 70.6186V61.8913H288.538V63.255H288.652C288.834 62.7891 289.127 62.4273 289.533 62.1697C289.938 61.9084 290.425 61.7777 290.993 61.7777C291.569 61.7777 292.048 61.9084 292.43 62.1697C292.817 62.4273 293.118 62.7891 293.334 63.255H293.425C293.648 62.8042 293.983 62.4463 294.43 62.1811C294.877 61.9122 295.413 61.7777 296.038 61.7777C296.819 61.7777 297.457 62.022 297.953 62.5106C298.449 62.9955 298.697 63.7512 298.697 64.7777V70.6186H297.357V64.7777C297.357 64.1338 297.18 63.6735 296.828 63.397C296.476 63.1205 296.061 62.9822 295.584 62.9822C294.97 62.9822 294.495 63.1678 294.158 63.5391C293.821 63.9065 293.652 64.3724 293.652 64.9368V70.6186H292.288V64.6413C292.288 64.1451 292.127 63.7455 291.805 63.4425C291.483 63.1356 291.069 62.9822 290.561 62.9822C290.213 62.9822 289.887 63.075 289.584 63.2606C289.285 63.4463 289.042 63.7038 288.857 64.0334C288.675 64.3591 288.584 64.736 288.584 65.1641V70.6186H287.243ZM303.717 70.8231C303.164 70.8231 302.662 70.719 302.212 70.5106C301.761 70.2985 301.403 69.9936 301.138 69.5959C300.873 69.1944 300.74 68.7095 300.74 68.1413C300.74 67.6413 300.839 67.236 301.036 66.9254C301.232 66.611 301.496 66.3648 301.825 66.1868C302.155 66.0088 302.518 65.8762 302.916 65.7891C303.318 65.6981 303.721 65.6262 304.126 65.5731C304.657 65.505 305.087 65.4538 305.416 65.4197C305.75 65.3819 305.992 65.3194 306.143 65.2322C306.299 65.1451 306.376 64.9936 306.376 64.7777V64.7322C306.376 64.1716 306.223 63.736 305.916 63.4254C305.613 63.1148 305.153 62.9595 304.536 62.9595C303.895 62.9595 303.393 63.0997 303.03 63.38C302.666 63.6603 302.411 63.9595 302.263 64.2777L300.99 63.8231C301.217 63.2928 301.52 62.88 301.899 62.5845C302.282 62.2853 302.698 62.0769 303.149 61.9595C303.604 61.8383 304.051 61.7777 304.49 61.7777C304.77 61.7777 305.092 61.8118 305.456 61.88C305.823 61.9444 306.178 62.0788 306.518 62.2834C306.863 62.4879 307.149 62.7966 307.376 63.2095C307.604 63.6224 307.717 64.1754 307.717 64.8686V70.6186H306.376V69.4368H306.308C306.217 69.6262 306.066 69.8288 305.854 70.0447C305.642 70.2606 305.359 70.4444 305.007 70.5959C304.655 70.7474 304.225 70.8231 303.717 70.8231ZM303.922 69.6186C304.452 69.6186 304.899 69.5144 305.263 69.3061C305.63 69.0978 305.907 68.8288 306.092 68.4993C306.282 68.1697 306.376 67.8231 306.376 67.4595V66.2322C306.32 66.3004 306.195 66.3629 306.001 66.4197C305.812 66.4728 305.592 66.5201 305.342 66.5618C305.096 66.5997 304.856 66.6338 304.621 66.6641C304.39 66.6906 304.202 66.7133 304.058 66.7322C303.71 66.7777 303.384 66.8516 303.081 66.9538C302.782 67.0523 302.539 67.2019 302.354 67.4027C302.172 67.5997 302.081 67.8686 302.081 68.2095C302.081 68.6754 302.253 69.0277 302.598 69.2663C302.946 69.5012 303.388 69.6186 303.922 69.6186ZM311.506 65.3686V70.6186H310.165V61.8913H311.46V63.255H311.574C311.778 62.8118 312.089 62.4557 312.506 62.1868C312.922 61.9141 313.46 61.7777 314.119 61.7777C314.71 61.7777 315.227 61.8989 315.67 62.1413C316.114 62.38 316.458 62.7436 316.705 63.2322C316.951 63.7171 317.074 64.3307 317.074 65.0731V70.6186H315.733V65.1641C315.733 64.4785 315.555 63.9444 315.199 63.5618C314.843 63.1754 314.354 62.9822 313.733 62.9822C313.305 62.9822 312.922 63.075 312.585 63.2606C312.252 63.4463 311.989 63.7171 311.795 64.0731C311.602 64.4292 311.506 64.861 311.506 65.3686ZM319.524 70.6186V61.8913H320.865V70.6186H319.524ZM320.206 60.4368C319.945 60.4368 319.719 60.3478 319.53 60.1697C319.344 59.9917 319.251 59.7777 319.251 59.5277C319.251 59.2777 319.344 59.0637 319.53 58.8856C319.719 58.7076 319.945 58.6186 320.206 58.6186C320.467 58.6186 320.691 58.7076 320.876 58.8856C321.066 59.0637 321.161 59.2777 321.161 59.5277C321.161 59.7777 321.066 59.9917 320.876 60.1697C320.691 60.3478 320.467 60.4368 320.206 60.4368ZM327.116 61.8913V63.0277H322.594V61.8913H327.116ZM323.912 59.8004H325.253V68.1186C325.253 68.4974 325.308 68.7815 325.418 68.9709C325.531 69.1565 325.675 69.2815 325.849 69.3459C326.027 69.4065 326.215 69.4368 326.412 69.4368C326.56 69.4368 326.681 69.4292 326.776 69.4141C326.87 69.3951 326.946 69.38 327.003 69.3686L327.276 70.5731C327.185 70.6072 327.058 70.6413 326.895 70.6754C326.732 70.7133 326.526 70.7322 326.276 70.7322C325.897 70.7322 325.526 70.6508 325.162 70.4879C324.802 70.325 324.503 70.0769 324.264 69.7436C324.029 69.4103 323.912 68.9898 323.912 68.4822V59.8004ZM329.997 73.8913C329.77 73.8913 329.567 73.8724 329.389 73.8345C329.211 73.8004 329.088 73.7663 329.02 73.7322L329.361 72.5504C329.687 72.6338 329.974 72.6641 330.224 72.6413C330.474 72.6186 330.696 72.5069 330.889 72.3061C331.086 72.1091 331.266 71.7891 331.429 71.3459L331.679 70.6641L328.452 61.8913H329.906L332.315 68.8459H332.406L334.815 61.8913H336.27L332.565 71.8913C332.399 72.3421 332.192 72.7152 331.946 73.0106C331.7 73.3099 331.414 73.5315 331.088 73.6754C330.766 73.8194 330.402 73.8913 329.997 73.8913ZM338.47 70.7095C338.19 70.7095 337.949 70.6091 337.749 70.4084C337.548 70.2076 337.447 69.9671 337.447 69.6868C337.447 69.4065 337.548 69.166 337.749 68.9652C337.949 68.7644 338.19 68.6641 338.47 68.6641C338.75 68.6641 338.991 68.7644 339.192 68.9652C339.393 69.166 339.493 69.4065 339.493 69.6868C339.493 69.8724 339.446 70.0428 339.351 70.1981C339.26 70.3535 339.137 70.4785 338.982 70.5731C338.83 70.6641 338.66 70.7095 338.47 70.7095ZM345.945 60.2322V58.9822H354.672V60.2322H351.013V70.6186H349.604V60.2322H345.945ZM358.945 70.8004C358.157 70.8004 357.465 70.6129 356.871 70.2379C356.28 69.8629 355.818 69.3383 355.484 68.6641C355.155 67.9898 354.99 67.2019 354.99 66.3004C354.99 65.3913 355.155 64.5978 355.484 63.9197C355.818 63.2417 356.28 62.7152 356.871 62.3402C357.465 61.9652 358.157 61.7777 358.945 61.7777C359.732 61.7777 360.422 61.9652 361.013 62.3402C361.607 62.7152 362.07 63.2417 362.399 63.9197C362.732 64.5978 362.899 65.3913 362.899 66.3004C362.899 67.2019 362.732 67.9898 362.399 68.6641C362.07 69.3383 361.607 69.8629 361.013 70.2379C360.422 70.6129 359.732 70.8004 358.945 70.8004ZM358.945 69.5959C359.543 69.5959 360.036 69.4425 360.422 69.1356C360.808 68.8288 361.094 68.4254 361.28 67.9254C361.465 67.4254 361.558 66.8838 361.558 66.3004C361.558 65.7171 361.465 65.1735 361.28 64.6697C361.094 64.166 360.808 63.7588 360.422 63.4481C360.036 63.1375 359.543 62.9822 358.945 62.9822C358.346 62.9822 357.854 63.1375 357.467 63.4481C357.081 63.7588 356.795 64.166 356.609 64.6697C356.424 65.1735 356.331 65.7171 356.331 66.3004C356.331 66.8838 356.424 67.4254 356.609 67.9254C356.795 68.4254 357.081 68.8288 357.467 69.1356C357.854 69.4425 358.346 69.5959 358.945 69.5959ZM373.105 70.8004C372.264 70.8004 371.539 70.6148 370.929 70.2436C370.323 69.8686 369.855 69.3459 369.526 68.6754C369.2 68.0012 369.037 67.2171 369.037 66.3231C369.037 65.4292 369.2 64.6413 369.526 63.9595C369.855 63.2739 370.313 62.7398 370.901 62.3572C371.491 61.9709 372.181 61.7777 372.969 61.7777C373.423 61.7777 373.872 61.8535 374.315 62.005C374.759 62.1565 375.162 62.4027 375.526 62.7436C375.889 63.0807 376.179 63.5277 376.395 64.0845C376.611 64.6413 376.719 65.3269 376.719 66.1413V66.7095H369.991V65.5504H375.355C375.355 65.058 375.257 64.6186 375.06 64.2322C374.866 63.8459 374.59 63.541 374.23 63.3175C373.874 63.094 373.454 62.9822 372.969 62.9822C372.435 62.9822 371.973 63.1148 371.582 63.38C371.196 63.6413 370.899 63.9822 370.69 64.4027C370.482 64.8231 370.378 65.2739 370.378 65.755V66.5277C370.378 67.1868 370.491 67.7455 370.719 68.2038C370.95 68.6584 371.27 69.005 371.679 69.2436C372.088 69.4785 372.563 69.5959 373.105 69.5959C373.457 69.5959 373.776 69.5466 374.06 69.4481C374.348 69.3459 374.596 69.1944 374.804 68.9936C375.012 68.7891 375.173 68.5353 375.287 68.2322L376.582 68.5959C376.446 69.0353 376.217 69.4216 375.895 69.755C375.573 70.0845 375.175 70.3421 374.702 70.5277C374.228 70.7095 373.696 70.8004 373.105 70.8004ZM378.759 70.6186V61.8913H380.054V63.2095H380.145C380.304 62.7777 380.592 62.4273 381.009 62.1584C381.425 61.8894 381.895 61.755 382.418 61.755C382.516 61.755 382.639 61.7569 382.787 61.7606C382.935 61.7644 383.046 61.7701 383.122 61.7777V63.1413C383.077 63.13 382.973 63.1129 382.81 63.0902C382.651 63.0637 382.482 63.0504 382.304 63.0504C381.88 63.0504 381.501 63.1394 381.168 63.3175C380.838 63.4917 380.577 63.7341 380.384 64.0447C380.194 64.3516 380.099 64.7019 380.099 65.0959V70.6186H378.759ZM384.712 70.6186V61.8913H386.007V63.2095H386.098C386.257 62.7777 386.545 62.4273 386.962 62.1584C387.378 61.8894 387.848 61.755 388.371 61.755C388.469 61.755 388.592 61.7569 388.74 61.7606C388.888 61.7644 389 61.7701 389.075 61.7777V63.1413C389.03 63.13 388.926 63.1129 388.763 63.0902C388.604 63.0637 388.435 63.0504 388.257 63.0504C387.833 63.0504 387.454 63.1394 387.121 63.3175C386.791 63.4917 386.53 63.7341 386.337 64.0447C386.147 64.3516 386.053 64.7019 386.053 65.0959V70.6186H384.712ZM393.945 70.8004C393.157 70.8004 392.465 70.6129 391.871 70.2379C391.28 69.8629 390.818 69.3383 390.484 68.6641C390.155 67.9898 389.99 67.2019 389.99 66.3004C389.99 65.3913 390.155 64.5978 390.484 63.9197C390.818 63.2417 391.28 62.7152 391.871 62.3402C392.465 61.9652 393.157 61.7777 393.945 61.7777C394.732 61.7777 395.422 61.9652 396.013 62.3402C396.607 62.7152 397.07 63.2417 397.399 63.9197C397.732 64.5978 397.899 65.3913 397.899 66.3004C397.899 67.2019 397.732 67.9898 397.399 68.6641C397.07 69.3383 396.607 69.8629 396.013 70.2379C395.422 70.6129 394.732 70.8004 393.945 70.8004ZM393.945 69.5959C394.543 69.5959 395.036 69.4425 395.422 69.1356C395.808 68.8288 396.094 68.4254 396.28 67.9254C396.465 67.4254 396.558 66.8838 396.558 66.3004C396.558 65.7171 396.465 65.1735 396.28 64.6697C396.094 64.166 395.808 63.7588 395.422 63.4481C395.036 63.1375 394.543 62.9822 393.945 62.9822C393.346 62.9822 392.854 63.1375 392.467 63.4481C392.081 63.7588 391.795 64.166 391.609 64.6697C391.424 65.1735 391.331 65.7171 391.331 66.3004C391.331 66.8838 391.424 67.4254 391.609 67.9254C391.795 68.4254 392.081 68.8288 392.467 69.1356C392.854 69.4425 393.346 69.5959 393.945 69.5959ZM399.946 70.6186V61.8913H401.241V63.2095H401.332C401.491 62.7777 401.779 62.4273 402.196 62.1584C402.613 61.8894 403.082 61.755 403.605 61.755C403.704 61.755 403.827 61.7569 403.974 61.7606C404.122 61.7644 404.234 61.7701 404.31 61.7777V63.1413C404.264 63.13 404.16 63.1129 403.997 63.0902C403.838 63.0637 403.67 63.0504 403.491 63.0504C403.067 63.0504 402.688 63.1394 402.355 63.3175C402.026 63.4917 401.764 63.7341 401.571 64.0447C401.382 64.3516 401.287 64.7019 401.287 65.0959V70.6186H399.946ZM410.399 70.6186V61.8913H411.74V70.6186H410.399ZM411.081 60.4368C410.82 60.4368 410.594 60.3478 410.405 60.1697C410.219 59.9917 410.126 59.7777 410.126 59.5277C410.126 59.2777 410.219 59.0637 410.405 58.8856C410.594 58.7076 410.82 58.6186 411.081 58.6186C411.342 58.6186 411.566 58.7076 411.751 58.8856C411.941 59.0637 412.036 59.2777 412.036 59.5277C412.036 59.7777 411.941 59.9917 411.751 60.1697C411.566 60.3478 411.342 60.4368 411.081 60.4368ZM420.378 63.8459L419.173 64.1868C419.098 63.986 418.986 63.791 418.838 63.6016C418.694 63.4084 418.497 63.2493 418.247 63.1243C417.997 62.9993 417.677 62.9368 417.287 62.9368C416.753 62.9368 416.308 63.0599 415.952 63.3061C415.599 63.5485 415.423 63.8572 415.423 64.2322C415.423 64.5656 415.545 64.8288 415.787 65.022C416.029 65.2152 416.408 65.3762 416.923 65.505L418.219 65.8231C418.999 66.0125 419.58 66.3023 419.963 66.6925C420.346 67.0788 420.537 67.5769 420.537 68.1868C420.537 68.6868 420.393 69.1338 420.105 69.5277C419.821 69.9216 419.423 70.2322 418.912 70.4595C418.401 70.6868 417.806 70.8004 417.128 70.8004C416.238 70.8004 415.501 70.6072 414.918 70.2209C414.334 69.8345 413.965 69.2701 413.81 68.5277L415.082 68.2095C415.204 68.6792 415.433 69.0315 415.77 69.2663C416.111 69.5012 416.556 69.6186 417.105 69.6186C417.73 69.6186 418.226 69.486 418.594 69.2209C418.965 68.9519 419.151 68.63 419.151 68.255C419.151 67.9519 419.045 67.6981 418.832 67.4936C418.62 67.2853 418.295 67.13 417.855 67.0277L416.401 66.6868C415.601 66.4974 415.014 66.2038 414.639 65.8061C414.268 65.4046 414.082 64.9027 414.082 64.3004C414.082 63.808 414.221 63.3724 414.497 62.9936C414.777 62.6148 415.158 62.3175 415.639 62.1016C416.124 61.8856 416.673 61.7777 417.287 61.7777C418.151 61.7777 418.829 61.9671 419.321 62.3459C419.817 62.7247 420.17 63.2247 420.378 63.8459ZM429.624 70.8231C429.071 70.8231 428.569 70.719 428.118 70.5106C427.667 70.2985 427.309 69.9936 427.044 69.5959C426.779 69.1944 426.646 68.7095 426.646 68.1413C426.646 67.6413 426.745 67.236 426.942 66.9254C427.139 66.611 427.402 66.3648 427.732 66.1868C428.061 66.0088 428.425 65.8762 428.822 65.7891C429.224 65.6981 429.627 65.6262 430.033 65.5731C430.563 65.505 430.993 65.4538 431.322 65.4197C431.656 65.3819 431.898 65.3194 432.05 65.2322C432.205 65.1451 432.283 64.9936 432.283 64.7777V64.7322C432.283 64.1716 432.129 63.736 431.822 63.4254C431.519 63.1148 431.059 62.9595 430.442 62.9595C429.802 62.9595 429.3 63.0997 428.936 63.38C428.572 63.6603 428.317 63.9595 428.169 64.2777L426.896 63.8231C427.124 63.2928 427.427 62.88 427.805 62.5845C428.188 62.2853 428.605 62.0769 429.055 61.9595C429.51 61.8383 429.957 61.7777 430.396 61.7777C430.677 61.7777 430.999 61.8118 431.362 61.88C431.73 61.9444 432.084 62.0788 432.425 62.2834C432.769 62.4879 433.055 62.7966 433.283 63.2095C433.51 63.6224 433.624 64.1754 433.624 64.8686V70.6186H432.283V69.4368H432.214C432.124 69.6262 431.972 69.8288 431.76 70.0447C431.548 70.2606 431.266 70.4444 430.913 70.5959C430.561 70.7474 430.131 70.8231 429.624 70.8231ZM429.828 69.6186C430.358 69.6186 430.805 69.5144 431.169 69.3061C431.536 69.0978 431.813 68.8288 431.999 68.4993C432.188 68.1697 432.283 67.8231 432.283 67.4595V66.2322C432.226 66.3004 432.101 66.3629 431.908 66.4197C431.718 66.4728 431.499 66.5201 431.249 66.5618C431.002 66.5997 430.762 66.6338 430.527 66.6641C430.296 66.6906 430.108 66.7133 429.964 66.7322C429.616 66.7777 429.29 66.8516 428.987 66.9538C428.688 67.0523 428.446 67.2019 428.26 67.4027C428.078 67.5997 427.987 67.8686 427.987 68.2095C427.987 68.6754 428.16 69.0277 428.504 69.2663C428.853 69.5012 429.294 69.6186 429.828 69.6186ZM437.412 65.3686V70.6186H436.071V61.8913H437.366V63.255H437.48C437.685 62.8118 437.995 62.4557 438.412 62.1868C438.829 61.9141 439.366 61.7777 440.026 61.7777C440.616 61.7777 441.134 61.8989 441.577 62.1413C442.02 62.38 442.365 62.7436 442.611 63.2322C442.857 63.7171 442.98 64.3307 442.98 65.0731V70.6186H441.639V65.1641C441.639 64.4785 441.461 63.9444 441.105 63.5618C440.749 63.1754 440.26 62.9822 439.639 62.9822C439.211 62.9822 438.829 63.075 438.491 63.2606C438.158 63.4463 437.895 63.7171 437.702 64.0731C437.509 64.4292 437.412 64.861 437.412 65.3686ZM126.773 89.8004C125.985 89.8004 125.294 89.6129 124.699 89.2379C124.108 88.8629 123.646 88.3383 123.312 87.6641C122.983 86.9898 122.818 86.2019 122.818 85.3004C122.818 84.3913 122.983 83.5978 123.312 82.9197C123.646 82.2417 124.108 81.7152 124.699 81.3402C125.294 80.9652 125.985 80.7777 126.773 80.7777C127.561 80.7777 128.25 80.9652 128.841 81.3402C129.436 81.7152 129.898 82.2417 130.227 82.9197C130.561 83.5978 130.727 84.3913 130.727 85.3004C130.727 86.2019 130.561 86.9898 130.227 87.6641C129.898 88.3383 129.436 88.8629 128.841 89.2379C128.25 89.6129 127.561 89.8004 126.773 89.8004ZM126.773 88.5959C127.371 88.5959 127.864 88.4425 128.25 88.1356C128.636 87.8288 128.922 87.4254 129.108 86.9254C129.294 86.4254 129.386 85.8838 129.386 85.3004C129.386 84.7171 129.294 84.1735 129.108 83.6697C128.922 83.166 128.636 82.7588 128.25 82.4481C127.864 82.1375 127.371 81.9822 126.773 81.9822C126.174 81.9822 125.682 82.1375 125.295 82.4481C124.909 82.7588 124.623 83.166 124.438 83.6697C124.252 84.1735 124.159 84.7171 124.159 85.3004C124.159 85.8838 124.252 86.4254 124.438 86.9254C124.623 87.4254 124.909 87.8288 125.295 88.1356C125.682 88.4425 126.174 88.5959 126.773 88.5959ZM132.774 92.8913V80.8913H134.07V82.2777H134.229C134.327 82.1262 134.464 81.933 134.638 81.6981C134.816 81.4595 135.07 81.2474 135.399 81.0618C135.732 80.8724 136.183 80.7777 136.751 80.7777C137.486 80.7777 138.134 80.9614 138.695 81.3288C139.255 81.6963 139.693 82.2171 140.007 82.8913C140.321 83.5656 140.479 84.361 140.479 85.2777C140.479 86.2019 140.321 87.0031 140.007 87.6811C139.693 88.3553 139.257 88.8781 138.7 89.2493C138.143 89.6167 137.501 89.8004 136.774 89.8004C136.214 89.8004 135.765 89.7076 135.428 89.522C135.09 89.3326 134.831 89.1186 134.649 88.88C134.467 88.6375 134.327 88.4368 134.229 88.2777H134.115V92.8913H132.774ZM134.092 85.255C134.092 85.9141 134.189 86.4955 134.382 86.9993C134.575 87.4993 134.857 87.8913 135.229 88.1754C135.6 88.4557 136.054 88.5959 136.592 88.5959C137.153 88.5959 137.621 88.4481 137.996 88.1527C138.375 87.8535 138.659 87.4519 138.848 86.9481C139.041 86.4406 139.138 85.8762 139.138 85.255C139.138 84.6413 139.043 84.0883 138.854 83.5959C138.668 83.0997 138.386 82.7076 138.007 82.4197C137.632 82.1281 137.161 81.9822 136.592 81.9822C136.047 81.9822 135.589 82.1205 135.217 82.397C134.846 82.6697 134.566 83.0523 134.376 83.5447C134.187 84.0334 134.092 84.6035 134.092 85.255ZM142.524 92.8913V80.8913H143.82V82.2777H143.979C144.077 82.1262 144.214 81.933 144.388 81.6981C144.566 81.4595 144.82 81.2474 145.149 81.0618C145.482 80.8724 145.933 80.7777 146.501 80.7777C147.236 80.7777 147.884 80.9614 148.445 81.3288C149.005 81.6963 149.443 82.2171 149.757 82.8913C150.071 83.5656 150.229 84.361 150.229 85.2777C150.229 86.2019 150.071 87.0031 149.757 87.6811C149.443 88.3553 149.007 88.8781 148.45 89.2493C147.893 89.6167 147.251 89.8004 146.524 89.8004C145.964 89.8004 145.515 89.7076 145.178 89.522C144.84 89.3326 144.581 89.1186 144.399 88.88C144.217 88.6375 144.077 88.4368 143.979 88.2777H143.865V92.8913H142.524ZM143.842 85.255C143.842 85.9141 143.939 86.4955 144.132 86.9993C144.325 87.4993 144.607 87.8913 144.979 88.1754C145.35 88.4557 145.804 88.5959 146.342 88.5959C146.903 88.5959 147.371 88.4481 147.746 88.1527C148.125 87.8535 148.409 87.4519 148.598 86.9481C148.791 86.4406 148.888 85.8762 148.888 85.255C148.888 84.6413 148.793 84.0883 148.604 83.5959C148.418 83.0997 148.136 82.7076 147.757 82.4197C147.382 82.1281 146.911 81.9822 146.342 81.9822C145.797 81.9822 145.339 82.1205 144.967 82.397C144.596 82.6697 144.316 83.0523 144.126 83.5447C143.937 84.0334 143.842 84.6035 143.842 85.255ZM155.82 89.8004C155.032 89.8004 154.34 89.6129 153.746 89.2379C153.155 88.8629 152.693 88.3383 152.359 87.6641C152.03 86.9898 151.865 86.2019 151.865 85.3004C151.865 84.3913 152.03 83.5978 152.359 82.9197C152.693 82.2417 153.155 81.7152 153.746 81.3402C154.34 80.9652 155.032 80.7777 155.82 80.7777C156.607 80.7777 157.297 80.9652 157.888 81.3402C158.482 81.7152 158.945 82.2417 159.274 82.9197C159.607 83.5978 159.774 84.3913 159.774 85.3004C159.774 86.2019 159.607 86.9898 159.274 87.6641C158.945 88.3383 158.482 88.8629 157.888 89.2379C157.297 89.6129 156.607 89.8004 155.82 89.8004ZM155.82 88.5959C156.418 88.5959 156.911 88.4425 157.297 88.1356C157.683 87.8288 157.969 87.4254 158.155 86.9254C158.34 86.4254 158.433 85.8838 158.433 85.3004C158.433 84.7171 158.34 84.1735 158.155 83.6697C157.969 83.166 157.683 82.7588 157.297 82.4481C156.911 82.1375 156.418 81.9822 155.82 81.9822C155.221 81.9822 154.729 82.1375 154.342 82.4481C153.956 82.7588 153.67 83.166 153.484 83.6697C153.299 84.1735 153.206 84.7171 153.206 85.3004C153.206 85.8838 153.299 86.4254 153.484 86.9254C153.67 87.4254 153.956 87.8288 154.342 88.1356C154.729 88.4425 155.221 88.5959 155.82 88.5959ZM161.821 89.6186V80.8913H163.116V82.2095H163.207C163.366 81.7777 163.654 81.4273 164.071 81.1584C164.488 80.8894 164.957 80.755 165.48 80.755C165.579 80.755 165.702 80.7569 165.849 80.7606C165.997 80.7644 166.109 80.7701 166.185 80.7777V82.1413C166.139 82.13 166.035 82.1129 165.872 82.0902C165.713 82.0637 165.545 82.0504 165.366 82.0504C164.942 82.0504 164.563 82.1394 164.23 82.3175C163.901 82.4917 163.639 82.7341 163.446 83.0447C163.257 83.3516 163.162 83.7019 163.162 84.0959V89.6186H161.821ZM172.116 80.8913V82.0277H167.594V80.8913H172.116ZM168.912 78.8004H170.253V87.1186C170.253 87.4974 170.308 87.7815 170.418 87.9709C170.531 88.1565 170.675 88.2815 170.849 88.3459C171.027 88.4065 171.215 88.4368 171.412 88.4368C171.56 88.4368 171.681 88.4292 171.776 88.4141C171.87 88.3951 171.946 88.38 172.003 88.3686L172.276 89.5731C172.185 89.6072 172.058 89.6413 171.895 89.6754C171.732 89.7133 171.526 89.7322 171.276 89.7322C170.897 89.7322 170.526 89.6508 170.162 89.4879C169.802 89.325 169.503 89.0769 169.264 88.7436C169.029 88.4103 168.912 87.9898 168.912 87.4822V78.8004ZM179.634 86.0504V80.8913H180.974V89.6186H179.634V88.1413H179.543C179.338 88.5845 179.02 88.9614 178.588 89.272C178.156 89.5788 177.611 89.7322 176.952 89.7322C176.406 89.7322 175.921 89.6129 175.497 89.3743C175.073 89.1319 174.74 88.7682 174.497 88.2834C174.255 87.7947 174.134 87.1792 174.134 86.4368V80.8913H175.474V86.3459C175.474 86.9822 175.652 87.4898 176.009 87.8686C176.368 88.2474 176.827 88.4368 177.384 88.4368C177.717 88.4368 178.056 88.3516 178.401 88.1811C178.749 88.0106 179.041 87.7493 179.276 87.397C179.514 87.0447 179.634 86.5959 179.634 86.0504ZM184.771 84.3686V89.6186H183.43V80.8913H184.726V82.255H184.839C185.044 81.8118 185.355 81.4557 185.771 81.1868C186.188 80.9141 186.726 80.7777 187.385 80.7777C187.976 80.7777 188.493 80.8989 188.936 81.1413C189.379 81.38 189.724 81.7436 189.97 82.2322C190.216 82.7171 190.339 83.3307 190.339 84.0731V89.6186H188.999V84.1641C188.999 83.4785 188.821 82.9444 188.464 82.5618C188.108 82.1754 187.62 81.9822 186.999 81.9822C186.571 81.9822 186.188 82.075 185.851 82.2606C185.518 82.4463 185.254 82.7171 185.061 83.0731C184.868 83.4292 184.771 83.861 184.771 84.3686ZM192.79 89.6186V80.8913H194.131V89.6186H192.79ZM193.472 79.4368C193.21 79.4368 192.985 79.3478 192.795 79.1697C192.61 78.9917 192.517 78.7777 192.517 78.5277C192.517 78.2777 192.61 78.0637 192.795 77.8856C192.985 77.7076 193.21 77.6186 193.472 77.6186C193.733 77.6186 193.956 77.7076 194.142 77.8856C194.331 78.0637 194.426 78.2777 194.426 78.5277C194.426 78.7777 194.331 78.9917 194.142 79.1697C193.956 79.3478 193.733 79.4368 193.472 79.4368ZM200.382 80.8913V82.0277H195.859V80.8913H200.382ZM197.178 78.8004H198.518V87.1186C198.518 87.4974 198.573 87.7815 198.683 87.9709C198.797 88.1565 198.941 88.2815 199.115 88.3459C199.293 88.4065 199.481 88.4368 199.678 88.4368C199.825 88.4368 199.946 88.4292 200.041 88.4141C200.136 88.3951 200.212 88.38 200.268 88.3686L200.541 89.5731C200.45 89.6072 200.323 89.6413 200.161 89.6754C199.998 89.7133 199.791 89.7322 199.541 89.7322C199.162 89.7322 198.791 89.6508 198.428 89.4879C198.068 89.325 197.768 89.0769 197.53 88.7436C197.295 88.4103 197.178 87.9898 197.178 87.4822V78.8004ZM203.263 92.8913C203.036 92.8913 202.833 92.8724 202.655 92.8345C202.477 92.8004 202.354 92.7663 202.286 92.7322L202.626 91.5504C202.952 91.6338 203.24 91.6641 203.49 91.6413C203.74 91.6186 203.962 91.5069 204.155 91.3061C204.352 91.1091 204.532 90.7891 204.695 90.3459L204.945 89.6641L201.717 80.8913H203.172L205.581 87.8459H205.672L208.081 80.8913H209.536L205.831 90.8913C205.664 91.3421 205.458 91.7152 205.212 92.0106C204.965 92.3099 204.679 92.5315 204.354 92.6754C204.032 92.8194 203.668 92.8913 203.263 92.8913ZM219.692 80.8913V82.0277H214.987V80.8913H219.692ZM216.396 89.6186V79.6868C216.396 79.1868 216.514 78.7701 216.749 78.4368C216.983 78.1035 217.288 77.8535 217.663 77.6868C218.038 77.5201 218.434 77.4368 218.851 77.4368C219.18 77.4368 219.449 77.4633 219.658 77.5163C219.866 77.5694 220.021 77.6186 220.124 77.6641L219.737 78.8231C219.669 78.8004 219.574 78.772 219.453 78.7379C219.336 78.7038 219.18 78.6868 218.987 78.6868C218.544 78.6868 218.224 78.7985 218.027 79.022C217.834 79.2455 217.737 79.5731 217.737 80.005V89.6186H216.396ZM224.757 89.8004C223.969 89.8004 223.278 89.6129 222.683 89.2379C222.092 88.8629 221.63 88.3383 221.297 87.6641C220.967 86.9898 220.803 86.2019 220.803 85.3004C220.803 84.3913 220.967 83.5978 221.297 82.9197C221.63 82.2417 222.092 81.7152 222.683 81.3402C223.278 80.9652 223.969 80.7777 224.757 80.7777C225.545 80.7777 226.234 80.9652 226.825 81.3402C227.42 81.7152 227.882 82.2417 228.212 82.9197C228.545 83.5978 228.712 84.3913 228.712 85.3004C228.712 86.2019 228.545 86.9898 228.212 87.6641C227.882 88.3383 227.42 88.8629 226.825 89.2379C226.234 89.6129 225.545 89.8004 224.757 89.8004ZM224.757 88.5959C225.356 88.5959 225.848 88.4425 226.234 88.1356C226.621 87.8288 226.907 87.4254 227.092 86.9254C227.278 86.4254 227.371 85.8838 227.371 85.3004C227.371 84.7171 227.278 84.1735 227.092 83.6697C226.907 83.166 226.621 82.7588 226.234 82.4481C225.848 82.1375 225.356 81.9822 224.757 81.9822C224.159 81.9822 223.666 82.1375 223.28 82.4481C222.893 82.7588 222.607 83.166 222.422 83.6697C222.236 84.1735 222.143 84.7171 222.143 85.3004C222.143 85.8838 222.236 86.4254 222.422 86.9254C222.607 87.4254 222.893 87.8288 223.28 88.1356C223.666 88.4425 224.159 88.5959 224.757 88.5959ZM230.759 89.6186V80.8913H232.054V82.2095H232.145C232.304 81.7777 232.592 81.4273 233.009 81.1584C233.425 80.8894 233.895 80.755 234.418 80.755C234.516 80.755 234.639 80.7569 234.787 80.7606C234.935 80.7644 235.046 80.7701 235.122 80.7777V82.1413C235.077 82.13 234.973 82.1129 234.81 82.0902C234.651 82.0637 234.482 82.0504 234.304 82.0504C233.88 82.0504 233.501 82.1394 233.168 82.3175C232.838 82.4917 232.577 82.7341 232.384 83.0447C232.194 83.3516 232.099 83.7019 232.099 84.0959V89.6186H230.759ZM241.212 89.6186V80.8913H242.507V82.2095H242.598C242.757 81.7777 243.045 81.4273 243.462 81.1584C243.878 80.8894 244.348 80.755 244.871 80.755C244.969 80.755 245.092 80.7569 245.24 80.7606C245.388 80.7644 245.5 80.7701 245.575 80.7777V82.1413C245.53 82.13 245.426 82.1129 245.263 82.0902C245.104 82.0637 244.935 82.0504 244.757 82.0504C244.333 82.0504 243.954 82.1394 243.621 82.3175C243.291 82.4917 243.03 82.7341 242.837 83.0447C242.647 83.3516 242.553 83.7019 242.553 84.0959V89.6186H241.212ZM250.558 89.8004C249.717 89.8004 248.992 89.6148 248.382 89.2436C247.776 88.8686 247.308 88.3459 246.979 87.6754C246.653 87.0012 246.49 86.2171 246.49 85.3231C246.49 84.4292 246.653 83.6413 246.979 82.9595C247.308 82.2739 247.767 81.7398 248.354 81.3572C248.945 80.9709 249.634 80.7777 250.422 80.7777C250.876 80.7777 251.325 80.8535 251.768 81.005C252.212 81.1565 252.615 81.4027 252.979 81.7436C253.342 82.0807 253.632 82.5277 253.848 83.0845C254.064 83.6413 254.172 84.3269 254.172 85.1413V85.7095H247.445V84.5504H252.808C252.808 84.058 252.71 83.6186 252.513 83.2322C252.32 82.8459 252.043 82.541 251.683 82.3175C251.327 82.094 250.907 81.9822 250.422 81.9822C249.888 81.9822 249.426 82.1148 249.036 82.38C248.649 82.6413 248.352 82.9822 248.143 83.4027C247.935 83.8231 247.831 84.2739 247.831 84.755V85.5277C247.831 86.1868 247.945 86.7455 248.172 87.2038C248.403 87.6584 248.723 88.005 249.132 88.2436C249.541 88.4785 250.017 88.5959 250.558 88.5959C250.911 88.5959 251.229 88.5466 251.513 88.4481C251.801 88.3459 252.049 88.1944 252.257 87.9936C252.465 87.7891 252.626 87.5353 252.74 87.2322L254.036 87.5959C253.899 88.0353 253.67 88.4216 253.348 88.755C253.026 89.0845 252.628 89.3421 252.155 89.5277C251.681 89.7095 251.149 89.8004 250.558 89.8004ZM260.098 80.8913V82.0277H255.393V80.8913H260.098ZM256.803 89.6186V79.6868C256.803 79.1868 256.92 78.7701 257.155 78.4368C257.39 78.1035 257.695 77.8535 258.07 77.6868C258.445 77.5201 258.84 77.4368 259.257 77.4368C259.587 77.4368 259.856 77.4633 260.064 77.5163C260.272 77.5694 260.428 77.6186 260.53 77.6641L260.143 78.8231C260.075 78.8004 259.981 78.772 259.859 78.7379C259.742 78.7038 259.587 78.6868 259.393 78.6868C258.95 78.6868 258.63 78.7985 258.433 79.022C258.24 79.2455 258.143 79.5731 258.143 80.005V89.6186H256.803ZM263.318 77.9822V89.6186H261.977V77.9822H263.318ZM269.433 89.8004C268.592 89.8004 267.867 89.6148 267.257 89.2436C266.651 88.8686 266.183 88.3459 265.854 87.6754C265.528 87.0012 265.365 86.2171 265.365 85.3231C265.365 84.4292 265.528 83.6413 265.854 82.9595C266.183 82.2739 266.642 81.7398 267.229 81.3572C267.82 80.9709 268.509 80.7777 269.297 80.7777C269.751 80.7777 270.2 80.8535 270.643 81.005C271.087 81.1565 271.49 81.4027 271.854 81.7436C272.217 82.0807 272.507 82.5277 272.723 83.0845C272.939 83.6413 273.047 84.3269 273.047 85.1413V85.7095H266.32V84.5504H271.683C271.683 84.058 271.585 83.6186 271.388 83.2322C271.195 82.8459 270.918 82.541 270.558 82.3175C270.202 82.094 269.782 81.9822 269.297 81.9822C268.763 81.9822 268.301 82.1148 267.911 82.38C267.524 82.6413 267.227 82.9822 267.018 83.4027C266.81 83.8231 266.706 84.2739 266.706 84.755V85.5277C266.706 86.1868 266.82 86.7455 267.047 87.2038C267.278 87.6584 267.598 88.005 268.007 88.2436C268.416 88.4785 268.892 88.5959 269.433 88.5959C269.786 88.5959 270.104 88.5466 270.388 88.4481C270.676 88.3459 270.924 88.1944 271.132 87.9936C271.34 87.7891 271.501 87.5353 271.615 87.2322L272.911 87.5959C272.774 88.0353 272.545 88.4216 272.223 88.755C271.901 89.0845 271.503 89.3421 271.03 89.5277C270.556 89.7095 270.024 89.8004 269.433 89.8004ZM278.632 89.8004C277.814 89.8004 277.109 89.6072 276.518 89.2209C275.928 88.8345 275.473 88.3023 275.155 87.6243C274.837 86.9463 274.678 86.1716 274.678 85.3004C274.678 84.4141 274.84 83.6319 275.166 82.9538C275.496 82.272 275.954 81.7398 276.541 81.3572C277.132 80.9709 277.821 80.7777 278.609 80.7777C279.223 80.7777 279.776 80.8913 280.268 81.1186C280.761 81.3459 281.164 81.6641 281.479 82.0731C281.793 82.4822 281.988 82.9595 282.064 83.505H280.723C280.621 83.1072 280.393 82.755 280.041 82.4481C279.693 82.1375 279.223 81.9822 278.632 81.9822C278.109 81.9822 277.651 82.1186 277.257 82.3913C276.867 82.6603 276.562 83.041 276.342 83.5334C276.126 84.022 276.018 84.5959 276.018 85.255C276.018 85.9292 276.125 86.5163 276.337 87.0163C276.553 87.5163 276.856 87.9046 277.246 88.1811C277.64 88.4576 278.102 88.5959 278.632 88.5959C278.981 88.5959 279.297 88.5353 279.581 88.4141C279.865 88.2928 280.106 88.1186 280.303 87.8913C280.5 87.6641 280.64 87.3913 280.723 87.0731H282.064C281.988 87.5883 281.801 88.0523 281.501 88.4652C281.206 88.8743 280.814 89.2 280.325 89.4425C279.84 89.6811 279.276 89.8004 278.632 89.8004ZM287.82 80.8913V82.0277H283.297V80.8913H287.82ZM284.615 78.8004H285.956V87.1186C285.956 87.4974 286.011 87.7815 286.121 87.9709C286.234 88.1565 286.378 88.2815 286.553 88.3459C286.731 88.4065 286.918 88.4368 287.115 88.4368C287.263 88.4368 287.384 88.4292 287.479 88.4141C287.573 88.3951 287.649 88.38 287.706 88.3686L287.979 89.5731C287.888 89.6072 287.761 89.6413 287.598 89.6754C287.435 89.7133 287.229 89.7322 286.979 89.7322C286.6 89.7322 286.229 89.6508 285.865 89.4879C285.505 89.325 285.206 89.0769 284.967 88.7436C284.732 88.4103 284.615 87.9898 284.615 87.4822V78.8004ZM289.837 89.6186V80.8913H291.178V89.6186H289.837ZM290.518 79.4368C290.257 79.4368 290.032 79.3478 289.842 79.1697C289.657 78.9917 289.564 78.7777 289.564 78.5277C289.564 78.2777 289.657 78.0637 289.842 77.8856C290.032 77.7076 290.257 77.6186 290.518 77.6186C290.78 77.6186 291.003 77.7076 291.189 77.8856C291.378 78.0637 291.473 78.2777 291.473 78.5277C291.473 78.7777 291.378 78.9917 291.189 79.1697C291.003 79.3478 290.78 79.4368 290.518 79.4368ZM297.179 89.8004C296.391 89.8004 295.7 89.6129 295.105 89.2379C294.514 88.8629 294.052 88.3383 293.719 87.6641C293.389 86.9898 293.224 86.2019 293.224 85.3004C293.224 84.3913 293.389 83.5978 293.719 82.9197C294.052 82.2417 294.514 81.7152 295.105 81.3402C295.7 80.9652 296.391 80.7777 297.179 80.7777C297.967 80.7777 298.656 80.9652 299.247 81.3402C299.842 81.7152 300.304 82.2417 300.634 82.9197C300.967 83.5978 301.134 84.3913 301.134 85.3004C301.134 86.2019 300.967 86.9898 300.634 87.6641C300.304 88.3383 299.842 88.8629 299.247 89.2379C298.656 89.6129 297.967 89.8004 297.179 89.8004ZM297.179 88.5959C297.777 88.5959 298.27 88.4425 298.656 88.1356C299.043 87.8288 299.329 87.4254 299.514 86.9254C299.7 86.4254 299.793 85.8838 299.793 85.3004C299.793 84.7171 299.7 84.1735 299.514 83.6697C299.329 83.166 299.043 82.7588 298.656 82.4481C298.27 82.1375 297.777 81.9822 297.179 81.9822C296.58 81.9822 296.088 82.1375 295.702 82.4481C295.315 82.7588 295.029 83.166 294.844 83.6697C294.658 84.1735 294.565 84.7171 294.565 85.3004C294.565 85.8838 294.658 86.4254 294.844 86.9254C295.029 87.4254 295.315 87.8288 295.702 88.1356C296.088 88.4425 296.58 88.5959 297.179 88.5959ZM304.521 84.3686V89.6186H303.18V80.8913H304.476V82.255H304.589C304.794 81.8118 305.105 81.4557 305.521 81.1868C305.938 80.9141 306.476 80.7777 307.135 80.7777C307.726 80.7777 308.243 80.8989 308.686 81.1413C309.129 81.38 309.474 81.7436 309.72 82.2322C309.966 82.7171 310.089 83.3307 310.089 84.0731V89.6186H308.749V84.1641C308.749 83.4785 308.571 82.9444 308.214 82.5618C307.858 82.1754 307.37 81.9822 306.749 81.9822C306.321 81.9822 305.938 82.075 305.601 82.2606C305.268 82.4463 305.004 82.7171 304.811 83.0731C304.618 83.4292 304.521 83.861 304.521 84.3686ZM313.517 89.7095C313.237 89.7095 312.996 89.6091 312.795 89.4084C312.595 89.2076 312.494 88.9671 312.494 88.6868C312.494 88.4065 312.595 88.166 312.795 87.9652C312.996 87.7644 313.237 87.6641 313.517 87.6641C313.797 87.6641 314.038 87.7644 314.239 87.9652C314.439 88.166 314.54 88.4065 314.54 88.6868C314.54 88.8724 314.492 89.0428 314.398 89.1981C314.307 89.3535 314.184 89.4785 314.028 89.5731C313.877 89.6641 313.706 89.7095 313.517 89.7095Z" fill="#303030"/>
<mask id="mask0_1205_122" style="mask-type:alpha" maskUnits="userSpaceOnUse" x="0" y="0" width="104" height="104">
<path d="M70.182 101.619V90.5075C70.182 84.6138 68.2664 78.9616 64.8566 74.7941C61.4469 70.6266 56.8222 68.2854 52.0001 68.2854H20.1819C15.3597 68.2854 10.7351 70.6266 7.32534 74.7941C3.91558 78.9616 2 84.6138 2 90.5075V101.619" stroke="black" stroke-width="3.14876" stroke-linecap="round" stroke-linejoin="round"/>
<path d="M36.0901 46.0629C46.1316 46.0629 54.2719 36.1137 54.2719 23.8408C54.2719 11.5678 46.1316 1.6186 36.0901 1.6186C26.0485 1.6186 17.9082 11.5678 17.9082 23.8408C17.9082 36.1137 26.0485 46.0629 36.0901 46.0629Z" stroke="black" stroke-width="3.14876" stroke-linecap="round" stroke-linejoin="round"/>
<path d="M74.7271 46.0631L83.818 57.1741L102 34.952" stroke="black" stroke-width="3.14876" stroke-linecap="round" stroke-linejoin="round"/>
</mask>
<g mask="url(#mask0_1205_122)">
<rect x="-71.6491" y="-16.432" width="292.752" height="178.26" rx="7.44735" fill="url(#paint0_linear_1205_122)" stroke="white" stroke-width="1.65497"/>
</g>
<defs>
<linearGradient id="paint0_linear_1205_122" x1="-72.4766" y1="-17.2595" x2="87.6268" y2="244.729" gradientUnits="userSpaceOnUse">
<stop stop-color="#00D1FF"/>
<stop offset="1" stop-color="#3300FF"/>
</linearGradient>
</defs>
</svg>
