<svg width="16" height="12" viewBox="0 0 16 12" fill="none" xmlns="http://www.w3.org/2000/svg">
<path fill-rule="evenodd" clip-rule="evenodd" d="M14 12C14.5304 12 15.0391 11.7893 15.4142 11.4142C15.7893 11.0391 16 10.5304 16 10V7C16 6.46957 15.7893 5.96086 15.4142 5.58579C15.0391 5.21071 14.5304 5 14 5H11C11 4.20435 11.3161 3.44129 11.8787 2.87868C12.4413 2.31607 13.2044 2 14 2H15C15.2652 2 15.5196 1.89464 15.7071 1.70711C15.8946 1.51957 16 1.26522 16 1C16 0.734784 15.8946 0.480429 15.7071 0.292892C15.5196 0.105356 15.2652 0 15 0H14C12.6739 0 11.4021 0.526784 10.4645 1.46447C9.52678 2.40215 9 3.67392 9 5V10C9 10.5304 9.21071 11.0391 9.58579 11.4142C9.96086 11.7893 10.4696 12 11 12H14ZM5 12C5.53043 12 6.03914 11.7893 6.41421 11.4142C6.78929 11.0391 7 10.5304 7 10V7C7 6.46957 6.78929 5.96086 6.41421 5.58579C6.03914 5.21071 5.53043 5 5 5H2C2 4.20435 2.31607 3.44129 2.87868 2.87868C3.44129 2.31607 4.20435 2 5 2H6C6.26522 2 6.51957 1.89464 6.70711 1.70711C6.89464 1.51957 7 1.26522 7 1C7 0.734784 6.89464 0.480429 6.70711 0.292892C6.51957 0.105356 6.26522 0 6 0H5C3.67392 0 2.40215 0.526784 1.46447 1.46447C0.526784 2.40215 0 3.67392 0 5V10C0 10.5304 0.210714 11.0391 0.585787 11.4142C0.96086 11.7893 1.46957 12 2 12H5Z" fill="#767676"/>
</svg>
