<svg width="496" height="128" viewBox="0 0 496 128" fill="none" xmlns="http://www.w3.org/2000/svg">
<rect x="0.5" y="0.5" width="495" height="127" stroke="#303030"/>
<path d="M156.376 35.16C157.96 35.16 159.216 35.56 160.144 36.36C161.088 37.16 161.56 38.256 161.56 39.648C161.56 41.04 161.088 42.128 160.144 42.912C159.2 43.68 157.936 44.064 156.352 44.064L156.232 44.136H151.696V51H150.496V35.16H156.376ZM156.352 43.008C157.632 43.008 158.608 42.72 159.28 42.144C159.968 41.568 160.312 40.736 160.312 39.648C160.312 38.56 159.968 37.728 159.28 37.152C158.608 36.56 157.632 36.264 156.352 36.264H151.696V43.008H156.352ZM157.288 43.224L162.4 51H160.984L156.28 43.896L157.288 43.224ZM170.009 51.24C168.905 51.24 167.921 50.992 167.057 50.496C166.193 50 165.513 49.288 165.017 48.36C164.537 47.416 164.297 46.296 164.297 45C164.297 43.704 164.537 42.592 165.017 41.664C165.513 40.72 166.177 40 167.009 39.504C167.841 39.008 168.793 38.76 169.865 38.76C170.953 38.76 171.881 39 172.649 39.48C173.417 39.96 174.009 40.632 174.425 41.496C174.841 42.344 175.049 43.328 175.049 44.448C175.049 44.592 175.041 44.736 175.025 44.88C175.025 45.008 175.017 45.128 175.001 45.24H165.041V44.16H174.473L173.873 44.328C173.857 42.952 173.489 41.856 172.769 41.04C172.065 40.224 171.089 39.816 169.841 39.816C168.977 39.816 168.217 40.024 167.561 40.44C166.905 40.84 166.393 41.432 166.025 42.216C165.657 42.984 165.473 43.912 165.473 45C165.473 46.072 165.657 47 166.025 47.784C166.409 48.568 166.937 49.168 167.609 49.584C168.297 49.984 169.089 50.184 169.985 50.184C170.913 50.184 171.705 49.984 172.361 49.584C173.033 49.184 173.553 48.632 173.921 47.928L174.881 48.48C174.593 49.056 174.209 49.552 173.729 49.968C173.249 50.368 172.697 50.68 172.073 50.904C171.449 51.128 170.761 51.24 170.009 51.24ZM182.528 51.24C181.312 51.24 180.232 50.992 179.288 50.496C178.36 50 177.704 49.288 177.32 48.36L178.352 47.664C178.64 48.464 179.152 49.088 179.888 49.536C180.64 49.968 181.552 50.184 182.624 50.184C183.68 50.184 184.504 49.976 185.096 49.56C185.704 49.144 186.008 48.592 186.008 47.904C186.008 47.44 185.856 47.04 185.552 46.704C185.264 46.352 184.712 46.088 183.896 45.912L181.088 45.312C179.936 45.072 179.112 44.688 178.616 44.16C178.136 43.616 177.896 42.96 177.896 42.192C177.896 41.552 178.088 40.976 178.472 40.464C178.856 39.952 179.384 39.544 180.056 39.24C180.744 38.92 181.544 38.76 182.456 38.76C183.656 38.76 184.648 39 185.432 39.48C186.216 39.944 186.768 40.648 187.088 41.592L186.08 42.24C185.84 41.392 185.392 40.776 184.736 40.392C184.096 40.008 183.336 39.816 182.456 39.816C181.784 39.816 181.192 39.92 180.68 40.128C180.184 40.32 179.792 40.592 179.504 40.944C179.232 41.28 179.096 41.672 179.096 42.12C179.096 42.584 179.256 43.008 179.576 43.392C179.896 43.76 180.464 44.032 181.28 44.208L184.16 44.832C185.296 45.072 186.088 45.44 186.536 45.936C186.984 46.416 187.208 47.016 187.208 47.736C187.208 48.456 187.016 49.08 186.632 49.608C186.248 50.136 185.704 50.544 185 50.832C184.296 51.104 183.472 51.24 182.528 51.24ZM190.566 56.04V39H191.646L191.742 42.336L191.574 42.144C191.782 41.456 192.102 40.856 192.534 40.344C192.982 39.832 193.526 39.44 194.166 39.168C194.806 38.896 195.502 38.76 196.254 38.76C197.278 38.76 198.198 39.008 199.014 39.504C199.83 40 200.478 40.712 200.958 41.64C201.438 42.568 201.678 43.688 201.678 45C201.678 46.296 201.438 47.416 200.958 48.36C200.478 49.288 199.822 50 198.99 50.496C198.174 50.992 197.246 51.24 196.206 51.24C195.102 51.24 194.142 50.952 193.326 50.376C192.51 49.784 191.942 48.992 191.622 48L191.766 47.784V56.04H190.566ZM196.062 50.184C197.422 50.184 198.494 49.72 199.278 48.792C200.078 47.864 200.478 46.6 200.478 45C200.478 43.4 200.086 42.136 199.302 41.208C198.518 40.28 197.454 39.816 196.11 39.816C195.262 39.816 194.51 40.032 193.854 40.464C193.214 40.88 192.702 41.48 192.318 42.264C191.95 43.032 191.766 43.944 191.766 45C191.766 46.04 191.95 46.952 192.318 47.736C192.686 48.52 193.19 49.128 193.83 49.56C194.486 49.976 195.23 50.184 196.062 50.184ZM210.04 51.24C208.936 51.24 207.952 50.992 207.088 50.496C206.224 50 205.544 49.288 205.048 48.36C204.568 47.416 204.328 46.296 204.328 45C204.328 43.704 204.568 42.592 205.048 41.664C205.544 40.72 206.208 40 207.04 39.504C207.872 39.008 208.824 38.76 209.896 38.76C210.984 38.76 211.912 39 212.68 39.48C213.448 39.96 214.04 40.632 214.456 41.496C214.872 42.344 215.08 43.328 215.08 44.448C215.08 44.592 215.072 44.736 215.056 44.88C215.056 45.008 215.048 45.128 215.032 45.24H205.072V44.16H214.504L213.904 44.328C213.888 42.952 213.52 41.856 212.8 41.04C212.096 40.224 211.12 39.816 209.872 39.816C209.008 39.816 208.248 40.024 207.592 40.44C206.936 40.84 206.424 41.432 206.056 42.216C205.688 42.984 205.504 43.912 205.504 45C205.504 46.072 205.688 47 206.056 47.784C206.44 48.568 206.968 49.168 207.64 49.584C208.328 49.984 209.12 50.184 210.016 50.184C210.944 50.184 211.736 49.984 212.392 49.584C213.064 49.184 213.584 48.632 213.952 47.928L214.912 48.48C214.624 49.056 214.24 49.552 213.76 49.968C213.28 50.368 212.728 50.68 212.104 50.904C211.48 51.128 210.792 51.24 210.04 51.24ZM223.351 38.76C224.167 38.76 224.895 38.888 225.535 39.144C226.175 39.4 226.719 39.768 227.167 40.248C227.615 40.728 227.959 41.312 228.199 42L227.071 42.528C226.815 41.664 226.367 41 225.727 40.536C225.103 40.056 224.303 39.816 223.327 39.816C222.447 39.816 221.671 40.024 220.999 40.44C220.327 40.84 219.807 41.432 219.439 42.216C219.071 42.984 218.887 43.912 218.887 45C218.887 46.072 219.071 47 219.439 47.784C219.807 48.568 220.319 49.168 220.975 49.584C221.631 49.984 222.407 50.184 223.303 50.184C223.975 50.184 224.583 50.072 225.127 49.848C225.687 49.624 226.143 49.296 226.495 48.864C226.863 48.432 227.103 47.92 227.215 47.328L228.319 47.712C228.111 48.448 227.767 49.08 227.287 49.608C226.823 50.136 226.255 50.544 225.583 50.832C224.911 51.104 224.159 51.24 223.327 51.24C222.239 51.24 221.263 50.992 220.399 50.496C219.551 50 218.887 49.288 218.407 48.36C217.927 47.416 217.687 46.296 217.687 45C217.687 43.704 217.927 42.592 218.407 41.664C218.903 40.72 219.575 40 220.423 39.504C221.287 39.008 222.263 38.76 223.351 38.76ZM233.526 35.664V47.832C233.526 48.584 233.702 49.16 234.054 49.56C234.422 49.944 234.95 50.136 235.638 50.136C236.086 50.136 236.478 50.064 236.814 49.92C237.166 49.76 237.478 49.536 237.75 49.248L238.206 50.232C237.902 50.536 237.518 50.784 237.054 50.976C236.59 51.152 236.07 51.24 235.494 51.24C234.87 51.24 234.318 51.128 233.838 50.904C233.358 50.664 232.982 50.304 232.71 49.824C232.454 49.344 232.326 48.736 232.326 48V36L233.526 35.664ZM238.014 39V40.032H229.926V39H238.014Z" fill="#303030"/>
<path d="M153.584 65.44C154.64 65.44 155.477 65.7067 156.096 66.24C156.725 66.7733 157.04 67.504 157.04 68.432C157.04 69.36 156.725 70.0853 156.096 70.608C155.467 71.12 154.624 71.376 153.568 71.376L153.488 71.424H150.464V76H149.664V65.44H153.584ZM153.568 70.672C154.421 70.672 155.072 70.48 155.52 70.096C155.979 69.712 156.208 69.1573 156.208 68.432C156.208 67.7067 155.979 67.152 155.52 66.768C155.072 66.3733 154.421 66.176 153.568 66.176H150.464V70.672H153.568ZM154.192 70.816L157.6 76H156.656L153.52 71.264L154.192 70.816ZM162.672 76.16C161.936 76.16 161.28 75.9947 160.704 75.664C160.128 75.3333 159.675 74.8587 159.344 74.24C159.024 73.6107 158.864 72.864 158.864 72C158.864 71.136 159.024 70.3947 159.344 69.776C159.675 69.1467 160.118 68.6667 160.672 68.336C161.227 68.0053 161.862 67.84 162.576 67.84C163.302 67.84 163.92 68 164.432 68.32C164.944 68.64 165.339 69.088 165.616 69.664C165.894 70.2293 166.032 70.8853 166.032 71.632C166.032 71.728 166.027 71.824 166.016 71.92C166.016 72.0053 166.011 72.0853 166 72.16H159.36V71.44H165.648L165.248 71.552C165.238 70.6347 164.992 69.904 164.512 69.36C164.043 68.816 163.392 68.544 162.56 68.544C161.984 68.544 161.478 68.6827 161.04 68.96C160.603 69.2267 160.262 69.6213 160.016 70.144C159.771 70.656 159.648 71.2747 159.648 72C159.648 72.7147 159.771 73.3333 160.016 73.856C160.272 74.3787 160.624 74.7787 161.072 75.056C161.531 75.3227 162.059 75.456 162.656 75.456C163.275 75.456 163.803 75.3227 164.24 75.056C164.688 74.7893 165.035 74.4213 165.28 73.952L165.92 74.32C165.728 74.704 165.472 75.0347 165.152 75.312C164.832 75.5787 164.464 75.7867 164.048 75.936C163.632 76.0853 163.174 76.16 162.672 76.16ZM171.019 76.16C170.208 76.16 169.488 75.9947 168.859 75.664C168.24 75.3333 167.803 74.8587 167.547 74.24L168.235 73.776C168.427 74.3093 168.768 74.7253 169.259 75.024C169.76 75.312 170.368 75.456 171.083 75.456C171.787 75.456 172.336 75.3173 172.731 75.04C173.136 74.7627 173.339 74.3947 173.339 73.936C173.339 73.6267 173.237 73.36 173.035 73.136C172.843 72.9013 172.475 72.7253 171.931 72.608L170.059 72.208C169.291 72.048 168.741 71.792 168.411 71.44C168.091 71.0773 167.931 70.64 167.931 70.128C167.931 69.7013 168.059 69.3173 168.315 68.976C168.571 68.6347 168.923 68.3627 169.371 68.16C169.829 67.9467 170.363 67.84 170.971 67.84C171.771 67.84 172.432 68 172.955 68.32C173.477 68.6293 173.845 69.0987 174.059 69.728L173.387 70.16C173.227 69.5947 172.928 69.184 172.491 68.928C172.064 68.672 171.557 68.544 170.971 68.544C170.523 68.544 170.128 68.6133 169.787 68.752C169.456 68.88 169.195 69.0613 169.003 69.296C168.821 69.52 168.731 69.7813 168.731 70.08C168.731 70.3893 168.837 70.672 169.051 70.928C169.264 71.1733 169.643 71.3547 170.187 71.472L172.107 71.888C172.864 72.048 173.392 72.2933 173.691 72.624C173.989 72.944 174.139 73.344 174.139 73.824C174.139 74.304 174.011 74.72 173.755 75.072C173.499 75.424 173.136 75.696 172.667 75.888C172.197 76.0693 171.648 76.16 171.019 76.16ZM176.377 79.36V68H177.097L177.161 70.224L177.049 70.096C177.188 69.6373 177.401 69.2373 177.689 68.896C177.988 68.5547 178.35 68.2933 178.777 68.112C179.204 67.9307 179.668 67.84 180.169 67.84C180.852 67.84 181.465 68.0053 182.009 68.336C182.553 68.6667 182.985 69.1413 183.305 69.76C183.625 70.3787 183.785 71.1253 183.785 72C183.785 72.864 183.625 73.6107 183.305 74.24C182.985 74.8587 182.548 75.3333 181.993 75.664C181.449 75.9947 180.83 76.16 180.137 76.16C179.401 76.16 178.761 75.968 178.217 75.584C177.673 75.1893 177.294 74.6613 177.081 74L177.177 73.856V79.36H176.377ZM180.041 75.456C180.948 75.456 181.662 75.1467 182.185 74.528C182.718 73.9093 182.985 73.0667 182.985 72C182.985 70.9333 182.724 70.0907 182.201 69.472C181.678 68.8533 180.969 68.544 180.073 68.544C179.508 68.544 179.006 68.688 178.569 68.976C178.142 69.2533 177.801 69.6533 177.545 70.176C177.3 70.688 177.177 71.296 177.177 72C177.177 72.6933 177.3 73.3013 177.545 73.824C177.79 74.3467 178.126 74.752 178.553 75.04C178.99 75.3173 179.486 75.456 180.041 75.456ZM189.36 76.16C188.624 76.16 187.968 75.9947 187.392 75.664C186.816 75.3333 186.363 74.8587 186.032 74.24C185.712 73.6107 185.552 72.864 185.552 72C185.552 71.136 185.712 70.3947 186.032 69.776C186.363 69.1467 186.805 68.6667 187.36 68.336C187.915 68.0053 188.549 67.84 189.264 67.84C189.989 67.84 190.608 68 191.12 68.32C191.632 68.64 192.027 69.088 192.304 69.664C192.581 70.2293 192.72 70.8853 192.72 71.632C192.72 71.728 192.715 71.824 192.704 71.92C192.704 72.0053 192.699 72.0853 192.688 72.16H186.048V71.44H192.336L191.936 71.552C191.925 70.6347 191.68 69.904 191.2 69.36C190.731 68.816 190.08 68.544 189.248 68.544C188.672 68.544 188.165 68.6827 187.728 68.96C187.291 69.2267 186.949 69.6213 186.704 70.144C186.459 70.656 186.336 71.2747 186.336 72C186.336 72.7147 186.459 73.3333 186.704 73.856C186.96 74.3787 187.312 74.7787 187.76 75.056C188.219 75.3227 188.747 75.456 189.344 75.456C189.963 75.456 190.491 75.3227 190.928 75.056C191.376 74.7893 191.723 74.4213 191.968 73.952L192.608 74.32C192.416 74.704 192.16 75.0347 191.84 75.312C191.52 75.5787 191.152 75.7867 190.736 75.936C190.32 76.0853 189.861 76.16 189.36 76.16ZM198.234 67.84C198.778 67.84 199.263 67.9253 199.69 68.096C200.117 68.2667 200.479 68.512 200.778 68.832C201.077 69.152 201.306 69.5413 201.466 70L200.714 70.352C200.543 69.776 200.245 69.3333 199.818 69.024C199.402 68.704 198.869 68.544 198.218 68.544C197.631 68.544 197.114 68.6827 196.666 68.96C196.218 69.2267 195.871 69.6213 195.626 70.144C195.381 70.656 195.258 71.2747 195.258 72C195.258 72.7147 195.381 73.3333 195.626 73.856C195.871 74.3787 196.213 74.7787 196.65 75.056C197.087 75.3227 197.605 75.456 198.202 75.456C198.65 75.456 199.055 75.3813 199.418 75.232C199.791 75.0827 200.095 74.864 200.33 74.576C200.575 74.288 200.735 73.9467 200.81 73.552L201.546 73.808C201.407 74.2987 201.178 74.72 200.858 75.072C200.549 75.424 200.17 75.696 199.722 75.888C199.274 76.0693 198.773 76.16 198.218 76.16C197.493 76.16 196.842 75.9947 196.266 75.664C195.701 75.3333 195.258 74.8587 194.938 74.24C194.618 73.6107 194.458 72.864 194.458 72C194.458 71.136 194.618 70.3947 194.938 69.776C195.269 69.1467 195.717 68.6667 196.282 68.336C196.858 68.0053 197.509 67.84 198.234 67.84ZM205.018 65.776V73.888C205.018 74.3893 205.135 74.7733 205.37 75.04C205.615 75.296 205.967 75.424 206.426 75.424C206.724 75.424 206.986 75.376 207.21 75.28C207.444 75.1733 207.652 75.024 207.834 74.832L208.138 75.488C207.935 75.6907 207.679 75.856 207.37 75.984C207.06 76.1013 206.714 76.16 206.33 76.16C205.914 76.16 205.546 76.0853 205.226 75.936C204.906 75.776 204.655 75.536 204.474 75.216C204.303 74.896 204.218 74.4907 204.218 74V66L205.018 65.776ZM208.01 68V68.688H202.618V68H208.01ZM217.922 67.84C218.669 67.84 219.325 68.0053 219.89 68.336C220.466 68.6667 220.914 69.1467 221.234 69.776C221.565 70.3947 221.73 71.136 221.73 72C221.73 72.864 221.565 73.6107 221.234 74.24C220.914 74.8587 220.466 75.3333 219.89 75.664C219.325 75.9947 218.669 76.16 217.922 76.16C217.176 76.16 216.514 75.9947 215.938 75.664C215.373 75.3333 214.925 74.8587 214.594 74.24C214.274 73.6107 214.114 72.864 214.114 72C214.114 71.136 214.274 70.3947 214.594 69.776C214.925 69.1467 215.373 68.6667 215.938 68.336C216.514 68.0053 217.176 67.84 217.922 67.84ZM217.922 68.528C217.314 68.528 216.786 68.6667 216.338 68.944C215.89 69.2213 215.538 69.6213 215.282 70.144C215.037 70.656 214.914 71.2747 214.914 72C214.914 72.7147 215.037 73.3333 215.282 73.856C215.538 74.3787 215.89 74.7787 216.338 75.056C216.786 75.3333 217.314 75.472 217.922 75.472C218.53 75.472 219.058 75.3333 219.506 75.056C219.954 74.7787 220.301 74.3787 220.546 73.856C220.802 73.3333 220.93 72.7147 220.93 72C220.93 71.2747 220.802 70.656 220.546 70.144C220.301 69.6213 219.954 69.2213 219.506 68.944C219.058 68.6667 218.53 68.528 217.922 68.528ZM225.205 65.776V73.888C225.205 74.3893 225.322 74.7733 225.557 75.04C225.802 75.296 226.154 75.424 226.613 75.424C226.912 75.424 227.173 75.376 227.397 75.28C227.632 75.1733 227.84 75.024 228.021 74.832L228.325 75.488C228.122 75.6907 227.866 75.856 227.557 75.984C227.248 76.1013 226.901 76.16 226.517 76.16C226.101 76.16 225.733 76.0853 225.413 75.936C225.093 75.776 224.842 75.536 224.661 75.216C224.49 74.896 224.405 74.4907 224.405 74V66L225.205 65.776ZM228.197 68V68.688H222.805V68H228.197ZM229.908 76V64.32H230.708V69.632C230.943 69.0667 231.322 68.6293 231.844 68.32C232.367 68 232.97 67.84 233.652 67.84C234.25 67.84 234.778 67.952 235.236 68.176C235.695 68.3893 236.052 68.72 236.308 69.168C236.575 69.6053 236.708 70.1493 236.708 70.8V76H235.908V71.056C235.908 70.192 235.69 69.5573 235.252 69.152C234.826 68.736 234.266 68.528 233.572 68.528C233.071 68.528 232.602 68.6453 232.164 68.88C231.738 69.1147 231.386 69.4507 231.108 69.888C230.842 70.3253 230.708 70.8587 230.708 71.488V76H229.908ZM242.735 76.16C241.999 76.16 241.343 75.9947 240.767 75.664C240.191 75.3333 239.738 74.8587 239.407 74.24C239.087 73.6107 238.927 72.864 238.927 72C238.927 71.136 239.087 70.3947 239.407 69.776C239.738 69.1467 240.18 68.6667 240.735 68.336C241.29 68.0053 241.924 67.84 242.639 67.84C243.364 67.84 243.983 68 244.495 68.32C245.007 68.64 245.402 69.088 245.679 69.664C245.956 70.2293 246.095 70.8853 246.095 71.632C246.095 71.728 246.09 71.824 246.079 71.92C246.079 72.0053 246.074 72.0853 246.063 72.16H239.423V71.44H245.711L245.311 71.552C245.3 70.6347 245.055 69.904 244.575 69.36C244.106 68.816 243.455 68.544 242.623 68.544C242.047 68.544 241.54 68.6827 241.103 68.96C240.666 69.2267 240.324 69.6213 240.079 70.144C239.834 70.656 239.711 71.2747 239.711 72C239.711 72.7147 239.834 73.3333 240.079 73.856C240.335 74.3787 240.687 74.7787 241.135 75.056C241.594 75.3227 242.122 75.456 242.719 75.456C243.338 75.456 243.866 75.3227 244.303 75.056C244.751 74.7893 245.098 74.4213 245.343 73.952L245.983 74.32C245.791 74.704 245.535 75.0347 245.215 75.312C244.895 75.5787 244.527 75.7867 244.111 75.936C243.695 76.0853 243.236 76.16 242.735 76.16ZM248.377 76V68H249.049L249.145 69.68C249.348 69.1147 249.673 68.6667 250.121 68.336C250.569 68.0053 251.108 67.84 251.737 67.84C251.95 67.84 252.142 67.8613 252.313 67.904C252.484 67.9467 252.622 68.016 252.729 68.112L252.553 68.816C252.436 68.7413 252.308 68.6827 252.169 68.64C252.03 68.5973 251.822 68.576 251.545 68.576C251.14 68.576 250.756 68.704 250.393 68.96C250.03 69.2053 249.737 69.552 249.513 70C249.289 70.4373 249.177 70.944 249.177 71.52V76H248.377ZM256.847 76.16C256.036 76.16 255.316 75.9947 254.687 75.664C254.068 75.3333 253.631 74.8587 253.375 74.24L254.063 73.776C254.255 74.3093 254.596 74.7253 255.087 75.024C255.588 75.312 256.196 75.456 256.911 75.456C257.615 75.456 258.164 75.3173 258.559 75.04C258.964 74.7627 259.167 74.3947 259.167 73.936C259.167 73.6267 259.065 73.36 258.863 73.136C258.671 72.9013 258.303 72.7253 257.759 72.608L255.887 72.208C255.119 72.048 254.569 71.792 254.239 71.44C253.919 71.0773 253.759 70.64 253.759 70.128C253.759 69.7013 253.887 69.3173 254.143 68.976C254.399 68.6347 254.751 68.3627 255.199 68.16C255.657 67.9467 256.191 67.84 256.799 67.84C257.599 67.84 258.26 68 258.783 68.32C259.305 68.6293 259.673 69.0987 259.887 69.728L259.215 70.16C259.055 69.5947 258.756 69.184 258.319 68.928C257.892 68.672 257.385 68.544 256.799 68.544C256.351 68.544 255.956 68.6133 255.615 68.752C255.284 68.88 255.023 69.0613 254.831 69.296C254.649 69.52 254.559 69.7813 254.559 70.08C254.559 70.3893 254.665 70.672 254.879 70.928C255.092 71.1733 255.471 71.3547 256.015 71.472L257.935 71.888C258.692 72.048 259.22 72.2933 259.519 72.624C259.817 72.944 259.967 73.344 259.967 73.824C259.967 74.304 259.839 74.72 259.583 75.072C259.327 75.424 258.964 75.696 258.495 75.888C258.025 76.0693 257.476 76.16 256.847 76.16ZM262.541 74.688C262.755 74.688 262.925 74.7573 263.053 74.896C263.192 75.024 263.261 75.1947 263.261 75.408C263.261 75.6213 263.192 75.7973 263.053 75.936C262.925 76.064 262.755 76.128 262.541 76.128C262.328 76.128 262.152 76.064 262.013 75.936C261.885 75.7973 261.821 75.6213 261.821 75.408C261.821 75.1947 261.885 75.024 262.013 74.896C262.152 74.7573 262.328 74.688 262.541 74.688ZM274.897 65.44C275.953 65.44 276.79 65.7067 277.409 66.24C278.038 66.7733 278.352 67.504 278.352 68.432C278.352 69.36 278.038 70.0853 277.409 70.608C276.779 71.12 275.937 71.376 274.881 71.376L274.801 71.424H271.777V76H270.977V65.44H274.897ZM274.881 70.672C275.734 70.672 276.385 70.48 276.833 70.096C277.291 69.712 277.521 69.1573 277.521 68.432C277.521 67.7067 277.291 67.152 276.833 66.768C276.385 66.3733 275.734 66.176 274.881 66.176H271.777V70.672H274.881ZM275.505 70.816L278.913 76H277.969L274.833 71.264L275.505 70.816ZM283.985 76.16C283.249 76.16 282.593 75.9947 282.017 75.664C281.441 75.3333 280.988 74.8587 280.657 74.24C280.337 73.6107 280.177 72.864 280.177 72C280.177 71.136 280.337 70.3947 280.657 69.776C280.988 69.1467 281.43 68.6667 281.985 68.336C282.54 68.0053 283.174 67.84 283.889 67.84C284.614 67.84 285.233 68 285.745 68.32C286.257 68.64 286.652 69.088 286.929 69.664C287.206 70.2293 287.345 70.8853 287.345 71.632C287.345 71.728 287.34 71.824 287.329 71.92C287.329 72.0053 287.324 72.0853 287.313 72.16H280.673V71.44H286.961L286.561 71.552C286.55 70.6347 286.305 69.904 285.825 69.36C285.356 68.816 284.705 68.544 283.873 68.544C283.297 68.544 282.79 68.6827 282.353 68.96C281.916 69.2267 281.574 69.6213 281.329 70.144C281.084 70.656 280.961 71.2747 280.961 72C280.961 72.7147 281.084 73.3333 281.329 73.856C281.585 74.3787 281.937 74.7787 282.385 75.056C282.844 75.3227 283.372 75.456 283.969 75.456C284.588 75.456 285.116 75.3227 285.553 75.056C286.001 74.7893 286.348 74.4213 286.593 73.952L287.233 74.32C287.041 74.704 286.785 75.0347 286.465 75.312C286.145 75.5787 285.777 75.7867 285.361 75.936C284.945 76.0853 284.486 76.16 283.985 76.16ZM292.331 76.16C291.52 76.16 290.8 75.9947 290.171 75.664C289.552 75.3333 289.115 74.8587 288.859 74.24L289.547 73.776C289.739 74.3093 290.08 74.7253 290.571 75.024C291.072 75.312 291.68 75.456 292.395 75.456C293.099 75.456 293.648 75.3173 294.043 75.04C294.448 74.7627 294.651 74.3947 294.651 73.936C294.651 73.6267 294.55 73.36 294.347 73.136C294.155 72.9013 293.787 72.7253 293.243 72.608L291.371 72.208C290.603 72.048 290.054 71.792 289.723 71.44C289.403 71.0773 289.243 70.64 289.243 70.128C289.243 69.7013 289.371 69.3173 289.627 68.976C289.883 68.6347 290.235 68.3627 290.683 68.16C291.142 67.9467 291.675 67.84 292.283 67.84C293.083 67.84 293.744 68 294.267 68.32C294.79 68.6293 295.158 69.0987 295.371 69.728L294.699 70.16C294.539 69.5947 294.24 69.184 293.803 68.928C293.376 68.672 292.87 68.544 292.283 68.544C291.835 68.544 291.44 68.6133 291.099 68.752C290.768 68.88 290.507 69.0613 290.315 69.296C290.134 69.52 290.043 69.7813 290.043 70.08C290.043 70.3893 290.15 70.672 290.363 70.928C290.576 71.1733 290.955 71.3547 291.499 71.472L293.419 71.888C294.176 72.048 294.704 72.2933 295.003 72.624C295.302 72.944 295.451 73.344 295.451 73.824C295.451 74.304 295.323 74.72 295.067 75.072C294.811 75.424 294.448 75.696 293.979 75.888C293.51 76.0693 292.96 76.16 292.331 76.16ZM297.69 79.36V68H298.41L298.474 70.224L298.362 70.096C298.5 69.6373 298.714 69.2373 299.002 68.896C299.3 68.5547 299.663 68.2933 300.09 68.112C300.516 67.9307 300.98 67.84 301.482 67.84C302.164 67.84 302.778 68.0053 303.322 68.336C303.866 68.6667 304.298 69.1413 304.618 69.76C304.938 70.3787 305.098 71.1253 305.098 72C305.098 72.864 304.938 73.6107 304.618 74.24C304.298 74.8587 303.86 75.3333 303.306 75.664C302.762 75.9947 302.143 76.16 301.45 76.16C300.714 76.16 300.074 75.968 299.53 75.584C298.986 75.1893 298.607 74.6613 298.394 74L298.49 73.856V79.36H297.69ZM301.354 75.456C302.26 75.456 302.975 75.1467 303.498 74.528C304.031 73.9093 304.298 73.0667 304.298 72C304.298 70.9333 304.036 70.0907 303.514 69.472C302.991 68.8533 302.282 68.544 301.386 68.544C300.82 68.544 300.319 68.688 299.882 68.976C299.455 69.2533 299.114 69.6533 298.858 70.176C298.612 70.688 298.49 71.296 298.49 72C298.49 72.6933 298.612 73.3013 298.858 73.824C299.103 74.3467 299.439 74.752 299.866 75.04C300.303 75.3173 300.799 75.456 301.354 75.456ZM310.672 76.16C309.936 76.16 309.28 75.9947 308.704 75.664C308.128 75.3333 307.675 74.8587 307.344 74.24C307.024 73.6107 306.864 72.864 306.864 72C306.864 71.136 307.024 70.3947 307.344 69.776C307.675 69.1467 308.118 68.6667 308.672 68.336C309.227 68.0053 309.862 67.84 310.576 67.84C311.302 67.84 311.92 68 312.432 68.32C312.944 68.64 313.339 69.088 313.616 69.664C313.894 70.2293 314.032 70.8853 314.032 71.632C314.032 71.728 314.027 71.824 314.016 71.92C314.016 72.0053 314.011 72.0853 314 72.16H307.36V71.44H313.648L313.248 71.552C313.238 70.6347 312.992 69.904 312.512 69.36C312.043 68.816 311.392 68.544 310.56 68.544C309.984 68.544 309.478 68.6827 309.04 68.96C308.603 69.2267 308.262 69.6213 308.016 70.144C307.771 70.656 307.648 71.2747 307.648 72C307.648 72.7147 307.771 73.3333 308.016 73.856C308.272 74.3787 308.624 74.7787 309.072 75.056C309.531 75.3227 310.059 75.456 310.656 75.456C311.275 75.456 311.803 75.3227 312.24 75.056C312.688 74.7893 313.035 74.4213 313.28 73.952L313.92 74.32C313.728 74.704 313.472 75.0347 313.152 75.312C312.832 75.5787 312.464 75.7867 312.048 75.936C311.632 76.0853 311.174 76.16 310.672 76.16ZM319.547 67.84C320.091 67.84 320.576 67.9253 321.003 68.096C321.429 68.2667 321.792 68.512 322.091 68.832C322.389 69.152 322.619 69.5413 322.779 70L322.027 70.352C321.856 69.776 321.557 69.3333 321.131 69.024C320.715 68.704 320.181 68.544 319.531 68.544C318.944 68.544 318.427 68.6827 317.979 68.96C317.531 69.2267 317.184 69.6213 316.939 70.144C316.693 70.656 316.571 71.2747 316.571 72C316.571 72.7147 316.693 73.3333 316.939 73.856C317.184 74.3787 317.525 74.7787 317.963 75.056C318.4 75.3227 318.917 75.456 319.515 75.456C319.963 75.456 320.368 75.3813 320.731 75.232C321.104 75.0827 321.408 74.864 321.643 74.576C321.888 74.288 322.048 73.9467 322.123 73.552L322.859 73.808C322.72 74.2987 322.491 74.72 322.171 75.072C321.861 75.424 321.483 75.696 321.035 75.888C320.587 76.0693 320.085 76.16 319.531 76.16C318.805 76.16 318.155 75.9947 317.579 75.664C317.013 75.3333 316.571 74.8587 316.251 74.24C315.931 73.6107 315.771 72.864 315.771 72C315.771 71.136 315.931 70.3947 316.251 69.776C316.581 69.1467 317.029 68.6667 317.595 68.336C318.171 68.0053 318.821 67.84 319.547 67.84ZM326.33 65.776V73.888C326.33 74.3893 326.447 74.7733 326.682 75.04C326.927 75.296 327.279 75.424 327.738 75.424C328.037 75.424 328.298 75.376 328.522 75.28C328.757 75.1733 328.965 75.024 329.146 74.832L329.45 75.488C329.247 75.6907 328.991 75.856 328.682 75.984C328.373 76.1013 328.026 76.16 327.642 76.16C327.226 76.16 326.858 76.0853 326.538 75.936C326.218 75.776 325.967 75.536 325.786 75.216C325.615 74.896 325.53 74.4907 325.53 74V66L326.33 65.776ZM329.322 68V68.688H323.93V68H329.322ZM335.971 79.36V68H336.691L336.755 70.224L336.643 70.096C336.782 69.6373 336.995 69.2373 337.283 68.896C337.582 68.5547 337.944 68.2933 338.371 68.112C338.798 67.9307 339.262 67.84 339.763 67.84C340.446 67.84 341.059 68.0053 341.603 68.336C342.147 68.6667 342.579 69.1413 342.899 69.76C343.219 70.3787 343.379 71.1253 343.379 72C343.379 72.864 343.219 73.6107 342.899 74.24C342.579 74.8587 342.142 75.3333 341.587 75.664C341.043 75.9947 340.424 76.16 339.731 76.16C338.995 76.16 338.355 75.968 337.811 75.584C337.267 75.1893 336.888 74.6613 336.675 74L336.771 73.856V79.36H335.971ZM339.635 75.456C340.542 75.456 341.256 75.1467 341.779 74.528C342.312 73.9093 342.579 73.0667 342.579 72C342.579 70.9333 342.318 70.0907 341.795 69.472C341.272 68.8533 340.563 68.544 339.667 68.544C339.102 68.544 338.6 68.688 338.163 68.976C337.736 69.2533 337.395 69.6533 337.139 70.176C336.894 70.688 336.771 71.296 336.771 72C336.771 72.6933 336.894 73.3013 337.139 73.824C337.384 74.3467 337.72 74.752 338.147 75.04C338.584 75.3173 339.08 75.456 339.635 75.456ZM348.954 76.16C348.218 76.16 347.562 75.9947 346.986 75.664C346.41 75.3333 345.956 74.8587 345.626 74.24C345.306 73.6107 345.146 72.864 345.146 72C345.146 71.136 345.306 70.3947 345.626 69.776C345.956 69.1467 346.399 68.6667 346.954 68.336C347.508 68.0053 348.143 67.84 348.858 67.84C349.583 67.84 350.202 68 350.714 68.32C351.226 68.64 351.62 69.088 351.898 69.664C352.175 70.2293 352.314 70.8853 352.314 71.632C352.314 71.728 352.308 71.824 352.298 71.92C352.298 72.0053 352.292 72.0853 352.282 72.16H345.642V71.44H351.93L351.53 71.552C351.519 70.6347 351.274 69.904 350.794 69.36C350.324 68.816 349.674 68.544 348.842 68.544C348.266 68.544 347.759 68.6827 347.322 68.96C346.884 69.2267 346.543 69.6213 346.298 70.144C346.052 70.656 345.93 71.2747 345.93 72C345.93 72.7147 346.052 73.3333 346.298 73.856C346.554 74.3787 346.906 74.7787 347.354 75.056C347.812 75.3227 348.34 75.456 348.938 75.456C349.556 75.456 350.084 75.3227 350.522 75.056C350.97 74.7893 351.316 74.4213 351.562 73.952L352.202 74.32C352.01 74.704 351.754 75.0347 351.434 75.312C351.114 75.5787 350.746 75.7867 350.33 75.936C349.914 76.0853 349.455 76.16 348.954 76.16ZM354.596 76V68H355.268L355.364 69.68C355.567 69.1147 355.892 68.6667 356.34 68.336C356.788 68.0053 357.327 67.84 357.956 67.84C358.169 67.84 358.361 67.8613 358.532 67.904C358.703 67.9467 358.841 68.016 358.948 68.112L358.772 68.816C358.655 68.7413 358.527 68.6827 358.388 68.64C358.249 68.5973 358.041 68.576 357.764 68.576C357.359 68.576 356.975 68.704 356.612 68.96C356.249 69.2053 355.956 69.552 355.732 70C355.508 70.4373 355.396 70.944 355.396 71.52V76H354.596ZM363.066 76.16C362.255 76.16 361.535 75.9947 360.906 75.664C360.287 75.3333 359.85 74.8587 359.594 74.24L360.282 73.776C360.474 74.3093 360.815 74.7253 361.306 75.024C361.807 75.312 362.415 75.456 363.13 75.456C363.834 75.456 364.383 75.3173 364.778 75.04C365.183 74.7627 365.386 74.3947 365.386 73.936C365.386 73.6267 365.284 73.36 365.082 73.136C364.89 72.9013 364.522 72.7253 363.978 72.608L362.106 72.208C361.338 72.048 360.788 71.792 360.458 71.44C360.138 71.0773 359.978 70.64 359.978 70.128C359.978 69.7013 360.106 69.3173 360.362 68.976C360.618 68.6347 360.97 68.3627 361.418 68.16C361.876 67.9467 362.41 67.84 363.018 67.84C363.818 67.84 364.479 68 365.002 68.32C365.524 68.6293 365.892 69.0987 366.106 69.728L365.434 70.16C365.274 69.5947 364.975 69.184 364.538 68.928C364.111 68.672 363.604 68.544 363.018 68.544C362.57 68.544 362.175 68.6133 361.834 68.752C361.503 68.88 361.242 69.0613 361.049 69.296C360.868 69.52 360.778 69.7813 360.778 70.08C360.778 70.3893 360.884 70.672 361.098 70.928C361.311 71.1733 361.69 71.3547 362.234 71.472L364.154 71.888C364.911 72.048 365.439 72.2933 365.738 72.624C366.036 72.944 366.186 73.344 366.186 73.824C366.186 74.304 366.058 74.72 365.802 75.072C365.546 75.424 365.183 75.696 364.714 75.888C364.244 76.0693 363.695 76.16 363.066 76.16ZM368.424 79.36V68H369.144L369.208 70.224L369.096 70.096C369.235 69.6373 369.448 69.2373 369.736 68.896C370.035 68.5547 370.397 68.2933 370.824 68.112C371.251 67.9307 371.715 67.84 372.216 67.84C372.899 67.84 373.512 68.0053 374.056 68.336C374.6 68.6667 375.032 69.1413 375.352 69.76C375.672 70.3787 375.832 71.1253 375.832 72C375.832 72.864 375.672 73.6107 375.352 74.24C375.032 74.8587 374.595 75.3333 374.04 75.664C373.496 75.9947 372.877 76.16 372.184 76.16C371.448 76.16 370.808 75.968 370.264 75.584C369.72 75.1893 369.341 74.6613 369.128 74L369.224 73.856V79.36H368.424ZM372.088 75.456C372.995 75.456 373.709 75.1467 374.232 74.528C374.765 73.9093 375.032 73.0667 375.032 72C375.032 70.9333 374.771 70.0907 374.248 69.472C373.725 68.8533 373.016 68.544 372.12 68.544C371.555 68.544 371.053 68.688 370.616 68.976C370.189 69.2533 369.848 69.6533 369.592 70.176C369.347 70.688 369.224 71.296 369.224 72C369.224 72.6933 369.347 73.3013 369.592 73.824C369.837 74.3467 370.173 74.752 370.6 75.04C371.037 75.3173 371.533 75.456 372.088 75.456ZM381.407 76.16C380.671 76.16 380.015 75.9947 379.439 75.664C378.863 75.3333 378.409 74.8587 378.079 74.24C377.759 73.6107 377.599 72.864 377.599 72C377.599 71.136 377.759 70.3947 378.079 69.776C378.409 69.1467 378.852 68.6667 379.407 68.336C379.961 68.0053 380.596 67.84 381.311 67.84C382.036 67.84 382.655 68 383.167 68.32C383.679 68.64 384.073 69.088 384.351 69.664C384.628 70.2293 384.767 70.8853 384.767 71.632C384.767 71.728 384.761 71.824 384.751 71.92C384.751 72.0053 384.745 72.0853 384.735 72.16H378.095V71.44H384.383L383.983 71.552C383.972 70.6347 383.727 69.904 383.247 69.36C382.777 68.816 382.127 68.544 381.295 68.544C380.719 68.544 380.212 68.6827 379.775 68.96C379.337 69.2267 378.996 69.6213 378.751 70.144C378.505 70.656 378.383 71.2747 378.383 72C378.383 72.7147 378.505 73.3333 378.751 73.856C379.007 74.3787 379.359 74.7787 379.807 75.056C380.265 75.3227 380.793 75.456 381.391 75.456C382.009 75.456 382.537 75.3227 382.975 75.056C383.423 74.7893 383.769 74.4213 384.015 73.952L384.655 74.32C384.463 74.704 384.207 75.0347 383.887 75.312C383.567 75.5787 383.199 75.7867 382.783 75.936C382.367 76.0853 381.908 76.16 381.407 76.16ZM390.281 67.84C390.825 67.84 391.31 67.9253 391.737 68.096C392.164 68.2667 392.526 68.512 392.825 68.832C393.124 69.152 393.353 69.5413 393.513 70L392.761 70.352C392.59 69.776 392.292 69.3333 391.865 69.024C391.449 68.704 390.916 68.544 390.265 68.544C389.678 68.544 389.161 68.6827 388.713 68.96C388.265 69.2267 387.918 69.6213 387.673 70.144C387.428 70.656 387.305 71.2747 387.305 72C387.305 72.7147 387.428 73.3333 387.673 73.856C387.918 74.3787 388.26 74.7787 388.697 75.056C389.134 75.3227 389.652 75.456 390.249 75.456C390.697 75.456 391.102 75.3813 391.465 75.232C391.838 75.0827 392.142 74.864 392.377 74.576C392.622 74.288 392.782 73.9467 392.857 73.552L393.593 73.808C393.454 74.2987 393.225 74.72 392.905 75.072C392.596 75.424 392.217 75.696 391.769 75.888C391.321 76.0693 390.82 76.16 390.265 76.16C389.54 76.16 388.889 75.9947 388.313 75.664C387.748 75.3333 387.305 74.8587 386.985 74.24C386.665 73.6107 386.505 72.864 386.505 72C386.505 71.136 386.665 70.3947 386.985 69.776C387.316 69.1467 387.764 68.6667 388.329 68.336C388.905 68.0053 389.556 67.84 390.281 67.84ZM397.065 65.776V73.888C397.065 74.3893 397.182 74.7733 397.417 75.04C397.662 75.296 398.014 75.424 398.473 75.424C398.771 75.424 399.033 75.376 399.257 75.28C399.491 75.1733 399.699 75.024 399.881 74.832L400.185 75.488C399.982 75.6907 399.726 75.856 399.417 75.984C399.107 76.1013 398.761 76.16 398.377 76.16C397.961 76.16 397.593 76.0853 397.273 75.936C396.953 75.776 396.702 75.536 396.521 75.216C396.35 74.896 396.265 74.4907 396.265 74V66L397.065 65.776ZM400.057 68V68.688H394.665V68H400.057ZM402.168 66.448C401.965 66.448 401.8 66.3893 401.672 66.272C401.554 66.144 401.496 65.9787 401.496 65.776C401.496 65.5733 401.554 65.4133 401.672 65.296C401.8 65.168 401.965 65.104 402.168 65.104C402.37 65.104 402.53 65.168 402.648 65.296C402.776 65.4133 402.84 65.5733 402.84 65.776C402.84 65.9787 402.776 66.144 402.648 66.272C402.53 66.3893 402.37 66.448 402.168 66.448ZM402.568 68V76H401.768V68H402.568ZM410.896 68H411.744L408.4 76H407.6L404.256 68H405.152L408.016 75.168L410.896 68ZM416.594 76.16C415.858 76.16 415.202 75.9947 414.626 75.664C414.05 75.3333 413.597 74.8587 413.266 74.24C412.946 73.6107 412.786 72.864 412.786 72C412.786 71.136 412.946 70.3947 413.266 69.776C413.597 69.1467 414.04 68.6667 414.594 68.336C415.149 68.0053 415.784 67.84 416.498 67.84C417.224 67.84 417.842 68 418.354 68.32C418.866 68.64 419.261 69.088 419.538 69.664C419.816 70.2293 419.954 70.8853 419.954 71.632C419.954 71.728 419.949 71.824 419.938 71.92C419.938 72.0053 419.933 72.0853 419.922 72.16H413.282V71.44H419.57L419.17 71.552C419.16 70.6347 418.914 69.904 418.434 69.36C417.965 68.816 417.314 68.544 416.482 68.544C415.906 68.544 415.4 68.6827 414.962 68.96C414.525 69.2267 414.184 69.6213 413.938 70.144C413.693 70.656 413.57 71.2747 413.57 72C413.57 72.7147 413.693 73.3333 413.938 73.856C414.194 74.3787 414.546 74.7787 414.994 75.056C415.453 75.3227 415.981 75.456 416.578 75.456C417.197 75.456 417.725 75.3227 418.162 75.056C418.61 74.7893 418.957 74.4213 419.202 73.952L419.842 74.32C419.65 74.704 419.394 75.0347 419.074 75.312C418.754 75.5787 418.386 75.7867 417.97 75.936C417.554 76.0853 417.096 76.16 416.594 76.16ZM424.941 76.16C424.13 76.16 423.41 75.9947 422.781 75.664C422.162 75.3333 421.725 74.8587 421.469 74.24L422.157 73.776C422.349 74.3093 422.69 74.7253 423.181 75.024C423.682 75.312 424.29 75.456 425.005 75.456C425.709 75.456 426.258 75.3173 426.653 75.04C427.058 74.7627 427.261 74.3947 427.261 73.936C427.261 73.6267 427.159 73.36 426.957 73.136C426.765 72.9013 426.397 72.7253 425.853 72.608L423.981 72.208C423.213 72.048 422.663 71.792 422.333 71.44C422.013 71.0773 421.853 70.64 421.853 70.128C421.853 69.7013 421.981 69.3173 422.237 68.976C422.493 68.6347 422.845 68.3627 423.293 68.16C423.751 67.9467 424.285 67.84 424.893 67.84C425.693 67.84 426.354 68 426.877 68.32C427.399 68.6293 427.767 69.0987 427.981 69.728L427.309 70.16C427.149 69.5947 426.85 69.184 426.413 68.928C425.986 68.672 425.479 68.544 424.893 68.544C424.445 68.544 424.05 68.6133 423.709 68.752C423.378 68.88 423.117 69.0613 422.924 69.296C422.743 69.52 422.653 69.7813 422.653 70.08C422.653 70.3893 422.759 70.672 422.973 70.928C423.186 71.1733 423.565 71.3547 424.109 71.472L426.029 71.888C426.786 72.048 427.314 72.2933 427.613 72.624C427.911 72.944 428.061 73.344 428.061 73.824C428.061 74.304 427.933 74.72 427.677 75.072C427.421 75.424 427.058 75.696 426.589 75.888C426.119 76.0693 425.57 76.16 424.941 76.16ZM430.635 74.688C430.848 74.688 431.019 74.7573 431.147 74.896C431.286 75.024 431.355 75.1947 431.355 75.408C431.355 75.6213 431.286 75.7973 431.147 75.936C431.019 76.064 430.848 76.128 430.635 76.128C430.422 76.128 430.246 76.064 430.107 75.936C429.979 75.7973 429.915 75.6213 429.915 75.408C429.915 75.1947 429.979 75.024 430.107 74.896C430.246 74.7573 430.422 74.688 430.635 74.688ZM157.696 95H156.848L155.52 91.688H150.48L149.152 95H148.304L152.528 84.44H153.472L157.696 95ZM150.768 90.952H155.232L152.992 85.224L150.768 90.952ZM163.184 95.16C162.693 95.16 162.235 95.0693 161.808 94.888C161.392 94.7067 161.035 94.4453 160.736 94.104C160.448 93.7627 160.235 93.3627 160.096 92.904L160.208 92.776L160.144 95H159.424V83.32H160.224V89.144L160.128 89C160.341 88.3387 160.72 87.816 161.264 87.432C161.819 87.0373 162.459 86.84 163.184 86.84C163.888 86.84 164.512 87.0053 165.056 87.336C165.6 87.6667 166.032 88.1413 166.352 88.76C166.672 89.3787 166.832 90.1253 166.832 91C166.832 91.864 166.672 92.6107 166.352 93.24C166.032 93.8587 165.595 94.3333 165.04 94.664C164.496 94.9947 163.877 95.16 163.184 95.16ZM163.088 94.456C163.995 94.456 164.709 94.1467 165.232 93.528C165.765 92.9093 166.032 92.0667 166.032 91C166.032 89.9333 165.771 89.0907 165.248 88.472C164.725 87.8533 164.011 87.544 163.104 87.544C162.549 87.544 162.053 87.688 161.616 87.976C161.179 88.2533 160.837 88.6533 160.592 89.176C160.347 89.6987 160.224 90.312 160.224 91.016C160.224 91.72 160.347 92.3333 160.592 92.856C160.837 93.368 161.173 93.7627 161.6 94.04C162.037 94.3173 162.533 94.456 163.088 94.456ZM172.407 86.84C173.153 86.84 173.809 87.0053 174.375 87.336C174.951 87.6667 175.399 88.1467 175.719 88.776C176.049 89.3947 176.215 90.136 176.215 91C176.215 91.864 176.049 92.6107 175.719 93.24C175.399 93.8587 174.951 94.3333 174.375 94.664C173.809 94.9947 173.153 95.16 172.407 95.16C171.66 95.16 170.999 94.9947 170.423 94.664C169.857 94.3333 169.409 93.8587 169.079 93.24C168.759 92.6107 168.599 91.864 168.599 91C168.599 90.136 168.759 89.3947 169.079 88.776C169.409 88.1467 169.857 87.6667 170.423 87.336C170.999 87.0053 171.66 86.84 172.407 86.84ZM172.407 87.528C171.799 87.528 171.271 87.6667 170.823 87.944C170.375 88.2213 170.023 88.6213 169.767 89.144C169.521 89.656 169.399 90.2747 169.399 91C169.399 91.7147 169.521 92.3333 169.767 92.856C170.023 93.3787 170.375 93.7787 170.823 94.056C171.271 94.3333 171.799 94.472 172.407 94.472C173.015 94.472 173.543 94.3333 173.991 94.056C174.439 93.7787 174.785 93.3787 175.031 92.856C175.287 92.3333 175.415 91.7147 175.415 91C175.415 90.2747 175.287 89.656 175.031 89.144C174.785 88.6213 174.439 88.2213 173.991 87.944C173.543 87.6667 173.015 87.528 172.407 87.528ZM183.881 87H184.729L181.385 95H180.585L177.241 87H178.137L181.001 94.168L183.881 87ZM189.579 95.16C188.843 95.16 188.187 94.9947 187.611 94.664C187.035 94.3333 186.581 93.8587 186.251 93.24C185.931 92.6107 185.771 91.864 185.771 91C185.771 90.136 185.931 89.3947 186.251 88.776C186.581 88.1467 187.024 87.6667 187.579 87.336C188.133 87.0053 188.768 86.84 189.483 86.84C190.208 86.84 190.827 87 191.339 87.32C191.851 87.64 192.245 88.088 192.523 88.664C192.8 89.2293 192.939 89.8853 192.939 90.632C192.939 90.728 192.933 90.824 192.923 90.92C192.923 91.0053 192.917 91.0853 192.907 91.16H186.267V90.44H192.555L192.155 90.552C192.144 89.6347 191.899 88.904 191.419 88.36C190.949 87.816 190.299 87.544 189.467 87.544C188.891 87.544 188.384 87.6827 187.947 87.96C187.509 88.2267 187.168 88.6213 186.923 89.144C186.677 89.656 186.555 90.2747 186.555 91C186.555 91.7147 186.677 92.3333 186.923 92.856C187.179 93.3787 187.531 93.7787 187.979 94.056C188.437 94.3227 188.965 94.456 189.563 94.456C190.181 94.456 190.709 94.3227 191.147 94.056C191.595 93.7893 191.941 93.4213 192.187 92.952L192.827 93.32C192.635 93.704 192.379 94.0347 192.059 94.312C191.739 94.5787 191.371 94.7867 190.955 94.936C190.539 95.0853 190.08 95.16 189.579 95.16ZM205.133 89.736C205.133 89.0427 204.946 88.504 204.573 88.12C204.199 87.736 203.666 87.544 202.973 87.544C202.365 87.544 201.842 87.6773 201.405 87.944C200.967 88.2 200.642 88.632 200.429 89.24L199.773 88.824C200.007 88.1947 200.397 87.7093 200.941 87.368C201.495 87.016 202.178 86.84 202.989 86.84C203.575 86.84 204.087 86.9467 204.525 87.16C204.973 87.3627 205.319 87.6667 205.565 88.072C205.81 88.4773 205.933 88.984 205.933 89.592V93.592C205.933 94.1573 206.189 94.44 206.701 94.44C206.925 94.44 207.117 94.4027 207.277 94.328L207.229 94.968C207.047 95.064 206.813 95.112 206.525 95.112C206.279 95.112 206.05 95.064 205.837 94.968C205.623 94.872 205.447 94.712 205.309 94.488C205.181 94.264 205.117 93.96 205.117 93.576V93.144L205.341 93.128C205.245 93.5867 205.031 93.9707 204.701 94.28C204.381 94.5787 204.007 94.8027 203.581 94.952C203.154 95.0907 202.727 95.16 202.301 95.16C201.799 95.16 201.351 95.08 200.957 94.92C200.562 94.76 200.253 94.5307 200.029 94.232C199.805 93.9227 199.693 93.544 199.693 93.096C199.693 92.4987 199.89 92.0187 200.285 91.656C200.69 91.2827 201.255 91.0267 201.981 90.888L205.293 90.232V90.904L202.381 91.48C201.751 91.608 201.282 91.7947 200.973 92.04C200.663 92.2853 200.509 92.6213 200.509 93.048C200.509 93.4853 200.674 93.832 201.005 94.088C201.335 94.3333 201.805 94.456 202.413 94.456C202.722 94.456 203.037 94.4133 203.357 94.328C203.677 94.2427 203.97 94.1093 204.237 93.928C204.514 93.736 204.733 93.5013 204.893 93.224C205.053 92.936 205.133 92.5893 205.133 92.184V89.736ZM209.66 83.32V93.112C209.66 93.6027 209.745 93.9493 209.916 94.152C210.087 94.3547 210.353 94.456 210.716 94.456C210.94 94.456 211.116 94.44 211.244 94.408C211.383 94.376 211.543 94.3227 211.724 94.248L211.612 94.952C211.473 95.016 211.313 95.064 211.132 95.096C210.961 95.1387 210.769 95.16 210.556 95.16C209.991 95.16 209.564 95 209.276 94.68C208.999 94.3493 208.86 93.8373 208.86 93.144V83.32H209.66ZM214.051 83.32V93.112C214.051 93.6027 214.136 93.9493 214.307 94.152C214.477 94.3547 214.744 94.456 215.107 94.456C215.331 94.456 215.507 94.44 215.635 94.408C215.773 94.376 215.933 94.3227 216.115 94.248L216.003 94.952C215.864 95.016 215.704 95.064 215.523 95.096C215.352 95.1387 215.16 95.16 214.947 95.16C214.381 95.16 213.955 95 213.667 94.68C213.389 94.3493 213.251 93.8373 213.251 93.144V83.32H214.051ZM218.041 93.688C218.233 93.688 218.393 93.7413 218.521 93.848C218.66 93.944 218.761 94.0773 218.825 94.248C218.9 94.4187 218.937 94.6213 218.937 94.856C218.937 95.1333 218.884 95.4107 218.777 95.688C218.681 95.9653 218.532 96.2213 218.329 96.456C218.137 96.6907 217.881 96.888 217.561 97.048L217.113 96.648C217.369 96.552 217.593 96.408 217.785 96.216C217.977 96.0347 218.121 95.832 218.217 95.608C218.324 95.3947 218.372 95.1867 218.361 94.984L218.313 94.968C218.281 95.0213 218.239 95.0587 218.185 95.08C218.132 95.112 218.052 95.128 217.945 95.128C217.849 95.128 217.753 95.096 217.657 95.032C217.561 94.9787 217.481 94.904 217.417 94.808C217.353 94.7013 217.321 94.5733 217.321 94.424C217.321 94.296 217.353 94.1733 217.417 94.056C217.492 93.9387 217.583 93.848 217.689 93.784C217.796 93.72 217.913 93.688 218.041 93.688ZM226.237 95V87H226.909L227.005 88.68C227.207 88.1147 227.533 87.6667 227.981 87.336C228.429 87.0053 228.967 86.84 229.597 86.84C229.81 86.84 230.002 86.8613 230.173 86.904C230.343 86.9467 230.482 87.016 230.589 87.112L230.413 87.816C230.295 87.7413 230.167 87.6827 230.029 87.64C229.89 87.5973 229.682 87.576 229.405 87.576C228.999 87.576 228.615 87.704 228.253 87.96C227.89 88.2053 227.597 88.552 227.373 89C227.149 89.4373 227.037 89.944 227.037 90.52V95H226.237ZM235.172 95.16C234.436 95.16 233.78 94.9947 233.204 94.664C232.628 94.3333 232.175 93.8587 231.844 93.24C231.524 92.6107 231.364 91.864 231.364 91C231.364 90.136 231.524 89.3947 231.844 88.776C232.175 88.1467 232.618 87.6667 233.172 87.336C233.727 87.0053 234.362 86.84 235.076 86.84C235.802 86.84 236.42 87 236.932 87.32C237.444 87.64 237.839 88.088 238.116 88.664C238.394 89.2293 238.532 89.8853 238.532 90.632C238.532 90.728 238.527 90.824 238.516 90.92C238.516 91.0053 238.511 91.0853 238.5 91.16H231.86V90.44H238.148L237.748 90.552C237.738 89.6347 237.492 88.904 237.012 88.36C236.543 87.816 235.892 87.544 235.06 87.544C234.484 87.544 233.978 87.6827 233.54 87.96C233.103 88.2267 232.762 88.6213 232.516 89.144C232.271 89.656 232.148 90.2747 232.148 91C232.148 91.7147 232.271 92.3333 232.516 92.856C232.772 93.3787 233.124 93.7787 233.572 94.056C234.031 94.3227 234.559 94.456 235.156 94.456C235.775 94.456 236.303 94.3227 236.74 94.056C237.188 93.7893 237.535 93.4213 237.78 92.952L238.42 93.32C238.228 93.704 237.972 94.0347 237.652 94.312C237.332 94.5787 236.964 94.7867 236.548 94.936C236.132 95.0853 235.674 95.16 235.172 95.16ZM243.519 95.16C242.708 95.16 241.988 94.9947 241.359 94.664C240.74 94.3333 240.303 93.8587 240.047 93.24L240.735 92.776C240.927 93.3093 241.268 93.7253 241.759 94.024C242.26 94.312 242.868 94.456 243.583 94.456C244.287 94.456 244.836 94.3173 245.231 94.04C245.636 93.7627 245.839 93.3947 245.839 92.936C245.839 92.6267 245.737 92.36 245.535 92.136C245.343 91.9013 244.975 91.7253 244.431 91.608L242.559 91.208C241.791 91.048 241.241 90.792 240.911 90.44C240.591 90.0773 240.431 89.64 240.431 89.128C240.431 88.7013 240.559 88.3173 240.815 87.976C241.071 87.6347 241.423 87.3627 241.871 87.16C242.329 86.9467 242.863 86.84 243.471 86.84C244.271 86.84 244.932 87 245.455 87.32C245.977 87.6293 246.345 88.0987 246.559 88.728L245.887 89.16C245.727 88.5947 245.428 88.184 244.991 87.928C244.564 87.672 244.057 87.544 243.471 87.544C243.023 87.544 242.628 87.6133 242.287 87.752C241.956 87.88 241.695 88.0613 241.503 88.296C241.321 88.52 241.231 88.7813 241.231 89.08C241.231 89.3893 241.337 89.672 241.551 89.928C241.764 90.1733 242.143 90.3547 242.687 90.472L244.607 90.888C245.364 91.048 245.892 91.2933 246.191 91.624C246.489 91.944 246.639 92.344 246.639 92.824C246.639 93.304 246.511 93.72 246.255 94.072C245.999 94.424 245.636 94.696 245.167 94.888C244.697 95.0693 244.148 95.16 243.519 95.16ZM248.877 98.36V87H249.597L249.661 89.224L249.549 89.096C249.688 88.6373 249.901 88.2373 250.189 87.896C250.488 87.5547 250.85 87.2933 251.277 87.112C251.704 86.9307 252.168 86.84 252.669 86.84C253.352 86.84 253.965 87.0053 254.509 87.336C255.053 87.6667 255.485 88.1413 255.805 88.76C256.125 89.3787 256.285 90.1253 256.285 91C256.285 91.864 256.125 92.6107 255.805 93.24C255.485 93.8587 255.048 94.3333 254.493 94.664C253.949 94.9947 253.33 95.16 252.637 95.16C251.901 95.16 251.261 94.968 250.717 94.584C250.173 94.1893 249.794 93.6613 249.581 93L249.677 92.856V98.36H248.877ZM252.541 94.456C253.448 94.456 254.162 94.1467 254.685 93.528C255.218 92.9093 255.485 92.0667 255.485 91C255.485 89.9333 255.224 89.0907 254.701 88.472C254.178 87.8533 253.469 87.544 252.573 87.544C252.008 87.544 251.506 87.688 251.069 87.976C250.642 88.2533 250.301 88.6533 250.045 89.176C249.8 89.688 249.677 90.296 249.677 91C249.677 91.6933 249.8 92.3013 250.045 92.824C250.29 93.3467 250.626 93.752 251.053 94.04C251.49 94.3173 251.986 94.456 252.541 94.456ZM261.86 95.16C261.124 95.16 260.468 94.9947 259.892 94.664C259.316 94.3333 258.863 93.8587 258.532 93.24C258.212 92.6107 258.052 91.864 258.052 91C258.052 90.136 258.212 89.3947 258.532 88.776C258.863 88.1467 259.305 87.6667 259.86 87.336C260.415 87.0053 261.049 86.84 261.764 86.84C262.489 86.84 263.108 87 263.62 87.32C264.132 87.64 264.527 88.088 264.804 88.664C265.081 89.2293 265.22 89.8853 265.22 90.632C265.22 90.728 265.215 90.824 265.204 90.92C265.204 91.0053 265.199 91.0853 265.188 91.16H258.548V90.44H264.836L264.436 90.552C264.425 89.6347 264.18 88.904 263.7 88.36C263.231 87.816 262.58 87.544 261.748 87.544C261.172 87.544 260.665 87.6827 260.228 87.96C259.791 88.2267 259.449 88.6213 259.204 89.144C258.959 89.656 258.836 90.2747 258.836 91C258.836 91.7147 258.959 92.3333 259.204 92.856C259.46 93.3787 259.812 93.7787 260.26 94.056C260.719 94.3227 261.247 94.456 261.844 94.456C262.463 94.456 262.991 94.3227 263.428 94.056C263.876 93.7893 264.223 93.4213 264.468 92.952L265.108 93.32C264.916 93.704 264.66 94.0347 264.34 94.312C264.02 94.5787 263.652 94.7867 263.236 94.936C262.82 95.0853 262.361 95.16 261.86 95.16ZM270.734 86.84C271.278 86.84 271.763 86.9253 272.19 87.096C272.617 87.2667 272.979 87.512 273.278 87.832C273.577 88.152 273.806 88.5413 273.966 89L273.214 89.352C273.043 88.776 272.745 88.3333 272.318 88.024C271.902 87.704 271.369 87.544 270.718 87.544C270.131 87.544 269.614 87.6827 269.166 87.96C268.718 88.2267 268.371 88.6213 268.126 89.144C267.881 89.656 267.758 90.2747 267.758 91C267.758 91.7147 267.881 92.3333 268.126 92.856C268.371 93.3787 268.713 93.7787 269.15 94.056C269.587 94.3227 270.105 94.456 270.702 94.456C271.15 94.456 271.555 94.3813 271.918 94.232C272.291 94.0827 272.595 93.864 272.83 93.576C273.075 93.288 273.235 92.9467 273.31 92.552L274.046 92.808C273.907 93.2987 273.678 93.72 273.358 94.072C273.049 94.424 272.67 94.696 272.222 94.888C271.774 95.0693 271.273 95.16 270.718 95.16C269.993 95.16 269.342 94.9947 268.766 94.664C268.201 94.3333 267.758 93.8587 267.438 93.24C267.118 92.6107 266.958 91.864 266.958 91C266.958 90.136 267.118 89.3947 267.438 88.776C267.769 88.1467 268.217 87.6667 268.782 87.336C269.358 87.0053 270.009 86.84 270.734 86.84ZM277.518 84.776V92.888C277.518 93.3893 277.635 93.7733 277.87 94.04C278.115 94.296 278.467 94.424 278.926 94.424C279.224 94.424 279.486 94.376 279.71 94.28C279.944 94.1733 280.152 94.024 280.334 93.832L280.638 94.488C280.435 94.6907 280.179 94.856 279.87 94.984C279.56 95.1013 279.214 95.16 278.83 95.16C278.414 95.16 278.046 95.0853 277.726 94.936C277.406 94.776 277.155 94.536 276.974 94.216C276.803 93.896 276.718 93.4907 276.718 93V85L277.518 84.776ZM280.51 87V87.688H275.118V87H280.51ZM293.056 87L289.184 96.472C288.992 96.9627 288.784 97.352 288.56 97.64C288.336 97.928 288.085 98.1307 287.808 98.248C287.531 98.376 287.211 98.44 286.848 98.44C286.528 98.44 286.235 98.392 285.968 98.296C285.701 98.2 285.483 98.0667 285.312 97.896L285.568 97.208C285.728 97.4 285.92 97.5333 286.144 97.608C286.368 97.6933 286.597 97.736 286.832 97.736C287.173 97.736 287.477 97.6347 287.744 97.432C288.011 97.24 288.261 96.856 288.496 96.28L289.024 95L288.176 93.016L285.648 87H286.56L289.008 93.064L289.408 94.136L289.84 92.984L292.192 87H293.056ZM297.907 86.84C298.653 86.84 299.309 87.0053 299.875 87.336C300.451 87.6667 300.899 88.1467 301.219 88.776C301.549 89.3947 301.715 90.136 301.715 91C301.715 91.864 301.549 92.6107 301.219 93.24C300.899 93.8587 300.451 94.3333 299.875 94.664C299.309 94.9947 298.653 95.16 297.907 95.16C297.16 95.16 296.499 94.9947 295.923 94.664C295.357 94.3333 294.909 93.8587 294.579 93.24C294.259 92.6107 294.099 91.864 294.099 91C294.099 90.136 294.259 89.3947 294.579 88.776C294.909 88.1467 295.357 87.6667 295.923 87.336C296.499 87.0053 297.16 86.84 297.907 86.84ZM297.907 87.528C297.299 87.528 296.771 87.6667 296.323 87.944C295.875 88.2213 295.523 88.6213 295.267 89.144C295.021 89.656 294.899 90.2747 294.899 91C294.899 91.7147 295.021 92.3333 295.267 92.856C295.523 93.3787 295.875 93.7787 296.323 94.056C296.771 94.3333 297.299 94.472 297.907 94.472C298.515 94.472 299.043 94.3333 299.491 94.056C299.939 93.7787 300.285 93.3787 300.531 92.856C300.787 92.3333 300.915 91.7147 300.915 91C300.915 90.2747 300.787 89.656 300.531 89.144C300.285 88.6213 299.939 88.2213 299.491 87.944C299.043 87.6667 298.515 87.528 297.907 87.528ZM306.818 95.16C306.263 95.16 305.767 95.0587 305.33 94.856C304.893 94.6533 304.546 94.3387 304.29 93.912C304.045 93.4747 303.922 92.9307 303.922 92.28V87H304.722V92.088C304.722 92.92 304.919 93.5227 305.314 93.896C305.719 94.2693 306.285 94.456 307.01 94.456C307.437 94.456 307.821 94.3813 308.162 94.232C308.514 94.0827 308.813 93.8747 309.058 93.608C309.303 93.3413 309.49 93.0373 309.618 92.696C309.757 92.3547 309.826 91.9867 309.826 91.592V87H310.626V95H309.906L309.874 93.352C309.639 93.9173 309.255 94.36 308.722 94.68C308.189 95 307.554 95.16 306.818 95.16ZM313.471 95V87H314.143L314.239 88.68C314.442 88.1147 314.767 87.6667 315.215 87.336C315.663 87.0053 316.202 86.84 316.831 86.84C317.044 86.84 317.236 86.8613 317.407 86.904C317.578 86.9467 317.716 87.016 317.823 87.112L317.647 87.816C317.53 87.7413 317.402 87.6827 317.263 87.64C317.124 87.5973 316.916 87.576 316.639 87.576C316.234 87.576 315.85 87.704 315.487 87.96C315.124 88.2053 314.831 88.552 314.607 89C314.383 89.4373 314.271 89.944 314.271 90.52V95H313.471ZM321.941 95.16C321.13 95.16 320.41 94.9947 319.781 94.664C319.162 94.3333 318.725 93.8587 318.469 93.24L319.157 92.776C319.349 93.3093 319.69 93.7253 320.181 94.024C320.682 94.312 321.29 94.456 322.005 94.456C322.709 94.456 323.258 94.3173 323.653 94.04C324.058 93.7627 324.261 93.3947 324.261 92.936C324.261 92.6267 324.159 92.36 323.957 92.136C323.765 91.9013 323.397 91.7253 322.853 91.608L320.981 91.208C320.213 91.048 319.663 90.792 319.333 90.44C319.013 90.0773 318.853 89.64 318.853 89.128C318.853 88.7013 318.981 88.3173 319.237 87.976C319.493 87.6347 319.845 87.3627 320.293 87.16C320.751 86.9467 321.285 86.84 321.893 86.84C322.693 86.84 323.354 87 323.877 87.32C324.399 87.6293 324.767 88.0987 324.981 88.728L324.309 89.16C324.149 88.5947 323.85 88.184 323.413 87.928C322.986 87.672 322.479 87.544 321.893 87.544C321.445 87.544 321.05 87.6133 320.709 87.752C320.378 87.88 320.117 88.0613 319.924 88.296C319.743 88.52 319.653 88.7813 319.653 89.08C319.653 89.3893 319.759 89.672 319.973 89.928C320.186 90.1733 320.565 90.3547 321.109 90.472L323.029 90.888C323.786 91.048 324.314 91.2933 324.613 91.624C324.911 91.944 325.061 92.344 325.061 92.824C325.061 93.304 324.933 93.72 324.677 94.072C324.421 94.424 324.058 94.696 323.589 94.888C323.119 95.0693 322.57 95.16 321.941 95.16ZM330.563 95.16C329.827 95.16 329.171 94.9947 328.595 94.664C328.019 94.3333 327.566 93.8587 327.235 93.24C326.915 92.6107 326.755 91.864 326.755 91C326.755 90.136 326.915 89.3947 327.235 88.776C327.566 88.1467 328.008 87.6667 328.563 87.336C329.118 87.0053 329.752 86.84 330.467 86.84C331.192 86.84 331.811 87 332.323 87.32C332.835 87.64 333.23 88.088 333.507 88.664C333.784 89.2293 333.923 89.8853 333.923 90.632C333.923 90.728 333.918 90.824 333.907 90.92C333.907 91.0053 333.902 91.0853 333.891 91.16H327.251V90.44H333.539L333.139 90.552C333.128 89.6347 332.883 88.904 332.403 88.36C331.934 87.816 331.283 87.544 330.451 87.544C329.875 87.544 329.368 87.6827 328.931 87.96C328.494 88.2267 328.152 88.6213 327.907 89.144C327.662 89.656 327.539 90.2747 327.539 91C327.539 91.7147 327.662 92.3333 327.907 92.856C328.163 93.3787 328.515 93.7787 328.963 94.056C329.422 94.3227 329.95 94.456 330.547 94.456C331.166 94.456 331.694 94.3227 332.131 94.056C332.579 93.7893 332.926 93.4213 333.171 92.952L333.811 93.32C333.619 93.704 333.363 94.0347 333.043 94.312C332.723 94.5787 332.355 94.7867 331.939 94.936C331.523 95.0853 331.064 95.16 330.563 95.16ZM336.941 83.32V93.112C336.941 93.6027 337.027 93.9493 337.197 94.152C337.368 94.3547 337.635 94.456 337.997 94.456C338.221 94.456 338.397 94.44 338.525 94.408C338.664 94.376 338.824 94.3227 339.005 94.248L338.893 94.952C338.755 95.016 338.595 95.064 338.413 95.096C338.243 95.1387 338.051 95.16 337.837 95.16C337.272 95.16 336.845 95 336.557 94.68C336.28 94.3493 336.141 93.8373 336.141 93.144V83.32H336.941ZM343.524 83.24C343.812 83.24 344.068 83.2773 344.292 83.352C344.516 83.4267 344.692 83.5333 344.82 83.672L344.596 84.312C344.457 84.184 344.308 84.0933 344.148 84.04C343.988 83.9867 343.801 83.96 343.588 83.96C343.065 83.96 342.66 84.1093 342.372 84.408C342.084 84.7067 341.94 85.1493 341.94 85.736V87V87.288V95H341.14V85.656C341.14 85.2933 341.188 84.9627 341.284 84.664C341.391 84.3653 341.545 84.1147 341.748 83.912C341.951 83.6987 342.201 83.5333 342.5 83.416C342.799 83.2987 343.14 83.24 343.524 83.24ZM344.756 87V87.688H339.54V87H344.756ZM345.682 93.688C345.895 93.688 346.066 93.7573 346.194 93.896C346.333 94.024 346.402 94.1947 346.402 94.408C346.402 94.6213 346.333 94.7973 346.194 94.936C346.066 95.064 345.895 95.128 345.682 95.128C345.469 95.128 345.293 95.064 345.154 94.936C345.026 94.7973 344.962 94.6213 344.962 94.408C344.962 94.1947 345.026 94.024 345.154 93.896C345.293 93.7573 345.469 93.688 345.682 93.688Z" fill="#303030"/>
<path d="M90.067 93.3667C88.9337 93.7667 87.067 93.7667 85.9337 93.3667C76.267 90.0667 54.667 76.3 54.667 52.9667C54.667 42.6667 62.967 34.3334 73.2003 34.3334C79.267 34.3334 84.6337 37.2667 88.0003 41.8C91.367 37.2667 96.767 34.3334 102.8 34.3334C113.034 34.3334 121.334 42.6667 121.334 52.9667C121.334 76.3 99.7337 90.0667 90.067 93.3667Z" stroke="#303030" stroke-width="2" stroke-linecap="round" stroke-linejoin="round"/>
</svg>
