<svg width="412" height="67" viewBox="0 0 412 67" fill="none" xmlns="http://www.w3.org/2000/svg">
<g clip-path="url(#clip0_2547_18030)">
<g clip-path="url(#clip1_2547_18030)">
<rect width="66.6717" height="66.6717" fill="#FF9900"/>
<mask id="mask0_2547_18030" style="mask-type:alpha" maskUnits="userSpaceOnUse" x="11" y="11" width="45" height="45">
<rect x="12.7801" y="12.7788" width="41.1142" height="41.1142" fill="white" stroke="#FF9900" stroke-width="3.33359"/>
</mask>
<g mask="url(#mask0_2547_18030)">
<path d="M33.3359 33.2071C33.9259 32.4183 34.6787 31.7657 35.5431 31.2934C36.4075 30.8212 37.3633 30.5403 38.3458 30.47C39.3283 30.3996 40.3144 30.5413 41.2373 30.8856C42.1602 31.2299 42.9983 31.7686 43.6946 32.4652L47.8161 36.5867C49.0674 37.8823 49.7598 39.6174 49.7441 41.4185C49.7285 43.2196 49.0061 44.9424 47.7325 46.216C46.4589 47.4896 44.736 48.2121 42.9349 48.2277C41.1338 48.2434 39.3987 47.551 38.1031 46.2997L35.7401 43.9505" stroke="white" stroke-width="3.33359" stroke-linecap="round" stroke-linejoin="round"/>
<path d="M33.3352 33.2071C32.7452 33.9959 31.9925 34.6485 31.1281 35.1208C30.2637 35.593 29.3078 35.8739 28.3253 35.9442C27.3428 36.0146 26.3567 35.8728 25.4338 35.5286C24.5109 35.1843 23.6729 34.6456 22.9765 33.949L18.855 29.8275C17.6037 28.5319 16.9114 26.7968 16.927 24.9957C16.9427 23.1946 17.6651 21.4718 18.9387 20.1982C20.2123 18.9246 21.9352 18.2021 23.7362 18.1865C25.5373 18.1708 27.2725 18.8632 28.568 20.1145L30.9173 22.4637" stroke="white" stroke-width="3.33359" stroke-linecap="round" stroke-linejoin="round"/>
<path d="M29.4512 29.3213L37.2227 37.0929" stroke="white" stroke-width="3.33359" stroke-linecap="round" stroke-linejoin="round"/>
</g>
</g>
<path d="M93.8967 38.9897C94.0183 41.16 94.5304 42.9223 95.4333 44.2765C97.1522 46.8114 100.182 48.0789 104.523 48.0789C106.467 48.0789 108.238 47.8011 109.835 47.2455C112.926 46.169 114.471 44.2418 114.471 41.4638C114.471 39.3803 113.82 37.8958 112.518 37.0104C111.198 36.1422 109.132 35.387 106.32 34.7446L101.137 33.5726C97.7512 32.8086 95.3552 31.9666 93.9488 31.0464C91.5181 29.449 90.3027 27.0617 90.3027 23.8844C90.3027 20.4466 91.492 17.6252 93.8707 15.4202C96.2493 13.2152 99.6176 12.1126 103.976 12.1126C107.986 12.1126 111.389 13.0849 114.185 15.0295C116.997 16.9568 118.404 20.0473 118.404 24.3011H113.534C113.273 22.2523 112.718 20.681 111.867 19.5872C110.287 17.5905 107.604 16.5921 103.819 16.5921C100.764 16.5921 98.5672 17.2346 97.2303 18.5194C95.8934 19.8042 95.2249 21.2974 95.2249 22.9989C95.2249 24.874 96.0063 26.2457 97.5689 27.1138C98.5933 27.6694 100.911 28.3639 104.523 29.1973L109.888 30.4213C112.475 31.0116 114.471 31.819 115.878 32.8434C118.308 34.6317 119.524 37.2274 119.524 40.6304C119.524 44.8668 117.978 47.8966 114.888 49.7196C111.815 51.5427 108.238 52.4542 104.158 52.4542C99.4006 52.4542 95.6764 51.2389 92.9852 48.8081C90.294 46.3947 88.9745 43.1219 89.0266 38.9897H93.8967ZM128.533 15.6546H133.273V23.4416H137.726V27.27H133.273V45.4745C133.273 46.4468 133.602 47.0979 134.262 47.4278C134.627 47.6188 135.235 47.7143 136.085 47.7143C136.311 47.7143 136.554 47.7143 136.815 47.7143C137.075 47.6969 137.379 47.6709 137.726 47.6362V51.3344C137.188 51.4906 136.624 51.6035 136.033 51.6729C135.46 51.7424 134.835 51.7771 134.158 51.7771C131.97 51.7771 130.486 51.2215 129.705 50.1103C128.923 48.9817 128.533 47.5233 128.533 45.735V27.27H124.756V23.4416H128.533V15.6546ZM155.642 48.3133C158.75 48.3133 160.877 47.1413 162.023 44.7974C163.186 42.4361 163.768 39.8144 163.768 36.9322C163.768 34.3279 163.351 32.2096 162.518 30.5776C161.198 28.0079 158.924 26.7231 155.694 26.7231C152.829 26.7231 150.746 27.8169 149.444 30.0046C148.141 32.1923 147.49 34.8314 147.49 37.9219C147.49 40.8909 148.141 43.365 149.444 45.3443C150.746 47.3236 152.812 48.3133 155.642 48.3133ZM155.824 22.6343C159.418 22.6343 162.457 23.8323 164.94 26.2283C167.422 28.6243 168.664 32.1489 168.664 36.802C168.664 41.2989 167.57 45.0144 165.382 47.9487C163.195 50.8829 159.8 52.3501 155.199 52.3501C151.362 52.3501 148.315 51.0566 146.058 48.4696C143.801 45.8652 142.672 42.3753 142.672 38C142.672 33.3122 143.862 29.5792 146.24 26.8012C148.619 24.0233 151.814 22.6343 155.824 22.6343ZM176.527 23.4416H180.98V28.2597C181.345 27.3221 182.239 26.1849 183.663 24.848C185.087 23.4937 186.727 22.8166 188.585 22.8166C188.672 22.8166 188.82 22.8253 189.028 22.8426C189.236 22.86 189.592 22.8947 190.096 22.9468V27.8951C189.818 27.843 189.557 27.8083 189.314 27.7909C189.089 27.7735 188.837 27.7649 188.559 27.7649C186.198 27.7649 184.383 28.5288 183.116 30.0567C181.848 31.5672 181.215 33.3122 181.215 35.2915V51.3344H176.527V23.4416ZM199.886 43.9119C199.886 45.2662 200.381 46.334 201.37 47.1153C202.36 47.8966 203.532 48.2872 204.886 48.2872C206.536 48.2872 208.133 47.9053 209.678 47.1413C212.283 45.8739 213.585 43.7991 213.585 40.9169V37.1406C213.012 37.5052 212.274 37.809 211.371 38.0521C210.468 38.2952 209.583 38.4688 208.715 38.573L205.876 38.9376C204.174 39.1633 202.898 39.5192 202.048 40.0054C200.607 40.8214 199.886 42.1236 199.886 43.9119ZM211.241 34.432C212.317 34.2931 213.038 33.8417 213.403 33.0778C213.611 32.6611 213.715 32.0621 213.715 31.2808C213.715 29.6834 213.142 28.5288 211.996 27.8169C210.868 27.0877 209.244 26.7231 207.126 26.7231C204.678 26.7231 202.942 27.3829 201.917 28.7024C201.344 29.4317 200.971 30.5168 200.798 31.9579H196.422C196.509 28.5201 197.62 26.1328 199.756 24.7959C201.909 23.4416 204.4 22.7645 207.23 22.7645C210.512 22.7645 213.177 23.3895 215.226 24.6396C217.257 25.8897 218.273 27.8343 218.273 30.4734V46.5423C218.273 47.0285 218.368 47.4191 218.559 47.7143C218.768 48.0094 219.193 48.157 219.835 48.157C220.044 48.157 220.278 48.1483 220.539 48.131C220.799 48.0963 221.077 48.0529 221.372 48.0008V51.4646C220.643 51.6729 220.087 51.8031 219.705 51.8552C219.323 51.9073 218.802 51.9334 218.143 51.9334C216.528 51.9334 215.356 51.3604 214.627 50.2145C214.245 49.6068 213.976 48.7473 213.819 47.6362C212.864 48.8862 211.493 49.9714 209.704 50.8916C207.916 51.8118 205.945 52.2719 203.793 52.2719C201.206 52.2719 199.087 51.4906 197.438 49.928C195.806 48.348 194.99 46.3774 194.99 44.0161C194.99 41.4291 195.797 39.4237 197.412 38C199.027 36.5763 201.145 35.6995 203.766 35.3696L211.241 34.432ZM228.245 13.0763H232.933V51.3344H228.245V13.0763ZM242.125 23.5718H246.891V51.3344H242.125V23.5718ZM242.125 13.0763H246.891V18.3892H242.125V13.0763ZM256.134 23.4416H260.587V27.4003C261.907 25.7682 263.305 24.5962 264.78 23.8844C266.256 23.1725 267.897 22.8166 269.703 22.8166C273.661 22.8166 276.335 24.1969 277.724 26.9575C278.488 28.468 278.87 30.6297 278.87 33.4424V51.3344H274.104V33.7549C274.104 32.0534 273.852 30.6817 273.349 29.64C272.515 27.9038 271.005 27.0356 268.817 27.0356C267.706 27.0356 266.794 27.1485 266.083 27.3742C264.798 27.7562 263.669 28.5201 262.697 29.666C261.916 30.5863 261.403 31.5412 261.16 32.5308C260.935 33.5031 260.822 34.9008 260.822 36.7239V51.3344H256.134V23.4416ZM287.853 13.0763H292.359V35.2915L304.391 23.4416H310.381L299.703 33.8851L310.98 51.3344H304.99L296.291 37.2708L292.359 40.8648V51.3344H287.853V13.0763Z" fill="#FF9900"/>
</g>
<defs>
<clipPath id="clip0_2547_18030">
<rect width="412" height="66.6717" fill="white"/>
</clipPath>
<clipPath id="clip1_2547_18030">
<rect width="66.6717" height="66.6717" rx="6.66717" fill="white"/>
</clipPath>
</defs>
</svg>
