<svg width="506" height="277" viewBox="0 0 506 277" fill="none" xmlns="http://www.w3.org/2000/svg">
<g clip-path="url(#clip0_1157_350)">
<path d="M121.41 118.778L120.753 118.398L120.095 118.778L120.753 119.158L121.41 118.778ZM154.144 99.8812L154.801 99.5015L154.144 99.1218L153.486 99.5015L154.144 99.8812ZM276.232 179.702L275.324 179.818L275.324 179.821L276.232 179.702ZM273.586 204.098L274.465 204.273L274.466 204.271L273.586 204.098ZM206.229 242.983L206.529 243.491L206.533 243.49L206.229 242.983ZM163.971 244.51L163.766 245.034L163.766 245.034L163.971 244.51ZM25.781 173.985L25.1233 173.605L24.4655 173.985L25.1233 174.365L25.781 173.985ZM58.5142 155.088L59.172 154.708L58.5142 154.329L57.8565 154.708L58.5142 155.088ZM175.84 218.369L175.588 218.886L175.595 218.887L175.84 218.369ZM197.687 218.238L197.944 218.754L197.944 218.754L197.687 218.238ZM230.798 199.123L229.904 198.974L229.903 198.976L230.798 199.123ZM230.949 186.554L230.052 186.695L230.054 186.699L230.949 186.554ZM122.068 119.158L154.801 100.261L153.486 99.5015L120.753 118.398L122.068 119.158ZM153.486 100.261L254.029 158.305L255.345 157.545L154.801 99.5015L153.486 100.261ZM254.029 158.305C265.209 164.759 272.292 171.929 275.324 179.818L277.14 179.586C274.023 171.473 266.743 164.125 255.345 157.545L254.029 158.305ZM275.324 179.821C278.408 187.689 277.543 195.72 272.705 203.925L274.466 204.271C279.406 195.892 280.304 187.659 277.139 179.583L275.324 179.821ZM272.706 203.923C267.822 212.095 259.039 219.854 246.318 227.197L247.634 227.957C260.515 220.52 269.472 212.626 274.465 204.273L272.706 203.923ZM246.318 227.197C233.547 234.57 220.081 239.655 205.926 242.475L206.533 243.49C221.003 240.608 234.702 235.422 247.634 227.957L246.318 227.197ZM205.93 242.474C191.717 245.267 177.806 245.767 164.176 243.986L163.766 245.034C177.754 246.861 192.015 246.343 206.529 243.491L205.93 242.474ZM164.176 243.986C150.56 242.208 138.163 238.104 126.982 231.649L125.666 232.408C137.063 238.988 149.764 243.205 163.766 245.034L164.176 243.986ZM126.982 231.649L26.4388 173.605L25.1233 174.365L125.666 232.408L126.982 231.649ZM26.4388 174.365L59.172 155.468L57.8565 154.708L25.1233 173.605L26.4388 174.365ZM57.8565 155.468L155.603 211.897L156.918 211.137L59.172 154.708L57.8565 155.468ZM155.603 211.897C161.598 215.358 168.26 217.694 175.588 218.886L176.092 217.852C169.107 216.716 162.716 214.484 156.918 211.137L155.603 211.897ZM175.595 218.887C182.971 220.048 190.427 220.002 197.944 218.754L197.43 217.722C190.231 218.917 183.123 218.959 176.085 217.851L175.595 218.887ZM197.944 218.754C205.477 217.503 212.439 215.02 218.831 211.329L217.516 210.57C211.309 214.153 204.613 216.529 197.43 217.722L197.944 218.754ZM218.831 211.329C225.273 207.61 229.577 203.591 231.693 199.269L229.903 198.976C227.887 203.092 223.774 206.957 217.516 210.57L218.831 211.329ZM231.692 199.271C233.855 194.93 233.909 190.639 231.845 186.408L230.054 186.699C232.022 190.732 231.975 194.819 229.904 198.974L231.692 199.271ZM231.847 186.412C229.834 182.152 225.812 178.289 219.814 174.827L218.499 175.587C224.294 178.932 228.134 182.635 230.052 186.695L231.847 186.412ZM219.814 174.827L122.068 118.398L120.753 119.158L218.499 175.587L219.814 174.827ZM211.767 66.6153L211.998 66.0951L211.484 66.019L211.109 66.2356L211.767 66.6153ZM295.754 79.0532L295.523 79.5734L296.037 79.6495L296.412 79.4329L295.754 79.0532ZM296.964 78.3549L297.622 78.7347L297.996 78.5187L297.866 78.2226L296.964 78.3549ZM275.57 29.7816L274.912 29.4019L274.538 29.6179L274.669 29.914L275.57 29.7816ZM312.537 8.44083L313.441 8.31453L313.051 7.38446L311.879 8.0611L312.537 8.44083ZM342.7 80.4061L341.796 80.5324L341.931 80.8545L342.49 80.9293L342.7 80.4061ZM468.416 97.2082L469.074 97.5879L470.26 96.9033L468.626 96.685L468.416 97.2082ZM430.77 118.942L430.544 119.463L431.055 119.536L431.427 119.321L430.77 118.942ZM346.177 106.766L346.402 106.245L345.892 106.171L345.519 106.386L346.177 106.766ZM344.968 107.464L344.31 107.084L343.938 107.299L344.065 107.594L344.968 107.464ZM366.059 156.299L366.717 156.679L367.089 156.464L366.962 156.169L366.059 156.299ZM328.563 177.945L327.657 178.066L328.033 179.011L329.221 178.325L328.563 177.945ZM299.61 105.282L300.516 105.162L300.387 104.837L299.826 104.76L299.61 105.282ZM174.649 88.0434L173.991 87.6637L172.815 88.3426L174.433 88.5657L174.649 88.0434ZM211.536 67.1355L295.523 79.5734L295.986 78.533L211.998 66.0951L211.536 67.1355ZM296.412 79.4329L297.622 78.7347L296.306 77.9752L295.097 78.6735L296.412 79.4329ZM297.866 78.2226L276.472 29.6493L274.669 29.914L296.062 78.4873L297.866 78.2226ZM276.228 30.1614L313.195 8.82056L311.879 8.0611L274.912 29.4019L276.228 30.1614ZM311.633 8.56712L341.796 80.5324L343.604 80.2798L313.441 8.31453L311.633 8.56712ZM342.49 80.9293L468.207 97.7314L468.626 96.685L342.91 79.8829L342.49 80.9293ZM467.759 96.8284L430.112 118.562L431.427 119.321L469.074 97.5879L467.759 96.8284ZM430.995 118.421L346.402 106.245L345.952 107.287L430.544 119.463L430.995 118.421ZM345.519 106.386L344.31 107.084L345.625 107.844L346.835 107.145L345.519 106.386ZM344.065 107.594L365.156 156.429L366.962 156.169L345.87 107.334L344.065 107.594ZM365.401 155.919L327.905 177.566L329.221 178.325L366.717 156.679L365.401 155.919ZM329.47 177.825L300.516 105.162L298.703 105.402L327.657 178.066L329.47 177.825ZM299.826 104.76L174.865 87.5211L174.433 88.5657L299.394 105.804L299.826 104.76ZM175.307 88.4231L212.425 66.995L211.109 66.2356L173.991 87.6637L175.307 88.4231Z" fill="#303030"/>
</g>
<mask id="mask0_1157_350" style="mask-type:alpha" maskUnits="userSpaceOnUse" x="48" y="0" width="446" height="258">
<path d="M144.533 111.487L177.266 92.5897L277.809 150.633C289.098 157.15 296.28 164.41 299.354 172.411C302.479 180.382 301.597 188.514 296.708 196.806C291.769 205.069 282.899 212.896 270.098 220.286C257.247 227.705 243.665 232.84 229.352 235.691C214.989 238.513 200.903 239.022 187.094 237.219C173.285 235.415 160.736 231.254 149.447 224.737L48.9036 166.693L81.6368 147.797L179.383 204.225C185.279 207.629 191.806 209.913 198.962 211.077C206.169 212.212 213.452 212.168 220.81 210.946C228.168 209.724 234.997 207.295 241.296 203.658C247.646 199.992 251.855 196.05 253.921 191.831C256.038 187.583 256.088 183.394 254.072 179.262C252.107 175.102 248.176 171.319 242.279 167.915L144.533 111.487ZM234.889 59.3238L318.877 71.7617L320.087 71.0634L298.693 22.4901L335.659 1.14932L365.822 73.1146L491.539 89.9167L453.892 111.65L369.3 99.4742L368.09 100.172L389.182 149.008L351.686 170.654L322.732 97.9904L197.772 80.7519L234.889 59.3238Z" fill="#FF0000"/>
</mask>
<g mask="url(#mask0_1157_350)">
<rect x="28.1064" y="-106.343" width="516.829" height="516.829" rx="25.8415" fill="url(#paint0_linear_1157_350)"/>
</g>
<defs>
<linearGradient id="paint0_linear_1157_350" x1="28.1064" y1="-106.343" x2="544.936" y2="410.487" gradientUnits="userSpaceOnUse">
<stop stop-color="#00D1FF"/>
<stop offset="1" stop-color="#3300FF"/>
</linearGradient>
<clipPath id="clip0_1157_350">
<rect width="349.503" height="203.256" fill="white" transform="matrix(0.866044 -0.499967 0.866044 0.499967 0.499023 174.926)"/>
</clipPath>
</defs>
</svg>
