<svg width="524" height="74" viewBox="0 0 524 74" fill="none" xmlns="http://www.w3.org/2000/svg">
<g clip-path="url(#clip0_2547_18016)">
<g clip-path="url(#clip1_2547_18016)">
<path d="M83.8428 21.0545H92.3393L99.1258 42.9638H99.2327L105.538 21.0545H114.035L120.821 42.9638H120.928L127.448 21.0545H135.356L124.722 52.3153H116.974L109.546 30.9404H109.439L102.866 52.3153H94.7974L83.8428 21.0545Z" fill="#FDB415"/>
<path d="M142.303 39.4369C142.837 44.086 146.364 46.8647 150.692 46.8647C154.593 46.8647 157.158 45.0478 159.082 42.6432L164.693 46.8647C161.059 51.3534 156.41 53.1169 151.44 53.1169C141.982 53.1169 134.447 46.5441 134.447 36.7116C134.447 26.8792 141.982 20.3064 151.44 20.3064C160.151 20.3064 166.082 26.4517 166.082 37.2994V39.4369H142.303ZM158.334 33.5588C158.28 29.0167 155.288 26.1311 150.372 26.1311C145.723 26.1311 142.89 29.0701 142.303 33.5588H158.334Z" fill="#FDB415"/>
<path d="M188.045 29.7114C186.549 27.6273 184.571 26.5051 181.9 26.5051C179.816 26.5051 177.357 27.467 177.357 29.8182C177.357 35.4291 194.244 30.887 194.244 43.0707C194.244 50.4984 187.136 53.1169 180.777 53.1169C175.968 53.1169 171.8 51.8878 168.594 48.3075L173.777 43.4447C175.808 45.6357 177.892 47.2922 181.205 47.2922C183.503 47.2922 186.442 46.17 186.442 43.7119C186.442 37.246 169.556 42.3225 169.556 30.406C169.556 23.4592 175.808 20.3064 182.113 20.3064C186.281 20.3064 190.717 21.5889 193.282 25.0623L188.045 29.7114Z" fill="#FDB415"/>
<path d="M195.313 27.6807V21.0545H201.779V11.9702H209.581V21.0545H218.185V27.6807H209.581V41.3606C209.581 44.5134 210.49 46.4372 213.963 46.4372C215.352 46.4372 217.223 46.17 218.185 45.4753V52.0481C216.581 52.8496 213.803 53.0634 211.986 53.0634C203.703 53.0634 201.779 49.3228 201.779 42.0019V27.6807H195.313Z" fill="#FDB415"/>
<path d="M223.367 21.1077H233.734L240.895 41.4139H241.001L248.216 21.1077H258.529V52.2616H251.689V28.3752H251.582L243.406 52.2616H238.169L230.314 28.3752H230.207V52.2616H223.367V21.1077Z" fill="#00294E"/>
<path d="M280.011 20.3063C289.736 20.3063 296.79 26.6653 296.79 36.6581C296.79 46.6508 289.736 53.0099 280.011 53.0099C270.285 53.0099 263.231 46.6508 263.231 36.6581C263.231 26.6653 270.285 20.3063 280.011 20.3063ZM280.011 46.7043C285.835 46.7043 289.683 42.4827 289.683 36.6581C289.683 30.8334 285.835 26.6119 280.011 26.6119C274.186 26.6119 270.339 30.8334 270.339 36.6581C270.339 42.4827 274.186 46.7043 280.011 46.7043Z" fill="#00294E"/>
<path d="M301.493 21.1077H310.791L324.044 42.7498H324.151V21.1077H330.991V52.2616H322.013L308.44 30.0852H308.333V52.2616H301.493V21.1077Z" fill="#00294E"/>
<path d="M336.174 21.1077H348.251C354.61 21.1077 360.007 23.2987 360.007 30.5661C360.007 34.8945 357.656 38.3145 353.274 39.1161L361.182 52.2616H352.953L346.434 39.8108H343.067V52.2616H336.227V21.1077H336.174ZM343.014 33.9861H347.075C349.587 33.9861 352.846 33.8792 352.846 30.5127C352.846 27.4133 350.014 26.9324 347.503 26.9324H343.014V33.9861Z" fill="#00294E"/>
<path d="M379.831 20.3063C389.557 20.3063 396.611 26.6653 396.611 36.6581C396.611 46.6508 389.503 53.0099 379.831 53.0099C370.106 53.0099 363.052 46.6508 363.052 36.6581C362.999 26.6653 370.106 20.3063 379.831 20.3063ZM379.831 46.7043C385.656 46.7043 389.503 42.4827 389.503 36.6581C389.503 30.8334 385.656 26.6119 379.831 26.6119C374.007 26.6119 370.159 30.8334 370.159 36.6581C370.106 42.4827 373.953 46.7043 379.831 46.7043Z" fill="#00294E"/>
<path d="M401.26 21.1077H422.421V27.4133H408.1V33.238H421.619V39.5436H408.1V45.9026H423.222V52.2616H401.26V21.1077Z" fill="#00294E"/>
<path d="M21.108 10.7408H10.7412V21.1077H21.108V10.7408Z" fill="#00294E"/>
<path d="M21.108 52.2617H10.7412V62.6285H21.108V52.2617Z" fill="#00294E"/>
<path d="M62.6813 10.7408H52.3145V21.1077H62.6813V10.7408Z" fill="#00294E"/>
<path d="M62.6813 52.2617H52.3145V62.6285H62.6813V52.2617Z" fill="#00294E"/>
<path d="M7.30993 29.4031L-0.0214844 36.7324L7.30786 44.0638L14.6393 36.7345L7.30993 29.4031Z" fill="#FDB415"/>
<path d="M36.6449 58.7446L29.3135 66.0739L36.6428 73.4053L43.9742 66.076L36.6449 58.7446Z" fill="#00294E"/>
<path d="M36.7034 0.0139176L29.374 7.34534L36.7054 14.6747L44.0348 7.34326L36.7034 0.0139176Z" fill="#00294E"/>
<path d="M66.0355 29.3572L58.7051 36.6876L66.0355 44.018L73.3658 36.6876L66.0355 29.3572Z" fill="#00294E"/>
</g>
</g>
<defs>
<clipPath id="clip0_2547_18016">
<rect width="523.223" height="73.4228" fill="white"/>
</clipPath>
<clipPath id="clip1_2547_18016">
<rect width="423.223" height="73.4228" fill="white"/>
</clipPath>
</defs>
</svg>
