<svg width="1010" height="700" viewBox="0 0 1010 700" fill="none" xmlns="http://www.w3.org/2000/svg">
<path d="M140.3 157H194.6V169.2C189.133 174.6 184.8 180.167 181.6 185.9C178.467 191.567 176.233 197.467 174.9 203.6C173.633 209.733 173 216.2 173 223H156C156 215.733 156.9 208.833 158.7 202.3C160.567 195.7 163.433 189.4 167.3 183.4C171.233 177.4 176.3 171.6 182.5 166L186.1 170.5H140.3V157ZM203.84 223V212C209.507 208.467 214.34 205.167 218.34 202.1C222.34 199.033 225.573 196.133 228.04 193.4C230.573 190.667 232.44 188.067 233.64 185.6C234.84 183.133 235.44 180.733 235.44 178.4C235.44 175.867 234.673 173.767 233.14 172.1C231.673 170.367 229.473 169.5 226.54 169.5C223.407 169.5 220.973 170.667 219.24 173C217.507 175.267 216.573 178.6 216.44 183L201.74 178.5C201.873 173.567 203.04 169.433 205.24 166.1C207.507 162.767 210.573 160.267 214.44 158.6C218.307 156.867 222.707 156 227.64 156C231.973 156 235.707 156.633 238.84 157.9C242.04 159.1 244.64 160.733 246.64 162.8C248.64 164.8 250.107 167.067 251.04 169.6C252.04 172.067 252.54 174.6 252.54 177.2C252.54 181.467 251.44 185.467 249.24 189.2C247.04 192.867 243.84 196.433 239.64 199.9C235.507 203.3 230.473 206.733 224.54 210.2V210.3C225.673 210.233 227.007 210.167 228.54 210.1C230.073 210.033 231.673 210 233.34 210C235.007 209.933 236.507 209.9 237.84 209.9H253.34V223H203.84Z" fill="#E76773"/>
<path d="M145.376 245.814C146.96 245.814 148.216 246.214 149.144 247.014C150.088 247.814 150.56 248.91 150.56 250.302C150.56 251.694 150.088 252.782 149.144 253.566C148.2 254.334 146.936 254.718 145.352 254.718L145.232 254.79H140.696V261.654H139.496V245.814H145.376ZM145.352 253.662C146.632 253.662 147.608 253.374 148.28 252.798C148.968 252.222 149.312 251.39 149.312 250.302C149.312 249.214 148.968 248.382 148.28 247.806C147.608 247.214 146.632 246.918 145.352 246.918H140.696V253.662H145.352ZM146.288 253.878L151.4 261.654H149.984L145.28 254.55L146.288 253.878ZM159.009 261.894C157.905 261.894 156.921 261.646 156.057 261.15C155.193 260.654 154.513 259.942 154.017 259.014C153.537 258.07 153.297 256.95 153.297 255.654C153.297 254.358 153.537 253.246 154.017 252.318C154.513 251.374 155.177 250.654 156.009 250.158C156.841 249.662 157.793 249.414 158.865 249.414C159.953 249.414 160.881 249.654 161.649 250.134C162.417 250.614 163.009 251.286 163.425 252.15C163.841 252.998 164.049 253.982 164.049 255.102C164.049 255.246 164.041 255.39 164.025 255.534C164.025 255.662 164.017 255.782 164.001 255.894H154.041V254.814H163.473L162.873 254.982C162.857 253.606 162.489 252.51 161.769 251.694C161.065 250.878 160.089 250.47 158.841 250.47C157.977 250.47 157.217 250.678 156.561 251.094C155.905 251.494 155.393 252.086 155.025 252.87C154.657 253.638 154.473 254.566 154.473 255.654C154.473 256.726 154.657 257.654 155.025 258.438C155.409 259.222 155.937 259.822 156.609 260.238C157.297 260.638 158.089 260.838 158.985 260.838C159.913 260.838 160.705 260.638 161.361 260.238C162.033 259.838 162.553 259.286 162.921 258.582L163.881 259.134C163.593 259.71 163.209 260.206 162.729 260.622C162.249 261.022 161.697 261.334 161.073 261.558C160.449 261.782 159.761 261.894 159.009 261.894ZM171.528 261.894C170.312 261.894 169.232 261.646 168.288 261.15C167.36 260.654 166.704 259.942 166.32 259.014L167.352 258.318C167.64 259.118 168.152 259.742 168.888 260.19C169.64 260.622 170.552 260.838 171.624 260.838C172.68 260.838 173.504 260.63 174.096 260.214C174.704 259.798 175.008 259.246 175.008 258.558C175.008 258.094 174.856 257.694 174.552 257.358C174.264 257.006 173.712 256.742 172.896 256.566L170.088 255.966C168.936 255.726 168.112 255.342 167.616 254.814C167.136 254.27 166.896 253.614 166.896 252.846C166.896 252.206 167.088 251.63 167.472 251.118C167.856 250.606 168.384 250.198 169.056 249.894C169.744 249.574 170.544 249.414 171.456 249.414C172.656 249.414 173.648 249.654 174.432 250.134C175.216 250.598 175.768 251.302 176.088 252.246L175.08 252.894C174.84 252.046 174.392 251.43 173.736 251.046C173.096 250.662 172.336 250.47 171.456 250.47C170.784 250.47 170.192 250.574 169.68 250.782C169.184 250.974 168.792 251.246 168.504 251.598C168.232 251.934 168.096 252.326 168.096 252.774C168.096 253.238 168.256 253.662 168.576 254.046C168.896 254.414 169.464 254.686 170.28 254.862L173.16 255.486C174.296 255.726 175.088 256.094 175.536 256.59C175.984 257.07 176.208 257.67 176.208 258.39C176.208 259.11 176.016 259.734 175.632 260.262C175.248 260.79 174.704 261.198 174 261.486C173.296 261.758 172.472 261.894 171.528 261.894ZM179.566 266.694V249.654H180.646L180.742 252.99L180.574 252.798C180.782 252.11 181.102 251.51 181.534 250.998C181.982 250.486 182.526 250.094 183.166 249.822C183.806 249.55 184.502 249.414 185.254 249.414C186.278 249.414 187.198 249.662 188.014 250.158C188.83 250.654 189.478 251.366 189.958 252.294C190.438 253.222 190.678 254.342 190.678 255.654C190.678 256.95 190.438 258.07 189.958 259.014C189.478 259.942 188.822 260.654 187.99 261.15C187.174 261.646 186.246 261.894 185.206 261.894C184.102 261.894 183.142 261.606 182.326 261.03C181.51 260.438 180.942 259.646 180.622 258.654L180.766 258.438V266.694H179.566ZM185.062 260.838C186.422 260.838 187.494 260.374 188.278 259.446C189.078 258.518 189.478 257.254 189.478 255.654C189.478 254.054 189.086 252.79 188.302 251.862C187.518 250.934 186.454 250.47 185.11 250.47C184.262 250.47 183.51 250.686 182.854 251.118C182.214 251.534 181.702 252.134 181.318 252.918C180.95 253.686 180.766 254.598 180.766 255.654C180.766 256.694 180.95 257.606 181.318 258.39C181.686 259.174 182.19 259.782 182.83 260.214C183.486 260.63 184.23 260.838 185.062 260.838ZM199.04 249.414C200.16 249.414 201.144 249.662 201.992 250.158C202.856 250.654 203.528 251.374 204.008 252.318C204.504 253.246 204.752 254.358 204.752 255.654C204.752 256.95 204.504 258.07 204.008 259.014C203.528 259.942 202.856 260.654 201.992 261.15C201.144 261.646 200.16 261.894 199.04 261.894C197.92 261.894 196.928 261.646 196.064 261.15C195.216 260.654 194.544 259.942 194.048 259.014C193.568 258.07 193.328 256.95 193.328 255.654C193.328 254.358 193.568 253.246 194.048 252.318C194.544 251.374 195.216 250.654 196.064 250.158C196.928 249.662 197.92 249.414 199.04 249.414ZM199.04 250.446C198.128 250.446 197.336 250.654 196.664 251.07C195.992 251.486 195.464 252.086 195.08 252.87C194.712 253.638 194.528 254.566 194.528 255.654C194.528 256.726 194.712 257.654 195.08 258.438C195.464 259.222 195.992 259.822 196.664 260.238C197.336 260.654 198.128 260.862 199.04 260.862C199.952 260.862 200.744 260.654 201.416 260.238C202.088 259.822 202.608 259.222 202.976 258.438C203.36 257.654 203.552 256.726 203.552 255.654C203.552 254.566 203.36 253.638 202.976 252.87C202.608 252.086 202.088 251.486 201.416 251.07C200.744 250.654 199.952 250.446 199.04 250.446ZM208.183 261.654V249.654H209.263L209.359 252.654L209.167 252.486C209.391 251.83 209.727 251.278 210.175 250.83C210.623 250.366 211.159 250.014 211.783 249.774C212.407 249.534 213.079 249.414 213.799 249.414C214.695 249.414 215.487 249.582 216.175 249.918C216.863 250.254 217.399 250.75 217.783 251.406C218.183 252.062 218.383 252.886 218.383 253.878V261.654H217.183V254.262C217.183 252.95 216.855 251.99 216.199 251.382C215.559 250.774 214.719 250.47 213.679 250.47C212.927 250.47 212.223 250.646 211.567 250.998C210.927 251.334 210.399 251.83 209.983 252.486C209.583 253.142 209.383 253.942 209.383 254.886V261.654H208.183ZM227.207 261.894C226.167 261.894 225.231 261.646 224.399 261.15C223.567 260.654 222.911 259.942 222.431 259.014C221.967 258.07 221.735 256.95 221.735 255.654C221.735 254.326 221.983 253.198 222.479 252.27C222.975 251.342 223.647 250.638 224.495 250.158C225.343 249.662 226.279 249.414 227.303 249.414C228.423 249.414 229.375 249.71 230.159 250.302C230.959 250.894 231.495 251.718 231.767 252.774L231.623 252.87V244.134H232.823V261.654H231.743L231.671 258.318L231.815 258.27C231.671 259.038 231.375 259.694 230.927 260.238C230.495 260.782 229.951 261.198 229.295 261.486C228.655 261.758 227.959 261.894 227.207 261.894ZM227.351 260.838C228.199 260.838 228.943 260.63 229.583 260.214C230.223 259.782 230.719 259.166 231.071 258.366C231.439 257.566 231.623 256.63 231.623 255.558C231.623 254.502 231.439 253.598 231.071 252.846C230.719 252.078 230.223 251.494 229.583 251.094C228.959 250.678 228.231 250.47 227.399 250.47C226.023 250.47 224.935 250.934 224.135 251.862C223.335 252.79 222.935 254.054 222.935 255.654C222.935 257.254 223.327 258.518 224.111 259.446C224.911 260.374 225.991 260.838 227.351 260.838ZM242.001 261.894C240.897 261.894 239.913 261.646 239.049 261.15C238.185 260.654 237.505 259.942 237.009 259.014C236.529 258.07 236.289 256.95 236.289 255.654C236.289 254.358 236.529 253.246 237.009 252.318C237.505 251.374 238.169 250.654 239.001 250.158C239.833 249.662 240.785 249.414 241.857 249.414C242.945 249.414 243.873 249.654 244.641 250.134C245.409 250.614 246.001 251.286 246.417 252.15C246.833 252.998 247.041 253.982 247.041 255.102C247.041 255.246 247.033 255.39 247.017 255.534C247.017 255.662 247.009 255.782 246.993 255.894H237.033V254.814H246.465L245.865 254.982C245.849 253.606 245.481 252.51 244.761 251.694C244.057 250.878 243.081 250.47 241.833 250.47C240.969 250.47 240.209 250.678 239.553 251.094C238.897 251.494 238.385 252.086 238.017 252.87C237.649 253.638 237.465 254.566 237.465 255.654C237.465 256.726 237.649 257.654 238.017 258.438C238.401 259.222 238.929 259.822 239.601 260.238C240.289 260.638 241.081 260.838 241.977 260.838C242.905 260.838 243.697 260.638 244.353 260.238C245.025 259.838 245.545 259.286 245.913 258.582L246.873 259.134C246.585 259.71 246.201 260.206 245.721 260.622C245.241 261.022 244.689 261.334 244.065 261.558C243.441 261.782 242.753 261.894 242.001 261.894ZM250.464 261.654V249.654H251.544L251.64 252.654L251.448 252.486C251.672 251.83 252.008 251.278 252.456 250.83C252.904 250.366 253.44 250.014 254.064 249.774C254.688 249.534 255.36 249.414 256.08 249.414C256.976 249.414 257.768 249.582 258.456 249.918C259.144 250.254 259.68 250.75 260.064 251.406C260.464 252.062 260.664 252.886 260.664 253.878V261.654H259.464V254.262C259.464 252.95 259.136 251.99 258.48 251.382C257.84 250.774 257 250.47 255.96 250.47C255.208 250.47 254.504 250.646 253.848 250.998C253.208 251.334 252.68 251.83 252.264 252.486C251.864 253.142 251.664 253.942 251.664 254.886V261.654H250.464ZM266.495 246.318V258.486C266.495 259.238 266.671 259.814 267.023 260.214C267.391 260.598 267.919 260.79 268.607 260.79C269.055 260.79 269.447 260.718 269.783 260.574C270.135 260.414 270.447 260.19 270.719 259.902L271.175 260.886C270.871 261.19 270.487 261.438 270.023 261.63C269.559 261.806 269.039 261.894 268.463 261.894C267.839 261.894 267.287 261.782 266.807 261.558C266.327 261.318 265.951 260.958 265.679 260.478C265.423 259.998 265.295 259.39 265.295 258.654V246.654L266.495 246.318ZM270.983 249.654V250.686H262.895V249.654H270.983ZM277.606 261.894C276.39 261.894 275.31 261.646 274.366 261.15C273.438 260.654 272.782 259.942 272.398 259.014L273.43 258.318C273.718 259.118 274.23 259.742 274.966 260.19C275.718 260.622 276.63 260.838 277.702 260.838C278.758 260.838 279.582 260.63 280.174 260.214C280.782 259.798 281.086 259.246 281.086 258.558C281.086 258.094 280.934 257.694 280.63 257.358C280.342 257.006 279.79 256.742 278.974 256.566L276.166 255.966C275.014 255.726 274.19 255.342 273.694 254.814C273.214 254.27 272.974 253.614 272.974 252.846C272.974 252.206 273.166 251.63 273.55 251.118C273.934 250.606 274.462 250.198 275.134 249.894C275.822 249.574 276.622 249.414 277.534 249.414C278.734 249.414 279.726 249.654 280.51 250.134C281.294 250.598 281.846 251.302 282.166 252.246L281.158 252.894C280.918 252.046 280.47 251.43 279.814 251.046C279.174 250.662 278.414 250.47 277.534 250.47C276.862 250.47 276.27 250.574 275.758 250.782C275.262 250.974 274.87 251.246 274.582 251.598C274.31 251.934 274.174 252.326 274.174 252.774C274.174 253.238 274.334 253.662 274.654 254.046C274.974 254.414 275.542 254.686 276.358 254.862L279.238 255.486C280.374 255.726 281.166 256.094 281.614 256.59C282.062 257.07 282.286 257.67 282.286 258.39C282.286 259.11 282.094 259.734 281.71 260.262C281.326 260.79 280.782 261.198 280.078 261.486C279.374 261.758 278.55 261.894 277.606 261.894Z" fill="#303030"/>
<mask id="path-3-outside-1_2006_1170" maskUnits="userSpaceOnUse" x="460" y="143.289" width="414" height="414" fill="black">
<rect fill="white" x="460" y="143.289" width="414" height="414"/>
<path d="M872.617 350.098C872.617 463.763 780.474 555.907 666.809 555.907C553.144 555.907 461 463.763 461 350.098C461 236.433 553.144 144.289 666.809 144.289C780.474 144.289 872.617 236.433 872.617 350.098ZM481.581 350.098C481.581 452.396 564.51 535.326 666.809 535.326C769.107 535.326 852.037 452.396 852.037 350.098C852.037 247.799 769.107 164.87 666.809 164.87C564.51 164.87 481.581 247.799 481.581 350.098Z"/>
</mask>
<path d="M872.617 350.098C872.617 463.763 780.474 555.907 666.809 555.907C553.144 555.907 461 463.763 461 350.098C461 236.433 553.144 144.289 666.809 144.289C780.474 144.289 872.617 236.433 872.617 350.098ZM481.581 350.098C481.581 452.396 564.51 535.326 666.809 535.326C769.107 535.326 852.037 452.396 852.037 350.098C852.037 247.799 769.107 164.87 666.809 164.87C564.51 164.87 481.581 247.799 481.581 350.098Z" fill="white"/>
<path d="M872.617 350.098C872.617 463.763 780.474 555.907 666.809 555.907C553.144 555.907 461 463.763 461 350.098C461 236.433 553.144 144.289 666.809 144.289C780.474 144.289 872.617 236.433 872.617 350.098ZM481.581 350.098C481.581 452.396 564.51 535.326 666.809 535.326C769.107 535.326 852.037 452.396 852.037 350.098C852.037 247.799 769.107 164.87 666.809 164.87C564.51 164.87 481.581 247.799 481.581 350.098Z" stroke="#E76773" stroke-width="1.64647" mask="url(#path-3-outside-1_2006_1170)"/>
<path d="M666.809 154.579C666.809 148.896 671.42 144.262 677.096 144.546C718.019 146.593 757.489 160.82 790.38 185.515C826.021 212.275 852.012 249.88 864.446 292.679C876.88 335.477 875.085 381.155 859.331 422.846C844.793 461.321 819.09 494.482 785.634 518.138C780.994 521.42 774.618 519.978 771.573 515.179V515.179C768.527 510.381 769.968 504.045 774.59 500.738C804.292 479.488 827.116 449.877 840.079 415.571C854.257 378.049 855.873 336.939 844.682 298.421C833.491 259.902 810.1 226.057 778.023 201.974C748.696 179.954 713.559 167.183 677.095 165.155C671.42 164.84 666.809 160.262 666.809 154.579V154.579Z" fill="#E76773"/>
<path d="M603.5 367.289V352.789H571.3V341.989C571.9 340.922 572.667 339.622 573.6 338.089C574.6 336.556 575.767 334.789 577.1 332.789L598.6 301.289H618.7V340.989H628.8V352.789H618.7V367.289H603.5ZM585.1 340.989H603.7V320.989C603.7 319.656 603.733 318.289 603.8 316.889C603.867 315.422 603.933 313.956 604 312.489H603.8C603.133 313.889 602.333 315.356 601.4 316.889C600.533 318.356 599.7 319.689 598.9 320.889L587.2 337.989C586.867 338.522 586.533 339.022 586.2 339.489C585.867 339.956 585.5 340.456 585.1 340.989ZM648.307 367.289V329.289C648.307 327.556 648.307 325.789 648.307 323.989C648.374 322.122 648.407 320.222 648.407 318.289C646.207 320.289 643.774 322.056 641.107 323.589C638.44 325.056 635.64 326.056 632.707 326.589L631.107 312.389C632.84 312.256 634.674 311.822 636.607 311.089C638.607 310.356 640.574 309.456 642.507 308.389C644.44 307.322 646.174 306.189 647.707 304.989C649.24 303.722 650.407 302.489 651.207 301.289H664.907V367.289H648.307ZM689.773 367.289L735.673 301.189H748.673L702.773 367.289H689.773ZM693.873 300.289C697.673 300.289 700.94 301.089 703.673 302.689C706.473 304.222 708.64 306.389 710.173 309.189C711.707 311.989 712.473 315.289 712.473 319.089C712.473 322.889 711.707 326.189 710.173 328.989C708.64 331.789 706.473 333.989 703.673 335.589C700.94 337.122 697.673 337.889 693.873 337.889C690.14 337.889 686.873 337.122 684.073 335.589C681.34 333.989 679.173 331.789 677.573 328.989C676.04 326.189 675.273 322.889 675.273 319.089C675.273 315.289 676.04 311.989 677.573 309.189C679.173 306.389 681.34 304.222 684.073 302.689C686.873 301.089 690.14 300.289 693.873 300.289ZM693.873 311.689C692.607 311.689 691.54 311.989 690.673 312.589C689.807 313.122 689.14 313.956 688.673 315.089C688.207 316.156 687.973 317.489 687.973 319.089C687.973 320.622 688.207 321.956 688.673 323.089C689.14 324.222 689.807 325.089 690.673 325.689C691.54 326.222 692.607 326.489 693.873 326.489C695.207 326.489 696.307 326.222 697.173 325.689C698.04 325.089 698.707 324.222 699.173 323.089C699.64 321.956 699.873 320.622 699.873 319.089C699.873 317.489 699.64 316.156 699.173 315.089C698.707 313.956 698.04 313.122 697.173 312.589C696.307 311.989 695.207 311.689 693.873 311.689ZM744.373 330.689C748.107 330.689 751.373 331.489 754.173 333.089C756.973 334.622 759.14 336.789 760.673 339.589C762.207 342.389 762.973 345.689 762.973 349.489C762.973 353.289 762.207 356.589 760.673 359.389C759.14 362.189 756.973 364.389 754.173 365.989C751.373 367.522 748.107 368.289 744.373 368.289C740.64 368.289 737.373 367.522 734.573 365.989C731.773 364.389 729.607 362.189 728.073 359.389C726.54 356.589 725.773 353.289 725.773 349.489C725.773 345.689 726.54 342.389 728.073 339.589C729.607 336.789 731.773 334.622 734.573 333.089C737.373 331.489 740.64 330.689 744.373 330.689ZM744.373 342.089C743.107 342.089 742.007 342.389 741.073 342.989C740.207 343.522 739.54 344.356 739.073 345.489C738.607 346.556 738.373 347.889 738.373 349.489C738.373 351.022 738.607 352.356 739.073 353.489C739.54 354.622 740.207 355.489 741.073 356.089C742.007 356.622 743.107 356.889 744.373 356.889C745.707 356.889 746.807 356.622 747.673 356.089C748.54 355.489 749.207 354.622 749.673 353.489C750.14 352.356 750.373 351.022 750.373 349.489C750.373 347.889 750.14 346.556 749.673 345.489C749.207 344.356 748.54 343.522 747.673 342.989C746.807 342.389 745.707 342.089 744.373 342.089Z" fill="#E76773"/>
<path d="M588.915 405.943V390.103H599.739V391.207H590.115V397.327H597.723V398.455H590.115V404.839H600.123V405.943H588.915ZM603.466 393.943L607.474 399.151L607.594 399.319L612.682 405.943H611.17L606.85 400.351L606.706 400.159L601.93 393.943H603.466ZM612.322 393.943L607.666 400.063L607.522 400.159L603.13 405.943H601.69L606.826 399.295L606.922 399.247L610.882 393.943H612.322ZM615.344 410.983V393.943H616.424L616.52 397.279L616.352 397.087C616.56 396.399 616.88 395.799 617.312 395.287C617.76 394.775 618.304 394.383 618.944 394.111C619.584 393.839 620.28 393.703 621.032 393.703C622.056 393.703 622.976 393.951 623.792 394.447C624.608 394.943 625.256 395.655 625.736 396.583C626.216 397.511 626.456 398.631 626.456 399.943C626.456 401.239 626.216 402.359 625.736 403.303C625.256 404.231 624.6 404.943 623.768 405.439C622.952 405.935 622.024 406.183 620.984 406.183C619.88 406.183 618.92 405.895 618.104 405.319C617.288 404.727 616.72 403.935 616.4 402.943L616.544 402.727V410.983H615.344ZM620.84 405.127C622.2 405.127 623.272 404.663 624.056 403.735C624.856 402.807 625.256 401.543 625.256 399.943C625.256 398.343 624.864 397.079 624.08 396.151C623.296 395.223 622.232 394.759 620.888 394.759C620.04 394.759 619.288 394.975 618.632 395.407C617.992 395.823 617.48 396.423 617.096 397.207C616.728 397.975 616.544 398.887 616.544 399.943C616.544 400.983 616.728 401.895 617.096 402.679C617.464 403.463 617.968 404.071 618.608 404.503C619.264 404.919 620.008 405.127 620.84 405.127ZM634.818 406.183C633.714 406.183 632.73 405.935 631.866 405.439C631.002 404.943 630.322 404.231 629.826 403.303C629.346 402.359 629.106 401.239 629.106 399.943C629.106 398.647 629.346 397.535 629.826 396.607C630.322 395.663 630.986 394.943 631.818 394.447C632.65 393.951 633.602 393.703 634.674 393.703C635.762 393.703 636.69 393.943 637.458 394.423C638.226 394.903 638.818 395.575 639.234 396.439C639.65 397.287 639.858 398.271 639.858 399.391C639.858 399.535 639.85 399.679 639.834 399.823C639.834 399.951 639.826 400.071 639.81 400.183H629.85V399.103H639.282L638.682 399.271C638.666 397.895 638.298 396.799 637.578 395.983C636.874 395.167 635.898 394.759 634.65 394.759C633.786 394.759 633.026 394.967 632.37 395.383C631.714 395.783 631.202 396.375 630.834 397.159C630.466 397.927 630.282 398.855 630.282 399.943C630.282 401.015 630.466 401.943 630.834 402.727C631.218 403.511 631.746 404.111 632.418 404.527C633.106 404.927 633.898 405.127 634.794 405.127C635.722 405.127 636.514 404.927 637.17 404.527C637.842 404.127 638.362 403.575 638.73 402.871L639.69 403.423C639.402 403.999 639.018 404.495 638.538 404.911C638.058 405.311 637.506 405.623 636.882 405.847C636.258 406.071 635.57 406.183 634.818 406.183ZM643.282 405.943V393.943H644.29L644.434 396.463C644.738 395.615 645.226 394.943 645.898 394.447C646.57 393.951 647.378 393.703 648.322 393.703C648.642 393.703 648.93 393.735 649.186 393.799C649.442 393.863 649.65 393.967 649.81 394.111L649.546 395.167C649.37 395.055 649.178 394.967 648.97 394.903C648.762 394.839 648.45 394.807 648.034 394.807C647.426 394.807 646.85 394.999 646.306 395.383C645.762 395.751 645.322 396.271 644.986 396.943C644.65 397.599 644.482 398.359 644.482 399.223V405.943H643.282ZM652.952 391.615C652.648 391.615 652.4 391.527 652.208 391.351C652.032 391.159 651.944 390.911 651.944 390.607C651.944 390.303 652.032 390.063 652.208 389.887C652.4 389.695 652.648 389.599 652.952 389.599C653.256 389.599 653.496 389.695 653.672 389.887C653.864 390.063 653.96 390.303 653.96 390.607C653.96 390.911 653.864 391.159 653.672 391.351C653.496 391.527 653.256 391.615 652.952 391.615ZM653.552 393.943V405.943H652.352V393.943H653.552ZM662.709 406.183C661.605 406.183 660.621 405.935 659.757 405.439C658.893 404.943 658.213 404.231 657.717 403.303C657.237 402.359 656.997 401.239 656.997 399.943C656.997 398.647 657.237 397.535 657.717 396.607C658.213 395.663 658.877 394.943 659.709 394.447C660.541 393.951 661.493 393.703 662.565 393.703C663.653 393.703 664.581 393.943 665.349 394.423C666.117 394.903 666.709 395.575 667.125 396.439C667.541 397.287 667.749 398.271 667.749 399.391C667.749 399.535 667.741 399.679 667.725 399.823C667.725 399.951 667.717 400.071 667.701 400.183H657.741V399.103H667.173L666.573 399.271C666.557 397.895 666.189 396.799 665.469 395.983C664.765 395.167 663.789 394.759 662.541 394.759C661.677 394.759 660.917 394.967 660.261 395.383C659.605 395.783 659.093 396.375 658.725 397.159C658.357 397.927 658.173 398.855 658.173 399.943C658.173 401.015 658.357 401.943 658.725 402.727C659.109 403.511 659.637 404.111 660.309 404.527C660.997 404.927 661.789 405.127 662.685 405.127C663.613 405.127 664.405 404.927 665.061 404.527C665.733 404.127 666.253 403.575 666.621 402.871L667.581 403.423C667.293 403.999 666.909 404.495 666.429 404.911C665.949 405.311 665.397 405.623 664.773 405.847C664.149 406.071 663.461 406.183 662.709 406.183ZM671.172 405.943V393.943H672.252L672.348 396.943L672.156 396.775C672.38 396.119 672.716 395.567 673.164 395.119C673.612 394.655 674.148 394.303 674.772 394.063C675.396 393.823 676.068 393.703 676.788 393.703C677.684 393.703 678.476 393.871 679.164 394.207C679.852 394.543 680.388 395.039 680.772 395.695C681.172 396.351 681.372 397.175 681.372 398.167V405.943H680.172V398.551C680.172 397.239 679.844 396.279 679.188 395.671C678.548 395.063 677.708 394.759 676.668 394.759C675.916 394.759 675.212 394.935 674.556 395.287C673.916 395.623 673.388 396.119 672.972 396.775C672.572 397.431 672.372 398.231 672.372 399.175V405.943H671.172ZM690.364 393.703C691.18 393.703 691.908 393.831 692.548 394.087C693.188 394.343 693.732 394.711 694.18 395.191C694.628 395.671 694.972 396.255 695.212 396.943L694.084 397.471C693.828 396.607 693.38 395.943 692.74 395.479C692.116 394.999 691.316 394.759 690.34 394.759C689.46 394.759 688.684 394.967 688.012 395.383C687.34 395.783 686.82 396.375 686.452 397.159C686.084 397.927 685.9 398.855 685.9 399.943C685.9 401.015 686.084 401.943 686.452 402.727C686.82 403.511 687.332 404.111 687.988 404.527C688.644 404.927 689.42 405.127 690.316 405.127C690.988 405.127 691.596 405.015 692.14 404.791C692.7 404.567 693.156 404.239 693.508 403.807C693.876 403.375 694.116 402.863 694.228 402.271L695.332 402.655C695.124 403.391 694.78 404.023 694.3 404.551C693.836 405.079 693.268 405.487 692.596 405.775C691.924 406.047 691.172 406.183 690.34 406.183C689.252 406.183 688.276 405.935 687.412 405.439C686.564 404.943 685.9 404.231 685.42 403.303C684.94 402.359 684.7 401.239 684.7 399.943C684.7 398.647 684.94 397.535 685.42 396.607C685.916 395.663 686.588 394.943 687.436 394.447C688.3 393.951 689.276 393.703 690.364 393.703ZM703.443 406.183C702.339 406.183 701.355 405.935 700.491 405.439C699.627 404.943 698.947 404.231 698.451 403.303C697.971 402.359 697.731 401.239 697.731 399.943C697.731 398.647 697.971 397.535 698.451 396.607C698.947 395.663 699.611 394.943 700.443 394.447C701.275 393.951 702.227 393.703 703.299 393.703C704.387 393.703 705.315 393.943 706.083 394.423C706.851 394.903 707.443 395.575 707.859 396.439C708.275 397.287 708.483 398.271 708.483 399.391C708.483 399.535 708.475 399.679 708.459 399.823C708.459 399.951 708.451 400.071 708.435 400.183H698.475V399.103H707.907L707.307 399.271C707.291 397.895 706.923 396.799 706.203 395.983C705.499 395.167 704.523 394.759 703.275 394.759C702.411 394.759 701.651 394.967 700.995 395.383C700.339 395.783 699.827 396.375 699.459 397.159C699.091 397.927 698.907 398.855 698.907 399.943C698.907 401.015 699.091 401.943 699.459 402.727C699.843 403.511 700.371 404.111 701.043 404.527C701.731 404.927 702.523 405.127 703.419 405.127C704.347 405.127 705.139 404.927 705.795 404.527C706.467 404.127 706.987 403.575 707.355 402.871L708.315 403.423C708.027 403.999 707.643 404.495 707.163 404.911C706.683 405.311 706.131 405.623 705.507 405.847C704.883 406.071 704.195 406.183 703.443 406.183ZM716.587 406.183C715.547 406.183 714.611 405.935 713.779 405.439C712.947 404.943 712.291 404.231 711.811 403.303C711.347 402.359 711.115 401.239 711.115 399.943C711.115 398.615 711.363 397.487 711.859 396.559C712.355 395.631 713.027 394.927 713.875 394.447C714.723 393.951 715.659 393.703 716.683 393.703C717.803 393.703 718.755 393.999 719.539 394.591C720.339 395.183 720.875 396.007 721.147 397.063L721.003 397.159V388.423H722.203V405.943H721.123L721.051 402.607L721.195 402.559C721.051 403.327 720.755 403.983 720.307 404.527C719.875 405.071 719.331 405.487 718.675 405.775C718.035 406.047 717.339 406.183 716.587 406.183ZM716.731 405.127C717.579 405.127 718.323 404.919 718.963 404.503C719.603 404.071 720.099 403.455 720.451 402.655C720.819 401.855 721.003 400.919 721.003 399.847C721.003 398.791 720.819 397.887 720.451 397.135C720.099 396.367 719.603 395.783 718.963 395.383C718.339 394.967 717.611 394.759 716.779 394.759C715.403 394.759 714.315 395.223 713.515 396.151C712.715 397.079 712.315 398.343 712.315 399.943C712.315 401.543 712.707 402.807 713.491 403.735C714.291 404.663 715.371 405.127 716.731 405.127ZM735.568 390.103V405.943H734.368V390.103H735.568ZM742.188 390.607V402.775C742.188 403.527 742.364 404.103 742.716 404.503C743.084 404.887 743.612 405.079 744.3 405.079C744.748 405.079 745.14 405.007 745.476 404.863C745.828 404.703 746.14 404.479 746.412 404.191L746.868 405.175C746.564 405.479 746.18 405.727 745.716 405.919C745.252 406.095 744.732 406.183 744.156 406.183C743.532 406.183 742.98 406.071 742.5 405.847C742.02 405.607 741.644 405.247 741.372 404.767C741.116 404.287 740.988 403.679 740.988 402.943V390.943L742.188 390.607ZM746.676 393.943V394.975H738.588V393.943H746.676Z" fill="#303030"/>
<path d="M168.3 446.123C173.3 446.123 177.633 446.856 181.3 448.323C184.967 449.79 187.8 451.89 189.8 454.623C191.867 457.29 192.9 460.49 192.9 464.223C192.9 467.756 192.033 470.79 190.3 473.323C188.567 475.856 186 477.79 182.6 479.123V479.223C186.6 480.556 189.7 482.523 191.9 485.123C194.1 487.656 195.2 490.923 195.2 494.923C195.2 498.79 194.1 502.156 191.9 505.023C189.767 507.823 186.7 510.023 182.7 511.623C178.7 513.156 173.9 513.923 168.3 513.923C162.767 513.923 158 513.156 154 511.623C150 510.023 146.9 507.823 144.7 505.023C142.567 502.156 141.5 498.79 141.5 494.923C141.5 490.923 142.6 487.656 144.8 485.123C147 482.523 150.1 480.556 154.1 479.223V479.123C150.767 477.856 148.2 475.956 146.4 473.423C144.6 470.823 143.7 467.756 143.7 464.223C143.7 460.49 144.7 457.29 146.7 454.623C148.767 451.89 151.667 449.79 155.4 448.323C159.133 446.856 163.433 446.123 168.3 446.123ZM168.4 458.623C165.733 458.623 163.6 459.29 162 460.623C160.4 461.956 159.6 463.823 159.6 466.223C159.6 468.556 160.4 470.423 162 471.823C163.6 473.156 165.733 473.823 168.4 473.823C171.067 473.823 173.167 473.156 174.7 471.823C176.3 470.423 177.1 468.556 177.1 466.223C177.1 463.823 176.3 461.956 174.7 460.623C173.167 459.29 171.067 458.623 168.4 458.623ZM168.4 501.423C170.533 501.423 172.333 501.123 173.8 500.523C175.333 499.856 176.5 498.89 177.3 497.623C178.1 496.356 178.5 494.89 178.5 493.223C178.5 491.49 178.1 490.023 177.3 488.823C176.5 487.556 175.333 486.623 173.8 486.023C172.267 485.356 170.467 485.023 168.4 485.023C166.333 485.023 164.5 485.356 162.9 486.023C161.367 486.623 160.2 487.556 159.4 488.823C158.6 490.023 158.2 491.49 158.2 493.223C158.2 494.89 158.6 496.356 159.4 497.623C160.2 498.89 161.367 499.856 162.9 500.523C164.433 501.123 166.267 501.423 168.4 501.423Z" fill="#E76773"/>
<path d="M144.488 535.737C147.016 535.737 148.96 536.409 150.32 537.753C151.696 539.081 152.384 541.009 152.384 543.537C152.384 546.145 151.696 548.137 150.32 549.513C148.96 550.889 147.016 551.577 144.488 551.577H139.496V535.737H144.488ZM144.584 550.473C146.696 550.473 148.312 549.873 149.432 548.673C150.568 547.473 151.136 545.761 151.136 543.537C151.136 541.393 150.568 539.745 149.432 538.593C148.312 537.425 146.696 536.841 144.584 536.841H140.696V550.473H144.584ZM160.235 551.817C159.403 551.817 158.659 551.665 158.003 551.361C157.347 551.057 156.827 550.585 156.443 549.945C156.075 549.289 155.891 548.473 155.891 547.497V539.577H157.091V547.209C157.091 548.457 157.387 549.361 157.979 549.921C158.587 550.481 159.435 550.761 160.523 550.761C161.163 550.761 161.739 550.649 162.251 550.425C162.779 550.201 163.227 549.889 163.595 549.489C163.963 549.089 164.243 548.633 164.435 548.121C164.643 547.609 164.747 547.057 164.747 546.465V539.577H165.947V551.577H164.867L164.819 549.105C164.467 549.953 163.891 550.617 163.091 551.097C162.291 551.577 161.339 551.817 160.235 551.817ZM170.214 551.577V539.577H171.222L171.366 542.097C171.67 541.249 172.158 540.577 172.83 540.081C173.502 539.585 174.31 539.337 175.254 539.337C175.574 539.337 175.862 539.369 176.118 539.433C176.374 539.497 176.582 539.601 176.742 539.745L176.478 540.801C176.302 540.689 176.11 540.601 175.902 540.537C175.694 540.473 175.382 540.441 174.966 540.441C174.358 540.441 173.782 540.633 173.238 541.017C172.694 541.385 172.254 541.905 171.918 542.577C171.582 543.233 171.414 543.993 171.414 544.857V551.577H170.214ZM186.324 543.681C186.324 542.641 186.044 541.833 185.484 541.257C184.924 540.681 184.124 540.393 183.084 540.393C182.172 540.393 181.388 540.593 180.732 540.993C180.076 541.377 179.588 542.025 179.268 542.937L178.284 542.313C178.636 541.369 179.22 540.641 180.036 540.129C180.868 539.601 181.892 539.337 183.108 539.337C183.988 539.337 184.756 539.497 185.412 539.817C186.084 540.121 186.604 540.577 186.972 541.185C187.34 541.793 187.524 542.553 187.524 543.465V549.465C187.524 550.313 187.908 550.737 188.676 550.737C189.012 550.737 189.3 550.681 189.54 550.569L189.468 551.529C189.196 551.673 188.844 551.745 188.412 551.745C188.044 551.745 187.7 551.673 187.38 551.529C187.06 551.385 186.796 551.145 186.588 550.809C186.396 550.473 186.3 550.017 186.3 549.441V548.793L186.636 548.769C186.492 549.457 186.172 550.033 185.676 550.497C185.196 550.945 184.636 551.281 183.996 551.505C183.356 551.713 182.716 551.817 182.076 551.817C181.324 551.817 180.652 551.697 180.06 551.457C179.468 551.217 179.004 550.873 178.668 550.425C178.332 549.961 178.164 549.393 178.164 548.721C178.164 547.825 178.46 547.105 179.052 546.561C179.66 546.001 180.508 545.617 181.596 545.409L186.564 544.425V545.433L182.196 546.297C181.252 546.489 180.548 546.769 180.084 547.137C179.62 547.505 179.388 548.009 179.388 548.649C179.388 549.305 179.636 549.825 180.132 550.209C180.628 550.577 181.332 550.761 182.244 550.761C182.708 550.761 183.18 550.697 183.66 550.569C184.14 550.441 184.58 550.241 184.98 549.969C185.396 549.681 185.724 549.329 185.964 548.913C186.204 548.481 186.324 547.961 186.324 547.353V543.681ZM193.651 536.241V548.409C193.651 549.161 193.827 549.737 194.179 550.137C194.547 550.521 195.075 550.713 195.763 550.713C196.211 550.713 196.603 550.641 196.939 550.497C197.291 550.337 197.603 550.113 197.875 549.825L198.331 550.809C198.027 551.113 197.643 551.361 197.179 551.553C196.715 551.729 196.195 551.817 195.619 551.817C194.995 551.817 194.443 551.705 193.963 551.481C193.483 551.241 193.107 550.881 192.835 550.401C192.579 549.921 192.451 549.313 192.451 548.577V536.577L193.651 536.241ZM198.139 539.577V540.609H190.051V539.577H198.139ZM201.306 537.249C201.002 537.249 200.754 537.161 200.562 536.985C200.386 536.793 200.298 536.545 200.298 536.241C200.298 535.937 200.386 535.697 200.562 535.521C200.754 535.329 201.002 535.233 201.306 535.233C201.61 535.233 201.85 535.329 202.026 535.521C202.218 535.697 202.314 535.937 202.314 536.241C202.314 536.545 202.218 536.793 202.026 536.985C201.85 537.161 201.61 537.249 201.306 537.249ZM201.906 539.577V551.577H200.706V539.577H201.906ZM211.063 539.337C212.183 539.337 213.167 539.585 214.015 540.081C214.879 540.577 215.551 541.297 216.031 542.241C216.527 543.169 216.775 544.281 216.775 545.577C216.775 546.873 216.527 547.993 216.031 548.937C215.551 549.865 214.879 550.577 214.015 551.073C213.167 551.569 212.183 551.817 211.063 551.817C209.943 551.817 208.951 551.569 208.087 551.073C207.239 550.577 206.567 549.865 206.071 548.937C205.591 547.993 205.351 546.873 205.351 545.577C205.351 544.281 205.591 543.169 206.071 542.241C206.567 541.297 207.239 540.577 208.087 540.081C208.951 539.585 209.943 539.337 211.063 539.337ZM211.063 540.369C210.151 540.369 209.359 540.577 208.687 540.993C208.015 541.409 207.487 542.009 207.103 542.793C206.735 543.561 206.551 544.489 206.551 545.577C206.551 546.649 206.735 547.577 207.103 548.361C207.487 549.145 208.015 549.745 208.687 550.161C209.359 550.577 210.151 550.785 211.063 550.785C211.975 550.785 212.767 550.577 213.439 550.161C214.111 549.745 214.631 549.145 214.999 548.361C215.383 547.577 215.575 546.649 215.575 545.577C215.575 544.489 215.383 543.561 214.999 542.793C214.631 542.009 214.111 541.409 213.439 540.993C212.767 540.577 211.975 540.369 211.063 540.369ZM220.206 551.577V539.577H221.286L221.382 542.577L221.19 542.409C221.414 541.753 221.75 541.201 222.198 540.753C222.646 540.289 223.182 539.937 223.806 539.697C224.43 539.457 225.102 539.337 225.822 539.337C226.718 539.337 227.51 539.505 228.198 539.841C228.886 540.177 229.422 540.673 229.806 541.329C230.206 541.985 230.406 542.809 230.406 543.801V551.577H229.206V544.185C229.206 542.873 228.878 541.913 228.222 541.305C227.582 540.697 226.742 540.393 225.702 540.393C224.95 540.393 224.246 540.569 223.59 540.921C222.95 541.257 222.422 541.753 222.006 542.409C221.606 543.065 221.406 543.865 221.406 544.809V551.577H220.206ZM246.105 533.673L246.778 534.369C245.754 535.265 244.93 536.241 244.306 537.297C243.682 538.353 243.226 539.505 242.938 540.753C242.666 541.985 242.53 543.329 242.53 544.785C242.53 546.241 242.666 547.593 242.938 548.841C243.226 550.073 243.682 551.217 244.306 552.273C244.93 553.329 245.754 554.305 246.778 555.201L246.105 555.897C244.49 554.521 243.282 552.913 242.482 551.073C241.698 549.233 241.306 547.137 241.306 544.785C241.306 542.433 241.698 540.337 242.482 538.497C243.282 536.657 244.49 535.049 246.105 533.673ZM254.433 535.737C256.961 535.737 258.905 536.409 260.265 537.753C261.641 539.081 262.329 541.009 262.329 543.537C262.329 546.145 261.641 548.137 260.265 549.513C258.905 550.889 256.961 551.577 254.433 551.577H249.441V535.737H254.433ZM254.529 550.473C256.641 550.473 258.257 549.873 259.377 548.673C260.513 547.473 261.081 545.761 261.081 543.537C261.081 541.393 260.513 539.745 259.377 538.593C258.257 537.425 256.641 536.841 254.529 536.841H250.641V550.473H254.529ZM273.3 543.681C273.3 542.641 273.02 541.833 272.46 541.257C271.9 540.681 271.1 540.393 270.06 540.393C269.148 540.393 268.364 540.593 267.708 540.993C267.052 541.377 266.564 542.025 266.244 542.937L265.26 542.313C265.612 541.369 266.196 540.641 267.012 540.129C267.844 539.601 268.868 539.337 270.084 539.337C270.964 539.337 271.732 539.497 272.388 539.817C273.06 540.121 273.58 540.577 273.948 541.185C274.316 541.793 274.5 542.553 274.5 543.465V549.465C274.5 550.313 274.884 550.737 275.652 550.737C275.988 550.737 276.276 550.681 276.516 550.569L276.444 551.529C276.172 551.673 275.82 551.745 275.388 551.745C275.02 551.745 274.676 551.673 274.356 551.529C274.036 551.385 273.772 551.145 273.564 550.809C273.372 550.473 273.276 550.017 273.276 549.441V548.793L273.612 548.769C273.468 549.457 273.148 550.033 272.652 550.497C272.172 550.945 271.612 551.281 270.972 551.505C270.332 551.713 269.692 551.817 269.052 551.817C268.3 551.817 267.628 551.697 267.036 551.457C266.444 551.217 265.98 550.873 265.644 550.425C265.308 549.961 265.14 549.393 265.14 548.721C265.14 547.825 265.436 547.105 266.028 546.561C266.636 546.001 267.484 545.617 268.572 545.409L273.54 544.425V545.433L269.172 546.297C268.228 546.489 267.524 546.769 267.06 547.137C266.596 547.505 266.364 548.009 266.364 548.649C266.364 549.305 266.612 549.825 267.108 550.209C267.604 550.577 268.308 550.761 269.22 550.761C269.684 550.761 270.156 550.697 270.636 550.569C271.116 550.441 271.556 550.241 271.956 549.969C272.372 549.681 272.7 549.329 272.94 548.913C273.18 548.481 273.3 547.961 273.3 547.353V543.681ZM287.881 539.577L282.073 553.785C281.785 554.521 281.473 555.105 281.137 555.537C280.801 555.969 280.425 556.273 280.009 556.449C279.593 556.641 279.113 556.737 278.569 556.737C278.089 556.737 277.649 556.665 277.249 556.521C276.849 556.377 276.521 556.177 276.265 555.921L276.649 554.889C276.889 555.177 277.177 555.377 277.513 555.489C277.849 555.617 278.193 555.681 278.545 555.681C279.057 555.681 279.513 555.529 279.913 555.225C280.313 554.937 280.689 554.361 281.041 553.497L281.833 551.577L280.561 548.601L276.769 539.577H278.137L281.809 548.673L282.409 550.281L283.057 548.553L286.585 539.577H287.881ZM294.176 551.817C292.96 551.817 291.88 551.569 290.936 551.073C290.008 550.577 289.352 549.865 288.968 548.937L290 548.241C290.288 549.041 290.8 549.665 291.536 550.113C292.288 550.545 293.2 550.761 294.272 550.761C295.328 550.761 296.152 550.553 296.744 550.137C297.352 549.721 297.656 549.169 297.656 548.481C297.656 548.017 297.504 547.617 297.2 547.281C296.912 546.929 296.36 546.665 295.544 546.489L292.736 545.889C291.584 545.649 290.76 545.265 290.264 544.737C289.784 544.193 289.544 543.537 289.544 542.769C289.544 542.129 289.736 541.553 290.12 541.041C290.504 540.529 291.032 540.121 291.704 539.817C292.392 539.497 293.192 539.337 294.104 539.337C295.304 539.337 296.296 539.577 297.08 540.057C297.864 540.521 298.416 541.225 298.736 542.169L297.728 542.817C297.488 541.969 297.04 541.353 296.384 540.969C295.744 540.585 294.984 540.393 294.104 540.393C293.432 540.393 292.84 540.497 292.328 540.705C291.832 540.897 291.44 541.169 291.152 541.521C290.88 541.857 290.744 542.249 290.744 542.697C290.744 543.161 290.904 543.585 291.224 543.969C291.544 544.337 292.112 544.609 292.928 544.785L295.808 545.409C296.944 545.649 297.736 546.017 298.184 546.513C298.632 546.993 298.856 547.593 298.856 548.313C298.856 549.033 298.664 549.657 298.28 550.185C297.896 550.713 297.352 551.121 296.648 551.409C295.944 551.681 295.12 551.817 294.176 551.817ZM300.269 555.897L299.597 555.201C300.605 554.305 301.421 553.329 302.045 552.273C302.669 551.217 303.125 550.073 303.413 548.841C303.701 547.593 303.845 546.241 303.845 544.785C303.845 543.329 303.701 541.985 303.413 540.753C303.125 539.505 302.669 538.353 302.045 537.297C301.421 536.241 300.605 535.265 299.597 534.369L300.269 533.673C301.869 535.049 303.061 536.657 303.845 538.497C304.645 540.337 305.045 542.433 305.045 544.785C305.045 547.137 304.645 549.233 303.845 551.073C303.061 552.913 301.869 554.521 300.269 555.897Z" fill="#303030"/>
</svg>
