<svg width="1011" height="701" viewBox="0 0 1011 701" fill="none" xmlns="http://www.w3.org/2000/svg">
<path d="M147.476 226.293L180.038 161.897V161.351H142.376V151.698H191.693V161.678L159.24 226.293H147.476ZM204.359 226.293V218.134L229.601 191.982C232.296 189.141 234.518 186.653 236.266 184.516C238.039 182.355 239.362 180.303 240.236 178.36C241.11 176.418 241.547 174.354 241.547 172.168C241.547 169.691 240.965 167.555 239.799 165.758C238.634 163.937 237.043 162.54 235.028 161.569C233.012 160.574 230.742 160.076 228.217 160.076C225.545 160.076 223.214 160.622 221.223 161.715C219.232 162.808 217.702 164.349 216.634 166.341C215.566 168.332 215.031 170.663 215.031 173.334H204.287C204.287 168.793 205.331 164.823 207.419 161.423C209.507 158.024 212.372 155.389 216.015 153.52C219.657 151.626 223.797 150.679 228.435 150.679C233.121 150.679 237.249 151.614 240.819 153.483C244.413 155.329 247.217 157.854 249.233 161.059C251.248 164.24 252.256 167.834 252.256 171.84C252.256 174.609 251.734 177.316 250.69 179.963C249.67 182.61 247.885 185.56 245.335 188.814C242.786 192.043 239.241 195.965 234.7 200.578L219.876 216.095V216.641H253.458V226.293H204.359Z" fill="#E76773"/>
<path d="M140.092 264.947V243.968H147.57C149.196 243.968 150.544 244.248 151.616 244.808C152.696 245.368 153.501 246.143 154.034 247.133C154.567 248.116 154.833 249.253 154.833 250.544C154.833 251.828 154.563 252.958 154.024 253.935C153.491 254.905 152.685 255.659 151.606 256.199C150.534 256.738 149.185 257.008 147.56 257.008H141.895V254.283H147.273C148.297 254.283 149.131 254.136 149.773 253.843C150.421 253.549 150.896 253.122 151.196 252.562C151.497 252.002 151.647 251.33 151.647 250.544C151.647 249.752 151.494 249.066 151.186 248.485C150.886 247.905 150.411 247.461 149.762 247.153C149.12 246.839 148.277 246.682 147.232 246.682H143.257V264.947H140.092ZM150.449 255.482L155.632 264.947H152.026L146.945 255.482H150.449ZM165.023 265.265C163.473 265.265 162.138 264.934 161.018 264.271C159.905 263.602 159.044 262.663 158.436 261.454C157.835 260.238 157.535 258.815 157.535 257.182C157.535 255.571 157.835 254.15 158.436 252.921C159.044 251.692 159.891 250.732 160.977 250.042C162.07 249.352 163.347 249.008 164.808 249.008C165.696 249.008 166.557 249.154 167.39 249.448C168.223 249.742 168.971 250.203 169.633 250.831C170.296 251.459 170.818 252.275 171.2 253.279C171.583 254.276 171.774 255.489 171.774 256.916V258.002H159.266V255.707H168.773C168.773 254.901 168.609 254.188 168.281 253.566C167.953 252.938 167.492 252.443 166.898 252.081C166.311 251.719 165.621 251.538 164.829 251.538C163.968 251.538 163.217 251.75 162.575 252.173C161.94 252.59 161.448 253.136 161.1 253.812C160.758 254.481 160.588 255.209 160.588 255.994V257.787C160.588 258.838 160.772 259.733 161.141 260.471C161.516 261.208 162.039 261.772 162.708 262.161C163.377 262.543 164.159 262.735 165.054 262.735C165.635 262.735 166.164 262.653 166.642 262.489C167.12 262.318 167.533 262.065 167.881 261.731C168.23 261.396 168.496 260.983 168.68 260.491L171.579 261.014C171.347 261.867 170.931 262.615 170.33 263.257C169.736 263.892 168.988 264.387 168.086 264.742C167.192 265.091 166.171 265.265 165.023 265.265ZM186.963 253.054L184.187 253.546C184.071 253.191 183.887 252.853 183.634 252.532C183.388 252.211 183.054 251.948 182.63 251.743C182.207 251.538 181.677 251.435 181.042 251.435C180.175 251.435 179.451 251.63 178.871 252.019C178.29 252.402 178 252.897 178 253.505C178 254.031 178.195 254.454 178.584 254.775C178.973 255.096 179.601 255.359 180.469 255.564L182.968 256.137C184.416 256.472 185.495 256.988 186.205 257.684C186.916 258.381 187.271 259.286 187.271 260.399C187.271 261.341 186.998 262.181 186.451 262.919C185.912 263.65 185.157 264.223 184.187 264.64C183.224 265.057 182.108 265.265 180.837 265.265C179.076 265.265 177.638 264.889 176.525 264.138C175.412 263.38 174.729 262.304 174.476 260.911L177.436 260.46C177.621 261.232 178 261.816 178.574 262.212C179.147 262.601 179.895 262.796 180.817 262.796C181.821 262.796 182.623 262.588 183.224 262.171C183.825 261.748 184.126 261.232 184.126 260.624C184.126 260.133 183.941 259.719 183.573 259.385C183.211 259.05 182.654 258.797 181.903 258.627L179.239 258.043C177.771 257.708 176.685 257.175 175.982 256.445C175.285 255.714 174.937 254.789 174.937 253.669C174.937 252.74 175.196 251.927 175.715 251.231C176.235 250.534 176.952 249.991 177.867 249.602C178.782 249.206 179.83 249.008 181.012 249.008C182.712 249.008 184.051 249.376 185.027 250.114C186.004 250.845 186.649 251.825 186.963 253.054ZM190.638 270.848V249.212H193.63V251.763H193.886C194.063 251.435 194.319 251.056 194.654 250.626C194.989 250.196 195.453 249.82 196.047 249.499C196.641 249.172 197.427 249.008 198.403 249.008C199.674 249.008 200.807 249.329 201.804 249.971C202.801 250.613 203.583 251.538 204.15 252.747C204.724 253.955 205.011 255.41 205.011 257.111C205.011 258.811 204.727 260.269 204.16 261.485C203.594 262.694 202.815 263.626 201.825 264.281C200.835 264.93 199.704 265.255 198.434 265.255C197.478 265.255 196.696 265.094 196.088 264.773C195.487 264.452 195.016 264.077 194.675 263.646C194.333 263.216 194.07 262.834 193.886 262.499H193.701V270.848H190.638ZM193.64 257.08C193.64 258.186 193.8 259.156 194.121 259.989C194.442 260.822 194.907 261.475 195.515 261.946C196.122 262.41 196.867 262.642 197.748 262.642C198.663 262.642 199.428 262.4 200.042 261.915C200.657 261.423 201.121 260.757 201.436 259.917C201.757 259.077 201.917 258.132 201.917 257.08C201.917 256.042 201.76 255.11 201.446 254.283C201.139 253.457 200.674 252.805 200.053 252.327C199.438 251.849 198.67 251.61 197.748 251.61C196.86 251.61 196.109 251.838 195.494 252.296C194.886 252.753 194.425 253.392 194.111 254.212C193.797 255.031 193.64 255.987 193.64 257.08ZM215.07 265.265C213.595 265.265 212.308 264.927 211.208 264.251C210.109 263.575 209.255 262.629 208.647 261.413C208.04 260.197 207.736 258.777 207.736 257.152C207.736 255.519 208.04 254.092 208.647 252.87C209.255 251.647 210.109 250.698 211.208 250.022C212.308 249.346 213.595 249.008 215.07 249.008C216.545 249.008 217.833 249.346 218.932 250.022C220.032 250.698 220.886 251.647 221.493 252.87C222.101 254.092 222.405 255.519 222.405 257.152C222.405 258.777 222.101 260.197 221.493 261.413C220.886 262.629 220.032 263.575 218.932 264.251C217.833 264.927 216.545 265.265 215.07 265.265ZM215.081 262.694C216.037 262.694 216.829 262.441 217.457 261.936C218.085 261.43 218.55 260.757 218.85 259.917C219.158 259.077 219.311 258.152 219.311 257.141C219.311 256.137 219.158 255.215 218.85 254.375C218.55 253.529 218.085 252.849 217.457 252.337C216.829 251.825 216.037 251.569 215.081 251.569C214.118 251.569 213.319 251.825 212.683 252.337C212.055 252.849 211.587 253.529 211.28 254.375C210.98 255.215 210.829 256.137 210.829 257.141C210.829 258.152 210.98 259.077 211.28 259.917C211.587 260.757 212.055 261.43 212.683 261.936C213.319 262.441 214.118 262.694 215.081 262.694ZM228.887 255.605V264.947H225.824V249.212H228.764V251.773H228.959C229.321 250.94 229.887 250.271 230.659 249.766C231.438 249.26 232.418 249.008 233.599 249.008C234.671 249.008 235.61 249.233 236.416 249.684C237.222 250.128 237.847 250.79 238.291 251.671C238.735 252.552 238.957 253.641 238.957 254.939V264.947H235.894V255.308C235.894 254.167 235.597 253.276 235.003 252.634C234.408 251.985 233.592 251.661 232.554 251.661C231.844 251.661 231.212 251.814 230.659 252.122C230.113 252.429 229.679 252.88 229.358 253.474C229.044 254.061 228.887 254.772 228.887 255.605ZM248.955 265.255C247.685 265.255 246.551 264.93 245.554 264.281C244.564 263.626 243.785 262.694 243.218 261.485C242.658 260.269 242.378 258.811 242.378 257.111C242.378 255.41 242.662 253.955 243.229 252.747C243.802 251.538 244.588 250.613 245.585 249.971C246.582 249.329 247.712 249.008 248.975 249.008C249.952 249.008 250.737 249.172 251.332 249.499C251.933 249.82 252.397 250.196 252.725 250.626C253.059 251.056 253.319 251.435 253.503 251.763H253.688V243.968H256.751V264.947H253.759V262.499H253.503C253.319 262.834 253.053 263.216 252.704 263.646C252.363 264.077 251.892 264.452 251.291 264.773C250.69 265.094 249.911 265.255 248.955 265.255ZM249.631 262.642C250.512 262.642 251.256 262.41 251.864 261.946C252.479 261.475 252.943 260.822 253.257 259.989C253.578 259.156 253.739 258.186 253.739 257.08C253.739 255.987 253.582 255.031 253.268 254.212C252.953 253.392 252.493 252.753 251.885 252.296C251.277 251.838 250.526 251.61 249.631 251.61C248.709 251.61 247.941 251.849 247.326 252.327C246.711 252.805 246.247 253.457 245.933 254.283C245.626 255.11 245.472 256.042 245.472 257.08C245.472 258.132 245.629 259.077 245.943 259.917C246.257 260.757 246.722 261.423 247.336 261.915C247.958 262.4 248.723 262.642 249.631 262.642ZM267.904 265.265C266.353 265.265 265.018 264.934 263.898 264.271C262.785 263.602 261.925 262.663 261.317 261.454C260.716 260.238 260.415 258.815 260.415 257.182C260.415 255.571 260.716 254.15 261.317 252.921C261.925 251.692 262.771 250.732 263.857 250.042C264.95 249.352 266.227 249.008 267.689 249.008C268.576 249.008 269.437 249.154 270.27 249.448C271.103 249.742 271.851 250.203 272.514 250.831C273.176 251.459 273.698 252.275 274.081 253.279C274.463 254.276 274.655 255.489 274.655 256.916V258.002H262.147V255.707H271.653C271.653 254.901 271.489 254.188 271.161 253.566C270.834 252.938 270.373 252.443 269.778 252.081C269.191 251.719 268.501 251.538 267.709 251.538C266.849 251.538 266.097 251.75 265.455 252.173C264.82 252.59 264.329 253.136 263.98 253.812C263.639 254.481 263.468 255.209 263.468 255.994V257.787C263.468 258.838 263.652 259.733 264.021 260.471C264.397 261.208 264.919 261.772 265.589 262.161C266.258 262.543 267.04 262.735 267.934 262.735C268.515 262.735 269.044 262.653 269.522 262.489C270 262.318 270.414 262.065 270.762 261.731C271.11 261.396 271.376 260.983 271.561 260.491L274.46 261.014C274.228 261.867 273.811 262.615 273.21 263.257C272.616 263.892 271.868 264.387 270.967 264.742C270.072 265.091 269.051 265.265 267.904 265.265ZM281.116 255.605V264.947H278.053V249.212H280.993V251.773H281.188C281.55 250.94 282.116 250.271 282.888 249.766C283.667 249.26 284.647 249.008 285.828 249.008C286.9 249.008 287.839 249.233 288.645 249.684C289.451 250.128 290.076 250.79 290.52 251.671C290.964 252.552 291.186 253.641 291.186 254.939V264.947H288.123V255.308C288.123 254.167 287.826 253.276 287.232 252.634C286.637 251.985 285.821 251.661 284.783 251.661C284.073 251.661 283.441 251.814 282.888 252.122C282.342 252.429 281.908 252.88 281.587 253.474C281.273 254.061 281.116 254.772 281.116 255.605ZM302.639 249.212V251.671H294.044V249.212H302.639ZM296.349 245.443H299.412V260.327C299.412 260.921 299.5 261.369 299.678 261.669C299.856 261.963 300.084 262.164 300.364 262.274C300.651 262.376 300.962 262.427 301.297 262.427C301.542 262.427 301.758 262.41 301.942 262.376C302.126 262.342 302.27 262.315 302.372 262.294L302.925 264.824C302.748 264.893 302.495 264.961 302.167 265.029C301.84 265.104 301.43 265.145 300.938 265.152C300.132 265.166 299.381 265.022 298.684 264.722C297.988 264.421 297.424 263.957 296.994 263.329C296.564 262.7 296.349 261.912 296.349 260.962V245.443ZM317.564 253.054L314.788 253.546C314.672 253.191 314.487 252.853 314.235 252.532C313.989 252.211 313.654 251.948 313.231 251.743C312.807 251.538 312.278 251.435 311.643 251.435C310.776 251.435 310.052 251.63 309.471 252.019C308.891 252.402 308.601 252.897 308.601 253.505C308.601 254.031 308.795 254.454 309.184 254.775C309.574 255.096 310.202 255.359 311.069 255.564L313.569 256.137C315.017 256.472 316.096 256.988 316.806 257.684C317.516 258.381 317.871 259.286 317.871 260.399C317.871 261.341 317.598 262.181 317.052 262.919C316.512 263.65 315.758 264.223 314.788 264.64C313.825 265.057 312.708 265.265 311.438 265.265C309.676 265.265 308.239 264.889 307.125 264.138C306.012 263.38 305.329 262.304 305.077 260.911L308.037 260.46C308.222 261.232 308.601 261.816 309.174 262.212C309.748 262.601 310.496 262.796 311.418 262.796C312.422 262.796 313.224 262.588 313.825 262.171C314.426 261.748 314.726 261.232 314.726 260.624C314.726 260.133 314.542 259.719 314.173 259.385C313.811 259.05 313.255 258.797 312.504 258.627L309.84 258.043C308.372 257.708 307.286 257.175 306.582 256.445C305.886 255.714 305.538 254.789 305.538 253.669C305.538 252.74 305.797 251.927 306.316 251.231C306.835 250.534 307.552 249.991 308.467 249.602C309.383 249.206 310.431 249.008 311.612 249.008C313.313 249.008 314.651 249.376 315.628 250.114C316.605 250.845 317.25 251.825 317.564 253.054Z" fill="#303030"/>
<mask id="path-3-outside-1_1157_458" maskUnits="userSpaceOnUse" x="460.793" y="143.293" width="414" height="414" fill="black">
<rect fill="white" x="460.793" y="143.293" width="414" height="414"/>
<path d="M873.41 350.102C873.41 463.767 781.267 555.91 667.602 555.91C553.937 555.91 461.793 463.767 461.793 350.102C461.793 236.437 553.937 144.293 667.602 144.293C781.267 144.293 873.41 236.437 873.41 350.102ZM482.374 350.102C482.374 452.4 565.303 535.33 667.602 535.33C769.9 535.33 852.83 452.4 852.83 350.102C852.83 247.803 769.9 164.874 667.602 164.874C565.303 164.874 482.374 247.803 482.374 350.102Z"/>
</mask>
<path d="M873.41 350.102C873.41 463.767 781.267 555.91 667.602 555.91C553.937 555.91 461.793 463.767 461.793 350.102C461.793 236.437 553.937 144.293 667.602 144.293C781.267 144.293 873.41 236.437 873.41 350.102ZM482.374 350.102C482.374 452.4 565.303 535.33 667.602 535.33C769.9 535.33 852.83 452.4 852.83 350.102C852.83 247.803 769.9 164.874 667.602 164.874C565.303 164.874 482.374 247.803 482.374 350.102Z" fill="white"/>
<path d="M873.41 350.102C873.41 463.767 781.267 555.91 667.602 555.91C553.937 555.91 461.793 463.767 461.793 350.102C461.793 236.437 553.937 144.293 667.602 144.293C781.267 144.293 873.41 236.437 873.41 350.102ZM482.374 350.102C482.374 452.4 565.303 535.33 667.602 535.33C769.9 535.33 852.83 452.4 852.83 350.102C852.83 247.803 769.9 164.874 667.602 164.874C565.303 164.874 482.374 247.803 482.374 350.102Z" stroke="#E76773" stroke-width="1.64647" mask="url(#path-3-outside-1_1157_458)"/>
<path d="M667.602 154.583C667.602 148.9 672.213 144.266 677.889 144.55C718.812 146.597 758.282 160.824 791.173 185.519C826.814 212.279 852.805 249.884 865.239 292.683C877.673 335.481 875.878 381.159 860.124 422.85C845.586 461.325 819.883 494.486 786.427 518.142C781.787 521.424 775.411 519.982 772.366 515.183C769.32 510.384 770.761 504.049 775.383 500.742C805.085 479.492 827.909 449.881 840.872 415.575C855.05 378.053 856.665 336.943 845.475 298.424C834.284 259.906 810.892 226.061 778.816 201.978C749.489 179.958 714.352 167.187 677.888 165.159C672.213 164.844 667.602 160.266 667.602 154.583Z" fill="#E76773"/>
<path d="M558.595 343.603V333.564L594.134 277.425H602.045V292.202H597.025L571.606 332.44V333.082H620.316V343.603H558.595ZM597.588 359.666V340.551L597.668 335.973V277.425H609.434V359.666H597.588ZM664.409 277.425V359.666H651.96V289.873H651.478L631.801 302.724V290.837L652.321 277.425H664.409ZM729.583 344.246V339.909C729.583 336.803 730.226 333.966 731.511 331.396C732.823 328.799 734.723 326.724 737.213 325.171C739.73 323.592 742.768 322.802 746.329 322.802C749.97 322.802 753.022 323.578 755.484 325.131C757.947 326.684 759.808 328.759 761.066 331.355C762.351 333.952 762.994 336.803 762.994 339.909V344.246C762.994 347.351 762.351 350.202 761.066 352.799C759.781 355.369 757.894 357.444 755.404 359.024C752.941 360.576 749.916 361.353 746.329 361.353C742.715 361.353 739.663 360.576 737.173 359.024C734.683 357.444 732.796 355.369 731.511 352.799C730.226 350.202 729.583 347.351 729.583 344.246ZM738.94 339.909V344.246C738.94 346.548 739.489 348.636 740.586 350.51C741.684 352.384 743.598 353.321 746.329 353.321C749.033 353.321 750.92 352.384 751.991 350.51C753.062 348.636 753.597 346.548 753.597 344.246V339.909C753.597 337.607 753.075 335.518 752.031 333.644C751.014 331.77 749.113 330.833 746.329 330.833C743.652 330.833 741.751 331.77 740.626 333.644C739.502 335.518 738.94 337.607 738.94 339.909ZM688.222 297.182V292.845C688.222 289.739 688.864 286.888 690.149 284.292C691.461 281.695 693.362 279.62 695.852 278.067C698.368 276.515 701.407 275.738 704.967 275.738C708.608 275.738 711.66 276.515 714.123 278.067C716.586 279.62 718.446 281.695 719.705 284.292C720.963 286.888 721.592 289.739 721.592 292.845V297.182C721.592 300.287 720.95 303.139 719.665 305.735C718.406 308.305 716.532 310.38 714.043 311.96C711.58 313.512 708.554 314.289 704.967 314.289C701.326 314.289 698.261 313.512 695.771 311.96C693.308 310.38 691.434 308.305 690.149 305.735C688.864 303.139 688.222 300.287 688.222 297.182ZM697.618 292.845V297.182C697.618 299.484 698.154 301.572 699.225 303.446C700.322 305.32 702.236 306.257 704.967 306.257C707.644 306.257 709.518 305.32 710.589 303.446C711.687 301.572 712.236 299.484 712.236 297.182V292.845C712.236 290.543 711.713 288.454 710.669 286.58C709.625 284.707 707.725 283.77 704.967 283.77C702.29 283.77 700.389 284.707 699.265 286.58C698.167 288.454 697.618 290.543 697.618 292.845ZM692.037 359.666L748.577 277.425H758.175L701.634 359.666H692.037Z" fill="#E76773"/>
<path d="M554.716 397.497V376.517H567.726V379.242H557.881V385.635H566.794V388.349H557.881V397.497H554.716ZM576.846 397.815C575.37 397.815 574.083 397.477 572.984 396.8C571.884 396.124 571.03 395.179 570.423 393.963C569.815 392.747 569.511 391.327 569.511 389.701C569.511 388.069 569.815 386.642 570.423 385.419C571.03 384.197 571.884 383.248 572.984 382.572C574.083 381.895 575.37 381.557 576.846 381.557C578.321 381.557 579.608 381.895 580.708 382.572C581.807 383.248 582.661 384.197 583.269 385.419C583.876 386.642 584.18 388.069 584.18 389.701C584.18 391.327 583.876 392.747 583.269 393.963C582.661 395.179 581.807 396.124 580.708 396.8C579.608 397.477 578.321 397.815 576.846 397.815ZM576.856 395.243C577.812 395.243 578.604 394.991 579.232 394.485C579.861 393.98 580.325 393.307 580.626 392.467C580.933 391.627 581.087 390.702 581.087 389.691C581.087 388.687 580.933 387.765 580.626 386.925C580.325 386.078 579.861 385.399 579.232 384.887C578.604 384.375 577.812 384.118 576.856 384.118C575.893 384.118 575.094 384.375 574.459 384.887C573.83 385.399 573.363 386.078 573.055 386.925C572.755 387.765 572.605 388.687 572.605 389.691C572.605 390.702 572.755 391.627 573.055 392.467C573.363 393.307 573.83 393.98 574.459 394.485C575.094 394.991 575.893 395.243 576.856 395.243ZM587.599 397.497V381.762H590.56V384.262H590.724C591.01 383.415 591.516 382.749 592.24 382.264C592.971 381.773 593.797 381.527 594.719 381.527C594.91 381.527 595.135 381.534 595.395 381.547C595.661 381.561 595.87 381.578 596.02 381.598V384.528C595.897 384.494 595.678 384.456 595.364 384.415C595.05 384.368 594.736 384.344 594.422 384.344C593.698 384.344 593.052 384.497 592.486 384.805C591.926 385.105 591.482 385.525 591.154 386.065C590.826 386.597 590.662 387.205 590.662 387.888V397.497H587.599ZM604.704 403.725C603.454 403.725 602.379 403.562 601.477 403.234C600.583 402.906 599.852 402.472 599.285 401.933C598.718 401.393 598.295 400.802 598.015 400.161L600.648 399.075C600.832 399.375 601.078 399.693 601.385 400.027C601.699 400.369 602.123 400.659 602.655 400.898C603.195 401.137 603.888 401.257 604.735 401.257C605.896 401.257 606.855 400.973 607.613 400.406C608.372 399.846 608.751 398.952 608.751 397.722V394.629H608.556C608.372 394.963 608.105 395.336 607.757 395.745C607.415 396.155 606.944 396.51 606.343 396.811C605.742 397.111 604.96 397.261 603.997 397.261C602.754 397.261 601.634 396.971 600.637 396.391C599.647 395.803 598.862 394.939 598.281 393.799C597.708 392.652 597.421 391.241 597.421 389.568C597.421 387.895 597.704 386.461 598.271 385.266C598.845 384.071 599.63 383.155 600.627 382.52C601.624 381.878 602.754 381.557 604.018 381.557C604.994 381.557 605.783 381.721 606.384 382.049C606.985 382.37 607.453 382.746 607.788 383.176C608.129 383.606 608.392 383.985 608.576 384.313H608.802V381.762H611.803V397.845C611.803 399.198 611.489 400.307 610.861 401.175C610.232 402.042 609.382 402.684 608.31 403.101C607.245 403.517 606.043 403.725 604.704 403.725ZM604.673 394.721C605.554 394.721 606.299 394.516 606.907 394.106C607.521 393.69 607.986 393.096 608.3 392.324C608.621 391.545 608.781 390.613 608.781 389.527C608.781 388.469 608.624 387.536 608.31 386.731C607.996 385.925 607.535 385.296 606.927 384.846C606.319 384.388 605.568 384.159 604.673 384.159C603.751 384.159 602.983 384.398 602.369 384.876C601.754 385.348 601.289 385.99 600.975 386.802C600.668 387.615 600.514 388.523 600.514 389.527C600.514 390.558 600.671 391.463 600.986 392.242C601.3 393.02 601.764 393.628 602.379 394.065C603 394.502 603.765 394.721 604.673 394.721ZM622.539 397.815C621.064 397.815 619.776 397.477 618.677 396.8C617.577 396.124 616.724 395.179 616.116 393.963C615.508 392.747 615.204 391.327 615.204 389.701C615.204 388.069 615.508 386.642 616.116 385.419C616.724 384.197 617.577 383.248 618.677 382.572C619.776 381.895 621.064 381.557 622.539 381.557C624.014 381.557 625.301 381.895 626.401 382.572C627.5 383.248 628.354 384.197 628.962 385.419C629.57 386.642 629.874 388.069 629.874 389.701C629.874 391.327 629.57 392.747 628.962 393.963C628.354 395.179 627.5 396.124 626.401 396.8C625.301 397.477 624.014 397.815 622.539 397.815ZM622.549 395.243C623.505 395.243 624.297 394.991 624.926 394.485C625.554 393.98 626.018 393.307 626.319 392.467C626.626 391.627 626.78 390.702 626.78 389.691C626.78 388.687 626.626 387.765 626.319 386.925C626.018 386.078 625.554 385.399 624.926 384.887C624.297 384.375 623.505 384.118 622.549 384.118C621.586 384.118 620.787 384.375 620.152 384.887C619.524 385.399 619.056 386.078 618.749 386.925C618.448 387.765 618.298 388.687 618.298 389.691C618.298 390.702 618.448 391.627 618.749 392.467C619.056 393.307 619.524 393.98 620.152 394.485C620.787 394.991 621.586 395.243 622.549 395.243ZM640.638 381.762V384.221H632.043V381.762H640.638ZM634.348 377.993H637.411V392.877C637.411 393.471 637.499 393.919 637.677 394.219C637.855 394.513 638.083 394.714 638.363 394.823C638.65 394.926 638.961 394.977 639.296 394.977C639.541 394.977 639.757 394.96 639.941 394.926C640.125 394.892 640.269 394.864 640.371 394.844L640.924 397.374C640.747 397.442 640.494 397.511 640.166 397.579C639.838 397.654 639.429 397.695 638.937 397.702C638.131 397.716 637.38 397.572 636.683 397.272C635.987 396.971 635.423 396.507 634.993 395.879C634.563 395.25 634.348 394.461 634.348 393.512V377.993ZM659.005 381.762V384.221H650.41V381.762H659.005ZM652.715 377.993H655.778V392.877C655.778 393.471 655.867 393.919 656.044 394.219C656.222 394.513 656.451 394.714 656.731 394.823C657.018 394.926 657.328 394.977 657.663 394.977C657.909 394.977 658.124 394.96 658.308 394.926C658.493 394.892 658.636 394.864 658.739 394.844L659.292 397.374C659.114 397.442 658.862 397.511 658.534 397.579C658.206 397.654 657.796 397.695 657.304 397.702C656.499 397.716 655.747 397.572 655.051 397.272C654.354 396.971 653.791 396.507 653.361 395.879C652.93 395.25 652.715 394.461 652.715 393.512V377.993ZM665.794 388.155V397.497H662.731V376.517H665.753V384.323H665.948C666.317 383.476 666.88 382.804 667.638 382.305C668.396 381.807 669.386 381.557 670.609 381.557C671.688 381.557 672.63 381.779 673.436 382.223C674.249 382.667 674.877 383.33 675.321 384.211C675.772 385.085 675.997 386.177 675.997 387.489V397.497H672.934V387.857C672.934 386.703 672.637 385.809 672.043 385.174C671.449 384.532 670.623 384.211 669.564 384.211C668.84 384.211 668.191 384.364 667.618 384.672C667.051 384.979 666.603 385.43 666.276 386.024C665.955 386.611 665.794 387.321 665.794 388.155ZM686.866 397.815C685.316 397.815 683.981 397.483 682.861 396.821C681.748 396.152 680.887 395.213 680.279 394.004C679.678 392.788 679.378 391.364 679.378 389.732C679.378 388.12 679.678 386.7 680.279 385.471C680.887 384.241 681.734 383.282 682.82 382.592C683.912 381.902 685.189 381.557 686.651 381.557C687.539 381.557 688.399 381.704 689.232 381.998C690.066 382.292 690.813 382.753 691.476 383.381C692.138 384.009 692.661 384.825 693.043 385.829C693.426 386.826 693.617 388.038 693.617 389.466V390.552H681.109V388.257H690.615C690.615 387.451 690.451 386.737 690.124 386.116C689.796 385.488 689.335 384.993 688.741 384.631C688.153 384.269 687.464 384.088 686.671 384.088C685.811 384.088 685.06 384.299 684.418 384.723C683.783 385.139 683.291 385.686 682.943 386.362C682.601 387.031 682.43 387.758 682.43 388.544V390.337C682.43 391.388 682.615 392.283 682.984 393.02C683.359 393.758 683.882 394.321 684.551 394.711C685.22 395.093 686.002 395.284 686.897 395.284C687.477 395.284 688.007 395.202 688.485 395.039C688.963 394.868 689.376 394.615 689.724 394.28C690.072 393.946 690.339 393.533 690.523 393.041L693.422 393.563C693.19 394.417 692.773 395.165 692.172 395.807C691.578 396.442 690.831 396.937 689.929 397.292C689.034 397.64 688.013 397.815 686.866 397.815ZM697.015 397.497V381.762H700.078V397.497H697.015ZM698.562 379.334C698.029 379.334 697.572 379.157 697.189 378.802C696.814 378.44 696.626 378.01 696.626 377.511C696.626 377.006 696.814 376.575 697.189 376.22C697.572 375.858 698.029 375.677 698.562 375.677C699.095 375.677 699.549 375.858 699.925 376.22C700.307 376.575 700.498 377.006 700.498 377.511C700.498 378.01 700.307 378.44 699.925 378.802C699.549 379.157 699.095 379.334 698.562 379.334ZM704.199 397.497V381.762H707.159V384.262H707.323C707.61 383.415 708.116 382.749 708.839 382.264C709.57 381.773 710.397 381.527 711.318 381.527C711.51 381.527 711.735 381.534 711.995 381.547C712.261 381.561 712.469 381.578 712.619 381.598V384.528C712.497 384.494 712.278 384.456 711.964 384.415C711.65 384.368 711.336 384.344 711.021 384.344C710.298 384.344 709.652 384.497 709.085 384.805C708.525 385.105 708.081 385.525 707.754 386.065C707.426 386.597 707.262 387.205 707.262 387.888V397.497H704.199ZM561.959 411.762V414.221H553.067V411.762H561.959ZM555.505 427.497V409.939C555.505 408.955 555.72 408.139 556.15 407.491C556.58 406.835 557.151 406.347 557.861 406.026C558.571 405.698 559.343 405.534 560.176 405.534C560.791 405.534 561.317 405.585 561.754 405.688C562.191 405.783 562.515 405.872 562.727 405.954L562.01 408.433C561.866 408.392 561.682 408.344 561.457 408.29C561.231 408.228 560.958 408.197 560.637 408.197C559.893 408.197 559.36 408.382 559.039 408.751C558.725 409.119 558.568 409.652 558.568 410.349V427.497H555.505ZM569.219 427.845C568.222 427.845 567.32 427.661 566.515 427.292C565.709 426.917 565.07 426.374 564.599 425.663C564.135 424.953 563.902 424.082 563.902 423.051C563.902 422.163 564.073 421.433 564.415 420.859C564.756 420.285 565.217 419.831 565.797 419.497C566.378 419.162 567.027 418.909 567.744 418.738C568.461 418.568 569.192 418.438 569.936 418.349C570.878 418.24 571.643 418.151 572.231 418.083C572.818 418.008 573.245 417.888 573.511 417.724C573.778 417.56 573.911 417.294 573.911 416.925V416.854C573.911 415.959 573.658 415.266 573.153 414.774C572.654 414.282 571.91 414.036 570.919 414.036C569.888 414.036 569.076 414.265 568.481 414.723C567.894 415.174 567.488 415.676 567.262 416.229L564.384 415.573C564.725 414.617 565.224 413.845 565.879 413.258C566.542 412.664 567.303 412.234 568.164 411.967C569.024 411.694 569.929 411.557 570.878 411.557C571.507 411.557 572.173 411.633 572.876 411.783C573.586 411.926 574.249 412.193 574.863 412.582C575.485 412.971 575.994 413.528 576.39 414.252C576.786 414.969 576.984 415.901 576.984 417.048V427.497H573.993V425.346H573.87C573.672 425.742 573.375 426.131 572.979 426.514C572.582 426.896 572.074 427.214 571.452 427.466C570.831 427.719 570.086 427.845 569.219 427.845ZM569.885 425.387C570.732 425.387 571.456 425.219 572.057 424.885C572.664 424.55 573.125 424.113 573.439 423.574C573.76 423.027 573.921 422.443 573.921 421.822V419.794C573.812 419.903 573.6 420.005 573.286 420.101C572.979 420.19 572.627 420.268 572.231 420.337C571.835 420.398 571.449 420.456 571.073 420.511C570.698 420.558 570.383 420.599 570.131 420.634C569.537 420.709 568.994 420.835 568.502 421.013C568.017 421.19 567.628 421.446 567.334 421.781C567.047 422.109 566.904 422.546 566.904 423.092C566.904 423.85 567.184 424.424 567.744 424.813C568.304 425.196 569.017 425.387 569.885 425.387ZM593.961 411.762L588.255 427.497H584.977L579.261 411.762H582.549L586.534 423.871H586.698L590.672 411.762H593.961ZM602.932 427.815C601.457 427.815 600.169 427.477 599.07 426.8C597.97 426.124 597.117 425.179 596.509 423.963C595.901 422.747 595.597 421.327 595.597 419.701C595.597 418.069 595.901 416.642 596.509 415.419C597.117 414.197 597.97 413.248 599.07 412.572C600.169 411.895 601.457 411.557 602.932 411.557C604.407 411.557 605.694 411.895 606.794 412.572C607.893 413.248 608.747 414.197 609.355 415.419C609.963 416.642 610.267 418.069 610.267 419.701C610.267 421.327 609.963 422.747 609.355 423.963C608.747 425.179 607.893 426.124 606.794 426.8C605.694 427.477 604.407 427.815 602.932 427.815ZM602.942 425.243C603.898 425.243 604.69 424.991 605.319 424.485C605.947 423.98 606.411 423.307 606.712 422.467C607.019 421.627 607.173 420.702 607.173 419.691C607.173 418.687 607.019 417.765 606.712 416.925C606.411 416.078 605.947 415.399 605.319 414.887C604.69 414.375 603.898 414.118 602.942 414.118C601.979 414.118 601.18 414.375 600.545 414.887C599.917 415.399 599.449 416.078 599.142 416.925C598.841 417.765 598.691 418.687 598.691 419.691C598.691 420.702 598.841 421.627 599.142 422.467C599.449 423.307 599.917 423.98 600.545 424.485C601.18 424.991 601.979 425.243 602.942 425.243ZM613.686 427.497V411.762H616.646V414.262H616.81C617.097 413.415 617.602 412.749 618.326 412.264C619.057 411.773 619.883 411.527 620.805 411.527C620.996 411.527 621.222 411.534 621.481 411.547C621.748 411.561 621.956 411.578 622.106 411.598V414.528C621.983 414.494 621.765 414.456 621.451 414.415C621.136 414.368 620.822 414.344 620.508 414.344C619.784 414.344 619.139 414.497 618.572 414.805C618.012 415.105 617.568 415.525 617.24 416.065C616.912 416.597 616.749 417.205 616.749 417.888V427.497H613.686ZM624.757 427.497V411.762H627.82V427.497H624.757ZM626.304 409.334C625.771 409.334 625.313 409.157 624.931 408.802C624.555 408.44 624.367 408.01 624.367 407.511C624.367 407.006 624.555 406.575 624.931 406.22C625.313 405.858 625.771 405.677 626.304 405.677C626.836 405.677 627.29 405.858 627.666 406.22C628.049 406.575 628.24 407.006 628.24 407.511C628.24 408.01 628.049 408.44 627.666 408.802C627.29 409.157 626.836 409.334 626.304 409.334ZM639.285 411.762V414.221H630.691V411.762H639.285ZM632.995 407.993H636.058V422.877C636.058 423.471 636.147 423.919 636.325 424.219C636.502 424.513 636.731 424.714 637.011 424.823C637.298 424.926 637.609 424.977 637.943 424.977C638.189 424.977 638.404 424.96 638.589 424.926C638.773 424.892 638.917 424.864 639.019 424.844L639.572 427.374C639.395 427.442 639.142 427.511 638.814 427.579C638.486 427.654 638.077 427.695 637.585 427.702C636.779 427.716 636.028 427.572 635.331 427.272C634.635 426.971 634.071 426.507 633.641 425.879C633.211 425.25 632.995 424.461 632.995 423.512V407.993ZM649.286 427.815C647.736 427.815 646.401 427.483 645.281 426.821C644.167 426.152 643.307 425.213 642.699 424.004C642.098 422.788 641.798 421.364 641.798 419.732C641.798 418.12 642.098 416.7 642.699 415.471C643.307 414.241 644.154 413.282 645.24 412.592C646.332 411.902 647.609 411.557 649.071 411.557C649.959 411.557 650.819 411.704 651.652 411.998C652.486 412.292 653.233 412.753 653.896 413.381C654.558 414.009 655.081 414.825 655.463 415.829C655.846 416.826 656.037 418.038 656.037 419.466V420.552H643.529V418.257H653.035C653.035 417.451 652.871 416.737 652.544 416.116C652.216 415.488 651.755 414.993 651.161 414.631C650.573 414.269 649.884 414.088 649.091 414.088C648.231 414.088 647.48 414.299 646.838 414.723C646.203 415.139 645.711 415.686 645.363 416.362C645.021 417.031 644.85 417.758 644.85 418.544V420.337C644.85 421.388 645.035 422.283 645.404 423.02C645.779 423.758 646.302 424.321 646.971 424.711C647.64 425.093 648.422 425.284 649.317 425.284C649.897 425.284 650.427 425.202 650.905 425.039C651.383 424.868 651.796 424.615 652.144 424.28C652.492 423.946 652.759 423.533 652.943 423.041L655.842 423.563C655.61 424.417 655.193 425.165 654.592 425.807C653.998 426.442 653.25 426.937 652.349 427.292C651.454 427.64 650.433 427.815 649.286 427.815ZM673.697 427.815C672.175 427.815 670.863 427.47 669.764 426.78C668.671 426.083 667.831 425.124 667.244 423.901C666.656 422.679 666.363 421.279 666.363 419.701C666.363 418.103 666.663 416.693 667.264 415.471C667.865 414.241 668.712 413.282 669.805 412.592C670.897 411.902 672.185 411.557 673.667 411.557C674.862 411.557 675.927 411.779 676.863 412.223C677.798 412.66 678.553 413.275 679.127 414.067C679.707 414.859 680.052 415.785 680.161 416.843H677.18C677.016 416.106 676.641 415.471 676.054 414.938C675.473 414.405 674.695 414.139 673.718 414.139C672.864 414.139 672.116 414.364 671.474 414.815C670.839 415.259 670.344 415.894 669.989 416.72C669.634 417.54 669.456 418.51 669.456 419.63C669.456 420.777 669.631 421.767 669.979 422.6C670.327 423.434 670.819 424.079 671.454 424.537C672.096 424.994 672.851 425.223 673.718 425.223C674.298 425.223 674.824 425.117 675.296 424.905C675.774 424.687 676.173 424.376 676.494 423.973C676.822 423.57 677.051 423.085 677.18 422.518H680.161C680.052 423.536 679.721 424.444 679.168 425.243C678.615 426.042 677.874 426.671 676.945 427.128C676.023 427.586 674.94 427.815 673.697 427.815ZM688.016 427.845C687.019 427.845 686.117 427.661 685.312 427.292C684.506 426.917 683.867 426.374 683.396 425.663C682.932 424.953 682.699 424.082 682.699 423.051C682.699 422.163 682.87 421.433 683.212 420.859C683.553 420.285 684.014 419.831 684.594 419.497C685.175 419.162 685.824 418.909 686.541 418.738C687.258 418.568 687.989 418.438 688.733 418.349C689.676 418.24 690.44 418.151 691.028 418.083C691.615 418.008 692.042 417.888 692.308 417.724C692.575 417.56 692.708 417.294 692.708 416.925V416.854C692.708 415.959 692.455 415.266 691.95 414.774C691.451 414.282 690.707 414.036 689.716 414.036C688.685 414.036 687.873 414.265 687.278 414.723C686.691 415.174 686.285 415.676 686.059 416.229L683.181 415.573C683.522 414.617 684.021 413.845 684.676 413.258C685.339 412.664 686.1 412.234 686.961 411.967C687.821 411.694 688.726 411.557 689.676 411.557C690.304 411.557 690.97 411.633 691.673 411.783C692.383 411.926 693.046 412.193 693.66 412.582C694.282 412.971 694.791 413.528 695.187 414.252C695.583 414.969 695.781 415.901 695.781 417.048V427.497H692.79V425.346H692.667C692.469 425.742 692.172 426.131 691.776 426.514C691.379 426.896 690.871 427.214 690.249 427.466C689.628 427.719 688.883 427.845 688.016 427.845ZM688.682 425.387C689.529 425.387 690.253 425.219 690.854 424.885C691.461 424.55 691.922 424.113 692.237 423.574C692.557 423.027 692.718 422.443 692.718 421.822V419.794C692.609 419.903 692.397 420.005 692.083 420.101C691.776 420.19 691.424 420.268 691.028 420.337C690.632 420.398 690.246 420.456 689.87 420.511C689.495 420.558 689.18 420.599 688.928 420.634C688.334 420.709 687.791 420.835 687.299 421.013C686.814 421.19 686.425 421.446 686.131 421.781C685.844 422.109 685.701 422.546 685.701 423.092C685.701 423.85 685.981 424.424 686.541 424.813C687.101 425.196 687.815 425.387 688.682 425.387ZM702.924 418.155V427.497H699.861V411.762H702.801V414.323H702.995C703.357 413.49 703.924 412.821 704.696 412.315C705.474 411.81 706.454 411.557 707.636 411.557C708.708 411.557 709.647 411.783 710.453 412.234C711.259 412.677 711.884 413.34 712.328 414.221C712.771 415.102 712.993 416.191 712.993 417.489V427.497H709.93V417.857C709.93 416.717 709.633 415.826 709.039 415.184C708.445 414.535 707.629 414.211 706.591 414.211C705.881 414.211 705.249 414.364 704.696 414.672C704.149 414.979 703.716 415.43 703.395 416.024C703.081 416.611 702.924 417.321 702.924 418.155ZM722.992 427.804C721.721 427.804 720.588 427.48 719.591 426.831C718.6 426.176 717.822 425.243 717.255 424.035C716.695 422.819 716.415 421.361 716.415 419.66C716.415 417.96 716.698 416.505 717.265 415.296C717.839 414.088 718.624 413.162 719.621 412.52C720.618 411.878 721.749 411.557 723.012 411.557C723.989 411.557 724.774 411.721 725.368 412.049C725.969 412.37 726.434 412.746 726.761 413.176C727.096 413.606 727.355 413.985 727.54 414.313H727.724V406.517H730.787V427.497H727.796V425.049H727.54C727.355 425.383 727.089 425.766 726.741 426.196C726.399 426.626 725.928 427.002 725.327 427.323C724.726 427.644 723.948 427.804 722.992 427.804ZM723.668 425.192C724.549 425.192 725.293 424.96 725.901 424.496C726.515 424.024 726.98 423.372 727.294 422.539C727.615 421.706 727.775 420.736 727.775 419.63C727.775 418.537 727.618 417.581 727.304 416.761C726.99 415.942 726.529 415.303 725.921 414.846C725.314 414.388 724.562 414.159 723.668 414.159C722.746 414.159 721.977 414.398 721.363 414.876C720.748 415.355 720.284 416.007 719.97 416.833C719.662 417.659 719.509 418.592 719.509 419.63C719.509 420.681 719.666 421.627 719.98 422.467C720.294 423.307 720.758 423.973 721.373 424.465C721.994 424.95 722.759 425.192 723.668 425.192ZM735.159 427.497V411.762H738.222V427.497H735.159ZM736.706 409.334C736.173 409.334 735.715 409.157 735.333 408.802C734.957 408.44 734.77 408.01 734.77 407.511C734.77 407.006 734.957 406.575 735.333 406.22C735.715 405.858 736.173 405.677 736.706 405.677C737.238 405.677 737.693 405.858 738.068 406.22C738.451 406.575 738.642 407.006 738.642 407.511C738.642 408.01 738.451 408.44 738.068 408.802C737.693 409.157 737.238 409.334 736.706 409.334ZM749.124 427.815C747.574 427.815 746.239 427.483 745.119 426.821C744.005 426.152 743.145 425.213 742.537 424.004C741.936 422.788 741.636 421.364 741.636 419.732C741.636 418.12 741.936 416.7 742.537 415.471C743.145 414.241 743.992 413.282 745.078 412.592C746.17 411.902 747.447 411.557 748.909 411.557C749.797 411.557 750.657 411.704 751.49 411.998C752.323 412.292 753.071 412.753 753.734 413.381C754.396 414.009 754.919 414.825 755.301 415.829C755.684 416.826 755.875 418.038 755.875 419.466V420.552H743.367V418.257H752.873C752.873 417.451 752.709 416.737 752.382 416.116C752.054 415.488 751.593 414.993 750.999 414.631C750.411 414.269 749.722 414.088 748.929 414.088C748.069 414.088 747.318 414.299 746.676 414.723C746.041 415.139 745.549 415.686 745.201 416.362C744.859 417.031 744.688 417.758 744.688 418.544V420.337C744.688 421.388 744.873 422.283 745.241 423.02C745.617 423.758 746.14 424.321 746.809 424.711C747.478 425.093 748.26 425.284 749.155 425.284C749.735 425.284 750.264 425.202 750.743 425.039C751.221 424.868 751.634 424.615 751.982 424.28C752.33 423.946 752.597 423.533 752.781 423.041L755.68 423.563C755.448 424.417 755.031 425.165 754.43 425.807C753.836 426.442 753.088 426.937 752.187 427.292C751.292 427.64 750.271 427.815 749.124 427.815ZM771.064 415.604L768.288 416.096C768.172 415.74 767.987 415.402 767.735 415.081C767.489 414.76 767.154 414.497 766.731 414.293C766.307 414.088 765.778 413.985 765.143 413.985C764.276 413.985 763.552 414.18 762.971 414.569C762.391 414.952 762.101 415.447 762.101 416.055C762.101 416.58 762.295 417.004 762.684 417.325C763.074 417.646 763.702 417.909 764.569 418.114L767.069 418.687C768.517 419.022 769.596 419.537 770.306 420.234C771.016 420.931 771.371 421.836 771.371 422.949C771.371 423.891 771.098 424.731 770.552 425.469C770.012 426.199 769.258 426.773 768.288 427.19C767.325 427.606 766.208 427.815 764.938 427.815C763.176 427.815 761.739 427.439 760.625 426.688C759.512 425.93 758.829 424.854 758.577 423.461L761.537 423.01C761.721 423.782 762.101 424.366 762.674 424.762C763.248 425.151 763.996 425.346 764.918 425.346C765.922 425.346 766.724 425.138 767.325 424.721C767.926 424.298 768.226 423.782 768.226 423.174C768.226 422.682 768.042 422.269 767.673 421.935C767.311 421.6 766.755 421.347 766.003 421.177L763.34 420.593C761.872 420.258 760.786 419.725 760.082 418.995C759.386 418.264 759.038 417.338 759.038 416.218C759.038 415.29 759.297 414.477 759.816 413.78C760.335 413.084 761.052 412.541 761.967 412.152C762.882 411.755 763.931 411.557 765.112 411.557C766.813 411.557 768.151 411.926 769.128 412.664C770.104 413.395 770.75 414.375 771.064 415.604Z" fill="#303030"/>
<path d="M170.167 517.236C164.947 517.236 160.333 516.337 156.326 514.54C152.344 512.743 149.224 510.267 146.966 507.11C144.707 503.953 143.591 500.36 143.615 496.329C143.591 493.172 144.234 490.27 145.545 487.624C146.881 484.953 148.69 482.731 150.972 480.958C153.255 479.161 155.804 478.02 158.621 477.535V477.097C154.906 476.199 151.931 474.208 149.697 471.124C147.464 468.04 146.359 464.495 146.383 460.489C146.359 456.676 147.366 453.277 149.406 450.29C151.47 447.279 154.299 444.912 157.893 443.188C161.486 441.464 165.578 440.601 170.167 440.601C174.708 440.601 178.763 441.476 182.333 443.224C185.926 444.948 188.755 447.315 190.819 450.326C192.883 453.313 193.927 456.7 193.952 460.489C193.927 464.495 192.786 468.04 190.528 471.124C188.27 474.208 185.331 476.199 181.713 477.097V477.535C184.506 478.02 187.019 479.161 189.253 480.958C191.511 482.731 193.308 484.953 194.644 487.624C196.003 490.27 196.695 493.172 196.72 496.329C196.695 500.36 195.554 503.953 193.296 507.11C191.038 510.267 187.905 512.743 183.899 514.54C179.916 516.337 175.339 517.236 170.167 517.236ZM170.167 508.021C173.251 508.021 175.922 507.511 178.18 506.491C180.439 505.447 182.187 504.002 183.425 502.157C184.664 500.287 185.295 498.101 185.319 495.6C185.295 493.002 184.615 490.708 183.28 488.716C181.968 486.725 180.184 485.159 177.925 484.018C175.667 482.877 173.081 482.306 170.167 482.306C167.229 482.306 164.619 482.877 162.336 484.018C160.054 485.159 158.257 486.725 156.946 488.716C155.634 490.708 154.991 493.002 155.015 495.6C154.991 498.101 155.586 500.287 156.8 502.157C158.038 504.002 159.799 505.447 162.081 506.491C164.364 507.511 167.059 508.021 170.167 508.021ZM170.167 473.309C172.644 473.309 174.842 472.812 176.76 471.816C178.678 470.821 180.184 469.436 181.276 467.664C182.393 465.891 182.964 463.815 182.988 461.435C182.964 459.104 182.405 457.065 181.313 455.316C180.244 453.568 178.751 452.22 176.833 451.273C174.914 450.302 172.693 449.817 170.167 449.817C167.593 449.817 165.335 450.302 163.393 451.273C161.474 452.22 159.981 453.568 158.912 455.316C157.844 457.065 157.322 459.104 157.346 461.435C157.322 463.815 157.856 465.891 158.949 467.664C160.042 469.436 161.547 470.821 163.465 471.816C165.408 472.812 167.642 473.309 170.167 473.309Z" fill="#E76773"/>
<path d="M146.884 554.87H140.092V533.89H147.099C149.155 533.89 150.92 534.31 152.395 535.15C153.87 535.984 155 537.182 155.786 538.746C156.578 540.303 156.974 542.171 156.974 544.35C156.974 546.535 156.575 548.413 155.776 549.984C154.983 551.554 153.836 552.763 152.334 553.61C150.831 554.45 149.015 554.87 146.884 554.87ZM143.257 552.104H146.71C148.308 552.104 149.636 551.804 150.695 551.203C151.753 550.595 152.545 549.717 153.071 548.57C153.597 547.416 153.86 546.009 153.86 544.35C153.86 542.704 153.597 541.307 153.071 540.16C152.552 539.012 151.777 538.142 150.746 537.548C149.715 536.953 148.434 536.656 146.904 536.656H143.257V552.104ZM170.632 548.345V539.135H173.705V554.87H170.693V552.145H170.529C170.168 552.985 169.587 553.685 168.788 554.245C167.996 554.798 167.009 555.075 165.827 555.075C164.817 555.075 163.922 554.853 163.144 554.409C162.372 553.958 161.764 553.293 161.32 552.412C160.883 551.531 160.665 550.441 160.665 549.144V539.135H163.727V548.775C163.727 549.847 164.025 550.701 164.619 551.336C165.213 551.971 165.985 552.289 166.934 552.289C167.507 552.289 168.078 552.145 168.645 551.858C169.218 551.572 169.693 551.138 170.068 550.557C170.451 549.977 170.639 549.239 170.632 548.345ZM177.821 554.87V539.135H180.781V541.635H180.945C181.232 540.788 181.737 540.122 182.461 539.637C183.192 539.146 184.018 538.9 184.94 538.9C185.131 538.9 185.357 538.907 185.616 538.92C185.883 538.934 186.091 538.951 186.241 538.971V541.901C186.118 541.867 185.9 541.83 185.586 541.789C185.271 541.741 184.957 541.717 184.643 541.717C183.919 541.717 183.274 541.87 182.707 542.178C182.147 542.478 181.703 542.898 181.375 543.438C181.047 543.971 180.884 544.578 180.884 545.261V554.87H177.821ZM193.33 555.218C192.333 555.218 191.431 555.034 190.626 554.665C189.82 554.29 189.181 553.747 188.71 553.036C188.246 552.326 188.013 551.455 188.013 550.424C188.013 549.536 188.184 548.806 188.526 548.232C188.867 547.658 189.328 547.204 189.909 546.87C190.489 546.535 191.138 546.282 191.855 546.112C192.572 545.941 193.303 545.811 194.047 545.722C194.99 545.613 195.754 545.524 196.342 545.456C196.929 545.381 197.356 545.261 197.622 545.097C197.889 544.933 198.022 544.667 198.022 544.298V544.227C198.022 543.332 197.769 542.639 197.264 542.147C196.765 541.655 196.021 541.41 195.031 541.41C193.999 541.41 193.187 541.638 192.592 542.096C192.005 542.547 191.599 543.049 191.373 543.602L188.495 542.946C188.836 541.99 189.335 541.218 189.99 540.631C190.653 540.037 191.414 539.607 192.275 539.34C193.135 539.067 194.04 538.93 194.99 538.93C195.618 538.93 196.284 539.006 196.987 539.156C197.697 539.299 198.36 539.566 198.974 539.955C199.596 540.344 200.105 540.901 200.501 541.625C200.897 542.342 201.095 543.274 201.095 544.421V554.87H198.104V552.719H197.981C197.783 553.115 197.486 553.504 197.09 553.887C196.693 554.269 196.185 554.587 195.563 554.839C194.942 555.092 194.197 555.218 193.33 555.218ZM193.996 552.76C194.843 552.76 195.567 552.593 196.168 552.258C196.775 551.923 197.236 551.486 197.551 550.947C197.872 550.4 198.032 549.816 198.032 549.195V547.167C197.923 547.276 197.711 547.378 197.397 547.474C197.09 547.563 196.738 547.641 196.342 547.71C195.946 547.771 195.56 547.829 195.184 547.884C194.809 547.932 194.494 547.972 194.242 548.007C193.648 548.082 193.105 548.208 192.613 548.386C192.128 548.563 191.739 548.819 191.445 549.154C191.158 549.482 191.015 549.919 191.015 550.465C191.015 551.223 191.295 551.797 191.855 552.186C192.415 552.569 193.129 552.76 193.996 552.76ZM212.52 539.135V541.594H203.925V539.135H212.52ZM206.23 535.366H209.293V550.25C209.293 550.844 209.382 551.292 209.559 551.592C209.737 551.886 209.965 552.087 210.245 552.196C210.532 552.299 210.843 552.35 211.178 552.35C211.423 552.35 211.639 552.333 211.823 552.299C212.007 552.265 212.151 552.237 212.253 552.217L212.806 554.747C212.629 554.815 212.376 554.884 212.048 554.952C211.721 555.027 211.311 555.068 210.819 555.075C210.013 555.089 209.262 554.945 208.565 554.645C207.869 554.344 207.305 553.88 206.875 553.252C206.445 552.623 206.23 551.834 206.23 550.885V535.366ZM215.908 554.87V539.135H218.971V554.87H215.908ZM217.455 536.708C216.922 536.708 216.464 536.53 216.082 536.175C215.706 535.813 215.519 535.383 215.519 534.884C215.519 534.379 215.706 533.948 216.082 533.593C216.464 533.231 216.922 533.05 217.455 533.05C217.987 533.05 218.441 533.231 218.817 533.593C219.2 533.948 219.391 534.379 219.391 534.884C219.391 535.383 219.2 535.813 218.817 536.175C218.441 536.53 217.987 536.708 217.455 536.708ZM229.719 555.188C228.244 555.188 226.957 554.85 225.857 554.174C224.758 553.497 223.904 552.552 223.296 551.336C222.688 550.12 222.385 548.7 222.385 547.074C222.385 545.442 222.688 544.015 223.296 542.792C223.904 541.57 224.758 540.621 225.857 539.945C226.957 539.269 228.244 538.93 229.719 538.93C231.194 538.93 232.482 539.269 233.581 539.945C234.681 540.621 235.534 541.57 236.142 542.792C236.75 544.015 237.054 545.442 237.054 547.074C237.054 548.7 236.75 550.12 236.142 551.336C235.534 552.552 234.681 553.497 233.581 554.174C232.482 554.85 231.194 555.188 229.719 555.188ZM229.729 552.616C230.686 552.616 231.478 552.364 232.106 551.858C232.734 551.353 233.199 550.68 233.499 549.84C233.807 549 233.96 548.075 233.96 547.064C233.96 546.06 233.807 545.138 233.499 544.298C233.199 543.451 232.734 542.772 232.106 542.26C231.478 541.748 230.686 541.491 229.729 541.491C228.767 541.491 227.968 541.748 227.332 542.26C226.704 542.772 226.236 543.451 225.929 544.298C225.628 545.138 225.478 546.06 225.478 547.064C225.478 548.075 225.628 549 225.929 549.84C226.236 550.68 226.704 551.353 227.332 551.858C227.968 552.364 228.767 552.616 229.729 552.616ZM243.536 545.528V554.87H240.473V539.135H243.413V541.696H243.608C243.97 540.863 244.536 540.194 245.308 539.689C246.087 539.183 247.067 538.93 248.248 538.93C249.32 538.93 250.259 539.156 251.065 539.607C251.871 540.05 252.496 540.713 252.94 541.594C253.384 542.475 253.606 543.564 253.606 544.862V554.87H250.543V545.231C250.543 544.09 250.246 543.199 249.652 542.557C249.057 541.908 248.241 541.584 247.203 541.584C246.493 541.584 245.861 541.737 245.308 542.045C244.762 542.352 244.328 542.803 244.007 543.397C243.693 543.984 243.536 544.694 243.536 545.528ZM266.239 544.38C266.239 541.812 266.577 539.449 267.253 537.291C267.929 535.133 268.916 533.143 270.214 531.319H273.021C272.515 531.995 272.044 532.825 271.607 533.808C271.17 534.792 270.787 535.871 270.46 537.046C270.132 538.213 269.876 539.426 269.691 540.682C269.507 541.932 269.415 543.165 269.415 544.38C269.415 546.006 269.575 547.652 269.896 549.318C270.217 550.984 270.651 552.531 271.197 553.958C271.744 555.386 272.351 556.55 273.021 557.452H270.214C268.916 555.628 267.929 553.637 267.253 551.479C266.577 549.321 266.239 546.955 266.239 544.38ZM283.288 554.87H276.496V533.89H283.503C285.558 533.89 287.324 534.31 288.799 535.15C290.274 535.984 291.404 537.182 292.19 538.746C292.982 540.303 293.378 542.171 293.378 544.35C293.378 546.535 292.978 548.413 292.179 549.984C291.387 551.554 290.24 552.763 288.737 553.61C287.235 554.45 285.418 554.87 283.288 554.87ZM279.661 552.104H283.114C284.712 552.104 286.04 551.804 287.098 551.203C288.157 550.595 288.949 549.717 289.475 548.57C290.001 547.416 290.264 546.009 290.264 544.35C290.264 542.704 290.001 541.307 289.475 540.16C288.956 539.012 288.181 538.142 287.15 537.548C286.118 536.953 284.838 536.656 283.308 536.656H279.661V552.104ZM301.647 555.218C300.65 555.218 299.749 555.034 298.943 554.665C298.137 554.29 297.499 553.747 297.027 553.036C296.563 552.326 296.331 551.455 296.331 550.424C296.331 549.536 296.502 548.806 296.843 548.232C297.184 547.658 297.645 547.204 298.226 546.87C298.806 546.535 299.455 546.282 300.172 546.112C300.889 545.941 301.62 545.811 302.365 545.722C303.307 545.613 304.072 545.524 304.659 545.456C305.247 545.381 305.673 545.261 305.94 545.097C306.206 544.933 306.339 544.667 306.339 544.298V544.227C306.339 543.332 306.087 542.639 305.581 542.147C305.083 541.655 304.338 541.41 303.348 541.41C302.317 541.41 301.504 541.638 300.91 542.096C300.323 542.547 299.916 543.049 299.691 543.602L296.812 542.946C297.154 541.99 297.652 541.218 298.308 540.631C298.97 540.037 299.732 539.607 300.592 539.34C301.453 539.067 302.358 538.93 303.307 538.93C303.935 538.93 304.601 539.006 305.305 539.156C306.015 539.299 306.677 539.566 307.292 539.955C307.913 540.344 308.422 540.901 308.818 541.625C309.214 542.342 309.412 543.274 309.412 544.421V554.87H306.421V552.719H306.298C306.1 553.115 305.803 553.504 305.407 553.887C305.011 554.269 304.502 554.587 303.881 554.839C303.259 555.092 302.515 555.218 301.647 555.218ZM302.313 552.76C303.16 552.76 303.884 552.593 304.485 552.258C305.093 551.923 305.554 551.486 305.868 550.947C306.189 550.4 306.349 549.816 306.349 549.195V547.167C306.24 547.276 306.028 547.378 305.714 547.474C305.407 547.563 305.055 547.641 304.659 547.71C304.263 547.771 303.877 547.829 303.502 547.884C303.126 547.932 302.812 547.972 302.559 548.007C301.965 548.082 301.422 548.208 300.93 548.386C300.445 548.563 300.056 548.819 299.763 549.154C299.476 549.482 299.332 549.919 299.332 550.465C299.332 551.223 299.612 551.797 300.172 552.186C300.732 552.569 301.446 552.76 302.313 552.76ZM314.865 560.771C314.407 560.771 313.991 560.733 313.615 560.658C313.239 560.59 312.959 560.515 312.775 560.433L313.513 557.923C314.073 558.073 314.571 558.138 315.008 558.117C315.445 558.097 315.831 557.933 316.166 557.626C316.507 557.318 316.808 556.816 317.067 556.12L317.446 555.075L311.689 539.135H314.967L318.952 551.346H319.116L323.101 539.135H326.389L319.905 556.97C319.604 557.79 319.222 558.483 318.757 559.05C318.293 559.623 317.74 560.054 317.098 560.34C316.456 560.627 315.712 560.771 314.865 560.771ZM341.059 542.977L338.283 543.469C338.166 543.113 337.982 542.775 337.729 542.454C337.483 542.133 337.149 541.87 336.725 541.666C336.302 541.461 335.773 541.358 335.138 541.358C334.27 541.358 333.546 541.553 332.966 541.942C332.385 542.325 332.095 542.82 332.095 543.428C332.095 543.953 332.29 544.377 332.679 544.698C333.068 545.019 333.697 545.282 334.564 545.487L337.063 546.06C338.511 546.395 339.59 546.911 340.301 547.607C341.011 548.304 341.366 549.209 341.366 550.322C341.366 551.264 341.093 552.104 340.546 552.842C340.007 553.573 339.252 554.146 338.283 554.563C337.32 554.979 336.203 555.188 334.933 555.188C333.171 555.188 331.733 554.812 330.62 554.061C329.507 553.303 328.824 552.227 328.571 550.834L331.532 550.383C331.716 551.155 332.095 551.739 332.669 552.135C333.242 552.524 333.99 552.719 334.912 552.719C335.916 552.719 336.719 552.511 337.32 552.094C337.921 551.671 338.221 551.155 338.221 550.547C338.221 550.055 338.037 549.642 337.668 549.308C337.306 548.973 336.749 548.72 335.998 548.55L333.335 547.966C331.866 547.631 330.781 547.098 330.077 546.368C329.38 545.637 329.032 544.711 329.032 543.591C329.032 542.663 329.292 541.85 329.811 541.153C330.33 540.457 331.047 539.914 331.962 539.525C332.877 539.129 333.925 538.93 335.107 538.93C336.807 538.93 338.146 539.299 339.123 540.037C340.099 540.768 340.744 541.748 341.059 542.977ZM350.624 546.163C350.624 548.737 350.286 551.104 349.61 553.262C348.934 555.42 347.947 557.411 346.649 559.234H343.842C344.348 558.558 344.819 557.728 345.256 556.745C345.693 555.761 346.076 554.686 346.403 553.518C346.731 552.343 346.987 551.128 347.172 549.871C347.356 548.614 347.448 547.378 347.448 546.163C347.448 544.544 347.288 542.902 346.967 541.235C346.646 539.569 346.212 538.022 345.666 536.595C345.12 535.168 344.512 534.003 343.842 533.102H346.649C347.947 534.925 348.934 536.916 349.61 539.074C350.286 541.232 350.624 543.595 350.624 546.163Z" fill="#303030"/>
</svg>
