<svg width="1011" height="701" viewBox="0 0 1011 701" fill="none" xmlns="http://www.w3.org/2000/svg">
<rect x="0.599609" y="0.582031" width="1010" height="700" fill="white"/>
<path d="M147.476 226.293L180.038 161.897V161.351H142.376V151.698H191.693V161.678L159.24 226.293H147.476ZM204.359 226.293V218.134L229.601 191.982C232.296 189.141 234.518 186.653 236.266 184.516C238.039 182.355 239.362 180.303 240.236 178.36C241.11 176.418 241.547 174.354 241.547 172.168C241.547 169.691 240.965 167.555 239.799 165.758C238.634 163.937 237.043 162.54 235.028 161.569C233.012 160.574 230.742 160.076 228.217 160.076C225.545 160.076 223.214 160.622 221.223 161.715C219.232 162.808 217.702 164.349 216.634 166.341C215.566 168.332 215.031 170.663 215.031 173.334H204.287C204.287 168.793 205.331 164.823 207.419 161.423C209.507 158.024 212.372 155.389 216.015 153.52C219.657 151.626 223.797 150.679 228.435 150.679C233.121 150.679 237.249 151.614 240.819 153.483C244.413 155.329 247.217 157.854 249.233 161.059C251.248 164.24 252.256 167.834 252.256 171.84C252.256 174.609 251.734 177.316 250.69 179.963C249.67 182.61 247.885 185.56 245.335 188.814C242.786 192.043 239.241 195.965 234.7 200.578L219.876 216.095V216.641H253.458V226.293H204.359Z" fill="#E76773"/>
<path d="M140.092 264.947V243.968H147.57C149.196 243.968 150.544 244.248 151.616 244.808C152.696 245.368 153.501 246.143 154.034 247.133C154.567 248.116 154.833 249.253 154.833 250.544C154.833 251.828 154.563 252.958 154.024 253.935C153.491 254.905 152.685 255.659 151.606 256.199C150.534 256.738 149.185 257.008 147.56 257.008H141.895V254.283H147.273C148.297 254.283 149.131 254.136 149.773 253.843C150.421 253.549 150.896 253.122 151.196 252.562C151.497 252.002 151.647 251.33 151.647 250.544C151.647 249.752 151.494 249.066 151.186 248.485C150.886 247.905 150.411 247.461 149.762 247.153C149.12 246.839 148.277 246.682 147.232 246.682H143.257V264.947H140.092ZM150.449 255.482L155.632 264.947H152.026L146.945 255.482H150.449ZM165.023 265.265C163.473 265.265 162.138 264.934 161.018 264.271C159.905 263.602 159.044 262.663 158.436 261.454C157.835 260.238 157.535 258.815 157.535 257.182C157.535 255.571 157.835 254.15 158.436 252.921C159.044 251.692 159.891 250.732 160.977 250.042C162.07 249.352 163.347 249.008 164.808 249.008C165.696 249.008 166.557 249.154 167.39 249.448C168.223 249.742 168.971 250.203 169.633 250.831C170.296 251.459 170.818 252.275 171.2 253.279C171.583 254.276 171.774 255.489 171.774 256.916V258.002H159.266V255.707H168.773C168.773 254.901 168.609 254.188 168.281 253.566C167.953 252.938 167.492 252.443 166.898 252.081C166.311 251.719 165.621 251.538 164.829 251.538C163.968 251.538 163.217 251.75 162.575 252.173C161.94 252.59 161.448 253.136 161.1 253.812C160.758 254.481 160.588 255.209 160.588 255.994V257.787C160.588 258.838 160.772 259.733 161.141 260.471C161.516 261.208 162.039 261.772 162.708 262.161C163.377 262.543 164.159 262.735 165.054 262.735C165.635 262.735 166.164 262.653 166.642 262.489C167.12 262.318 167.533 262.065 167.881 261.731C168.23 261.396 168.496 260.983 168.68 260.491L171.579 261.014C171.347 261.867 170.931 262.615 170.33 263.257C169.736 263.892 168.988 264.387 168.086 264.742C167.192 265.091 166.171 265.265 165.023 265.265ZM186.963 253.054L184.187 253.546C184.071 253.191 183.887 252.853 183.634 252.532C183.388 252.211 183.054 251.948 182.63 251.743C182.207 251.538 181.677 251.435 181.042 251.435C180.175 251.435 179.451 251.63 178.871 252.019C178.29 252.402 178 252.897 178 253.505C178 254.031 178.195 254.454 178.584 254.775C178.973 255.096 179.601 255.359 180.469 255.564L182.968 256.137C184.416 256.472 185.495 256.988 186.205 257.684C186.916 258.381 187.271 259.286 187.271 260.399C187.271 261.341 186.998 262.181 186.451 262.919C185.912 263.65 185.157 264.223 184.187 264.64C183.224 265.057 182.108 265.265 180.837 265.265C179.076 265.265 177.638 264.889 176.525 264.138C175.412 263.38 174.729 262.304 174.476 260.911L177.436 260.46C177.621 261.232 178 261.816 178.574 262.212C179.147 262.601 179.895 262.796 180.817 262.796C181.821 262.796 182.623 262.588 183.224 262.171C183.825 261.748 184.126 261.232 184.126 260.624C184.126 260.133 183.941 259.719 183.573 259.385C183.211 259.05 182.654 258.797 181.903 258.627L179.239 258.043C177.771 257.708 176.685 257.175 175.982 256.445C175.285 255.714 174.937 254.789 174.937 253.669C174.937 252.74 175.196 251.927 175.715 251.231C176.235 250.534 176.952 249.991 177.867 249.602C178.782 249.206 179.83 249.008 181.012 249.008C182.712 249.008 184.051 249.376 185.027 250.114C186.004 250.845 186.649 251.825 186.963 253.054ZM190.638 270.848V249.212H193.63V251.763H193.886C194.063 251.435 194.319 251.056 194.654 250.626C194.989 250.196 195.453 249.82 196.047 249.499C196.641 249.172 197.427 249.008 198.403 249.008C199.674 249.008 200.807 249.329 201.804 249.971C202.801 250.613 203.583 251.538 204.15 252.747C204.724 253.955 205.011 255.41 205.011 257.111C205.011 258.811 204.727 260.269 204.16 261.485C203.594 262.694 202.815 263.626 201.825 264.281C200.835 264.93 199.704 265.255 198.434 265.255C197.478 265.255 196.696 265.094 196.088 264.773C195.487 264.452 195.016 264.077 194.675 263.646C194.333 263.216 194.07 262.834 193.886 262.499H193.701V270.848H190.638ZM193.64 257.08C193.64 258.186 193.8 259.156 194.121 259.989C194.442 260.822 194.907 261.475 195.515 261.946C196.122 262.41 196.867 262.642 197.748 262.642C198.663 262.642 199.428 262.4 200.042 261.915C200.657 261.423 201.121 260.757 201.436 259.917C201.757 259.077 201.917 258.132 201.917 257.08C201.917 256.042 201.76 255.11 201.446 254.283C201.139 253.457 200.674 252.805 200.053 252.327C199.438 251.849 198.67 251.61 197.748 251.61C196.86 251.61 196.109 251.838 195.494 252.296C194.886 252.753 194.425 253.392 194.111 254.212C193.797 255.031 193.64 255.987 193.64 257.08ZM215.07 265.265C213.595 265.265 212.308 264.927 211.208 264.251C210.109 263.575 209.255 262.629 208.647 261.413C208.04 260.197 207.736 258.777 207.736 257.152C207.736 255.519 208.04 254.092 208.647 252.87C209.255 251.647 210.109 250.698 211.208 250.022C212.308 249.346 213.595 249.008 215.07 249.008C216.545 249.008 217.833 249.346 218.932 250.022C220.032 250.698 220.886 251.647 221.493 252.87C222.101 254.092 222.405 255.519 222.405 257.152C222.405 258.777 222.101 260.197 221.493 261.413C220.886 262.629 220.032 263.575 218.932 264.251C217.833 264.927 216.545 265.265 215.07 265.265ZM215.081 262.694C216.037 262.694 216.829 262.441 217.457 261.936C218.085 261.43 218.55 260.757 218.85 259.917C219.158 259.077 219.311 258.152 219.311 257.141C219.311 256.137 219.158 255.215 218.85 254.375C218.55 253.529 218.085 252.849 217.457 252.337C216.829 251.825 216.037 251.569 215.081 251.569C214.118 251.569 213.319 251.825 212.683 252.337C212.055 252.849 211.587 253.529 211.28 254.375C210.98 255.215 210.829 256.137 210.829 257.141C210.829 258.152 210.98 259.077 211.28 259.917C211.587 260.757 212.055 261.43 212.683 261.936C213.319 262.441 214.118 262.694 215.081 262.694ZM228.887 255.605V264.947H225.824V249.212H228.764V251.773H228.959C229.321 250.94 229.887 250.271 230.659 249.766C231.438 249.26 232.418 249.008 233.599 249.008C234.671 249.008 235.61 249.233 236.416 249.684C237.222 250.128 237.847 250.79 238.291 251.671C238.735 252.552 238.957 253.641 238.957 254.939V264.947H235.894V255.308C235.894 254.167 235.597 253.276 235.003 252.634C234.408 251.985 233.592 251.661 232.554 251.661C231.844 251.661 231.212 251.814 230.659 252.122C230.113 252.429 229.679 252.88 229.358 253.474C229.044 254.061 228.887 254.772 228.887 255.605ZM248.955 265.255C247.685 265.255 246.551 264.93 245.554 264.281C244.564 263.626 243.785 262.694 243.218 261.485C242.658 260.269 242.378 258.811 242.378 257.111C242.378 255.41 242.662 253.955 243.229 252.747C243.802 251.538 244.588 250.613 245.585 249.971C246.582 249.329 247.712 249.008 248.975 249.008C249.952 249.008 250.737 249.172 251.332 249.499C251.933 249.82 252.397 250.196 252.725 250.626C253.059 251.056 253.319 251.435 253.503 251.763H253.688V243.968H256.751V264.947H253.759V262.499H253.503C253.319 262.834 253.053 263.216 252.704 263.646C252.363 264.077 251.892 264.452 251.291 264.773C250.69 265.094 249.911 265.255 248.955 265.255ZM249.631 262.642C250.512 262.642 251.256 262.41 251.864 261.946C252.479 261.475 252.943 260.822 253.257 259.989C253.578 259.156 253.739 258.186 253.739 257.08C253.739 255.987 253.582 255.031 253.268 254.212C252.953 253.392 252.493 252.753 251.885 252.296C251.277 251.838 250.526 251.61 249.631 251.61C248.709 251.61 247.941 251.849 247.326 252.327C246.711 252.805 246.247 253.457 245.933 254.283C245.626 255.11 245.472 256.042 245.472 257.08C245.472 258.132 245.629 259.077 245.943 259.917C246.257 260.757 246.722 261.423 247.336 261.915C247.958 262.4 248.723 262.642 249.631 262.642ZM267.904 265.265C266.353 265.265 265.018 264.934 263.898 264.271C262.785 263.602 261.925 262.663 261.317 261.454C260.716 260.238 260.415 258.815 260.415 257.182C260.415 255.571 260.716 254.15 261.317 252.921C261.925 251.692 262.771 250.732 263.857 250.042C264.95 249.352 266.227 249.008 267.689 249.008C268.576 249.008 269.437 249.154 270.27 249.448C271.103 249.742 271.851 250.203 272.514 250.831C273.176 251.459 273.698 252.275 274.081 253.279C274.463 254.276 274.655 255.489 274.655 256.916V258.002H262.147V255.707H271.653C271.653 254.901 271.489 254.188 271.161 253.566C270.834 252.938 270.373 252.443 269.778 252.081C269.191 251.719 268.501 251.538 267.709 251.538C266.849 251.538 266.097 251.75 265.455 252.173C264.82 252.59 264.329 253.136 263.98 253.812C263.639 254.481 263.468 255.209 263.468 255.994V257.787C263.468 258.838 263.652 259.733 264.021 260.471C264.397 261.208 264.919 261.772 265.589 262.161C266.258 262.543 267.04 262.735 267.934 262.735C268.515 262.735 269.044 262.653 269.522 262.489C270 262.318 270.414 262.065 270.762 261.731C271.11 261.396 271.376 260.983 271.561 260.491L274.46 261.014C274.228 261.867 273.811 262.615 273.21 263.257C272.616 263.892 271.868 264.387 270.967 264.742C270.072 265.091 269.051 265.265 267.904 265.265ZM281.116 255.605V264.947H278.053V249.212H280.993V251.773H281.188C281.55 250.94 282.116 250.271 282.888 249.766C283.667 249.26 284.647 249.008 285.828 249.008C286.9 249.008 287.839 249.233 288.645 249.684C289.451 250.128 290.076 250.79 290.52 251.671C290.964 252.552 291.186 253.641 291.186 254.939V264.947H288.123V255.308C288.123 254.167 287.826 253.276 287.232 252.634C286.637 251.985 285.821 251.661 284.783 251.661C284.073 251.661 283.441 251.814 282.888 252.122C282.342 252.429 281.908 252.88 281.587 253.474C281.273 254.061 281.116 254.772 281.116 255.605ZM302.639 249.212V251.671H294.044V249.212H302.639ZM296.349 245.443H299.412V260.327C299.412 260.921 299.5 261.369 299.678 261.669C299.856 261.963 300.084 262.164 300.364 262.274C300.651 262.376 300.962 262.427 301.297 262.427C301.542 262.427 301.758 262.41 301.942 262.376C302.126 262.342 302.27 262.315 302.372 262.294L302.925 264.824C302.748 264.893 302.495 264.961 302.167 265.029C301.84 265.104 301.43 265.145 300.938 265.152C300.132 265.166 299.381 265.022 298.684 264.722C297.988 264.421 297.424 263.957 296.994 263.329C296.564 262.7 296.349 261.912 296.349 260.962V245.443ZM317.564 253.054L314.788 253.546C314.672 253.191 314.487 252.853 314.235 252.532C313.989 252.211 313.654 251.948 313.231 251.743C312.807 251.538 312.278 251.435 311.643 251.435C310.776 251.435 310.052 251.63 309.471 252.019C308.891 252.402 308.601 252.897 308.601 253.505C308.601 254.031 308.795 254.454 309.184 254.775C309.574 255.096 310.202 255.359 311.069 255.564L313.569 256.137C315.017 256.472 316.096 256.988 316.806 257.684C317.516 258.381 317.871 259.286 317.871 260.399C317.871 261.341 317.598 262.181 317.052 262.919C316.512 263.65 315.758 264.223 314.788 264.64C313.825 265.057 312.708 265.265 311.438 265.265C309.676 265.265 308.239 264.889 307.125 264.138C306.012 263.38 305.329 262.304 305.077 260.911L308.037 260.46C308.222 261.232 308.601 261.816 309.174 262.212C309.748 262.601 310.496 262.796 311.418 262.796C312.422 262.796 313.224 262.588 313.825 262.171C314.426 261.748 314.726 261.232 314.726 260.624C314.726 260.133 314.542 259.719 314.173 259.385C313.811 259.05 313.255 258.797 312.504 258.627L309.84 258.043C308.372 257.708 307.286 257.175 306.582 256.445C305.886 255.714 305.538 254.789 305.538 253.669C305.538 252.74 305.797 251.927 306.316 251.231C306.835 250.534 307.552 249.991 308.467 249.602C309.383 249.206 310.431 249.008 311.612 249.008C313.313 249.008 314.651 249.376 315.628 250.114C316.605 250.845 317.25 251.825 317.564 253.054Z" fill="#303030"/>
<mask id="path-4-outside-1_1157_458" maskUnits="userSpaceOnUse" x="460.793" y="143.293" width="414" height="414" fill="black">
<rect fill="white" x="460.793" y="143.293" width="414" height="414"/>
<path d="M873.41 350.102C873.41 463.767 781.267 555.91 667.602 555.91C553.937 555.91 461.793 463.767 461.793 350.102C461.793 236.437 553.937 144.293 667.602 144.293C781.267 144.293 873.41 236.437 873.41 350.102ZM482.374 350.102C482.374 452.4 565.303 535.33 667.602 535.33C769.9 535.33 852.83 452.4 852.83 350.102C852.83 247.803 769.9 164.874 667.602 164.874C565.303 164.874 482.374 247.803 482.374 350.102Z"/>
</mask>
<path d="M873.41 350.102C873.41 463.767 781.267 555.91 667.602 555.91C553.937 555.91 461.793 463.767 461.793 350.102C461.793 236.437 553.937 144.293 667.602 144.293C781.267 144.293 873.41 236.437 873.41 350.102ZM482.374 350.102C482.374 452.4 565.303 535.33 667.602 535.33C769.9 535.33 852.83 452.4 852.83 350.102C852.83 247.803 769.9 164.874 667.602 164.874C565.303 164.874 482.374 247.803 482.374 350.102Z" fill="white"/>
<path d="M873.41 350.102C873.41 463.767 781.267 555.91 667.602 555.91C553.937 555.91 461.793 463.767 461.793 350.102C461.793 236.437 553.937 144.293 667.602 144.293C781.267 144.293 873.41 236.437 873.41 350.102ZM482.374 350.102C482.374 452.4 565.303 535.33 667.602 535.33C769.9 535.33 852.83 452.4 852.83 350.102C852.83 247.803 769.9 164.874 667.602 164.874C565.303 164.874 482.374 247.803 482.374 350.102Z" stroke="#E76773" stroke-width="1.64647" mask="url(#path-4-outside-1_1157_458)"/>
<path d="M667.602 154.583C667.602 148.9 672.213 144.266 677.889 144.55C718.812 146.597 758.282 160.824 791.173 185.519C826.814 212.279 852.805 249.884 865.239 292.683C877.673 335.481 875.878 381.159 860.124 422.85C845.586 461.325 819.883 494.486 786.427 518.142C781.787 521.424 775.411 519.982 772.366 515.183C769.32 510.384 770.761 504.049 775.383 500.742C805.085 479.492 827.909 449.881 840.872 415.575C855.05 378.053 856.665 336.943 845.475 298.424C834.284 259.906 810.892 226.061 778.816 201.978C749.489 179.958 714.352 167.187 677.888 165.159C672.213 164.844 667.602 160.266 667.602 154.583Z" fill="#E76773"/>
<path d="M573.314 356.686V347.58L605.549 296.66H612.724V310.064H608.171L585.115 346.56V347.143H629.297V356.686H573.314ZM608.681 371.255V353.917L608.754 349.765V296.66H619.426V371.255H608.681ZM669.289 296.66V371.255H657.998V307.952H657.561L639.714 319.607V308.826L658.326 296.66H669.289ZM728.404 357.268V353.335C728.404 350.518 728.986 347.944 730.152 345.613C731.342 343.258 733.066 341.376 735.324 339.967C737.607 338.535 740.363 337.818 743.592 337.818C746.895 337.818 749.663 338.523 751.897 339.931C754.131 341.339 755.818 343.221 756.959 345.577C758.125 347.932 758.708 350.518 758.708 353.335V357.268C758.708 360.085 758.125 362.671 756.959 365.027C755.794 367.358 754.082 369.239 751.824 370.672C749.59 372.08 746.846 372.785 743.592 372.785C740.314 372.785 737.546 372.08 735.288 370.672C733.029 369.239 731.318 367.358 730.152 365.027C728.986 362.671 728.404 360.085 728.404 357.268ZM736.89 353.335V357.268C736.89 359.357 737.388 361.251 738.384 362.95C739.379 364.65 741.115 365.5 743.592 365.5C746.045 365.5 747.757 364.65 748.728 362.95C749.699 361.251 750.185 359.357 750.185 357.268V353.335C750.185 351.246 749.711 349.352 748.764 347.653C747.842 345.953 746.117 345.103 743.592 345.103C741.164 345.103 739.44 345.953 738.42 347.653C737.4 349.352 736.89 351.246 736.89 353.335ZM690.888 314.581V310.647C690.888 307.83 691.471 305.244 692.636 302.889C693.826 300.533 695.55 298.652 697.808 297.243C700.091 295.835 702.847 295.131 706.076 295.131C709.379 295.131 712.147 295.835 714.381 297.243C716.615 298.652 718.302 300.533 719.444 302.889C720.585 305.244 721.156 307.83 721.156 310.647V314.581C721.156 317.397 720.573 319.983 719.407 322.339C718.266 324.67 716.566 326.552 714.308 327.984C712.074 329.393 709.33 330.097 706.076 330.097C702.774 330.097 699.994 329.393 697.735 327.984C695.502 326.552 693.802 324.67 692.636 322.339C691.471 319.983 690.888 317.397 690.888 314.581ZM699.411 310.647V314.581C699.411 316.669 699.897 318.563 700.868 320.263C701.863 321.962 703.6 322.812 706.076 322.812C708.505 322.812 710.204 321.962 711.176 320.263C712.171 318.563 712.669 316.669 712.669 314.581V310.647C712.669 308.559 712.195 306.665 711.248 304.965C710.301 303.265 708.577 302.415 706.076 302.415C703.648 302.415 701.924 303.265 700.904 304.965C699.909 306.665 699.411 308.559 699.411 310.647ZM694.348 371.255L745.632 296.66H754.337L703.053 371.255H694.348Z" fill="#E76773"/>
<path d="M570.01 409.909V388.929H583.163V391.654H573.175V398.047H582.477V400.761H573.175V407.184H583.286V409.909H570.01ZM589.563 394.174L593.036 400.3L596.539 394.174H599.889L594.982 402.042L599.93 409.909H596.58L593.036 404.029L589.502 409.909H586.142L591.038 402.042L586.203 394.174H589.563ZM603.034 415.81V394.174H606.025V396.725H606.281C606.459 396.397 606.715 396.018 607.05 395.588C607.384 395.158 607.849 394.782 608.443 394.461C609.037 394.133 609.822 393.97 610.799 393.97C612.069 393.97 613.203 394.291 614.2 394.932C615.197 395.574 615.979 396.5 616.546 397.709C617.12 398.917 617.406 400.372 617.406 402.073C617.406 403.773 617.123 405.231 616.556 406.447C615.989 407.656 615.211 408.588 614.22 409.243C613.23 409.892 612.1 410.216 610.83 410.216C609.874 410.216 609.092 410.056 608.484 409.735C607.883 409.414 607.412 409.038 607.07 408.608C606.729 408.178 606.466 407.796 606.281 407.461H606.097V415.81H603.034ZM606.036 402.042C606.036 403.148 606.196 404.118 606.517 404.951C606.838 405.784 607.302 406.436 607.91 406.908C608.518 407.372 609.262 407.604 610.143 407.604C611.059 407.604 611.823 407.362 612.438 406.877C613.053 406.385 613.517 405.719 613.831 404.879C614.152 404.039 614.313 403.094 614.313 402.042C614.313 401.004 614.156 400.072 613.841 399.245C613.534 398.419 613.07 397.767 612.448 397.289C611.834 396.811 611.065 396.572 610.143 396.572C609.256 396.572 608.504 396.8 607.89 397.258C607.282 397.715 606.821 398.354 606.507 399.173C606.193 399.993 606.036 400.949 606.036 402.042ZM627.62 410.227C626.069 410.227 624.734 409.896 623.614 409.233C622.501 408.564 621.641 407.625 621.033 406.416C620.432 405.2 620.131 403.776 620.131 402.144C620.131 400.533 620.432 399.112 621.033 397.883C621.641 396.653 622.487 395.694 623.573 395.004C624.666 394.314 625.943 393.97 627.405 393.97C628.292 393.97 629.153 394.116 629.986 394.41C630.819 394.704 631.567 395.165 632.229 395.793C632.892 396.421 633.414 397.237 633.797 398.241C634.179 399.238 634.37 400.451 634.37 401.878V402.964H621.863V400.669H631.369C631.369 399.863 631.205 399.15 630.877 398.528C630.549 397.9 630.088 397.405 629.494 397.043C628.907 396.681 628.217 396.5 627.425 396.5C626.564 396.5 625.813 396.712 625.171 397.135C624.536 397.552 624.044 398.098 623.696 398.774C623.355 399.443 623.184 400.171 623.184 400.956V402.749C623.184 403.8 623.368 404.695 623.737 405.433C624.113 406.17 624.635 406.734 625.304 407.123C625.974 407.505 626.756 407.696 627.65 407.696C628.231 407.696 628.76 407.615 629.238 407.451C629.716 407.28 630.129 407.027 630.478 406.693C630.826 406.358 631.092 405.945 631.277 405.453L634.176 405.975C633.944 406.829 633.527 407.577 632.926 408.219C632.332 408.854 631.584 409.349 630.683 409.704C629.788 410.053 628.767 410.227 627.62 410.227ZM637.769 409.909V394.174H640.729V396.674H640.893C641.18 395.827 641.685 395.161 642.409 394.676C643.14 394.185 643.966 393.939 644.888 393.939C645.08 393.939 645.305 393.946 645.565 393.959C645.831 393.973 646.039 393.99 646.189 394.011V396.94C646.067 396.906 645.848 396.869 645.534 396.828C645.22 396.78 644.906 396.756 644.591 396.756C643.867 396.756 643.222 396.91 642.655 397.217C642.095 397.517 641.651 397.937 641.324 398.477C640.996 399.01 640.832 399.617 640.832 400.3V409.909H637.769ZM648.84 409.909V394.174H651.903V409.909H648.84ZM650.387 391.747C649.854 391.747 649.397 391.569 649.014 391.214C648.639 390.852 648.451 390.422 648.451 389.923C648.451 389.418 648.639 388.988 649.014 388.632C649.397 388.27 649.854 388.089 650.387 388.089C650.92 388.089 651.374 388.27 651.749 388.632C652.132 388.988 652.323 389.418 652.323 389.923C652.323 390.422 652.132 390.852 651.749 391.214C651.374 391.569 650.92 391.747 650.387 391.747ZM662.805 410.227C661.255 410.227 659.92 409.896 658.8 409.233C657.687 408.564 656.826 407.625 656.218 406.416C655.617 405.2 655.317 403.776 655.317 402.144C655.317 400.533 655.617 399.112 656.218 397.883C656.826 396.653 657.673 395.694 658.759 395.004C659.851 394.314 661.129 393.97 662.59 393.97C663.478 393.97 664.338 394.116 665.172 394.41C666.005 394.704 666.753 395.165 667.415 395.793C668.077 396.421 668.6 397.237 668.982 398.241C669.365 399.238 669.556 400.451 669.556 401.878V402.964H657.048V400.669H666.554C666.554 399.863 666.391 399.15 666.063 398.528C665.735 397.9 665.274 397.405 664.68 397.043C664.093 396.681 663.403 396.5 662.611 396.5C661.75 396.5 660.999 396.712 660.357 397.135C659.722 397.552 659.23 398.098 658.882 398.774C658.54 399.443 658.37 400.171 658.37 400.956V402.749C658.37 403.8 658.554 404.695 658.923 405.433C659.298 406.17 659.821 406.734 660.49 407.123C661.159 407.505 661.941 407.696 662.836 407.696C663.416 407.696 663.946 407.615 664.424 407.451C664.902 407.28 665.315 407.027 665.663 406.693C666.012 406.358 666.278 405.945 666.462 405.453L669.361 405.975C669.129 406.829 668.713 407.577 668.112 408.219C667.517 408.854 666.77 409.349 665.868 409.704C664.973 410.053 663.953 410.227 662.805 410.227ZM676.017 400.567V409.909H672.954V394.174H675.894V396.735H676.089C676.451 395.902 677.018 395.233 677.79 394.728C678.568 394.222 679.548 393.97 680.73 393.97C681.802 393.97 682.741 394.195 683.547 394.646C684.353 395.09 684.977 395.752 685.421 396.633C685.865 397.514 686.087 398.603 686.087 399.901V409.909H683.024V400.27C683.024 399.129 682.727 398.238 682.133 397.596C681.539 396.947 680.723 396.623 679.685 396.623C678.974 396.623 678.343 396.776 677.79 397.084C677.243 397.391 676.81 397.842 676.489 398.436C676.174 399.023 676.017 399.733 676.017 400.567ZM696.823 410.227C695.3 410.227 693.989 409.882 692.889 409.192C691.797 408.496 690.957 407.536 690.369 406.314C689.782 405.091 689.488 403.691 689.488 402.114C689.488 400.515 689.789 399.105 690.39 397.883C690.991 396.653 691.838 395.694 692.93 395.004C694.023 394.314 695.31 393.97 696.792 393.97C697.987 393.97 699.053 394.191 699.988 394.635C700.924 395.072 701.679 395.687 702.252 396.479C702.833 397.272 703.178 398.197 703.287 399.255H700.306C700.142 398.518 699.766 397.883 699.179 397.35C698.599 396.817 697.82 396.551 696.843 396.551C695.99 396.551 695.242 396.776 694.6 397.227C693.965 397.671 693.47 398.306 693.115 399.132C692.759 399.952 692.582 400.922 692.582 402.042C692.582 403.189 692.756 404.179 693.104 405.013C693.453 405.846 693.944 406.491 694.579 406.949C695.221 407.406 695.976 407.635 696.843 407.635C697.424 407.635 697.95 407.529 698.421 407.317C698.899 407.099 699.299 406.788 699.62 406.385C699.947 405.982 700.176 405.497 700.306 404.931H703.287C703.178 405.948 702.846 406.856 702.293 407.656C701.74 408.455 700.999 409.083 700.07 409.54C699.148 409.998 698.066 410.227 696.823 410.227ZM713.344 410.227C711.794 410.227 710.459 409.896 709.339 409.233C708.225 408.564 707.365 407.625 706.757 406.416C706.156 405.2 705.856 403.776 705.856 402.144C705.856 400.533 706.156 399.112 706.757 397.883C707.365 396.653 708.212 395.694 709.298 395.004C710.39 394.314 711.667 393.97 713.129 393.97C714.017 393.97 714.877 394.116 715.71 394.41C716.543 394.704 717.291 395.165 717.954 395.793C718.616 396.421 719.139 397.237 719.521 398.241C719.903 399.238 720.095 400.451 720.095 401.878V402.964H707.587V400.669H717.093C717.093 399.863 716.929 399.15 716.601 398.528C716.274 397.9 715.813 397.405 715.219 397.043C714.631 396.681 713.941 396.5 713.149 396.5C712.289 396.5 711.538 396.712 710.896 397.135C710.26 397.552 709.769 398.098 709.42 398.774C709.079 399.443 708.908 400.171 708.908 400.956V402.749C708.908 403.8 709.093 404.695 709.461 405.433C709.837 406.17 710.359 406.734 711.029 407.123C711.698 407.505 712.48 407.696 713.375 407.696C713.955 407.696 714.484 407.615 714.962 407.451C715.441 407.28 715.854 407.027 716.202 406.693C716.55 406.358 716.817 405.945 717.001 405.453L719.9 405.975C719.668 406.829 719.251 407.577 718.65 408.219C718.056 408.854 717.308 409.349 716.407 409.704C715.512 410.053 714.491 410.227 713.344 410.227ZM729.383 410.216C728.113 410.216 726.98 409.892 725.982 409.243C724.992 408.588 724.214 407.656 723.647 406.447C723.087 405.231 722.807 403.773 722.807 402.073C722.807 400.372 723.09 398.917 723.657 397.709C724.231 396.5 725.016 395.574 726.013 394.932C727.01 394.291 728.141 393.97 729.404 393.97C730.381 393.97 731.166 394.133 731.76 394.461C732.361 394.782 732.825 395.158 733.153 395.588C733.488 396.018 733.747 396.397 733.932 396.725H734.116V388.929H737.179V409.909H734.188V407.461H733.932C733.747 407.796 733.481 408.178 733.133 408.608C732.791 409.038 732.32 409.414 731.719 409.735C731.118 410.056 730.34 410.216 729.383 410.216ZM730.06 407.604C730.941 407.604 731.685 407.372 732.293 406.908C732.907 406.436 733.372 405.784 733.686 404.951C734.007 404.118 734.167 403.148 734.167 402.042C734.167 400.949 734.01 399.993 733.696 399.173C733.382 398.354 732.921 397.715 732.313 397.258C731.705 396.8 730.954 396.572 730.06 396.572C729.138 396.572 728.369 396.811 727.755 397.289C727.14 397.767 726.676 398.419 726.361 399.245C726.054 400.072 725.9 401.004 725.9 402.042C725.9 403.094 726.058 404.039 726.372 404.879C726.686 405.719 727.15 406.385 727.765 406.877C728.386 407.362 729.151 407.604 730.06 407.604ZM752.596 388.929V409.909H749.431V388.929H752.596ZM764.305 394.174V396.633H755.711V394.174H764.305ZM758.015 390.405H761.078V405.289C761.078 405.883 761.167 406.331 761.345 406.631C761.522 406.925 761.751 407.126 762.031 407.235C762.318 407.338 762.629 407.389 762.963 407.389C763.209 407.389 763.424 407.372 763.609 407.338C763.793 407.304 763.936 407.276 764.039 407.256L764.592 409.786C764.414 409.855 764.162 409.923 763.834 409.991C763.506 410.066 763.096 410.107 762.605 410.114C761.799 410.128 761.048 409.984 760.351 409.684C759.654 409.383 759.091 408.919 758.661 408.291C758.231 407.662 758.015 406.874 758.015 405.924V390.405Z" fill="#303030"/>
<path d="M170.167 517.236C164.947 517.236 160.333 516.337 156.326 514.54C152.344 512.743 149.224 510.267 146.966 507.11C144.707 503.953 143.591 500.36 143.615 496.329C143.591 493.172 144.234 490.27 145.545 487.624C146.881 484.953 148.69 482.731 150.972 480.958C153.255 479.161 155.804 478.02 158.621 477.535V477.097C154.906 476.199 151.931 474.208 149.697 471.124C147.464 468.04 146.359 464.495 146.383 460.489C146.359 456.676 147.366 453.277 149.406 450.29C151.47 447.279 154.299 444.912 157.893 443.188C161.486 441.464 165.578 440.601 170.167 440.601C174.708 440.601 178.763 441.476 182.333 443.224C185.926 444.948 188.755 447.315 190.819 450.326C192.883 453.313 193.927 456.7 193.952 460.489C193.927 464.495 192.786 468.04 190.528 471.124C188.27 474.208 185.331 476.199 181.713 477.097V477.535C184.506 478.02 187.019 479.161 189.253 480.958C191.511 482.731 193.308 484.953 194.644 487.624C196.003 490.27 196.695 493.172 196.72 496.329C196.695 500.36 195.554 503.953 193.296 507.11C191.038 510.267 187.905 512.743 183.899 514.54C179.916 516.337 175.339 517.236 170.167 517.236ZM170.167 508.021C173.251 508.021 175.922 507.511 178.18 506.491C180.439 505.447 182.187 504.002 183.425 502.157C184.664 500.287 185.295 498.101 185.319 495.6C185.295 493.002 184.615 490.708 183.28 488.716C181.968 486.725 180.184 485.159 177.925 484.018C175.667 482.877 173.081 482.306 170.167 482.306C167.229 482.306 164.619 482.877 162.336 484.018C160.054 485.159 158.257 486.725 156.946 488.716C155.634 490.708 154.991 493.002 155.015 495.6C154.991 498.101 155.586 500.287 156.8 502.157C158.038 504.002 159.799 505.447 162.081 506.491C164.364 507.511 167.059 508.021 170.167 508.021ZM170.167 473.309C172.644 473.309 174.842 472.812 176.76 471.816C178.678 470.821 180.184 469.436 181.276 467.664C182.393 465.891 182.964 463.815 182.988 461.435C182.964 459.104 182.405 457.065 181.313 455.316C180.244 453.568 178.751 452.22 176.833 451.273C174.914 450.302 172.693 449.817 170.167 449.817C167.593 449.817 165.335 450.302 163.393 451.273C161.474 452.22 159.981 453.568 158.912 455.316C157.844 457.065 157.322 459.104 157.346 461.435C157.322 463.815 157.856 465.891 158.949 467.664C160.042 469.436 161.547 470.821 163.465 471.816C165.408 472.812 167.642 473.309 170.167 473.309Z" fill="#E76773"/>
<path d="M146.884 554.87H140.092V533.89H147.099C149.155 533.89 150.92 534.31 152.395 535.15C153.87 535.984 155 537.182 155.786 538.746C156.578 540.303 156.974 542.171 156.974 544.35C156.974 546.535 156.575 548.413 155.776 549.984C154.983 551.554 153.836 552.763 152.334 553.61C150.831 554.45 149.015 554.87 146.884 554.87ZM143.257 552.104H146.71C148.308 552.104 149.636 551.804 150.695 551.203C151.753 550.595 152.545 549.717 153.071 548.57C153.597 547.416 153.86 546.009 153.86 544.35C153.86 542.704 153.597 541.307 153.071 540.16C152.552 539.012 151.777 538.142 150.746 537.548C149.715 536.953 148.434 536.656 146.904 536.656H143.257V552.104ZM170.632 548.345V539.135H173.705V554.87H170.693V552.145H170.529C170.168 552.985 169.587 553.685 168.788 554.245C167.996 554.798 167.009 555.075 165.827 555.075C164.817 555.075 163.922 554.853 163.144 554.409C162.372 553.958 161.764 553.293 161.32 552.412C160.883 551.531 160.665 550.441 160.665 549.144V539.135H163.727V548.775C163.727 549.847 164.025 550.701 164.619 551.336C165.213 551.971 165.985 552.289 166.934 552.289C167.507 552.289 168.078 552.145 168.645 551.858C169.218 551.572 169.693 551.138 170.068 550.557C170.451 549.977 170.639 549.239 170.632 548.345ZM177.821 554.87V539.135H180.781V541.635H180.945C181.232 540.788 181.737 540.122 182.461 539.637C183.192 539.146 184.018 538.9 184.94 538.9C185.131 538.9 185.357 538.907 185.616 538.92C185.883 538.934 186.091 538.951 186.241 538.971V541.901C186.118 541.867 185.9 541.83 185.586 541.789C185.271 541.741 184.957 541.717 184.643 541.717C183.919 541.717 183.274 541.87 182.707 542.178C182.147 542.478 181.703 542.898 181.375 543.438C181.047 543.971 180.884 544.578 180.884 545.261V554.87H177.821ZM193.33 555.218C192.333 555.218 191.431 555.034 190.626 554.665C189.82 554.29 189.181 553.747 188.71 553.036C188.246 552.326 188.013 551.455 188.013 550.424C188.013 549.536 188.184 548.806 188.526 548.232C188.867 547.658 189.328 547.204 189.909 546.87C190.489 546.535 191.138 546.282 191.855 546.112C192.572 545.941 193.303 545.811 194.047 545.722C194.99 545.613 195.754 545.524 196.342 545.456C196.929 545.381 197.356 545.261 197.622 545.097C197.889 544.933 198.022 544.667 198.022 544.298V544.227C198.022 543.332 197.769 542.639 197.264 542.147C196.765 541.655 196.021 541.41 195.031 541.41C193.999 541.41 193.187 541.638 192.592 542.096C192.005 542.547 191.599 543.049 191.373 543.602L188.495 542.946C188.836 541.99 189.335 541.218 189.99 540.631C190.653 540.037 191.414 539.607 192.275 539.34C193.135 539.067 194.04 538.93 194.99 538.93C195.618 538.93 196.284 539.006 196.987 539.156C197.697 539.299 198.36 539.566 198.974 539.955C199.596 540.344 200.105 540.901 200.501 541.625C200.897 542.342 201.095 543.274 201.095 544.421V554.87H198.104V552.719H197.981C197.783 553.115 197.486 553.504 197.09 553.887C196.693 554.269 196.185 554.587 195.563 554.839C194.942 555.092 194.197 555.218 193.33 555.218ZM193.996 552.76C194.843 552.76 195.567 552.593 196.168 552.258C196.775 551.923 197.236 551.486 197.551 550.947C197.872 550.4 198.032 549.816 198.032 549.195V547.167C197.923 547.276 197.711 547.378 197.397 547.474C197.09 547.563 196.738 547.641 196.342 547.71C195.946 547.771 195.56 547.829 195.184 547.884C194.809 547.932 194.494 547.972 194.242 548.007C193.648 548.082 193.105 548.208 192.613 548.386C192.128 548.563 191.739 548.819 191.445 549.154C191.158 549.482 191.015 549.919 191.015 550.465C191.015 551.223 191.295 551.797 191.855 552.186C192.415 552.569 193.129 552.76 193.996 552.76ZM212.52 539.135V541.594H203.925V539.135H212.52ZM206.23 535.366H209.293V550.25C209.293 550.844 209.382 551.292 209.559 551.592C209.737 551.886 209.965 552.087 210.245 552.196C210.532 552.299 210.843 552.35 211.178 552.35C211.423 552.35 211.639 552.333 211.823 552.299C212.007 552.265 212.151 552.237 212.253 552.217L212.806 554.747C212.629 554.815 212.376 554.884 212.048 554.952C211.721 555.027 211.311 555.068 210.819 555.075C210.013 555.089 209.262 554.945 208.565 554.645C207.869 554.344 207.305 553.88 206.875 553.252C206.445 552.623 206.23 551.834 206.23 550.885V535.366ZM215.908 554.87V539.135H218.971V554.87H215.908ZM217.455 536.708C216.922 536.708 216.464 536.53 216.082 536.175C215.706 535.813 215.519 535.383 215.519 534.884C215.519 534.379 215.706 533.948 216.082 533.593C216.464 533.231 216.922 533.05 217.455 533.05C217.987 533.05 218.441 533.231 218.817 533.593C219.2 533.948 219.391 534.379 219.391 534.884C219.391 535.383 219.2 535.813 218.817 536.175C218.441 536.53 217.987 536.708 217.455 536.708ZM229.719 555.188C228.244 555.188 226.957 554.85 225.857 554.174C224.758 553.497 223.904 552.552 223.296 551.336C222.688 550.12 222.385 548.7 222.385 547.074C222.385 545.442 222.688 544.015 223.296 542.792C223.904 541.57 224.758 540.621 225.857 539.945C226.957 539.269 228.244 538.93 229.719 538.93C231.194 538.93 232.482 539.269 233.581 539.945C234.681 540.621 235.534 541.57 236.142 542.792C236.75 544.015 237.054 545.442 237.054 547.074C237.054 548.7 236.75 550.12 236.142 551.336C235.534 552.552 234.681 553.497 233.581 554.174C232.482 554.85 231.194 555.188 229.719 555.188ZM229.729 552.616C230.686 552.616 231.478 552.364 232.106 551.858C232.734 551.353 233.199 550.68 233.499 549.84C233.807 549 233.96 548.075 233.96 547.064C233.96 546.06 233.807 545.138 233.499 544.298C233.199 543.451 232.734 542.772 232.106 542.26C231.478 541.748 230.686 541.491 229.729 541.491C228.767 541.491 227.968 541.748 227.332 542.26C226.704 542.772 226.236 543.451 225.929 544.298C225.628 545.138 225.478 546.06 225.478 547.064C225.478 548.075 225.628 549 225.929 549.84C226.236 550.68 226.704 551.353 227.332 551.858C227.968 552.364 228.767 552.616 229.729 552.616ZM243.536 545.528V554.87H240.473V539.135H243.413V541.696H243.608C243.97 540.863 244.536 540.194 245.308 539.689C246.087 539.183 247.067 538.93 248.248 538.93C249.32 538.93 250.259 539.156 251.065 539.607C251.871 540.05 252.496 540.713 252.94 541.594C253.384 542.475 253.606 543.564 253.606 544.862V554.87H250.543V545.231C250.543 544.09 250.246 543.199 249.652 542.557C249.057 541.908 248.241 541.584 247.203 541.584C246.493 541.584 245.861 541.737 245.308 542.045C244.762 542.352 244.328 542.803 244.007 543.397C243.693 543.984 243.536 544.694 243.536 545.528ZM266.239 544.38C266.239 541.812 266.577 539.449 267.253 537.291C267.929 535.133 268.916 533.143 270.214 531.319H273.021C272.515 531.995 272.044 532.825 271.607 533.808C271.17 534.792 270.787 535.871 270.46 537.046C270.132 538.213 269.876 539.426 269.691 540.682C269.507 541.932 269.415 543.165 269.415 544.38C269.415 546.006 269.575 547.652 269.896 549.318C270.217 550.984 270.651 552.531 271.197 553.958C271.744 555.386 272.351 556.55 273.021 557.452H270.214C268.916 555.628 267.929 553.637 267.253 551.479C266.577 549.321 266.239 546.955 266.239 544.38ZM283.288 554.87H276.496V533.89H283.503C285.558 533.89 287.324 534.31 288.799 535.15C290.274 535.984 291.404 537.182 292.19 538.746C292.982 540.303 293.378 542.171 293.378 544.35C293.378 546.535 292.978 548.413 292.179 549.984C291.387 551.554 290.24 552.763 288.737 553.61C287.235 554.45 285.418 554.87 283.288 554.87ZM279.661 552.104H283.114C284.712 552.104 286.04 551.804 287.098 551.203C288.157 550.595 288.949 549.717 289.475 548.57C290.001 547.416 290.264 546.009 290.264 544.35C290.264 542.704 290.001 541.307 289.475 540.16C288.956 539.012 288.181 538.142 287.15 537.548C286.118 536.953 284.838 536.656 283.308 536.656H279.661V552.104ZM301.647 555.218C300.65 555.218 299.749 555.034 298.943 554.665C298.137 554.29 297.499 553.747 297.027 553.036C296.563 552.326 296.331 551.455 296.331 550.424C296.331 549.536 296.502 548.806 296.843 548.232C297.184 547.658 297.645 547.204 298.226 546.87C298.806 546.535 299.455 546.282 300.172 546.112C300.889 545.941 301.62 545.811 302.365 545.722C303.307 545.613 304.072 545.524 304.659 545.456C305.247 545.381 305.673 545.261 305.94 545.097C306.206 544.933 306.339 544.667 306.339 544.298V544.227C306.339 543.332 306.087 542.639 305.581 542.147C305.083 541.655 304.338 541.41 303.348 541.41C302.317 541.41 301.504 541.638 300.91 542.096C300.323 542.547 299.916 543.049 299.691 543.602L296.812 542.946C297.154 541.99 297.652 541.218 298.308 540.631C298.97 540.037 299.732 539.607 300.592 539.34C301.453 539.067 302.358 538.93 303.307 538.93C303.935 538.93 304.601 539.006 305.305 539.156C306.015 539.299 306.677 539.566 307.292 539.955C307.913 540.344 308.422 540.901 308.818 541.625C309.214 542.342 309.412 543.274 309.412 544.421V554.87H306.421V552.719H306.298C306.1 553.115 305.803 553.504 305.407 553.887C305.011 554.269 304.502 554.587 303.881 554.839C303.259 555.092 302.515 555.218 301.647 555.218ZM302.313 552.76C303.16 552.76 303.884 552.593 304.485 552.258C305.093 551.923 305.554 551.486 305.868 550.947C306.189 550.4 306.349 549.816 306.349 549.195V547.167C306.24 547.276 306.028 547.378 305.714 547.474C305.407 547.563 305.055 547.641 304.659 547.71C304.263 547.771 303.877 547.829 303.502 547.884C303.126 547.932 302.812 547.972 302.559 548.007C301.965 548.082 301.422 548.208 300.93 548.386C300.445 548.563 300.056 548.819 299.763 549.154C299.476 549.482 299.332 549.919 299.332 550.465C299.332 551.223 299.612 551.797 300.172 552.186C300.732 552.569 301.446 552.76 302.313 552.76ZM314.865 560.771C314.407 560.771 313.991 560.733 313.615 560.658C313.239 560.59 312.959 560.515 312.775 560.433L313.513 557.923C314.073 558.073 314.571 558.138 315.008 558.117C315.445 558.097 315.831 557.933 316.166 557.626C316.507 557.318 316.808 556.816 317.067 556.12L317.446 555.075L311.689 539.135H314.967L318.952 551.346H319.116L323.101 539.135H326.389L319.905 556.97C319.604 557.79 319.222 558.483 318.757 559.05C318.293 559.623 317.74 560.054 317.098 560.34C316.456 560.627 315.712 560.771 314.865 560.771ZM341.059 542.977L338.283 543.469C338.166 543.113 337.982 542.775 337.729 542.454C337.483 542.133 337.149 541.87 336.725 541.666C336.302 541.461 335.773 541.358 335.138 541.358C334.27 541.358 333.546 541.553 332.966 541.942C332.385 542.325 332.095 542.82 332.095 543.428C332.095 543.953 332.29 544.377 332.679 544.698C333.068 545.019 333.697 545.282 334.564 545.487L337.063 546.06C338.511 546.395 339.59 546.911 340.301 547.607C341.011 548.304 341.366 549.209 341.366 550.322C341.366 551.264 341.093 552.104 340.546 552.842C340.007 553.573 339.252 554.146 338.283 554.563C337.32 554.979 336.203 555.188 334.933 555.188C333.171 555.188 331.733 554.812 330.62 554.061C329.507 553.303 328.824 552.227 328.571 550.834L331.532 550.383C331.716 551.155 332.095 551.739 332.669 552.135C333.242 552.524 333.99 552.719 334.912 552.719C335.916 552.719 336.719 552.511 337.32 552.094C337.921 551.671 338.221 551.155 338.221 550.547C338.221 550.055 338.037 549.642 337.668 549.308C337.306 548.973 336.749 548.72 335.998 548.55L333.335 547.966C331.866 547.631 330.781 547.098 330.077 546.368C329.38 545.637 329.032 544.711 329.032 543.591C329.032 542.663 329.292 541.85 329.811 541.153C330.33 540.457 331.047 539.914 331.962 539.525C332.877 539.129 333.925 538.93 335.107 538.93C336.807 538.93 338.146 539.299 339.123 540.037C340.099 540.768 340.744 541.748 341.059 542.977ZM350.624 546.163C350.624 548.737 350.286 551.104 349.61 553.262C348.934 555.42 347.947 557.411 346.649 559.234H343.842C344.348 558.558 344.819 557.728 345.256 556.745C345.693 555.761 346.076 554.686 346.403 553.518C346.731 552.343 346.987 551.128 347.172 549.871C347.356 548.614 347.448 547.378 347.448 546.163C347.448 544.544 347.288 542.902 346.967 541.235C346.646 539.569 346.212 538.022 345.666 536.595C345.12 535.168 344.512 534.003 343.842 533.102H346.649C347.947 534.925 348.934 536.916 349.61 539.074C350.286 541.232 350.624 543.595 350.624 546.163Z" fill="#303030"/>
</svg>
